%TF.GenerationSoftware,KiCad,Pcbnew,(5.99.0-12610-g07e01e6297)*%
%TF.CreationDate,2021-11-07T21:16:04+00:00*%
%TF.ProjectId,piccolo-backplate,70696363-6f6c-46f2-9d62-61636b706c61,rev?*%
%TF.SameCoordinates,Original*%
%TF.FileFunction,Legend,Bot*%
%TF.FilePolarity,Positive*%
%FSLAX46Y46*%
G04 Gerber Fmt 4.6, Leading zero omitted, Abs format (unit mm)*
G04 Created by KiCad (PCBNEW (5.99.0-12610-g07e01e6297)) date 2021-11-07 21:16:04*
%MOMM*%
%LPD*%
G01*
G04 APERTURE LIST*
G04 APERTURE END LIST*
%TO.C,G\u002A\u002A\u002A*%
G36*
X181608715Y-99515959D02*
G01*
X181608705Y-99620766D01*
X181608370Y-99911860D01*
X181607109Y-100152105D01*
X181604322Y-100347112D01*
X181599408Y-100502495D01*
X181591768Y-100623865D01*
X181580800Y-100716834D01*
X181565904Y-100787013D01*
X181546479Y-100840016D01*
X181521924Y-100881454D01*
X181491640Y-100916938D01*
X181455025Y-100952082D01*
X181446558Y-100959528D01*
X181363381Y-101015652D01*
X181269218Y-101060035D01*
X181259383Y-101063406D01*
X181151340Y-101089747D01*
X181046471Y-101101245D01*
X180935717Y-101102523D01*
X180944521Y-100949599D01*
X180949215Y-100884168D01*
X180960975Y-100824771D01*
X180985893Y-100797740D01*
X181032382Y-100787559D01*
X181040945Y-100786167D01*
X181115099Y-100752263D01*
X181185307Y-100690656D01*
X181259174Y-100602870D01*
X181259174Y-98335321D01*
X181608715Y-98335321D01*
X181608715Y-99515959D01*
G37*
G36*
X180624340Y-100450171D02*
G01*
X180543636Y-100652169D01*
X180428624Y-100826423D01*
X180283371Y-100964216D01*
X180111940Y-101056830D01*
X180038634Y-101077473D01*
X179875044Y-101096604D01*
X179695969Y-101091750D01*
X179524811Y-101064244D01*
X179384972Y-101015419D01*
X179254010Y-100930659D01*
X179111555Y-100780911D01*
X179005631Y-100593700D01*
X178938742Y-100375358D01*
X178913393Y-100132215D01*
X178915867Y-100097592D01*
X179293004Y-100097592D01*
X179293403Y-100173575D01*
X179297780Y-100294290D01*
X179309364Y-100382799D01*
X179331073Y-100456554D01*
X179365825Y-100533005D01*
X179396207Y-100587107D01*
X179457305Y-100673979D01*
X179513722Y-100731555D01*
X179631766Y-100790350D01*
X179784532Y-100816619D01*
X179939648Y-100800970D01*
X180076590Y-100742985D01*
X180098098Y-100726185D01*
X180161188Y-100656540D01*
X180217458Y-100570503D01*
X180244563Y-100514081D01*
X180264638Y-100450683D01*
X180276422Y-100372133D01*
X180281978Y-100264076D01*
X180283371Y-100112156D01*
X180283348Y-100083472D01*
X180281713Y-99942475D01*
X180275883Y-99842822D01*
X180263590Y-99770042D01*
X180242568Y-99709668D01*
X180210550Y-99647228D01*
X180174305Y-99588387D01*
X180067576Y-99471589D01*
X179937490Y-99405051D01*
X179776078Y-99383945D01*
X179636672Y-99397674D01*
X179507625Y-99449344D01*
X179410733Y-99542220D01*
X179343997Y-99679253D01*
X179305419Y-99863393D01*
X179293004Y-100097592D01*
X178915867Y-100097592D01*
X178932089Y-99870603D01*
X178932623Y-99867171D01*
X178993203Y-99627025D01*
X179091847Y-99429795D01*
X179226850Y-99276939D01*
X179396512Y-99169917D01*
X179599128Y-99110184D01*
X179832996Y-99099201D01*
X179975051Y-99115796D01*
X180180053Y-99179510D01*
X180349733Y-99288988D01*
X180484656Y-99444780D01*
X180585388Y-99647439D01*
X180652493Y-99897513D01*
X180666567Y-99997818D01*
X180666619Y-100112156D01*
X180666672Y-100229148D01*
X180624340Y-100450171D01*
G37*
G36*
X174808617Y-100799824D02*
G01*
X174701165Y-100941567D01*
X174545069Y-101056060D01*
X174536471Y-101060529D01*
X174420391Y-101093314D01*
X174274991Y-101099247D01*
X174117552Y-101081371D01*
X173965354Y-101042729D01*
X173835677Y-100986363D01*
X173745803Y-100915317D01*
X173704447Y-100876707D01*
X173668098Y-100882397D01*
X173628228Y-100940999D01*
X173615515Y-100961090D01*
X173536468Y-101032183D01*
X173427257Y-101083068D01*
X173309990Y-101102523D01*
X173266612Y-101100368D01*
X173228497Y-101080749D01*
X173219724Y-101028523D01*
X173220029Y-101020975D01*
X173241130Y-100944990D01*
X173285263Y-100865900D01*
X173293119Y-100855021D01*
X173313480Y-100821399D01*
X173328913Y-100780879D01*
X173340446Y-100724901D01*
X173349106Y-100644910D01*
X173355918Y-100532348D01*
X173361909Y-100378656D01*
X173362473Y-100360128D01*
X173714908Y-100360128D01*
X173715665Y-100471909D01*
X173721229Y-100551324D01*
X173736531Y-100603444D01*
X173766498Y-100644349D01*
X173816061Y-100690119D01*
X173838306Y-100708337D01*
X173933995Y-100769632D01*
X174027242Y-100809487D01*
X174109720Y-100827534D01*
X174261560Y-100831187D01*
X174384402Y-100793083D01*
X174472419Y-100717249D01*
X174519783Y-100607712D01*
X174520668Y-100468498D01*
X174519735Y-100462984D01*
X174470518Y-100342268D01*
X174376153Y-100238021D01*
X174248302Y-100156026D01*
X174098626Y-100102066D01*
X173938787Y-100081925D01*
X173780447Y-100101387D01*
X173758307Y-100108708D01*
X173734556Y-100128080D01*
X173721523Y-100168082D01*
X173716032Y-100241252D01*
X173714908Y-100360128D01*
X173362473Y-100360128D01*
X173368105Y-100175279D01*
X173372899Y-100022492D01*
X173381441Y-99827487D01*
X173392925Y-99676674D01*
X173409186Y-99561497D01*
X173432058Y-99473396D01*
X173463373Y-99403813D01*
X173504967Y-99344189D01*
X173558674Y-99285968D01*
X173609618Y-99239221D01*
X173703018Y-99177408D01*
X173813026Y-99137938D01*
X173953243Y-99116662D01*
X174137270Y-99109430D01*
X174229334Y-99109327D01*
X174345083Y-99113404D01*
X174432435Y-99125441D01*
X174509913Y-99148519D01*
X174596043Y-99185717D01*
X174676112Y-99225125D01*
X174739314Y-99260305D01*
X174763532Y-99279605D01*
X174761993Y-99288903D01*
X174742814Y-99338552D01*
X174709292Y-99407620D01*
X174671077Y-99478010D01*
X174637817Y-99531626D01*
X174619161Y-99550371D01*
X174555967Y-99516137D01*
X174374702Y-99444049D01*
X174202177Y-99411226D01*
X174045370Y-99415930D01*
X173911261Y-99456425D01*
X173806829Y-99530977D01*
X173739051Y-99637848D01*
X173714908Y-99775302D01*
X173716535Y-99813188D01*
X173731197Y-99837962D01*
X173773773Y-99842545D01*
X173859136Y-99832874D01*
X173972325Y-99825799D01*
X174169185Y-99845880D01*
X174362275Y-99901299D01*
X174538341Y-99986471D01*
X174684127Y-100095807D01*
X174786378Y-100223720D01*
X174817516Y-100285572D01*
X174868952Y-100464379D01*
X174868865Y-100468498D01*
X174865266Y-100638279D01*
X174808617Y-100799824D01*
G37*
G36*
X169625030Y-100317729D02*
G01*
X169597633Y-100464987D01*
X169597072Y-100466907D01*
X169509552Y-100681622D01*
X169386477Y-100856621D01*
X169232004Y-100987311D01*
X169050295Y-101069101D01*
X168994517Y-101080823D01*
X168887035Y-101093793D01*
X168771448Y-101099896D01*
X168599298Y-101087276D01*
X168396367Y-101026526D01*
X168222716Y-100919198D01*
X168081777Y-100769176D01*
X167976984Y-100580347D01*
X167911769Y-100356595D01*
X167889566Y-100101806D01*
X167893854Y-100023155D01*
X168253969Y-100023155D01*
X168260203Y-100249334D01*
X168306173Y-100450993D01*
X168389731Y-100620372D01*
X168508732Y-100749708D01*
X168533403Y-100765875D01*
X168637036Y-100802241D01*
X168764916Y-100816304D01*
X168893526Y-100804702D01*
X169022702Y-100755785D01*
X169132983Y-100658486D01*
X169211036Y-100514568D01*
X169257363Y-100323068D01*
X169272471Y-100083028D01*
X169271714Y-99989151D01*
X169266479Y-99881655D01*
X169253096Y-99801997D01*
X169227929Y-99731792D01*
X169187340Y-99652652D01*
X169130374Y-99561819D01*
X169030065Y-99458243D01*
X168909307Y-99401330D01*
X168756660Y-99383945D01*
X168636555Y-99394700D01*
X168498792Y-99446704D01*
X168393240Y-99544003D01*
X168317544Y-99689016D01*
X168269347Y-99884163D01*
X168253969Y-100023155D01*
X167893854Y-100023155D01*
X167899434Y-99920804D01*
X167949037Y-99679602D01*
X168038568Y-99476552D01*
X168165963Y-99314056D01*
X168329159Y-99194520D01*
X168526092Y-99120346D01*
X168754698Y-99093939D01*
X168886991Y-99101925D01*
X169099610Y-99157302D01*
X169285168Y-99262648D01*
X169438754Y-99414795D01*
X169555456Y-99610573D01*
X169566276Y-99637131D01*
X169604205Y-99780295D01*
X169627311Y-99955023D01*
X169632320Y-100083028D01*
X169634587Y-100140954D01*
X169625030Y-100317729D01*
G37*
G36*
X162618258Y-100382060D02*
G01*
X162614329Y-100402022D01*
X162543731Y-100627435D01*
X162433534Y-100814222D01*
X162286298Y-100959015D01*
X162104582Y-101058445D01*
X162000975Y-101084475D01*
X161851959Y-101096163D01*
X161694265Y-101088513D01*
X161549495Y-101062766D01*
X161439251Y-101020166D01*
X161365997Y-100978076D01*
X161324437Y-100961575D01*
X161308670Y-100974087D01*
X161306192Y-101015138D01*
X161302979Y-101040941D01*
X161281780Y-101061931D01*
X161229035Y-101071269D01*
X161131422Y-101073395D01*
X160956651Y-101073395D01*
X160956651Y-100693541D01*
X161306192Y-100693541D01*
X161421546Y-100752390D01*
X161469860Y-100773689D01*
X161627571Y-100808388D01*
X161793034Y-100802369D01*
X161947983Y-100757753D01*
X162074151Y-100676658D01*
X162127035Y-100620795D01*
X162206687Y-100490499D01*
X162251979Y-100329235D01*
X162266507Y-100126720D01*
X162264719Y-100053467D01*
X162231566Y-99836601D01*
X162156662Y-99660112D01*
X162040110Y-99524191D01*
X161882017Y-99429028D01*
X161786625Y-99398363D01*
X161628828Y-99385766D01*
X161484191Y-99419996D01*
X161365612Y-99499296D01*
X161362635Y-99502310D01*
X161342853Y-99526534D01*
X161328313Y-99558303D01*
X161318213Y-99606068D01*
X161311752Y-99678281D01*
X161308129Y-99783395D01*
X161306543Y-99929860D01*
X161306192Y-100126128D01*
X161306192Y-100693541D01*
X160956651Y-100693541D01*
X160956651Y-98335321D01*
X161306192Y-98335321D01*
X161306192Y-99210671D01*
X161400860Y-99159200D01*
X161404454Y-99157277D01*
X161483291Y-99128308D01*
X161591472Y-99112420D01*
X161743119Y-99107477D01*
X161773987Y-99107521D01*
X161893935Y-99110910D01*
X161979534Y-99122575D01*
X162050521Y-99146614D01*
X162126633Y-99187127D01*
X162265049Y-99286531D01*
X162420844Y-99456464D01*
X162537588Y-99659553D01*
X162611755Y-99887227D01*
X162639336Y-100126720D01*
X162639820Y-100130919D01*
X162618258Y-100382060D01*
G37*
G36*
X172107603Y-99102449D02*
G01*
X172317710Y-99153878D01*
X172508165Y-99247586D01*
X172671613Y-99380855D01*
X172800703Y-99550967D01*
X172888081Y-99755206D01*
X172894391Y-99778668D01*
X172919895Y-99927065D01*
X172932153Y-100099438D01*
X172930155Y-100269148D01*
X172912891Y-100409558D01*
X172895311Y-100476871D01*
X172806155Y-100673090D01*
X172670354Y-100843665D01*
X172495107Y-100980909D01*
X172287614Y-101077134D01*
X172215046Y-101091003D01*
X172088548Y-101096425D01*
X171938104Y-101090258D01*
X171781705Y-101073929D01*
X171637338Y-101048864D01*
X171522993Y-101016491D01*
X171484205Y-101001314D01*
X171399652Y-100959345D01*
X171363478Y-100913792D01*
X171369718Y-100850581D01*
X171412404Y-100755642D01*
X171469304Y-100644109D01*
X171634972Y-100727674D01*
X171671666Y-100745159D01*
X171861089Y-100803909D01*
X172043818Y-100810504D01*
X172212364Y-100766663D01*
X172359237Y-100674103D01*
X172476949Y-100534541D01*
X172513451Y-100472514D01*
X172541100Y-100409918D01*
X172556402Y-100340884D01*
X172562950Y-100248147D01*
X172564335Y-100114440D01*
X172563996Y-100045161D01*
X172559813Y-99928106D01*
X172548386Y-99844183D01*
X172526644Y-99776200D01*
X172491513Y-99706962D01*
X172471272Y-99674265D01*
X172392292Y-99572539D01*
X172306757Y-99488499D01*
X172286028Y-99472089D01*
X172227091Y-99432104D01*
X172167965Y-99409976D01*
X172089308Y-99400510D01*
X171971780Y-99398509D01*
X171838536Y-99403205D01*
X171724652Y-99421852D01*
X171629674Y-99458053D01*
X171510610Y-99517596D01*
X171433057Y-99409706D01*
X171410358Y-99377404D01*
X171371055Y-99316854D01*
X171355504Y-99285372D01*
X171356117Y-99283142D01*
X171385658Y-99257543D01*
X171445874Y-99222195D01*
X171657843Y-99137295D01*
X171885196Y-99096015D01*
X172107603Y-99102449D01*
G37*
G36*
X186508199Y-99093167D02*
G01*
X186750174Y-99125747D01*
X186962818Y-99206241D01*
X187142461Y-99330578D01*
X187285433Y-99494690D01*
X187388063Y-99694506D01*
X187446681Y-99925959D01*
X187457618Y-100184977D01*
X187430798Y-100384357D01*
X187356593Y-100603534D01*
X187240337Y-100790515D01*
X187085782Y-100939549D01*
X186896681Y-101044882D01*
X186894781Y-101045636D01*
X186810168Y-101074219D01*
X186724265Y-101089882D01*
X186618215Y-101094659D01*
X186473165Y-101090586D01*
X186304175Y-101078627D01*
X186142179Y-101053526D01*
X186018480Y-101014490D01*
X185922530Y-100958997D01*
X185856933Y-100909517D01*
X185921478Y-100776664D01*
X185986023Y-100643810D01*
X186145166Y-100727524D01*
X186201556Y-100754173D01*
X186387346Y-100805214D01*
X186574960Y-100806114D01*
X186749885Y-100756185D01*
X186775413Y-100743802D01*
X186915777Y-100645218D01*
X187013386Y-100512551D01*
X187070248Y-100342090D01*
X187088367Y-100130125D01*
X187087115Y-100068893D01*
X187059490Y-99849973D01*
X186994790Y-99674137D01*
X186891810Y-99538941D01*
X186749345Y-99441941D01*
X186728935Y-99432289D01*
X186638948Y-99398881D01*
X186547934Y-99386682D01*
X186427946Y-99391290D01*
X186381647Y-99396145D01*
X186244494Y-99424223D01*
X186139638Y-99466615D01*
X186037267Y-99527015D01*
X185951761Y-99402736D01*
X185905389Y-99333621D01*
X185884938Y-99290564D01*
X185892899Y-99264859D01*
X185926832Y-99240624D01*
X186019797Y-99193893D01*
X186168987Y-99142464D01*
X186328737Y-99106314D01*
X186472438Y-99092661D01*
X186508199Y-99093167D01*
G37*
G36*
X164526278Y-100799824D02*
G01*
X164418826Y-100941567D01*
X164262729Y-101056060D01*
X164254132Y-101060529D01*
X164138052Y-101093314D01*
X163992652Y-101099247D01*
X163835212Y-101081371D01*
X163683014Y-101042729D01*
X163553338Y-100986363D01*
X163463464Y-100915317D01*
X163422108Y-100876707D01*
X163385759Y-100882397D01*
X163345889Y-100940999D01*
X163333175Y-100961090D01*
X163254129Y-101032183D01*
X163144917Y-101083068D01*
X163027650Y-101102523D01*
X162984273Y-101100368D01*
X162946158Y-101080749D01*
X162937385Y-101028523D01*
X162937690Y-101020975D01*
X162958791Y-100944990D01*
X163002924Y-100865900D01*
X163010780Y-100855021D01*
X163031140Y-100821399D01*
X163046574Y-100780879D01*
X163058107Y-100724901D01*
X163066766Y-100644910D01*
X163073578Y-100532348D01*
X163079569Y-100378656D01*
X163080134Y-100360128D01*
X163432569Y-100360128D01*
X163433325Y-100471909D01*
X163438890Y-100551324D01*
X163454191Y-100603444D01*
X163484159Y-100644349D01*
X163533722Y-100690119D01*
X163555966Y-100708337D01*
X163651655Y-100769632D01*
X163744903Y-100809487D01*
X163827380Y-100827534D01*
X163979221Y-100831187D01*
X164102063Y-100793083D01*
X164190079Y-100717249D01*
X164237443Y-100607712D01*
X164238328Y-100468498D01*
X164237395Y-100462984D01*
X164188178Y-100342268D01*
X164093813Y-100238021D01*
X163965962Y-100156026D01*
X163816286Y-100102066D01*
X163656448Y-100081925D01*
X163498108Y-100101387D01*
X163475967Y-100108708D01*
X163452216Y-100128080D01*
X163439184Y-100168082D01*
X163433693Y-100241252D01*
X163432569Y-100360128D01*
X163080134Y-100360128D01*
X163085766Y-100175279D01*
X163090560Y-100022492D01*
X163099102Y-99827487D01*
X163110586Y-99676674D01*
X163126847Y-99561497D01*
X163149718Y-99473396D01*
X163181034Y-99403813D01*
X163222628Y-99344189D01*
X163276334Y-99285968D01*
X163327279Y-99239221D01*
X163420678Y-99177408D01*
X163530686Y-99137938D01*
X163670904Y-99116662D01*
X163854931Y-99109430D01*
X163946994Y-99109327D01*
X164062744Y-99113404D01*
X164150095Y-99125441D01*
X164227574Y-99148519D01*
X164313704Y-99185717D01*
X164393772Y-99225125D01*
X164456975Y-99260305D01*
X164481192Y-99279605D01*
X164479653Y-99288903D01*
X164460474Y-99338552D01*
X164426952Y-99407620D01*
X164388737Y-99478010D01*
X164355477Y-99531626D01*
X164336822Y-99550371D01*
X164273628Y-99516137D01*
X164092363Y-99444049D01*
X163919838Y-99411226D01*
X163763031Y-99415930D01*
X163628922Y-99456425D01*
X163524489Y-99530977D01*
X163456712Y-99637848D01*
X163432569Y-99775302D01*
X163434196Y-99813188D01*
X163448858Y-99837962D01*
X163491434Y-99842545D01*
X163576797Y-99832874D01*
X163689985Y-99825799D01*
X163886845Y-99845880D01*
X164079936Y-99901299D01*
X164256002Y-99986471D01*
X164401788Y-100095807D01*
X164504039Y-100223720D01*
X164535176Y-100285572D01*
X164586612Y-100464379D01*
X164586525Y-100468498D01*
X164582926Y-100638279D01*
X164526278Y-100799824D01*
G37*
G36*
X189910321Y-101073395D02*
G01*
X189910321Y-100061230D01*
X189578447Y-100048527D01*
X189563480Y-100047947D01*
X189416760Y-100040635D01*
X189309858Y-100029936D01*
X189225791Y-100012409D01*
X189147576Y-99984611D01*
X189058228Y-99943102D01*
X188966313Y-99891711D01*
X188816732Y-99767369D01*
X188712400Y-99611553D01*
X188650934Y-99420063D01*
X188635023Y-99244654D01*
X189013970Y-99244654D01*
X189026808Y-99366895D01*
X189066095Y-99489219D01*
X189138180Y-99580699D01*
X189251035Y-99655140D01*
X189304238Y-99675153D01*
X189402766Y-99698033D01*
X189521404Y-99716576D01*
X189644724Y-99729278D01*
X189757295Y-99734634D01*
X189843689Y-99731141D01*
X189888474Y-99717292D01*
X189893478Y-99699450D01*
X189900170Y-99630834D01*
X189905509Y-99521109D01*
X189909043Y-99380552D01*
X189910321Y-99219439D01*
X189910321Y-98744229D01*
X189834438Y-98725184D01*
X189773052Y-98716562D01*
X189648456Y-98717733D01*
X189505761Y-98733628D01*
X189367184Y-98761442D01*
X189254942Y-98798370D01*
X189141621Y-98864061D01*
X189061028Y-98956598D01*
X189020200Y-99080273D01*
X189013970Y-99244654D01*
X188635023Y-99244654D01*
X188629948Y-99188699D01*
X188643205Y-99001930D01*
X188694510Y-98830510D01*
X188787683Y-98691907D01*
X188926196Y-98578973D01*
X188942234Y-98568984D01*
X189039558Y-98515491D01*
X189140705Y-98475188D01*
X189256553Y-98445872D01*
X189397980Y-98425339D01*
X189575866Y-98411388D01*
X189801089Y-98401814D01*
X190288991Y-98386127D01*
X190288991Y-101073395D01*
X189910321Y-101073395D01*
G37*
G36*
X175684533Y-98394764D02*
G01*
X175703697Y-98401995D01*
X175722654Y-98420793D01*
X175743540Y-98456683D01*
X175768494Y-98515188D01*
X175799651Y-98601831D01*
X175839148Y-98722135D01*
X175889124Y-98881625D01*
X175951714Y-99085823D01*
X176029055Y-99340253D01*
X176081910Y-99513373D01*
X176146751Y-99722971D01*
X176205196Y-99908802D01*
X176255183Y-100064458D01*
X176294646Y-100183530D01*
X176321523Y-100259611D01*
X176333750Y-100286291D01*
X176341991Y-100270575D01*
X176366959Y-100205839D01*
X176405957Y-100096909D01*
X176456783Y-99950168D01*
X176517231Y-99771998D01*
X176585098Y-99568781D01*
X176658179Y-99346899D01*
X176965327Y-98408142D01*
X177132577Y-98408142D01*
X177374518Y-99689794D01*
X177412027Y-99889055D01*
X177459739Y-100144241D01*
X177503154Y-100378387D01*
X177541170Y-100585463D01*
X177572691Y-100759435D01*
X177596617Y-100894274D01*
X177611849Y-100983946D01*
X177617289Y-101022420D01*
X177616116Y-101036747D01*
X177597655Y-101059720D01*
X177546774Y-101070613D01*
X177450630Y-101073349D01*
X177283142Y-101073304D01*
X177140466Y-100279599D01*
X177137278Y-100261883D01*
X177099492Y-100054248D01*
X177064360Y-99865349D01*
X177033375Y-99702915D01*
X177008033Y-99574670D01*
X176989830Y-99488343D01*
X176980259Y-99451658D01*
X176976402Y-99453193D01*
X176955411Y-99493698D01*
X176919275Y-99580224D01*
X176870411Y-99706444D01*
X176811236Y-99866027D01*
X176744166Y-100052646D01*
X176671617Y-100259972D01*
X176587712Y-100500871D01*
X176515476Y-100703257D01*
X176457513Y-100858863D01*
X176412031Y-100972141D01*
X176377238Y-101047543D01*
X176351343Y-101089520D01*
X176332555Y-101102523D01*
X176332237Y-101102518D01*
X176313626Y-101089325D01*
X176288330Y-101047686D01*
X176254572Y-100973074D01*
X176210571Y-100860960D01*
X176154549Y-100706817D01*
X176084728Y-100506119D01*
X175999328Y-100254337D01*
X175933868Y-100061377D01*
X175853306Y-99830112D01*
X175789069Y-99654294D01*
X175741198Y-99534029D01*
X175709735Y-99469424D01*
X175694720Y-99460587D01*
X175694669Y-99460731D01*
X175684410Y-99503515D01*
X175665479Y-99595505D01*
X175639431Y-99728636D01*
X175607818Y-99894841D01*
X175572196Y-100086054D01*
X175534118Y-100294209D01*
X175392849Y-101073395D01*
X175210182Y-101073395D01*
X175207228Y-101073393D01*
X175103520Y-101069767D01*
X175050358Y-101058145D01*
X175040545Y-101036984D01*
X175042528Y-101029580D01*
X175055074Y-100973434D01*
X175077308Y-100868843D01*
X175107938Y-100722051D01*
X175145673Y-100539302D01*
X175189222Y-100326841D01*
X175237293Y-100090911D01*
X175288594Y-99837757D01*
X175305200Y-99755617D01*
X175356778Y-99500756D01*
X175405373Y-99261030D01*
X175449562Y-99043434D01*
X175487920Y-98854964D01*
X175519026Y-98702615D01*
X175541455Y-98593382D01*
X175553785Y-98534260D01*
X175562892Y-98493838D01*
X175584499Y-98428324D01*
X175613999Y-98399811D01*
X175662799Y-98393578D01*
X175663026Y-98393578D01*
X175684533Y-98394764D01*
G37*
G36*
X184774240Y-99102695D02*
G01*
X184986751Y-99150735D01*
X185177353Y-99240604D01*
X185334418Y-99369785D01*
X185342568Y-99378695D01*
X185469361Y-99545095D01*
X185551366Y-99722252D01*
X185598416Y-99931067D01*
X185602310Y-99960574D01*
X185609926Y-100219912D01*
X185568449Y-100455549D01*
X185480223Y-100663286D01*
X185347591Y-100838928D01*
X185172898Y-100978277D01*
X184958486Y-101077134D01*
X184885918Y-101091003D01*
X184759419Y-101096425D01*
X184608976Y-101090258D01*
X184452576Y-101073929D01*
X184308209Y-101048864D01*
X184193864Y-101016491D01*
X184116509Y-100984225D01*
X184051397Y-100950510D01*
X184026376Y-100928075D01*
X184029383Y-100913103D01*
X184049468Y-100854289D01*
X184082194Y-100773236D01*
X184138012Y-100643018D01*
X184304762Y-100727128D01*
X184367604Y-100755835D01*
X184561650Y-100807783D01*
X184751342Y-100804468D01*
X184930232Y-100745700D01*
X184968187Y-100724755D01*
X185100290Y-100612528D01*
X185190207Y-100460271D01*
X185237843Y-100268205D01*
X185243097Y-100036550D01*
X185238901Y-99986700D01*
X185195765Y-99788737D01*
X185109943Y-99625289D01*
X184977629Y-99488499D01*
X184956046Y-99471422D01*
X184897425Y-99431768D01*
X184838526Y-99409935D01*
X184760038Y-99400772D01*
X184642651Y-99399127D01*
X184633714Y-99399166D01*
X184494691Y-99405438D01*
X184391754Y-99424809D01*
X184304558Y-99461002D01*
X184189507Y-99522260D01*
X184104188Y-99404481D01*
X184069512Y-99355555D01*
X184041029Y-99305220D01*
X184042533Y-99274995D01*
X184070572Y-99248897D01*
X184119139Y-99222790D01*
X184206591Y-99185983D01*
X184311020Y-99148281D01*
X184330005Y-99142171D01*
X184551449Y-99099002D01*
X184774240Y-99102695D01*
G37*
G36*
X188512156Y-99413074D02*
G01*
X188250000Y-99413074D01*
X188250000Y-101073395D01*
X187900458Y-101073395D01*
X187900458Y-99121789D01*
X188512156Y-99121789D01*
X188512156Y-99413074D01*
G37*
G36*
X165995871Y-101073395D02*
G01*
X165995871Y-100061230D01*
X165668176Y-100047888D01*
X165497380Y-100036354D01*
X165310552Y-100006438D01*
X165159986Y-99956018D01*
X165033956Y-99880839D01*
X164920737Y-99776646D01*
X164907923Y-99762337D01*
X164805201Y-99607282D01*
X164740715Y-99430195D01*
X164713943Y-99242496D01*
X164715178Y-99220363D01*
X165087865Y-99220363D01*
X165115891Y-99372934D01*
X165189480Y-99509279D01*
X165303751Y-99618695D01*
X165453823Y-99690479D01*
X165536432Y-99709123D01*
X165667962Y-99726699D01*
X165797947Y-99733486D01*
X165997247Y-99733486D01*
X165989277Y-99231021D01*
X165981307Y-98728555D01*
X165843477Y-98719699D01*
X165694980Y-98719439D01*
X165506822Y-98747768D01*
X165344494Y-98805714D01*
X165217843Y-98889442D01*
X165136715Y-98995113D01*
X165110284Y-99062267D01*
X165087865Y-99220363D01*
X164715178Y-99220363D01*
X164724368Y-99055603D01*
X164771470Y-98880934D01*
X164854728Y-98729910D01*
X164973625Y-98613948D01*
X165001903Y-98594701D01*
X165108848Y-98530189D01*
X165216734Y-98482088D01*
X165337009Y-98447718D01*
X165481120Y-98424400D01*
X165660514Y-98409453D01*
X165886640Y-98400196D01*
X166374541Y-98386127D01*
X166374541Y-101073395D01*
X165995871Y-101073395D01*
G37*
G36*
X188139924Y-98416736D02*
G01*
X188209868Y-98478935D01*
X188246175Y-98564519D01*
X188242311Y-98657807D01*
X188191743Y-98743120D01*
X188138872Y-98779880D01*
X188046239Y-98802092D01*
X187955049Y-98787520D01*
X187887546Y-98736638D01*
X187854614Y-98670927D01*
X187845520Y-98570999D01*
X187878802Y-98481949D01*
X187947861Y-98418050D01*
X188046101Y-98393578D01*
X188139924Y-98416736D01*
G37*
G36*
X183754422Y-100242731D02*
G01*
X183743167Y-100369618D01*
X183724494Y-100466942D01*
X183693270Y-100556017D01*
X183644367Y-100658159D01*
X183631157Y-100682923D01*
X183506981Y-100855054D01*
X183350326Y-100987816D01*
X183171209Y-101072436D01*
X183157223Y-101076382D01*
X183038200Y-101093442D01*
X182891336Y-101095021D01*
X182737976Y-101082695D01*
X182599461Y-101058040D01*
X182497133Y-101022635D01*
X182492800Y-101020352D01*
X182338116Y-100910727D01*
X182200802Y-100761991D01*
X182098150Y-100592775D01*
X182070200Y-100525436D01*
X182050165Y-100454076D01*
X182038315Y-100368834D01*
X182032651Y-100254932D01*
X182031185Y-100098892D01*
X182381556Y-100098892D01*
X182381719Y-100127085D01*
X182385778Y-100256691D01*
X182398046Y-100352672D01*
X182422487Y-100435845D01*
X182463064Y-100527029D01*
X182474557Y-100549694D01*
X182554620Y-100672453D01*
X182640336Y-100751474D01*
X182641427Y-100752144D01*
X182741348Y-100789982D01*
X182870181Y-100809015D01*
X183001488Y-100807439D01*
X183108830Y-100783449D01*
X183197447Y-100728386D01*
X183287896Y-100619420D01*
X183352805Y-100476924D01*
X183392251Y-100311423D01*
X183406313Y-100133442D01*
X183395070Y-99953508D01*
X183358602Y-99782147D01*
X183296988Y-99629883D01*
X183210305Y-99507243D01*
X183098635Y-99424752D01*
X183080094Y-99416619D01*
X182948339Y-99385944D01*
X182805451Y-99388799D01*
X182672470Y-99422766D01*
X182570441Y-99485428D01*
X182497687Y-99571359D01*
X182430849Y-99708185D01*
X182393011Y-99881195D01*
X182381556Y-100098892D01*
X182031185Y-100098892D01*
X182031173Y-100097592D01*
X182031211Y-100056695D01*
X182033051Y-99913948D01*
X182039269Y-99810790D01*
X182052100Y-99732120D01*
X182073775Y-99662838D01*
X182106525Y-99587844D01*
X182161694Y-99482168D01*
X182282024Y-99318153D01*
X182426650Y-99203078D01*
X182603160Y-99131735D01*
X182819143Y-99098917D01*
X182991180Y-99098526D01*
X183175089Y-99133128D01*
X183336286Y-99211179D01*
X183488073Y-99337420D01*
X183517432Y-99368039D01*
X183637255Y-99530437D01*
X183715490Y-99715802D01*
X183754719Y-99932285D01*
X183756925Y-100133442D01*
X183757524Y-100188036D01*
X183754422Y-100242731D01*
G37*
G36*
X170187827Y-99113878D02*
G01*
X170359728Y-99185237D01*
X170503747Y-99307565D01*
X170598165Y-99415101D01*
X170598165Y-99121789D01*
X170947706Y-99121789D01*
X170947706Y-101073395D01*
X170598165Y-101073395D01*
X170598002Y-100468980D01*
X170597995Y-100457876D01*
X170596254Y-100260981D01*
X170591787Y-100081768D01*
X170585040Y-99930381D01*
X170576458Y-99816959D01*
X170566487Y-99751646D01*
X170550439Y-99708751D01*
X170496090Y-99612012D01*
X170426383Y-99522141D01*
X170412317Y-99507245D01*
X170339229Y-99441305D01*
X170267606Y-99407298D01*
X170170399Y-99391408D01*
X170133647Y-99388630D01*
X170045577Y-99391243D01*
X170003097Y-99409731D01*
X169991175Y-99425687D01*
X169947827Y-99439519D01*
X169897334Y-99395781D01*
X169839922Y-99294632D01*
X169808077Y-99219982D01*
X169795535Y-99153597D01*
X169821658Y-99115327D01*
X169892870Y-99097826D01*
X170015596Y-99093747D01*
X170187827Y-99113878D01*
G37*
%TD*%
M02*
