%TF.GenerationSoftware,KiCad,Pcbnew,(5.99.0-12610-g07e01e6297)*%
%TF.CreationDate,2021-11-07T21:16:04+00:00*%
%TF.ProjectId,piccolo-backplate,70696363-6f6c-46f2-9d62-61636b706c61,rev?*%
%TF.SameCoordinates,Original*%
%TF.FileFunction,Copper,L2,Bot*%
%TF.FilePolarity,Positive*%
%FSLAX46Y46*%
G04 Gerber Fmt 4.6, Leading zero omitted, Abs format (unit mm)*
G04 Created by KiCad (PCBNEW (5.99.0-12610-g07e01e6297)) date 2021-11-07 21:16:04*
%MOMM*%
%LPD*%
G01*
G04 APERTURE LIST*
%TA.AperFunction,ComponentPad*%
%ADD10C,2.800000*%
%TD*%
G04 APERTURE END LIST*
D10*
%TO.P,H3,*%
%TO.N,*%
X189961868Y-87227905D03*
%TD*%
%TO.P,H1,*%
%TO.N,*%
X113761868Y-87227905D03*
%TD*%
%TO.P,H2,*%
%TO.N,*%
X151861868Y-101515405D03*
%TD*%
%TA.AperFunction,NonConductor*%
G36*
X77624510Y-84580907D02*
G01*
X77671003Y-84634563D01*
X77681107Y-84704837D01*
X77651613Y-84769417D01*
X77589637Y-84808439D01*
X77428053Y-84852643D01*
X77428043Y-84852646D01*
X77425189Y-84853427D01*
X77422425Y-84854471D01*
X77422414Y-84854475D01*
X77052981Y-84994072D01*
X77050208Y-84995120D01*
X76690225Y-85171474D01*
X76348437Y-85380922D01*
X76346052Y-85382712D01*
X76346053Y-85382712D01*
X76191432Y-85498805D01*
X76027876Y-85621606D01*
X75731389Y-85891389D01*
X75461606Y-86187876D01*
X75459824Y-86190249D01*
X75459821Y-86190253D01*
X75268776Y-86444701D01*
X75220922Y-86508437D01*
X75011474Y-86850225D01*
X75010162Y-86852904D01*
X75010161Y-86852905D01*
X74836427Y-87207540D01*
X74835120Y-87210208D01*
X74834073Y-87212978D01*
X74834072Y-87212981D01*
X74694475Y-87582414D01*
X74694471Y-87582425D01*
X74693427Y-87585189D01*
X74692646Y-87588043D01*
X74692643Y-87588053D01*
X74588438Y-87968962D01*
X74587651Y-87971840D01*
X74518732Y-88366730D01*
X74518500Y-88369678D01*
X74503331Y-88562417D01*
X74487280Y-88766353D01*
X74493577Y-89167162D01*
X74537565Y-89565600D01*
X74618854Y-89958130D01*
X74736723Y-90341269D01*
X74890125Y-90711614D01*
X75077698Y-91065879D01*
X75297779Y-91400920D01*
X75548413Y-91713762D01*
X75550477Y-91715892D01*
X75550485Y-91715901D01*
X75793227Y-91966391D01*
X75827376Y-92001630D01*
X76132191Y-92261967D01*
X76134620Y-92263674D01*
X76134625Y-92263678D01*
X76457723Y-92490754D01*
X76457731Y-92490759D01*
X76460154Y-92492462D01*
X76462728Y-92493930D01*
X76805777Y-92689602D01*
X76805782Y-92689605D01*
X76808353Y-92691071D01*
X77173697Y-92856031D01*
X77552943Y-92985876D01*
X77555817Y-92986566D01*
X77555824Y-92986568D01*
X77828841Y-93052113D01*
X77942726Y-93079454D01*
X77945658Y-93079871D01*
X77945667Y-93079873D01*
X78336648Y-93135518D01*
X78336651Y-93135518D01*
X78339586Y-93135936D01*
X78342551Y-93136076D01*
X78342553Y-93136076D01*
X78737031Y-93154679D01*
X78740000Y-93154819D01*
X78742969Y-93154679D01*
X79137447Y-93136076D01*
X79137449Y-93136076D01*
X79140414Y-93135936D01*
X79143349Y-93135518D01*
X79143352Y-93135518D01*
X79534333Y-93079873D01*
X79534342Y-93079871D01*
X79537274Y-93079454D01*
X79651159Y-93052113D01*
X79924176Y-92986568D01*
X79924183Y-92986566D01*
X79927057Y-92985876D01*
X80306303Y-92856031D01*
X80671647Y-92691071D01*
X80674218Y-92689605D01*
X80674223Y-92689602D01*
X81017272Y-92493930D01*
X81019846Y-92492462D01*
X81022269Y-92490759D01*
X81022277Y-92490754D01*
X81345375Y-92263678D01*
X81345380Y-92263674D01*
X81347809Y-92261967D01*
X81652624Y-92001630D01*
X81686773Y-91966391D01*
X81929515Y-91715901D01*
X81929523Y-91715892D01*
X81931587Y-91713762D01*
X82182221Y-91400920D01*
X82402302Y-91065879D01*
X82589875Y-90711614D01*
X82743277Y-90341269D01*
X82861146Y-89958130D01*
X82942435Y-89565600D01*
X82986423Y-89167162D01*
X82986500Y-89164709D01*
X82986501Y-89164696D01*
X82991520Y-89004988D01*
X82994819Y-88900000D01*
X82975936Y-88499586D01*
X82956613Y-88363815D01*
X82919873Y-88105667D01*
X82919871Y-88105658D01*
X82919454Y-88102726D01*
X82884203Y-87955893D01*
X82826568Y-87715824D01*
X82826566Y-87715817D01*
X82825876Y-87712943D01*
X82696031Y-87333697D01*
X82621127Y-87167804D01*
X111849437Y-87167804D01*
X111860048Y-87437868D01*
X111908605Y-87703742D01*
X111994140Y-87960122D01*
X112114946Y-88201892D01*
X112117475Y-88205551D01*
X112230910Y-88369678D01*
X112268612Y-88424229D01*
X112452073Y-88622695D01*
X112661667Y-88793332D01*
X112893214Y-88932735D01*
X112897309Y-88934469D01*
X112897311Y-88934470D01*
X113137992Y-89036385D01*
X113137999Y-89036387D01*
X113142093Y-89038121D01*
X113238226Y-89063610D01*
X113399040Y-89106250D01*
X113399045Y-89106251D01*
X113403337Y-89107389D01*
X113407746Y-89107911D01*
X113407752Y-89107912D01*
X113557078Y-89125585D01*
X113671736Y-89139156D01*
X113941932Y-89132788D01*
X113946327Y-89132056D01*
X113946332Y-89132056D01*
X114204135Y-89089146D01*
X114204139Y-89089145D01*
X114208537Y-89088413D01*
X114376827Y-89035190D01*
X114461982Y-89008259D01*
X114461984Y-89008258D01*
X114466228Y-89006916D01*
X114470239Y-89004990D01*
X114470244Y-89004988D01*
X114705847Y-88891853D01*
X114705848Y-88891852D01*
X114709866Y-88889923D01*
X114899223Y-88763399D01*
X114930881Y-88742246D01*
X114930885Y-88742243D01*
X114934589Y-88739768D01*
X114937906Y-88736797D01*
X114937910Y-88736794D01*
X115132597Y-88562417D01*
X115135913Y-88559447D01*
X115309821Y-88352559D01*
X115452843Y-88123230D01*
X115562126Y-87876038D01*
X115635488Y-87615913D01*
X115639615Y-87585189D01*
X115671040Y-87351229D01*
X115671041Y-87351221D01*
X115671467Y-87348047D01*
X115675243Y-87227905D01*
X115670988Y-87167804D01*
X188049437Y-87167804D01*
X188060048Y-87437868D01*
X188108605Y-87703742D01*
X188194140Y-87960122D01*
X188314946Y-88201892D01*
X188317475Y-88205551D01*
X188430910Y-88369678D01*
X188468612Y-88424229D01*
X188652073Y-88622695D01*
X188861667Y-88793332D01*
X189093214Y-88932735D01*
X189097309Y-88934469D01*
X189097311Y-88934470D01*
X189337992Y-89036385D01*
X189337999Y-89036387D01*
X189342093Y-89038121D01*
X189438226Y-89063610D01*
X189599040Y-89106250D01*
X189599045Y-89106251D01*
X189603337Y-89107389D01*
X189607746Y-89107911D01*
X189607752Y-89107912D01*
X189757078Y-89125585D01*
X189871736Y-89139156D01*
X190141932Y-89132788D01*
X190146327Y-89132056D01*
X190146332Y-89132056D01*
X190404135Y-89089146D01*
X190404139Y-89089145D01*
X190408537Y-89088413D01*
X190576827Y-89035190D01*
X190661982Y-89008259D01*
X190661984Y-89008258D01*
X190666228Y-89006916D01*
X190670239Y-89004990D01*
X190670244Y-89004988D01*
X190905847Y-88891853D01*
X190905848Y-88891852D01*
X190909866Y-88889923D01*
X191099223Y-88763399D01*
X191130881Y-88742246D01*
X191130885Y-88742243D01*
X191134589Y-88739768D01*
X191137906Y-88736797D01*
X191137910Y-88736794D01*
X191332597Y-88562417D01*
X191335913Y-88559447D01*
X191509821Y-88352559D01*
X191652843Y-88123230D01*
X191762126Y-87876038D01*
X191835488Y-87615913D01*
X191839615Y-87585189D01*
X191871040Y-87351229D01*
X191871041Y-87351221D01*
X191871467Y-87348047D01*
X191875243Y-87227905D01*
X191856155Y-86958308D01*
X191799270Y-86694090D01*
X191779669Y-86640958D01*
X191707265Y-86444701D01*
X191705724Y-86440524D01*
X191676378Y-86386136D01*
X191579497Y-86206583D01*
X191579497Y-86206582D01*
X191577384Y-86202667D01*
X191416810Y-85985267D01*
X191227206Y-85792661D01*
X191114375Y-85706551D01*
X191015896Y-85631394D01*
X191015892Y-85631392D01*
X191012355Y-85628692D01*
X190776543Y-85496632D01*
X190524477Y-85399115D01*
X190520152Y-85398112D01*
X190520147Y-85398111D01*
X190414616Y-85373651D01*
X190261186Y-85338087D01*
X189991922Y-85314766D01*
X189987487Y-85315010D01*
X189987483Y-85315010D01*
X189726502Y-85329373D01*
X189726495Y-85329374D01*
X189722059Y-85329618D01*
X189590490Y-85355788D01*
X189461352Y-85381475D01*
X189461347Y-85381476D01*
X189456980Y-85382345D01*
X189452777Y-85383821D01*
X189206183Y-85470418D01*
X189206180Y-85470419D01*
X189201975Y-85471896D01*
X189198022Y-85473949D01*
X189198016Y-85473952D01*
X189154356Y-85496632D01*
X188962132Y-85596485D01*
X188958517Y-85599068D01*
X188958511Y-85599072D01*
X188745858Y-85751036D01*
X188745854Y-85751039D01*
X188742237Y-85753624D01*
X188739017Y-85756696D01*
X188595530Y-85893576D01*
X188546676Y-85940180D01*
X188379353Y-86152429D01*
X188377121Y-86156271D01*
X188377118Y-86156276D01*
X188245842Y-86382282D01*
X188245839Y-86382289D01*
X188243604Y-86386136D01*
X188142140Y-86636640D01*
X188141069Y-86640953D01*
X188141067Y-86640958D01*
X188127869Y-86694090D01*
X188076984Y-86898940D01*
X188076530Y-86903368D01*
X188076530Y-86903370D01*
X188070136Y-86965777D01*
X188049437Y-87167804D01*
X115670988Y-87167804D01*
X115656155Y-86958308D01*
X115599270Y-86694090D01*
X115579669Y-86640958D01*
X115507265Y-86444701D01*
X115505724Y-86440524D01*
X115476378Y-86386136D01*
X115379497Y-86206583D01*
X115379497Y-86206582D01*
X115377384Y-86202667D01*
X115216810Y-85985267D01*
X115027206Y-85792661D01*
X114914375Y-85706551D01*
X114815896Y-85631394D01*
X114815892Y-85631392D01*
X114812355Y-85628692D01*
X114576543Y-85496632D01*
X114324477Y-85399115D01*
X114320152Y-85398112D01*
X114320147Y-85398111D01*
X114214616Y-85373651D01*
X114061186Y-85338087D01*
X113791922Y-85314766D01*
X113787487Y-85315010D01*
X113787483Y-85315010D01*
X113526502Y-85329373D01*
X113526495Y-85329374D01*
X113522059Y-85329618D01*
X113390490Y-85355788D01*
X113261352Y-85381475D01*
X113261347Y-85381476D01*
X113256980Y-85382345D01*
X113252777Y-85383821D01*
X113006183Y-85470418D01*
X113006180Y-85470419D01*
X113001975Y-85471896D01*
X112998022Y-85473949D01*
X112998016Y-85473952D01*
X112954356Y-85496632D01*
X112762132Y-85596485D01*
X112758517Y-85599068D01*
X112758511Y-85599072D01*
X112545858Y-85751036D01*
X112545854Y-85751039D01*
X112542237Y-85753624D01*
X112539017Y-85756696D01*
X112395530Y-85893576D01*
X112346676Y-85940180D01*
X112179353Y-86152429D01*
X112177121Y-86156271D01*
X112177118Y-86156276D01*
X112045842Y-86382282D01*
X112045839Y-86382289D01*
X112043604Y-86386136D01*
X111942140Y-86636640D01*
X111941069Y-86640953D01*
X111941067Y-86640958D01*
X111927869Y-86694090D01*
X111876984Y-86898940D01*
X111876530Y-86903368D01*
X111876530Y-86903370D01*
X111870136Y-86965777D01*
X111849437Y-87167804D01*
X82621127Y-87167804D01*
X82531071Y-86968353D01*
X82525342Y-86958308D01*
X82374634Y-86694090D01*
X82332462Y-86620154D01*
X82330759Y-86617731D01*
X82330754Y-86617723D01*
X82103678Y-86294625D01*
X82103674Y-86294620D01*
X82101967Y-86292191D01*
X81841630Y-85987376D01*
X81742579Y-85891389D01*
X81555901Y-85710485D01*
X81555892Y-85710477D01*
X81553762Y-85708413D01*
X81240920Y-85457779D01*
X81126083Y-85382345D01*
X80908355Y-85239324D01*
X80908348Y-85239320D01*
X80905879Y-85237698D01*
X80903268Y-85236316D01*
X80903262Y-85236312D01*
X80554237Y-85051514D01*
X80551614Y-85050125D01*
X80181269Y-84896723D01*
X80178446Y-84895855D01*
X80178439Y-84895852D01*
X79890709Y-84807335D01*
X79831481Y-84768187D01*
X79802820Y-84703232D01*
X79813827Y-84633094D01*
X79861005Y-84580040D01*
X79927758Y-84560905D01*
X203116389Y-84560905D01*
X203184510Y-84580907D01*
X203231003Y-84634563D01*
X203241107Y-84704837D01*
X203211613Y-84769417D01*
X203149637Y-84808439D01*
X202988053Y-84852643D01*
X202988043Y-84852646D01*
X202985189Y-84853427D01*
X202982425Y-84854471D01*
X202982414Y-84854475D01*
X202612981Y-84994072D01*
X202610208Y-84995120D01*
X202250225Y-85171474D01*
X201908437Y-85380922D01*
X201906052Y-85382712D01*
X201906053Y-85382712D01*
X201751432Y-85498805D01*
X201587876Y-85621606D01*
X201291389Y-85891389D01*
X201021606Y-86187876D01*
X201019824Y-86190249D01*
X201019821Y-86190253D01*
X200828776Y-86444701D01*
X200780922Y-86508437D01*
X200571474Y-86850225D01*
X200570162Y-86852904D01*
X200570161Y-86852905D01*
X200396427Y-87207540D01*
X200395120Y-87210208D01*
X200394073Y-87212978D01*
X200394072Y-87212981D01*
X200254475Y-87582414D01*
X200254471Y-87582425D01*
X200253427Y-87585189D01*
X200252646Y-87588043D01*
X200252643Y-87588053D01*
X200148438Y-87968962D01*
X200147651Y-87971840D01*
X200078732Y-88366730D01*
X200078500Y-88369678D01*
X200063331Y-88562417D01*
X200047280Y-88766353D01*
X200053577Y-89167162D01*
X200097565Y-89565600D01*
X200178854Y-89958130D01*
X200296723Y-90341269D01*
X200450125Y-90711614D01*
X200637698Y-91065879D01*
X200857779Y-91400920D01*
X201108413Y-91713762D01*
X201110477Y-91715892D01*
X201110485Y-91715901D01*
X201353227Y-91966391D01*
X201387376Y-92001630D01*
X201692191Y-92261967D01*
X201694620Y-92263674D01*
X201694625Y-92263678D01*
X202017723Y-92490754D01*
X202017731Y-92490759D01*
X202020154Y-92492462D01*
X202022728Y-92493930D01*
X202365777Y-92689602D01*
X202365782Y-92689605D01*
X202368353Y-92691071D01*
X202733697Y-92856031D01*
X203112943Y-92985876D01*
X203115817Y-92986566D01*
X203115824Y-92986568D01*
X203388841Y-93052113D01*
X203502726Y-93079454D01*
X203505658Y-93079871D01*
X203505667Y-93079873D01*
X203896648Y-93135518D01*
X203896651Y-93135518D01*
X203899586Y-93135936D01*
X203902551Y-93136076D01*
X203902553Y-93136076D01*
X204297031Y-93154679D01*
X204300000Y-93154819D01*
X204302969Y-93154679D01*
X204697447Y-93136076D01*
X204697449Y-93136076D01*
X204700414Y-93135936D01*
X204703349Y-93135518D01*
X204703352Y-93135518D01*
X205094333Y-93079873D01*
X205094342Y-93079871D01*
X205097274Y-93079454D01*
X205211159Y-93052113D01*
X205484176Y-92986568D01*
X205484183Y-92986566D01*
X205487057Y-92985876D01*
X205866303Y-92856031D01*
X206231647Y-92691071D01*
X206234218Y-92689605D01*
X206234223Y-92689602D01*
X206577272Y-92493930D01*
X206579846Y-92492462D01*
X206582269Y-92490759D01*
X206582277Y-92490754D01*
X206905375Y-92263678D01*
X206905380Y-92263674D01*
X206907809Y-92261967D01*
X207212624Y-92001630D01*
X207246773Y-91966391D01*
X207489515Y-91715901D01*
X207489523Y-91715892D01*
X207491587Y-91713762D01*
X207742221Y-91400920D01*
X207962302Y-91065879D01*
X208149875Y-90711614D01*
X208303277Y-90341269D01*
X208421146Y-89958130D01*
X208502435Y-89565600D01*
X208546423Y-89167162D01*
X208546500Y-89164709D01*
X208546501Y-89164696D01*
X208551520Y-89004988D01*
X208554819Y-88900000D01*
X208535936Y-88499586D01*
X208516613Y-88363815D01*
X208479873Y-88105667D01*
X208479871Y-88105658D01*
X208479454Y-88102726D01*
X208444203Y-87955893D01*
X208386568Y-87715824D01*
X208386566Y-87715817D01*
X208385876Y-87712943D01*
X208256031Y-87333697D01*
X208091071Y-86968353D01*
X208085342Y-86958308D01*
X207934634Y-86694090D01*
X207892462Y-86620154D01*
X207890759Y-86617731D01*
X207890754Y-86617723D01*
X207663678Y-86294625D01*
X207663674Y-86294620D01*
X207661967Y-86292191D01*
X207401630Y-85987376D01*
X207302579Y-85891389D01*
X207115901Y-85710485D01*
X207115892Y-85710477D01*
X207113762Y-85708413D01*
X206800920Y-85457779D01*
X206686083Y-85382345D01*
X206468355Y-85239324D01*
X206468348Y-85239320D01*
X206465879Y-85237698D01*
X206463268Y-85236316D01*
X206463262Y-85236312D01*
X206114237Y-85051514D01*
X206111614Y-85050125D01*
X205741269Y-84896723D01*
X205738446Y-84895855D01*
X205738439Y-84895852D01*
X205450709Y-84807335D01*
X205391481Y-84768187D01*
X205362820Y-84703232D01*
X205373827Y-84633094D01*
X205421005Y-84580040D01*
X205487758Y-84560905D01*
X208962540Y-84560905D01*
X208981925Y-84562405D01*
X208996727Y-84564710D01*
X208996729Y-84564710D01*
X209005598Y-84566091D01*
X209014498Y-84564927D01*
X209023474Y-84565037D01*
X209023464Y-84565855D01*
X209044954Y-84566146D01*
X209065342Y-84569375D01*
X209080460Y-84571769D01*
X209117949Y-84583950D01*
X209162050Y-84606420D01*
X209193941Y-84629591D01*
X209228932Y-84664582D01*
X209252103Y-84696473D01*
X209274573Y-84740574D01*
X209286754Y-84778063D01*
X209292242Y-84812714D01*
X209293672Y-84832422D01*
X209292432Y-84840385D01*
X209294256Y-84854333D01*
X209296554Y-84871906D01*
X209297618Y-84888244D01*
X209297618Y-103847327D01*
X209296118Y-103866711D01*
X209292432Y-103890385D01*
X209293596Y-103899285D01*
X209293486Y-103908261D01*
X209292668Y-103908251D01*
X209292377Y-103929741D01*
X209286754Y-103965246D01*
X209274573Y-104002736D01*
X209256365Y-104038473D01*
X209252104Y-104046836D01*
X209228932Y-104078728D01*
X209193941Y-104113719D01*
X209162050Y-104136890D01*
X209117949Y-104159360D01*
X209080460Y-104171541D01*
X209045809Y-104177029D01*
X209026101Y-104178459D01*
X209018138Y-104177219D01*
X208986617Y-104181341D01*
X208970279Y-104182405D01*
X205316494Y-104182405D01*
X205248373Y-104162403D01*
X205201880Y-104108747D01*
X205191776Y-104038473D01*
X205221270Y-103973893D01*
X205287080Y-103933886D01*
X205484176Y-103886568D01*
X205484183Y-103886566D01*
X205487057Y-103885876D01*
X205866303Y-103756031D01*
X206231647Y-103591071D01*
X206234218Y-103589605D01*
X206234223Y-103589602D01*
X206519897Y-103426656D01*
X206579846Y-103392462D01*
X206582269Y-103390759D01*
X206582277Y-103390754D01*
X206905375Y-103163678D01*
X206905380Y-103163674D01*
X206907809Y-103161967D01*
X207212624Y-102901630D01*
X207396651Y-102711729D01*
X207489515Y-102615901D01*
X207489523Y-102615892D01*
X207491587Y-102613762D01*
X207742221Y-102300920D01*
X207832464Y-102163538D01*
X207960676Y-101968355D01*
X207960680Y-101968348D01*
X207962302Y-101965879D01*
X208149875Y-101611614D01*
X208303277Y-101241269D01*
X208421146Y-100858130D01*
X208460151Y-100669782D01*
X208501831Y-100468519D01*
X208501833Y-100468509D01*
X208502435Y-100465600D01*
X208546423Y-100067162D01*
X208546500Y-100064709D01*
X208546501Y-100064696D01*
X208552098Y-99886572D01*
X208554819Y-99800000D01*
X208535936Y-99399586D01*
X208479454Y-99002726D01*
X208385876Y-98612943D01*
X208256031Y-98233697D01*
X208091071Y-97868353D01*
X207892462Y-97520154D01*
X207890759Y-97517731D01*
X207890754Y-97517723D01*
X207663678Y-97194625D01*
X207663674Y-97194620D01*
X207661967Y-97192191D01*
X207401630Y-96887376D01*
X207302579Y-96791389D01*
X207115901Y-96610485D01*
X207115892Y-96610477D01*
X207113762Y-96608413D01*
X206800920Y-96357779D01*
X206681551Y-96279368D01*
X206468355Y-96139324D01*
X206468348Y-96139320D01*
X206465879Y-96137698D01*
X206463268Y-96136316D01*
X206463262Y-96136312D01*
X206114237Y-95951514D01*
X206111614Y-95950125D01*
X205741269Y-95796723D01*
X205738446Y-95795855D01*
X205738439Y-95795852D01*
X205360968Y-95679727D01*
X205360966Y-95679727D01*
X205358130Y-95678854D01*
X205355227Y-95678253D01*
X205355220Y-95678251D01*
X204968519Y-95598169D01*
X204968509Y-95598167D01*
X204965600Y-95597565D01*
X204567162Y-95553577D01*
X204564181Y-95553530D01*
X204564178Y-95553530D01*
X204453935Y-95551798D01*
X204166353Y-95547280D01*
X204163409Y-95547512D01*
X204163399Y-95547512D01*
X203784993Y-95577295D01*
X203766730Y-95578732D01*
X203371840Y-95647651D01*
X203368969Y-95648437D01*
X203368962Y-95648438D01*
X202988053Y-95752643D01*
X202988043Y-95752646D01*
X202985189Y-95753427D01*
X202982425Y-95754471D01*
X202982414Y-95754475D01*
X202612981Y-95894072D01*
X202610208Y-95895120D01*
X202250225Y-96071474D01*
X201908437Y-96280922D01*
X201587876Y-96521606D01*
X201291389Y-96791389D01*
X201021606Y-97087876D01*
X201019824Y-97090249D01*
X201019821Y-97090253D01*
X200812139Y-97366860D01*
X200780922Y-97408437D01*
X200571474Y-97750225D01*
X200395120Y-98110208D01*
X200394073Y-98112978D01*
X200394072Y-98112981D01*
X200254475Y-98482414D01*
X200254471Y-98482425D01*
X200253427Y-98485189D01*
X200147651Y-98871840D01*
X200078732Y-99266730D01*
X200078500Y-99269678D01*
X200050519Y-99625203D01*
X200047280Y-99666353D01*
X200053577Y-100067162D01*
X200097565Y-100465600D01*
X200098167Y-100468509D01*
X200098169Y-100468519D01*
X200139849Y-100669782D01*
X200178854Y-100858130D01*
X200296723Y-101241269D01*
X200450125Y-101611614D01*
X200637698Y-101965879D01*
X200639320Y-101968348D01*
X200639324Y-101968355D01*
X200767536Y-102163538D01*
X200857779Y-102300920D01*
X201108413Y-102613762D01*
X201110477Y-102615892D01*
X201110485Y-102615901D01*
X201203349Y-102711729D01*
X201387376Y-102901630D01*
X201692191Y-103161967D01*
X201694620Y-103163674D01*
X201694625Y-103163678D01*
X202017723Y-103390754D01*
X202017731Y-103390759D01*
X202020154Y-103392462D01*
X202080103Y-103426656D01*
X202365777Y-103589602D01*
X202365782Y-103589605D01*
X202368353Y-103591071D01*
X202733697Y-103756031D01*
X203112943Y-103885876D01*
X203115817Y-103886566D01*
X203115824Y-103886568D01*
X203312920Y-103933886D01*
X203374489Y-103969238D01*
X203407172Y-104032265D01*
X203400592Y-104102956D01*
X203356837Y-104158867D01*
X203283506Y-104182405D01*
X79756494Y-104182405D01*
X79688373Y-104162403D01*
X79641880Y-104108747D01*
X79631776Y-104038473D01*
X79661270Y-103973893D01*
X79727080Y-103933886D01*
X79924176Y-103886568D01*
X79924183Y-103886566D01*
X79927057Y-103885876D01*
X80306303Y-103756031D01*
X80671647Y-103591071D01*
X80674218Y-103589605D01*
X80674223Y-103589602D01*
X80959897Y-103426656D01*
X81019846Y-103392462D01*
X81022269Y-103390759D01*
X81022277Y-103390754D01*
X81345375Y-103163678D01*
X81345380Y-103163674D01*
X81347809Y-103161967D01*
X81652624Y-102901630D01*
X81836651Y-102711729D01*
X81929515Y-102615901D01*
X81929523Y-102615892D01*
X81931587Y-102613762D01*
X82182221Y-102300920D01*
X82272464Y-102163538D01*
X82400676Y-101968355D01*
X82400680Y-101968348D01*
X82402302Y-101965879D01*
X82589875Y-101611614D01*
X82654621Y-101455304D01*
X149949437Y-101455304D01*
X149949612Y-101459756D01*
X149955579Y-101611614D01*
X149960048Y-101725368D01*
X150008605Y-101991242D01*
X150094140Y-102247622D01*
X150214946Y-102489392D01*
X150217475Y-102493051D01*
X150321431Y-102643463D01*
X150368612Y-102711729D01*
X150478048Y-102830116D01*
X150544156Y-102901630D01*
X150552073Y-102910195D01*
X150761667Y-103080832D01*
X150993214Y-103220235D01*
X150997309Y-103221969D01*
X150997311Y-103221970D01*
X151237992Y-103323885D01*
X151237999Y-103323887D01*
X151242093Y-103325621D01*
X151338226Y-103351110D01*
X151499040Y-103393750D01*
X151499045Y-103393751D01*
X151503337Y-103394889D01*
X151507746Y-103395411D01*
X151507752Y-103395412D01*
X151657078Y-103413085D01*
X151771736Y-103426656D01*
X152041932Y-103420288D01*
X152046327Y-103419556D01*
X152046332Y-103419556D01*
X152304135Y-103376646D01*
X152304139Y-103376645D01*
X152308537Y-103375913D01*
X152476827Y-103322690D01*
X152561982Y-103295759D01*
X152561984Y-103295758D01*
X152566228Y-103294416D01*
X152570239Y-103292490D01*
X152570244Y-103292488D01*
X152805847Y-103179353D01*
X152805848Y-103179352D01*
X152809866Y-103177423D01*
X152958636Y-103078018D01*
X153030881Y-103029746D01*
X153030885Y-103029743D01*
X153034589Y-103027268D01*
X153037906Y-103024297D01*
X153037910Y-103024294D01*
X153232597Y-102849917D01*
X153235913Y-102846947D01*
X153409821Y-102640059D01*
X153552843Y-102410730D01*
X153662126Y-102163538D01*
X153735488Y-101903413D01*
X153758814Y-101729748D01*
X153771040Y-101638729D01*
X153771041Y-101638721D01*
X153771467Y-101635547D01*
X153772219Y-101611614D01*
X153775142Y-101518627D01*
X153775142Y-101518622D01*
X153775243Y-101515405D01*
X153756155Y-101245808D01*
X153699270Y-100981590D01*
X153679669Y-100928458D01*
X153607265Y-100732201D01*
X153605724Y-100728024D01*
X153576378Y-100673636D01*
X153479497Y-100494083D01*
X153479497Y-100494082D01*
X153477384Y-100490167D01*
X153316810Y-100272767D01*
X153127206Y-100080161D01*
X153050424Y-100021563D01*
X152915896Y-99918894D01*
X152915892Y-99918892D01*
X152912355Y-99916192D01*
X152676543Y-99784132D01*
X152424477Y-99686615D01*
X152420152Y-99685612D01*
X152420147Y-99685611D01*
X152314616Y-99661151D01*
X152161186Y-99625587D01*
X151891922Y-99602266D01*
X151887487Y-99602510D01*
X151887483Y-99602510D01*
X151626502Y-99616873D01*
X151626495Y-99616874D01*
X151622059Y-99617118D01*
X151490490Y-99643288D01*
X151361352Y-99668975D01*
X151361347Y-99668976D01*
X151356980Y-99669845D01*
X151352777Y-99671321D01*
X151106183Y-99757918D01*
X151106180Y-99757919D01*
X151101975Y-99759396D01*
X151098022Y-99761449D01*
X151098016Y-99761452D01*
X151054356Y-99784132D01*
X150862132Y-99883985D01*
X150858517Y-99886568D01*
X150858511Y-99886572D01*
X150645858Y-100038536D01*
X150645854Y-100038539D01*
X150642237Y-100041124D01*
X150446676Y-100227680D01*
X150279353Y-100439929D01*
X150277121Y-100443771D01*
X150277118Y-100443776D01*
X150145842Y-100669782D01*
X150145839Y-100669789D01*
X150143604Y-100673636D01*
X150042140Y-100924140D01*
X150041069Y-100928453D01*
X150041067Y-100928458D01*
X150027869Y-100981590D01*
X149976984Y-101186440D01*
X149976530Y-101190868D01*
X149976530Y-101190870D01*
X149949891Y-101450872D01*
X149949437Y-101455304D01*
X82654621Y-101455304D01*
X82743277Y-101241269D01*
X82861146Y-100858130D01*
X82900151Y-100669782D01*
X82941831Y-100468519D01*
X82941833Y-100468509D01*
X82942435Y-100465600D01*
X82986423Y-100067162D01*
X82986500Y-100064709D01*
X82986501Y-100064696D01*
X82992098Y-99886572D01*
X82994819Y-99800000D01*
X82975936Y-99399586D01*
X82919454Y-99002726D01*
X82825876Y-98612943D01*
X82696031Y-98233697D01*
X82531071Y-97868353D01*
X82332462Y-97520154D01*
X82330759Y-97517731D01*
X82330754Y-97517723D01*
X82103678Y-97194625D01*
X82103674Y-97194620D01*
X82101967Y-97192191D01*
X81841630Y-96887376D01*
X81742579Y-96791389D01*
X81555901Y-96610485D01*
X81555892Y-96610477D01*
X81553762Y-96608413D01*
X81240920Y-96357779D01*
X81121551Y-96279368D01*
X80908355Y-96139324D01*
X80908348Y-96139320D01*
X80905879Y-96137698D01*
X80903268Y-96136316D01*
X80903262Y-96136312D01*
X80554237Y-95951514D01*
X80551614Y-95950125D01*
X80181269Y-95796723D01*
X80178446Y-95795855D01*
X80178439Y-95795852D01*
X79800968Y-95679727D01*
X79800966Y-95679727D01*
X79798130Y-95678854D01*
X79795227Y-95678253D01*
X79795220Y-95678251D01*
X79408519Y-95598169D01*
X79408509Y-95598167D01*
X79405600Y-95597565D01*
X79007162Y-95553577D01*
X79004181Y-95553530D01*
X79004178Y-95553530D01*
X78893935Y-95551798D01*
X78606353Y-95547280D01*
X78603409Y-95547512D01*
X78603399Y-95547512D01*
X78224993Y-95577295D01*
X78206730Y-95578732D01*
X77811840Y-95647651D01*
X77808969Y-95648437D01*
X77808962Y-95648438D01*
X77428053Y-95752643D01*
X77428043Y-95752646D01*
X77425189Y-95753427D01*
X77422425Y-95754471D01*
X77422414Y-95754475D01*
X77052981Y-95894072D01*
X77050208Y-95895120D01*
X76690225Y-96071474D01*
X76348437Y-96280922D01*
X76027876Y-96521606D01*
X75731389Y-96791389D01*
X75461606Y-97087876D01*
X75459824Y-97090249D01*
X75459821Y-97090253D01*
X75252139Y-97366860D01*
X75220922Y-97408437D01*
X75011474Y-97750225D01*
X74835120Y-98110208D01*
X74834073Y-98112978D01*
X74834072Y-98112981D01*
X74694475Y-98482414D01*
X74694471Y-98482425D01*
X74693427Y-98485189D01*
X74587651Y-98871840D01*
X74518732Y-99266730D01*
X74518500Y-99269678D01*
X74490519Y-99625203D01*
X74487280Y-99666353D01*
X74493577Y-100067162D01*
X74537565Y-100465600D01*
X74538167Y-100468509D01*
X74538169Y-100468519D01*
X74579849Y-100669782D01*
X74618854Y-100858130D01*
X74736723Y-101241269D01*
X74890125Y-101611614D01*
X75077698Y-101965879D01*
X75079320Y-101968348D01*
X75079324Y-101968355D01*
X75207536Y-102163538D01*
X75297779Y-102300920D01*
X75548413Y-102613762D01*
X75550477Y-102615892D01*
X75550485Y-102615901D01*
X75643349Y-102711729D01*
X75827376Y-102901630D01*
X76132191Y-103161967D01*
X76134620Y-103163674D01*
X76134625Y-103163678D01*
X76457723Y-103390754D01*
X76457731Y-103390759D01*
X76460154Y-103392462D01*
X76520103Y-103426656D01*
X76805777Y-103589602D01*
X76805782Y-103589605D01*
X76808353Y-103591071D01*
X77173697Y-103756031D01*
X77552943Y-103885876D01*
X77555817Y-103886566D01*
X77555824Y-103886568D01*
X77752920Y-103933886D01*
X77814489Y-103969238D01*
X77847172Y-104032265D01*
X77840592Y-104102956D01*
X77796837Y-104158867D01*
X77723506Y-104182405D01*
X74028446Y-104182405D01*
X74009061Y-104180905D01*
X73994259Y-104178600D01*
X73994257Y-104178600D01*
X73985388Y-104177219D01*
X73976488Y-104178383D01*
X73967512Y-104178273D01*
X73967522Y-104177455D01*
X73946032Y-104177164D01*
X73925644Y-104173935D01*
X73910526Y-104171541D01*
X73873037Y-104159360D01*
X73828936Y-104136890D01*
X73797045Y-104113719D01*
X73762054Y-104078728D01*
X73738882Y-104046836D01*
X73734621Y-104038473D01*
X73716413Y-104002736D01*
X73704232Y-103965246D01*
X73699525Y-103935525D01*
X73698635Y-103909196D01*
X73698439Y-103909194D01*
X73698491Y-103904943D01*
X73698491Y-103904940D01*
X73698592Y-103896655D01*
X73694641Y-103869067D01*
X73693368Y-103851204D01*
X73693368Y-84899862D01*
X73695114Y-84878958D01*
X73697632Y-84863990D01*
X73698439Y-84859194D01*
X73698592Y-84846655D01*
X73697903Y-84841844D01*
X73697717Y-84838992D01*
X73699001Y-84811091D01*
X73704232Y-84778063D01*
X73716413Y-84740574D01*
X73738883Y-84696473D01*
X73762054Y-84664582D01*
X73797045Y-84629591D01*
X73828936Y-84606420D01*
X73873037Y-84583950D01*
X73910526Y-84571769D01*
X73945177Y-84566281D01*
X73964885Y-84564851D01*
X73972848Y-84566091D01*
X74004370Y-84561969D01*
X74020707Y-84560905D01*
X77556389Y-84560905D01*
X77624510Y-84580907D01*
G37*
%TD.AperFunction*%
M02*
