%TF.GenerationSoftware,KiCad,Pcbnew,(5.99.0-12610-g07e01e6297)*%
%TF.CreationDate,2021-10-19T09:50:00+01:00*%
%TF.ProjectId,piccolo-backplate,70696363-6f6c-46f2-9d62-61636b706c61,rev?*%
%TF.SameCoordinates,Original*%
%TF.FileFunction,Legend,Bot*%
%TF.FilePolarity,Positive*%
%FSLAX46Y46*%
G04 Gerber Fmt 4.6, Leading zero omitted, Abs format (unit mm)*
G04 Created by KiCad (PCBNEW (5.99.0-12610-g07e01e6297)) date 2021-10-19 09:50:00*
%MOMM*%
%LPD*%
G01*
G04 APERTURE LIST*
G04 APERTURE END LIST*
%TO.C,G\u002A\u002A\u002A*%
G36*
X181608715Y-99515959D02*
G01*
X181608705Y-99620766D01*
X181608370Y-99911860D01*
X181607109Y-100152105D01*
X181604322Y-100347112D01*
X181599408Y-100502495D01*
X181591768Y-100623865D01*
X181580800Y-100716834D01*
X181565904Y-100787013D01*
X181546479Y-100840016D01*
X181521924Y-100881454D01*
X181491640Y-100916938D01*
X181455025Y-100952082D01*
X181446558Y-100959528D01*
X181363381Y-101015652D01*
X181269218Y-101060035D01*
X181259383Y-101063406D01*
X181151340Y-101089747D01*
X181046471Y-101101245D01*
X180935717Y-101102523D01*
X180944521Y-100949599D01*
X180949215Y-100884168D01*
X180960975Y-100824771D01*
X180985893Y-100797740D01*
X181032382Y-100787559D01*
X181040945Y-100786167D01*
X181115099Y-100752263D01*
X181185307Y-100690656D01*
X181259174Y-100602870D01*
X181259174Y-98335321D01*
X181608715Y-98335321D01*
X181608715Y-99515959D01*
G37*
G36*
X180624340Y-100450171D02*
G01*
X180543636Y-100652169D01*
X180428624Y-100826423D01*
X180283371Y-100964216D01*
X180111940Y-101056830D01*
X180038634Y-101077473D01*
X179875044Y-101096604D01*
X179695969Y-101091750D01*
X179524811Y-101064244D01*
X179384972Y-101015419D01*
X179254010Y-100930659D01*
X179111555Y-100780911D01*
X179005631Y-100593700D01*
X178938742Y-100375358D01*
X178913393Y-100132215D01*
X178915867Y-100097592D01*
X179293004Y-100097592D01*
X179293403Y-100173575D01*
X179297780Y-100294290D01*
X179309364Y-100382799D01*
X179331073Y-100456554D01*
X179365825Y-100533005D01*
X179396207Y-100587107D01*
X179457305Y-100673979D01*
X179513722Y-100731555D01*
X179631766Y-100790350D01*
X179784532Y-100816619D01*
X179939648Y-100800970D01*
X180076590Y-100742985D01*
X180098098Y-100726185D01*
X180161188Y-100656540D01*
X180217458Y-100570503D01*
X180244563Y-100514081D01*
X180264638Y-100450683D01*
X180276422Y-100372133D01*
X180281978Y-100264076D01*
X180283371Y-100112156D01*
X180283348Y-100083472D01*
X180281713Y-99942475D01*
X180275883Y-99842822D01*
X180263590Y-99770042D01*
X180242568Y-99709668D01*
X180210550Y-99647228D01*
X180174305Y-99588387D01*
X180067576Y-99471589D01*
X179937490Y-99405051D01*
X179776078Y-99383945D01*
X179636672Y-99397674D01*
X179507625Y-99449344D01*
X179410733Y-99542220D01*
X179343997Y-99679253D01*
X179305419Y-99863393D01*
X179293004Y-100097592D01*
X178915867Y-100097592D01*
X178932089Y-99870603D01*
X178932623Y-99867171D01*
X178993203Y-99627025D01*
X179091847Y-99429795D01*
X179226850Y-99276939D01*
X179396512Y-99169917D01*
X179599128Y-99110184D01*
X179832996Y-99099201D01*
X179975051Y-99115796D01*
X180180053Y-99179510D01*
X180349733Y-99288988D01*
X180484656Y-99444780D01*
X180585388Y-99647439D01*
X180652493Y-99897513D01*
X180666567Y-99997818D01*
X180666619Y-100112156D01*
X180666672Y-100229148D01*
X180624340Y-100450171D01*
G37*
G36*
X174808617Y-100799824D02*
G01*
X174701165Y-100941567D01*
X174545069Y-101056060D01*
X174536471Y-101060529D01*
X174420391Y-101093314D01*
X174274991Y-101099247D01*
X174117552Y-101081371D01*
X173965354Y-101042729D01*
X173835677Y-100986363D01*
X173745803Y-100915317D01*
X173704447Y-100876707D01*
X173668098Y-100882397D01*
X173628228Y-100940999D01*
X173615515Y-100961090D01*
X173536468Y-101032183D01*
X173427257Y-101083068D01*
X173309990Y-101102523D01*
X173266612Y-101100368D01*
X173228497Y-101080749D01*
X173219724Y-101028523D01*
X173220029Y-101020975D01*
X173241130Y-100944990D01*
X173285263Y-100865900D01*
X173293119Y-100855021D01*
X173313480Y-100821399D01*
X173328913Y-100780879D01*
X173340446Y-100724901D01*
X173349106Y-100644910D01*
X173355918Y-100532348D01*
X173361909Y-100378656D01*
X173362473Y-100360128D01*
X173714908Y-100360128D01*
X173715665Y-100471909D01*
X173721229Y-100551324D01*
X173736531Y-100603444D01*
X173766498Y-100644349D01*
X173816061Y-100690119D01*
X173838306Y-100708337D01*
X173933995Y-100769632D01*
X174027242Y-100809487D01*
X174109720Y-100827534D01*
X174261560Y-100831187D01*
X174384402Y-100793083D01*
X174472419Y-100717249D01*
X174519783Y-100607712D01*
X174520668Y-100468498D01*
X174519735Y-100462984D01*
X174470518Y-100342268D01*
X174376153Y-100238021D01*
X174248302Y-100156026D01*
X174098626Y-100102066D01*
X173938787Y-100081925D01*
X173780447Y-100101387D01*
X173758307Y-100108708D01*
X173734556Y-100128080D01*
X173721523Y-100168082D01*
X173716032Y-100241252D01*
X173714908Y-100360128D01*
X173362473Y-100360128D01*
X173368105Y-100175279D01*
X173372899Y-100022492D01*
X173381441Y-99827487D01*
X173392925Y-99676674D01*
X173409186Y-99561497D01*
X173432058Y-99473396D01*
X173463373Y-99403813D01*
X173504967Y-99344189D01*
X173558674Y-99285968D01*
X173609618Y-99239221D01*
X173703018Y-99177408D01*
X173813026Y-99137938D01*
X173953243Y-99116662D01*
X174137270Y-99109430D01*
X174229334Y-99109327D01*
X174345083Y-99113404D01*
X174432435Y-99125441D01*
X174509913Y-99148519D01*
X174596043Y-99185717D01*
X174676112Y-99225125D01*
X174739314Y-99260305D01*
X174763532Y-99279605D01*
X174761993Y-99288903D01*
X174742814Y-99338552D01*
X174709292Y-99407620D01*
X174671077Y-99478010D01*
X174637817Y-99531626D01*
X174619161Y-99550371D01*
X174555967Y-99516137D01*
X174374702Y-99444049D01*
X174202177Y-99411226D01*
X174045370Y-99415930D01*
X173911261Y-99456425D01*
X173806829Y-99530977D01*
X173739051Y-99637848D01*
X173714908Y-99775302D01*
X173716535Y-99813188D01*
X173731197Y-99837962D01*
X173773773Y-99842545D01*
X173859136Y-99832874D01*
X173972325Y-99825799D01*
X174169185Y-99845880D01*
X174362275Y-99901299D01*
X174538341Y-99986471D01*
X174684127Y-100095807D01*
X174786378Y-100223720D01*
X174817516Y-100285572D01*
X174868952Y-100464379D01*
X174868865Y-100468498D01*
X174865266Y-100638279D01*
X174808617Y-100799824D01*
G37*
G36*
X169625030Y-100317729D02*
G01*
X169597633Y-100464987D01*
X169597072Y-100466907D01*
X169509552Y-100681622D01*
X169386477Y-100856621D01*
X169232004Y-100987311D01*
X169050295Y-101069101D01*
X168994517Y-101080823D01*
X168887035Y-101093793D01*
X168771448Y-101099896D01*
X168599298Y-101087276D01*
X168396367Y-101026526D01*
X168222716Y-100919198D01*
X168081777Y-100769176D01*
X167976984Y-100580347D01*
X167911769Y-100356595D01*
X167889566Y-100101806D01*
X167893854Y-100023155D01*
X168253969Y-100023155D01*
X168260203Y-100249334D01*
X168306173Y-100450993D01*
X168389731Y-100620372D01*
X168508732Y-100749708D01*
X168533403Y-100765875D01*
X168637036Y-100802241D01*
X168764916Y-100816304D01*
X168893526Y-100804702D01*
X169022702Y-100755785D01*
X169132983Y-100658486D01*
X169211036Y-100514568D01*
X169257363Y-100323068D01*
X169272471Y-100083028D01*
X169271714Y-99989151D01*
X169266479Y-99881655D01*
X169253096Y-99801997D01*
X169227929Y-99731792D01*
X169187340Y-99652652D01*
X169130374Y-99561819D01*
X169030065Y-99458243D01*
X168909307Y-99401330D01*
X168756660Y-99383945D01*
X168636555Y-99394700D01*
X168498792Y-99446704D01*
X168393240Y-99544003D01*
X168317544Y-99689016D01*
X168269347Y-99884163D01*
X168253969Y-100023155D01*
X167893854Y-100023155D01*
X167899434Y-99920804D01*
X167949037Y-99679602D01*
X168038568Y-99476552D01*
X168165963Y-99314056D01*
X168329159Y-99194520D01*
X168526092Y-99120346D01*
X168754698Y-99093939D01*
X168886991Y-99101925D01*
X169099610Y-99157302D01*
X169285168Y-99262648D01*
X169438754Y-99414795D01*
X169555456Y-99610573D01*
X169566276Y-99637131D01*
X169604205Y-99780295D01*
X169627311Y-99955023D01*
X169632320Y-100083028D01*
X169634587Y-100140954D01*
X169625030Y-100317729D01*
G37*
G36*
X162618258Y-100382060D02*
G01*
X162614329Y-100402022D01*
X162543731Y-100627435D01*
X162433534Y-100814222D01*
X162286298Y-100959015D01*
X162104582Y-101058445D01*
X162000975Y-101084475D01*
X161851959Y-101096163D01*
X161694265Y-101088513D01*
X161549495Y-101062766D01*
X161439251Y-101020166D01*
X161365997Y-100978076D01*
X161324437Y-100961575D01*
X161308670Y-100974087D01*
X161306192Y-101015138D01*
X161302979Y-101040941D01*
X161281780Y-101061931D01*
X161229035Y-101071269D01*
X161131422Y-101073395D01*
X160956651Y-101073395D01*
X160956651Y-100693541D01*
X161306192Y-100693541D01*
X161421546Y-100752390D01*
X161469860Y-100773689D01*
X161627571Y-100808388D01*
X161793034Y-100802369D01*
X161947983Y-100757753D01*
X162074151Y-100676658D01*
X162127035Y-100620795D01*
X162206687Y-100490499D01*
X162251979Y-100329235D01*
X162266507Y-100126720D01*
X162264719Y-100053467D01*
X162231566Y-99836601D01*
X162156662Y-99660112D01*
X162040110Y-99524191D01*
X161882017Y-99429028D01*
X161786625Y-99398363D01*
X161628828Y-99385766D01*
X161484191Y-99419996D01*
X161365612Y-99499296D01*
X161362635Y-99502310D01*
X161342853Y-99526534D01*
X161328313Y-99558303D01*
X161318213Y-99606068D01*
X161311752Y-99678281D01*
X161308129Y-99783395D01*
X161306543Y-99929860D01*
X161306192Y-100126128D01*
X161306192Y-100693541D01*
X160956651Y-100693541D01*
X160956651Y-98335321D01*
X161306192Y-98335321D01*
X161306192Y-99210671D01*
X161400860Y-99159200D01*
X161404454Y-99157277D01*
X161483291Y-99128308D01*
X161591472Y-99112420D01*
X161743119Y-99107477D01*
X161773987Y-99107521D01*
X161893935Y-99110910D01*
X161979534Y-99122575D01*
X162050521Y-99146614D01*
X162126633Y-99187127D01*
X162265049Y-99286531D01*
X162420844Y-99456464D01*
X162537588Y-99659553D01*
X162611755Y-99887227D01*
X162639336Y-100126720D01*
X162639820Y-100130919D01*
X162618258Y-100382060D01*
G37*
G36*
X172107603Y-99102449D02*
G01*
X172317710Y-99153878D01*
X172508165Y-99247586D01*
X172671613Y-99380855D01*
X172800703Y-99550967D01*
X172888081Y-99755206D01*
X172894391Y-99778668D01*
X172919895Y-99927065D01*
X172932153Y-100099438D01*
X172930155Y-100269148D01*
X172912891Y-100409558D01*
X172895311Y-100476871D01*
X172806155Y-100673090D01*
X172670354Y-100843665D01*
X172495107Y-100980909D01*
X172287614Y-101077134D01*
X172215046Y-101091003D01*
X172088548Y-101096425D01*
X171938104Y-101090258D01*
X171781705Y-101073929D01*
X171637338Y-101048864D01*
X171522993Y-101016491D01*
X171484205Y-101001314D01*
X171399652Y-100959345D01*
X171363478Y-100913792D01*
X171369718Y-100850581D01*
X171412404Y-100755642D01*
X171469304Y-100644109D01*
X171634972Y-100727674D01*
X171671666Y-100745159D01*
X171861089Y-100803909D01*
X172043818Y-100810504D01*
X172212364Y-100766663D01*
X172359237Y-100674103D01*
X172476949Y-100534541D01*
X172513451Y-100472514D01*
X172541100Y-100409918D01*
X172556402Y-100340884D01*
X172562950Y-100248147D01*
X172564335Y-100114440D01*
X172563996Y-100045161D01*
X172559813Y-99928106D01*
X172548386Y-99844183D01*
X172526644Y-99776200D01*
X172491513Y-99706962D01*
X172471272Y-99674265D01*
X172392292Y-99572539D01*
X172306757Y-99488499D01*
X172286028Y-99472089D01*
X172227091Y-99432104D01*
X172167965Y-99409976D01*
X172089308Y-99400510D01*
X171971780Y-99398509D01*
X171838536Y-99403205D01*
X171724652Y-99421852D01*
X171629674Y-99458053D01*
X171510610Y-99517596D01*
X171433057Y-99409706D01*
X171410358Y-99377404D01*
X171371055Y-99316854D01*
X171355504Y-99285372D01*
X171356117Y-99283142D01*
X171385658Y-99257543D01*
X171445874Y-99222195D01*
X171657843Y-99137295D01*
X171885196Y-99096015D01*
X172107603Y-99102449D01*
G37*
G36*
X186508199Y-99093167D02*
G01*
X186750174Y-99125747D01*
X186962818Y-99206241D01*
X187142461Y-99330578D01*
X187285433Y-99494690D01*
X187388063Y-99694506D01*
X187446681Y-99925959D01*
X187457618Y-100184977D01*
X187430798Y-100384357D01*
X187356593Y-100603534D01*
X187240337Y-100790515D01*
X187085782Y-100939549D01*
X186896681Y-101044882D01*
X186894781Y-101045636D01*
X186810168Y-101074219D01*
X186724265Y-101089882D01*
X186618215Y-101094659D01*
X186473165Y-101090586D01*
X186304175Y-101078627D01*
X186142179Y-101053526D01*
X186018480Y-101014490D01*
X185922530Y-100958997D01*
X185856933Y-100909517D01*
X185921478Y-100776664D01*
X185986023Y-100643810D01*
X186145166Y-100727524D01*
X186201556Y-100754173D01*
X186387346Y-100805214D01*
X186574960Y-100806114D01*
X186749885Y-100756185D01*
X186775413Y-100743802D01*
X186915777Y-100645218D01*
X187013386Y-100512551D01*
X187070248Y-100342090D01*
X187088367Y-100130125D01*
X187087115Y-100068893D01*
X187059490Y-99849973D01*
X186994790Y-99674137D01*
X186891810Y-99538941D01*
X186749345Y-99441941D01*
X186728935Y-99432289D01*
X186638948Y-99398881D01*
X186547934Y-99386682D01*
X186427946Y-99391290D01*
X186381647Y-99396145D01*
X186244494Y-99424223D01*
X186139638Y-99466615D01*
X186037267Y-99527015D01*
X185951761Y-99402736D01*
X185905389Y-99333621D01*
X185884938Y-99290564D01*
X185892899Y-99264859D01*
X185926832Y-99240624D01*
X186019797Y-99193893D01*
X186168987Y-99142464D01*
X186328737Y-99106314D01*
X186472438Y-99092661D01*
X186508199Y-99093167D01*
G37*
G36*
X164526278Y-100799824D02*
G01*
X164418826Y-100941567D01*
X164262729Y-101056060D01*
X164254132Y-101060529D01*
X164138052Y-101093314D01*
X163992652Y-101099247D01*
X163835212Y-101081371D01*
X163683014Y-101042729D01*
X163553338Y-100986363D01*
X163463464Y-100915317D01*
X163422108Y-100876707D01*
X163385759Y-100882397D01*
X163345889Y-100940999D01*
X163333175Y-100961090D01*
X163254129Y-101032183D01*
X163144917Y-101083068D01*
X163027650Y-101102523D01*
X162984273Y-101100368D01*
X162946158Y-101080749D01*
X162937385Y-101028523D01*
X162937690Y-101020975D01*
X162958791Y-100944990D01*
X163002924Y-100865900D01*
X163010780Y-100855021D01*
X163031140Y-100821399D01*
X163046574Y-100780879D01*
X163058107Y-100724901D01*
X163066766Y-100644910D01*
X163073578Y-100532348D01*
X163079569Y-100378656D01*
X163080134Y-100360128D01*
X163432569Y-100360128D01*
X163433325Y-100471909D01*
X163438890Y-100551324D01*
X163454191Y-100603444D01*
X163484159Y-100644349D01*
X163533722Y-100690119D01*
X163555966Y-100708337D01*
X163651655Y-100769632D01*
X163744903Y-100809487D01*
X163827380Y-100827534D01*
X163979221Y-100831187D01*
X164102063Y-100793083D01*
X164190079Y-100717249D01*
X164237443Y-100607712D01*
X164238328Y-100468498D01*
X164237395Y-100462984D01*
X164188178Y-100342268D01*
X164093813Y-100238021D01*
X163965962Y-100156026D01*
X163816286Y-100102066D01*
X163656448Y-100081925D01*
X163498108Y-100101387D01*
X163475967Y-100108708D01*
X163452216Y-100128080D01*
X163439184Y-100168082D01*
X163433693Y-100241252D01*
X163432569Y-100360128D01*
X163080134Y-100360128D01*
X163085766Y-100175279D01*
X163090560Y-100022492D01*
X163099102Y-99827487D01*
X163110586Y-99676674D01*
X163126847Y-99561497D01*
X163149718Y-99473396D01*
X163181034Y-99403813D01*
X163222628Y-99344189D01*
X163276334Y-99285968D01*
X163327279Y-99239221D01*
X163420678Y-99177408D01*
X163530686Y-99137938D01*
X163670904Y-99116662D01*
X163854931Y-99109430D01*
X163946994Y-99109327D01*
X164062744Y-99113404D01*
X164150095Y-99125441D01*
X164227574Y-99148519D01*
X164313704Y-99185717D01*
X164393772Y-99225125D01*
X164456975Y-99260305D01*
X164481192Y-99279605D01*
X164479653Y-99288903D01*
X164460474Y-99338552D01*
X164426952Y-99407620D01*
X164388737Y-99478010D01*
X164355477Y-99531626D01*
X164336822Y-99550371D01*
X164273628Y-99516137D01*
X164092363Y-99444049D01*
X163919838Y-99411226D01*
X163763031Y-99415930D01*
X163628922Y-99456425D01*
X163524489Y-99530977D01*
X163456712Y-99637848D01*
X163432569Y-99775302D01*
X163434196Y-99813188D01*
X163448858Y-99837962D01*
X163491434Y-99842545D01*
X163576797Y-99832874D01*
X163689985Y-99825799D01*
X163886845Y-99845880D01*
X164079936Y-99901299D01*
X164256002Y-99986471D01*
X164401788Y-100095807D01*
X164504039Y-100223720D01*
X164535176Y-100285572D01*
X164586612Y-100464379D01*
X164586525Y-100468498D01*
X164582926Y-100638279D01*
X164526278Y-100799824D01*
G37*
G36*
X189910321Y-101073395D02*
G01*
X189910321Y-100061230D01*
X189578447Y-100048527D01*
X189563480Y-100047947D01*
X189416760Y-100040635D01*
X189309858Y-100029936D01*
X189225791Y-100012409D01*
X189147576Y-99984611D01*
X189058228Y-99943102D01*
X188966313Y-99891711D01*
X188816732Y-99767369D01*
X188712400Y-99611553D01*
X188650934Y-99420063D01*
X188635023Y-99244654D01*
X189013970Y-99244654D01*
X189026808Y-99366895D01*
X189066095Y-99489219D01*
X189138180Y-99580699D01*
X189251035Y-99655140D01*
X189304238Y-99675153D01*
X189402766Y-99698033D01*
X189521404Y-99716576D01*
X189644724Y-99729278D01*
X189757295Y-99734634D01*
X189843689Y-99731141D01*
X189888474Y-99717292D01*
X189893478Y-99699450D01*
X189900170Y-99630834D01*
X189905509Y-99521109D01*
X189909043Y-99380552D01*
X189910321Y-99219439D01*
X189910321Y-98744229D01*
X189834438Y-98725184D01*
X189773052Y-98716562D01*
X189648456Y-98717733D01*
X189505761Y-98733628D01*
X189367184Y-98761442D01*
X189254942Y-98798370D01*
X189141621Y-98864061D01*
X189061028Y-98956598D01*
X189020200Y-99080273D01*
X189013970Y-99244654D01*
X188635023Y-99244654D01*
X188629948Y-99188699D01*
X188643205Y-99001930D01*
X188694510Y-98830510D01*
X188787683Y-98691907D01*
X188926196Y-98578973D01*
X188942234Y-98568984D01*
X189039558Y-98515491D01*
X189140705Y-98475188D01*
X189256553Y-98445872D01*
X189397980Y-98425339D01*
X189575866Y-98411388D01*
X189801089Y-98401814D01*
X190288991Y-98386127D01*
X190288991Y-101073395D01*
X189910321Y-101073395D01*
G37*
G36*
X175684533Y-98394764D02*
G01*
X175703697Y-98401995D01*
X175722654Y-98420793D01*
X175743540Y-98456683D01*
X175768494Y-98515188D01*
X175799651Y-98601831D01*
X175839148Y-98722135D01*
X175889124Y-98881625D01*
X175951714Y-99085823D01*
X176029055Y-99340253D01*
X176081910Y-99513373D01*
X176146751Y-99722971D01*
X176205196Y-99908802D01*
X176255183Y-100064458D01*
X176294646Y-100183530D01*
X176321523Y-100259611D01*
X176333750Y-100286291D01*
X176341991Y-100270575D01*
X176366959Y-100205839D01*
X176405957Y-100096909D01*
X176456783Y-99950168D01*
X176517231Y-99771998D01*
X176585098Y-99568781D01*
X176658179Y-99346899D01*
X176965327Y-98408142D01*
X177132577Y-98408142D01*
X177374518Y-99689794D01*
X177412027Y-99889055D01*
X177459739Y-100144241D01*
X177503154Y-100378387D01*
X177541170Y-100585463D01*
X177572691Y-100759435D01*
X177596617Y-100894274D01*
X177611849Y-100983946D01*
X177617289Y-101022420D01*
X177616116Y-101036747D01*
X177597655Y-101059720D01*
X177546774Y-101070613D01*
X177450630Y-101073349D01*
X177283142Y-101073304D01*
X177140466Y-100279599D01*
X177137278Y-100261883D01*
X177099492Y-100054248D01*
X177064360Y-99865349D01*
X177033375Y-99702915D01*
X177008033Y-99574670D01*
X176989830Y-99488343D01*
X176980259Y-99451658D01*
X176976402Y-99453193D01*
X176955411Y-99493698D01*
X176919275Y-99580224D01*
X176870411Y-99706444D01*
X176811236Y-99866027D01*
X176744166Y-100052646D01*
X176671617Y-100259972D01*
X176587712Y-100500871D01*
X176515476Y-100703257D01*
X176457513Y-100858863D01*
X176412031Y-100972141D01*
X176377238Y-101047543D01*
X176351343Y-101089520D01*
X176332555Y-101102523D01*
X176332237Y-101102518D01*
X176313626Y-101089325D01*
X176288330Y-101047686D01*
X176254572Y-100973074D01*
X176210571Y-100860960D01*
X176154549Y-100706817D01*
X176084728Y-100506119D01*
X175999328Y-100254337D01*
X175933868Y-100061377D01*
X175853306Y-99830112D01*
X175789069Y-99654294D01*
X175741198Y-99534029D01*
X175709735Y-99469424D01*
X175694720Y-99460587D01*
X175694669Y-99460731D01*
X175684410Y-99503515D01*
X175665479Y-99595505D01*
X175639431Y-99728636D01*
X175607818Y-99894841D01*
X175572196Y-100086054D01*
X175534118Y-100294209D01*
X175392849Y-101073395D01*
X175210182Y-101073395D01*
X175207228Y-101073393D01*
X175103520Y-101069767D01*
X175050358Y-101058145D01*
X175040545Y-101036984D01*
X175042528Y-101029580D01*
X175055074Y-100973434D01*
X175077308Y-100868843D01*
X175107938Y-100722051D01*
X175145673Y-100539302D01*
X175189222Y-100326841D01*
X175237293Y-100090911D01*
X175288594Y-99837757D01*
X175305200Y-99755617D01*
X175356778Y-99500756D01*
X175405373Y-99261030D01*
X175449562Y-99043434D01*
X175487920Y-98854964D01*
X175519026Y-98702615D01*
X175541455Y-98593382D01*
X175553785Y-98534260D01*
X175562892Y-98493838D01*
X175584499Y-98428324D01*
X175613999Y-98399811D01*
X175662799Y-98393578D01*
X175663026Y-98393578D01*
X175684533Y-98394764D01*
G37*
G36*
X184774240Y-99102695D02*
G01*
X184986751Y-99150735D01*
X185177353Y-99240604D01*
X185334418Y-99369785D01*
X185342568Y-99378695D01*
X185469361Y-99545095D01*
X185551366Y-99722252D01*
X185598416Y-99931067D01*
X185602310Y-99960574D01*
X185609926Y-100219912D01*
X185568449Y-100455549D01*
X185480223Y-100663286D01*
X185347591Y-100838928D01*
X185172898Y-100978277D01*
X184958486Y-101077134D01*
X184885918Y-101091003D01*
X184759419Y-101096425D01*
X184608976Y-101090258D01*
X184452576Y-101073929D01*
X184308209Y-101048864D01*
X184193864Y-101016491D01*
X184116509Y-100984225D01*
X184051397Y-100950510D01*
X184026376Y-100928075D01*
X184029383Y-100913103D01*
X184049468Y-100854289D01*
X184082194Y-100773236D01*
X184138012Y-100643018D01*
X184304762Y-100727128D01*
X184367604Y-100755835D01*
X184561650Y-100807783D01*
X184751342Y-100804468D01*
X184930232Y-100745700D01*
X184968187Y-100724755D01*
X185100290Y-100612528D01*
X185190207Y-100460271D01*
X185237843Y-100268205D01*
X185243097Y-100036550D01*
X185238901Y-99986700D01*
X185195765Y-99788737D01*
X185109943Y-99625289D01*
X184977629Y-99488499D01*
X184956046Y-99471422D01*
X184897425Y-99431768D01*
X184838526Y-99409935D01*
X184760038Y-99400772D01*
X184642651Y-99399127D01*
X184633714Y-99399166D01*
X184494691Y-99405438D01*
X184391754Y-99424809D01*
X184304558Y-99461002D01*
X184189507Y-99522260D01*
X184104188Y-99404481D01*
X184069512Y-99355555D01*
X184041029Y-99305220D01*
X184042533Y-99274995D01*
X184070572Y-99248897D01*
X184119139Y-99222790D01*
X184206591Y-99185983D01*
X184311020Y-99148281D01*
X184330005Y-99142171D01*
X184551449Y-99099002D01*
X184774240Y-99102695D01*
G37*
G36*
X188512156Y-99413074D02*
G01*
X188250000Y-99413074D01*
X188250000Y-101073395D01*
X187900458Y-101073395D01*
X187900458Y-99121789D01*
X188512156Y-99121789D01*
X188512156Y-99413074D01*
G37*
G36*
X165995871Y-101073395D02*
G01*
X165995871Y-100061230D01*
X165668176Y-100047888D01*
X165497380Y-100036354D01*
X165310552Y-100006438D01*
X165159986Y-99956018D01*
X165033956Y-99880839D01*
X164920737Y-99776646D01*
X164907923Y-99762337D01*
X164805201Y-99607282D01*
X164740715Y-99430195D01*
X164713943Y-99242496D01*
X164715178Y-99220363D01*
X165087865Y-99220363D01*
X165115891Y-99372934D01*
X165189480Y-99509279D01*
X165303751Y-99618695D01*
X165453823Y-99690479D01*
X165536432Y-99709123D01*
X165667962Y-99726699D01*
X165797947Y-99733486D01*
X165997247Y-99733486D01*
X165989277Y-99231021D01*
X165981307Y-98728555D01*
X165843477Y-98719699D01*
X165694980Y-98719439D01*
X165506822Y-98747768D01*
X165344494Y-98805714D01*
X165217843Y-98889442D01*
X165136715Y-98995113D01*
X165110284Y-99062267D01*
X165087865Y-99220363D01*
X164715178Y-99220363D01*
X164724368Y-99055603D01*
X164771470Y-98880934D01*
X164854728Y-98729910D01*
X164973625Y-98613948D01*
X165001903Y-98594701D01*
X165108848Y-98530189D01*
X165216734Y-98482088D01*
X165337009Y-98447718D01*
X165481120Y-98424400D01*
X165660514Y-98409453D01*
X165886640Y-98400196D01*
X166374541Y-98386127D01*
X166374541Y-101073395D01*
X165995871Y-101073395D01*
G37*
G36*
X188139924Y-98416736D02*
G01*
X188209868Y-98478935D01*
X188246175Y-98564519D01*
X188242311Y-98657807D01*
X188191743Y-98743120D01*
X188138872Y-98779880D01*
X188046239Y-98802092D01*
X187955049Y-98787520D01*
X187887546Y-98736638D01*
X187854614Y-98670927D01*
X187845520Y-98570999D01*
X187878802Y-98481949D01*
X187947861Y-98418050D01*
X188046101Y-98393578D01*
X188139924Y-98416736D01*
G37*
G36*
X183754422Y-100242731D02*
G01*
X183743167Y-100369618D01*
X183724494Y-100466942D01*
X183693270Y-100556017D01*
X183644367Y-100658159D01*
X183631157Y-100682923D01*
X183506981Y-100855054D01*
X183350326Y-100987816D01*
X183171209Y-101072436D01*
X183157223Y-101076382D01*
X183038200Y-101093442D01*
X182891336Y-101095021D01*
X182737976Y-101082695D01*
X182599461Y-101058040D01*
X182497133Y-101022635D01*
X182492800Y-101020352D01*
X182338116Y-100910727D01*
X182200802Y-100761991D01*
X182098150Y-100592775D01*
X182070200Y-100525436D01*
X182050165Y-100454076D01*
X182038315Y-100368834D01*
X182032651Y-100254932D01*
X182031185Y-100098892D01*
X182381556Y-100098892D01*
X182381719Y-100127085D01*
X182385778Y-100256691D01*
X182398046Y-100352672D01*
X182422487Y-100435845D01*
X182463064Y-100527029D01*
X182474557Y-100549694D01*
X182554620Y-100672453D01*
X182640336Y-100751474D01*
X182641427Y-100752144D01*
X182741348Y-100789982D01*
X182870181Y-100809015D01*
X183001488Y-100807439D01*
X183108830Y-100783449D01*
X183197447Y-100728386D01*
X183287896Y-100619420D01*
X183352805Y-100476924D01*
X183392251Y-100311423D01*
X183406313Y-100133442D01*
X183395070Y-99953508D01*
X183358602Y-99782147D01*
X183296988Y-99629883D01*
X183210305Y-99507243D01*
X183098635Y-99424752D01*
X183080094Y-99416619D01*
X182948339Y-99385944D01*
X182805451Y-99388799D01*
X182672470Y-99422766D01*
X182570441Y-99485428D01*
X182497687Y-99571359D01*
X182430849Y-99708185D01*
X182393011Y-99881195D01*
X182381556Y-100098892D01*
X182031185Y-100098892D01*
X182031173Y-100097592D01*
X182031211Y-100056695D01*
X182033051Y-99913948D01*
X182039269Y-99810790D01*
X182052100Y-99732120D01*
X182073775Y-99662838D01*
X182106525Y-99587844D01*
X182161694Y-99482168D01*
X182282024Y-99318153D01*
X182426650Y-99203078D01*
X182603160Y-99131735D01*
X182819143Y-99098917D01*
X182991180Y-99098526D01*
X183175089Y-99133128D01*
X183336286Y-99211179D01*
X183488073Y-99337420D01*
X183517432Y-99368039D01*
X183637255Y-99530437D01*
X183715490Y-99715802D01*
X183754719Y-99932285D01*
X183756925Y-100133442D01*
X183757524Y-100188036D01*
X183754422Y-100242731D01*
G37*
G36*
X170187827Y-99113878D02*
G01*
X170359728Y-99185237D01*
X170503747Y-99307565D01*
X170598165Y-99415101D01*
X170598165Y-99121789D01*
X170947706Y-99121789D01*
X170947706Y-101073395D01*
X170598165Y-101073395D01*
X170598002Y-100468980D01*
X170597995Y-100457876D01*
X170596254Y-100260981D01*
X170591787Y-100081768D01*
X170585040Y-99930381D01*
X170576458Y-99816959D01*
X170566487Y-99751646D01*
X170550439Y-99708751D01*
X170496090Y-99612012D01*
X170426383Y-99522141D01*
X170412317Y-99507245D01*
X170339229Y-99441305D01*
X170267606Y-99407298D01*
X170170399Y-99391408D01*
X170133647Y-99388630D01*
X170045577Y-99391243D01*
X170003097Y-99409731D01*
X169991175Y-99425687D01*
X169947827Y-99439519D01*
X169897334Y-99395781D01*
X169839922Y-99294632D01*
X169808077Y-99219982D01*
X169795535Y-99153597D01*
X169821658Y-99115327D01*
X169892870Y-99097826D01*
X170015596Y-99093747D01*
X170187827Y-99113878D01*
G37*
G36*
X161257040Y-92427603D02*
G01*
X161280755Y-92433002D01*
X161374052Y-92459011D01*
X161477786Y-92493288D01*
X161579737Y-92531120D01*
X161667687Y-92567793D01*
X161729417Y-92598594D01*
X161752709Y-92618810D01*
X161748663Y-92627432D01*
X161720684Y-92668000D01*
X161674859Y-92727645D01*
X161629118Y-92787317D01*
X161461079Y-93058176D01*
X161338282Y-93349379D01*
X161261001Y-93654727D01*
X161229510Y-93968019D01*
X161244080Y-94283054D01*
X161304987Y-94593631D01*
X161412503Y-94893550D01*
X161566901Y-95176608D01*
X161695637Y-95373812D01*
X161561328Y-95431590D01*
X161501342Y-95455033D01*
X161381498Y-95494168D01*
X161265750Y-95524456D01*
X161174351Y-95541443D01*
X160890382Y-95558738D01*
X160601771Y-95523946D01*
X160372630Y-95456182D01*
X160127583Y-95335878D01*
X159907732Y-95175841D01*
X159717634Y-94981688D01*
X159561845Y-94759035D01*
X159444925Y-94513500D01*
X159371430Y-94250699D01*
X159345919Y-93976250D01*
X159351634Y-93842593D01*
X159399282Y-93572497D01*
X159491315Y-93320742D01*
X159622998Y-93091167D01*
X159789592Y-92887609D01*
X159986361Y-92713909D01*
X160208568Y-92573904D01*
X160451477Y-92471432D01*
X160710350Y-92410332D01*
X160980450Y-92394443D01*
X161257040Y-92427603D01*
G37*
G36*
X184332269Y-94811677D02*
G01*
X184545563Y-94832816D01*
X184726458Y-94870177D01*
X184828139Y-94902046D01*
X185050735Y-94993362D01*
X185242970Y-95103444D01*
X185400336Y-95228337D01*
X185518324Y-95364086D01*
X185592424Y-95506735D01*
X185618125Y-95652328D01*
X185617724Y-95671066D01*
X185585904Y-95821484D01*
X185506719Y-95966634D01*
X185385102Y-96102624D01*
X185225990Y-96225558D01*
X185034316Y-96331542D01*
X184815015Y-96416682D01*
X184573021Y-96477084D01*
X184441972Y-96497376D01*
X184189447Y-96514617D01*
X183942690Y-96504694D01*
X183705988Y-96470022D01*
X183483625Y-96413014D01*
X183279889Y-96336081D01*
X183099065Y-96241639D01*
X182945438Y-96132099D01*
X182823295Y-96009874D01*
X182736922Y-95877378D01*
X182690604Y-95737024D01*
X182688627Y-95591225D01*
X182735277Y-95442393D01*
X182807576Y-95327229D01*
X182942490Y-95188181D01*
X183119086Y-95062877D01*
X183331263Y-94955487D01*
X183572918Y-94870177D01*
X183677684Y-94845598D01*
X183880360Y-94818068D01*
X184104545Y-94806762D01*
X184332269Y-94811677D01*
G37*
G36*
X165920371Y-92465679D02*
G01*
X166181712Y-92558139D01*
X166425868Y-92699642D01*
X166649902Y-92889056D01*
X166754024Y-93002564D01*
X166919297Y-93238421D01*
X167035935Y-93492796D01*
X167102928Y-93762329D01*
X167119269Y-94043662D01*
X167083947Y-94333437D01*
X167040739Y-94493091D01*
X166931865Y-94743241D01*
X166781314Y-94971654D01*
X166594980Y-95172379D01*
X166378757Y-95339468D01*
X166138535Y-95466968D01*
X165880209Y-95548931D01*
X165706313Y-95575611D01*
X165451519Y-95581456D01*
X165200979Y-95551510D01*
X164973140Y-95487032D01*
X164899508Y-95458564D01*
X165004104Y-95326240D01*
X165165788Y-95090097D01*
X165306250Y-94802794D01*
X165400213Y-94501405D01*
X165447709Y-94191609D01*
X165448770Y-93879085D01*
X165403429Y-93569513D01*
X165311716Y-93268572D01*
X165173666Y-92981942D01*
X164989309Y-92715301D01*
X164987834Y-92713489D01*
X164930833Y-92641738D01*
X164890252Y-92587419D01*
X164874792Y-92562166D01*
X164884023Y-92551692D01*
X164934165Y-92529635D01*
X165017437Y-92504064D01*
X165121930Y-92477864D01*
X165235735Y-92453920D01*
X165346943Y-92435118D01*
X165443646Y-92424342D01*
X165644780Y-92423393D01*
X165920371Y-92465679D01*
G37*
G36*
X163387014Y-92443313D02*
G01*
X163659928Y-92476881D01*
X163918376Y-92557100D01*
X164157649Y-92679260D01*
X164373036Y-92838650D01*
X164559825Y-93030558D01*
X164713306Y-93250275D01*
X164828768Y-93493090D01*
X164901499Y-93754290D01*
X164926790Y-94029166D01*
X164907875Y-94264279D01*
X164841075Y-94527864D01*
X164730526Y-94775657D01*
X164580875Y-95001877D01*
X164396768Y-95200741D01*
X164182850Y-95366468D01*
X163943767Y-95493278D01*
X163684167Y-95575389D01*
X163522267Y-95602277D01*
X163236316Y-95610101D01*
X162959891Y-95566916D01*
X162696869Y-95473872D01*
X162451131Y-95332123D01*
X162226557Y-95142818D01*
X162122435Y-95029310D01*
X161957163Y-94793453D01*
X161840525Y-94539078D01*
X161773531Y-94269545D01*
X161757190Y-93988212D01*
X161792513Y-93698437D01*
X161860276Y-93469295D01*
X161980580Y-93224249D01*
X162140617Y-93004398D01*
X162334771Y-92814299D01*
X162557423Y-92658511D01*
X162802959Y-92541591D01*
X163065759Y-92468096D01*
X163340209Y-92442585D01*
X163387014Y-92443313D01*
G37*
G36*
X154126598Y-93342897D02*
G01*
X154399511Y-93376464D01*
X154657960Y-93456683D01*
X154897233Y-93578843D01*
X155112619Y-93738233D01*
X155299408Y-93930142D01*
X155452889Y-94149859D01*
X155568351Y-94392673D01*
X155641083Y-94653873D01*
X155666373Y-94928750D01*
X155647458Y-95163862D01*
X155580658Y-95427448D01*
X155470110Y-95675241D01*
X155320459Y-95901460D01*
X155136351Y-96100324D01*
X154922433Y-96266052D01*
X154683351Y-96392861D01*
X154423750Y-96474972D01*
X154261850Y-96501860D01*
X153975900Y-96509684D01*
X153699474Y-96466499D01*
X153436452Y-96373456D01*
X153190715Y-96231706D01*
X152966141Y-96042401D01*
X152862019Y-95928893D01*
X152696746Y-95693036D01*
X152580108Y-95438661D01*
X152513114Y-95169128D01*
X152496774Y-94887795D01*
X152532096Y-94598020D01*
X152599860Y-94368879D01*
X152720164Y-94123832D01*
X152880201Y-93903981D01*
X153074354Y-93713883D01*
X153297007Y-93558094D01*
X153542542Y-93441174D01*
X153805343Y-93367679D01*
X154079792Y-93342168D01*
X154126598Y-93342897D01*
G37*
G36*
X190671667Y-97071875D02*
G01*
X158899756Y-97071875D01*
X158890868Y-97634114D01*
X158881980Y-98196354D01*
X158777249Y-98380732D01*
X158666103Y-98550086D01*
X158473552Y-98762693D01*
X158241948Y-98941803D01*
X157973427Y-99086107D01*
X157670122Y-99194298D01*
X157334167Y-99265069D01*
X157325879Y-99266288D01*
X157219839Y-99282137D01*
X157128055Y-99296277D01*
X157069584Y-99305778D01*
X157032829Y-99309859D01*
X156935352Y-99313260D01*
X156803864Y-99312683D01*
X156650121Y-99308661D01*
X156485880Y-99301725D01*
X156322899Y-99292409D01*
X156172935Y-99281245D01*
X156047746Y-99268764D01*
X155959090Y-99255500D01*
X155747912Y-99205330D01*
X155481924Y-99118365D01*
X155246794Y-99012887D01*
X155046190Y-98891593D01*
X154883781Y-98757179D01*
X154763232Y-98612343D01*
X154688214Y-98459780D01*
X154662392Y-98302187D01*
X154678192Y-98176282D01*
X154741865Y-98022887D01*
X154850293Y-97879136D01*
X154999127Y-97746784D01*
X155184017Y-97627587D01*
X155400614Y-97523301D01*
X155644570Y-97435682D01*
X155911534Y-97366485D01*
X156197159Y-97317467D01*
X156497094Y-97290383D01*
X156806991Y-97286988D01*
X157122500Y-97309039D01*
X157226008Y-97323780D01*
X157372188Y-97350166D01*
X157531554Y-97383268D01*
X157684173Y-97419177D01*
X157816037Y-97451500D01*
X157923790Y-97474660D01*
X157998558Y-97485317D01*
X158049730Y-97484757D01*
X158086694Y-97474263D01*
X158090584Y-97472404D01*
X158157604Y-97418036D01*
X158220965Y-97333024D01*
X158268157Y-97237545D01*
X158286667Y-97151775D01*
X158286667Y-97071875D01*
X126864384Y-97071874D01*
X95442101Y-97071874D01*
X95340215Y-97014611D01*
X95333478Y-97010751D01*
X95205838Y-96908606D01*
X95085019Y-96756584D01*
X94971997Y-96557273D01*
X94867749Y-96313262D01*
X94773251Y-96027138D01*
X94689482Y-95701491D01*
X94617416Y-95338909D01*
X94558032Y-94941979D01*
X94540816Y-94775343D01*
X94525093Y-94538925D01*
X94514488Y-94271891D01*
X94509000Y-93986138D01*
X94508897Y-93905636D01*
X105346922Y-93905636D01*
X105375653Y-94139010D01*
X105450554Y-94364156D01*
X105568709Y-94577247D01*
X105727198Y-94774455D01*
X105923104Y-94951952D01*
X106153510Y-95105912D01*
X106415496Y-95232506D01*
X106706146Y-95327908D01*
X106789768Y-95346516D01*
X106978565Y-95374280D01*
X107189046Y-95390955D01*
X107403018Y-95395861D01*
X107602290Y-95388317D01*
X107768671Y-95367643D01*
X108046941Y-95298650D01*
X108329020Y-95192028D01*
X108581399Y-95056850D01*
X108801177Y-94896530D01*
X108985454Y-94714479D01*
X109131331Y-94514111D01*
X109235907Y-94298839D01*
X109296281Y-94072074D01*
X109308611Y-93853916D01*
X132632499Y-93853916D01*
X132633400Y-94175530D01*
X132682529Y-94489471D01*
X132778283Y-94791004D01*
X132919064Y-95075392D01*
X133103270Y-95337899D01*
X133329302Y-95573790D01*
X133595558Y-95778327D01*
X133667045Y-95823504D01*
X133912934Y-95951891D01*
X134165362Y-96039270D01*
X134436558Y-96089136D01*
X134738750Y-96104981D01*
X134829868Y-96103695D01*
X135121859Y-96078390D01*
X135386383Y-96018056D01*
X135635668Y-95919200D01*
X135881943Y-95778327D01*
X136083605Y-95629405D01*
X136322625Y-95397027D01*
X136521622Y-95130637D01*
X136679454Y-94831833D01*
X136794977Y-94502215D01*
X136819862Y-94374790D01*
X136836613Y-94201938D01*
X136842499Y-94010846D01*
X136839114Y-93880374D01*
X140331874Y-93880374D01*
X140332240Y-94010846D01*
X140332775Y-94201988D01*
X140381904Y-94515930D01*
X140477658Y-94817463D01*
X140618439Y-95101851D01*
X140802645Y-95364358D01*
X141028677Y-95600248D01*
X141294933Y-95804785D01*
X141541552Y-95943055D01*
X141843433Y-96057786D01*
X142158824Y-96124009D01*
X142482232Y-96141066D01*
X142808161Y-96108298D01*
X143131116Y-96025044D01*
X143235422Y-95986470D01*
X143345733Y-95940046D01*
X143430320Y-95898599D01*
X143543121Y-95835554D01*
X143721517Y-95950336D01*
X143822927Y-96011105D01*
X144104097Y-96139744D01*
X144403217Y-96225121D01*
X144712465Y-96267067D01*
X145024018Y-96265415D01*
X145330056Y-96219995D01*
X145622755Y-96130638D01*
X145894292Y-95997177D01*
X146049655Y-95903622D01*
X146287796Y-95984358D01*
X146455992Y-96036887D01*
X146687288Y-96089963D01*
X146907035Y-96113839D01*
X147132875Y-96111164D01*
X147271256Y-96098550D01*
X147588239Y-96037355D01*
X147881914Y-95931298D01*
X148158609Y-95778327D01*
X148360272Y-95629405D01*
X148599291Y-95397027D01*
X148798289Y-95130637D01*
X148956121Y-94831833D01*
X149071643Y-94502215D01*
X149096529Y-94374790D01*
X149113279Y-94201938D01*
X149119166Y-94010846D01*
X149114189Y-93819020D01*
X149098348Y-93643970D01*
X149071643Y-93503201D01*
X148959665Y-93182886D01*
X148804286Y-92885758D01*
X148610194Y-92621258D01*
X148380300Y-92392276D01*
X148117515Y-92201702D01*
X147824749Y-92052426D01*
X147504912Y-91947340D01*
X147332917Y-91904896D01*
X147332917Y-90563125D01*
X151460417Y-90563125D01*
X151460417Y-91905682D01*
X151331330Y-91922806D01*
X151249741Y-91936291D01*
X150999756Y-92007268D01*
X150747131Y-92119470D01*
X150503121Y-92266428D01*
X150278980Y-92441672D01*
X150085965Y-92638730D01*
X150000904Y-92746146D01*
X149827751Y-93020752D01*
X149701551Y-93310562D01*
X149621557Y-93610577D01*
X149587021Y-93915799D01*
X149590188Y-94010846D01*
X149597197Y-94221230D01*
X149651338Y-94521873D01*
X149748695Y-94812729D01*
X149888522Y-95088801D01*
X150070072Y-95345090D01*
X150292597Y-95576598D01*
X150555350Y-95778327D01*
X150619313Y-95818367D01*
X150889700Y-95953039D01*
X151180875Y-96049065D01*
X151481822Y-96104226D01*
X151781523Y-96116306D01*
X152068959Y-96083084D01*
X152267396Y-96042620D01*
X152320313Y-96111626D01*
X152395008Y-96205827D01*
X152623550Y-96454658D01*
X152863131Y-96655602D01*
X153119449Y-96812347D01*
X153398203Y-96928582D01*
X153705088Y-97007994D01*
X153748061Y-97015788D01*
X154066964Y-97044024D01*
X154383681Y-97021953D01*
X154692577Y-96951729D01*
X154988012Y-96835502D01*
X155264350Y-96675425D01*
X155515955Y-96473649D01*
X155737187Y-96232326D01*
X155887203Y-96041008D01*
X156154279Y-96057295D01*
X156343441Y-96060856D01*
X156673706Y-96027873D01*
X156988988Y-95946422D01*
X157285017Y-95818936D01*
X157557521Y-95647846D01*
X157802230Y-95435586D01*
X158014871Y-95184587D01*
X158191175Y-94897283D01*
X158286667Y-94711647D01*
X158286667Y-97071875D01*
X158895209Y-97071875D01*
X158896587Y-95821718D01*
X158897966Y-94571562D01*
X158959252Y-94736511D01*
X159012509Y-94863881D01*
X159159852Y-95126224D01*
X159348613Y-95371958D01*
X159570998Y-95590208D01*
X159573827Y-95592605D01*
X159835928Y-95781055D01*
X160120742Y-95925294D01*
X160422020Y-96024700D01*
X160733515Y-96078653D01*
X161048978Y-96086531D01*
X161362162Y-96047713D01*
X161666817Y-95961576D01*
X161956697Y-95827500D01*
X162097777Y-95747879D01*
X162272197Y-95853077D01*
X162278804Y-95857038D01*
X162519385Y-95975922D01*
X162789032Y-96067000D01*
X163069549Y-96125295D01*
X163342741Y-96145833D01*
X163430489Y-96143266D01*
X163666776Y-96115723D01*
X163909868Y-96061924D01*
X164140282Y-95986772D01*
X164338537Y-95895171D01*
X164455949Y-95829548D01*
X164565645Y-95885511D01*
X164774713Y-95978439D01*
X165084280Y-96070099D01*
X165398652Y-96112926D01*
X165712665Y-96108286D01*
X166021156Y-96057551D01*
X166318961Y-95962088D01*
X166600918Y-95823268D01*
X166861862Y-95642460D01*
X167096632Y-95421033D01*
X167300063Y-95160356D01*
X167363802Y-95059750D01*
X167489679Y-94816220D01*
X167574898Y-94567513D01*
X167623249Y-94300664D01*
X167638524Y-94002708D01*
X167636056Y-93876864D01*
X167607777Y-93593132D01*
X167544880Y-93335231D01*
X167443572Y-93090196D01*
X167300063Y-92845060D01*
X167219148Y-92730855D01*
X166998414Y-92480721D01*
X166745647Y-92272655D01*
X166460755Y-92106597D01*
X166143643Y-91982491D01*
X165794219Y-91900276D01*
X165695000Y-91883643D01*
X165695000Y-90563125D01*
X170775000Y-90563125D01*
X170775000Y-91906491D01*
X170655702Y-91924381D01*
X170607600Y-91932494D01*
X170353765Y-92002407D01*
X170097299Y-92114667D01*
X169849691Y-92262594D01*
X169622431Y-92439508D01*
X169427007Y-92638730D01*
X169341946Y-92746146D01*
X169168793Y-93020752D01*
X169042593Y-93310562D01*
X168962598Y-93610577D01*
X168928063Y-93915799D01*
X168930959Y-94002708D01*
X168938239Y-94221230D01*
X168992379Y-94521873D01*
X169089737Y-94812729D01*
X169229564Y-95088801D01*
X169411114Y-95345090D01*
X169633639Y-95576598D01*
X169896392Y-95778327D01*
X169967879Y-95823504D01*
X170213767Y-95951891D01*
X170466195Y-96039270D01*
X170737391Y-96089136D01*
X171039584Y-96104981D01*
X171062660Y-96104882D01*
X171401346Y-96078617D01*
X171715783Y-96005510D01*
X172007362Y-95884995D01*
X172277473Y-95716505D01*
X172527507Y-95499474D01*
X172644056Y-95373118D01*
X172835899Y-95110965D01*
X172981815Y-94831657D01*
X173082473Y-94540001D01*
X173138543Y-94240806D01*
X173150692Y-93938881D01*
X173119589Y-93639033D01*
X173045903Y-93346072D01*
X172930302Y-93064805D01*
X172773456Y-92800042D01*
X172576033Y-92556590D01*
X172338701Y-92339259D01*
X172062129Y-92152855D01*
X172047036Y-92144377D01*
X171896491Y-92071710D01*
X171725187Y-92005499D01*
X171554747Y-91953334D01*
X171406796Y-91922806D01*
X171277709Y-91905682D01*
X171277709Y-90563125D01*
X176013750Y-90563125D01*
X176013750Y-91232293D01*
X176013751Y-91901462D01*
X175832613Y-91943972D01*
X175813625Y-91948513D01*
X175493863Y-92052392D01*
X175201946Y-92200206D01*
X174940332Y-92389525D01*
X174711479Y-92617918D01*
X174517844Y-92882954D01*
X174361887Y-93182201D01*
X174246064Y-93513229D01*
X174241803Y-93529731D01*
X174218923Y-93665106D01*
X174205479Y-93833071D01*
X174203169Y-93938881D01*
X174201471Y-94016692D01*
X174206899Y-94199040D01*
X174221763Y-94363182D01*
X174246064Y-94492187D01*
X174336266Y-94764192D01*
X174482584Y-95068360D01*
X174668201Y-95337772D01*
X174894184Y-95573928D01*
X175161600Y-95778327D01*
X175233087Y-95823504D01*
X175478975Y-95951891D01*
X175731404Y-96039270D01*
X176002600Y-96089136D01*
X176304792Y-96104981D01*
X176422695Y-96103475D01*
X176615161Y-96091002D01*
X176785184Y-96062789D01*
X176952046Y-96015101D01*
X177135028Y-95944206D01*
X177228054Y-95905997D01*
X177302054Y-95883947D01*
X177365239Y-95882965D01*
X177437394Y-95903051D01*
X177538306Y-95944206D01*
X177638629Y-95984960D01*
X177810653Y-96043070D01*
X177976792Y-96079954D01*
X178156328Y-96099346D01*
X178368542Y-96104981D01*
X178459659Y-96103695D01*
X178751650Y-96078390D01*
X179016174Y-96018056D01*
X179265460Y-95919200D01*
X179511734Y-95778327D01*
X179558199Y-95744014D01*
X182159430Y-95744014D01*
X182201928Y-95960967D01*
X182292311Y-96171124D01*
X182430717Y-96369542D01*
X182617282Y-96551277D01*
X182675793Y-96595992D01*
X182851587Y-96707649D01*
X183055222Y-96812163D01*
X183268945Y-96900960D01*
X183475000Y-96965467D01*
X183529243Y-96977404D01*
X183674649Y-97000044D01*
X183848564Y-97018365D01*
X184034866Y-97031379D01*
X184217433Y-97038097D01*
X184380144Y-97037533D01*
X184506875Y-97028697D01*
X184508436Y-97028496D01*
X184759624Y-96980220D01*
X185017383Y-96902348D01*
X185266914Y-96800893D01*
X185493417Y-96681865D01*
X185682094Y-96551277D01*
X185840723Y-96400338D01*
X185983768Y-96207667D01*
X186082514Y-96000345D01*
X186134981Y-95784170D01*
X186139187Y-95564939D01*
X186093151Y-95348449D01*
X186058902Y-95253572D01*
X186012992Y-95153303D01*
X185954069Y-95057886D01*
X185870255Y-94945867D01*
X185861121Y-94934512D01*
X185743220Y-94815040D01*
X185589748Y-94694596D01*
X185415365Y-94582681D01*
X185234729Y-94488793D01*
X185062500Y-94422431D01*
X185049397Y-94417857D01*
X185040800Y-94411393D01*
X185049686Y-94405729D01*
X185079275Y-94400775D01*
X185132789Y-94396440D01*
X185213449Y-94392633D01*
X185324477Y-94389263D01*
X185469093Y-94386239D01*
X185650520Y-94383470D01*
X185871977Y-94380865D01*
X186136688Y-94378333D01*
X186447872Y-94375783D01*
X186808750Y-94373125D01*
X187060722Y-94371312D01*
X187387021Y-94368822D01*
X187666858Y-94366411D01*
X187904067Y-94363957D01*
X188102481Y-94361335D01*
X188265931Y-94358423D01*
X188398250Y-94355097D01*
X188503272Y-94351234D01*
X188584828Y-94346710D01*
X188646752Y-94341403D01*
X188692876Y-94335188D01*
X188727033Y-94327944D01*
X188753055Y-94319545D01*
X188774775Y-94309870D01*
X188814307Y-94288342D01*
X188927660Y-94193727D01*
X188995475Y-94072198D01*
X189018021Y-93923333D01*
X189012717Y-93825088D01*
X188991372Y-93750813D01*
X188946754Y-93680257D01*
X188872508Y-93604161D01*
X188737333Y-93523646D01*
X188577782Y-93480276D01*
X188475770Y-93466593D01*
X188707208Y-93352858D01*
X188737496Y-93337691D01*
X188984424Y-93189447D01*
X189188656Y-93020745D01*
X189349272Y-92835434D01*
X189465351Y-92637365D01*
X189535973Y-92430385D01*
X189560217Y-92218345D01*
X189537163Y-92005094D01*
X189465890Y-91794480D01*
X189345478Y-91590353D01*
X189175007Y-91396562D01*
X189005562Y-91254805D01*
X188782588Y-91116335D01*
X188522081Y-90999769D01*
X188217449Y-90901702D01*
X188170487Y-90889446D01*
X188083579Y-90870982D01*
X187991215Y-90858388D01*
X187881538Y-90850648D01*
X187742690Y-90846749D01*
X187562813Y-90845675D01*
X187362653Y-90848092D01*
X187176678Y-90857979D01*
X187016137Y-90877852D01*
X186866681Y-90910196D01*
X186713956Y-90957497D01*
X186543613Y-91022242D01*
X186287962Y-91145540D01*
X186063058Y-91296541D01*
X185877449Y-91469032D01*
X185733405Y-91659330D01*
X185633195Y-91863748D01*
X185579090Y-92078601D01*
X185573358Y-92300203D01*
X185618270Y-92524869D01*
X185656692Y-92628580D01*
X185775778Y-92840454D01*
X185943223Y-93032072D01*
X186159328Y-93203744D01*
X186424394Y-93355780D01*
X186661809Y-93472436D01*
X184889811Y-93479603D01*
X184755319Y-93480154D01*
X184423250Y-93481619D01*
X184138705Y-93483123D01*
X183897741Y-93484789D01*
X183696411Y-93486736D01*
X183530771Y-93489085D01*
X183396876Y-93491956D01*
X183290781Y-93495469D01*
X183208542Y-93499746D01*
X183146212Y-93504907D01*
X183099849Y-93511072D01*
X183065505Y-93518361D01*
X183039238Y-93526896D01*
X183017101Y-93536796D01*
X182977569Y-93558323D01*
X182864216Y-93652939D01*
X182796401Y-93774467D01*
X182773855Y-93923333D01*
X182778580Y-94010846D01*
X182779159Y-94021577D01*
X182800504Y-94095853D01*
X182845122Y-94166409D01*
X182917672Y-94241556D01*
X183057236Y-94323404D01*
X183233133Y-94369498D01*
X183355938Y-94387121D01*
X183236875Y-94422815D01*
X183064926Y-94488286D01*
X182863559Y-94593787D01*
X182667845Y-94724716D01*
X182660429Y-94730325D01*
X182465553Y-94907108D01*
X182317878Y-95101812D01*
X182217542Y-95309493D01*
X182164680Y-95525209D01*
X182159430Y-95744014D01*
X179558199Y-95744014D01*
X179713397Y-95629405D01*
X179952416Y-95397027D01*
X180151414Y-95130637D01*
X180309246Y-94831833D01*
X180424768Y-94502215D01*
X180449654Y-94374790D01*
X180466404Y-94201938D01*
X180472291Y-94010846D01*
X180467314Y-93819020D01*
X180451473Y-93643970D01*
X180424768Y-93503201D01*
X180409080Y-93448211D01*
X180287912Y-93127401D01*
X180126327Y-92837169D01*
X179927673Y-92580304D01*
X179695295Y-92359599D01*
X179432540Y-92177845D01*
X179142756Y-92037832D01*
X178829289Y-91942352D01*
X178495486Y-91894196D01*
X178422848Y-91890875D01*
X178164475Y-91901891D01*
X177898962Y-91944273D01*
X177644991Y-92014299D01*
X177421247Y-92108246D01*
X177402387Y-92117817D01*
X177350708Y-92137045D01*
X177304344Y-92132053D01*
X177237586Y-92101961D01*
X177230472Y-92098436D01*
X177105755Y-92045622D01*
X176953784Y-91993220D01*
X176798034Y-91948674D01*
X176661980Y-91919429D01*
X176529688Y-91898069D01*
X176515550Y-90563125D01*
X176516459Y-90563125D01*
X182945834Y-90563125D01*
X182945834Y-89954583D01*
X176516459Y-89954583D01*
X176516459Y-90563125D01*
X176515550Y-90563125D01*
X176013750Y-90563125D01*
X176013750Y-89954583D01*
X171277709Y-89954583D01*
X171277709Y-90563125D01*
X170775000Y-90563125D01*
X170775000Y-89954583D01*
X165695000Y-89954583D01*
X165695000Y-90563125D01*
X165192292Y-90563125D01*
X165192292Y-89954583D01*
X161170625Y-89954583D01*
X161170625Y-90563125D01*
X160667917Y-90563125D01*
X160667917Y-89954583D01*
X157440000Y-89954583D01*
X157440000Y-90563125D01*
X157962553Y-90566539D01*
X158069669Y-90567342D01*
X158213897Y-90569055D01*
X158310914Y-90571437D01*
X158364326Y-90574777D01*
X158377742Y-90579362D01*
X158354765Y-90585481D01*
X158299004Y-90593421D01*
X158276011Y-90596542D01*
X158152055Y-90617841D01*
X158009820Y-90647541D01*
X157875724Y-90680225D01*
X157813399Y-90696575D01*
X157716817Y-90719051D01*
X157650612Y-90727756D01*
X157601213Y-90723896D01*
X157555051Y-90708674D01*
X157551391Y-90707100D01*
X157489475Y-90666476D01*
X157453996Y-90618457D01*
X157443721Y-90595386D01*
X157421703Y-90577973D01*
X157378633Y-90568258D01*
X157303892Y-90564041D01*
X157186863Y-90563125D01*
X156937292Y-90563125D01*
X156937292Y-89954583D01*
X156461042Y-89954583D01*
X156461042Y-90563125D01*
X155958334Y-90563125D01*
X155958334Y-89954583D01*
X151963125Y-89954583D01*
X151963125Y-90563125D01*
X151460417Y-90563125D01*
X151460417Y-89954583D01*
X147332917Y-89954583D01*
X147332917Y-90563125D01*
X146830209Y-90563125D01*
X146830209Y-89954583D01*
X144773073Y-89954531D01*
X142715938Y-89954479D01*
X142724154Y-90258802D01*
X142732371Y-90563125D01*
X142227352Y-90563125D01*
X142213230Y-91922637D01*
X142041250Y-91955346D01*
X141793027Y-92018645D01*
X141493947Y-92140910D01*
X141218592Y-92305952D01*
X140971848Y-92509604D01*
X140758599Y-92747702D01*
X140583732Y-93016077D01*
X140452131Y-93310565D01*
X140380799Y-93555823D01*
X140331874Y-93880374D01*
X136839114Y-93880374D01*
X136837522Y-93819020D01*
X136821681Y-93643970D01*
X136794977Y-93503201D01*
X136789544Y-93483605D01*
X136672738Y-93159688D01*
X136514626Y-92865438D01*
X136318250Y-92603849D01*
X136086652Y-92377914D01*
X135822871Y-92190627D01*
X135529950Y-92044982D01*
X135210930Y-91943972D01*
X135029792Y-91901462D01*
X135029792Y-90563125D01*
X134527992Y-90563125D01*
X134520924Y-91229652D01*
X134513855Y-91896180D01*
X134341875Y-91928888D01*
X134093650Y-91992187D01*
X133794570Y-92114452D01*
X133519216Y-92279494D01*
X133272472Y-92483147D01*
X133059224Y-92721244D01*
X132884357Y-92989619D01*
X132752756Y-93284107D01*
X132681424Y-93529364D01*
X132635015Y-93837229D01*
X132632499Y-93853916D01*
X109308611Y-93853916D01*
X109309554Y-93837229D01*
X109272825Y-93597718D01*
X109272339Y-93595856D01*
X109215245Y-93422254D01*
X109136299Y-93266833D01*
X109026981Y-93115699D01*
X108878772Y-92954955D01*
X108873747Y-92949945D01*
X108757786Y-92839825D01*
X108654963Y-92756863D01*
X108546273Y-92687294D01*
X108412709Y-92617349D01*
X108275007Y-92552582D01*
X108098568Y-92481537D01*
X107930901Y-92432093D01*
X107756743Y-92400910D01*
X107560835Y-92384649D01*
X107327917Y-92379971D01*
X107163044Y-92382110D01*
X106956652Y-92394459D01*
X106776967Y-92420722D01*
X106608837Y-92464208D01*
X106437109Y-92528224D01*
X106246628Y-92616080D01*
X106000611Y-92760933D01*
X105784859Y-92937377D01*
X105606997Y-93138597D01*
X105471803Y-93359178D01*
X105384055Y-93593703D01*
X105367280Y-93667862D01*
X105346922Y-93905636D01*
X94508897Y-93905636D01*
X94508627Y-93693564D01*
X94513369Y-93406067D01*
X94523223Y-93135546D01*
X94538189Y-92893897D01*
X94558265Y-92693020D01*
X94600361Y-92400831D01*
X94669779Y-92026229D01*
X94751306Y-91688381D01*
X94843982Y-91389916D01*
X94946848Y-91133466D01*
X95058942Y-90921659D01*
X95179305Y-90757127D01*
X95306975Y-90642500D01*
X95404560Y-90576354D01*
X125641450Y-90563125D01*
X126430834Y-90563125D01*
X134527084Y-90563125D01*
X134527084Y-89954583D01*
X135029792Y-89954583D01*
X135029792Y-90563125D01*
X142223255Y-90563125D01*
X142231472Y-90258802D01*
X142239688Y-89954479D01*
X135029792Y-89954583D01*
X134527084Y-89954583D01*
X126430834Y-89954583D01*
X126430834Y-90563125D01*
X125641450Y-90563125D01*
X125954584Y-90562988D01*
X125954584Y-90072263D01*
X125954740Y-89986726D01*
X125957047Y-89809702D01*
X125963514Y-89675141D01*
X125975915Y-89575622D01*
X125996028Y-89503725D01*
X126025628Y-89452029D01*
X126066492Y-89413115D01*
X126120396Y-89379562D01*
X126120608Y-89379447D01*
X126128437Y-89376113D01*
X126140095Y-89372939D01*
X126156874Y-89369922D01*
X126180066Y-89367055D01*
X126210962Y-89364336D01*
X126250855Y-89361758D01*
X126301036Y-89359317D01*
X126362796Y-89357009D01*
X126437428Y-89354830D01*
X126526224Y-89352773D01*
X126630475Y-89350836D01*
X126751472Y-89349013D01*
X126890509Y-89347299D01*
X127048876Y-89345691D01*
X127227865Y-89344182D01*
X127428768Y-89342770D01*
X127652877Y-89341449D01*
X127901484Y-89340214D01*
X128175880Y-89339061D01*
X128477357Y-89337985D01*
X128807208Y-89336982D01*
X129166722Y-89336047D01*
X129557194Y-89335176D01*
X129979914Y-89334363D01*
X130436173Y-89333604D01*
X130927265Y-89332895D01*
X131454480Y-89332231D01*
X132019110Y-89331607D01*
X132622448Y-89331019D01*
X133265784Y-89330462D01*
X133950412Y-89329931D01*
X134677621Y-89329422D01*
X135448705Y-89328930D01*
X136264955Y-89328451D01*
X137127663Y-89327979D01*
X138038120Y-89327511D01*
X138997618Y-89327042D01*
X140007450Y-89326567D01*
X141068907Y-89326081D01*
X155417379Y-89319583D01*
X156434584Y-89319583D01*
X166978230Y-89319675D01*
X166970144Y-88975671D01*
X166962059Y-88631666D01*
X156434584Y-88631666D01*
X156434584Y-89319583D01*
X155417379Y-89319583D01*
X155931875Y-89319350D01*
X155932266Y-88810144D01*
X155932706Y-88673014D01*
X155935349Y-88508212D01*
X155941861Y-88384204D01*
X155953914Y-88293740D01*
X155973181Y-88229575D01*
X156001335Y-88184458D01*
X156040048Y-88151144D01*
X156090994Y-88122384D01*
X156097086Y-88119581D01*
X156111963Y-88114460D01*
X156132641Y-88109755D01*
X156161262Y-88105451D01*
X156199968Y-88101529D01*
X156250900Y-88097971D01*
X156316200Y-88094760D01*
X156398010Y-88091878D01*
X156498470Y-88089308D01*
X156619724Y-88087032D01*
X156763911Y-88085032D01*
X156933174Y-88083290D01*
X157129655Y-88081789D01*
X157355495Y-88080511D01*
X157612835Y-88079439D01*
X157903818Y-88078555D01*
X158230584Y-88077841D01*
X158595276Y-88077279D01*
X159000035Y-88076852D01*
X159447003Y-88076543D01*
X159938321Y-88076333D01*
X160476131Y-88076205D01*
X161062574Y-88076141D01*
X161699792Y-88076123D01*
X162034067Y-88076128D01*
X162644897Y-88076167D01*
X163206055Y-88076261D01*
X163719681Y-88076430D01*
X164187916Y-88076689D01*
X164612904Y-88077056D01*
X164996784Y-88077550D01*
X165341698Y-88078188D01*
X165649789Y-88078987D01*
X165923198Y-88079966D01*
X166164066Y-88081142D01*
X166374536Y-88082532D01*
X166556748Y-88084155D01*
X166712844Y-88086027D01*
X166844966Y-88088167D01*
X166955255Y-88090593D01*
X167045854Y-88093321D01*
X167118903Y-88096370D01*
X167176544Y-88099757D01*
X167220919Y-88103500D01*
X167254170Y-88107616D01*
X167278438Y-88112124D01*
X167295864Y-88117041D01*
X167308591Y-88122384D01*
X167346772Y-88142922D01*
X167389369Y-88174078D01*
X167420529Y-88214501D01*
X167441868Y-88271461D01*
X167454998Y-88352228D01*
X167461534Y-88464072D01*
X167463091Y-88614263D01*
X167461282Y-88810072D01*
X167454480Y-89319207D01*
X167996055Y-89319675D01*
X175325834Y-89326009D01*
X175556084Y-89326209D01*
X176306560Y-89326876D01*
X177006426Y-89327530D01*
X177657467Y-89328184D01*
X178261467Y-89328850D01*
X178820209Y-89329539D01*
X179335476Y-89330264D01*
X179809054Y-89331037D01*
X180242725Y-89331870D01*
X180638272Y-89332775D01*
X180997481Y-89333763D01*
X181322135Y-89334847D01*
X181614016Y-89336039D01*
X181874910Y-89337350D01*
X182106600Y-89338794D01*
X182310870Y-89340381D01*
X182489503Y-89342124D01*
X182644283Y-89344035D01*
X182776994Y-89346125D01*
X182889420Y-89348408D01*
X182983344Y-89350894D01*
X183060550Y-89353596D01*
X183122822Y-89356526D01*
X183171944Y-89359696D01*
X183209699Y-89363117D01*
X183237872Y-89366803D01*
X183258245Y-89370764D01*
X183272603Y-89375013D01*
X183282730Y-89379562D01*
X183306296Y-89393011D01*
X183354690Y-89427843D01*
X183390767Y-89471046D01*
X183416302Y-89530041D01*
X183433071Y-89612247D01*
X183442850Y-89725084D01*
X183447415Y-89875973D01*
X183448542Y-90072331D01*
X183448542Y-90563125D01*
X190671667Y-90563125D01*
X190671667Y-97071875D01*
G37*
G36*
X156937292Y-90907933D02*
G01*
X156937449Y-90952957D01*
X156942384Y-91131979D01*
X156954305Y-91259909D01*
X156973310Y-91337881D01*
X157016179Y-91414357D01*
X157108043Y-91527219D01*
X157227247Y-91639968D01*
X157361281Y-91741120D01*
X157497633Y-91819189D01*
X157548675Y-91842265D01*
X157801743Y-91933951D01*
X158078073Y-92001607D01*
X158370396Y-92045744D01*
X158671444Y-92066875D01*
X158973949Y-92065512D01*
X159270641Y-92042168D01*
X159554252Y-91997356D01*
X159817514Y-91931587D01*
X160053157Y-91845375D01*
X160253914Y-91739231D01*
X160412515Y-91613669D01*
X160490940Y-91520890D01*
X160550829Y-91395915D01*
X160557806Y-91271130D01*
X160511870Y-91146305D01*
X160413021Y-91021210D01*
X160381794Y-90991970D01*
X160231903Y-90884982D01*
X160040328Y-90788283D01*
X159815693Y-90705196D01*
X159566624Y-90639042D01*
X159301747Y-90593145D01*
X159261698Y-90586395D01*
X159258222Y-90580724D01*
X159294884Y-90576147D01*
X159374239Y-90572548D01*
X159498841Y-90569813D01*
X159671247Y-90567826D01*
X159894011Y-90566471D01*
X160667917Y-90563125D01*
X160667917Y-91880033D01*
X160548618Y-91897923D01*
X160362996Y-91937956D01*
X160100744Y-92033878D01*
X159846313Y-92170058D01*
X159607208Y-92340205D01*
X159390936Y-92538026D01*
X159205002Y-92757228D01*
X159056913Y-92991518D01*
X158954176Y-93234604D01*
X158908438Y-93379312D01*
X158901345Y-92751739D01*
X158894251Y-92124166D01*
X158649990Y-92123805D01*
X158599202Y-92123399D01*
X158488224Y-92120236D01*
X158398635Y-92114651D01*
X158346198Y-92107490D01*
X158286667Y-92091536D01*
X158286667Y-93187935D01*
X158191175Y-93002300D01*
X158156168Y-92937307D01*
X157986215Y-92681452D01*
X157780304Y-92448839D01*
X157546718Y-92246868D01*
X157293736Y-92082939D01*
X157029642Y-91964452D01*
X157024946Y-91962829D01*
X156943475Y-91937976D01*
X156837643Y-91909687D01*
X156722512Y-91881511D01*
X156613144Y-91856994D01*
X156524601Y-91839683D01*
X156471944Y-91833125D01*
X156469812Y-91820850D01*
X156466986Y-91763206D01*
X156464572Y-91664882D01*
X156462694Y-91533106D01*
X156461476Y-91375110D01*
X156461042Y-91198125D01*
X156461042Y-90563125D01*
X156937292Y-90563125D01*
X156937292Y-90907933D01*
G37*
G36*
X134785556Y-92416855D02*
G01*
X135058469Y-92450422D01*
X135316918Y-92530642D01*
X135556191Y-92652801D01*
X135771578Y-92812191D01*
X135958367Y-93004100D01*
X136111848Y-93223817D01*
X136227309Y-93466631D01*
X136300041Y-93727832D01*
X136325332Y-94002708D01*
X136306417Y-94237820D01*
X136239617Y-94501406D01*
X136129068Y-94749199D01*
X135979417Y-94975418D01*
X135795309Y-95174282D01*
X135581391Y-95340010D01*
X135342309Y-95466820D01*
X135082709Y-95548931D01*
X134920808Y-95575818D01*
X134634858Y-95583642D01*
X134358432Y-95540457D01*
X134095411Y-95447414D01*
X133849673Y-95305664D01*
X133625099Y-95116359D01*
X133520977Y-95002851D01*
X133355704Y-94766994D01*
X133239066Y-94512620D01*
X133172073Y-94243086D01*
X133155732Y-93961753D01*
X133191054Y-93671979D01*
X133258818Y-93442837D01*
X133379122Y-93197791D01*
X133539159Y-92977940D01*
X133733312Y-92787841D01*
X133955965Y-92632052D01*
X134201500Y-92515132D01*
X134464301Y-92441638D01*
X134738750Y-92416127D01*
X134785556Y-92416855D01*
G37*
G36*
X171086389Y-92416855D02*
G01*
X171359303Y-92450422D01*
X171617751Y-92530642D01*
X171857024Y-92652801D01*
X172072411Y-92812191D01*
X172259200Y-93004100D01*
X172412681Y-93223817D01*
X172528143Y-93466631D01*
X172600874Y-93727832D01*
X172626165Y-94002708D01*
X172607250Y-94237820D01*
X172540450Y-94501406D01*
X172429901Y-94749199D01*
X172280250Y-94975418D01*
X172096143Y-95174282D01*
X171882225Y-95340010D01*
X171643142Y-95466820D01*
X171383542Y-95548931D01*
X171221642Y-95575818D01*
X170935691Y-95583642D01*
X170659266Y-95540457D01*
X170396244Y-95447414D01*
X170150506Y-95305664D01*
X169925932Y-95116359D01*
X169821810Y-95002851D01*
X169656538Y-94766994D01*
X169539900Y-94512620D01*
X169472906Y-94243086D01*
X169456565Y-93961753D01*
X169491888Y-93671979D01*
X169559651Y-93442837D01*
X169679955Y-93197791D01*
X169839992Y-92977940D01*
X170034146Y-92787841D01*
X170256798Y-92632052D01*
X170502334Y-92515132D01*
X170765134Y-92441638D01*
X171039584Y-92416127D01*
X171086389Y-92416855D01*
G37*
G36*
X178415348Y-92416855D02*
G01*
X178688261Y-92450422D01*
X178946710Y-92530642D01*
X179185983Y-92652801D01*
X179401369Y-92812191D01*
X179588158Y-93004100D01*
X179741639Y-93223817D01*
X179857101Y-93466631D01*
X179929833Y-93727832D01*
X179955123Y-94002708D01*
X179936208Y-94237820D01*
X179869408Y-94501406D01*
X179758860Y-94749199D01*
X179609209Y-94975418D01*
X179425101Y-95174282D01*
X179211183Y-95340010D01*
X178972101Y-95466820D01*
X178712500Y-95548931D01*
X178550600Y-95575818D01*
X178264650Y-95583642D01*
X177988224Y-95540457D01*
X177725202Y-95447414D01*
X177479465Y-95305664D01*
X177254891Y-95116359D01*
X177150769Y-95002851D01*
X176985496Y-94766994D01*
X176868858Y-94512620D01*
X176801864Y-94243086D01*
X176785524Y-93961753D01*
X176820846Y-93671979D01*
X176888610Y-93442837D01*
X177008914Y-93197791D01*
X177168951Y-92977940D01*
X177363104Y-92787841D01*
X177585757Y-92632052D01*
X177831292Y-92515132D01*
X178094093Y-92441638D01*
X178368542Y-92416127D01*
X178415348Y-92416855D01*
G37*
G36*
X142506569Y-92444701D02*
G01*
X142704864Y-92469856D01*
X142908032Y-92519199D01*
X143097027Y-92587432D01*
X143252805Y-92669254D01*
X143313422Y-92708892D01*
X143213117Y-92823644D01*
X143104466Y-92961483D01*
X142950826Y-93220280D01*
X142838069Y-93502109D01*
X142766685Y-93799722D01*
X142737166Y-94105870D01*
X142750001Y-94413304D01*
X142805681Y-94714777D01*
X142904696Y-95003040D01*
X143047537Y-95270844D01*
X143054501Y-95281641D01*
X143104138Y-95359921D01*
X143139208Y-95417546D01*
X143152500Y-95442707D01*
X143151306Y-95445533D01*
X143118530Y-95465401D01*
X143050693Y-95493186D01*
X142960998Y-95524246D01*
X142862651Y-95553935D01*
X142768855Y-95577612D01*
X142674792Y-95595082D01*
X142393896Y-95611590D01*
X142107396Y-95576862D01*
X141878255Y-95509099D01*
X141633208Y-95388795D01*
X141413357Y-95228758D01*
X141223259Y-95034604D01*
X141067470Y-94811952D01*
X140950550Y-94566416D01*
X140877055Y-94303616D01*
X140851544Y-94029166D01*
X140852273Y-93982361D01*
X140885840Y-93709447D01*
X140966059Y-93450999D01*
X141088219Y-93211726D01*
X141247609Y-92996339D01*
X141439518Y-92809550D01*
X141659235Y-92656069D01*
X141902049Y-92540607D01*
X142163249Y-92467876D01*
X142438125Y-92442585D01*
X142506569Y-92444701D01*
G37*
G36*
X146830209Y-91222800D02*
G01*
X146830382Y-91349093D01*
X146830705Y-91526987D01*
X146829462Y-91661879D01*
X146824793Y-91760016D01*
X146814840Y-91827647D01*
X146797746Y-91871018D01*
X146771651Y-91896378D01*
X146734697Y-91909973D01*
X146685026Y-91918052D01*
X146620779Y-91926861D01*
X146478981Y-91958359D01*
X146301360Y-92015486D01*
X146124655Y-92087731D01*
X145971818Y-92166616D01*
X145813208Y-92261099D01*
X145574261Y-92180415D01*
X145558052Y-92174981D01*
X145262138Y-92092073D01*
X144986740Y-92049787D01*
X144719285Y-92047990D01*
X144447202Y-92086546D01*
X144157917Y-92165323D01*
X144152769Y-92167018D01*
X144039834Y-92208403D01*
X143932603Y-92254430D01*
X143853646Y-92295447D01*
X143819531Y-92316417D01*
X143767003Y-92348475D01*
X143745121Y-92361465D01*
X143742384Y-92360080D01*
X143708555Y-92338974D01*
X143644512Y-92297687D01*
X143560766Y-92242974D01*
X143536615Y-92227325D01*
X143345508Y-92119809D01*
X143142657Y-92036994D01*
X142907761Y-91970405D01*
X142729167Y-91927920D01*
X142729167Y-90563125D01*
X146830209Y-90563125D01*
X146830209Y-91222800D01*
G37*
G36*
X152072319Y-92463535D02*
G01*
X152333206Y-92553754D01*
X152578471Y-92691895D01*
X152803178Y-92877182D01*
X152858968Y-92933016D01*
X152928978Y-93007000D01*
X152976789Y-93062604D01*
X152994318Y-93090795D01*
X152979659Y-93112049D01*
X152931198Y-93154882D01*
X152860706Y-93206540D01*
X152701827Y-93327349D01*
X152481924Y-93546300D01*
X152297330Y-93797342D01*
X152150778Y-94073827D01*
X152045000Y-94369106D01*
X151982731Y-94676531D01*
X151966702Y-94989455D01*
X151999646Y-95301228D01*
X152007879Y-95345127D01*
X152025595Y-95441966D01*
X152037895Y-95512658D01*
X152042500Y-95544291D01*
X152042249Y-95545555D01*
X152015015Y-95559479D01*
X151956511Y-95571068D01*
X151906867Y-95576629D01*
X151604369Y-95582911D01*
X151320118Y-95539757D01*
X151054917Y-95447436D01*
X150809573Y-95306215D01*
X150584891Y-95116359D01*
X150396431Y-94892889D01*
X150255063Y-94648828D01*
X150161928Y-94389215D01*
X150117784Y-94118703D01*
X150123391Y-93841949D01*
X150179507Y-93563607D01*
X150286891Y-93288333D01*
X150308996Y-93245609D01*
X150437885Y-93051327D01*
X150602574Y-92868276D01*
X150789266Y-92710255D01*
X150984167Y-92591057D01*
X151245304Y-92488180D01*
X151523430Y-92429972D01*
X151800748Y-92422016D01*
X152072319Y-92463535D01*
G37*
G36*
X187745394Y-91372094D02*
G01*
X187958688Y-91393233D01*
X188139583Y-91430594D01*
X188241264Y-91462462D01*
X188463860Y-91553778D01*
X188656095Y-91663861D01*
X188813461Y-91788754D01*
X188931449Y-91924503D01*
X189005549Y-92067152D01*
X189031250Y-92212745D01*
X189030849Y-92231483D01*
X188999029Y-92381900D01*
X188919844Y-92527051D01*
X188798227Y-92663040D01*
X188639115Y-92785974D01*
X188447441Y-92891958D01*
X188228140Y-92977099D01*
X187986146Y-93037501D01*
X187855097Y-93057793D01*
X187602572Y-93075033D01*
X187355815Y-93065111D01*
X187119113Y-93030439D01*
X186896750Y-92973430D01*
X186693014Y-92896498D01*
X186512190Y-92802055D01*
X186358563Y-92692515D01*
X186236420Y-92570291D01*
X186150047Y-92437795D01*
X186103729Y-92297441D01*
X186101752Y-92151642D01*
X186148402Y-92002810D01*
X186220701Y-91887645D01*
X186355615Y-91748597D01*
X186532211Y-91623294D01*
X186744388Y-91515903D01*
X186986043Y-91430594D01*
X187090809Y-91406014D01*
X187293485Y-91378485D01*
X187517670Y-91367178D01*
X187745394Y-91372094D01*
G37*
G36*
X155958334Y-91858575D02*
G01*
X155885573Y-91874643D01*
X155589496Y-91962217D01*
X155288006Y-92100969D01*
X155011792Y-92281521D01*
X154767091Y-92499747D01*
X154560135Y-92751524D01*
X154500986Y-92836486D01*
X154204399Y-92822333D01*
X154056129Y-92818172D01*
X153875692Y-92824716D01*
X153722605Y-92846731D01*
X153714866Y-92848342D01*
X153622859Y-92867478D01*
X153553781Y-92881819D01*
X153522070Y-92888370D01*
X153514289Y-92883744D01*
X153478970Y-92847575D01*
X153423685Y-92783163D01*
X153356441Y-92699635D01*
X153309421Y-92641997D01*
X153102447Y-92430989D01*
X152866339Y-92247687D01*
X152611019Y-92098126D01*
X152346407Y-91988345D01*
X152082424Y-91924381D01*
X151963125Y-91906491D01*
X151963125Y-90563125D01*
X155958334Y-90563125D01*
X155958334Y-91858575D01*
G37*
G36*
X147062223Y-92416855D02*
G01*
X147335136Y-92450422D01*
X147593585Y-92530642D01*
X147832858Y-92652801D01*
X148048244Y-92812191D01*
X148235033Y-93004100D01*
X148388514Y-93223817D01*
X148503976Y-93466631D01*
X148576708Y-93727832D01*
X148601998Y-94002708D01*
X148585436Y-94223509D01*
X148520932Y-94488983D01*
X148411991Y-94738577D01*
X148263146Y-94966644D01*
X148078929Y-95167537D01*
X147863873Y-95335609D01*
X147622511Y-95465214D01*
X147359375Y-95550706D01*
X147359301Y-95550723D01*
X147220880Y-95571123D01*
X147056322Y-95578983D01*
X146885119Y-95574779D01*
X146726766Y-95558991D01*
X146600757Y-95532096D01*
X146490367Y-95497604D01*
X146620697Y-95300440D01*
X146680642Y-95205323D01*
X146803147Y-94966630D01*
X146886120Y-94721575D01*
X146933220Y-94457427D01*
X146948107Y-94161458D01*
X146930490Y-93864408D01*
X146866471Y-93546933D01*
X146754601Y-93250708D01*
X146593792Y-92972942D01*
X146382955Y-92710842D01*
X146277000Y-92596372D01*
X146395471Y-92543966D01*
X146506709Y-92502800D01*
X146677137Y-92458134D01*
X146855158Y-92427500D01*
X147015417Y-92416127D01*
X147062223Y-92416855D01*
G37*
G36*
X176384265Y-92423385D02*
G01*
X176519200Y-92436437D01*
X176641745Y-92455621D01*
X176741792Y-92478614D01*
X176809232Y-92503093D01*
X176833959Y-92526737D01*
X176824978Y-92547737D01*
X176788940Y-92599886D01*
X176734740Y-92666127D01*
X176730694Y-92670774D01*
X176558547Y-92907950D01*
X176422611Y-93176408D01*
X176325302Y-93466865D01*
X176269036Y-93770040D01*
X176256229Y-94076650D01*
X176289298Y-94377412D01*
X176327458Y-94543532D01*
X176429027Y-94840477D01*
X176566005Y-95108358D01*
X176734740Y-95339289D01*
X176775800Y-95388712D01*
X176817716Y-95446518D01*
X176833959Y-95479922D01*
X176818298Y-95495089D01*
X176763098Y-95517386D01*
X176681823Y-95538319D01*
X176614816Y-95552360D01*
X176542014Y-95568337D01*
X176503230Y-95577815D01*
X176501556Y-95578317D01*
X176433721Y-95586998D01*
X176330698Y-95587699D01*
X176208843Y-95581269D01*
X176084513Y-95568555D01*
X175974063Y-95550404D01*
X175744921Y-95482640D01*
X175499875Y-95362336D01*
X175280024Y-95202299D01*
X175089925Y-95008146D01*
X174934137Y-94785493D01*
X174817217Y-94539958D01*
X174743722Y-94277157D01*
X174718211Y-94002708D01*
X174726933Y-93840647D01*
X174779869Y-93574938D01*
X174876696Y-93325775D01*
X175012659Y-93097663D01*
X175183007Y-92895108D01*
X175382987Y-92722615D01*
X175607845Y-92584690D01*
X175852830Y-92485838D01*
X176113188Y-92430566D01*
X176384167Y-92423378D01*
X176384265Y-92423385D01*
G37*
G36*
X144892639Y-92575605D02*
G01*
X145165553Y-92609172D01*
X145424001Y-92689392D01*
X145663274Y-92811551D01*
X145878661Y-92970941D01*
X146065450Y-93162850D01*
X146218931Y-93382567D01*
X146334393Y-93625381D01*
X146407124Y-93886582D01*
X146432415Y-94161458D01*
X146413500Y-94396570D01*
X146346700Y-94660156D01*
X146236151Y-94907949D01*
X146086500Y-95134168D01*
X145902393Y-95333032D01*
X145688475Y-95498760D01*
X145449392Y-95625570D01*
X145189792Y-95707681D01*
X145027892Y-95734568D01*
X144741941Y-95742392D01*
X144465516Y-95699207D01*
X144202494Y-95606164D01*
X143956756Y-95464414D01*
X143732182Y-95275109D01*
X143628060Y-95161601D01*
X143462788Y-94925744D01*
X143346150Y-94671370D01*
X143279156Y-94401836D01*
X143262815Y-94120503D01*
X143298138Y-93830729D01*
X143365901Y-93601587D01*
X143486205Y-93356541D01*
X143646242Y-93136690D01*
X143840396Y-92946591D01*
X144063048Y-92790802D01*
X144308584Y-92673882D01*
X144571384Y-92600388D01*
X144845834Y-92574877D01*
X144892639Y-92575605D01*
G37*
G36*
X156434313Y-92370597D02*
G01*
X156698423Y-92417267D01*
X156953830Y-92510468D01*
X157194885Y-92650120D01*
X157415944Y-92836140D01*
X157520066Y-92949648D01*
X157685338Y-93185505D01*
X157801976Y-93439879D01*
X157868970Y-93709413D01*
X157885311Y-93990746D01*
X157849988Y-94280520D01*
X157806781Y-94440174D01*
X157697906Y-94690324D01*
X157547356Y-94918737D01*
X157361022Y-95119463D01*
X157144798Y-95286551D01*
X156904577Y-95414052D01*
X156646250Y-95496014D01*
X156561374Y-95511146D01*
X156421552Y-95527843D01*
X156292809Y-95535188D01*
X156250369Y-95535596D01*
X156172715Y-95534293D01*
X156133190Y-95526664D01*
X156121137Y-95509042D01*
X156125897Y-95477760D01*
X156142756Y-95403519D01*
X156187229Y-95071747D01*
X156182319Y-94744888D01*
X156129899Y-94427744D01*
X156031841Y-94125114D01*
X155890016Y-93841802D01*
X155706296Y-93582607D01*
X155482552Y-93352333D01*
X155220658Y-93155780D01*
X155190311Y-93136112D01*
X155110208Y-93079910D01*
X155054218Y-93034103D01*
X155032969Y-93007111D01*
X155038523Y-92994314D01*
X155074360Y-92948711D01*
X155136143Y-92882302D01*
X155215324Y-92804579D01*
X155403758Y-92650844D01*
X155646221Y-92510581D01*
X155902565Y-92417173D01*
X156167145Y-92370539D01*
X156434313Y-92370597D01*
G37*
G36*
X165192292Y-91911491D02*
G01*
X165119532Y-91927560D01*
X165013534Y-91954422D01*
X164847831Y-92006935D01*
X164689218Y-92067961D01*
X164560318Y-92129335D01*
X164417823Y-92208044D01*
X164295734Y-92142893D01*
X164286683Y-92138111D01*
X164074315Y-92046701D01*
X163832334Y-91975387D01*
X163580908Y-91929032D01*
X163340209Y-91912500D01*
X163218263Y-91917209D01*
X162979944Y-91948633D01*
X162738984Y-92005556D01*
X162513489Y-92083278D01*
X162321563Y-92177094D01*
X162263325Y-92211172D01*
X162206160Y-92243387D01*
X162180668Y-92256007D01*
X162178429Y-92255330D01*
X162144359Y-92237587D01*
X162079200Y-92200627D01*
X161994512Y-92150976D01*
X161837179Y-92068589D01*
X161650753Y-91990986D01*
X161464740Y-91931059D01*
X161299712Y-91896348D01*
X161170625Y-91879224D01*
X161170625Y-90563125D01*
X165192292Y-90563125D01*
X165192292Y-91911491D01*
G37*
%TD*%
M02*
