%TF.GenerationSoftware,KiCad,Pcbnew,(5.99.0-12610-g07e01e6297)*%
%TF.CreationDate,2021-11-07T21:16:04+00:00*%
%TF.ProjectId,piccolo-backplate,70696363-6f6c-46f2-9d62-61636b706c61,rev?*%
%TF.SameCoordinates,Original*%
%TF.FileFunction,Legend,Top*%
%TF.FilePolarity,Positive*%
%FSLAX46Y46*%
G04 Gerber Fmt 4.6, Leading zero omitted, Abs format (unit mm)*
G04 Created by KiCad (PCBNEW (5.99.0-12610-g07e01e6297)) date 2021-11-07 21:16:04*
%MOMM*%
%LPD*%
G01*
G04 APERTURE LIST*
%ADD10C,0.150000*%
G04 APERTURE END LIST*
D10*
X110154761Y-90261904D02*
X110154761Y-90833333D01*
X110116666Y-90947619D01*
X110040476Y-91023809D01*
X109926190Y-91061904D01*
X109850000Y-91061904D01*
X110916666Y-91061904D02*
X110535714Y-91061904D01*
X110535714Y-90261904D01*
X111640476Y-90985714D02*
X111602380Y-91023809D01*
X111488095Y-91061904D01*
X111411904Y-91061904D01*
X111297619Y-91023809D01*
X111221428Y-90947619D01*
X111183333Y-90871428D01*
X111145238Y-90719047D01*
X111145238Y-90604761D01*
X111183333Y-90452380D01*
X111221428Y-90376190D01*
X111297619Y-90300000D01*
X111411904Y-90261904D01*
X111488095Y-90261904D01*
X111602380Y-90300000D01*
X111640476Y-90338095D01*
X112211904Y-90261904D02*
X112211904Y-90833333D01*
X112173809Y-90947619D01*
X112097619Y-91023809D01*
X111983333Y-91061904D01*
X111907142Y-91061904D01*
X112973809Y-91061904D02*
X112592857Y-91061904D01*
X112592857Y-90261904D01*
X113697619Y-90985714D02*
X113659523Y-91023809D01*
X113545238Y-91061904D01*
X113469047Y-91061904D01*
X113354761Y-91023809D01*
X113278571Y-90947619D01*
X113240476Y-90871428D01*
X113202380Y-90719047D01*
X113202380Y-90604761D01*
X113240476Y-90452380D01*
X113278571Y-90376190D01*
X113354761Y-90300000D01*
X113469047Y-90261904D01*
X113545238Y-90261904D01*
X113659523Y-90300000D01*
X113697619Y-90338095D01*
X114269047Y-90261904D02*
X114269047Y-90833333D01*
X114230952Y-90947619D01*
X114154761Y-91023809D01*
X114040476Y-91061904D01*
X113964285Y-91061904D01*
X115030952Y-91061904D02*
X114650000Y-91061904D01*
X114650000Y-90261904D01*
X115754761Y-90985714D02*
X115716666Y-91023809D01*
X115602380Y-91061904D01*
X115526190Y-91061904D01*
X115411904Y-91023809D01*
X115335714Y-90947619D01*
X115297619Y-90871428D01*
X115259523Y-90719047D01*
X115259523Y-90604761D01*
X115297619Y-90452380D01*
X115335714Y-90376190D01*
X115411904Y-90300000D01*
X115526190Y-90261904D01*
X115602380Y-90261904D01*
X115716666Y-90300000D01*
X115754761Y-90338095D01*
X116326190Y-90261904D02*
X116326190Y-90833333D01*
X116288095Y-90947619D01*
X116211904Y-91023809D01*
X116097619Y-91061904D01*
X116021428Y-91061904D01*
X117088095Y-91061904D02*
X116707142Y-91061904D01*
X116707142Y-90261904D01*
X117811904Y-90985714D02*
X117773809Y-91023809D01*
X117659523Y-91061904D01*
X117583333Y-91061904D01*
X117469047Y-91023809D01*
X117392857Y-90947619D01*
X117354761Y-90871428D01*
X117316666Y-90719047D01*
X117316666Y-90604761D01*
X117354761Y-90452380D01*
X117392857Y-90376190D01*
X117469047Y-90300000D01*
X117583333Y-90261904D01*
X117659523Y-90261904D01*
X117773809Y-90300000D01*
X117811904Y-90338095D01*
M02*
