%TF.GenerationSoftware,KiCad,Pcbnew,(5.99.0-12610-g07e01e6297)*%
%TF.CreationDate,2021-11-07T21:16:04+00:00*%
%TF.ProjectId,piccolo-backplate,70696363-6f6c-46f2-9d62-61636b706c61,rev?*%
%TF.SameCoordinates,Original*%
%TF.FileFunction,Copper,L1,Top*%
%TF.FilePolarity,Positive*%
%FSLAX46Y46*%
G04 Gerber Fmt 4.6, Leading zero omitted, Abs format (unit mm)*
G04 Created by KiCad (PCBNEW (5.99.0-12610-g07e01e6297)) date 2021-11-07 21:16:04*
%MOMM*%
%LPD*%
G01*
G04 APERTURE LIST*
%TA.AperFunction,ComponentPad*%
%ADD10C,2.800000*%
%TD*%
G04 APERTURE END LIST*
D10*
%TO.P,H3,*%
%TO.N,*%
X189961868Y-87227905D03*
%TD*%
%TO.P,H1,*%
%TO.N,*%
X113761868Y-87227905D03*
%TD*%
%TO.P,H2,*%
%TO.N,*%
X151861868Y-101515405D03*
%TD*%
%TA.AperFunction,NonConductor*%
G36*
X208981925Y-84562405D02*
G01*
X208996727Y-84564710D01*
X208996729Y-84564710D01*
X209005598Y-84566091D01*
X209014498Y-84564927D01*
X209023474Y-84565037D01*
X209023464Y-84565855D01*
X209044954Y-84566146D01*
X209065342Y-84569375D01*
X209080460Y-84571769D01*
X209117949Y-84583950D01*
X209162050Y-84606420D01*
X209193941Y-84629591D01*
X209228932Y-84664582D01*
X209252103Y-84696473D01*
X209274573Y-84740574D01*
X209286754Y-84778063D01*
X209292242Y-84812714D01*
X209293672Y-84832422D01*
X209292432Y-84840385D01*
X209294256Y-84854333D01*
X209296554Y-84871906D01*
X209297618Y-84888244D01*
X209297618Y-103847327D01*
X209296118Y-103866711D01*
X209292432Y-103890385D01*
X209293596Y-103899285D01*
X209293486Y-103908261D01*
X209292668Y-103908251D01*
X209292377Y-103929741D01*
X209286754Y-103965246D01*
X209274573Y-104002736D01*
X209252104Y-104046836D01*
X209228932Y-104078728D01*
X209193941Y-104113719D01*
X209162050Y-104136890D01*
X209117949Y-104159360D01*
X209080460Y-104171541D01*
X209045809Y-104177029D01*
X209026101Y-104178459D01*
X209018138Y-104177219D01*
X208986617Y-104181341D01*
X208970279Y-104182405D01*
X74028446Y-104182405D01*
X74009061Y-104180905D01*
X73994259Y-104178600D01*
X73994257Y-104178600D01*
X73985388Y-104177219D01*
X73976488Y-104178383D01*
X73967512Y-104178273D01*
X73967522Y-104177455D01*
X73946032Y-104177164D01*
X73925644Y-104173935D01*
X73910526Y-104171541D01*
X73873037Y-104159360D01*
X73828936Y-104136890D01*
X73797045Y-104113719D01*
X73762054Y-104078728D01*
X73738882Y-104046836D01*
X73716413Y-104002736D01*
X73704232Y-103965246D01*
X73699525Y-103935525D01*
X73698635Y-103909196D01*
X73698439Y-103909194D01*
X73698491Y-103904943D01*
X73698491Y-103904940D01*
X73698592Y-103896655D01*
X73694641Y-103869067D01*
X73693368Y-103851204D01*
X73693368Y-101455304D01*
X149949437Y-101455304D01*
X149960048Y-101725368D01*
X150008605Y-101991242D01*
X150094140Y-102247622D01*
X150214946Y-102489392D01*
X150217475Y-102493051D01*
X150321431Y-102643463D01*
X150368612Y-102711729D01*
X150552073Y-102910195D01*
X150761667Y-103080832D01*
X150993214Y-103220235D01*
X150997309Y-103221969D01*
X150997311Y-103221970D01*
X151237992Y-103323885D01*
X151237999Y-103323887D01*
X151242093Y-103325621D01*
X151338226Y-103351110D01*
X151499040Y-103393750D01*
X151499045Y-103393751D01*
X151503337Y-103394889D01*
X151507746Y-103395411D01*
X151507752Y-103395412D01*
X151657078Y-103413085D01*
X151771736Y-103426656D01*
X152041932Y-103420288D01*
X152046327Y-103419556D01*
X152046332Y-103419556D01*
X152304135Y-103376646D01*
X152304139Y-103376645D01*
X152308537Y-103375913D01*
X152476827Y-103322690D01*
X152561982Y-103295759D01*
X152561984Y-103295758D01*
X152566228Y-103294416D01*
X152570239Y-103292490D01*
X152570244Y-103292488D01*
X152805847Y-103179353D01*
X152805848Y-103179352D01*
X152809866Y-103177423D01*
X152958636Y-103078018D01*
X153030881Y-103029746D01*
X153030885Y-103029743D01*
X153034589Y-103027268D01*
X153037906Y-103024297D01*
X153037910Y-103024294D01*
X153232597Y-102849917D01*
X153235913Y-102846947D01*
X153409821Y-102640059D01*
X153552843Y-102410730D01*
X153662126Y-102163538D01*
X153735488Y-101903413D01*
X153758814Y-101729748D01*
X153771040Y-101638729D01*
X153771041Y-101638721D01*
X153771467Y-101635547D01*
X153775243Y-101515405D01*
X153756155Y-101245808D01*
X153699270Y-100981590D01*
X153679669Y-100928458D01*
X153607265Y-100732201D01*
X153605724Y-100728024D01*
X153576378Y-100673636D01*
X153479497Y-100494083D01*
X153479497Y-100494082D01*
X153477384Y-100490167D01*
X153316810Y-100272767D01*
X153127206Y-100080161D01*
X153050424Y-100021563D01*
X152915896Y-99918894D01*
X152915892Y-99918892D01*
X152912355Y-99916192D01*
X152676543Y-99784132D01*
X152424477Y-99686615D01*
X152420152Y-99685612D01*
X152420147Y-99685611D01*
X152314616Y-99661151D01*
X152161186Y-99625587D01*
X151891922Y-99602266D01*
X151887487Y-99602510D01*
X151887483Y-99602510D01*
X151626502Y-99616873D01*
X151626495Y-99616874D01*
X151622059Y-99617118D01*
X151490490Y-99643288D01*
X151361352Y-99668975D01*
X151361347Y-99668976D01*
X151356980Y-99669845D01*
X151352777Y-99671321D01*
X151106183Y-99757918D01*
X151106180Y-99757919D01*
X151101975Y-99759396D01*
X151098022Y-99761449D01*
X151098016Y-99761452D01*
X151054356Y-99784132D01*
X150862132Y-99883985D01*
X150858517Y-99886568D01*
X150858511Y-99886572D01*
X150645858Y-100038536D01*
X150645854Y-100038539D01*
X150642237Y-100041124D01*
X150446676Y-100227680D01*
X150279353Y-100439929D01*
X150277121Y-100443771D01*
X150277118Y-100443776D01*
X150145842Y-100669782D01*
X150145839Y-100669789D01*
X150143604Y-100673636D01*
X150042140Y-100924140D01*
X150041069Y-100928453D01*
X150041067Y-100928458D01*
X150027869Y-100981590D01*
X149976984Y-101186440D01*
X149976530Y-101190868D01*
X149976530Y-101190870D01*
X149949891Y-101450872D01*
X149949437Y-101455304D01*
X73693368Y-101455304D01*
X73693368Y-87167804D01*
X111849437Y-87167804D01*
X111860048Y-87437868D01*
X111908605Y-87703742D01*
X111994140Y-87960122D01*
X112114946Y-88201892D01*
X112117475Y-88205551D01*
X112221431Y-88355963D01*
X112268612Y-88424229D01*
X112452073Y-88622695D01*
X112661667Y-88793332D01*
X112893214Y-88932735D01*
X112897309Y-88934469D01*
X112897311Y-88934470D01*
X113137992Y-89036385D01*
X113137999Y-89036387D01*
X113142093Y-89038121D01*
X113238226Y-89063610D01*
X113399040Y-89106250D01*
X113399045Y-89106251D01*
X113403337Y-89107389D01*
X113407746Y-89107911D01*
X113407752Y-89107912D01*
X113557078Y-89125585D01*
X113671736Y-89139156D01*
X113941932Y-89132788D01*
X113946327Y-89132056D01*
X113946332Y-89132056D01*
X114204135Y-89089146D01*
X114204139Y-89089145D01*
X114208537Y-89088413D01*
X114376827Y-89035190D01*
X114461982Y-89008259D01*
X114461984Y-89008258D01*
X114466228Y-89006916D01*
X114470239Y-89004990D01*
X114470244Y-89004988D01*
X114705847Y-88891853D01*
X114705848Y-88891852D01*
X114709866Y-88889923D01*
X114858636Y-88790518D01*
X114930881Y-88742246D01*
X114930885Y-88742243D01*
X114934589Y-88739768D01*
X114937906Y-88736797D01*
X114937910Y-88736794D01*
X115132597Y-88562417D01*
X115135913Y-88559447D01*
X115309821Y-88352559D01*
X115452843Y-88123230D01*
X115562126Y-87876038D01*
X115635488Y-87615913D01*
X115658814Y-87442248D01*
X115671040Y-87351229D01*
X115671041Y-87351221D01*
X115671467Y-87348047D01*
X115675243Y-87227905D01*
X115670988Y-87167804D01*
X188049437Y-87167804D01*
X188060048Y-87437868D01*
X188108605Y-87703742D01*
X188194140Y-87960122D01*
X188314946Y-88201892D01*
X188317475Y-88205551D01*
X188421431Y-88355963D01*
X188468612Y-88424229D01*
X188652073Y-88622695D01*
X188861667Y-88793332D01*
X189093214Y-88932735D01*
X189097309Y-88934469D01*
X189097311Y-88934470D01*
X189337992Y-89036385D01*
X189337999Y-89036387D01*
X189342093Y-89038121D01*
X189438226Y-89063610D01*
X189599040Y-89106250D01*
X189599045Y-89106251D01*
X189603337Y-89107389D01*
X189607746Y-89107911D01*
X189607752Y-89107912D01*
X189757078Y-89125585D01*
X189871736Y-89139156D01*
X190141932Y-89132788D01*
X190146327Y-89132056D01*
X190146332Y-89132056D01*
X190404135Y-89089146D01*
X190404139Y-89089145D01*
X190408537Y-89088413D01*
X190576827Y-89035190D01*
X190661982Y-89008259D01*
X190661984Y-89008258D01*
X190666228Y-89006916D01*
X190670239Y-89004990D01*
X190670244Y-89004988D01*
X190905847Y-88891853D01*
X190905848Y-88891852D01*
X190909866Y-88889923D01*
X191058636Y-88790518D01*
X191130881Y-88742246D01*
X191130885Y-88742243D01*
X191134589Y-88739768D01*
X191137906Y-88736797D01*
X191137910Y-88736794D01*
X191332597Y-88562417D01*
X191335913Y-88559447D01*
X191509821Y-88352559D01*
X191652843Y-88123230D01*
X191762126Y-87876038D01*
X191835488Y-87615913D01*
X191858814Y-87442248D01*
X191871040Y-87351229D01*
X191871041Y-87351221D01*
X191871467Y-87348047D01*
X191875243Y-87227905D01*
X191856155Y-86958308D01*
X191799270Y-86694090D01*
X191779669Y-86640958D01*
X191707265Y-86444701D01*
X191705724Y-86440524D01*
X191676378Y-86386136D01*
X191579497Y-86206583D01*
X191579497Y-86206582D01*
X191577384Y-86202667D01*
X191416810Y-85985267D01*
X191227206Y-85792661D01*
X191150424Y-85734063D01*
X191015896Y-85631394D01*
X191015892Y-85631392D01*
X191012355Y-85628692D01*
X190776543Y-85496632D01*
X190524477Y-85399115D01*
X190520152Y-85398112D01*
X190520147Y-85398111D01*
X190414616Y-85373651D01*
X190261186Y-85338087D01*
X189991922Y-85314766D01*
X189987487Y-85315010D01*
X189987483Y-85315010D01*
X189726502Y-85329373D01*
X189726495Y-85329374D01*
X189722059Y-85329618D01*
X189590490Y-85355788D01*
X189461352Y-85381475D01*
X189461347Y-85381476D01*
X189456980Y-85382345D01*
X189452777Y-85383821D01*
X189206183Y-85470418D01*
X189206180Y-85470419D01*
X189201975Y-85471896D01*
X189198022Y-85473949D01*
X189198016Y-85473952D01*
X189154356Y-85496632D01*
X188962132Y-85596485D01*
X188958517Y-85599068D01*
X188958511Y-85599072D01*
X188745858Y-85751036D01*
X188745854Y-85751039D01*
X188742237Y-85753624D01*
X188546676Y-85940180D01*
X188379353Y-86152429D01*
X188377121Y-86156271D01*
X188377118Y-86156276D01*
X188245842Y-86382282D01*
X188245839Y-86382289D01*
X188243604Y-86386136D01*
X188142140Y-86636640D01*
X188141069Y-86640953D01*
X188141067Y-86640958D01*
X188127869Y-86694090D01*
X188076984Y-86898940D01*
X188076530Y-86903368D01*
X188076530Y-86903370D01*
X188049891Y-87163372D01*
X188049437Y-87167804D01*
X115670988Y-87167804D01*
X115656155Y-86958308D01*
X115599270Y-86694090D01*
X115579669Y-86640958D01*
X115507265Y-86444701D01*
X115505724Y-86440524D01*
X115476378Y-86386136D01*
X115379497Y-86206583D01*
X115379497Y-86206582D01*
X115377384Y-86202667D01*
X115216810Y-85985267D01*
X115027206Y-85792661D01*
X114950424Y-85734063D01*
X114815896Y-85631394D01*
X114815892Y-85631392D01*
X114812355Y-85628692D01*
X114576543Y-85496632D01*
X114324477Y-85399115D01*
X114320152Y-85398112D01*
X114320147Y-85398111D01*
X114214616Y-85373651D01*
X114061186Y-85338087D01*
X113791922Y-85314766D01*
X113787487Y-85315010D01*
X113787483Y-85315010D01*
X113526502Y-85329373D01*
X113526495Y-85329374D01*
X113522059Y-85329618D01*
X113390490Y-85355788D01*
X113261352Y-85381475D01*
X113261347Y-85381476D01*
X113256980Y-85382345D01*
X113252777Y-85383821D01*
X113006183Y-85470418D01*
X113006180Y-85470419D01*
X113001975Y-85471896D01*
X112998022Y-85473949D01*
X112998016Y-85473952D01*
X112954356Y-85496632D01*
X112762132Y-85596485D01*
X112758517Y-85599068D01*
X112758511Y-85599072D01*
X112545858Y-85751036D01*
X112545854Y-85751039D01*
X112542237Y-85753624D01*
X112346676Y-85940180D01*
X112179353Y-86152429D01*
X112177121Y-86156271D01*
X112177118Y-86156276D01*
X112045842Y-86382282D01*
X112045839Y-86382289D01*
X112043604Y-86386136D01*
X111942140Y-86636640D01*
X111941069Y-86640953D01*
X111941067Y-86640958D01*
X111927869Y-86694090D01*
X111876984Y-86898940D01*
X111876530Y-86903368D01*
X111876530Y-86903370D01*
X111849891Y-87163372D01*
X111849437Y-87167804D01*
X73693368Y-87167804D01*
X73693368Y-84899862D01*
X73695114Y-84878958D01*
X73697632Y-84863990D01*
X73698439Y-84859194D01*
X73698592Y-84846655D01*
X73697903Y-84841844D01*
X73697717Y-84838992D01*
X73699001Y-84811091D01*
X73704232Y-84778063D01*
X73716413Y-84740574D01*
X73738883Y-84696473D01*
X73762054Y-84664582D01*
X73797045Y-84629591D01*
X73828936Y-84606420D01*
X73873037Y-84583950D01*
X73910526Y-84571769D01*
X73945177Y-84566281D01*
X73964885Y-84564851D01*
X73972848Y-84566091D01*
X74004370Y-84561969D01*
X74020707Y-84560905D01*
X208962540Y-84560905D01*
X208981925Y-84562405D01*
G37*
%TD.AperFunction*%
M02*
