%TF.GenerationSoftware,KiCad,Pcbnew,(5.99.0-12610-g07e01e6297)*%
%TF.CreationDate,2021-11-07T21:13:35+00:00*%
%TF.ProjectId,piccolo-switchplate,70696363-6f6c-46f2-9d73-776974636870,rev?*%
%TF.SameCoordinates,Original*%
%TF.FileFunction,Profile,NP*%
%FSLAX46Y46*%
G04 Gerber Fmt 4.6, Leading zero omitted, Abs format (unit mm)*
G04 Created by KiCad (PCBNEW (5.99.0-12610-g07e01e6297)) date 2021-11-07 21:13:35*
%MOMM*%
%LPD*%
G01*
G04 APERTURE LIST*
%TA.AperFunction,Profile*%
%ADD10C,0.050000*%
%TD*%
%TA.AperFunction,Profile*%
%ADD11C,0.100000*%
%TD*%
%TA.AperFunction,Profile*%
%ADD12C,0.120000*%
%TD*%
G04 APERTURE END LIST*
D10*
X204912496Y-107993750D02*
G75*
G02*
X205706246Y-108787500I0J-793750D01*
G01*
X69085996Y-108787500D02*
G75*
G02*
X69879746Y-107993750I793750J0D01*
G01*
X204912496Y-107993750D02*
X69879746Y-107993750D01*
X69879746Y-128631250D02*
X204912496Y-128631250D01*
X69085996Y-108787500D02*
X69085996Y-127837500D01*
X205706246Y-127837500D02*
X205706246Y-108787500D01*
X69879746Y-128631250D02*
G75*
G02*
X69085996Y-127837500I0J793750D01*
G01*
X205706246Y-127837500D02*
G75*
G02*
X204912496Y-128631250I-793750J0D01*
G01*
D11*
%TO.C,MX4*%
X169337496Y-111312500D02*
X183337496Y-111312500D01*
X183337496Y-111312500D02*
X183337496Y-125312500D01*
X183337496Y-125312500D02*
X169337496Y-125312500D01*
X169337496Y-125312500D02*
X169337496Y-111312500D01*
D12*
%TO.C,OL1*%
X102592996Y-112399000D02*
X72792996Y-112399000D01*
X72792996Y-112399000D02*
X72792996Y-124109000D01*
X72792996Y-124109000D02*
X102592996Y-124109000D01*
X102592996Y-124109000D02*
X102592996Y-112399000D01*
D11*
%TO.C,MX1*%
X112187496Y-111312500D02*
X126187496Y-111312500D01*
X126187496Y-111312500D02*
X126187496Y-125312500D01*
X126187496Y-125312500D02*
X112187496Y-125312500D01*
X112187496Y-125312500D02*
X112187496Y-111312500D01*
%TO.C,MX3*%
X150287496Y-111312500D02*
X164287496Y-111312500D01*
X164287496Y-111312500D02*
X164287496Y-125312500D01*
X164287496Y-125312500D02*
X150287496Y-125312500D01*
X150287496Y-125312500D02*
X150287496Y-111312500D01*
%TO.C,MX2*%
X131237496Y-111312500D02*
X145237496Y-111312500D01*
X145237496Y-111312500D02*
X145237496Y-125312500D01*
X145237496Y-125312500D02*
X131237496Y-125312500D01*
X131237496Y-125312500D02*
X131237496Y-111312500D01*
%TO.C,MX5*%
X188387496Y-111312500D02*
X202387496Y-111312500D01*
X202387496Y-111312500D02*
X202387496Y-125312500D01*
X202387496Y-125312500D02*
X188387496Y-125312500D01*
X188387496Y-125312500D02*
X188387496Y-111312500D01*
%TD*%
M02*
