%TF.GenerationSoftware,KiCad,Pcbnew,(5.99.0-12610-g07e01e6297)*%
%TF.CreationDate,2021-11-07T21:13:35+00:00*%
%TF.ProjectId,piccolo-switchplate,70696363-6f6c-46f2-9d73-776974636870,rev?*%
%TF.SameCoordinates,Original*%
%TF.FileFunction,Soldermask,Bot*%
%TF.FilePolarity,Negative*%
%FSLAX46Y46*%
G04 Gerber Fmt 4.6, Leading zero omitted, Abs format (unit mm)*
G04 Created by KiCad (PCBNEW (5.99.0-12610-g07e01e6297)) date 2021-11-07 21:13:35*
%MOMM*%
%LPD*%
G01*
G04 APERTURE LIST*
%ADD10C,0.200000*%
%ADD11C,2.800000*%
%ADD12O,12.000000X0.500000*%
%ADD13O,0.500000X14.200000*%
G04 APERTURE END LIST*
D10*
X105124876Y-111657738D02*
X104124876Y-111657738D01*
X104124876Y-112038690D01*
X104172496Y-112133928D01*
X104220115Y-112181547D01*
X104315353Y-112229166D01*
X104458210Y-112229166D01*
X104553448Y-112181547D01*
X104601067Y-112133928D01*
X104648686Y-112038690D01*
X104648686Y-111657738D01*
X105124876Y-112657738D02*
X104458210Y-112657738D01*
X104124876Y-112657738D02*
X104172496Y-112610119D01*
X104220115Y-112657738D01*
X104172496Y-112705357D01*
X104124876Y-112657738D01*
X104220115Y-112657738D01*
X105077257Y-113562500D02*
X105124876Y-113467261D01*
X105124876Y-113276785D01*
X105077257Y-113181547D01*
X105029638Y-113133928D01*
X104934400Y-113086309D01*
X104648686Y-113086309D01*
X104553448Y-113133928D01*
X104505829Y-113181547D01*
X104458210Y-113276785D01*
X104458210Y-113467261D01*
X104505829Y-113562500D01*
X105077257Y-114419642D02*
X105124876Y-114324404D01*
X105124876Y-114133928D01*
X105077257Y-114038690D01*
X105029638Y-113991071D01*
X104934400Y-113943452D01*
X104648686Y-113943452D01*
X104553448Y-113991071D01*
X104505829Y-114038690D01*
X104458210Y-114133928D01*
X104458210Y-114324404D01*
X104505829Y-114419642D01*
X105124876Y-114991071D02*
X105077257Y-114895833D01*
X105029638Y-114848214D01*
X104934400Y-114800595D01*
X104648686Y-114800595D01*
X104553448Y-114848214D01*
X104505829Y-114895833D01*
X104458210Y-114991071D01*
X104458210Y-115133928D01*
X104505829Y-115229166D01*
X104553448Y-115276785D01*
X104648686Y-115324404D01*
X104934400Y-115324404D01*
X105029638Y-115276785D01*
X105077257Y-115229166D01*
X105124876Y-115133928D01*
X105124876Y-114991071D01*
X105124876Y-115895833D02*
X105077257Y-115800595D01*
X104982019Y-115752976D01*
X104124876Y-115752976D01*
X105124876Y-116419642D02*
X105077257Y-116324404D01*
X105029638Y-116276785D01*
X104934400Y-116229166D01*
X104648686Y-116229166D01*
X104553448Y-116276785D01*
X104505829Y-116324404D01*
X104458210Y-116419642D01*
X104458210Y-116562500D01*
X104505829Y-116657738D01*
X104553448Y-116705357D01*
X104648686Y-116752976D01*
X104934400Y-116752976D01*
X105029638Y-116705357D01*
X105077257Y-116657738D01*
X105124876Y-116562500D01*
X105124876Y-116419642D01*
X105124876Y-117943452D02*
X104124876Y-117943452D01*
X104839162Y-118276785D01*
X104124876Y-118610119D01*
X105124876Y-118610119D01*
X105124876Y-119514880D02*
X104601067Y-119514880D01*
X104505829Y-119467261D01*
X104458210Y-119372023D01*
X104458210Y-119181547D01*
X104505829Y-119086309D01*
X105077257Y-119514880D02*
X105124876Y-119419642D01*
X105124876Y-119181547D01*
X105077257Y-119086309D01*
X104982019Y-119038690D01*
X104886781Y-119038690D01*
X104791543Y-119086309D01*
X104743924Y-119181547D01*
X104743924Y-119419642D01*
X104696305Y-119514880D01*
X105077257Y-120419642D02*
X105124876Y-120324404D01*
X105124876Y-120133928D01*
X105077257Y-120038690D01*
X105029638Y-119991071D01*
X104934400Y-119943452D01*
X104648686Y-119943452D01*
X104553448Y-119991071D01*
X104505829Y-120038690D01*
X104458210Y-120133928D01*
X104458210Y-120324404D01*
X104505829Y-120419642D01*
X105124876Y-120848214D02*
X104458210Y-120848214D01*
X104648686Y-120848214D02*
X104553448Y-120895833D01*
X104505829Y-120943452D01*
X104458210Y-121038690D01*
X104458210Y-121133928D01*
X105124876Y-121610119D02*
X105077257Y-121514880D01*
X105029638Y-121467261D01*
X104934400Y-121419642D01*
X104648686Y-121419642D01*
X104553448Y-121467261D01*
X104505829Y-121514880D01*
X104458210Y-121610119D01*
X104458210Y-121752976D01*
X104505829Y-121848214D01*
X104553448Y-121895833D01*
X104648686Y-121943452D01*
X104934400Y-121943452D01*
X105029638Y-121895833D01*
X105077257Y-121848214D01*
X105124876Y-121752976D01*
X105124876Y-121610119D01*
X105124876Y-123133928D02*
X104124876Y-123133928D01*
X104124876Y-123514880D01*
X104172496Y-123610119D01*
X104220115Y-123657738D01*
X104315353Y-123705357D01*
X104458210Y-123705357D01*
X104553448Y-123657738D01*
X104601067Y-123610119D01*
X104648686Y-123514880D01*
X104648686Y-123133928D01*
X105124876Y-124562500D02*
X104601067Y-124562500D01*
X104505829Y-124514880D01*
X104458210Y-124419642D01*
X104458210Y-124229166D01*
X104505829Y-124133928D01*
X105077257Y-124562500D02*
X105124876Y-124467261D01*
X105124876Y-124229166D01*
X105077257Y-124133928D01*
X104982019Y-124086309D01*
X104886781Y-124086309D01*
X104791543Y-124133928D01*
X104743924Y-124229166D01*
X104743924Y-124467261D01*
X104696305Y-124562500D01*
X105124876Y-125467261D02*
X104124876Y-125467261D01*
X105077257Y-125467261D02*
X105124876Y-125372023D01*
X105124876Y-125181547D01*
X105077257Y-125086309D01*
X105029638Y-125038690D01*
X104934400Y-124991071D01*
X104648686Y-124991071D01*
X104553448Y-125038690D01*
X104505829Y-125086309D01*
X104458210Y-125181547D01*
X104458210Y-125372023D01*
X104505829Y-125467261D01*
X106687257Y-114467261D02*
X106734876Y-114610119D01*
X106734876Y-114848214D01*
X106687257Y-114943452D01*
X106639638Y-114991071D01*
X106544400Y-115038690D01*
X106449162Y-115038690D01*
X106353924Y-114991071D01*
X106306305Y-114943452D01*
X106258686Y-114848214D01*
X106211067Y-114657738D01*
X106163448Y-114562500D01*
X106115829Y-114514880D01*
X106020591Y-114467261D01*
X105925353Y-114467261D01*
X105830115Y-114514880D01*
X105782496Y-114562500D01*
X105734876Y-114657738D01*
X105734876Y-114895833D01*
X105782496Y-115038690D01*
X106068210Y-115372023D02*
X106734876Y-115562500D01*
X106258686Y-115752976D01*
X106734876Y-115943452D01*
X106068210Y-116133928D01*
X106734876Y-116514880D02*
X106068210Y-116514880D01*
X105734876Y-116514880D02*
X105782496Y-116467261D01*
X105830115Y-116514880D01*
X105782496Y-116562500D01*
X105734876Y-116514880D01*
X105830115Y-116514880D01*
X106068210Y-116848214D02*
X106068210Y-117229166D01*
X105734876Y-116991071D02*
X106592019Y-116991071D01*
X106687257Y-117038690D01*
X106734876Y-117133928D01*
X106734876Y-117229166D01*
X106687257Y-117991071D02*
X106734876Y-117895833D01*
X106734876Y-117705357D01*
X106687257Y-117610119D01*
X106639638Y-117562500D01*
X106544400Y-117514880D01*
X106258686Y-117514880D01*
X106163448Y-117562500D01*
X106115829Y-117610119D01*
X106068210Y-117705357D01*
X106068210Y-117895833D01*
X106115829Y-117991071D01*
X106734876Y-118419642D02*
X105734876Y-118419642D01*
X106734876Y-118848214D02*
X106211067Y-118848214D01*
X106115829Y-118800595D01*
X106068210Y-118705357D01*
X106068210Y-118562500D01*
X106115829Y-118467261D01*
X106163448Y-118419642D01*
X106068210Y-119324404D02*
X107068210Y-119324404D01*
X106115829Y-119324404D02*
X106068210Y-119419642D01*
X106068210Y-119610119D01*
X106115829Y-119705357D01*
X106163448Y-119752976D01*
X106258686Y-119800595D01*
X106544400Y-119800595D01*
X106639638Y-119752976D01*
X106687257Y-119705357D01*
X106734876Y-119610119D01*
X106734876Y-119419642D01*
X106687257Y-119324404D01*
X106734876Y-120372023D02*
X106687257Y-120276785D01*
X106592019Y-120229166D01*
X105734876Y-120229166D01*
X106734876Y-121181547D02*
X106211067Y-121181547D01*
X106115829Y-121133928D01*
X106068210Y-121038690D01*
X106068210Y-120848214D01*
X106115829Y-120752976D01*
X106687257Y-121181547D02*
X106734876Y-121086309D01*
X106734876Y-120848214D01*
X106687257Y-120752976D01*
X106592019Y-120705357D01*
X106496781Y-120705357D01*
X106401543Y-120752976D01*
X106353924Y-120848214D01*
X106353924Y-121086309D01*
X106306305Y-121181547D01*
X106068210Y-121514880D02*
X106068210Y-121895833D01*
X105734876Y-121657738D02*
X106592019Y-121657738D01*
X106687257Y-121705357D01*
X106734876Y-121800595D01*
X106734876Y-121895833D01*
X106687257Y-122610119D02*
X106734876Y-122514880D01*
X106734876Y-122324404D01*
X106687257Y-122229166D01*
X106592019Y-122181547D01*
X106211067Y-122181547D01*
X106115829Y-122229166D01*
X106068210Y-122324404D01*
X106068210Y-122514880D01*
X106115829Y-122610119D01*
X106211067Y-122657738D01*
X106306305Y-122657738D01*
X106401543Y-122181547D01*
X108344876Y-115395833D02*
X107344876Y-115395833D01*
X107725829Y-115395833D02*
X107678210Y-115491071D01*
X107678210Y-115681547D01*
X107725829Y-115776785D01*
X107773448Y-115824404D01*
X107868686Y-115872023D01*
X108154400Y-115872023D01*
X108249638Y-115824404D01*
X108297257Y-115776785D01*
X108344876Y-115681547D01*
X108344876Y-115491071D01*
X108297257Y-115395833D01*
X107678210Y-116205357D02*
X108344876Y-116443452D01*
X107678210Y-116681547D02*
X108344876Y-116443452D01*
X108582972Y-116348214D01*
X108630591Y-116300595D01*
X108678210Y-116205357D01*
X107344876Y-118110119D02*
X108059162Y-118110119D01*
X108202019Y-118062500D01*
X108297257Y-117967261D01*
X108344876Y-117824404D01*
X108344876Y-117729166D01*
X108297257Y-118967261D02*
X108344876Y-118872023D01*
X108344876Y-118681547D01*
X108297257Y-118586309D01*
X108202019Y-118538690D01*
X107821067Y-118538690D01*
X107725829Y-118586309D01*
X107678210Y-118681547D01*
X107678210Y-118872023D01*
X107725829Y-118967261D01*
X107821067Y-119014880D01*
X107916305Y-119014880D01*
X108011543Y-118538690D01*
X107344876Y-119729166D02*
X108059162Y-119729166D01*
X108202019Y-119681547D01*
X108297257Y-119586309D01*
X108344876Y-119443452D01*
X108344876Y-119348214D01*
X108297257Y-120586309D02*
X108344876Y-120491071D01*
X108344876Y-120300595D01*
X108297257Y-120205357D01*
X108202019Y-120157738D01*
X107821067Y-120157738D01*
X107725829Y-120205357D01*
X107678210Y-120300595D01*
X107678210Y-120491071D01*
X107725829Y-120586309D01*
X107821067Y-120633928D01*
X107916305Y-120633928D01*
X108011543Y-120157738D01*
X107678210Y-120919642D02*
X107678210Y-121300595D01*
X108344876Y-121062500D02*
X107487734Y-121062500D01*
X107392496Y-121110119D01*
X107344876Y-121205357D01*
X107344876Y-121300595D01*
X107678210Y-121491071D02*
X107678210Y-121872023D01*
X108344876Y-121633928D02*
X107487734Y-121633928D01*
X107392496Y-121681547D01*
X107344876Y-121776785D01*
X107344876Y-121872023D01*
X109954876Y-116110119D02*
X109288210Y-116110119D01*
X109478686Y-116110119D02*
X109383448Y-116157738D01*
X109335829Y-116205357D01*
X109288210Y-116300595D01*
X109288210Y-116395833D01*
X109907257Y-117110119D02*
X109954876Y-117014880D01*
X109954876Y-116824404D01*
X109907257Y-116729166D01*
X109812019Y-116681547D01*
X109431067Y-116681547D01*
X109335829Y-116729166D01*
X109288210Y-116824404D01*
X109288210Y-117014880D01*
X109335829Y-117110119D01*
X109431067Y-117157738D01*
X109526305Y-117157738D01*
X109621543Y-116681547D01*
X109288210Y-117491071D02*
X109954876Y-117729166D01*
X109288210Y-117967261D01*
X108954876Y-119300595D02*
X108954876Y-119395833D01*
X109002496Y-119491071D01*
X109050115Y-119538690D01*
X109145353Y-119586309D01*
X109335829Y-119633928D01*
X109573924Y-119633928D01*
X109764400Y-119586309D01*
X109859638Y-119538690D01*
X109907257Y-119491071D01*
X109954876Y-119395833D01*
X109954876Y-119300595D01*
X109907257Y-119205357D01*
X109859638Y-119157738D01*
X109764400Y-119110119D01*
X109573924Y-119062500D01*
X109335829Y-119062500D01*
X109145353Y-119110119D01*
X109050115Y-119157738D01*
X109002496Y-119205357D01*
X108954876Y-119300595D01*
X109859638Y-120062500D02*
X109907257Y-120110119D01*
X109954876Y-120062500D01*
X109907257Y-120014880D01*
X109859638Y-120062500D01*
X109954876Y-120062500D01*
X108954876Y-120443452D02*
X108954876Y-121062500D01*
X109335829Y-120729166D01*
X109335829Y-120872023D01*
X109383448Y-120967261D01*
X109431067Y-121014880D01*
X109526305Y-121062500D01*
X109764400Y-121062500D01*
X109859638Y-121014880D01*
X109907257Y-120967261D01*
X109954876Y-120872023D01*
X109954876Y-120586309D01*
X109907257Y-120491071D01*
X109859638Y-120443452D01*
D11*
%TO.C,H3*%
X185862496Y-111168750D03*
%TD*%
%TO.C,H2*%
X147762496Y-125456250D03*
%TD*%
D12*
%TO.C,ENC1*%
X195387496Y-111462500D03*
X195387496Y-125162500D03*
D13*
X201137496Y-118312500D03*
X189637496Y-118312500D03*
%TD*%
D11*
%TO.C,H1*%
X109662496Y-111168750D03*
%TD*%
M02*
