%TF.GenerationSoftware,KiCad,Pcbnew,(5.99.0-12610-g07e01e6297)*%
%TF.CreationDate,2021-11-07T21:13:35+00:00*%
%TF.ProjectId,piccolo-switchplate,70696363-6f6c-46f2-9d73-776974636870,rev?*%
%TF.SameCoordinates,Original*%
%TF.FileFunction,Copper,L2,Bot*%
%TF.FilePolarity,Positive*%
%FSLAX46Y46*%
G04 Gerber Fmt 4.6, Leading zero omitted, Abs format (unit mm)*
G04 Created by KiCad (PCBNEW (5.99.0-12610-g07e01e6297)) date 2021-11-07 21:13:35*
%MOMM*%
%LPD*%
G01*
G04 APERTURE LIST*
%TA.AperFunction,ComponentPad*%
%ADD10C,2.800000*%
%TD*%
G04 APERTURE END LIST*
D10*
%TO.P,H3,*%
%TO.N,*%
X185862496Y-111168750D03*
%TD*%
%TO.P,H2,*%
%TO.N,*%
X147762496Y-125456250D03*
%TD*%
%TO.P,H1,*%
%TO.N,*%
X109662496Y-111168750D03*
%TD*%
%TA.AperFunction,NonConductor*%
G36*
X204882553Y-108503250D02*
G01*
X204897355Y-108505555D01*
X204897357Y-108505555D01*
X204906226Y-108506936D01*
X204915126Y-108505772D01*
X204924102Y-108505882D01*
X204924092Y-108506700D01*
X204945582Y-108506991D01*
X204965970Y-108510220D01*
X204981088Y-108512614D01*
X205018577Y-108524795D01*
X205062678Y-108547265D01*
X205094569Y-108570436D01*
X205129560Y-108605427D01*
X205152731Y-108637318D01*
X205175201Y-108681419D01*
X205187382Y-108718908D01*
X205192870Y-108753559D01*
X205194300Y-108773267D01*
X205193060Y-108781230D01*
X205194884Y-108795178D01*
X205197182Y-108812751D01*
X205198246Y-108829089D01*
X205198246Y-127788172D01*
X205196746Y-127807556D01*
X205193060Y-127831230D01*
X205194224Y-127840130D01*
X205194114Y-127849106D01*
X205193296Y-127849096D01*
X205193005Y-127870586D01*
X205187382Y-127906091D01*
X205175201Y-127943581D01*
X205152732Y-127987681D01*
X205129560Y-128019573D01*
X205094569Y-128054564D01*
X205062678Y-128077735D01*
X205018577Y-128100205D01*
X204981088Y-128112386D01*
X204946437Y-128117874D01*
X204926729Y-128119304D01*
X204918766Y-128118064D01*
X204887245Y-128122186D01*
X204870907Y-128123250D01*
X69929074Y-128123250D01*
X69909689Y-128121750D01*
X69894887Y-128119445D01*
X69894885Y-128119445D01*
X69886016Y-128118064D01*
X69877116Y-128119228D01*
X69868140Y-128119118D01*
X69868150Y-128118300D01*
X69846660Y-128118009D01*
X69826272Y-128114780D01*
X69811154Y-128112386D01*
X69773665Y-128100205D01*
X69729564Y-128077735D01*
X69697673Y-128054564D01*
X69662682Y-128019573D01*
X69639510Y-127987681D01*
X69617041Y-127943581D01*
X69604860Y-127906091D01*
X69600153Y-127876370D01*
X69599263Y-127850041D01*
X69599067Y-127850039D01*
X69599119Y-127845788D01*
X69599119Y-127845785D01*
X69599220Y-127837500D01*
X69595269Y-127809912D01*
X69593996Y-127792049D01*
X69593996Y-124178652D01*
X72284520Y-124178652D01*
X72286986Y-124187281D01*
X72286987Y-124187286D01*
X72292635Y-124207048D01*
X72296213Y-124223809D01*
X72299126Y-124244152D01*
X72299129Y-124244162D01*
X72300401Y-124253045D01*
X72311017Y-124276395D01*
X72317460Y-124293907D01*
X72324508Y-124318565D01*
X72340270Y-124343548D01*
X72348400Y-124358614D01*
X72360629Y-124385510D01*
X72377370Y-124404939D01*
X72388475Y-124419947D01*
X72402156Y-124441631D01*
X72408884Y-124447573D01*
X72424292Y-124461181D01*
X72436336Y-124473373D01*
X72455615Y-124495747D01*
X72463143Y-124500626D01*
X72463146Y-124500629D01*
X72477135Y-124509696D01*
X72492009Y-124520986D01*
X72511224Y-124537956D01*
X72519350Y-124541771D01*
X72519351Y-124541772D01*
X72525017Y-124544432D01*
X72537962Y-124550510D01*
X72552931Y-124558824D01*
X72577723Y-124574893D01*
X72594646Y-124579954D01*
X72602286Y-124582239D01*
X72619732Y-124588901D01*
X72642944Y-124599799D01*
X72672126Y-124604343D01*
X72688845Y-124608126D01*
X72708532Y-124614014D01*
X72708535Y-124614015D01*
X72717137Y-124616587D01*
X72726112Y-124616642D01*
X72726113Y-124616642D01*
X72732806Y-124616683D01*
X72751552Y-124616797D01*
X72752324Y-124616830D01*
X72753419Y-124617000D01*
X72784294Y-124617000D01*
X72785064Y-124617002D01*
X72858712Y-124617452D01*
X72858713Y-124617452D01*
X72862648Y-124617476D01*
X72863992Y-124617092D01*
X72865337Y-124617000D01*
X102584294Y-124617000D01*
X102585065Y-124617002D01*
X102662648Y-124617476D01*
X102671277Y-124615010D01*
X102671282Y-124615009D01*
X102691044Y-124609361D01*
X102707805Y-124605783D01*
X102728148Y-124602870D01*
X102728158Y-124602867D01*
X102737041Y-124601595D01*
X102760391Y-124590979D01*
X102777903Y-124584536D01*
X102793933Y-124579954D01*
X102802561Y-124577488D01*
X102827544Y-124561726D01*
X102842610Y-124553596D01*
X102869506Y-124541367D01*
X102888935Y-124524626D01*
X102903943Y-124513521D01*
X102918035Y-124504630D01*
X102925627Y-124499840D01*
X102945178Y-124477703D01*
X102957370Y-124465659D01*
X102972945Y-124452239D01*
X102972946Y-124452237D01*
X102979743Y-124446381D01*
X102984622Y-124438853D01*
X102984625Y-124438850D01*
X102993692Y-124424861D01*
X103004982Y-124409987D01*
X103016008Y-124397502D01*
X103021952Y-124390772D01*
X103034506Y-124364034D01*
X103042820Y-124349065D01*
X103058889Y-124324273D01*
X103066235Y-124299709D01*
X103072897Y-124282264D01*
X103079979Y-124267179D01*
X103083795Y-124259052D01*
X103088339Y-124229870D01*
X103092122Y-124213151D01*
X103098010Y-124193464D01*
X103098011Y-124193461D01*
X103100583Y-124184859D01*
X103100662Y-124172022D01*
X103100793Y-124150454D01*
X103100826Y-124149672D01*
X103100996Y-124148577D01*
X103100996Y-124117702D01*
X103100998Y-124116932D01*
X103101448Y-124043284D01*
X103101448Y-124043283D01*
X103101472Y-124039348D01*
X103101088Y-124038004D01*
X103100996Y-124036659D01*
X103100996Y-112407702D01*
X103100998Y-112406932D01*
X103101417Y-112338322D01*
X103101472Y-112329348D01*
X103099006Y-112320719D01*
X103099005Y-112320714D01*
X103093357Y-112300952D01*
X103089779Y-112284191D01*
X103086866Y-112263848D01*
X103086863Y-112263838D01*
X103085591Y-112254955D01*
X103074975Y-112231605D01*
X103068532Y-112214093D01*
X103063950Y-112198063D01*
X103061484Y-112189435D01*
X103045722Y-112164452D01*
X103037592Y-112149386D01*
X103025363Y-112122490D01*
X103008622Y-112103061D01*
X102997517Y-112088053D01*
X102988626Y-112073961D01*
X102983836Y-112066369D01*
X102961699Y-112046818D01*
X102949655Y-112034626D01*
X102936235Y-112019051D01*
X102936233Y-112019050D01*
X102930377Y-112012253D01*
X102922849Y-112007374D01*
X102922846Y-112007371D01*
X102908857Y-111998304D01*
X102893983Y-111987014D01*
X102881498Y-111975988D01*
X102874768Y-111970044D01*
X102866642Y-111966229D01*
X102866641Y-111966228D01*
X102860975Y-111963568D01*
X102848030Y-111957490D01*
X102833061Y-111949176D01*
X102808269Y-111933107D01*
X102783705Y-111925761D01*
X102766260Y-111919099D01*
X102761823Y-111917016D01*
X102743048Y-111908201D01*
X102713866Y-111903657D01*
X102697147Y-111899874D01*
X102677460Y-111893986D01*
X102677457Y-111893985D01*
X102668855Y-111891413D01*
X102659880Y-111891358D01*
X102659879Y-111891358D01*
X102653186Y-111891317D01*
X102634440Y-111891203D01*
X102633668Y-111891170D01*
X102632573Y-111891000D01*
X102601698Y-111891000D01*
X102600928Y-111890998D01*
X102527280Y-111890548D01*
X102527279Y-111890548D01*
X102523344Y-111890524D01*
X102522000Y-111890908D01*
X102520655Y-111891000D01*
X72801698Y-111891000D01*
X72800928Y-111890998D01*
X72800074Y-111890993D01*
X72723344Y-111890524D01*
X72714715Y-111892990D01*
X72714710Y-111892991D01*
X72694948Y-111898639D01*
X72678187Y-111902217D01*
X72657844Y-111905130D01*
X72657834Y-111905133D01*
X72648951Y-111906405D01*
X72625601Y-111917021D01*
X72608089Y-111923464D01*
X72600053Y-111925761D01*
X72583431Y-111930512D01*
X72558448Y-111946274D01*
X72543382Y-111954404D01*
X72516486Y-111966633D01*
X72497057Y-111983374D01*
X72482049Y-111994479D01*
X72460365Y-112008160D01*
X72454423Y-112014888D01*
X72440815Y-112030296D01*
X72428623Y-112042340D01*
X72406249Y-112061619D01*
X72401370Y-112069147D01*
X72401367Y-112069150D01*
X72392300Y-112083139D01*
X72381010Y-112098013D01*
X72364040Y-112117228D01*
X72351486Y-112143966D01*
X72343172Y-112158935D01*
X72327103Y-112183727D01*
X72324531Y-112192327D01*
X72319757Y-112208290D01*
X72313095Y-112225736D01*
X72302197Y-112248948D01*
X72297654Y-112278128D01*
X72293870Y-112294849D01*
X72287982Y-112314536D01*
X72287981Y-112314539D01*
X72285409Y-112323141D01*
X72285354Y-112332116D01*
X72285354Y-112332117D01*
X72285199Y-112357546D01*
X72285166Y-112358328D01*
X72284996Y-112359423D01*
X72284996Y-112390298D01*
X72284994Y-112391068D01*
X72284520Y-112468652D01*
X72284904Y-112469996D01*
X72284996Y-112471341D01*
X72284996Y-124100298D01*
X72284994Y-124101068D01*
X72284520Y-124178652D01*
X69593996Y-124178652D01*
X69593996Y-111108649D01*
X107750065Y-111108649D01*
X107752094Y-111160285D01*
X107757733Y-111303798D01*
X107760676Y-111378713D01*
X107809233Y-111644587D01*
X107810642Y-111648810D01*
X107891581Y-111891413D01*
X107894768Y-111900967D01*
X107950375Y-112012253D01*
X108006889Y-112125355D01*
X108015574Y-112142737D01*
X108018103Y-112146396D01*
X108150751Y-112338322D01*
X108169240Y-112365074D01*
X108352701Y-112563540D01*
X108562295Y-112734177D01*
X108793842Y-112873580D01*
X108797937Y-112875314D01*
X108797939Y-112875315D01*
X109038620Y-112977230D01*
X109038627Y-112977232D01*
X109042721Y-112978966D01*
X109138854Y-113004455D01*
X109299668Y-113047095D01*
X109299673Y-113047096D01*
X109303965Y-113048234D01*
X109308374Y-113048756D01*
X109308380Y-113048757D01*
X109457706Y-113066430D01*
X109572364Y-113080001D01*
X109842560Y-113073633D01*
X109846955Y-113072901D01*
X109846960Y-113072901D01*
X110104763Y-113029991D01*
X110104767Y-113029990D01*
X110109165Y-113029258D01*
X110277455Y-112976035D01*
X110362610Y-112949104D01*
X110362612Y-112949103D01*
X110366856Y-112947761D01*
X110370867Y-112945835D01*
X110370872Y-112945833D01*
X110606475Y-112832698D01*
X110606476Y-112832697D01*
X110610494Y-112830768D01*
X110759264Y-112731363D01*
X110831509Y-112683091D01*
X110831513Y-112683088D01*
X110835217Y-112680613D01*
X110838534Y-112677642D01*
X110838538Y-112677639D01*
X111033225Y-112503262D01*
X111036541Y-112500292D01*
X111210449Y-112293404D01*
X111232641Y-112257821D01*
X111351110Y-112067861D01*
X111351111Y-112067859D01*
X111353471Y-112064075D01*
X111355271Y-112060002D01*
X111355277Y-112059992D01*
X111438256Y-111872297D01*
X111484094Y-111818081D01*
X111551967Y-111797253D01*
X111620325Y-111816427D01*
X111667466Y-111869515D01*
X111679496Y-111923244D01*
X111679496Y-125303798D01*
X111679494Y-125304568D01*
X111679020Y-125382152D01*
X111681486Y-125390781D01*
X111681487Y-125390786D01*
X111687135Y-125410548D01*
X111690713Y-125427309D01*
X111693626Y-125447652D01*
X111693629Y-125447662D01*
X111694901Y-125456545D01*
X111705517Y-125479895D01*
X111711960Y-125497407D01*
X111719008Y-125522065D01*
X111734770Y-125547048D01*
X111742900Y-125562114D01*
X111755129Y-125589010D01*
X111771870Y-125608439D01*
X111782975Y-125623447D01*
X111796656Y-125645131D01*
X111803384Y-125651073D01*
X111818792Y-125664681D01*
X111830836Y-125676873D01*
X111850115Y-125699247D01*
X111857643Y-125704126D01*
X111857646Y-125704129D01*
X111871635Y-125713196D01*
X111886509Y-125724486D01*
X111905724Y-125741456D01*
X111913850Y-125745271D01*
X111913851Y-125745272D01*
X111919517Y-125747932D01*
X111932462Y-125754010D01*
X111947431Y-125762324D01*
X111972223Y-125778393D01*
X111989146Y-125783454D01*
X111996786Y-125785739D01*
X112014232Y-125792401D01*
X112037444Y-125803299D01*
X112066626Y-125807843D01*
X112083345Y-125811626D01*
X112103032Y-125817514D01*
X112103035Y-125817515D01*
X112111637Y-125820087D01*
X112120612Y-125820142D01*
X112120613Y-125820142D01*
X112127306Y-125820183D01*
X112146052Y-125820297D01*
X112146824Y-125820330D01*
X112147919Y-125820500D01*
X112178794Y-125820500D01*
X112179564Y-125820502D01*
X112253212Y-125820952D01*
X112253213Y-125820952D01*
X112257148Y-125820976D01*
X112258492Y-125820592D01*
X112259837Y-125820500D01*
X126178794Y-125820500D01*
X126179565Y-125820502D01*
X126257148Y-125820976D01*
X126265777Y-125818510D01*
X126265782Y-125818509D01*
X126285544Y-125812861D01*
X126302305Y-125809283D01*
X126322648Y-125806370D01*
X126322658Y-125806367D01*
X126331541Y-125805095D01*
X126354891Y-125794479D01*
X126372403Y-125788036D01*
X126388433Y-125783454D01*
X126397061Y-125780988D01*
X126422044Y-125765226D01*
X126437110Y-125757096D01*
X126464006Y-125744867D01*
X126483435Y-125728126D01*
X126498443Y-125717021D01*
X126512535Y-125708130D01*
X126520127Y-125703340D01*
X126539678Y-125681203D01*
X126551870Y-125669159D01*
X126567445Y-125655739D01*
X126567446Y-125655737D01*
X126574243Y-125649881D01*
X126579124Y-125642351D01*
X126579125Y-125642350D01*
X126588192Y-125628361D01*
X126599482Y-125613487D01*
X126610508Y-125601002D01*
X126616452Y-125594272D01*
X126629006Y-125567534D01*
X126637320Y-125552565D01*
X126653389Y-125527773D01*
X126660735Y-125503209D01*
X126667397Y-125485764D01*
X126674479Y-125470679D01*
X126678295Y-125462552D01*
X126682839Y-125433370D01*
X126686622Y-125416651D01*
X126692510Y-125396964D01*
X126692511Y-125396961D01*
X126695083Y-125388359D01*
X126695121Y-125382152D01*
X130729020Y-125382152D01*
X130731486Y-125390781D01*
X130731487Y-125390786D01*
X130737135Y-125410548D01*
X130740713Y-125427309D01*
X130743626Y-125447652D01*
X130743629Y-125447662D01*
X130744901Y-125456545D01*
X130755517Y-125479895D01*
X130761960Y-125497407D01*
X130769008Y-125522065D01*
X130784770Y-125547048D01*
X130792900Y-125562114D01*
X130805129Y-125589010D01*
X130821870Y-125608439D01*
X130832975Y-125623447D01*
X130846656Y-125645131D01*
X130853384Y-125651073D01*
X130868792Y-125664681D01*
X130880836Y-125676873D01*
X130900115Y-125699247D01*
X130907643Y-125704126D01*
X130907646Y-125704129D01*
X130921635Y-125713196D01*
X130936509Y-125724486D01*
X130955724Y-125741456D01*
X130963850Y-125745271D01*
X130963851Y-125745272D01*
X130969517Y-125747932D01*
X130982462Y-125754010D01*
X130997431Y-125762324D01*
X131022223Y-125778393D01*
X131039146Y-125783454D01*
X131046786Y-125785739D01*
X131064232Y-125792401D01*
X131087444Y-125803299D01*
X131116626Y-125807843D01*
X131133345Y-125811626D01*
X131153032Y-125817514D01*
X131153035Y-125817515D01*
X131161637Y-125820087D01*
X131170612Y-125820142D01*
X131170613Y-125820142D01*
X131177306Y-125820183D01*
X131196052Y-125820297D01*
X131196824Y-125820330D01*
X131197919Y-125820500D01*
X131228794Y-125820500D01*
X131229564Y-125820502D01*
X131303212Y-125820952D01*
X131303213Y-125820952D01*
X131307148Y-125820976D01*
X131308492Y-125820592D01*
X131309837Y-125820500D01*
X145228794Y-125820500D01*
X145229565Y-125820502D01*
X145307148Y-125820976D01*
X145315777Y-125818510D01*
X145315782Y-125818509D01*
X145335544Y-125812861D01*
X145352305Y-125809283D01*
X145372648Y-125806370D01*
X145372658Y-125806367D01*
X145381541Y-125805095D01*
X145404891Y-125794479D01*
X145422403Y-125788036D01*
X145438433Y-125783454D01*
X145447061Y-125780988D01*
X145472044Y-125765226D01*
X145487110Y-125757096D01*
X145514006Y-125744867D01*
X145533435Y-125728126D01*
X145548443Y-125717021D01*
X145562535Y-125708130D01*
X145570127Y-125703340D01*
X145589678Y-125681203D01*
X145601870Y-125669159D01*
X145617445Y-125655739D01*
X145617446Y-125655737D01*
X145624243Y-125649881D01*
X145629125Y-125642350D01*
X145633719Y-125635261D01*
X145687553Y-125588975D01*
X145757866Y-125579141D01*
X145822332Y-125608883D01*
X145860486Y-125668756D01*
X145863404Y-125681152D01*
X145907721Y-125923807D01*
X145909233Y-125932087D01*
X145994768Y-126188467D01*
X146115574Y-126430237D01*
X146118103Y-126433896D01*
X146222059Y-126584308D01*
X146269240Y-126652574D01*
X146452701Y-126851040D01*
X146662295Y-127021677D01*
X146893842Y-127161080D01*
X146897937Y-127162814D01*
X146897939Y-127162815D01*
X147138620Y-127264730D01*
X147138627Y-127264732D01*
X147142721Y-127266466D01*
X147238854Y-127291955D01*
X147399668Y-127334595D01*
X147399673Y-127334596D01*
X147403965Y-127335734D01*
X147408374Y-127336256D01*
X147408380Y-127336257D01*
X147557706Y-127353930D01*
X147672364Y-127367501D01*
X147942560Y-127361133D01*
X147946955Y-127360401D01*
X147946960Y-127360401D01*
X148204763Y-127317491D01*
X148204767Y-127317490D01*
X148209165Y-127316758D01*
X148377454Y-127263535D01*
X148462610Y-127236604D01*
X148462612Y-127236603D01*
X148466856Y-127235261D01*
X148470867Y-127233335D01*
X148470872Y-127233333D01*
X148706475Y-127120198D01*
X148706476Y-127120197D01*
X148710494Y-127118268D01*
X148859264Y-127018863D01*
X148931509Y-126970591D01*
X148931513Y-126970588D01*
X148935217Y-126968113D01*
X148938534Y-126965142D01*
X148938538Y-126965139D01*
X149133225Y-126790762D01*
X149136541Y-126787792D01*
X149310449Y-126580904D01*
X149453471Y-126351575D01*
X149562754Y-126104383D01*
X149636116Y-125844258D01*
X149641432Y-125804680D01*
X149657687Y-125683662D01*
X149686580Y-125618810D01*
X149745947Y-125579874D01*
X149816941Y-125579215D01*
X149877021Y-125617042D01*
X149889129Y-125633201D01*
X149896656Y-125645131D01*
X149903384Y-125651073D01*
X149918792Y-125664681D01*
X149930836Y-125676873D01*
X149950115Y-125699247D01*
X149957643Y-125704126D01*
X149957646Y-125704129D01*
X149971635Y-125713196D01*
X149986509Y-125724486D01*
X150005724Y-125741456D01*
X150013850Y-125745271D01*
X150013851Y-125745272D01*
X150019517Y-125747932D01*
X150032462Y-125754010D01*
X150047431Y-125762324D01*
X150072223Y-125778393D01*
X150089146Y-125783454D01*
X150096786Y-125785739D01*
X150114232Y-125792401D01*
X150137444Y-125803299D01*
X150166626Y-125807843D01*
X150183345Y-125811626D01*
X150203032Y-125817514D01*
X150203035Y-125817515D01*
X150211637Y-125820087D01*
X150220612Y-125820142D01*
X150220613Y-125820142D01*
X150227306Y-125820183D01*
X150246052Y-125820297D01*
X150246824Y-125820330D01*
X150247919Y-125820500D01*
X150278794Y-125820500D01*
X150279564Y-125820502D01*
X150353212Y-125820952D01*
X150353213Y-125820952D01*
X150357148Y-125820976D01*
X150358492Y-125820592D01*
X150359837Y-125820500D01*
X164278794Y-125820500D01*
X164279565Y-125820502D01*
X164357148Y-125820976D01*
X164365777Y-125818510D01*
X164365782Y-125818509D01*
X164385544Y-125812861D01*
X164402305Y-125809283D01*
X164422648Y-125806370D01*
X164422658Y-125806367D01*
X164431541Y-125805095D01*
X164454891Y-125794479D01*
X164472403Y-125788036D01*
X164488433Y-125783454D01*
X164497061Y-125780988D01*
X164522044Y-125765226D01*
X164537110Y-125757096D01*
X164564006Y-125744867D01*
X164583435Y-125728126D01*
X164598443Y-125717021D01*
X164612535Y-125708130D01*
X164620127Y-125703340D01*
X164639678Y-125681203D01*
X164651870Y-125669159D01*
X164667445Y-125655739D01*
X164667446Y-125655737D01*
X164674243Y-125649881D01*
X164679124Y-125642351D01*
X164679125Y-125642350D01*
X164688192Y-125628361D01*
X164699482Y-125613487D01*
X164710508Y-125601002D01*
X164716452Y-125594272D01*
X164729006Y-125567534D01*
X164737320Y-125552565D01*
X164753389Y-125527773D01*
X164760735Y-125503209D01*
X164767397Y-125485764D01*
X164774479Y-125470679D01*
X164778295Y-125462552D01*
X164782839Y-125433370D01*
X164786622Y-125416651D01*
X164792510Y-125396964D01*
X164792511Y-125396961D01*
X164795083Y-125388359D01*
X164795121Y-125382152D01*
X168829020Y-125382152D01*
X168831486Y-125390781D01*
X168831487Y-125390786D01*
X168837135Y-125410548D01*
X168840713Y-125427309D01*
X168843626Y-125447652D01*
X168843629Y-125447662D01*
X168844901Y-125456545D01*
X168855517Y-125479895D01*
X168861960Y-125497407D01*
X168869008Y-125522065D01*
X168884770Y-125547048D01*
X168892900Y-125562114D01*
X168905129Y-125589010D01*
X168921870Y-125608439D01*
X168932975Y-125623447D01*
X168946656Y-125645131D01*
X168953384Y-125651073D01*
X168968792Y-125664681D01*
X168980836Y-125676873D01*
X169000115Y-125699247D01*
X169007643Y-125704126D01*
X169007646Y-125704129D01*
X169021635Y-125713196D01*
X169036509Y-125724486D01*
X169055724Y-125741456D01*
X169063850Y-125745271D01*
X169063851Y-125745272D01*
X169069517Y-125747932D01*
X169082462Y-125754010D01*
X169097431Y-125762324D01*
X169122223Y-125778393D01*
X169139146Y-125783454D01*
X169146786Y-125785739D01*
X169164232Y-125792401D01*
X169187444Y-125803299D01*
X169216626Y-125807843D01*
X169233345Y-125811626D01*
X169253032Y-125817514D01*
X169253035Y-125817515D01*
X169261637Y-125820087D01*
X169270612Y-125820142D01*
X169270613Y-125820142D01*
X169277306Y-125820183D01*
X169296052Y-125820297D01*
X169296824Y-125820330D01*
X169297919Y-125820500D01*
X169328794Y-125820500D01*
X169329564Y-125820502D01*
X169403212Y-125820952D01*
X169403213Y-125820952D01*
X169407148Y-125820976D01*
X169408492Y-125820592D01*
X169409837Y-125820500D01*
X183328794Y-125820500D01*
X183329565Y-125820502D01*
X183407148Y-125820976D01*
X183415777Y-125818510D01*
X183415782Y-125818509D01*
X183435544Y-125812861D01*
X183452305Y-125809283D01*
X183472648Y-125806370D01*
X183472658Y-125806367D01*
X183481541Y-125805095D01*
X183504891Y-125794479D01*
X183522403Y-125788036D01*
X183538433Y-125783454D01*
X183547061Y-125780988D01*
X183572044Y-125765226D01*
X183587110Y-125757096D01*
X183614006Y-125744867D01*
X183633435Y-125728126D01*
X183648443Y-125717021D01*
X183662535Y-125708130D01*
X183670127Y-125703340D01*
X183689678Y-125681203D01*
X183701870Y-125669159D01*
X183717445Y-125655739D01*
X183717446Y-125655737D01*
X183724243Y-125649881D01*
X183729124Y-125642351D01*
X183729125Y-125642350D01*
X183738192Y-125628361D01*
X183749482Y-125613487D01*
X183760508Y-125601002D01*
X183766452Y-125594272D01*
X183779006Y-125567534D01*
X183787320Y-125552565D01*
X183803389Y-125527773D01*
X183810735Y-125503209D01*
X183817397Y-125485764D01*
X183824479Y-125470679D01*
X183828295Y-125462552D01*
X183832839Y-125433370D01*
X183836622Y-125416651D01*
X183842510Y-125396964D01*
X183842511Y-125396961D01*
X183845083Y-125388359D01*
X183845293Y-125353944D01*
X183845326Y-125353172D01*
X183845496Y-125352077D01*
X183845496Y-125321202D01*
X183845498Y-125320432D01*
X183845948Y-125246784D01*
X183845948Y-125246783D01*
X183845972Y-125242848D01*
X183845588Y-125241504D01*
X183845496Y-125240159D01*
X183845496Y-111929609D01*
X183865498Y-111861488D01*
X183919154Y-111814995D01*
X183989428Y-111804891D01*
X184054008Y-111834385D01*
X184091019Y-111889732D01*
X184093354Y-111896730D01*
X184094768Y-111900967D01*
X184150375Y-112012253D01*
X184206889Y-112125355D01*
X184215574Y-112142737D01*
X184218103Y-112146396D01*
X184350751Y-112338322D01*
X184369240Y-112365074D01*
X184552701Y-112563540D01*
X184762295Y-112734177D01*
X184993842Y-112873580D01*
X184997937Y-112875314D01*
X184997939Y-112875315D01*
X185238620Y-112977230D01*
X185238627Y-112977232D01*
X185242721Y-112978966D01*
X185338854Y-113004455D01*
X185499668Y-113047095D01*
X185499673Y-113047096D01*
X185503965Y-113048234D01*
X185508374Y-113048756D01*
X185508380Y-113048757D01*
X185657706Y-113066430D01*
X185772364Y-113080001D01*
X186042560Y-113073633D01*
X186046955Y-113072901D01*
X186046960Y-113072901D01*
X186304763Y-113029991D01*
X186304767Y-113029990D01*
X186309165Y-113029258D01*
X186477455Y-112976035D01*
X186562610Y-112949104D01*
X186562612Y-112949103D01*
X186566856Y-112947761D01*
X186570867Y-112945835D01*
X186570872Y-112945833D01*
X186806475Y-112832698D01*
X186806476Y-112832697D01*
X186810494Y-112830768D01*
X186959264Y-112731363D01*
X187031509Y-112683091D01*
X187031513Y-112683088D01*
X187035217Y-112680613D01*
X187038534Y-112677642D01*
X187038538Y-112677639D01*
X187233225Y-112503262D01*
X187236541Y-112500292D01*
X187410449Y-112293404D01*
X187432641Y-112257821D01*
X187551110Y-112067861D01*
X187551111Y-112067859D01*
X187553471Y-112064075D01*
X187555271Y-112060002D01*
X187555277Y-112059992D01*
X187638256Y-111872297D01*
X187684094Y-111818081D01*
X187751967Y-111797253D01*
X187820325Y-111816427D01*
X187867466Y-111869515D01*
X187879496Y-111923244D01*
X187879496Y-125303798D01*
X187879494Y-125304568D01*
X187879020Y-125382152D01*
X187881486Y-125390781D01*
X187881487Y-125390786D01*
X187887135Y-125410548D01*
X187890713Y-125427309D01*
X187893626Y-125447652D01*
X187893629Y-125447662D01*
X187894901Y-125456545D01*
X187905517Y-125479895D01*
X187911960Y-125497407D01*
X187919008Y-125522065D01*
X187934770Y-125547048D01*
X187942900Y-125562114D01*
X187955129Y-125589010D01*
X187971870Y-125608439D01*
X187982975Y-125623447D01*
X187996656Y-125645131D01*
X188003384Y-125651073D01*
X188018792Y-125664681D01*
X188030836Y-125676873D01*
X188050115Y-125699247D01*
X188057643Y-125704126D01*
X188057646Y-125704129D01*
X188071635Y-125713196D01*
X188086509Y-125724486D01*
X188105724Y-125741456D01*
X188113850Y-125745271D01*
X188113851Y-125745272D01*
X188119517Y-125747932D01*
X188132462Y-125754010D01*
X188147431Y-125762324D01*
X188172223Y-125778393D01*
X188189146Y-125783454D01*
X188196786Y-125785739D01*
X188214232Y-125792401D01*
X188237444Y-125803299D01*
X188266626Y-125807843D01*
X188283345Y-125811626D01*
X188303032Y-125817514D01*
X188303035Y-125817515D01*
X188311637Y-125820087D01*
X188320612Y-125820142D01*
X188320613Y-125820142D01*
X188327306Y-125820183D01*
X188346052Y-125820297D01*
X188346824Y-125820330D01*
X188347919Y-125820500D01*
X188378794Y-125820500D01*
X188379564Y-125820502D01*
X188453212Y-125820952D01*
X188453213Y-125820952D01*
X188457148Y-125820976D01*
X188458492Y-125820592D01*
X188459837Y-125820500D01*
X189226178Y-125820500D01*
X189289463Y-125837546D01*
X189326655Y-125859149D01*
X189326657Y-125859150D01*
X189332986Y-125862826D01*
X189339990Y-125864947D01*
X189339994Y-125864949D01*
X189342071Y-125865578D01*
X189362847Y-125873951D01*
X189371304Y-125878269D01*
X189433991Y-125893608D01*
X189440508Y-125895391D01*
X189502263Y-125914095D01*
X189511513Y-125914669D01*
X189511742Y-125914683D01*
X189533879Y-125918051D01*
X189537650Y-125918974D01*
X189537662Y-125918976D01*
X189543106Y-125920308D01*
X189550957Y-125920795D01*
X189552321Y-125920880D01*
X189552331Y-125920880D01*
X189554260Y-125921000D01*
X189609661Y-125921000D01*
X189617462Y-125921242D01*
X189678794Y-125925047D01*
X189691756Y-125922820D01*
X189713092Y-125921000D01*
X201109661Y-125921000D01*
X201117462Y-125921242D01*
X201178794Y-125925047D01*
X201242385Y-125914120D01*
X201249106Y-125913152D01*
X201270031Y-125910712D01*
X201305907Y-125906530D01*
X201305910Y-125906529D01*
X201313177Y-125905682D01*
X201322103Y-125902442D01*
X201343754Y-125896701D01*
X201353110Y-125895094D01*
X201412492Y-125869827D01*
X201418785Y-125867348D01*
X201479433Y-125845333D01*
X201485850Y-125841126D01*
X201486077Y-125841058D01*
X201492102Y-125838041D01*
X201492633Y-125839101D01*
X201554932Y-125820500D01*
X202378794Y-125820500D01*
X202379565Y-125820502D01*
X202457148Y-125820976D01*
X202465777Y-125818510D01*
X202465782Y-125818509D01*
X202485544Y-125812861D01*
X202502305Y-125809283D01*
X202522648Y-125806370D01*
X202522658Y-125806367D01*
X202531541Y-125805095D01*
X202554891Y-125794479D01*
X202572403Y-125788036D01*
X202588433Y-125783454D01*
X202597061Y-125780988D01*
X202622044Y-125765226D01*
X202637110Y-125757096D01*
X202664006Y-125744867D01*
X202683435Y-125728126D01*
X202698443Y-125717021D01*
X202712535Y-125708130D01*
X202720127Y-125703340D01*
X202739678Y-125681203D01*
X202751870Y-125669159D01*
X202767445Y-125655739D01*
X202767446Y-125655737D01*
X202774243Y-125649881D01*
X202779124Y-125642351D01*
X202779125Y-125642350D01*
X202788192Y-125628361D01*
X202799482Y-125613487D01*
X202810508Y-125601002D01*
X202816452Y-125594272D01*
X202829006Y-125567534D01*
X202837320Y-125552565D01*
X202853389Y-125527773D01*
X202860735Y-125503209D01*
X202867397Y-125485764D01*
X202874479Y-125470679D01*
X202878295Y-125462552D01*
X202882839Y-125433370D01*
X202886622Y-125416651D01*
X202892510Y-125396964D01*
X202892511Y-125396961D01*
X202895083Y-125388359D01*
X202895293Y-125353944D01*
X202895326Y-125353172D01*
X202895496Y-125352077D01*
X202895496Y-125321202D01*
X202895498Y-125320432D01*
X202895948Y-125246784D01*
X202895948Y-125246783D01*
X202895972Y-125242848D01*
X202895588Y-125241504D01*
X202895496Y-125240159D01*
X202895496Y-111321202D01*
X202895498Y-111320432D01*
X202895917Y-111251822D01*
X202895972Y-111242848D01*
X202893506Y-111234219D01*
X202893505Y-111234214D01*
X202887857Y-111214452D01*
X202884279Y-111197691D01*
X202881366Y-111177348D01*
X202881363Y-111177338D01*
X202880091Y-111168455D01*
X202869475Y-111145105D01*
X202863032Y-111127593D01*
X202858450Y-111111563D01*
X202855984Y-111102935D01*
X202840222Y-111077952D01*
X202832092Y-111062886D01*
X202819863Y-111035990D01*
X202803122Y-111016561D01*
X202792017Y-111001553D01*
X202783126Y-110987461D01*
X202778336Y-110979869D01*
X202756199Y-110960318D01*
X202744155Y-110948126D01*
X202730735Y-110932551D01*
X202730733Y-110932550D01*
X202724877Y-110925753D01*
X202717349Y-110920874D01*
X202717346Y-110920871D01*
X202703357Y-110911804D01*
X202688483Y-110900514D01*
X202675998Y-110889488D01*
X202669268Y-110883544D01*
X202661142Y-110879729D01*
X202661141Y-110879728D01*
X202655475Y-110877068D01*
X202642530Y-110870990D01*
X202627561Y-110862676D01*
X202602769Y-110846607D01*
X202578205Y-110839261D01*
X202560760Y-110832599D01*
X202556323Y-110830516D01*
X202537548Y-110821701D01*
X202508366Y-110817157D01*
X202491647Y-110813374D01*
X202471960Y-110807486D01*
X202471957Y-110807485D01*
X202463355Y-110804913D01*
X202454380Y-110804858D01*
X202454379Y-110804858D01*
X202447686Y-110804817D01*
X202428940Y-110804703D01*
X202428168Y-110804670D01*
X202427073Y-110804500D01*
X202396198Y-110804500D01*
X202395428Y-110804498D01*
X202321780Y-110804048D01*
X202321779Y-110804048D01*
X202317844Y-110804024D01*
X202316500Y-110804408D01*
X202315155Y-110804500D01*
X201548814Y-110804500D01*
X201485529Y-110787454D01*
X201448337Y-110765851D01*
X201448335Y-110765850D01*
X201442006Y-110762174D01*
X201435002Y-110760053D01*
X201434998Y-110760051D01*
X201432921Y-110759422D01*
X201412145Y-110751049D01*
X201403688Y-110746731D01*
X201341001Y-110731392D01*
X201334484Y-110729609D01*
X201272729Y-110710905D01*
X201263479Y-110710331D01*
X201263250Y-110710317D01*
X201241113Y-110706949D01*
X201237342Y-110706026D01*
X201237330Y-110706024D01*
X201231886Y-110704692D01*
X201224035Y-110704205D01*
X201222671Y-110704120D01*
X201222661Y-110704120D01*
X201220732Y-110704000D01*
X201165331Y-110704000D01*
X201157529Y-110703758D01*
X201096198Y-110699953D01*
X201083236Y-110702180D01*
X201061900Y-110704000D01*
X189665331Y-110704000D01*
X189657529Y-110703758D01*
X189596198Y-110699953D01*
X189532607Y-110710880D01*
X189525886Y-110711848D01*
X189504961Y-110714288D01*
X189469085Y-110718470D01*
X189469082Y-110718471D01*
X189461815Y-110719318D01*
X189452889Y-110722558D01*
X189431238Y-110728299D01*
X189421882Y-110729906D01*
X189362500Y-110755173D01*
X189356207Y-110757652D01*
X189295559Y-110779667D01*
X189289142Y-110783874D01*
X189288915Y-110783942D01*
X189282890Y-110786959D01*
X189282359Y-110785899D01*
X189220060Y-110804500D01*
X188396198Y-110804500D01*
X188395428Y-110804498D01*
X188394574Y-110804493D01*
X188317844Y-110804024D01*
X188309215Y-110806490D01*
X188309210Y-110806491D01*
X188289448Y-110812139D01*
X188272687Y-110815717D01*
X188252344Y-110818630D01*
X188252334Y-110818633D01*
X188243451Y-110819905D01*
X188220101Y-110830521D01*
X188202589Y-110836964D01*
X188194553Y-110839261D01*
X188177931Y-110844012D01*
X188152948Y-110859774D01*
X188137882Y-110867904D01*
X188110986Y-110880133D01*
X188091557Y-110896874D01*
X188076549Y-110907979D01*
X188054865Y-110921660D01*
X188048923Y-110928388D01*
X188035315Y-110943796D01*
X188023123Y-110955840D01*
X188000749Y-110975119D01*
X187995868Y-110982650D01*
X187995867Y-110982651D01*
X187990479Y-110990963D01*
X187936643Y-111037248D01*
X187866331Y-111047079D01*
X187801865Y-111017336D01*
X187763713Y-110957461D01*
X187759061Y-110931330D01*
X187758377Y-110921660D01*
X187756783Y-110899153D01*
X187699898Y-110634935D01*
X187680297Y-110581803D01*
X187607893Y-110385546D01*
X187606352Y-110381369D01*
X187577006Y-110326981D01*
X187480125Y-110147428D01*
X187480125Y-110147427D01*
X187478012Y-110143512D01*
X187317438Y-109926112D01*
X187127834Y-109733506D01*
X187051052Y-109674908D01*
X186916524Y-109572239D01*
X186916520Y-109572237D01*
X186912983Y-109569537D01*
X186677171Y-109437477D01*
X186425105Y-109339960D01*
X186420780Y-109338957D01*
X186420775Y-109338956D01*
X186315244Y-109314496D01*
X186161814Y-109278932D01*
X185892550Y-109255611D01*
X185888115Y-109255855D01*
X185888111Y-109255855D01*
X185627130Y-109270218D01*
X185627123Y-109270219D01*
X185622687Y-109270463D01*
X185491118Y-109296633D01*
X185361980Y-109322320D01*
X185361975Y-109322321D01*
X185357608Y-109323190D01*
X185353405Y-109324666D01*
X185106811Y-109411263D01*
X185106808Y-109411264D01*
X185102603Y-109412741D01*
X185098650Y-109414794D01*
X185098644Y-109414797D01*
X185054984Y-109437477D01*
X184862760Y-109537330D01*
X184859145Y-109539913D01*
X184859139Y-109539917D01*
X184646486Y-109691881D01*
X184646482Y-109691884D01*
X184642865Y-109694469D01*
X184447304Y-109881025D01*
X184279981Y-110093274D01*
X184277749Y-110097116D01*
X184277746Y-110097121D01*
X184146470Y-110323127D01*
X184146467Y-110323134D01*
X184144232Y-110326981D01*
X184042768Y-110577485D01*
X184041697Y-110581798D01*
X184041695Y-110581803D01*
X183982867Y-110818630D01*
X183977612Y-110839785D01*
X183977159Y-110844211D01*
X183977158Y-110844214D01*
X183967632Y-110937190D01*
X183940791Y-111002917D01*
X183882676Y-111043699D01*
X183811738Y-111046587D01*
X183750499Y-111010665D01*
X183735726Y-110991582D01*
X183728336Y-110979869D01*
X183706199Y-110960318D01*
X183694155Y-110948126D01*
X183680735Y-110932551D01*
X183680733Y-110932550D01*
X183674877Y-110925753D01*
X183667349Y-110920874D01*
X183667346Y-110920871D01*
X183653357Y-110911804D01*
X183638483Y-110900514D01*
X183625998Y-110889488D01*
X183619268Y-110883544D01*
X183611142Y-110879729D01*
X183611141Y-110879728D01*
X183605475Y-110877068D01*
X183592530Y-110870990D01*
X183577561Y-110862676D01*
X183552769Y-110846607D01*
X183528205Y-110839261D01*
X183510760Y-110832599D01*
X183506323Y-110830516D01*
X183487548Y-110821701D01*
X183458366Y-110817157D01*
X183441647Y-110813374D01*
X183421960Y-110807486D01*
X183421957Y-110807485D01*
X183413355Y-110804913D01*
X183404380Y-110804858D01*
X183404379Y-110804858D01*
X183397686Y-110804817D01*
X183378940Y-110804703D01*
X183378168Y-110804670D01*
X183377073Y-110804500D01*
X183346198Y-110804500D01*
X183345428Y-110804498D01*
X183271780Y-110804048D01*
X183271779Y-110804048D01*
X183267844Y-110804024D01*
X183266500Y-110804408D01*
X183265155Y-110804500D01*
X169346198Y-110804500D01*
X169345428Y-110804498D01*
X169344574Y-110804493D01*
X169267844Y-110804024D01*
X169259215Y-110806490D01*
X169259210Y-110806491D01*
X169239448Y-110812139D01*
X169222687Y-110815717D01*
X169202344Y-110818630D01*
X169202334Y-110818633D01*
X169193451Y-110819905D01*
X169170101Y-110830521D01*
X169152589Y-110836964D01*
X169144553Y-110839261D01*
X169127931Y-110844012D01*
X169102948Y-110859774D01*
X169087882Y-110867904D01*
X169060986Y-110880133D01*
X169041557Y-110896874D01*
X169026549Y-110907979D01*
X169004865Y-110921660D01*
X168998923Y-110928388D01*
X168985315Y-110943796D01*
X168973123Y-110955840D01*
X168950749Y-110975119D01*
X168945870Y-110982647D01*
X168945867Y-110982650D01*
X168936800Y-110996639D01*
X168925510Y-111011513D01*
X168908540Y-111030728D01*
X168895986Y-111057466D01*
X168887672Y-111072435D01*
X168871603Y-111097227D01*
X168869031Y-111105827D01*
X168864257Y-111121790D01*
X168857595Y-111139236D01*
X168846697Y-111162448D01*
X168842154Y-111191628D01*
X168838370Y-111208349D01*
X168832482Y-111228036D01*
X168832481Y-111228039D01*
X168829909Y-111236641D01*
X168829854Y-111245616D01*
X168829854Y-111245617D01*
X168829699Y-111271046D01*
X168829666Y-111271828D01*
X168829496Y-111272923D01*
X168829496Y-111303798D01*
X168829494Y-111304568D01*
X168829020Y-111382152D01*
X168829404Y-111383496D01*
X168829496Y-111384841D01*
X168829496Y-125303798D01*
X168829494Y-125304568D01*
X168829020Y-125382152D01*
X164795121Y-125382152D01*
X164795293Y-125353944D01*
X164795326Y-125353172D01*
X164795496Y-125352077D01*
X164795496Y-125321202D01*
X164795498Y-125320432D01*
X164795948Y-125246784D01*
X164795948Y-125246783D01*
X164795972Y-125242848D01*
X164795588Y-125241504D01*
X164795496Y-125240159D01*
X164795496Y-111321202D01*
X164795498Y-111320432D01*
X164795917Y-111251822D01*
X164795972Y-111242848D01*
X164793506Y-111234219D01*
X164793505Y-111234214D01*
X164787857Y-111214452D01*
X164784279Y-111197691D01*
X164781366Y-111177348D01*
X164781363Y-111177338D01*
X164780091Y-111168455D01*
X164769475Y-111145105D01*
X164763032Y-111127593D01*
X164758450Y-111111563D01*
X164755984Y-111102935D01*
X164740222Y-111077952D01*
X164732092Y-111062886D01*
X164719863Y-111035990D01*
X164703122Y-111016561D01*
X164692017Y-111001553D01*
X164683126Y-110987461D01*
X164678336Y-110979869D01*
X164656199Y-110960318D01*
X164644155Y-110948126D01*
X164630735Y-110932551D01*
X164630733Y-110932550D01*
X164624877Y-110925753D01*
X164617349Y-110920874D01*
X164617346Y-110920871D01*
X164603357Y-110911804D01*
X164588483Y-110900514D01*
X164575998Y-110889488D01*
X164569268Y-110883544D01*
X164561142Y-110879729D01*
X164561141Y-110879728D01*
X164555475Y-110877068D01*
X164542530Y-110870990D01*
X164527561Y-110862676D01*
X164502769Y-110846607D01*
X164478205Y-110839261D01*
X164460760Y-110832599D01*
X164456323Y-110830516D01*
X164437548Y-110821701D01*
X164408366Y-110817157D01*
X164391647Y-110813374D01*
X164371960Y-110807486D01*
X164371957Y-110807485D01*
X164363355Y-110804913D01*
X164354380Y-110804858D01*
X164354379Y-110804858D01*
X164347686Y-110804817D01*
X164328940Y-110804703D01*
X164328168Y-110804670D01*
X164327073Y-110804500D01*
X164296198Y-110804500D01*
X164295428Y-110804498D01*
X164221780Y-110804048D01*
X164221779Y-110804048D01*
X164217844Y-110804024D01*
X164216500Y-110804408D01*
X164215155Y-110804500D01*
X150296198Y-110804500D01*
X150295428Y-110804498D01*
X150294574Y-110804493D01*
X150217844Y-110804024D01*
X150209215Y-110806490D01*
X150209210Y-110806491D01*
X150189448Y-110812139D01*
X150172687Y-110815717D01*
X150152344Y-110818630D01*
X150152334Y-110818633D01*
X150143451Y-110819905D01*
X150120101Y-110830521D01*
X150102589Y-110836964D01*
X150094553Y-110839261D01*
X150077931Y-110844012D01*
X150052948Y-110859774D01*
X150037882Y-110867904D01*
X150010986Y-110880133D01*
X149991557Y-110896874D01*
X149976549Y-110907979D01*
X149954865Y-110921660D01*
X149948923Y-110928388D01*
X149935315Y-110943796D01*
X149923123Y-110955840D01*
X149900749Y-110975119D01*
X149895870Y-110982647D01*
X149895867Y-110982650D01*
X149886800Y-110996639D01*
X149875510Y-111011513D01*
X149858540Y-111030728D01*
X149845986Y-111057466D01*
X149837672Y-111072435D01*
X149821603Y-111097227D01*
X149819031Y-111105827D01*
X149814257Y-111121790D01*
X149807595Y-111139236D01*
X149796697Y-111162448D01*
X149792154Y-111191628D01*
X149788370Y-111208349D01*
X149782482Y-111228036D01*
X149782481Y-111228039D01*
X149779909Y-111236641D01*
X149779854Y-111245616D01*
X149779854Y-111245617D01*
X149779699Y-111271046D01*
X149779666Y-111271828D01*
X149779496Y-111272923D01*
X149779496Y-111303798D01*
X149779494Y-111304568D01*
X149779020Y-111382152D01*
X149779404Y-111383496D01*
X149779496Y-111384841D01*
X149779496Y-124703681D01*
X149759494Y-124771802D01*
X149705838Y-124818295D01*
X149635564Y-124828399D01*
X149570984Y-124798905D01*
X149535284Y-124747292D01*
X149507893Y-124673046D01*
X149506352Y-124668869D01*
X149476754Y-124614014D01*
X149380125Y-124434928D01*
X149380125Y-124434927D01*
X149378012Y-124431012D01*
X149217438Y-124213612D01*
X149210977Y-124207048D01*
X149105890Y-124100298D01*
X149027834Y-124021006D01*
X148951052Y-123962408D01*
X148816524Y-123859739D01*
X148816520Y-123859737D01*
X148812983Y-123857037D01*
X148577171Y-123724977D01*
X148325105Y-123627460D01*
X148320780Y-123626457D01*
X148320775Y-123626456D01*
X148215244Y-123601996D01*
X148061814Y-123566432D01*
X147792550Y-123543111D01*
X147788115Y-123543355D01*
X147788111Y-123543355D01*
X147527130Y-123557718D01*
X147527123Y-123557719D01*
X147522687Y-123557963D01*
X147391118Y-123584133D01*
X147261980Y-123609820D01*
X147261975Y-123609821D01*
X147257608Y-123610690D01*
X147253405Y-123612166D01*
X147006811Y-123698763D01*
X147006808Y-123698764D01*
X147002603Y-123700241D01*
X146998650Y-123702294D01*
X146998644Y-123702297D01*
X146954984Y-123724977D01*
X146762760Y-123824830D01*
X146759145Y-123827413D01*
X146759139Y-123827417D01*
X146546486Y-123979381D01*
X146546482Y-123979384D01*
X146542865Y-123981969D01*
X146539645Y-123985041D01*
X146401045Y-124117259D01*
X146347304Y-124168525D01*
X146224523Y-124324273D01*
X146203607Y-124350805D01*
X146179981Y-124380774D01*
X146177749Y-124384616D01*
X146177746Y-124384621D01*
X146046470Y-124610627D01*
X146046467Y-124610634D01*
X146044232Y-124614481D01*
X146008103Y-124703681D01*
X145988280Y-124752621D01*
X145944168Y-124808250D01*
X145876982Y-124831199D01*
X145808055Y-124814183D01*
X145759270Y-124762602D01*
X145745496Y-124705319D01*
X145745496Y-111321202D01*
X145745498Y-111320432D01*
X145745917Y-111251822D01*
X145745972Y-111242848D01*
X145743506Y-111234219D01*
X145743505Y-111234214D01*
X145737857Y-111214452D01*
X145734279Y-111197691D01*
X145731366Y-111177348D01*
X145731363Y-111177338D01*
X145730091Y-111168455D01*
X145719475Y-111145105D01*
X145713032Y-111127593D01*
X145708450Y-111111563D01*
X145705984Y-111102935D01*
X145690222Y-111077952D01*
X145682092Y-111062886D01*
X145669863Y-111035990D01*
X145653122Y-111016561D01*
X145642017Y-111001553D01*
X145633126Y-110987461D01*
X145628336Y-110979869D01*
X145606199Y-110960318D01*
X145594155Y-110948126D01*
X145580735Y-110932551D01*
X145580733Y-110932550D01*
X145574877Y-110925753D01*
X145567349Y-110920874D01*
X145567346Y-110920871D01*
X145553357Y-110911804D01*
X145538483Y-110900514D01*
X145525998Y-110889488D01*
X145519268Y-110883544D01*
X145511142Y-110879729D01*
X145511141Y-110879728D01*
X145505475Y-110877068D01*
X145492530Y-110870990D01*
X145477561Y-110862676D01*
X145452769Y-110846607D01*
X145428205Y-110839261D01*
X145410760Y-110832599D01*
X145406323Y-110830516D01*
X145387548Y-110821701D01*
X145358366Y-110817157D01*
X145341647Y-110813374D01*
X145321960Y-110807486D01*
X145321957Y-110807485D01*
X145313355Y-110804913D01*
X145304380Y-110804858D01*
X145304379Y-110804858D01*
X145297686Y-110804817D01*
X145278940Y-110804703D01*
X145278168Y-110804670D01*
X145277073Y-110804500D01*
X145246198Y-110804500D01*
X145245428Y-110804498D01*
X145171780Y-110804048D01*
X145171779Y-110804048D01*
X145167844Y-110804024D01*
X145166500Y-110804408D01*
X145165155Y-110804500D01*
X131246198Y-110804500D01*
X131245428Y-110804498D01*
X131244574Y-110804493D01*
X131167844Y-110804024D01*
X131159215Y-110806490D01*
X131159210Y-110806491D01*
X131139448Y-110812139D01*
X131122687Y-110815717D01*
X131102344Y-110818630D01*
X131102334Y-110818633D01*
X131093451Y-110819905D01*
X131070101Y-110830521D01*
X131052589Y-110836964D01*
X131044553Y-110839261D01*
X131027931Y-110844012D01*
X131002948Y-110859774D01*
X130987882Y-110867904D01*
X130960986Y-110880133D01*
X130941557Y-110896874D01*
X130926549Y-110907979D01*
X130904865Y-110921660D01*
X130898923Y-110928388D01*
X130885315Y-110943796D01*
X130873123Y-110955840D01*
X130850749Y-110975119D01*
X130845870Y-110982647D01*
X130845867Y-110982650D01*
X130836800Y-110996639D01*
X130825510Y-111011513D01*
X130808540Y-111030728D01*
X130795986Y-111057466D01*
X130787672Y-111072435D01*
X130771603Y-111097227D01*
X130769031Y-111105827D01*
X130764257Y-111121790D01*
X130757595Y-111139236D01*
X130746697Y-111162448D01*
X130742154Y-111191628D01*
X130738370Y-111208349D01*
X130732482Y-111228036D01*
X130732481Y-111228039D01*
X130729909Y-111236641D01*
X130729854Y-111245616D01*
X130729854Y-111245617D01*
X130729699Y-111271046D01*
X130729666Y-111271828D01*
X130729496Y-111272923D01*
X130729496Y-111303798D01*
X130729494Y-111304568D01*
X130729020Y-111382152D01*
X130729404Y-111383496D01*
X130729496Y-111384841D01*
X130729496Y-125303798D01*
X130729494Y-125304568D01*
X130729020Y-125382152D01*
X126695121Y-125382152D01*
X126695293Y-125353944D01*
X126695326Y-125353172D01*
X126695496Y-125352077D01*
X126695496Y-125321202D01*
X126695498Y-125320432D01*
X126695948Y-125246784D01*
X126695948Y-125246783D01*
X126695972Y-125242848D01*
X126695588Y-125241504D01*
X126695496Y-125240159D01*
X126695496Y-111321202D01*
X126695498Y-111320432D01*
X126695917Y-111251822D01*
X126695972Y-111242848D01*
X126693506Y-111234219D01*
X126693505Y-111234214D01*
X126687857Y-111214452D01*
X126684279Y-111197691D01*
X126681366Y-111177348D01*
X126681363Y-111177338D01*
X126680091Y-111168455D01*
X126669475Y-111145105D01*
X126663032Y-111127593D01*
X126658450Y-111111563D01*
X126655984Y-111102935D01*
X126640222Y-111077952D01*
X126632092Y-111062886D01*
X126619863Y-111035990D01*
X126603122Y-111016561D01*
X126592017Y-111001553D01*
X126583126Y-110987461D01*
X126578336Y-110979869D01*
X126556199Y-110960318D01*
X126544155Y-110948126D01*
X126530735Y-110932551D01*
X126530733Y-110932550D01*
X126524877Y-110925753D01*
X126517349Y-110920874D01*
X126517346Y-110920871D01*
X126503357Y-110911804D01*
X126488483Y-110900514D01*
X126475998Y-110889488D01*
X126469268Y-110883544D01*
X126461142Y-110879729D01*
X126461141Y-110879728D01*
X126455475Y-110877068D01*
X126442530Y-110870990D01*
X126427561Y-110862676D01*
X126402769Y-110846607D01*
X126378205Y-110839261D01*
X126360760Y-110832599D01*
X126356323Y-110830516D01*
X126337548Y-110821701D01*
X126308366Y-110817157D01*
X126291647Y-110813374D01*
X126271960Y-110807486D01*
X126271957Y-110807485D01*
X126263355Y-110804913D01*
X126254380Y-110804858D01*
X126254379Y-110804858D01*
X126247686Y-110804817D01*
X126228940Y-110804703D01*
X126228168Y-110804670D01*
X126227073Y-110804500D01*
X126196198Y-110804500D01*
X126195428Y-110804498D01*
X126121780Y-110804048D01*
X126121779Y-110804048D01*
X126117844Y-110804024D01*
X126116500Y-110804408D01*
X126115155Y-110804500D01*
X112196198Y-110804500D01*
X112195428Y-110804498D01*
X112194574Y-110804493D01*
X112117844Y-110804024D01*
X112109215Y-110806490D01*
X112109210Y-110806491D01*
X112089448Y-110812139D01*
X112072687Y-110815717D01*
X112052344Y-110818630D01*
X112052334Y-110818633D01*
X112043451Y-110819905D01*
X112020101Y-110830521D01*
X112002589Y-110836964D01*
X111994553Y-110839261D01*
X111977931Y-110844012D01*
X111952948Y-110859774D01*
X111937882Y-110867904D01*
X111910986Y-110880133D01*
X111891557Y-110896874D01*
X111876549Y-110907979D01*
X111854865Y-110921660D01*
X111848923Y-110928388D01*
X111835315Y-110943796D01*
X111823123Y-110955840D01*
X111800749Y-110975119D01*
X111795868Y-110982650D01*
X111795867Y-110982651D01*
X111790479Y-110990963D01*
X111736643Y-111037248D01*
X111666331Y-111047079D01*
X111601865Y-111017336D01*
X111563713Y-110957461D01*
X111559061Y-110931330D01*
X111558377Y-110921660D01*
X111556783Y-110899153D01*
X111499898Y-110634935D01*
X111480297Y-110581803D01*
X111407893Y-110385546D01*
X111406352Y-110381369D01*
X111377006Y-110326981D01*
X111280125Y-110147428D01*
X111280125Y-110147427D01*
X111278012Y-110143512D01*
X111117438Y-109926112D01*
X110927834Y-109733506D01*
X110851052Y-109674908D01*
X110716524Y-109572239D01*
X110716520Y-109572237D01*
X110712983Y-109569537D01*
X110477171Y-109437477D01*
X110225105Y-109339960D01*
X110220780Y-109338957D01*
X110220775Y-109338956D01*
X110115244Y-109314496D01*
X109961814Y-109278932D01*
X109692550Y-109255611D01*
X109688115Y-109255855D01*
X109688111Y-109255855D01*
X109427130Y-109270218D01*
X109427123Y-109270219D01*
X109422687Y-109270463D01*
X109291118Y-109296633D01*
X109161980Y-109322320D01*
X109161975Y-109322321D01*
X109157608Y-109323190D01*
X109153405Y-109324666D01*
X108906811Y-109411263D01*
X108906808Y-109411264D01*
X108902603Y-109412741D01*
X108898650Y-109414794D01*
X108898644Y-109414797D01*
X108854984Y-109437477D01*
X108662760Y-109537330D01*
X108659145Y-109539913D01*
X108659139Y-109539917D01*
X108446486Y-109691881D01*
X108446482Y-109691884D01*
X108442865Y-109694469D01*
X108247304Y-109881025D01*
X108079981Y-110093274D01*
X108077749Y-110097116D01*
X108077746Y-110097121D01*
X107946470Y-110323127D01*
X107946467Y-110323134D01*
X107944232Y-110326981D01*
X107842768Y-110577485D01*
X107841697Y-110581798D01*
X107841695Y-110581803D01*
X107782867Y-110818630D01*
X107777612Y-110839785D01*
X107777158Y-110844213D01*
X107777158Y-110844215D01*
X107754513Y-111065236D01*
X107750065Y-111108649D01*
X69593996Y-111108649D01*
X69593996Y-108840707D01*
X69595742Y-108819803D01*
X69598260Y-108804835D01*
X69599067Y-108800039D01*
X69599220Y-108787500D01*
X69598531Y-108782689D01*
X69598345Y-108779837D01*
X69599629Y-108751936D01*
X69604860Y-108718908D01*
X69617041Y-108681419D01*
X69639511Y-108637318D01*
X69662682Y-108605427D01*
X69697673Y-108570436D01*
X69729564Y-108547265D01*
X69773665Y-108524795D01*
X69811154Y-108512614D01*
X69845805Y-108507126D01*
X69865513Y-108505696D01*
X69873476Y-108506936D01*
X69904998Y-108502814D01*
X69921335Y-108501750D01*
X204863168Y-108501750D01*
X204882553Y-108503250D01*
G37*
%TD.AperFunction*%
M02*
