M48
; DRILL file {KiCad (5.99.0-12610-g07e01e6297)} date Mon Oct 18 15:22:30 2021
; FORMAT={-:-/ absolute / inch / decimal}
; #@! TF.CreationDate,2021-10-18T15:22:30+01:00
; #@! TF.GenerationSoftware,Kicad,Pcbnew,(5.99.0-12610-g07e01e6297)
; #@! TF.FileFunction,NonPlated,1,2,NPTH
FMAT,2
INCH
; #@! TA.AperFunction,NonPlated,NPTH,ComponentDrill
T1C0.0197
%
G90
G05
T1
G00X4.4267Y-4.3922
M15
G01X4.4267Y-4.9237
M16
G05
G00X4.4267Y-4.3922
M15
G01X4.9582Y-4.3922
M16
G05
G00X4.4267Y-4.9237
M15
G01X4.9582Y-4.9237
M16
G05
G00X4.9582Y-4.3922
M15
G01X4.9582Y-4.9237
M16
G05
G00X5.1767Y-4.3922
M15
G01X5.1767Y-4.9237
M16
G05
G00X5.1767Y-4.3922
M15
G01X5.7082Y-4.3922
M16
G05
G00X5.1767Y-4.9237
M15
G01X5.7082Y-4.9237
M16
G05
G00X5.7082Y-4.3922
M15
G01X5.7082Y-4.9237
M16
G05
G00X5.9267Y-4.3922
M15
G01X5.9267Y-4.9237
M16
G05
G00X5.9267Y-4.3922
M15
G01X6.4582Y-4.3922
M16
G05
G00X5.9267Y-4.9237
M15
G01X6.4582Y-4.9237
M16
G05
G00X6.4582Y-4.3922
M15
G01X6.4582Y-4.9237
M16
G05
G00X6.6767Y-4.3922
M15
G01X6.6767Y-4.9237
M16
G05
G00X6.6767Y-4.3922
M15
G01X7.2082Y-4.3922
M16
G05
G00X6.6767Y-4.9237
M15
G01X7.2082Y-4.9237
M16
G05
G00X7.2082Y-4.3922
M15
G01X7.2082Y-4.9237
M16
G05
G00X7.4267Y-4.3922
M15
G01X7.4267Y-4.9237
M16
G05
G00X7.466Y-4.9277
M15
G01X7.466Y-4.3883
M16
G05
G00X7.466Y-4.3883
M15
G01X7.9188Y-4.3883
M16
G05
G00X7.4267Y-4.3922
M15
G01X7.9582Y-4.3922
M16
G05
G00X7.4267Y-4.9237
M15
G01X7.9582Y-4.9237
M16
G05
G00X7.466Y-4.9277
M15
G01X7.9188Y-4.9277
M16
G05
G00X7.9188Y-4.9277
M15
G01X7.9188Y-4.3883
M16
G05
G00X7.9582Y-4.3922
M15
G01X7.9582Y-4.9237
M16
G05
T0
M30
