M48
; DRILL file {KiCad (5.1.10)-1} date 09/25/21 16:03:40
; FORMAT={-:-/ absolute / inch / decimal}
; #@! TF.CreationDate,2021-09-25T16:03:40+01:00
; #@! TF.GenerationSoftware,Kicad,Pcbnew,(5.1.10)-1
; #@! TF.FileFunction,Plated,1,2,PTH
FMAT,2
INCH
T1C0.0157
T2C0.0320
T3C0.0394
T4C0.0512
%
G90
G05
T1
X6.7512Y-3.745
X6.98Y-3.195
X7.595Y-3.6513
T2
X5.4312Y-3.1953
X5.4312Y-3.7946
X5.5312Y-3.1953
X5.5312Y-3.7946
X5.6312Y-3.1953
X5.6312Y-3.7946
X5.7313Y-3.1953
X5.7313Y-3.7946
X5.8312Y-3.1953
X5.8312Y-3.7946
X5.9312Y-3.1953
X5.9312Y-3.7946
X6.0312Y-3.1953
X6.0312Y-3.7946
X6.1312Y-3.1953
X6.1312Y-3.7946
X6.2313Y-3.1953
X6.2313Y-3.7946
X6.3312Y-3.1953
X6.3312Y-3.7946
X6.4312Y-3.1953
X6.4312Y-3.7946
X6.5312Y-3.1953
X6.5312Y-3.7946
T3
X6.0012Y-3.3415
X6.0012Y-3.6485
X6.7512Y-3.3415
X6.7512Y-3.6485
X7.5012Y-3.3415
X7.5012Y-3.6485
X8.2513Y-3.3415
X8.2513Y-3.6485
X8.5591Y-3.1794
X8.5591Y-3.7503
X8.6575Y-3.7503
X8.7559Y-3.1794
X8.7559Y-3.7503
X8.97Y-3.404
X8.97Y-3.711
T4
X7.0295Y-3.8075
X7.2855Y-3.8075
T0
M30
