%TF.GenerationSoftware,KiCad,Pcbnew,(5.1.10)-1*%
%TF.CreationDate,2021-09-25T16:03:37+01:00*%
%TF.ProjectId,piccolo-mini,70696363-6f6c-46f2-9d6d-696e692e6b69,rev?*%
%TF.SameCoordinates,Original*%
%TF.FileFunction,Legend,Bot*%
%TF.FilePolarity,Positive*%
%FSLAX46Y46*%
G04 Gerber Fmt 4.6, Leading zero omitted, Abs format (unit mm)*
G04 Created by KiCad (PCBNEW (5.1.10)-1) date 2021-09-25 16:03:37*
%MOMM*%
%LPD*%
G01*
G04 APERTURE LIST*
%ADD10C,0.150000*%
%ADD11C,1.000000*%
%ADD12C,0.400000*%
%ADD13C,0.500000*%
%ADD14C,3.500000*%
%ADD15C,3.000000*%
%ADD16C,0.800000*%
%ADD17C,0.300000*%
G04 APERTURE END LIST*
D10*
%TO.C,SW1*%
X184650500Y-98310500D02*
X178950500Y-98310500D01*
X178950500Y-98310500D02*
X178950500Y-98060500D01*
X184650500Y-98310500D02*
X184650500Y-98060500D01*
X184650500Y-95110500D02*
X184650500Y-95360500D01*
X184650500Y-95110500D02*
X178950500Y-95110500D01*
X178950500Y-95110500D02*
X178950500Y-95360500D01*
%TO.C,MX5*%
X217284182Y-87651529D02*
G75*
G02*
X219500500Y-85773000I2151318J-291471D01*
G01*
X214000500Y-84073001D02*
G75*
G02*
X216100499Y-82173000I2000000J-99999D01*
G01*
D11*
X216884182Y-87251529D02*
G75*
G02*
X219100500Y-85373000I2151318J-291471D01*
G01*
D12*
X224150500Y-82373000D02*
X222900500Y-82373000D01*
D13*
X214450500Y-87473000D02*
X216900500Y-87473000D01*
D10*
X224300500Y-82173000D02*
X216100499Y-82173000D01*
X219500500Y-85773000D02*
X224300500Y-85773000D01*
X214250500Y-87673000D02*
X217280500Y-87673000D01*
X214000500Y-84073000D02*
X214000500Y-84823000D01*
X214250500Y-83223000D02*
X214250500Y-87673000D01*
X214000500Y-84823000D02*
X214200500Y-84823000D01*
X224280500Y-84773000D02*
X224280500Y-82523000D01*
X224300500Y-85773000D02*
X224300500Y-82173000D01*
D14*
X222500500Y-83973000D02*
X215800500Y-83973000D01*
D11*
X223800500Y-82773000D02*
X223800500Y-85273000D01*
D13*
X224100500Y-85523000D02*
X222800500Y-85473000D01*
D15*
X215730500Y-83673000D02*
X215730500Y-85913000D01*
D16*
X214600500Y-87173000D02*
X214600500Y-85373001D01*
D17*
X214100500Y-84723000D02*
X214100500Y-84073000D01*
D10*
%TO.C,MX4*%
X198234182Y-87651529D02*
G75*
G02*
X200450500Y-85773000I2151318J-291471D01*
G01*
X194950500Y-84073001D02*
G75*
G02*
X197050499Y-82173000I2000000J-99999D01*
G01*
D11*
X197834182Y-87251529D02*
G75*
G02*
X200050500Y-85373000I2151318J-291471D01*
G01*
D12*
X205100500Y-82373000D02*
X203850500Y-82373000D01*
D13*
X195400500Y-87473000D02*
X197850500Y-87473000D01*
D10*
X205250500Y-82173000D02*
X197050499Y-82173000D01*
X200450500Y-85773000D02*
X205250500Y-85773000D01*
X195200500Y-87673000D02*
X198230500Y-87673000D01*
X194950500Y-84073000D02*
X194950500Y-84823000D01*
X195200500Y-83223000D02*
X195200500Y-87673000D01*
X194950500Y-84823000D02*
X195150500Y-84823000D01*
X205230500Y-84773000D02*
X205230500Y-82523000D01*
X205250500Y-85773000D02*
X205250500Y-82173000D01*
D14*
X203450500Y-83973000D02*
X196750500Y-83973000D01*
D11*
X204750500Y-82773000D02*
X204750500Y-85273000D01*
D13*
X205050500Y-85523000D02*
X203750500Y-85473000D01*
D15*
X196680500Y-83673000D02*
X196680500Y-85913000D01*
D16*
X195550500Y-87173000D02*
X195550500Y-85373001D01*
D17*
X195050500Y-84723000D02*
X195050500Y-84073000D01*
D10*
%TO.C,MX3*%
X179184182Y-87651529D02*
G75*
G02*
X181400500Y-85773000I2151318J-291471D01*
G01*
X175900500Y-84073001D02*
G75*
G02*
X178000499Y-82173000I2000000J-99999D01*
G01*
D11*
X178784182Y-87251529D02*
G75*
G02*
X181000500Y-85373000I2151318J-291471D01*
G01*
D12*
X186050500Y-82373000D02*
X184800500Y-82373000D01*
D13*
X176350500Y-87473000D02*
X178800500Y-87473000D01*
D10*
X186200500Y-82173000D02*
X178000499Y-82173000D01*
X181400500Y-85773000D02*
X186200500Y-85773000D01*
X176150500Y-87673000D02*
X179180500Y-87673000D01*
X175900500Y-84073000D02*
X175900500Y-84823000D01*
X176150500Y-83223000D02*
X176150500Y-87673000D01*
X175900500Y-84823000D02*
X176100500Y-84823000D01*
X186180500Y-84773000D02*
X186180500Y-82523000D01*
X186200500Y-85773000D02*
X186200500Y-82173000D01*
D14*
X184400500Y-83973000D02*
X177700500Y-83973000D01*
D11*
X185700500Y-82773000D02*
X185700500Y-85273000D01*
D13*
X186000500Y-85523000D02*
X184700500Y-85473000D01*
D15*
X177630500Y-83673000D02*
X177630500Y-85913000D01*
D16*
X176500500Y-87173000D02*
X176500500Y-85373001D01*
D17*
X176000500Y-84723000D02*
X176000500Y-84073000D01*
D10*
%TO.C,MX2*%
X160134182Y-87651529D02*
G75*
G02*
X162350500Y-85773000I2151318J-291471D01*
G01*
X156850500Y-84073001D02*
G75*
G02*
X158950499Y-82173000I2000000J-99999D01*
G01*
D11*
X159734182Y-87251529D02*
G75*
G02*
X161950500Y-85373000I2151318J-291471D01*
G01*
D12*
X167000500Y-82373000D02*
X165750500Y-82373000D01*
D13*
X157300500Y-87473000D02*
X159750500Y-87473000D01*
D10*
X167150500Y-82173000D02*
X158950499Y-82173000D01*
X162350500Y-85773000D02*
X167150500Y-85773000D01*
X157100500Y-87673000D02*
X160130500Y-87673000D01*
X156850500Y-84073000D02*
X156850500Y-84823000D01*
X157100500Y-83223000D02*
X157100500Y-87673000D01*
X156850500Y-84823000D02*
X157050500Y-84823000D01*
X167130500Y-84773000D02*
X167130500Y-82523000D01*
X167150500Y-85773000D02*
X167150500Y-82173000D01*
D14*
X165350500Y-83973000D02*
X158650500Y-83973000D01*
D11*
X166650500Y-82773000D02*
X166650500Y-85273000D01*
D13*
X166950500Y-85523000D02*
X165650500Y-85473000D01*
D15*
X158580500Y-83673000D02*
X158580500Y-85913000D01*
D16*
X157450500Y-87173000D02*
X157450500Y-85373001D01*
D17*
X156950500Y-84723000D02*
X156950500Y-84073000D01*
D10*
%TO.C,MX1*%
X141084182Y-87651529D02*
G75*
G02*
X143300500Y-85773000I2151318J-291471D01*
G01*
X137800500Y-84073001D02*
G75*
G02*
X139900499Y-82173000I2000000J-99999D01*
G01*
D11*
X140684182Y-87251529D02*
G75*
G02*
X142900500Y-85373000I2151318J-291471D01*
G01*
D12*
X147950500Y-82373000D02*
X146700500Y-82373000D01*
D13*
X138250500Y-87473000D02*
X140700500Y-87473000D01*
D10*
X148100500Y-82173000D02*
X139900499Y-82173000D01*
X143300500Y-85773000D02*
X148100500Y-85773000D01*
X138050500Y-87673000D02*
X141080500Y-87673000D01*
X137800500Y-84073000D02*
X137800500Y-84823000D01*
X138050500Y-83223000D02*
X138050500Y-87673000D01*
X137800500Y-84823000D02*
X138000500Y-84823000D01*
X148080500Y-84773000D02*
X148080500Y-82523000D01*
X148100500Y-85773000D02*
X148100500Y-82173000D01*
D14*
X146300500Y-83973000D02*
X139600500Y-83973000D01*
D11*
X147600500Y-82773000D02*
X147600500Y-85273000D01*
D13*
X147900500Y-85523000D02*
X146600500Y-85473000D01*
D15*
X139530500Y-83673000D02*
X139530500Y-85913000D01*
D16*
X138400500Y-87173000D02*
X138400500Y-85373001D01*
D17*
X137900500Y-84723000D02*
X137900500Y-84073000D01*
D10*
%TO.C,D5*%
X227076000Y-92138500D02*
X228600000Y-92138500D01*
X227076000Y-92265500D02*
X228600000Y-92265500D01*
X228600000Y-92392500D02*
X227076000Y-92392500D01*
X227076000Y-92773500D02*
X228600000Y-92773500D01*
X228600000Y-92646500D02*
X227076000Y-92646500D01*
X227076000Y-92519500D02*
X228600000Y-92519500D01*
X228600000Y-87820500D02*
X227076000Y-87820500D01*
X228600000Y-92900500D02*
X228600000Y-87820500D01*
X227076000Y-92900500D02*
X228600000Y-92900500D01*
X227076000Y-87820500D02*
X227076000Y-92900500D01*
%TO.C,D4*%
X208819750Y-90551000D02*
X210343750Y-90551000D01*
X208819750Y-90678000D02*
X210343750Y-90678000D01*
X210343750Y-90805000D02*
X208819750Y-90805000D01*
X208819750Y-91186000D02*
X210343750Y-91186000D01*
X210343750Y-91059000D02*
X208819750Y-91059000D01*
X208819750Y-90932000D02*
X210343750Y-90932000D01*
X210343750Y-86233000D02*
X208819750Y-86233000D01*
X210343750Y-91313000D02*
X210343750Y-86233000D01*
X208819750Y-91313000D02*
X210343750Y-91313000D01*
X208819750Y-86233000D02*
X208819750Y-91313000D01*
%TO.C,D3*%
X189769750Y-90551000D02*
X191293750Y-90551000D01*
X189769750Y-90678000D02*
X191293750Y-90678000D01*
X191293750Y-90805000D02*
X189769750Y-90805000D01*
X189769750Y-91186000D02*
X191293750Y-91186000D01*
X191293750Y-91059000D02*
X189769750Y-91059000D01*
X189769750Y-90932000D02*
X191293750Y-90932000D01*
X191293750Y-86233000D02*
X189769750Y-86233000D01*
X191293750Y-91313000D02*
X191293750Y-86233000D01*
X189769750Y-91313000D02*
X191293750Y-91313000D01*
X189769750Y-86233000D02*
X189769750Y-91313000D01*
%TO.C,D2*%
X170719750Y-90551000D02*
X172243750Y-90551000D01*
X170719750Y-90678000D02*
X172243750Y-90678000D01*
X172243750Y-90805000D02*
X170719750Y-90805000D01*
X170719750Y-91186000D02*
X172243750Y-91186000D01*
X172243750Y-91059000D02*
X170719750Y-91059000D01*
X170719750Y-90932000D02*
X172243750Y-90932000D01*
X172243750Y-86233000D02*
X170719750Y-86233000D01*
X172243750Y-91313000D02*
X172243750Y-86233000D01*
X170719750Y-91313000D02*
X172243750Y-91313000D01*
X170719750Y-86233000D02*
X170719750Y-91313000D01*
%TO.C,D1*%
X151669750Y-90551000D02*
X153193750Y-90551000D01*
X151669750Y-90678000D02*
X153193750Y-90678000D01*
X153193750Y-90805000D02*
X151669750Y-90805000D01*
X151669750Y-91186000D02*
X153193750Y-91186000D01*
X153193750Y-91059000D02*
X151669750Y-91059000D01*
X151669750Y-90932000D02*
X153193750Y-90932000D01*
X153193750Y-86233000D02*
X151669750Y-86233000D01*
X153193750Y-91313000D02*
X153193750Y-86233000D01*
X151669750Y-91313000D02*
X153193750Y-91313000D01*
X151669750Y-86233000D02*
X151669750Y-91313000D01*
%TO.C,SW1*%
X183252880Y-97162880D02*
X183586214Y-96686690D01*
X183824309Y-97162880D02*
X183824309Y-96162880D01*
X183443357Y-96162880D01*
X183348119Y-96210500D01*
X183300500Y-96258119D01*
X183252880Y-96353357D01*
X183252880Y-96496214D01*
X183300500Y-96591452D01*
X183348119Y-96639071D01*
X183443357Y-96686690D01*
X183824309Y-96686690D01*
X182824309Y-96639071D02*
X182490976Y-96639071D01*
X182348119Y-97162880D02*
X182824309Y-97162880D01*
X182824309Y-96162880D01*
X182348119Y-96162880D01*
X181967166Y-97115261D02*
X181824309Y-97162880D01*
X181586214Y-97162880D01*
X181490976Y-97115261D01*
X181443357Y-97067642D01*
X181395738Y-96972404D01*
X181395738Y-96877166D01*
X181443357Y-96781928D01*
X181490976Y-96734309D01*
X181586214Y-96686690D01*
X181776690Y-96639071D01*
X181871928Y-96591452D01*
X181919547Y-96543833D01*
X181967166Y-96448595D01*
X181967166Y-96353357D01*
X181919547Y-96258119D01*
X181871928Y-96210500D01*
X181776690Y-96162880D01*
X181538595Y-96162880D01*
X181395738Y-96210500D01*
X180967166Y-96639071D02*
X180633833Y-96639071D01*
X180490976Y-97162880D02*
X180967166Y-97162880D01*
X180967166Y-96162880D01*
X180490976Y-96162880D01*
X180205261Y-96162880D02*
X179633833Y-96162880D01*
X179919547Y-97162880D02*
X179919547Y-96162880D01*
%TO.C,D5*%
X226799904Y-89744623D02*
X225999904Y-89744623D01*
X225999904Y-89935100D01*
X226038000Y-90049385D01*
X226114190Y-90125576D01*
X226190380Y-90163671D01*
X226342761Y-90201766D01*
X226457047Y-90201766D01*
X226609428Y-90163671D01*
X226685619Y-90125576D01*
X226761809Y-90049385D01*
X226799904Y-89935100D01*
X226799904Y-89744623D01*
X225999904Y-90925576D02*
X225999904Y-90544623D01*
X226380857Y-90506528D01*
X226342761Y-90544623D01*
X226304666Y-90620814D01*
X226304666Y-90811290D01*
X226342761Y-90887480D01*
X226380857Y-90925576D01*
X226457047Y-90963671D01*
X226647523Y-90963671D01*
X226723714Y-90925576D01*
X226761809Y-90887480D01*
X226799904Y-90811290D01*
X226799904Y-90620814D01*
X226761809Y-90544623D01*
X226723714Y-90506528D01*
%TO.C,D4*%
X208543654Y-88157123D02*
X207743654Y-88157123D01*
X207743654Y-88347600D01*
X207781750Y-88461885D01*
X207857940Y-88538076D01*
X207934130Y-88576171D01*
X208086511Y-88614266D01*
X208200797Y-88614266D01*
X208353178Y-88576171D01*
X208429369Y-88538076D01*
X208505559Y-88461885D01*
X208543654Y-88347600D01*
X208543654Y-88157123D01*
X208010321Y-89299980D02*
X208543654Y-89299980D01*
X207705559Y-89109504D02*
X208276988Y-88919028D01*
X208276988Y-89414266D01*
%TO.C,D3*%
X189493654Y-88157123D02*
X188693654Y-88157123D01*
X188693654Y-88347600D01*
X188731750Y-88461885D01*
X188807940Y-88538076D01*
X188884130Y-88576171D01*
X189036511Y-88614266D01*
X189150797Y-88614266D01*
X189303178Y-88576171D01*
X189379369Y-88538076D01*
X189455559Y-88461885D01*
X189493654Y-88347600D01*
X189493654Y-88157123D01*
X188693654Y-88880933D02*
X188693654Y-89376171D01*
X188998416Y-89109504D01*
X188998416Y-89223790D01*
X189036511Y-89299980D01*
X189074607Y-89338076D01*
X189150797Y-89376171D01*
X189341273Y-89376171D01*
X189417464Y-89338076D01*
X189455559Y-89299980D01*
X189493654Y-89223790D01*
X189493654Y-88995219D01*
X189455559Y-88919028D01*
X189417464Y-88880933D01*
%TO.C,D2*%
X170443654Y-88157123D02*
X169643654Y-88157123D01*
X169643654Y-88347600D01*
X169681750Y-88461885D01*
X169757940Y-88538076D01*
X169834130Y-88576171D01*
X169986511Y-88614266D01*
X170100797Y-88614266D01*
X170253178Y-88576171D01*
X170329369Y-88538076D01*
X170405559Y-88461885D01*
X170443654Y-88347600D01*
X170443654Y-88157123D01*
X169719845Y-88919028D02*
X169681750Y-88957123D01*
X169643654Y-89033314D01*
X169643654Y-89223790D01*
X169681750Y-89299980D01*
X169719845Y-89338076D01*
X169796035Y-89376171D01*
X169872226Y-89376171D01*
X169986511Y-89338076D01*
X170443654Y-88880933D01*
X170443654Y-89376171D01*
%TO.C,D1*%
X151393654Y-88157123D02*
X150593654Y-88157123D01*
X150593654Y-88347600D01*
X150631750Y-88461885D01*
X150707940Y-88538076D01*
X150784130Y-88576171D01*
X150936511Y-88614266D01*
X151050797Y-88614266D01*
X151203178Y-88576171D01*
X151279369Y-88538076D01*
X151355559Y-88461885D01*
X151393654Y-88347600D01*
X151393654Y-88157123D01*
X151393654Y-89376171D02*
X151393654Y-88919028D01*
X151393654Y-89147600D02*
X150593654Y-89147600D01*
X150707940Y-89071409D01*
X150784130Y-88995219D01*
X150822226Y-88919028D01*
%TD*%
M02*
