%TF.GenerationSoftware,KiCad,Pcbnew,(5.1.10)-1*%
%TF.CreationDate,2021-09-25T16:03:37+01:00*%
%TF.ProjectId,piccolo-mini,70696363-6f6c-46f2-9d6d-696e692e6b69,rev?*%
%TF.SameCoordinates,Original*%
%TF.FileFunction,Copper,L1,Top*%
%TF.FilePolarity,Positive*%
%FSLAX46Y46*%
G04 Gerber Fmt 4.6, Leading zero omitted, Abs format (unit mm)*
G04 Created by KiCad (PCBNEW (5.1.10)-1) date 2021-09-25 16:03:37*
%MOMM*%
%LPD*%
G01*
G04 APERTURE LIST*
%TA.AperFunction,ComponentPad*%
%ADD10C,1.524000*%
%TD*%
%TA.AperFunction,ComponentPad*%
%ADD11R,2.000000X2.000000*%
%TD*%
%TA.AperFunction,ComponentPad*%
%ADD12C,2.000000*%
%TD*%
%TA.AperFunction,ComponentPad*%
%ADD13R,1.600000X1.600000*%
%TD*%
%TA.AperFunction,ComponentPad*%
%ADD14C,1.600000*%
%TD*%
%TA.AperFunction,ViaPad*%
%ADD15C,0.800000*%
%TD*%
%TA.AperFunction,Conductor*%
%ADD16C,0.250000*%
%TD*%
%TA.AperFunction,Conductor*%
%ADD17C,0.380000*%
%TD*%
%TA.AperFunction,Conductor*%
%ADD18C,0.254000*%
%TD*%
%TA.AperFunction,Conductor*%
%ADD19C,0.100000*%
%TD*%
G04 APERTURE END LIST*
D10*
%TO.P,U1,24*%
%TO.N,Net-(U1-Pad24)*%
X137953750Y-96381600D03*
%TO.P,U1,23*%
%TO.N,GND*%
X140493750Y-96381600D03*
%TO.P,U1,22*%
%TO.N,Reset*%
X143033750Y-96381600D03*
%TO.P,U1,21*%
%TO.N,VCC*%
X145573750Y-96381600D03*
%TO.P,U1,20*%
%TO.N,Net-(U1-Pad20)*%
X148113750Y-96381600D03*
%TO.P,U1,19*%
%TO.N,Net-(U1-Pad19)*%
X150653750Y-96381600D03*
%TO.P,U1,18*%
%TO.N,Net-(U1-Pad18)*%
X153193750Y-96381600D03*
%TO.P,U1,17*%
%TO.N,Net-(U1-Pad17)*%
X155733750Y-96381600D03*
%TO.P,U1,16*%
%TO.N,Net-(U1-Pad16)*%
X158273750Y-96381600D03*
%TO.P,U1,15*%
%TO.N,row0*%
X160813750Y-96381600D03*
%TO.P,U1,14*%
%TO.N,EncoderB*%
X163353750Y-96381600D03*
%TO.P,U1,13*%
%TO.N,EncoderA*%
X165893750Y-96381600D03*
%TO.P,U1,12*%
%TO.N,row1*%
X165893750Y-81161600D03*
%TO.P,U1,11*%
%TO.N,Net-(U1-Pad11)*%
X163353750Y-81161600D03*
%TO.P,U1,10*%
%TO.N,col2*%
X160813750Y-81161600D03*
%TO.P,U1,9*%
%TO.N,col1*%
X158273750Y-81161600D03*
%TO.P,U1,8*%
%TO.N,col0*%
X155733750Y-81161600D03*
%TO.P,U1,7*%
%TO.N,Net-(U1-Pad7)*%
X153193750Y-81161600D03*
%TO.P,U1,6*%
%TO.N,Net-(U1-Pad6)*%
X150653750Y-81161600D03*
%TO.P,U1,5*%
%TO.N,Net-(U1-Pad5)*%
X148113750Y-81161600D03*
%TO.P,U1,4*%
%TO.N,GND*%
X145573750Y-81161600D03*
%TO.P,U1,3*%
X143033750Y-81161600D03*
%TO.P,U1,2*%
%TO.N,Net-(U1-Pad2)*%
X140493750Y-81161600D03*
%TO.P,U1,1*%
%TO.N,Net-(U1-Pad1)*%
X137953750Y-81161600D03*
%TD*%
D11*
%TO.P,SW2,A*%
%TO.N,EncoderA*%
X217400500Y-95257000D03*
D12*
%TO.P,SW2,C*%
%TO.N,GND*%
X219900500Y-95257000D03*
%TO.P,SW2,B*%
%TO.N,EncoderB*%
X222400500Y-95257000D03*
%TO.P,SW2,S2*%
%TO.N,col1*%
X217400500Y-80757000D03*
%TO.P,SW2,S1*%
%TO.N,Net-(D5-Pad2)*%
X222400500Y-80757000D03*
%TD*%
%TO.P,SW1,2*%
%TO.N,GND*%
X185050500Y-96710500D03*
%TO.P,SW1,1*%
%TO.N,Reset*%
X178550500Y-96710500D03*
%TD*%
D13*
%TO.P,D5,1*%
%TO.N,row1*%
X227838000Y-94260500D03*
D14*
%TO.P,D5,2*%
%TO.N,Net-(D5-Pad2)*%
X227838000Y-86460500D03*
%TD*%
D13*
%TO.P,D4,1*%
%TO.N,row1*%
X209581750Y-92673000D03*
D14*
%TO.P,D4,2*%
%TO.N,Net-(D4-Pad2)*%
X209581750Y-84873000D03*
%TD*%
D13*
%TO.P,D3,1*%
%TO.N,row0*%
X190531750Y-92673000D03*
D14*
%TO.P,D3,2*%
%TO.N,Net-(D3-Pad2)*%
X190531750Y-84873000D03*
%TD*%
D13*
%TO.P,D2,1*%
%TO.N,row0*%
X171481750Y-92673000D03*
D14*
%TO.P,D2,2*%
%TO.N,Net-(D2-Pad2)*%
X171481750Y-84873000D03*
%TD*%
D13*
%TO.P,D1,1*%
%TO.N,row0*%
X152431750Y-92673000D03*
D14*
%TO.P,D1,2*%
%TO.N,Net-(D1-Pad2)*%
X152431750Y-84873000D03*
%TD*%
D15*
%TO.N,row1*%
X192913000Y-92741750D03*
X177292000Y-81153000D03*
%TO.N,GND*%
X171481750Y-95123000D03*
%TD*%
D16*
%TO.N,row1*%
X182536999Y-86397999D02*
X177292000Y-81153000D01*
X186569249Y-86397999D02*
X182536999Y-86397999D01*
X192913000Y-92741750D02*
X186569249Y-86397999D01*
D17*
%TO.N,GND*%
X143033750Y-85886952D02*
X143033750Y-81161600D01*
X140493750Y-88426952D02*
X143033750Y-85886952D01*
X140493750Y-96381600D02*
X140493750Y-88426952D01*
X145573750Y-81161600D02*
X143033750Y-81161600D01*
X160370188Y-95123000D02*
X171481750Y-95123000D01*
X146408788Y-81161600D02*
X160370188Y-95123000D01*
X145573750Y-81161600D02*
X146408788Y-81161600D01*
%TD*%
D18*
%TO.N,GND*%
X229450862Y-79119902D02*
X229475263Y-79127269D01*
X229497765Y-79139233D01*
X229517514Y-79155341D01*
X229533759Y-79174977D01*
X229545883Y-79197401D01*
X229553418Y-79221742D01*
X229559251Y-79277235D01*
X229559250Y-98265721D01*
X229553598Y-98323364D01*
X229546232Y-98347760D01*
X229534266Y-98370266D01*
X229518159Y-98390014D01*
X229498523Y-98406259D01*
X229476099Y-98418383D01*
X229451758Y-98425918D01*
X229396275Y-98431750D01*
X134906279Y-98431750D01*
X134848636Y-98426098D01*
X134824240Y-98418732D01*
X134801734Y-98406766D01*
X134781986Y-98390659D01*
X134765741Y-98371023D01*
X134753617Y-98348599D01*
X134746082Y-98324258D01*
X134740250Y-98268775D01*
X134740250Y-96244008D01*
X136556750Y-96244008D01*
X136556750Y-96519192D01*
X136610436Y-96789090D01*
X136715745Y-97043327D01*
X136868630Y-97272135D01*
X137063215Y-97466720D01*
X137292023Y-97619605D01*
X137546260Y-97724914D01*
X137816158Y-97778600D01*
X138091342Y-97778600D01*
X138361240Y-97724914D01*
X138615477Y-97619605D01*
X138844285Y-97466720D01*
X138963840Y-97347165D01*
X139707790Y-97347165D01*
X139774770Y-97587256D01*
X140023798Y-97704356D01*
X140290885Y-97770623D01*
X140565767Y-97783510D01*
X140837883Y-97742522D01*
X141096773Y-97649236D01*
X141212730Y-97587256D01*
X141279710Y-97347165D01*
X140493750Y-96561205D01*
X139707790Y-97347165D01*
X138963840Y-97347165D01*
X139038870Y-97272135D01*
X139191755Y-97043327D01*
X139221442Y-96971657D01*
X139226114Y-96984623D01*
X139288094Y-97100580D01*
X139528185Y-97167560D01*
X140314145Y-96381600D01*
X140673355Y-96381600D01*
X141459315Y-97167560D01*
X141699406Y-97100580D01*
X141763235Y-96964840D01*
X141795745Y-97043327D01*
X141948630Y-97272135D01*
X142143215Y-97466720D01*
X142372023Y-97619605D01*
X142626260Y-97724914D01*
X142896158Y-97778600D01*
X143171342Y-97778600D01*
X143441240Y-97724914D01*
X143695477Y-97619605D01*
X143924285Y-97466720D01*
X144118870Y-97272135D01*
X144271755Y-97043327D01*
X144303750Y-96966085D01*
X144335745Y-97043327D01*
X144488630Y-97272135D01*
X144683215Y-97466720D01*
X144912023Y-97619605D01*
X145166260Y-97724914D01*
X145436158Y-97778600D01*
X145711342Y-97778600D01*
X145981240Y-97724914D01*
X146235477Y-97619605D01*
X146464285Y-97466720D01*
X146658870Y-97272135D01*
X146811755Y-97043327D01*
X146843750Y-96966085D01*
X146875745Y-97043327D01*
X147028630Y-97272135D01*
X147223215Y-97466720D01*
X147452023Y-97619605D01*
X147706260Y-97724914D01*
X147976158Y-97778600D01*
X148251342Y-97778600D01*
X148521240Y-97724914D01*
X148775477Y-97619605D01*
X149004285Y-97466720D01*
X149198870Y-97272135D01*
X149351755Y-97043327D01*
X149383750Y-96966085D01*
X149415745Y-97043327D01*
X149568630Y-97272135D01*
X149763215Y-97466720D01*
X149992023Y-97619605D01*
X150246260Y-97724914D01*
X150516158Y-97778600D01*
X150791342Y-97778600D01*
X151061240Y-97724914D01*
X151315477Y-97619605D01*
X151544285Y-97466720D01*
X151738870Y-97272135D01*
X151891755Y-97043327D01*
X151923750Y-96966085D01*
X151955745Y-97043327D01*
X152108630Y-97272135D01*
X152303215Y-97466720D01*
X152532023Y-97619605D01*
X152786260Y-97724914D01*
X153056158Y-97778600D01*
X153331342Y-97778600D01*
X153601240Y-97724914D01*
X153855477Y-97619605D01*
X154084285Y-97466720D01*
X154278870Y-97272135D01*
X154431755Y-97043327D01*
X154463750Y-96966085D01*
X154495745Y-97043327D01*
X154648630Y-97272135D01*
X154843215Y-97466720D01*
X155072023Y-97619605D01*
X155326260Y-97724914D01*
X155596158Y-97778600D01*
X155871342Y-97778600D01*
X156141240Y-97724914D01*
X156395477Y-97619605D01*
X156624285Y-97466720D01*
X156818870Y-97272135D01*
X156971755Y-97043327D01*
X157003750Y-96966085D01*
X157035745Y-97043327D01*
X157188630Y-97272135D01*
X157383215Y-97466720D01*
X157612023Y-97619605D01*
X157866260Y-97724914D01*
X158136158Y-97778600D01*
X158411342Y-97778600D01*
X158681240Y-97724914D01*
X158935477Y-97619605D01*
X159164285Y-97466720D01*
X159358870Y-97272135D01*
X159511755Y-97043327D01*
X159543750Y-96966085D01*
X159575745Y-97043327D01*
X159728630Y-97272135D01*
X159923215Y-97466720D01*
X160152023Y-97619605D01*
X160406260Y-97724914D01*
X160676158Y-97778600D01*
X160951342Y-97778600D01*
X161221240Y-97724914D01*
X161475477Y-97619605D01*
X161704285Y-97466720D01*
X161898870Y-97272135D01*
X162051755Y-97043327D01*
X162083750Y-96966085D01*
X162115745Y-97043327D01*
X162268630Y-97272135D01*
X162463215Y-97466720D01*
X162692023Y-97619605D01*
X162946260Y-97724914D01*
X163216158Y-97778600D01*
X163491342Y-97778600D01*
X163761240Y-97724914D01*
X164015477Y-97619605D01*
X164244285Y-97466720D01*
X164438870Y-97272135D01*
X164591755Y-97043327D01*
X164623750Y-96966085D01*
X164655745Y-97043327D01*
X164808630Y-97272135D01*
X165003215Y-97466720D01*
X165232023Y-97619605D01*
X165486260Y-97724914D01*
X165756158Y-97778600D01*
X166031342Y-97778600D01*
X166301240Y-97724914D01*
X166555477Y-97619605D01*
X166784285Y-97466720D01*
X166978870Y-97272135D01*
X167131755Y-97043327D01*
X167237064Y-96789090D01*
X167284727Y-96549467D01*
X176915500Y-96549467D01*
X176915500Y-96871533D01*
X176978332Y-97187412D01*
X177101582Y-97484963D01*
X177280513Y-97752752D01*
X177508248Y-97980487D01*
X177776037Y-98159418D01*
X178073588Y-98282668D01*
X178389467Y-98345500D01*
X178711533Y-98345500D01*
X179027412Y-98282668D01*
X179324963Y-98159418D01*
X179592752Y-97980487D01*
X179727326Y-97845913D01*
X184094692Y-97845913D01*
X184190456Y-98110314D01*
X184480071Y-98251204D01*
X184791608Y-98332884D01*
X185113095Y-98352218D01*
X185432175Y-98308461D01*
X185736588Y-98203295D01*
X185910544Y-98110314D01*
X186006308Y-97845913D01*
X185050500Y-96890105D01*
X184094692Y-97845913D01*
X179727326Y-97845913D01*
X179820487Y-97752752D01*
X179999418Y-97484963D01*
X180122668Y-97187412D01*
X180185500Y-96871533D01*
X180185500Y-96773095D01*
X183408782Y-96773095D01*
X183452539Y-97092175D01*
X183557705Y-97396588D01*
X183650686Y-97570544D01*
X183915087Y-97666308D01*
X184870895Y-96710500D01*
X185230105Y-96710500D01*
X186185913Y-97666308D01*
X186450314Y-97570544D01*
X186591204Y-97280929D01*
X186672884Y-96969392D01*
X186692218Y-96647905D01*
X186648461Y-96328825D01*
X186543295Y-96024412D01*
X186450314Y-95850456D01*
X186185913Y-95754692D01*
X185230105Y-96710500D01*
X184870895Y-96710500D01*
X183915087Y-95754692D01*
X183650686Y-95850456D01*
X183509796Y-96140071D01*
X183428116Y-96451608D01*
X183408782Y-96773095D01*
X180185500Y-96773095D01*
X180185500Y-96549467D01*
X180122668Y-96233588D01*
X179999418Y-95936037D01*
X179820487Y-95668248D01*
X179727326Y-95575087D01*
X184094692Y-95575087D01*
X185050500Y-96530895D01*
X186006308Y-95575087D01*
X185910544Y-95310686D01*
X185620929Y-95169796D01*
X185309392Y-95088116D01*
X184987905Y-95068782D01*
X184668825Y-95112539D01*
X184364412Y-95217705D01*
X184190456Y-95310686D01*
X184094692Y-95575087D01*
X179727326Y-95575087D01*
X179592752Y-95440513D01*
X179324963Y-95261582D01*
X179027412Y-95138332D01*
X178711533Y-95075500D01*
X178389467Y-95075500D01*
X178073588Y-95138332D01*
X177776037Y-95261582D01*
X177508248Y-95440513D01*
X177280513Y-95668248D01*
X177101582Y-95936037D01*
X176978332Y-96233588D01*
X176915500Y-96549467D01*
X167284727Y-96549467D01*
X167290750Y-96519192D01*
X167290750Y-96244008D01*
X167237064Y-95974110D01*
X167131755Y-95719873D01*
X166978870Y-95491065D01*
X166784285Y-95296480D01*
X166555477Y-95143595D01*
X166301240Y-95038286D01*
X166031342Y-94984600D01*
X165756158Y-94984600D01*
X165486260Y-95038286D01*
X165232023Y-95143595D01*
X165003215Y-95296480D01*
X164808630Y-95491065D01*
X164655745Y-95719873D01*
X164623750Y-95797115D01*
X164591755Y-95719873D01*
X164438870Y-95491065D01*
X164244285Y-95296480D01*
X164015477Y-95143595D01*
X163761240Y-95038286D01*
X163491342Y-94984600D01*
X163216158Y-94984600D01*
X162946260Y-95038286D01*
X162692023Y-95143595D01*
X162463215Y-95296480D01*
X162268630Y-95491065D01*
X162115745Y-95719873D01*
X162083750Y-95797115D01*
X162051755Y-95719873D01*
X161898870Y-95491065D01*
X161704285Y-95296480D01*
X161475477Y-95143595D01*
X161221240Y-95038286D01*
X160951342Y-94984600D01*
X160676158Y-94984600D01*
X160406260Y-95038286D01*
X160152023Y-95143595D01*
X159923215Y-95296480D01*
X159728630Y-95491065D01*
X159575745Y-95719873D01*
X159543750Y-95797115D01*
X159511755Y-95719873D01*
X159358870Y-95491065D01*
X159164285Y-95296480D01*
X158935477Y-95143595D01*
X158681240Y-95038286D01*
X158411342Y-94984600D01*
X158136158Y-94984600D01*
X157866260Y-95038286D01*
X157612023Y-95143595D01*
X157383215Y-95296480D01*
X157188630Y-95491065D01*
X157035745Y-95719873D01*
X157003750Y-95797115D01*
X156971755Y-95719873D01*
X156818870Y-95491065D01*
X156624285Y-95296480D01*
X156395477Y-95143595D01*
X156141240Y-95038286D01*
X155871342Y-94984600D01*
X155596158Y-94984600D01*
X155326260Y-95038286D01*
X155072023Y-95143595D01*
X154843215Y-95296480D01*
X154648630Y-95491065D01*
X154495745Y-95719873D01*
X154463750Y-95797115D01*
X154431755Y-95719873D01*
X154278870Y-95491065D01*
X154084285Y-95296480D01*
X153855477Y-95143595D01*
X153601240Y-95038286D01*
X153331342Y-94984600D01*
X153056158Y-94984600D01*
X152786260Y-95038286D01*
X152532023Y-95143595D01*
X152303215Y-95296480D01*
X152108630Y-95491065D01*
X151955745Y-95719873D01*
X151923750Y-95797115D01*
X151891755Y-95719873D01*
X151738870Y-95491065D01*
X151544285Y-95296480D01*
X151315477Y-95143595D01*
X151061240Y-95038286D01*
X150791342Y-94984600D01*
X150516158Y-94984600D01*
X150246260Y-95038286D01*
X149992023Y-95143595D01*
X149763215Y-95296480D01*
X149568630Y-95491065D01*
X149415745Y-95719873D01*
X149383750Y-95797115D01*
X149351755Y-95719873D01*
X149198870Y-95491065D01*
X149004285Y-95296480D01*
X148775477Y-95143595D01*
X148521240Y-95038286D01*
X148251342Y-94984600D01*
X147976158Y-94984600D01*
X147706260Y-95038286D01*
X147452023Y-95143595D01*
X147223215Y-95296480D01*
X147028630Y-95491065D01*
X146875745Y-95719873D01*
X146843750Y-95797115D01*
X146811755Y-95719873D01*
X146658870Y-95491065D01*
X146464285Y-95296480D01*
X146235477Y-95143595D01*
X145981240Y-95038286D01*
X145711342Y-94984600D01*
X145436158Y-94984600D01*
X145166260Y-95038286D01*
X144912023Y-95143595D01*
X144683215Y-95296480D01*
X144488630Y-95491065D01*
X144335745Y-95719873D01*
X144303750Y-95797115D01*
X144271755Y-95719873D01*
X144118870Y-95491065D01*
X143924285Y-95296480D01*
X143695477Y-95143595D01*
X143441240Y-95038286D01*
X143171342Y-94984600D01*
X142896158Y-94984600D01*
X142626260Y-95038286D01*
X142372023Y-95143595D01*
X142143215Y-95296480D01*
X141948630Y-95491065D01*
X141795745Y-95719873D01*
X141766058Y-95791543D01*
X141761386Y-95778577D01*
X141699406Y-95662620D01*
X141459315Y-95595640D01*
X140673355Y-96381600D01*
X140314145Y-96381600D01*
X139528185Y-95595640D01*
X139288094Y-95662620D01*
X139224265Y-95798360D01*
X139191755Y-95719873D01*
X139038870Y-95491065D01*
X138963840Y-95416035D01*
X139707790Y-95416035D01*
X140493750Y-96201995D01*
X141279710Y-95416035D01*
X141212730Y-95175944D01*
X140963702Y-95058844D01*
X140696615Y-94992577D01*
X140421733Y-94979690D01*
X140149617Y-95020678D01*
X139890727Y-95113964D01*
X139774770Y-95175944D01*
X139707790Y-95416035D01*
X138963840Y-95416035D01*
X138844285Y-95296480D01*
X138615477Y-95143595D01*
X138361240Y-95038286D01*
X138091342Y-94984600D01*
X137816158Y-94984600D01*
X137546260Y-95038286D01*
X137292023Y-95143595D01*
X137063215Y-95296480D01*
X136868630Y-95491065D01*
X136715745Y-95719873D01*
X136610436Y-95974110D01*
X136556750Y-96244008D01*
X134740250Y-96244008D01*
X134740250Y-94257000D01*
X215762428Y-94257000D01*
X215762428Y-96257000D01*
X215774688Y-96381482D01*
X215810998Y-96501180D01*
X215869963Y-96611494D01*
X215949315Y-96708185D01*
X216046006Y-96787537D01*
X216156320Y-96846502D01*
X216276018Y-96882812D01*
X216400500Y-96895072D01*
X218400500Y-96895072D01*
X218524982Y-96882812D01*
X218644680Y-96846502D01*
X218754994Y-96787537D01*
X218851685Y-96708185D01*
X218931037Y-96611494D01*
X218986476Y-96507777D01*
X219040456Y-96656814D01*
X219330071Y-96797704D01*
X219641608Y-96879384D01*
X219963095Y-96898718D01*
X220282175Y-96854961D01*
X220586588Y-96749795D01*
X220760544Y-96656814D01*
X220856308Y-96392413D01*
X219900500Y-95436605D01*
X219886358Y-95450748D01*
X219706753Y-95271143D01*
X219720895Y-95257000D01*
X220080105Y-95257000D01*
X221035913Y-96212808D01*
X221065575Y-96202065D01*
X221130513Y-96299252D01*
X221358248Y-96526987D01*
X221626037Y-96705918D01*
X221923588Y-96829168D01*
X222239467Y-96892000D01*
X222561533Y-96892000D01*
X222877412Y-96829168D01*
X223174963Y-96705918D01*
X223442752Y-96526987D01*
X223670487Y-96299252D01*
X223849418Y-96031463D01*
X223972668Y-95733912D01*
X224035500Y-95418033D01*
X224035500Y-95095967D01*
X223972668Y-94780088D01*
X223849418Y-94482537D01*
X223670487Y-94214748D01*
X223442752Y-93987013D01*
X223174963Y-93808082D01*
X222877412Y-93684832D01*
X222561533Y-93622000D01*
X222239467Y-93622000D01*
X221923588Y-93684832D01*
X221626037Y-93808082D01*
X221358248Y-93987013D01*
X221130513Y-94214748D01*
X221065575Y-94311935D01*
X221035913Y-94301192D01*
X220080105Y-95257000D01*
X219720895Y-95257000D01*
X219706753Y-95242858D01*
X219886358Y-95063253D01*
X219900500Y-95077395D01*
X220856308Y-94121587D01*
X220760544Y-93857186D01*
X220470929Y-93716296D01*
X220159392Y-93634616D01*
X219837905Y-93615282D01*
X219518825Y-93659039D01*
X219214412Y-93764205D01*
X219040456Y-93857186D01*
X218986476Y-94006223D01*
X218931037Y-93902506D01*
X218851685Y-93805815D01*
X218754994Y-93726463D01*
X218644680Y-93667498D01*
X218524982Y-93631188D01*
X218400500Y-93618928D01*
X216400500Y-93618928D01*
X216276018Y-93631188D01*
X216156320Y-93667498D01*
X216046006Y-93726463D01*
X215949315Y-93805815D01*
X215869963Y-93902506D01*
X215810998Y-94012820D01*
X215774688Y-94132518D01*
X215762428Y-94257000D01*
X134740250Y-94257000D01*
X134740250Y-91873000D01*
X150993678Y-91873000D01*
X150993678Y-93473000D01*
X151005938Y-93597482D01*
X151042248Y-93717180D01*
X151101213Y-93827494D01*
X151180565Y-93924185D01*
X151277256Y-94003537D01*
X151387570Y-94062502D01*
X151507268Y-94098812D01*
X151631750Y-94111072D01*
X153231750Y-94111072D01*
X153356232Y-94098812D01*
X153475930Y-94062502D01*
X153586244Y-94003537D01*
X153682935Y-93924185D01*
X153762287Y-93827494D01*
X153821252Y-93717180D01*
X153857562Y-93597482D01*
X153869822Y-93473000D01*
X153869822Y-91873000D01*
X170043678Y-91873000D01*
X170043678Y-93473000D01*
X170055938Y-93597482D01*
X170092248Y-93717180D01*
X170151213Y-93827494D01*
X170230565Y-93924185D01*
X170327256Y-94003537D01*
X170437570Y-94062502D01*
X170557268Y-94098812D01*
X170681750Y-94111072D01*
X172281750Y-94111072D01*
X172406232Y-94098812D01*
X172525930Y-94062502D01*
X172636244Y-94003537D01*
X172732935Y-93924185D01*
X172812287Y-93827494D01*
X172871252Y-93717180D01*
X172907562Y-93597482D01*
X172919822Y-93473000D01*
X172919822Y-91873000D01*
X172907562Y-91748518D01*
X172871252Y-91628820D01*
X172812287Y-91518506D01*
X172732935Y-91421815D01*
X172636244Y-91342463D01*
X172525930Y-91283498D01*
X172406232Y-91247188D01*
X172281750Y-91234928D01*
X170681750Y-91234928D01*
X170557268Y-91247188D01*
X170437570Y-91283498D01*
X170327256Y-91342463D01*
X170230565Y-91421815D01*
X170151213Y-91518506D01*
X170092248Y-91628820D01*
X170055938Y-91748518D01*
X170043678Y-91873000D01*
X153869822Y-91873000D01*
X153857562Y-91748518D01*
X153821252Y-91628820D01*
X153762287Y-91518506D01*
X153682935Y-91421815D01*
X153586244Y-91342463D01*
X153475930Y-91283498D01*
X153356232Y-91247188D01*
X153231750Y-91234928D01*
X151631750Y-91234928D01*
X151507268Y-91247188D01*
X151387570Y-91283498D01*
X151277256Y-91342463D01*
X151180565Y-91421815D01*
X151101213Y-91518506D01*
X151042248Y-91628820D01*
X151005938Y-91748518D01*
X150993678Y-91873000D01*
X134740250Y-91873000D01*
X134740250Y-88616891D01*
X137035500Y-88616891D01*
X137035500Y-88929109D01*
X137096411Y-89235327D01*
X137215891Y-89523779D01*
X137389350Y-89783379D01*
X137610121Y-90004150D01*
X137869721Y-90177609D01*
X138158173Y-90297089D01*
X138464391Y-90358000D01*
X138776609Y-90358000D01*
X139082827Y-90297089D01*
X139371279Y-90177609D01*
X139630879Y-90004150D01*
X139851650Y-89783379D01*
X140025109Y-89523779D01*
X140144589Y-89235327D01*
X140205500Y-88929109D01*
X140205500Y-88616891D01*
X140153891Y-88357435D01*
X140513256Y-88285953D01*
X140901802Y-88125012D01*
X141124248Y-87976378D01*
X141118683Y-87989814D01*
X141015500Y-88508551D01*
X141015500Y-89037449D01*
X141118683Y-89556186D01*
X141321083Y-90044825D01*
X141614924Y-90484588D01*
X141988912Y-90858576D01*
X142428675Y-91152417D01*
X142917314Y-91354817D01*
X143436051Y-91458000D01*
X143964949Y-91458000D01*
X144483686Y-91354817D01*
X144972325Y-91152417D01*
X145412088Y-90858576D01*
X145786076Y-90484588D01*
X146079917Y-90044825D01*
X146282317Y-89556186D01*
X146385500Y-89037449D01*
X146385500Y-88616891D01*
X147195500Y-88616891D01*
X147195500Y-88929109D01*
X147256411Y-89235327D01*
X147375891Y-89523779D01*
X147549350Y-89783379D01*
X147770121Y-90004150D01*
X148029721Y-90177609D01*
X148318173Y-90297089D01*
X148624391Y-90358000D01*
X148936609Y-90358000D01*
X149242827Y-90297089D01*
X149531279Y-90177609D01*
X149790879Y-90004150D01*
X150011650Y-89783379D01*
X150185109Y-89523779D01*
X150304589Y-89235327D01*
X150365500Y-88929109D01*
X150365500Y-88616891D01*
X156085500Y-88616891D01*
X156085500Y-88929109D01*
X156146411Y-89235327D01*
X156265891Y-89523779D01*
X156439350Y-89783379D01*
X156660121Y-90004150D01*
X156919721Y-90177609D01*
X157208173Y-90297089D01*
X157514391Y-90358000D01*
X157826609Y-90358000D01*
X158132827Y-90297089D01*
X158421279Y-90177609D01*
X158680879Y-90004150D01*
X158901650Y-89783379D01*
X159075109Y-89523779D01*
X159194589Y-89235327D01*
X159255500Y-88929109D01*
X159255500Y-88616891D01*
X159203891Y-88357435D01*
X159563256Y-88285953D01*
X159951802Y-88125012D01*
X160174248Y-87976378D01*
X160168683Y-87989814D01*
X160065500Y-88508551D01*
X160065500Y-89037449D01*
X160168683Y-89556186D01*
X160371083Y-90044825D01*
X160664924Y-90484588D01*
X161038912Y-90858576D01*
X161478675Y-91152417D01*
X161967314Y-91354817D01*
X162486051Y-91458000D01*
X163014949Y-91458000D01*
X163533686Y-91354817D01*
X164022325Y-91152417D01*
X164462088Y-90858576D01*
X164836076Y-90484588D01*
X165129917Y-90044825D01*
X165332317Y-89556186D01*
X165435500Y-89037449D01*
X165435500Y-88616891D01*
X166245500Y-88616891D01*
X166245500Y-88929109D01*
X166306411Y-89235327D01*
X166425891Y-89523779D01*
X166599350Y-89783379D01*
X166820121Y-90004150D01*
X167079721Y-90177609D01*
X167368173Y-90297089D01*
X167674391Y-90358000D01*
X167986609Y-90358000D01*
X168292827Y-90297089D01*
X168581279Y-90177609D01*
X168840879Y-90004150D01*
X169061650Y-89783379D01*
X169235109Y-89523779D01*
X169354589Y-89235327D01*
X169415500Y-88929109D01*
X169415500Y-88616891D01*
X175135500Y-88616891D01*
X175135500Y-88929109D01*
X175196411Y-89235327D01*
X175315891Y-89523779D01*
X175489350Y-89783379D01*
X175710121Y-90004150D01*
X175969721Y-90177609D01*
X176258173Y-90297089D01*
X176564391Y-90358000D01*
X176876609Y-90358000D01*
X177182827Y-90297089D01*
X177471279Y-90177609D01*
X177730879Y-90004150D01*
X177951650Y-89783379D01*
X178125109Y-89523779D01*
X178244589Y-89235327D01*
X178305500Y-88929109D01*
X178305500Y-88616891D01*
X178253891Y-88357435D01*
X178613256Y-88285953D01*
X179001802Y-88125012D01*
X179224248Y-87976378D01*
X179218683Y-87989814D01*
X179115500Y-88508551D01*
X179115500Y-89037449D01*
X179218683Y-89556186D01*
X179421083Y-90044825D01*
X179714924Y-90484588D01*
X180088912Y-90858576D01*
X180528675Y-91152417D01*
X181017314Y-91354817D01*
X181536051Y-91458000D01*
X182064949Y-91458000D01*
X182583686Y-91354817D01*
X183072325Y-91152417D01*
X183512088Y-90858576D01*
X183886076Y-90484588D01*
X184179917Y-90044825D01*
X184382317Y-89556186D01*
X184485500Y-89037449D01*
X184485500Y-88508551D01*
X184382317Y-87989814D01*
X184179917Y-87501175D01*
X183950614Y-87157999D01*
X186254448Y-87157999D01*
X186366686Y-87270237D01*
X186129721Y-87368391D01*
X185870121Y-87541850D01*
X185649350Y-87762621D01*
X185475891Y-88022221D01*
X185356411Y-88310673D01*
X185295500Y-88616891D01*
X185295500Y-88929109D01*
X185356411Y-89235327D01*
X185475891Y-89523779D01*
X185649350Y-89783379D01*
X185870121Y-90004150D01*
X186129721Y-90177609D01*
X186418173Y-90297089D01*
X186724391Y-90358000D01*
X187036609Y-90358000D01*
X187342827Y-90297089D01*
X187631279Y-90177609D01*
X187890879Y-90004150D01*
X188111650Y-89783379D01*
X188285109Y-89523779D01*
X188383263Y-89286814D01*
X190331376Y-91234928D01*
X189731750Y-91234928D01*
X189607268Y-91247188D01*
X189487570Y-91283498D01*
X189377256Y-91342463D01*
X189280565Y-91421815D01*
X189201213Y-91518506D01*
X189142248Y-91628820D01*
X189105938Y-91748518D01*
X189093678Y-91873000D01*
X189093678Y-93473000D01*
X189105938Y-93597482D01*
X189142248Y-93717180D01*
X189201213Y-93827494D01*
X189280565Y-93924185D01*
X189377256Y-94003537D01*
X189487570Y-94062502D01*
X189607268Y-94098812D01*
X189731750Y-94111072D01*
X191331750Y-94111072D01*
X191456232Y-94098812D01*
X191575930Y-94062502D01*
X191686244Y-94003537D01*
X191782935Y-93924185D01*
X191862287Y-93827494D01*
X191921252Y-93717180D01*
X191957562Y-93597482D01*
X191969822Y-93473000D01*
X191969822Y-93169302D01*
X191995795Y-93232006D01*
X192109063Y-93401524D01*
X192253226Y-93545687D01*
X192422744Y-93658955D01*
X192611102Y-93736976D01*
X192811061Y-93776750D01*
X193014939Y-93776750D01*
X193214898Y-93736976D01*
X193403256Y-93658955D01*
X193572774Y-93545687D01*
X193716937Y-93401524D01*
X193830205Y-93232006D01*
X193908226Y-93043648D01*
X193948000Y-92843689D01*
X193948000Y-92639811D01*
X193908226Y-92439852D01*
X193830205Y-92251494D01*
X193716937Y-92081976D01*
X193572774Y-91937813D01*
X193475775Y-91873000D01*
X208143678Y-91873000D01*
X208143678Y-93473000D01*
X208155938Y-93597482D01*
X208192248Y-93717180D01*
X208251213Y-93827494D01*
X208330565Y-93924185D01*
X208427256Y-94003537D01*
X208537570Y-94062502D01*
X208657268Y-94098812D01*
X208781750Y-94111072D01*
X210381750Y-94111072D01*
X210506232Y-94098812D01*
X210625930Y-94062502D01*
X210736244Y-94003537D01*
X210832935Y-93924185D01*
X210912287Y-93827494D01*
X210971252Y-93717180D01*
X211007562Y-93597482D01*
X211019822Y-93473000D01*
X211019822Y-93460500D01*
X226399928Y-93460500D01*
X226399928Y-95060500D01*
X226412188Y-95184982D01*
X226448498Y-95304680D01*
X226507463Y-95414994D01*
X226586815Y-95511685D01*
X226683506Y-95591037D01*
X226793820Y-95650002D01*
X226913518Y-95686312D01*
X227038000Y-95698572D01*
X228638000Y-95698572D01*
X228762482Y-95686312D01*
X228882180Y-95650002D01*
X228992494Y-95591037D01*
X229089185Y-95511685D01*
X229168537Y-95414994D01*
X229227502Y-95304680D01*
X229263812Y-95184982D01*
X229276072Y-95060500D01*
X229276072Y-93460500D01*
X229263812Y-93336018D01*
X229227502Y-93216320D01*
X229168537Y-93106006D01*
X229089185Y-93009315D01*
X228992494Y-92929963D01*
X228882180Y-92870998D01*
X228762482Y-92834688D01*
X228638000Y-92822428D01*
X227038000Y-92822428D01*
X226913518Y-92834688D01*
X226793820Y-92870998D01*
X226683506Y-92929963D01*
X226586815Y-93009315D01*
X226507463Y-93106006D01*
X226448498Y-93216320D01*
X226412188Y-93336018D01*
X226399928Y-93460500D01*
X211019822Y-93460500D01*
X211019822Y-91873000D01*
X211007562Y-91748518D01*
X210971252Y-91628820D01*
X210912287Y-91518506D01*
X210832935Y-91421815D01*
X210736244Y-91342463D01*
X210625930Y-91283498D01*
X210506232Y-91247188D01*
X210381750Y-91234928D01*
X208781750Y-91234928D01*
X208657268Y-91247188D01*
X208537570Y-91283498D01*
X208427256Y-91342463D01*
X208330565Y-91421815D01*
X208251213Y-91518506D01*
X208192248Y-91628820D01*
X208155938Y-91748518D01*
X208143678Y-91873000D01*
X193475775Y-91873000D01*
X193403256Y-91824545D01*
X193214898Y-91746524D01*
X193014939Y-91706750D01*
X192952802Y-91706750D01*
X189862943Y-88616891D01*
X194185500Y-88616891D01*
X194185500Y-88929109D01*
X194246411Y-89235327D01*
X194365891Y-89523779D01*
X194539350Y-89783379D01*
X194760121Y-90004150D01*
X195019721Y-90177609D01*
X195308173Y-90297089D01*
X195614391Y-90358000D01*
X195926609Y-90358000D01*
X196232827Y-90297089D01*
X196521279Y-90177609D01*
X196780879Y-90004150D01*
X197001650Y-89783379D01*
X197175109Y-89523779D01*
X197294589Y-89235327D01*
X197355500Y-88929109D01*
X197355500Y-88616891D01*
X197303891Y-88357435D01*
X197663256Y-88285953D01*
X198051802Y-88125012D01*
X198274248Y-87976378D01*
X198268683Y-87989814D01*
X198165500Y-88508551D01*
X198165500Y-89037449D01*
X198268683Y-89556186D01*
X198471083Y-90044825D01*
X198764924Y-90484588D01*
X199138912Y-90858576D01*
X199578675Y-91152417D01*
X200067314Y-91354817D01*
X200586051Y-91458000D01*
X201114949Y-91458000D01*
X201633686Y-91354817D01*
X202122325Y-91152417D01*
X202562088Y-90858576D01*
X202936076Y-90484588D01*
X203229917Y-90044825D01*
X203432317Y-89556186D01*
X203535500Y-89037449D01*
X203535500Y-88616891D01*
X204345500Y-88616891D01*
X204345500Y-88929109D01*
X204406411Y-89235327D01*
X204525891Y-89523779D01*
X204699350Y-89783379D01*
X204920121Y-90004150D01*
X205179721Y-90177609D01*
X205468173Y-90297089D01*
X205774391Y-90358000D01*
X206086609Y-90358000D01*
X206392827Y-90297089D01*
X206681279Y-90177609D01*
X206940879Y-90004150D01*
X207161650Y-89783379D01*
X207335109Y-89523779D01*
X207454589Y-89235327D01*
X207515500Y-88929109D01*
X207515500Y-88616891D01*
X213235500Y-88616891D01*
X213235500Y-88929109D01*
X213296411Y-89235327D01*
X213415891Y-89523779D01*
X213589350Y-89783379D01*
X213810121Y-90004150D01*
X214069721Y-90177609D01*
X214358173Y-90297089D01*
X214664391Y-90358000D01*
X214976609Y-90358000D01*
X215282827Y-90297089D01*
X215571279Y-90177609D01*
X215830879Y-90004150D01*
X216051650Y-89783379D01*
X216225109Y-89523779D01*
X216344589Y-89235327D01*
X216405500Y-88929109D01*
X216405500Y-88616891D01*
X216353891Y-88357435D01*
X216713256Y-88285953D01*
X217101802Y-88125012D01*
X217324248Y-87976378D01*
X217318683Y-87989814D01*
X217215500Y-88508551D01*
X217215500Y-89037449D01*
X217318683Y-89556186D01*
X217521083Y-90044825D01*
X217814924Y-90484588D01*
X218188912Y-90858576D01*
X218628675Y-91152417D01*
X219117314Y-91354817D01*
X219636051Y-91458000D01*
X220164949Y-91458000D01*
X220683686Y-91354817D01*
X221172325Y-91152417D01*
X221612088Y-90858576D01*
X221986076Y-90484588D01*
X222279917Y-90044825D01*
X222482317Y-89556186D01*
X222585500Y-89037449D01*
X222585500Y-88616891D01*
X223395500Y-88616891D01*
X223395500Y-88929109D01*
X223456411Y-89235327D01*
X223575891Y-89523779D01*
X223749350Y-89783379D01*
X223970121Y-90004150D01*
X224229721Y-90177609D01*
X224518173Y-90297089D01*
X224824391Y-90358000D01*
X225136609Y-90358000D01*
X225442827Y-90297089D01*
X225731279Y-90177609D01*
X225990879Y-90004150D01*
X226211650Y-89783379D01*
X226385109Y-89523779D01*
X226504589Y-89235327D01*
X226565500Y-88929109D01*
X226565500Y-88616891D01*
X226504589Y-88310673D01*
X226385109Y-88022221D01*
X226211650Y-87762621D01*
X225990879Y-87541850D01*
X225731279Y-87368391D01*
X225442827Y-87248911D01*
X225136609Y-87188000D01*
X224824391Y-87188000D01*
X224518173Y-87248911D01*
X224229721Y-87368391D01*
X223970121Y-87541850D01*
X223749350Y-87762621D01*
X223575891Y-88022221D01*
X223456411Y-88310673D01*
X223395500Y-88616891D01*
X222585500Y-88616891D01*
X222585500Y-88508551D01*
X222482317Y-87989814D01*
X222279917Y-87501175D01*
X221986076Y-87061412D01*
X221612088Y-86687424D01*
X221172325Y-86393583D01*
X220992664Y-86319165D01*
X226403000Y-86319165D01*
X226403000Y-86601835D01*
X226458147Y-86879074D01*
X226566320Y-87140227D01*
X226723363Y-87375259D01*
X226923241Y-87575137D01*
X227158273Y-87732180D01*
X227419426Y-87840353D01*
X227696665Y-87895500D01*
X227979335Y-87895500D01*
X228256574Y-87840353D01*
X228517727Y-87732180D01*
X228752759Y-87575137D01*
X228952637Y-87375259D01*
X229109680Y-87140227D01*
X229217853Y-86879074D01*
X229273000Y-86601835D01*
X229273000Y-86319165D01*
X229217853Y-86041926D01*
X229109680Y-85780773D01*
X228952637Y-85545741D01*
X228752759Y-85345863D01*
X228517727Y-85188820D01*
X228256574Y-85080647D01*
X227979335Y-85025500D01*
X227696665Y-85025500D01*
X227419426Y-85080647D01*
X227158273Y-85188820D01*
X226923241Y-85345863D01*
X226723363Y-85545741D01*
X226566320Y-85780773D01*
X226458147Y-86041926D01*
X226403000Y-86319165D01*
X220992664Y-86319165D01*
X220683686Y-86191183D01*
X220164949Y-86088000D01*
X219636051Y-86088000D01*
X219117314Y-86191183D01*
X218628675Y-86393583D01*
X218188912Y-86687424D01*
X218173963Y-86702373D01*
X218225500Y-86443279D01*
X218225500Y-86022721D01*
X218143453Y-85610244D01*
X217982512Y-85221698D01*
X217748863Y-84872017D01*
X217451483Y-84574637D01*
X217101802Y-84340988D01*
X216713256Y-84180047D01*
X216300779Y-84098000D01*
X215880221Y-84098000D01*
X215467744Y-84180047D01*
X215079198Y-84340988D01*
X214729517Y-84574637D01*
X214432137Y-84872017D01*
X214198488Y-85221698D01*
X214037547Y-85610244D01*
X213955500Y-86022721D01*
X213955500Y-86443279D01*
X214037547Y-86855756D01*
X214198488Y-87244302D01*
X214235515Y-87299717D01*
X214069721Y-87368391D01*
X213810121Y-87541850D01*
X213589350Y-87762621D01*
X213415891Y-88022221D01*
X213296411Y-88310673D01*
X213235500Y-88616891D01*
X207515500Y-88616891D01*
X207454589Y-88310673D01*
X207335109Y-88022221D01*
X207161650Y-87762621D01*
X206940879Y-87541850D01*
X206681279Y-87368391D01*
X206392827Y-87248911D01*
X206086609Y-87188000D01*
X205774391Y-87188000D01*
X205468173Y-87248911D01*
X205179721Y-87368391D01*
X204920121Y-87541850D01*
X204699350Y-87762621D01*
X204525891Y-88022221D01*
X204406411Y-88310673D01*
X204345500Y-88616891D01*
X203535500Y-88616891D01*
X203535500Y-88508551D01*
X203432317Y-87989814D01*
X203229917Y-87501175D01*
X202936076Y-87061412D01*
X202562088Y-86687424D01*
X202122325Y-86393583D01*
X201633686Y-86191183D01*
X201114949Y-86088000D01*
X200586051Y-86088000D01*
X200067314Y-86191183D01*
X199578675Y-86393583D01*
X199138912Y-86687424D01*
X199123963Y-86702373D01*
X199175500Y-86443279D01*
X199175500Y-86022721D01*
X199093453Y-85610244D01*
X198932512Y-85221698D01*
X198698863Y-84872017D01*
X198401483Y-84574637D01*
X198051802Y-84340988D01*
X197663256Y-84180047D01*
X197250779Y-84098000D01*
X196830221Y-84098000D01*
X196417744Y-84180047D01*
X196029198Y-84340988D01*
X195679517Y-84574637D01*
X195382137Y-84872017D01*
X195148488Y-85221698D01*
X194987547Y-85610244D01*
X194905500Y-86022721D01*
X194905500Y-86443279D01*
X194987547Y-86855756D01*
X195148488Y-87244302D01*
X195185515Y-87299717D01*
X195019721Y-87368391D01*
X194760121Y-87541850D01*
X194539350Y-87762621D01*
X194365891Y-88022221D01*
X194246411Y-88310673D01*
X194185500Y-88616891D01*
X189862943Y-88616891D01*
X187133053Y-85887002D01*
X187109250Y-85857998D01*
X186993525Y-85763025D01*
X186861496Y-85692453D01*
X186718235Y-85648996D01*
X186606582Y-85637999D01*
X186606571Y-85637999D01*
X186569249Y-85634323D01*
X186531927Y-85637999D01*
X185223880Y-85637999D01*
X185351802Y-85585012D01*
X185701483Y-85351363D01*
X185998863Y-85053983D01*
X186214228Y-84731665D01*
X189096750Y-84731665D01*
X189096750Y-85014335D01*
X189151897Y-85291574D01*
X189260070Y-85552727D01*
X189417113Y-85787759D01*
X189616991Y-85987637D01*
X189852023Y-86144680D01*
X190113176Y-86252853D01*
X190390415Y-86308000D01*
X190673085Y-86308000D01*
X190950324Y-86252853D01*
X191211477Y-86144680D01*
X191446509Y-85987637D01*
X191646387Y-85787759D01*
X191803430Y-85552727D01*
X191911603Y-85291574D01*
X191966750Y-85014335D01*
X191966750Y-84731665D01*
X191911603Y-84454426D01*
X191803430Y-84193273D01*
X191646387Y-83958241D01*
X191446509Y-83758363D01*
X191211477Y-83601320D01*
X190950324Y-83493147D01*
X190897910Y-83482721D01*
X201255500Y-83482721D01*
X201255500Y-83903279D01*
X201337547Y-84315756D01*
X201498488Y-84704302D01*
X201732137Y-85053983D01*
X202029517Y-85351363D01*
X202379198Y-85585012D01*
X202767744Y-85745953D01*
X203180221Y-85828000D01*
X203600779Y-85828000D01*
X204013256Y-85745953D01*
X204401802Y-85585012D01*
X204751483Y-85351363D01*
X205048863Y-85053983D01*
X205264228Y-84731665D01*
X208146750Y-84731665D01*
X208146750Y-85014335D01*
X208201897Y-85291574D01*
X208310070Y-85552727D01*
X208467113Y-85787759D01*
X208666991Y-85987637D01*
X208902023Y-86144680D01*
X209163176Y-86252853D01*
X209440415Y-86308000D01*
X209723085Y-86308000D01*
X210000324Y-86252853D01*
X210261477Y-86144680D01*
X210496509Y-85987637D01*
X210696387Y-85787759D01*
X210853430Y-85552727D01*
X210961603Y-85291574D01*
X211016750Y-85014335D01*
X211016750Y-84731665D01*
X210961603Y-84454426D01*
X210853430Y-84193273D01*
X210696387Y-83958241D01*
X210496509Y-83758363D01*
X210261477Y-83601320D01*
X210000324Y-83493147D01*
X209947910Y-83482721D01*
X220305500Y-83482721D01*
X220305500Y-83903279D01*
X220387547Y-84315756D01*
X220548488Y-84704302D01*
X220782137Y-85053983D01*
X221079517Y-85351363D01*
X221429198Y-85585012D01*
X221817744Y-85745953D01*
X222230221Y-85828000D01*
X222650779Y-85828000D01*
X223063256Y-85745953D01*
X223451802Y-85585012D01*
X223801483Y-85351363D01*
X224098863Y-85053983D01*
X224332512Y-84704302D01*
X224493453Y-84315756D01*
X224575500Y-83903279D01*
X224575500Y-83482721D01*
X224493453Y-83070244D01*
X224332512Y-82681698D01*
X224098863Y-82332017D01*
X223801483Y-82034637D01*
X223581854Y-81887885D01*
X223670487Y-81799252D01*
X223849418Y-81531463D01*
X223972668Y-81233912D01*
X224035500Y-80918033D01*
X224035500Y-80595967D01*
X223972668Y-80280088D01*
X223849418Y-79982537D01*
X223670487Y-79714748D01*
X223442752Y-79487013D01*
X223174963Y-79308082D01*
X222877412Y-79184832D01*
X222561533Y-79122000D01*
X222239467Y-79122000D01*
X221923588Y-79184832D01*
X221626037Y-79308082D01*
X221358248Y-79487013D01*
X221130513Y-79714748D01*
X220951582Y-79982537D01*
X220828332Y-80280088D01*
X220765500Y-80595967D01*
X220765500Y-80918033D01*
X220828332Y-81233912D01*
X220951582Y-81531463D01*
X221130513Y-81799252D01*
X221251190Y-81919929D01*
X221079517Y-82034637D01*
X220782137Y-82332017D01*
X220548488Y-82681698D01*
X220387547Y-83070244D01*
X220305500Y-83482721D01*
X209947910Y-83482721D01*
X209723085Y-83438000D01*
X209440415Y-83438000D01*
X209163176Y-83493147D01*
X208902023Y-83601320D01*
X208666991Y-83758363D01*
X208467113Y-83958241D01*
X208310070Y-84193273D01*
X208201897Y-84454426D01*
X208146750Y-84731665D01*
X205264228Y-84731665D01*
X205282512Y-84704302D01*
X205443453Y-84315756D01*
X205525500Y-83903279D01*
X205525500Y-83482721D01*
X205443453Y-83070244D01*
X205282512Y-82681698D01*
X205048863Y-82332017D01*
X204751483Y-82034637D01*
X204401802Y-81800988D01*
X204013256Y-81640047D01*
X203600779Y-81558000D01*
X203180221Y-81558000D01*
X202767744Y-81640047D01*
X202379198Y-81800988D01*
X202029517Y-82034637D01*
X201732137Y-82332017D01*
X201498488Y-82681698D01*
X201337547Y-83070244D01*
X201255500Y-83482721D01*
X190897910Y-83482721D01*
X190673085Y-83438000D01*
X190390415Y-83438000D01*
X190113176Y-83493147D01*
X189852023Y-83601320D01*
X189616991Y-83758363D01*
X189417113Y-83958241D01*
X189260070Y-84193273D01*
X189151897Y-84454426D01*
X189096750Y-84731665D01*
X186214228Y-84731665D01*
X186232512Y-84704302D01*
X186393453Y-84315756D01*
X186475500Y-83903279D01*
X186475500Y-83482721D01*
X186393453Y-83070244D01*
X186232512Y-82681698D01*
X185998863Y-82332017D01*
X185701483Y-82034637D01*
X185351802Y-81800988D01*
X184963256Y-81640047D01*
X184550779Y-81558000D01*
X184130221Y-81558000D01*
X183717744Y-81640047D01*
X183329198Y-81800988D01*
X182979517Y-82034637D01*
X182682137Y-82332017D01*
X182448488Y-82681698D01*
X182287547Y-83070244D01*
X182205500Y-83482721D01*
X182205500Y-83903279D01*
X182287547Y-84315756D01*
X182448488Y-84704302D01*
X182682137Y-85053983D01*
X182979517Y-85351363D01*
X183329198Y-85585012D01*
X183457120Y-85637999D01*
X182851801Y-85637999D01*
X178327000Y-81113199D01*
X178327000Y-81051061D01*
X178287226Y-80851102D01*
X178209205Y-80662744D01*
X178164587Y-80595967D01*
X215765500Y-80595967D01*
X215765500Y-80918033D01*
X215828332Y-81233912D01*
X215951582Y-81531463D01*
X216130513Y-81799252D01*
X216358248Y-82026987D01*
X216626037Y-82205918D01*
X216923588Y-82329168D01*
X217239467Y-82392000D01*
X217561533Y-82392000D01*
X217877412Y-82329168D01*
X218174963Y-82205918D01*
X218442752Y-82026987D01*
X218670487Y-81799252D01*
X218849418Y-81531463D01*
X218972668Y-81233912D01*
X219035500Y-80918033D01*
X219035500Y-80595967D01*
X218972668Y-80280088D01*
X218849418Y-79982537D01*
X218670487Y-79714748D01*
X218442752Y-79487013D01*
X218174963Y-79308082D01*
X217877412Y-79184832D01*
X217561533Y-79122000D01*
X217239467Y-79122000D01*
X216923588Y-79184832D01*
X216626037Y-79308082D01*
X216358248Y-79487013D01*
X216130513Y-79714748D01*
X215951582Y-79982537D01*
X215828332Y-80280088D01*
X215765500Y-80595967D01*
X178164587Y-80595967D01*
X178095937Y-80493226D01*
X177951774Y-80349063D01*
X177782256Y-80235795D01*
X177593898Y-80157774D01*
X177393939Y-80118000D01*
X177190061Y-80118000D01*
X176990102Y-80157774D01*
X176801744Y-80235795D01*
X176632226Y-80349063D01*
X176488063Y-80493226D01*
X176374795Y-80662744D01*
X176296774Y-80851102D01*
X176257000Y-81051061D01*
X176257000Y-81254939D01*
X176296774Y-81454898D01*
X176374795Y-81643256D01*
X176488063Y-81812774D01*
X176632226Y-81956937D01*
X176801744Y-82070205D01*
X176990102Y-82148226D01*
X177190061Y-82188000D01*
X177252199Y-82188000D01*
X181215883Y-86151685D01*
X181017314Y-86191183D01*
X180528675Y-86393583D01*
X180088912Y-86687424D01*
X180073963Y-86702373D01*
X180125500Y-86443279D01*
X180125500Y-86022721D01*
X180043453Y-85610244D01*
X179882512Y-85221698D01*
X179648863Y-84872017D01*
X179351483Y-84574637D01*
X179001802Y-84340988D01*
X178613256Y-84180047D01*
X178200779Y-84098000D01*
X177780221Y-84098000D01*
X177367744Y-84180047D01*
X176979198Y-84340988D01*
X176629517Y-84574637D01*
X176332137Y-84872017D01*
X176098488Y-85221698D01*
X175937547Y-85610244D01*
X175855500Y-86022721D01*
X175855500Y-86443279D01*
X175937547Y-86855756D01*
X176098488Y-87244302D01*
X176135515Y-87299717D01*
X175969721Y-87368391D01*
X175710121Y-87541850D01*
X175489350Y-87762621D01*
X175315891Y-88022221D01*
X175196411Y-88310673D01*
X175135500Y-88616891D01*
X169415500Y-88616891D01*
X169354589Y-88310673D01*
X169235109Y-88022221D01*
X169061650Y-87762621D01*
X168840879Y-87541850D01*
X168581279Y-87368391D01*
X168292827Y-87248911D01*
X167986609Y-87188000D01*
X167674391Y-87188000D01*
X167368173Y-87248911D01*
X167079721Y-87368391D01*
X166820121Y-87541850D01*
X166599350Y-87762621D01*
X166425891Y-88022221D01*
X166306411Y-88310673D01*
X166245500Y-88616891D01*
X165435500Y-88616891D01*
X165435500Y-88508551D01*
X165332317Y-87989814D01*
X165129917Y-87501175D01*
X164836076Y-87061412D01*
X164462088Y-86687424D01*
X164022325Y-86393583D01*
X163533686Y-86191183D01*
X163014949Y-86088000D01*
X162486051Y-86088000D01*
X161967314Y-86191183D01*
X161478675Y-86393583D01*
X161038912Y-86687424D01*
X161023963Y-86702373D01*
X161075500Y-86443279D01*
X161075500Y-86022721D01*
X160993453Y-85610244D01*
X160832512Y-85221698D01*
X160598863Y-84872017D01*
X160301483Y-84574637D01*
X159951802Y-84340988D01*
X159563256Y-84180047D01*
X159150779Y-84098000D01*
X158730221Y-84098000D01*
X158317744Y-84180047D01*
X157929198Y-84340988D01*
X157579517Y-84574637D01*
X157282137Y-84872017D01*
X157048488Y-85221698D01*
X156887547Y-85610244D01*
X156805500Y-86022721D01*
X156805500Y-86443279D01*
X156887547Y-86855756D01*
X157048488Y-87244302D01*
X157085515Y-87299717D01*
X156919721Y-87368391D01*
X156660121Y-87541850D01*
X156439350Y-87762621D01*
X156265891Y-88022221D01*
X156146411Y-88310673D01*
X156085500Y-88616891D01*
X150365500Y-88616891D01*
X150304589Y-88310673D01*
X150185109Y-88022221D01*
X150011650Y-87762621D01*
X149790879Y-87541850D01*
X149531279Y-87368391D01*
X149242827Y-87248911D01*
X148936609Y-87188000D01*
X148624391Y-87188000D01*
X148318173Y-87248911D01*
X148029721Y-87368391D01*
X147770121Y-87541850D01*
X147549350Y-87762621D01*
X147375891Y-88022221D01*
X147256411Y-88310673D01*
X147195500Y-88616891D01*
X146385500Y-88616891D01*
X146385500Y-88508551D01*
X146282317Y-87989814D01*
X146079917Y-87501175D01*
X145786076Y-87061412D01*
X145412088Y-86687424D01*
X144972325Y-86393583D01*
X144483686Y-86191183D01*
X143964949Y-86088000D01*
X143436051Y-86088000D01*
X142917314Y-86191183D01*
X142428675Y-86393583D01*
X141988912Y-86687424D01*
X141973963Y-86702373D01*
X142025500Y-86443279D01*
X142025500Y-86022721D01*
X141943453Y-85610244D01*
X141782512Y-85221698D01*
X141548863Y-84872017D01*
X141251483Y-84574637D01*
X140901802Y-84340988D01*
X140513256Y-84180047D01*
X140100779Y-84098000D01*
X139680221Y-84098000D01*
X139267744Y-84180047D01*
X138879198Y-84340988D01*
X138529517Y-84574637D01*
X138232137Y-84872017D01*
X137998488Y-85221698D01*
X137837547Y-85610244D01*
X137755500Y-86022721D01*
X137755500Y-86443279D01*
X137837547Y-86855756D01*
X137998488Y-87244302D01*
X138035515Y-87299717D01*
X137869721Y-87368391D01*
X137610121Y-87541850D01*
X137389350Y-87762621D01*
X137215891Y-88022221D01*
X137096411Y-88310673D01*
X137035500Y-88616891D01*
X134740250Y-88616891D01*
X134740250Y-83482721D01*
X144105500Y-83482721D01*
X144105500Y-83903279D01*
X144187547Y-84315756D01*
X144348488Y-84704302D01*
X144582137Y-85053983D01*
X144879517Y-85351363D01*
X145229198Y-85585012D01*
X145617744Y-85745953D01*
X146030221Y-85828000D01*
X146450779Y-85828000D01*
X146863256Y-85745953D01*
X147251802Y-85585012D01*
X147601483Y-85351363D01*
X147898863Y-85053983D01*
X148114228Y-84731665D01*
X150996750Y-84731665D01*
X150996750Y-85014335D01*
X151051897Y-85291574D01*
X151160070Y-85552727D01*
X151317113Y-85787759D01*
X151516991Y-85987637D01*
X151752023Y-86144680D01*
X152013176Y-86252853D01*
X152290415Y-86308000D01*
X152573085Y-86308000D01*
X152850324Y-86252853D01*
X153111477Y-86144680D01*
X153346509Y-85987637D01*
X153546387Y-85787759D01*
X153703430Y-85552727D01*
X153811603Y-85291574D01*
X153866750Y-85014335D01*
X153866750Y-84731665D01*
X153811603Y-84454426D01*
X153703430Y-84193273D01*
X153546387Y-83958241D01*
X153346509Y-83758363D01*
X153111477Y-83601320D01*
X152850324Y-83493147D01*
X152573085Y-83438000D01*
X152290415Y-83438000D01*
X152013176Y-83493147D01*
X151752023Y-83601320D01*
X151516991Y-83758363D01*
X151317113Y-83958241D01*
X151160070Y-84193273D01*
X151051897Y-84454426D01*
X150996750Y-84731665D01*
X148114228Y-84731665D01*
X148132512Y-84704302D01*
X148293453Y-84315756D01*
X148375500Y-83903279D01*
X148375500Y-83482721D01*
X148293453Y-83070244D01*
X148132512Y-82681698D01*
X148050261Y-82558600D01*
X148251342Y-82558600D01*
X148521240Y-82504914D01*
X148775477Y-82399605D01*
X149004285Y-82246720D01*
X149198870Y-82052135D01*
X149351755Y-81823327D01*
X149383750Y-81746085D01*
X149415745Y-81823327D01*
X149568630Y-82052135D01*
X149763215Y-82246720D01*
X149992023Y-82399605D01*
X150246260Y-82504914D01*
X150516158Y-82558600D01*
X150791342Y-82558600D01*
X151061240Y-82504914D01*
X151315477Y-82399605D01*
X151544285Y-82246720D01*
X151738870Y-82052135D01*
X151891755Y-81823327D01*
X151923750Y-81746085D01*
X151955745Y-81823327D01*
X152108630Y-82052135D01*
X152303215Y-82246720D01*
X152532023Y-82399605D01*
X152786260Y-82504914D01*
X153056158Y-82558600D01*
X153331342Y-82558600D01*
X153601240Y-82504914D01*
X153855477Y-82399605D01*
X154084285Y-82246720D01*
X154278870Y-82052135D01*
X154431755Y-81823327D01*
X154463750Y-81746085D01*
X154495745Y-81823327D01*
X154648630Y-82052135D01*
X154843215Y-82246720D01*
X155072023Y-82399605D01*
X155326260Y-82504914D01*
X155596158Y-82558600D01*
X155871342Y-82558600D01*
X156141240Y-82504914D01*
X156395477Y-82399605D01*
X156624285Y-82246720D01*
X156818870Y-82052135D01*
X156971755Y-81823327D01*
X157003750Y-81746085D01*
X157035745Y-81823327D01*
X157188630Y-82052135D01*
X157383215Y-82246720D01*
X157612023Y-82399605D01*
X157866260Y-82504914D01*
X158136158Y-82558600D01*
X158411342Y-82558600D01*
X158681240Y-82504914D01*
X158935477Y-82399605D01*
X159164285Y-82246720D01*
X159358870Y-82052135D01*
X159511755Y-81823327D01*
X159543750Y-81746085D01*
X159575745Y-81823327D01*
X159728630Y-82052135D01*
X159923215Y-82246720D01*
X160152023Y-82399605D01*
X160406260Y-82504914D01*
X160676158Y-82558600D01*
X160951342Y-82558600D01*
X161221240Y-82504914D01*
X161475477Y-82399605D01*
X161704285Y-82246720D01*
X161898870Y-82052135D01*
X162051755Y-81823327D01*
X162083750Y-81746085D01*
X162115745Y-81823327D01*
X162268630Y-82052135D01*
X162463215Y-82246720D01*
X162692023Y-82399605D01*
X162946260Y-82504914D01*
X163216158Y-82558600D01*
X163480739Y-82558600D01*
X163398488Y-82681698D01*
X163237547Y-83070244D01*
X163155500Y-83482721D01*
X163155500Y-83903279D01*
X163237547Y-84315756D01*
X163398488Y-84704302D01*
X163632137Y-85053983D01*
X163929517Y-85351363D01*
X164279198Y-85585012D01*
X164667744Y-85745953D01*
X165080221Y-85828000D01*
X165500779Y-85828000D01*
X165913256Y-85745953D01*
X166301802Y-85585012D01*
X166651483Y-85351363D01*
X166948863Y-85053983D01*
X167164228Y-84731665D01*
X170046750Y-84731665D01*
X170046750Y-85014335D01*
X170101897Y-85291574D01*
X170210070Y-85552727D01*
X170367113Y-85787759D01*
X170566991Y-85987637D01*
X170802023Y-86144680D01*
X171063176Y-86252853D01*
X171340415Y-86308000D01*
X171623085Y-86308000D01*
X171900324Y-86252853D01*
X172161477Y-86144680D01*
X172396509Y-85987637D01*
X172596387Y-85787759D01*
X172753430Y-85552727D01*
X172861603Y-85291574D01*
X172916750Y-85014335D01*
X172916750Y-84731665D01*
X172861603Y-84454426D01*
X172753430Y-84193273D01*
X172596387Y-83958241D01*
X172396509Y-83758363D01*
X172161477Y-83601320D01*
X171900324Y-83493147D01*
X171623085Y-83438000D01*
X171340415Y-83438000D01*
X171063176Y-83493147D01*
X170802023Y-83601320D01*
X170566991Y-83758363D01*
X170367113Y-83958241D01*
X170210070Y-84193273D01*
X170101897Y-84454426D01*
X170046750Y-84731665D01*
X167164228Y-84731665D01*
X167182512Y-84704302D01*
X167343453Y-84315756D01*
X167425500Y-83903279D01*
X167425500Y-83482721D01*
X167343453Y-83070244D01*
X167182512Y-82681698D01*
X166948863Y-82332017D01*
X166823926Y-82207080D01*
X166978870Y-82052135D01*
X167131755Y-81823327D01*
X167237064Y-81569090D01*
X167290750Y-81299192D01*
X167290750Y-81024008D01*
X167237064Y-80754110D01*
X167131755Y-80499873D01*
X166978870Y-80271065D01*
X166784285Y-80076480D01*
X166555477Y-79923595D01*
X166301240Y-79818286D01*
X166031342Y-79764600D01*
X165756158Y-79764600D01*
X165486260Y-79818286D01*
X165232023Y-79923595D01*
X165003215Y-80076480D01*
X164808630Y-80271065D01*
X164655745Y-80499873D01*
X164623750Y-80577115D01*
X164591755Y-80499873D01*
X164438870Y-80271065D01*
X164244285Y-80076480D01*
X164015477Y-79923595D01*
X163761240Y-79818286D01*
X163491342Y-79764600D01*
X163216158Y-79764600D01*
X162946260Y-79818286D01*
X162692023Y-79923595D01*
X162463215Y-80076480D01*
X162268630Y-80271065D01*
X162115745Y-80499873D01*
X162083750Y-80577115D01*
X162051755Y-80499873D01*
X161898870Y-80271065D01*
X161704285Y-80076480D01*
X161475477Y-79923595D01*
X161221240Y-79818286D01*
X160951342Y-79764600D01*
X160676158Y-79764600D01*
X160406260Y-79818286D01*
X160152023Y-79923595D01*
X159923215Y-80076480D01*
X159728630Y-80271065D01*
X159575745Y-80499873D01*
X159543750Y-80577115D01*
X159511755Y-80499873D01*
X159358870Y-80271065D01*
X159164285Y-80076480D01*
X158935477Y-79923595D01*
X158681240Y-79818286D01*
X158411342Y-79764600D01*
X158136158Y-79764600D01*
X157866260Y-79818286D01*
X157612023Y-79923595D01*
X157383215Y-80076480D01*
X157188630Y-80271065D01*
X157035745Y-80499873D01*
X157003750Y-80577115D01*
X156971755Y-80499873D01*
X156818870Y-80271065D01*
X156624285Y-80076480D01*
X156395477Y-79923595D01*
X156141240Y-79818286D01*
X155871342Y-79764600D01*
X155596158Y-79764600D01*
X155326260Y-79818286D01*
X155072023Y-79923595D01*
X154843215Y-80076480D01*
X154648630Y-80271065D01*
X154495745Y-80499873D01*
X154463750Y-80577115D01*
X154431755Y-80499873D01*
X154278870Y-80271065D01*
X154084285Y-80076480D01*
X153855477Y-79923595D01*
X153601240Y-79818286D01*
X153331342Y-79764600D01*
X153056158Y-79764600D01*
X152786260Y-79818286D01*
X152532023Y-79923595D01*
X152303215Y-80076480D01*
X152108630Y-80271065D01*
X151955745Y-80499873D01*
X151923750Y-80577115D01*
X151891755Y-80499873D01*
X151738870Y-80271065D01*
X151544285Y-80076480D01*
X151315477Y-79923595D01*
X151061240Y-79818286D01*
X150791342Y-79764600D01*
X150516158Y-79764600D01*
X150246260Y-79818286D01*
X149992023Y-79923595D01*
X149763215Y-80076480D01*
X149568630Y-80271065D01*
X149415745Y-80499873D01*
X149383750Y-80577115D01*
X149351755Y-80499873D01*
X149198870Y-80271065D01*
X149004285Y-80076480D01*
X148775477Y-79923595D01*
X148521240Y-79818286D01*
X148251342Y-79764600D01*
X147976158Y-79764600D01*
X147706260Y-79818286D01*
X147452023Y-79923595D01*
X147223215Y-80076480D01*
X147028630Y-80271065D01*
X146875745Y-80499873D01*
X146846058Y-80571543D01*
X146841386Y-80558577D01*
X146779406Y-80442620D01*
X146539315Y-80375640D01*
X145753355Y-81161600D01*
X145767498Y-81175743D01*
X145587893Y-81355348D01*
X145573750Y-81341205D01*
X144881931Y-82033024D01*
X144879517Y-82034637D01*
X144582137Y-82332017D01*
X144348488Y-82681698D01*
X144187547Y-83070244D01*
X144105500Y-83482721D01*
X134740250Y-83482721D01*
X134740250Y-81024008D01*
X136556750Y-81024008D01*
X136556750Y-81299192D01*
X136610436Y-81569090D01*
X136715745Y-81823327D01*
X136868630Y-82052135D01*
X137063215Y-82246720D01*
X137292023Y-82399605D01*
X137546260Y-82504914D01*
X137816158Y-82558600D01*
X138091342Y-82558600D01*
X138361240Y-82504914D01*
X138615477Y-82399605D01*
X138844285Y-82246720D01*
X139038870Y-82052135D01*
X139191755Y-81823327D01*
X139223750Y-81746085D01*
X139255745Y-81823327D01*
X139408630Y-82052135D01*
X139603215Y-82246720D01*
X139832023Y-82399605D01*
X140086260Y-82504914D01*
X140356158Y-82558600D01*
X140631342Y-82558600D01*
X140901240Y-82504914D01*
X141155477Y-82399605D01*
X141384285Y-82246720D01*
X141503840Y-82127165D01*
X142247790Y-82127165D01*
X142314770Y-82367256D01*
X142563798Y-82484356D01*
X142830885Y-82550623D01*
X143105767Y-82563510D01*
X143377883Y-82522522D01*
X143636773Y-82429236D01*
X143752730Y-82367256D01*
X143819710Y-82127165D01*
X143033750Y-81341205D01*
X142247790Y-82127165D01*
X141503840Y-82127165D01*
X141578870Y-82052135D01*
X141731755Y-81823327D01*
X141761442Y-81751657D01*
X141766114Y-81764623D01*
X141828094Y-81880580D01*
X142068185Y-81947560D01*
X142854145Y-81161600D01*
X143213355Y-81161600D01*
X143999315Y-81947560D01*
X144239406Y-81880580D01*
X144300829Y-81749956D01*
X144306114Y-81764623D01*
X144368094Y-81880580D01*
X144608185Y-81947560D01*
X145394145Y-81161600D01*
X144608185Y-80375640D01*
X144368094Y-80442620D01*
X144306671Y-80573244D01*
X144301386Y-80558577D01*
X144239406Y-80442620D01*
X143999315Y-80375640D01*
X143213355Y-81161600D01*
X142854145Y-81161600D01*
X142068185Y-80375640D01*
X141828094Y-80442620D01*
X141764265Y-80578360D01*
X141731755Y-80499873D01*
X141578870Y-80271065D01*
X141503840Y-80196035D01*
X142247790Y-80196035D01*
X143033750Y-80981995D01*
X143819710Y-80196035D01*
X144787790Y-80196035D01*
X145573750Y-80981995D01*
X146359710Y-80196035D01*
X146292730Y-79955944D01*
X146043702Y-79838844D01*
X145776615Y-79772577D01*
X145501733Y-79759690D01*
X145229617Y-79800678D01*
X144970727Y-79893964D01*
X144854770Y-79955944D01*
X144787790Y-80196035D01*
X143819710Y-80196035D01*
X143752730Y-79955944D01*
X143503702Y-79838844D01*
X143236615Y-79772577D01*
X142961733Y-79759690D01*
X142689617Y-79800678D01*
X142430727Y-79893964D01*
X142314770Y-79955944D01*
X142247790Y-80196035D01*
X141503840Y-80196035D01*
X141384285Y-80076480D01*
X141155477Y-79923595D01*
X140901240Y-79818286D01*
X140631342Y-79764600D01*
X140356158Y-79764600D01*
X140086260Y-79818286D01*
X139832023Y-79923595D01*
X139603215Y-80076480D01*
X139408630Y-80271065D01*
X139255745Y-80499873D01*
X139223750Y-80577115D01*
X139191755Y-80499873D01*
X139038870Y-80271065D01*
X138844285Y-80076480D01*
X138615477Y-79923595D01*
X138361240Y-79818286D01*
X138091342Y-79764600D01*
X137816158Y-79764600D01*
X137546260Y-79818286D01*
X137292023Y-79923595D01*
X137063215Y-80076480D01*
X136868630Y-80271065D01*
X136715745Y-80499873D01*
X136610436Y-80754110D01*
X136556750Y-81024008D01*
X134740250Y-81024008D01*
X134740250Y-79280279D01*
X134745902Y-79222638D01*
X134753269Y-79198237D01*
X134765233Y-79175735D01*
X134781341Y-79155986D01*
X134800977Y-79139741D01*
X134823401Y-79127617D01*
X134847742Y-79120082D01*
X134903226Y-79114250D01*
X229393221Y-79114250D01*
X229450862Y-79119902D01*
%TA.AperFunction,Conductor*%
D19*
G36*
X229450862Y-79119902D02*
G01*
X229475263Y-79127269D01*
X229497765Y-79139233D01*
X229517514Y-79155341D01*
X229533759Y-79174977D01*
X229545883Y-79197401D01*
X229553418Y-79221742D01*
X229559251Y-79277235D01*
X229559250Y-98265721D01*
X229553598Y-98323364D01*
X229546232Y-98347760D01*
X229534266Y-98370266D01*
X229518159Y-98390014D01*
X229498523Y-98406259D01*
X229476099Y-98418383D01*
X229451758Y-98425918D01*
X229396275Y-98431750D01*
X134906279Y-98431750D01*
X134848636Y-98426098D01*
X134824240Y-98418732D01*
X134801734Y-98406766D01*
X134781986Y-98390659D01*
X134765741Y-98371023D01*
X134753617Y-98348599D01*
X134746082Y-98324258D01*
X134740250Y-98268775D01*
X134740250Y-96244008D01*
X136556750Y-96244008D01*
X136556750Y-96519192D01*
X136610436Y-96789090D01*
X136715745Y-97043327D01*
X136868630Y-97272135D01*
X137063215Y-97466720D01*
X137292023Y-97619605D01*
X137546260Y-97724914D01*
X137816158Y-97778600D01*
X138091342Y-97778600D01*
X138361240Y-97724914D01*
X138615477Y-97619605D01*
X138844285Y-97466720D01*
X138963840Y-97347165D01*
X139707790Y-97347165D01*
X139774770Y-97587256D01*
X140023798Y-97704356D01*
X140290885Y-97770623D01*
X140565767Y-97783510D01*
X140837883Y-97742522D01*
X141096773Y-97649236D01*
X141212730Y-97587256D01*
X141279710Y-97347165D01*
X140493750Y-96561205D01*
X139707790Y-97347165D01*
X138963840Y-97347165D01*
X139038870Y-97272135D01*
X139191755Y-97043327D01*
X139221442Y-96971657D01*
X139226114Y-96984623D01*
X139288094Y-97100580D01*
X139528185Y-97167560D01*
X140314145Y-96381600D01*
X140673355Y-96381600D01*
X141459315Y-97167560D01*
X141699406Y-97100580D01*
X141763235Y-96964840D01*
X141795745Y-97043327D01*
X141948630Y-97272135D01*
X142143215Y-97466720D01*
X142372023Y-97619605D01*
X142626260Y-97724914D01*
X142896158Y-97778600D01*
X143171342Y-97778600D01*
X143441240Y-97724914D01*
X143695477Y-97619605D01*
X143924285Y-97466720D01*
X144118870Y-97272135D01*
X144271755Y-97043327D01*
X144303750Y-96966085D01*
X144335745Y-97043327D01*
X144488630Y-97272135D01*
X144683215Y-97466720D01*
X144912023Y-97619605D01*
X145166260Y-97724914D01*
X145436158Y-97778600D01*
X145711342Y-97778600D01*
X145981240Y-97724914D01*
X146235477Y-97619605D01*
X146464285Y-97466720D01*
X146658870Y-97272135D01*
X146811755Y-97043327D01*
X146843750Y-96966085D01*
X146875745Y-97043327D01*
X147028630Y-97272135D01*
X147223215Y-97466720D01*
X147452023Y-97619605D01*
X147706260Y-97724914D01*
X147976158Y-97778600D01*
X148251342Y-97778600D01*
X148521240Y-97724914D01*
X148775477Y-97619605D01*
X149004285Y-97466720D01*
X149198870Y-97272135D01*
X149351755Y-97043327D01*
X149383750Y-96966085D01*
X149415745Y-97043327D01*
X149568630Y-97272135D01*
X149763215Y-97466720D01*
X149992023Y-97619605D01*
X150246260Y-97724914D01*
X150516158Y-97778600D01*
X150791342Y-97778600D01*
X151061240Y-97724914D01*
X151315477Y-97619605D01*
X151544285Y-97466720D01*
X151738870Y-97272135D01*
X151891755Y-97043327D01*
X151923750Y-96966085D01*
X151955745Y-97043327D01*
X152108630Y-97272135D01*
X152303215Y-97466720D01*
X152532023Y-97619605D01*
X152786260Y-97724914D01*
X153056158Y-97778600D01*
X153331342Y-97778600D01*
X153601240Y-97724914D01*
X153855477Y-97619605D01*
X154084285Y-97466720D01*
X154278870Y-97272135D01*
X154431755Y-97043327D01*
X154463750Y-96966085D01*
X154495745Y-97043327D01*
X154648630Y-97272135D01*
X154843215Y-97466720D01*
X155072023Y-97619605D01*
X155326260Y-97724914D01*
X155596158Y-97778600D01*
X155871342Y-97778600D01*
X156141240Y-97724914D01*
X156395477Y-97619605D01*
X156624285Y-97466720D01*
X156818870Y-97272135D01*
X156971755Y-97043327D01*
X157003750Y-96966085D01*
X157035745Y-97043327D01*
X157188630Y-97272135D01*
X157383215Y-97466720D01*
X157612023Y-97619605D01*
X157866260Y-97724914D01*
X158136158Y-97778600D01*
X158411342Y-97778600D01*
X158681240Y-97724914D01*
X158935477Y-97619605D01*
X159164285Y-97466720D01*
X159358870Y-97272135D01*
X159511755Y-97043327D01*
X159543750Y-96966085D01*
X159575745Y-97043327D01*
X159728630Y-97272135D01*
X159923215Y-97466720D01*
X160152023Y-97619605D01*
X160406260Y-97724914D01*
X160676158Y-97778600D01*
X160951342Y-97778600D01*
X161221240Y-97724914D01*
X161475477Y-97619605D01*
X161704285Y-97466720D01*
X161898870Y-97272135D01*
X162051755Y-97043327D01*
X162083750Y-96966085D01*
X162115745Y-97043327D01*
X162268630Y-97272135D01*
X162463215Y-97466720D01*
X162692023Y-97619605D01*
X162946260Y-97724914D01*
X163216158Y-97778600D01*
X163491342Y-97778600D01*
X163761240Y-97724914D01*
X164015477Y-97619605D01*
X164244285Y-97466720D01*
X164438870Y-97272135D01*
X164591755Y-97043327D01*
X164623750Y-96966085D01*
X164655745Y-97043327D01*
X164808630Y-97272135D01*
X165003215Y-97466720D01*
X165232023Y-97619605D01*
X165486260Y-97724914D01*
X165756158Y-97778600D01*
X166031342Y-97778600D01*
X166301240Y-97724914D01*
X166555477Y-97619605D01*
X166784285Y-97466720D01*
X166978870Y-97272135D01*
X167131755Y-97043327D01*
X167237064Y-96789090D01*
X167284727Y-96549467D01*
X176915500Y-96549467D01*
X176915500Y-96871533D01*
X176978332Y-97187412D01*
X177101582Y-97484963D01*
X177280513Y-97752752D01*
X177508248Y-97980487D01*
X177776037Y-98159418D01*
X178073588Y-98282668D01*
X178389467Y-98345500D01*
X178711533Y-98345500D01*
X179027412Y-98282668D01*
X179324963Y-98159418D01*
X179592752Y-97980487D01*
X179727326Y-97845913D01*
X184094692Y-97845913D01*
X184190456Y-98110314D01*
X184480071Y-98251204D01*
X184791608Y-98332884D01*
X185113095Y-98352218D01*
X185432175Y-98308461D01*
X185736588Y-98203295D01*
X185910544Y-98110314D01*
X186006308Y-97845913D01*
X185050500Y-96890105D01*
X184094692Y-97845913D01*
X179727326Y-97845913D01*
X179820487Y-97752752D01*
X179999418Y-97484963D01*
X180122668Y-97187412D01*
X180185500Y-96871533D01*
X180185500Y-96773095D01*
X183408782Y-96773095D01*
X183452539Y-97092175D01*
X183557705Y-97396588D01*
X183650686Y-97570544D01*
X183915087Y-97666308D01*
X184870895Y-96710500D01*
X185230105Y-96710500D01*
X186185913Y-97666308D01*
X186450314Y-97570544D01*
X186591204Y-97280929D01*
X186672884Y-96969392D01*
X186692218Y-96647905D01*
X186648461Y-96328825D01*
X186543295Y-96024412D01*
X186450314Y-95850456D01*
X186185913Y-95754692D01*
X185230105Y-96710500D01*
X184870895Y-96710500D01*
X183915087Y-95754692D01*
X183650686Y-95850456D01*
X183509796Y-96140071D01*
X183428116Y-96451608D01*
X183408782Y-96773095D01*
X180185500Y-96773095D01*
X180185500Y-96549467D01*
X180122668Y-96233588D01*
X179999418Y-95936037D01*
X179820487Y-95668248D01*
X179727326Y-95575087D01*
X184094692Y-95575087D01*
X185050500Y-96530895D01*
X186006308Y-95575087D01*
X185910544Y-95310686D01*
X185620929Y-95169796D01*
X185309392Y-95088116D01*
X184987905Y-95068782D01*
X184668825Y-95112539D01*
X184364412Y-95217705D01*
X184190456Y-95310686D01*
X184094692Y-95575087D01*
X179727326Y-95575087D01*
X179592752Y-95440513D01*
X179324963Y-95261582D01*
X179027412Y-95138332D01*
X178711533Y-95075500D01*
X178389467Y-95075500D01*
X178073588Y-95138332D01*
X177776037Y-95261582D01*
X177508248Y-95440513D01*
X177280513Y-95668248D01*
X177101582Y-95936037D01*
X176978332Y-96233588D01*
X176915500Y-96549467D01*
X167284727Y-96549467D01*
X167290750Y-96519192D01*
X167290750Y-96244008D01*
X167237064Y-95974110D01*
X167131755Y-95719873D01*
X166978870Y-95491065D01*
X166784285Y-95296480D01*
X166555477Y-95143595D01*
X166301240Y-95038286D01*
X166031342Y-94984600D01*
X165756158Y-94984600D01*
X165486260Y-95038286D01*
X165232023Y-95143595D01*
X165003215Y-95296480D01*
X164808630Y-95491065D01*
X164655745Y-95719873D01*
X164623750Y-95797115D01*
X164591755Y-95719873D01*
X164438870Y-95491065D01*
X164244285Y-95296480D01*
X164015477Y-95143595D01*
X163761240Y-95038286D01*
X163491342Y-94984600D01*
X163216158Y-94984600D01*
X162946260Y-95038286D01*
X162692023Y-95143595D01*
X162463215Y-95296480D01*
X162268630Y-95491065D01*
X162115745Y-95719873D01*
X162083750Y-95797115D01*
X162051755Y-95719873D01*
X161898870Y-95491065D01*
X161704285Y-95296480D01*
X161475477Y-95143595D01*
X161221240Y-95038286D01*
X160951342Y-94984600D01*
X160676158Y-94984600D01*
X160406260Y-95038286D01*
X160152023Y-95143595D01*
X159923215Y-95296480D01*
X159728630Y-95491065D01*
X159575745Y-95719873D01*
X159543750Y-95797115D01*
X159511755Y-95719873D01*
X159358870Y-95491065D01*
X159164285Y-95296480D01*
X158935477Y-95143595D01*
X158681240Y-95038286D01*
X158411342Y-94984600D01*
X158136158Y-94984600D01*
X157866260Y-95038286D01*
X157612023Y-95143595D01*
X157383215Y-95296480D01*
X157188630Y-95491065D01*
X157035745Y-95719873D01*
X157003750Y-95797115D01*
X156971755Y-95719873D01*
X156818870Y-95491065D01*
X156624285Y-95296480D01*
X156395477Y-95143595D01*
X156141240Y-95038286D01*
X155871342Y-94984600D01*
X155596158Y-94984600D01*
X155326260Y-95038286D01*
X155072023Y-95143595D01*
X154843215Y-95296480D01*
X154648630Y-95491065D01*
X154495745Y-95719873D01*
X154463750Y-95797115D01*
X154431755Y-95719873D01*
X154278870Y-95491065D01*
X154084285Y-95296480D01*
X153855477Y-95143595D01*
X153601240Y-95038286D01*
X153331342Y-94984600D01*
X153056158Y-94984600D01*
X152786260Y-95038286D01*
X152532023Y-95143595D01*
X152303215Y-95296480D01*
X152108630Y-95491065D01*
X151955745Y-95719873D01*
X151923750Y-95797115D01*
X151891755Y-95719873D01*
X151738870Y-95491065D01*
X151544285Y-95296480D01*
X151315477Y-95143595D01*
X151061240Y-95038286D01*
X150791342Y-94984600D01*
X150516158Y-94984600D01*
X150246260Y-95038286D01*
X149992023Y-95143595D01*
X149763215Y-95296480D01*
X149568630Y-95491065D01*
X149415745Y-95719873D01*
X149383750Y-95797115D01*
X149351755Y-95719873D01*
X149198870Y-95491065D01*
X149004285Y-95296480D01*
X148775477Y-95143595D01*
X148521240Y-95038286D01*
X148251342Y-94984600D01*
X147976158Y-94984600D01*
X147706260Y-95038286D01*
X147452023Y-95143595D01*
X147223215Y-95296480D01*
X147028630Y-95491065D01*
X146875745Y-95719873D01*
X146843750Y-95797115D01*
X146811755Y-95719873D01*
X146658870Y-95491065D01*
X146464285Y-95296480D01*
X146235477Y-95143595D01*
X145981240Y-95038286D01*
X145711342Y-94984600D01*
X145436158Y-94984600D01*
X145166260Y-95038286D01*
X144912023Y-95143595D01*
X144683215Y-95296480D01*
X144488630Y-95491065D01*
X144335745Y-95719873D01*
X144303750Y-95797115D01*
X144271755Y-95719873D01*
X144118870Y-95491065D01*
X143924285Y-95296480D01*
X143695477Y-95143595D01*
X143441240Y-95038286D01*
X143171342Y-94984600D01*
X142896158Y-94984600D01*
X142626260Y-95038286D01*
X142372023Y-95143595D01*
X142143215Y-95296480D01*
X141948630Y-95491065D01*
X141795745Y-95719873D01*
X141766058Y-95791543D01*
X141761386Y-95778577D01*
X141699406Y-95662620D01*
X141459315Y-95595640D01*
X140673355Y-96381600D01*
X140314145Y-96381600D01*
X139528185Y-95595640D01*
X139288094Y-95662620D01*
X139224265Y-95798360D01*
X139191755Y-95719873D01*
X139038870Y-95491065D01*
X138963840Y-95416035D01*
X139707790Y-95416035D01*
X140493750Y-96201995D01*
X141279710Y-95416035D01*
X141212730Y-95175944D01*
X140963702Y-95058844D01*
X140696615Y-94992577D01*
X140421733Y-94979690D01*
X140149617Y-95020678D01*
X139890727Y-95113964D01*
X139774770Y-95175944D01*
X139707790Y-95416035D01*
X138963840Y-95416035D01*
X138844285Y-95296480D01*
X138615477Y-95143595D01*
X138361240Y-95038286D01*
X138091342Y-94984600D01*
X137816158Y-94984600D01*
X137546260Y-95038286D01*
X137292023Y-95143595D01*
X137063215Y-95296480D01*
X136868630Y-95491065D01*
X136715745Y-95719873D01*
X136610436Y-95974110D01*
X136556750Y-96244008D01*
X134740250Y-96244008D01*
X134740250Y-94257000D01*
X215762428Y-94257000D01*
X215762428Y-96257000D01*
X215774688Y-96381482D01*
X215810998Y-96501180D01*
X215869963Y-96611494D01*
X215949315Y-96708185D01*
X216046006Y-96787537D01*
X216156320Y-96846502D01*
X216276018Y-96882812D01*
X216400500Y-96895072D01*
X218400500Y-96895072D01*
X218524982Y-96882812D01*
X218644680Y-96846502D01*
X218754994Y-96787537D01*
X218851685Y-96708185D01*
X218931037Y-96611494D01*
X218986476Y-96507777D01*
X219040456Y-96656814D01*
X219330071Y-96797704D01*
X219641608Y-96879384D01*
X219963095Y-96898718D01*
X220282175Y-96854961D01*
X220586588Y-96749795D01*
X220760544Y-96656814D01*
X220856308Y-96392413D01*
X219900500Y-95436605D01*
X219886358Y-95450748D01*
X219706753Y-95271143D01*
X219720895Y-95257000D01*
X220080105Y-95257000D01*
X221035913Y-96212808D01*
X221065575Y-96202065D01*
X221130513Y-96299252D01*
X221358248Y-96526987D01*
X221626037Y-96705918D01*
X221923588Y-96829168D01*
X222239467Y-96892000D01*
X222561533Y-96892000D01*
X222877412Y-96829168D01*
X223174963Y-96705918D01*
X223442752Y-96526987D01*
X223670487Y-96299252D01*
X223849418Y-96031463D01*
X223972668Y-95733912D01*
X224035500Y-95418033D01*
X224035500Y-95095967D01*
X223972668Y-94780088D01*
X223849418Y-94482537D01*
X223670487Y-94214748D01*
X223442752Y-93987013D01*
X223174963Y-93808082D01*
X222877412Y-93684832D01*
X222561533Y-93622000D01*
X222239467Y-93622000D01*
X221923588Y-93684832D01*
X221626037Y-93808082D01*
X221358248Y-93987013D01*
X221130513Y-94214748D01*
X221065575Y-94311935D01*
X221035913Y-94301192D01*
X220080105Y-95257000D01*
X219720895Y-95257000D01*
X219706753Y-95242858D01*
X219886358Y-95063253D01*
X219900500Y-95077395D01*
X220856308Y-94121587D01*
X220760544Y-93857186D01*
X220470929Y-93716296D01*
X220159392Y-93634616D01*
X219837905Y-93615282D01*
X219518825Y-93659039D01*
X219214412Y-93764205D01*
X219040456Y-93857186D01*
X218986476Y-94006223D01*
X218931037Y-93902506D01*
X218851685Y-93805815D01*
X218754994Y-93726463D01*
X218644680Y-93667498D01*
X218524982Y-93631188D01*
X218400500Y-93618928D01*
X216400500Y-93618928D01*
X216276018Y-93631188D01*
X216156320Y-93667498D01*
X216046006Y-93726463D01*
X215949315Y-93805815D01*
X215869963Y-93902506D01*
X215810998Y-94012820D01*
X215774688Y-94132518D01*
X215762428Y-94257000D01*
X134740250Y-94257000D01*
X134740250Y-91873000D01*
X150993678Y-91873000D01*
X150993678Y-93473000D01*
X151005938Y-93597482D01*
X151042248Y-93717180D01*
X151101213Y-93827494D01*
X151180565Y-93924185D01*
X151277256Y-94003537D01*
X151387570Y-94062502D01*
X151507268Y-94098812D01*
X151631750Y-94111072D01*
X153231750Y-94111072D01*
X153356232Y-94098812D01*
X153475930Y-94062502D01*
X153586244Y-94003537D01*
X153682935Y-93924185D01*
X153762287Y-93827494D01*
X153821252Y-93717180D01*
X153857562Y-93597482D01*
X153869822Y-93473000D01*
X153869822Y-91873000D01*
X170043678Y-91873000D01*
X170043678Y-93473000D01*
X170055938Y-93597482D01*
X170092248Y-93717180D01*
X170151213Y-93827494D01*
X170230565Y-93924185D01*
X170327256Y-94003537D01*
X170437570Y-94062502D01*
X170557268Y-94098812D01*
X170681750Y-94111072D01*
X172281750Y-94111072D01*
X172406232Y-94098812D01*
X172525930Y-94062502D01*
X172636244Y-94003537D01*
X172732935Y-93924185D01*
X172812287Y-93827494D01*
X172871252Y-93717180D01*
X172907562Y-93597482D01*
X172919822Y-93473000D01*
X172919822Y-91873000D01*
X172907562Y-91748518D01*
X172871252Y-91628820D01*
X172812287Y-91518506D01*
X172732935Y-91421815D01*
X172636244Y-91342463D01*
X172525930Y-91283498D01*
X172406232Y-91247188D01*
X172281750Y-91234928D01*
X170681750Y-91234928D01*
X170557268Y-91247188D01*
X170437570Y-91283498D01*
X170327256Y-91342463D01*
X170230565Y-91421815D01*
X170151213Y-91518506D01*
X170092248Y-91628820D01*
X170055938Y-91748518D01*
X170043678Y-91873000D01*
X153869822Y-91873000D01*
X153857562Y-91748518D01*
X153821252Y-91628820D01*
X153762287Y-91518506D01*
X153682935Y-91421815D01*
X153586244Y-91342463D01*
X153475930Y-91283498D01*
X153356232Y-91247188D01*
X153231750Y-91234928D01*
X151631750Y-91234928D01*
X151507268Y-91247188D01*
X151387570Y-91283498D01*
X151277256Y-91342463D01*
X151180565Y-91421815D01*
X151101213Y-91518506D01*
X151042248Y-91628820D01*
X151005938Y-91748518D01*
X150993678Y-91873000D01*
X134740250Y-91873000D01*
X134740250Y-88616891D01*
X137035500Y-88616891D01*
X137035500Y-88929109D01*
X137096411Y-89235327D01*
X137215891Y-89523779D01*
X137389350Y-89783379D01*
X137610121Y-90004150D01*
X137869721Y-90177609D01*
X138158173Y-90297089D01*
X138464391Y-90358000D01*
X138776609Y-90358000D01*
X139082827Y-90297089D01*
X139371279Y-90177609D01*
X139630879Y-90004150D01*
X139851650Y-89783379D01*
X140025109Y-89523779D01*
X140144589Y-89235327D01*
X140205500Y-88929109D01*
X140205500Y-88616891D01*
X140153891Y-88357435D01*
X140513256Y-88285953D01*
X140901802Y-88125012D01*
X141124248Y-87976378D01*
X141118683Y-87989814D01*
X141015500Y-88508551D01*
X141015500Y-89037449D01*
X141118683Y-89556186D01*
X141321083Y-90044825D01*
X141614924Y-90484588D01*
X141988912Y-90858576D01*
X142428675Y-91152417D01*
X142917314Y-91354817D01*
X143436051Y-91458000D01*
X143964949Y-91458000D01*
X144483686Y-91354817D01*
X144972325Y-91152417D01*
X145412088Y-90858576D01*
X145786076Y-90484588D01*
X146079917Y-90044825D01*
X146282317Y-89556186D01*
X146385500Y-89037449D01*
X146385500Y-88616891D01*
X147195500Y-88616891D01*
X147195500Y-88929109D01*
X147256411Y-89235327D01*
X147375891Y-89523779D01*
X147549350Y-89783379D01*
X147770121Y-90004150D01*
X148029721Y-90177609D01*
X148318173Y-90297089D01*
X148624391Y-90358000D01*
X148936609Y-90358000D01*
X149242827Y-90297089D01*
X149531279Y-90177609D01*
X149790879Y-90004150D01*
X150011650Y-89783379D01*
X150185109Y-89523779D01*
X150304589Y-89235327D01*
X150365500Y-88929109D01*
X150365500Y-88616891D01*
X156085500Y-88616891D01*
X156085500Y-88929109D01*
X156146411Y-89235327D01*
X156265891Y-89523779D01*
X156439350Y-89783379D01*
X156660121Y-90004150D01*
X156919721Y-90177609D01*
X157208173Y-90297089D01*
X157514391Y-90358000D01*
X157826609Y-90358000D01*
X158132827Y-90297089D01*
X158421279Y-90177609D01*
X158680879Y-90004150D01*
X158901650Y-89783379D01*
X159075109Y-89523779D01*
X159194589Y-89235327D01*
X159255500Y-88929109D01*
X159255500Y-88616891D01*
X159203891Y-88357435D01*
X159563256Y-88285953D01*
X159951802Y-88125012D01*
X160174248Y-87976378D01*
X160168683Y-87989814D01*
X160065500Y-88508551D01*
X160065500Y-89037449D01*
X160168683Y-89556186D01*
X160371083Y-90044825D01*
X160664924Y-90484588D01*
X161038912Y-90858576D01*
X161478675Y-91152417D01*
X161967314Y-91354817D01*
X162486051Y-91458000D01*
X163014949Y-91458000D01*
X163533686Y-91354817D01*
X164022325Y-91152417D01*
X164462088Y-90858576D01*
X164836076Y-90484588D01*
X165129917Y-90044825D01*
X165332317Y-89556186D01*
X165435500Y-89037449D01*
X165435500Y-88616891D01*
X166245500Y-88616891D01*
X166245500Y-88929109D01*
X166306411Y-89235327D01*
X166425891Y-89523779D01*
X166599350Y-89783379D01*
X166820121Y-90004150D01*
X167079721Y-90177609D01*
X167368173Y-90297089D01*
X167674391Y-90358000D01*
X167986609Y-90358000D01*
X168292827Y-90297089D01*
X168581279Y-90177609D01*
X168840879Y-90004150D01*
X169061650Y-89783379D01*
X169235109Y-89523779D01*
X169354589Y-89235327D01*
X169415500Y-88929109D01*
X169415500Y-88616891D01*
X175135500Y-88616891D01*
X175135500Y-88929109D01*
X175196411Y-89235327D01*
X175315891Y-89523779D01*
X175489350Y-89783379D01*
X175710121Y-90004150D01*
X175969721Y-90177609D01*
X176258173Y-90297089D01*
X176564391Y-90358000D01*
X176876609Y-90358000D01*
X177182827Y-90297089D01*
X177471279Y-90177609D01*
X177730879Y-90004150D01*
X177951650Y-89783379D01*
X178125109Y-89523779D01*
X178244589Y-89235327D01*
X178305500Y-88929109D01*
X178305500Y-88616891D01*
X178253891Y-88357435D01*
X178613256Y-88285953D01*
X179001802Y-88125012D01*
X179224248Y-87976378D01*
X179218683Y-87989814D01*
X179115500Y-88508551D01*
X179115500Y-89037449D01*
X179218683Y-89556186D01*
X179421083Y-90044825D01*
X179714924Y-90484588D01*
X180088912Y-90858576D01*
X180528675Y-91152417D01*
X181017314Y-91354817D01*
X181536051Y-91458000D01*
X182064949Y-91458000D01*
X182583686Y-91354817D01*
X183072325Y-91152417D01*
X183512088Y-90858576D01*
X183886076Y-90484588D01*
X184179917Y-90044825D01*
X184382317Y-89556186D01*
X184485500Y-89037449D01*
X184485500Y-88508551D01*
X184382317Y-87989814D01*
X184179917Y-87501175D01*
X183950614Y-87157999D01*
X186254448Y-87157999D01*
X186366686Y-87270237D01*
X186129721Y-87368391D01*
X185870121Y-87541850D01*
X185649350Y-87762621D01*
X185475891Y-88022221D01*
X185356411Y-88310673D01*
X185295500Y-88616891D01*
X185295500Y-88929109D01*
X185356411Y-89235327D01*
X185475891Y-89523779D01*
X185649350Y-89783379D01*
X185870121Y-90004150D01*
X186129721Y-90177609D01*
X186418173Y-90297089D01*
X186724391Y-90358000D01*
X187036609Y-90358000D01*
X187342827Y-90297089D01*
X187631279Y-90177609D01*
X187890879Y-90004150D01*
X188111650Y-89783379D01*
X188285109Y-89523779D01*
X188383263Y-89286814D01*
X190331376Y-91234928D01*
X189731750Y-91234928D01*
X189607268Y-91247188D01*
X189487570Y-91283498D01*
X189377256Y-91342463D01*
X189280565Y-91421815D01*
X189201213Y-91518506D01*
X189142248Y-91628820D01*
X189105938Y-91748518D01*
X189093678Y-91873000D01*
X189093678Y-93473000D01*
X189105938Y-93597482D01*
X189142248Y-93717180D01*
X189201213Y-93827494D01*
X189280565Y-93924185D01*
X189377256Y-94003537D01*
X189487570Y-94062502D01*
X189607268Y-94098812D01*
X189731750Y-94111072D01*
X191331750Y-94111072D01*
X191456232Y-94098812D01*
X191575930Y-94062502D01*
X191686244Y-94003537D01*
X191782935Y-93924185D01*
X191862287Y-93827494D01*
X191921252Y-93717180D01*
X191957562Y-93597482D01*
X191969822Y-93473000D01*
X191969822Y-93169302D01*
X191995795Y-93232006D01*
X192109063Y-93401524D01*
X192253226Y-93545687D01*
X192422744Y-93658955D01*
X192611102Y-93736976D01*
X192811061Y-93776750D01*
X193014939Y-93776750D01*
X193214898Y-93736976D01*
X193403256Y-93658955D01*
X193572774Y-93545687D01*
X193716937Y-93401524D01*
X193830205Y-93232006D01*
X193908226Y-93043648D01*
X193948000Y-92843689D01*
X193948000Y-92639811D01*
X193908226Y-92439852D01*
X193830205Y-92251494D01*
X193716937Y-92081976D01*
X193572774Y-91937813D01*
X193475775Y-91873000D01*
X208143678Y-91873000D01*
X208143678Y-93473000D01*
X208155938Y-93597482D01*
X208192248Y-93717180D01*
X208251213Y-93827494D01*
X208330565Y-93924185D01*
X208427256Y-94003537D01*
X208537570Y-94062502D01*
X208657268Y-94098812D01*
X208781750Y-94111072D01*
X210381750Y-94111072D01*
X210506232Y-94098812D01*
X210625930Y-94062502D01*
X210736244Y-94003537D01*
X210832935Y-93924185D01*
X210912287Y-93827494D01*
X210971252Y-93717180D01*
X211007562Y-93597482D01*
X211019822Y-93473000D01*
X211019822Y-93460500D01*
X226399928Y-93460500D01*
X226399928Y-95060500D01*
X226412188Y-95184982D01*
X226448498Y-95304680D01*
X226507463Y-95414994D01*
X226586815Y-95511685D01*
X226683506Y-95591037D01*
X226793820Y-95650002D01*
X226913518Y-95686312D01*
X227038000Y-95698572D01*
X228638000Y-95698572D01*
X228762482Y-95686312D01*
X228882180Y-95650002D01*
X228992494Y-95591037D01*
X229089185Y-95511685D01*
X229168537Y-95414994D01*
X229227502Y-95304680D01*
X229263812Y-95184982D01*
X229276072Y-95060500D01*
X229276072Y-93460500D01*
X229263812Y-93336018D01*
X229227502Y-93216320D01*
X229168537Y-93106006D01*
X229089185Y-93009315D01*
X228992494Y-92929963D01*
X228882180Y-92870998D01*
X228762482Y-92834688D01*
X228638000Y-92822428D01*
X227038000Y-92822428D01*
X226913518Y-92834688D01*
X226793820Y-92870998D01*
X226683506Y-92929963D01*
X226586815Y-93009315D01*
X226507463Y-93106006D01*
X226448498Y-93216320D01*
X226412188Y-93336018D01*
X226399928Y-93460500D01*
X211019822Y-93460500D01*
X211019822Y-91873000D01*
X211007562Y-91748518D01*
X210971252Y-91628820D01*
X210912287Y-91518506D01*
X210832935Y-91421815D01*
X210736244Y-91342463D01*
X210625930Y-91283498D01*
X210506232Y-91247188D01*
X210381750Y-91234928D01*
X208781750Y-91234928D01*
X208657268Y-91247188D01*
X208537570Y-91283498D01*
X208427256Y-91342463D01*
X208330565Y-91421815D01*
X208251213Y-91518506D01*
X208192248Y-91628820D01*
X208155938Y-91748518D01*
X208143678Y-91873000D01*
X193475775Y-91873000D01*
X193403256Y-91824545D01*
X193214898Y-91746524D01*
X193014939Y-91706750D01*
X192952802Y-91706750D01*
X189862943Y-88616891D01*
X194185500Y-88616891D01*
X194185500Y-88929109D01*
X194246411Y-89235327D01*
X194365891Y-89523779D01*
X194539350Y-89783379D01*
X194760121Y-90004150D01*
X195019721Y-90177609D01*
X195308173Y-90297089D01*
X195614391Y-90358000D01*
X195926609Y-90358000D01*
X196232827Y-90297089D01*
X196521279Y-90177609D01*
X196780879Y-90004150D01*
X197001650Y-89783379D01*
X197175109Y-89523779D01*
X197294589Y-89235327D01*
X197355500Y-88929109D01*
X197355500Y-88616891D01*
X197303891Y-88357435D01*
X197663256Y-88285953D01*
X198051802Y-88125012D01*
X198274248Y-87976378D01*
X198268683Y-87989814D01*
X198165500Y-88508551D01*
X198165500Y-89037449D01*
X198268683Y-89556186D01*
X198471083Y-90044825D01*
X198764924Y-90484588D01*
X199138912Y-90858576D01*
X199578675Y-91152417D01*
X200067314Y-91354817D01*
X200586051Y-91458000D01*
X201114949Y-91458000D01*
X201633686Y-91354817D01*
X202122325Y-91152417D01*
X202562088Y-90858576D01*
X202936076Y-90484588D01*
X203229917Y-90044825D01*
X203432317Y-89556186D01*
X203535500Y-89037449D01*
X203535500Y-88616891D01*
X204345500Y-88616891D01*
X204345500Y-88929109D01*
X204406411Y-89235327D01*
X204525891Y-89523779D01*
X204699350Y-89783379D01*
X204920121Y-90004150D01*
X205179721Y-90177609D01*
X205468173Y-90297089D01*
X205774391Y-90358000D01*
X206086609Y-90358000D01*
X206392827Y-90297089D01*
X206681279Y-90177609D01*
X206940879Y-90004150D01*
X207161650Y-89783379D01*
X207335109Y-89523779D01*
X207454589Y-89235327D01*
X207515500Y-88929109D01*
X207515500Y-88616891D01*
X213235500Y-88616891D01*
X213235500Y-88929109D01*
X213296411Y-89235327D01*
X213415891Y-89523779D01*
X213589350Y-89783379D01*
X213810121Y-90004150D01*
X214069721Y-90177609D01*
X214358173Y-90297089D01*
X214664391Y-90358000D01*
X214976609Y-90358000D01*
X215282827Y-90297089D01*
X215571279Y-90177609D01*
X215830879Y-90004150D01*
X216051650Y-89783379D01*
X216225109Y-89523779D01*
X216344589Y-89235327D01*
X216405500Y-88929109D01*
X216405500Y-88616891D01*
X216353891Y-88357435D01*
X216713256Y-88285953D01*
X217101802Y-88125012D01*
X217324248Y-87976378D01*
X217318683Y-87989814D01*
X217215500Y-88508551D01*
X217215500Y-89037449D01*
X217318683Y-89556186D01*
X217521083Y-90044825D01*
X217814924Y-90484588D01*
X218188912Y-90858576D01*
X218628675Y-91152417D01*
X219117314Y-91354817D01*
X219636051Y-91458000D01*
X220164949Y-91458000D01*
X220683686Y-91354817D01*
X221172325Y-91152417D01*
X221612088Y-90858576D01*
X221986076Y-90484588D01*
X222279917Y-90044825D01*
X222482317Y-89556186D01*
X222585500Y-89037449D01*
X222585500Y-88616891D01*
X223395500Y-88616891D01*
X223395500Y-88929109D01*
X223456411Y-89235327D01*
X223575891Y-89523779D01*
X223749350Y-89783379D01*
X223970121Y-90004150D01*
X224229721Y-90177609D01*
X224518173Y-90297089D01*
X224824391Y-90358000D01*
X225136609Y-90358000D01*
X225442827Y-90297089D01*
X225731279Y-90177609D01*
X225990879Y-90004150D01*
X226211650Y-89783379D01*
X226385109Y-89523779D01*
X226504589Y-89235327D01*
X226565500Y-88929109D01*
X226565500Y-88616891D01*
X226504589Y-88310673D01*
X226385109Y-88022221D01*
X226211650Y-87762621D01*
X225990879Y-87541850D01*
X225731279Y-87368391D01*
X225442827Y-87248911D01*
X225136609Y-87188000D01*
X224824391Y-87188000D01*
X224518173Y-87248911D01*
X224229721Y-87368391D01*
X223970121Y-87541850D01*
X223749350Y-87762621D01*
X223575891Y-88022221D01*
X223456411Y-88310673D01*
X223395500Y-88616891D01*
X222585500Y-88616891D01*
X222585500Y-88508551D01*
X222482317Y-87989814D01*
X222279917Y-87501175D01*
X221986076Y-87061412D01*
X221612088Y-86687424D01*
X221172325Y-86393583D01*
X220992664Y-86319165D01*
X226403000Y-86319165D01*
X226403000Y-86601835D01*
X226458147Y-86879074D01*
X226566320Y-87140227D01*
X226723363Y-87375259D01*
X226923241Y-87575137D01*
X227158273Y-87732180D01*
X227419426Y-87840353D01*
X227696665Y-87895500D01*
X227979335Y-87895500D01*
X228256574Y-87840353D01*
X228517727Y-87732180D01*
X228752759Y-87575137D01*
X228952637Y-87375259D01*
X229109680Y-87140227D01*
X229217853Y-86879074D01*
X229273000Y-86601835D01*
X229273000Y-86319165D01*
X229217853Y-86041926D01*
X229109680Y-85780773D01*
X228952637Y-85545741D01*
X228752759Y-85345863D01*
X228517727Y-85188820D01*
X228256574Y-85080647D01*
X227979335Y-85025500D01*
X227696665Y-85025500D01*
X227419426Y-85080647D01*
X227158273Y-85188820D01*
X226923241Y-85345863D01*
X226723363Y-85545741D01*
X226566320Y-85780773D01*
X226458147Y-86041926D01*
X226403000Y-86319165D01*
X220992664Y-86319165D01*
X220683686Y-86191183D01*
X220164949Y-86088000D01*
X219636051Y-86088000D01*
X219117314Y-86191183D01*
X218628675Y-86393583D01*
X218188912Y-86687424D01*
X218173963Y-86702373D01*
X218225500Y-86443279D01*
X218225500Y-86022721D01*
X218143453Y-85610244D01*
X217982512Y-85221698D01*
X217748863Y-84872017D01*
X217451483Y-84574637D01*
X217101802Y-84340988D01*
X216713256Y-84180047D01*
X216300779Y-84098000D01*
X215880221Y-84098000D01*
X215467744Y-84180047D01*
X215079198Y-84340988D01*
X214729517Y-84574637D01*
X214432137Y-84872017D01*
X214198488Y-85221698D01*
X214037547Y-85610244D01*
X213955500Y-86022721D01*
X213955500Y-86443279D01*
X214037547Y-86855756D01*
X214198488Y-87244302D01*
X214235515Y-87299717D01*
X214069721Y-87368391D01*
X213810121Y-87541850D01*
X213589350Y-87762621D01*
X213415891Y-88022221D01*
X213296411Y-88310673D01*
X213235500Y-88616891D01*
X207515500Y-88616891D01*
X207454589Y-88310673D01*
X207335109Y-88022221D01*
X207161650Y-87762621D01*
X206940879Y-87541850D01*
X206681279Y-87368391D01*
X206392827Y-87248911D01*
X206086609Y-87188000D01*
X205774391Y-87188000D01*
X205468173Y-87248911D01*
X205179721Y-87368391D01*
X204920121Y-87541850D01*
X204699350Y-87762621D01*
X204525891Y-88022221D01*
X204406411Y-88310673D01*
X204345500Y-88616891D01*
X203535500Y-88616891D01*
X203535500Y-88508551D01*
X203432317Y-87989814D01*
X203229917Y-87501175D01*
X202936076Y-87061412D01*
X202562088Y-86687424D01*
X202122325Y-86393583D01*
X201633686Y-86191183D01*
X201114949Y-86088000D01*
X200586051Y-86088000D01*
X200067314Y-86191183D01*
X199578675Y-86393583D01*
X199138912Y-86687424D01*
X199123963Y-86702373D01*
X199175500Y-86443279D01*
X199175500Y-86022721D01*
X199093453Y-85610244D01*
X198932512Y-85221698D01*
X198698863Y-84872017D01*
X198401483Y-84574637D01*
X198051802Y-84340988D01*
X197663256Y-84180047D01*
X197250779Y-84098000D01*
X196830221Y-84098000D01*
X196417744Y-84180047D01*
X196029198Y-84340988D01*
X195679517Y-84574637D01*
X195382137Y-84872017D01*
X195148488Y-85221698D01*
X194987547Y-85610244D01*
X194905500Y-86022721D01*
X194905500Y-86443279D01*
X194987547Y-86855756D01*
X195148488Y-87244302D01*
X195185515Y-87299717D01*
X195019721Y-87368391D01*
X194760121Y-87541850D01*
X194539350Y-87762621D01*
X194365891Y-88022221D01*
X194246411Y-88310673D01*
X194185500Y-88616891D01*
X189862943Y-88616891D01*
X187133053Y-85887002D01*
X187109250Y-85857998D01*
X186993525Y-85763025D01*
X186861496Y-85692453D01*
X186718235Y-85648996D01*
X186606582Y-85637999D01*
X186606571Y-85637999D01*
X186569249Y-85634323D01*
X186531927Y-85637999D01*
X185223880Y-85637999D01*
X185351802Y-85585012D01*
X185701483Y-85351363D01*
X185998863Y-85053983D01*
X186214228Y-84731665D01*
X189096750Y-84731665D01*
X189096750Y-85014335D01*
X189151897Y-85291574D01*
X189260070Y-85552727D01*
X189417113Y-85787759D01*
X189616991Y-85987637D01*
X189852023Y-86144680D01*
X190113176Y-86252853D01*
X190390415Y-86308000D01*
X190673085Y-86308000D01*
X190950324Y-86252853D01*
X191211477Y-86144680D01*
X191446509Y-85987637D01*
X191646387Y-85787759D01*
X191803430Y-85552727D01*
X191911603Y-85291574D01*
X191966750Y-85014335D01*
X191966750Y-84731665D01*
X191911603Y-84454426D01*
X191803430Y-84193273D01*
X191646387Y-83958241D01*
X191446509Y-83758363D01*
X191211477Y-83601320D01*
X190950324Y-83493147D01*
X190897910Y-83482721D01*
X201255500Y-83482721D01*
X201255500Y-83903279D01*
X201337547Y-84315756D01*
X201498488Y-84704302D01*
X201732137Y-85053983D01*
X202029517Y-85351363D01*
X202379198Y-85585012D01*
X202767744Y-85745953D01*
X203180221Y-85828000D01*
X203600779Y-85828000D01*
X204013256Y-85745953D01*
X204401802Y-85585012D01*
X204751483Y-85351363D01*
X205048863Y-85053983D01*
X205264228Y-84731665D01*
X208146750Y-84731665D01*
X208146750Y-85014335D01*
X208201897Y-85291574D01*
X208310070Y-85552727D01*
X208467113Y-85787759D01*
X208666991Y-85987637D01*
X208902023Y-86144680D01*
X209163176Y-86252853D01*
X209440415Y-86308000D01*
X209723085Y-86308000D01*
X210000324Y-86252853D01*
X210261477Y-86144680D01*
X210496509Y-85987637D01*
X210696387Y-85787759D01*
X210853430Y-85552727D01*
X210961603Y-85291574D01*
X211016750Y-85014335D01*
X211016750Y-84731665D01*
X210961603Y-84454426D01*
X210853430Y-84193273D01*
X210696387Y-83958241D01*
X210496509Y-83758363D01*
X210261477Y-83601320D01*
X210000324Y-83493147D01*
X209947910Y-83482721D01*
X220305500Y-83482721D01*
X220305500Y-83903279D01*
X220387547Y-84315756D01*
X220548488Y-84704302D01*
X220782137Y-85053983D01*
X221079517Y-85351363D01*
X221429198Y-85585012D01*
X221817744Y-85745953D01*
X222230221Y-85828000D01*
X222650779Y-85828000D01*
X223063256Y-85745953D01*
X223451802Y-85585012D01*
X223801483Y-85351363D01*
X224098863Y-85053983D01*
X224332512Y-84704302D01*
X224493453Y-84315756D01*
X224575500Y-83903279D01*
X224575500Y-83482721D01*
X224493453Y-83070244D01*
X224332512Y-82681698D01*
X224098863Y-82332017D01*
X223801483Y-82034637D01*
X223581854Y-81887885D01*
X223670487Y-81799252D01*
X223849418Y-81531463D01*
X223972668Y-81233912D01*
X224035500Y-80918033D01*
X224035500Y-80595967D01*
X223972668Y-80280088D01*
X223849418Y-79982537D01*
X223670487Y-79714748D01*
X223442752Y-79487013D01*
X223174963Y-79308082D01*
X222877412Y-79184832D01*
X222561533Y-79122000D01*
X222239467Y-79122000D01*
X221923588Y-79184832D01*
X221626037Y-79308082D01*
X221358248Y-79487013D01*
X221130513Y-79714748D01*
X220951582Y-79982537D01*
X220828332Y-80280088D01*
X220765500Y-80595967D01*
X220765500Y-80918033D01*
X220828332Y-81233912D01*
X220951582Y-81531463D01*
X221130513Y-81799252D01*
X221251190Y-81919929D01*
X221079517Y-82034637D01*
X220782137Y-82332017D01*
X220548488Y-82681698D01*
X220387547Y-83070244D01*
X220305500Y-83482721D01*
X209947910Y-83482721D01*
X209723085Y-83438000D01*
X209440415Y-83438000D01*
X209163176Y-83493147D01*
X208902023Y-83601320D01*
X208666991Y-83758363D01*
X208467113Y-83958241D01*
X208310070Y-84193273D01*
X208201897Y-84454426D01*
X208146750Y-84731665D01*
X205264228Y-84731665D01*
X205282512Y-84704302D01*
X205443453Y-84315756D01*
X205525500Y-83903279D01*
X205525500Y-83482721D01*
X205443453Y-83070244D01*
X205282512Y-82681698D01*
X205048863Y-82332017D01*
X204751483Y-82034637D01*
X204401802Y-81800988D01*
X204013256Y-81640047D01*
X203600779Y-81558000D01*
X203180221Y-81558000D01*
X202767744Y-81640047D01*
X202379198Y-81800988D01*
X202029517Y-82034637D01*
X201732137Y-82332017D01*
X201498488Y-82681698D01*
X201337547Y-83070244D01*
X201255500Y-83482721D01*
X190897910Y-83482721D01*
X190673085Y-83438000D01*
X190390415Y-83438000D01*
X190113176Y-83493147D01*
X189852023Y-83601320D01*
X189616991Y-83758363D01*
X189417113Y-83958241D01*
X189260070Y-84193273D01*
X189151897Y-84454426D01*
X189096750Y-84731665D01*
X186214228Y-84731665D01*
X186232512Y-84704302D01*
X186393453Y-84315756D01*
X186475500Y-83903279D01*
X186475500Y-83482721D01*
X186393453Y-83070244D01*
X186232512Y-82681698D01*
X185998863Y-82332017D01*
X185701483Y-82034637D01*
X185351802Y-81800988D01*
X184963256Y-81640047D01*
X184550779Y-81558000D01*
X184130221Y-81558000D01*
X183717744Y-81640047D01*
X183329198Y-81800988D01*
X182979517Y-82034637D01*
X182682137Y-82332017D01*
X182448488Y-82681698D01*
X182287547Y-83070244D01*
X182205500Y-83482721D01*
X182205500Y-83903279D01*
X182287547Y-84315756D01*
X182448488Y-84704302D01*
X182682137Y-85053983D01*
X182979517Y-85351363D01*
X183329198Y-85585012D01*
X183457120Y-85637999D01*
X182851801Y-85637999D01*
X178327000Y-81113199D01*
X178327000Y-81051061D01*
X178287226Y-80851102D01*
X178209205Y-80662744D01*
X178164587Y-80595967D01*
X215765500Y-80595967D01*
X215765500Y-80918033D01*
X215828332Y-81233912D01*
X215951582Y-81531463D01*
X216130513Y-81799252D01*
X216358248Y-82026987D01*
X216626037Y-82205918D01*
X216923588Y-82329168D01*
X217239467Y-82392000D01*
X217561533Y-82392000D01*
X217877412Y-82329168D01*
X218174963Y-82205918D01*
X218442752Y-82026987D01*
X218670487Y-81799252D01*
X218849418Y-81531463D01*
X218972668Y-81233912D01*
X219035500Y-80918033D01*
X219035500Y-80595967D01*
X218972668Y-80280088D01*
X218849418Y-79982537D01*
X218670487Y-79714748D01*
X218442752Y-79487013D01*
X218174963Y-79308082D01*
X217877412Y-79184832D01*
X217561533Y-79122000D01*
X217239467Y-79122000D01*
X216923588Y-79184832D01*
X216626037Y-79308082D01*
X216358248Y-79487013D01*
X216130513Y-79714748D01*
X215951582Y-79982537D01*
X215828332Y-80280088D01*
X215765500Y-80595967D01*
X178164587Y-80595967D01*
X178095937Y-80493226D01*
X177951774Y-80349063D01*
X177782256Y-80235795D01*
X177593898Y-80157774D01*
X177393939Y-80118000D01*
X177190061Y-80118000D01*
X176990102Y-80157774D01*
X176801744Y-80235795D01*
X176632226Y-80349063D01*
X176488063Y-80493226D01*
X176374795Y-80662744D01*
X176296774Y-80851102D01*
X176257000Y-81051061D01*
X176257000Y-81254939D01*
X176296774Y-81454898D01*
X176374795Y-81643256D01*
X176488063Y-81812774D01*
X176632226Y-81956937D01*
X176801744Y-82070205D01*
X176990102Y-82148226D01*
X177190061Y-82188000D01*
X177252199Y-82188000D01*
X181215883Y-86151685D01*
X181017314Y-86191183D01*
X180528675Y-86393583D01*
X180088912Y-86687424D01*
X180073963Y-86702373D01*
X180125500Y-86443279D01*
X180125500Y-86022721D01*
X180043453Y-85610244D01*
X179882512Y-85221698D01*
X179648863Y-84872017D01*
X179351483Y-84574637D01*
X179001802Y-84340988D01*
X178613256Y-84180047D01*
X178200779Y-84098000D01*
X177780221Y-84098000D01*
X177367744Y-84180047D01*
X176979198Y-84340988D01*
X176629517Y-84574637D01*
X176332137Y-84872017D01*
X176098488Y-85221698D01*
X175937547Y-85610244D01*
X175855500Y-86022721D01*
X175855500Y-86443279D01*
X175937547Y-86855756D01*
X176098488Y-87244302D01*
X176135515Y-87299717D01*
X175969721Y-87368391D01*
X175710121Y-87541850D01*
X175489350Y-87762621D01*
X175315891Y-88022221D01*
X175196411Y-88310673D01*
X175135500Y-88616891D01*
X169415500Y-88616891D01*
X169354589Y-88310673D01*
X169235109Y-88022221D01*
X169061650Y-87762621D01*
X168840879Y-87541850D01*
X168581279Y-87368391D01*
X168292827Y-87248911D01*
X167986609Y-87188000D01*
X167674391Y-87188000D01*
X167368173Y-87248911D01*
X167079721Y-87368391D01*
X166820121Y-87541850D01*
X166599350Y-87762621D01*
X166425891Y-88022221D01*
X166306411Y-88310673D01*
X166245500Y-88616891D01*
X165435500Y-88616891D01*
X165435500Y-88508551D01*
X165332317Y-87989814D01*
X165129917Y-87501175D01*
X164836076Y-87061412D01*
X164462088Y-86687424D01*
X164022325Y-86393583D01*
X163533686Y-86191183D01*
X163014949Y-86088000D01*
X162486051Y-86088000D01*
X161967314Y-86191183D01*
X161478675Y-86393583D01*
X161038912Y-86687424D01*
X161023963Y-86702373D01*
X161075500Y-86443279D01*
X161075500Y-86022721D01*
X160993453Y-85610244D01*
X160832512Y-85221698D01*
X160598863Y-84872017D01*
X160301483Y-84574637D01*
X159951802Y-84340988D01*
X159563256Y-84180047D01*
X159150779Y-84098000D01*
X158730221Y-84098000D01*
X158317744Y-84180047D01*
X157929198Y-84340988D01*
X157579517Y-84574637D01*
X157282137Y-84872017D01*
X157048488Y-85221698D01*
X156887547Y-85610244D01*
X156805500Y-86022721D01*
X156805500Y-86443279D01*
X156887547Y-86855756D01*
X157048488Y-87244302D01*
X157085515Y-87299717D01*
X156919721Y-87368391D01*
X156660121Y-87541850D01*
X156439350Y-87762621D01*
X156265891Y-88022221D01*
X156146411Y-88310673D01*
X156085500Y-88616891D01*
X150365500Y-88616891D01*
X150304589Y-88310673D01*
X150185109Y-88022221D01*
X150011650Y-87762621D01*
X149790879Y-87541850D01*
X149531279Y-87368391D01*
X149242827Y-87248911D01*
X148936609Y-87188000D01*
X148624391Y-87188000D01*
X148318173Y-87248911D01*
X148029721Y-87368391D01*
X147770121Y-87541850D01*
X147549350Y-87762621D01*
X147375891Y-88022221D01*
X147256411Y-88310673D01*
X147195500Y-88616891D01*
X146385500Y-88616891D01*
X146385500Y-88508551D01*
X146282317Y-87989814D01*
X146079917Y-87501175D01*
X145786076Y-87061412D01*
X145412088Y-86687424D01*
X144972325Y-86393583D01*
X144483686Y-86191183D01*
X143964949Y-86088000D01*
X143436051Y-86088000D01*
X142917314Y-86191183D01*
X142428675Y-86393583D01*
X141988912Y-86687424D01*
X141973963Y-86702373D01*
X142025500Y-86443279D01*
X142025500Y-86022721D01*
X141943453Y-85610244D01*
X141782512Y-85221698D01*
X141548863Y-84872017D01*
X141251483Y-84574637D01*
X140901802Y-84340988D01*
X140513256Y-84180047D01*
X140100779Y-84098000D01*
X139680221Y-84098000D01*
X139267744Y-84180047D01*
X138879198Y-84340988D01*
X138529517Y-84574637D01*
X138232137Y-84872017D01*
X137998488Y-85221698D01*
X137837547Y-85610244D01*
X137755500Y-86022721D01*
X137755500Y-86443279D01*
X137837547Y-86855756D01*
X137998488Y-87244302D01*
X138035515Y-87299717D01*
X137869721Y-87368391D01*
X137610121Y-87541850D01*
X137389350Y-87762621D01*
X137215891Y-88022221D01*
X137096411Y-88310673D01*
X137035500Y-88616891D01*
X134740250Y-88616891D01*
X134740250Y-83482721D01*
X144105500Y-83482721D01*
X144105500Y-83903279D01*
X144187547Y-84315756D01*
X144348488Y-84704302D01*
X144582137Y-85053983D01*
X144879517Y-85351363D01*
X145229198Y-85585012D01*
X145617744Y-85745953D01*
X146030221Y-85828000D01*
X146450779Y-85828000D01*
X146863256Y-85745953D01*
X147251802Y-85585012D01*
X147601483Y-85351363D01*
X147898863Y-85053983D01*
X148114228Y-84731665D01*
X150996750Y-84731665D01*
X150996750Y-85014335D01*
X151051897Y-85291574D01*
X151160070Y-85552727D01*
X151317113Y-85787759D01*
X151516991Y-85987637D01*
X151752023Y-86144680D01*
X152013176Y-86252853D01*
X152290415Y-86308000D01*
X152573085Y-86308000D01*
X152850324Y-86252853D01*
X153111477Y-86144680D01*
X153346509Y-85987637D01*
X153546387Y-85787759D01*
X153703430Y-85552727D01*
X153811603Y-85291574D01*
X153866750Y-85014335D01*
X153866750Y-84731665D01*
X153811603Y-84454426D01*
X153703430Y-84193273D01*
X153546387Y-83958241D01*
X153346509Y-83758363D01*
X153111477Y-83601320D01*
X152850324Y-83493147D01*
X152573085Y-83438000D01*
X152290415Y-83438000D01*
X152013176Y-83493147D01*
X151752023Y-83601320D01*
X151516991Y-83758363D01*
X151317113Y-83958241D01*
X151160070Y-84193273D01*
X151051897Y-84454426D01*
X150996750Y-84731665D01*
X148114228Y-84731665D01*
X148132512Y-84704302D01*
X148293453Y-84315756D01*
X148375500Y-83903279D01*
X148375500Y-83482721D01*
X148293453Y-83070244D01*
X148132512Y-82681698D01*
X148050261Y-82558600D01*
X148251342Y-82558600D01*
X148521240Y-82504914D01*
X148775477Y-82399605D01*
X149004285Y-82246720D01*
X149198870Y-82052135D01*
X149351755Y-81823327D01*
X149383750Y-81746085D01*
X149415745Y-81823327D01*
X149568630Y-82052135D01*
X149763215Y-82246720D01*
X149992023Y-82399605D01*
X150246260Y-82504914D01*
X150516158Y-82558600D01*
X150791342Y-82558600D01*
X151061240Y-82504914D01*
X151315477Y-82399605D01*
X151544285Y-82246720D01*
X151738870Y-82052135D01*
X151891755Y-81823327D01*
X151923750Y-81746085D01*
X151955745Y-81823327D01*
X152108630Y-82052135D01*
X152303215Y-82246720D01*
X152532023Y-82399605D01*
X152786260Y-82504914D01*
X153056158Y-82558600D01*
X153331342Y-82558600D01*
X153601240Y-82504914D01*
X153855477Y-82399605D01*
X154084285Y-82246720D01*
X154278870Y-82052135D01*
X154431755Y-81823327D01*
X154463750Y-81746085D01*
X154495745Y-81823327D01*
X154648630Y-82052135D01*
X154843215Y-82246720D01*
X155072023Y-82399605D01*
X155326260Y-82504914D01*
X155596158Y-82558600D01*
X155871342Y-82558600D01*
X156141240Y-82504914D01*
X156395477Y-82399605D01*
X156624285Y-82246720D01*
X156818870Y-82052135D01*
X156971755Y-81823327D01*
X157003750Y-81746085D01*
X157035745Y-81823327D01*
X157188630Y-82052135D01*
X157383215Y-82246720D01*
X157612023Y-82399605D01*
X157866260Y-82504914D01*
X158136158Y-82558600D01*
X158411342Y-82558600D01*
X158681240Y-82504914D01*
X158935477Y-82399605D01*
X159164285Y-82246720D01*
X159358870Y-82052135D01*
X159511755Y-81823327D01*
X159543750Y-81746085D01*
X159575745Y-81823327D01*
X159728630Y-82052135D01*
X159923215Y-82246720D01*
X160152023Y-82399605D01*
X160406260Y-82504914D01*
X160676158Y-82558600D01*
X160951342Y-82558600D01*
X161221240Y-82504914D01*
X161475477Y-82399605D01*
X161704285Y-82246720D01*
X161898870Y-82052135D01*
X162051755Y-81823327D01*
X162083750Y-81746085D01*
X162115745Y-81823327D01*
X162268630Y-82052135D01*
X162463215Y-82246720D01*
X162692023Y-82399605D01*
X162946260Y-82504914D01*
X163216158Y-82558600D01*
X163480739Y-82558600D01*
X163398488Y-82681698D01*
X163237547Y-83070244D01*
X163155500Y-83482721D01*
X163155500Y-83903279D01*
X163237547Y-84315756D01*
X163398488Y-84704302D01*
X163632137Y-85053983D01*
X163929517Y-85351363D01*
X164279198Y-85585012D01*
X164667744Y-85745953D01*
X165080221Y-85828000D01*
X165500779Y-85828000D01*
X165913256Y-85745953D01*
X166301802Y-85585012D01*
X166651483Y-85351363D01*
X166948863Y-85053983D01*
X167164228Y-84731665D01*
X170046750Y-84731665D01*
X170046750Y-85014335D01*
X170101897Y-85291574D01*
X170210070Y-85552727D01*
X170367113Y-85787759D01*
X170566991Y-85987637D01*
X170802023Y-86144680D01*
X171063176Y-86252853D01*
X171340415Y-86308000D01*
X171623085Y-86308000D01*
X171900324Y-86252853D01*
X172161477Y-86144680D01*
X172396509Y-85987637D01*
X172596387Y-85787759D01*
X172753430Y-85552727D01*
X172861603Y-85291574D01*
X172916750Y-85014335D01*
X172916750Y-84731665D01*
X172861603Y-84454426D01*
X172753430Y-84193273D01*
X172596387Y-83958241D01*
X172396509Y-83758363D01*
X172161477Y-83601320D01*
X171900324Y-83493147D01*
X171623085Y-83438000D01*
X171340415Y-83438000D01*
X171063176Y-83493147D01*
X170802023Y-83601320D01*
X170566991Y-83758363D01*
X170367113Y-83958241D01*
X170210070Y-84193273D01*
X170101897Y-84454426D01*
X170046750Y-84731665D01*
X167164228Y-84731665D01*
X167182512Y-84704302D01*
X167343453Y-84315756D01*
X167425500Y-83903279D01*
X167425500Y-83482721D01*
X167343453Y-83070244D01*
X167182512Y-82681698D01*
X166948863Y-82332017D01*
X166823926Y-82207080D01*
X166978870Y-82052135D01*
X167131755Y-81823327D01*
X167237064Y-81569090D01*
X167290750Y-81299192D01*
X167290750Y-81024008D01*
X167237064Y-80754110D01*
X167131755Y-80499873D01*
X166978870Y-80271065D01*
X166784285Y-80076480D01*
X166555477Y-79923595D01*
X166301240Y-79818286D01*
X166031342Y-79764600D01*
X165756158Y-79764600D01*
X165486260Y-79818286D01*
X165232023Y-79923595D01*
X165003215Y-80076480D01*
X164808630Y-80271065D01*
X164655745Y-80499873D01*
X164623750Y-80577115D01*
X164591755Y-80499873D01*
X164438870Y-80271065D01*
X164244285Y-80076480D01*
X164015477Y-79923595D01*
X163761240Y-79818286D01*
X163491342Y-79764600D01*
X163216158Y-79764600D01*
X162946260Y-79818286D01*
X162692023Y-79923595D01*
X162463215Y-80076480D01*
X162268630Y-80271065D01*
X162115745Y-80499873D01*
X162083750Y-80577115D01*
X162051755Y-80499873D01*
X161898870Y-80271065D01*
X161704285Y-80076480D01*
X161475477Y-79923595D01*
X161221240Y-79818286D01*
X160951342Y-79764600D01*
X160676158Y-79764600D01*
X160406260Y-79818286D01*
X160152023Y-79923595D01*
X159923215Y-80076480D01*
X159728630Y-80271065D01*
X159575745Y-80499873D01*
X159543750Y-80577115D01*
X159511755Y-80499873D01*
X159358870Y-80271065D01*
X159164285Y-80076480D01*
X158935477Y-79923595D01*
X158681240Y-79818286D01*
X158411342Y-79764600D01*
X158136158Y-79764600D01*
X157866260Y-79818286D01*
X157612023Y-79923595D01*
X157383215Y-80076480D01*
X157188630Y-80271065D01*
X157035745Y-80499873D01*
X157003750Y-80577115D01*
X156971755Y-80499873D01*
X156818870Y-80271065D01*
X156624285Y-80076480D01*
X156395477Y-79923595D01*
X156141240Y-79818286D01*
X155871342Y-79764600D01*
X155596158Y-79764600D01*
X155326260Y-79818286D01*
X155072023Y-79923595D01*
X154843215Y-80076480D01*
X154648630Y-80271065D01*
X154495745Y-80499873D01*
X154463750Y-80577115D01*
X154431755Y-80499873D01*
X154278870Y-80271065D01*
X154084285Y-80076480D01*
X153855477Y-79923595D01*
X153601240Y-79818286D01*
X153331342Y-79764600D01*
X153056158Y-79764600D01*
X152786260Y-79818286D01*
X152532023Y-79923595D01*
X152303215Y-80076480D01*
X152108630Y-80271065D01*
X151955745Y-80499873D01*
X151923750Y-80577115D01*
X151891755Y-80499873D01*
X151738870Y-80271065D01*
X151544285Y-80076480D01*
X151315477Y-79923595D01*
X151061240Y-79818286D01*
X150791342Y-79764600D01*
X150516158Y-79764600D01*
X150246260Y-79818286D01*
X149992023Y-79923595D01*
X149763215Y-80076480D01*
X149568630Y-80271065D01*
X149415745Y-80499873D01*
X149383750Y-80577115D01*
X149351755Y-80499873D01*
X149198870Y-80271065D01*
X149004285Y-80076480D01*
X148775477Y-79923595D01*
X148521240Y-79818286D01*
X148251342Y-79764600D01*
X147976158Y-79764600D01*
X147706260Y-79818286D01*
X147452023Y-79923595D01*
X147223215Y-80076480D01*
X147028630Y-80271065D01*
X146875745Y-80499873D01*
X146846058Y-80571543D01*
X146841386Y-80558577D01*
X146779406Y-80442620D01*
X146539315Y-80375640D01*
X145753355Y-81161600D01*
X145767498Y-81175743D01*
X145587893Y-81355348D01*
X145573750Y-81341205D01*
X144881931Y-82033024D01*
X144879517Y-82034637D01*
X144582137Y-82332017D01*
X144348488Y-82681698D01*
X144187547Y-83070244D01*
X144105500Y-83482721D01*
X134740250Y-83482721D01*
X134740250Y-81024008D01*
X136556750Y-81024008D01*
X136556750Y-81299192D01*
X136610436Y-81569090D01*
X136715745Y-81823327D01*
X136868630Y-82052135D01*
X137063215Y-82246720D01*
X137292023Y-82399605D01*
X137546260Y-82504914D01*
X137816158Y-82558600D01*
X138091342Y-82558600D01*
X138361240Y-82504914D01*
X138615477Y-82399605D01*
X138844285Y-82246720D01*
X139038870Y-82052135D01*
X139191755Y-81823327D01*
X139223750Y-81746085D01*
X139255745Y-81823327D01*
X139408630Y-82052135D01*
X139603215Y-82246720D01*
X139832023Y-82399605D01*
X140086260Y-82504914D01*
X140356158Y-82558600D01*
X140631342Y-82558600D01*
X140901240Y-82504914D01*
X141155477Y-82399605D01*
X141384285Y-82246720D01*
X141503840Y-82127165D01*
X142247790Y-82127165D01*
X142314770Y-82367256D01*
X142563798Y-82484356D01*
X142830885Y-82550623D01*
X143105767Y-82563510D01*
X143377883Y-82522522D01*
X143636773Y-82429236D01*
X143752730Y-82367256D01*
X143819710Y-82127165D01*
X143033750Y-81341205D01*
X142247790Y-82127165D01*
X141503840Y-82127165D01*
X141578870Y-82052135D01*
X141731755Y-81823327D01*
X141761442Y-81751657D01*
X141766114Y-81764623D01*
X141828094Y-81880580D01*
X142068185Y-81947560D01*
X142854145Y-81161600D01*
X143213355Y-81161600D01*
X143999315Y-81947560D01*
X144239406Y-81880580D01*
X144300829Y-81749956D01*
X144306114Y-81764623D01*
X144368094Y-81880580D01*
X144608185Y-81947560D01*
X145394145Y-81161600D01*
X144608185Y-80375640D01*
X144368094Y-80442620D01*
X144306671Y-80573244D01*
X144301386Y-80558577D01*
X144239406Y-80442620D01*
X143999315Y-80375640D01*
X143213355Y-81161600D01*
X142854145Y-81161600D01*
X142068185Y-80375640D01*
X141828094Y-80442620D01*
X141764265Y-80578360D01*
X141731755Y-80499873D01*
X141578870Y-80271065D01*
X141503840Y-80196035D01*
X142247790Y-80196035D01*
X143033750Y-80981995D01*
X143819710Y-80196035D01*
X144787790Y-80196035D01*
X145573750Y-80981995D01*
X146359710Y-80196035D01*
X146292730Y-79955944D01*
X146043702Y-79838844D01*
X145776615Y-79772577D01*
X145501733Y-79759690D01*
X145229617Y-79800678D01*
X144970727Y-79893964D01*
X144854770Y-79955944D01*
X144787790Y-80196035D01*
X143819710Y-80196035D01*
X143752730Y-79955944D01*
X143503702Y-79838844D01*
X143236615Y-79772577D01*
X142961733Y-79759690D01*
X142689617Y-79800678D01*
X142430727Y-79893964D01*
X142314770Y-79955944D01*
X142247790Y-80196035D01*
X141503840Y-80196035D01*
X141384285Y-80076480D01*
X141155477Y-79923595D01*
X140901240Y-79818286D01*
X140631342Y-79764600D01*
X140356158Y-79764600D01*
X140086260Y-79818286D01*
X139832023Y-79923595D01*
X139603215Y-80076480D01*
X139408630Y-80271065D01*
X139255745Y-80499873D01*
X139223750Y-80577115D01*
X139191755Y-80499873D01*
X139038870Y-80271065D01*
X138844285Y-80076480D01*
X138615477Y-79923595D01*
X138361240Y-79818286D01*
X138091342Y-79764600D01*
X137816158Y-79764600D01*
X137546260Y-79818286D01*
X137292023Y-79923595D01*
X137063215Y-80076480D01*
X136868630Y-80271065D01*
X136715745Y-80499873D01*
X136610436Y-80754110D01*
X136556750Y-81024008D01*
X134740250Y-81024008D01*
X134740250Y-79280279D01*
X134745902Y-79222638D01*
X134753269Y-79198237D01*
X134765233Y-79175735D01*
X134781341Y-79155986D01*
X134800977Y-79139741D01*
X134823401Y-79127617D01*
X134847742Y-79120082D01*
X134903226Y-79114250D01*
X229393221Y-79114250D01*
X229450862Y-79119902D01*
G37*
%TD.AperFunction*%
%TD*%
M02*
