%TF.GenerationSoftware,KiCad,Pcbnew,(5.1.10)-1*%
%TF.CreationDate,2021-09-25T16:03:37+01:00*%
%TF.ProjectId,piccolo-mini,70696363-6f6c-46f2-9d6d-696e692e6b69,rev?*%
%TF.SameCoordinates,Original*%
%TF.FileFunction,Copper,L2,Bot*%
%TF.FilePolarity,Positive*%
%FSLAX46Y46*%
G04 Gerber Fmt 4.6, Leading zero omitted, Abs format (unit mm)*
G04 Created by KiCad (PCBNEW (5.1.10)-1) date 2021-09-25 16:03:37*
%MOMM*%
%LPD*%
G01*
G04 APERTURE LIST*
%TA.AperFunction,ComponentPad*%
%ADD10C,1.524000*%
%TD*%
%TA.AperFunction,ComponentPad*%
%ADD11R,2.000000X2.000000*%
%TD*%
%TA.AperFunction,ComponentPad*%
%ADD12C,2.000000*%
%TD*%
%TA.AperFunction,SMDPad,CuDef*%
%ADD13R,2.550000X2.500000*%
%TD*%
%TA.AperFunction,ComponentPad*%
%ADD14R,1.600000X1.600000*%
%TD*%
%TA.AperFunction,ComponentPad*%
%ADD15C,1.600000*%
%TD*%
%TA.AperFunction,SMDPad,CuDef*%
%ADD16R,0.500000X2.900000*%
%TD*%
%TA.AperFunction,SMDPad,CuDef*%
%ADD17R,1.200000X1.600000*%
%TD*%
%TA.AperFunction,ViaPad*%
%ADD18C,0.800000*%
%TD*%
%TA.AperFunction,Conductor*%
%ADD19C,0.250000*%
%TD*%
%TA.AperFunction,Conductor*%
%ADD20C,0.380000*%
%TD*%
%TA.AperFunction,Conductor*%
%ADD21C,0.254000*%
%TD*%
%TA.AperFunction,Conductor*%
%ADD22C,0.100000*%
%TD*%
G04 APERTURE END LIST*
D10*
%TO.P,U1,24*%
%TO.N,Net-(U1-Pad24)*%
X137953750Y-96381600D03*
%TO.P,U1,23*%
%TO.N,GND*%
X140493750Y-96381600D03*
%TO.P,U1,22*%
%TO.N,Reset*%
X143033750Y-96381600D03*
%TO.P,U1,21*%
%TO.N,VCC*%
X145573750Y-96381600D03*
%TO.P,U1,20*%
%TO.N,Net-(U1-Pad20)*%
X148113750Y-96381600D03*
%TO.P,U1,19*%
%TO.N,Net-(U1-Pad19)*%
X150653750Y-96381600D03*
%TO.P,U1,18*%
%TO.N,Net-(U1-Pad18)*%
X153193750Y-96381600D03*
%TO.P,U1,17*%
%TO.N,Net-(U1-Pad17)*%
X155733750Y-96381600D03*
%TO.P,U1,16*%
%TO.N,Net-(U1-Pad16)*%
X158273750Y-96381600D03*
%TO.P,U1,15*%
%TO.N,row0*%
X160813750Y-96381600D03*
%TO.P,U1,14*%
%TO.N,EncoderB*%
X163353750Y-96381600D03*
%TO.P,U1,13*%
%TO.N,EncoderA*%
X165893750Y-96381600D03*
%TO.P,U1,12*%
%TO.N,row1*%
X165893750Y-81161600D03*
%TO.P,U1,11*%
%TO.N,Net-(U1-Pad11)*%
X163353750Y-81161600D03*
%TO.P,U1,10*%
%TO.N,col2*%
X160813750Y-81161600D03*
%TO.P,U1,9*%
%TO.N,col1*%
X158273750Y-81161600D03*
%TO.P,U1,8*%
%TO.N,col0*%
X155733750Y-81161600D03*
%TO.P,U1,7*%
%TO.N,Net-(U1-Pad7)*%
X153193750Y-81161600D03*
%TO.P,U1,6*%
%TO.N,Net-(U1-Pad6)*%
X150653750Y-81161600D03*
%TO.P,U1,5*%
%TO.N,Net-(U1-Pad5)*%
X148113750Y-81161600D03*
%TO.P,U1,4*%
%TO.N,GND*%
X145573750Y-81161600D03*
%TO.P,U1,3*%
X143033750Y-81161600D03*
%TO.P,U1,2*%
%TO.N,Net-(U1-Pad2)*%
X140493750Y-81161600D03*
%TO.P,U1,1*%
%TO.N,Net-(U1-Pad1)*%
X137953750Y-81161600D03*
%TD*%
D11*
%TO.P,SW2,A*%
%TO.N,EncoderA*%
X217400500Y-95257000D03*
D12*
%TO.P,SW2,C*%
%TO.N,GND*%
X219900500Y-95257000D03*
%TO.P,SW2,B*%
%TO.N,EncoderB*%
X222400500Y-95257000D03*
%TO.P,SW2,S2*%
%TO.N,col1*%
X217400500Y-80757000D03*
%TO.P,SW2,S1*%
%TO.N,Net-(D5-Pad2)*%
X222400500Y-80757000D03*
%TD*%
%TO.P,SW1,2*%
%TO.N,GND*%
X185050500Y-96710500D03*
%TO.P,SW1,1*%
%TO.N,Reset*%
X178550500Y-96710500D03*
%TD*%
D13*
%TO.P,MX5,2*%
%TO.N,Net-(D5-Pad2)*%
X225742500Y-83693000D03*
%TO.P,MX5,1*%
%TO.N,col1*%
X212815500Y-86233000D03*
%TD*%
%TO.P,MX4,2*%
%TO.N,Net-(D4-Pad2)*%
X206692500Y-83693000D03*
%TO.P,MX4,1*%
%TO.N,col0*%
X193765500Y-86233000D03*
%TD*%
%TO.P,MX3,2*%
%TO.N,Net-(D3-Pad2)*%
X187642500Y-83693000D03*
%TO.P,MX3,1*%
%TO.N,col2*%
X174715500Y-86233000D03*
%TD*%
%TO.P,MX2,2*%
%TO.N,Net-(D2-Pad2)*%
X168592500Y-83693000D03*
%TO.P,MX2,1*%
%TO.N,col1*%
X155665500Y-86233000D03*
%TD*%
%TO.P,MX1,2*%
%TO.N,Net-(D1-Pad2)*%
X149542500Y-83693000D03*
%TO.P,MX1,1*%
%TO.N,col0*%
X136615500Y-86233000D03*
%TD*%
D14*
%TO.P,D5,1*%
%TO.N,row1*%
X227838000Y-94260500D03*
D15*
%TO.P,D5,2*%
%TO.N,Net-(D5-Pad2)*%
X227838000Y-86460500D03*
D16*
%TO.P,D5,1*%
%TO.N,row1*%
X227838000Y-92860500D03*
D17*
X227838000Y-91760500D03*
%TO.P,D5,2*%
%TO.N,Net-(D5-Pad2)*%
X227838000Y-88960500D03*
D16*
X227838000Y-87860500D03*
%TD*%
D14*
%TO.P,D4,1*%
%TO.N,row1*%
X209581750Y-92673000D03*
D15*
%TO.P,D4,2*%
%TO.N,Net-(D4-Pad2)*%
X209581750Y-84873000D03*
D16*
%TO.P,D4,1*%
%TO.N,row1*%
X209581750Y-91273000D03*
D17*
X209581750Y-90173000D03*
%TO.P,D4,2*%
%TO.N,Net-(D4-Pad2)*%
X209581750Y-87373000D03*
D16*
X209581750Y-86273000D03*
%TD*%
D14*
%TO.P,D3,1*%
%TO.N,row0*%
X190531750Y-92673000D03*
D15*
%TO.P,D3,2*%
%TO.N,Net-(D3-Pad2)*%
X190531750Y-84873000D03*
D16*
%TO.P,D3,1*%
%TO.N,row0*%
X190531750Y-91273000D03*
D17*
X190531750Y-90173000D03*
%TO.P,D3,2*%
%TO.N,Net-(D3-Pad2)*%
X190531750Y-87373000D03*
D16*
X190531750Y-86273000D03*
%TD*%
D14*
%TO.P,D2,1*%
%TO.N,row0*%
X171481750Y-92673000D03*
D15*
%TO.P,D2,2*%
%TO.N,Net-(D2-Pad2)*%
X171481750Y-84873000D03*
D16*
%TO.P,D2,1*%
%TO.N,row0*%
X171481750Y-91273000D03*
D17*
X171481750Y-90173000D03*
%TO.P,D2,2*%
%TO.N,Net-(D2-Pad2)*%
X171481750Y-87373000D03*
D16*
X171481750Y-86273000D03*
%TD*%
D14*
%TO.P,D1,1*%
%TO.N,row0*%
X152431750Y-92673000D03*
D15*
%TO.P,D1,2*%
%TO.N,Net-(D1-Pad2)*%
X152431750Y-84873000D03*
D16*
%TO.P,D1,1*%
%TO.N,row0*%
X152431750Y-91273000D03*
D17*
X152431750Y-90173000D03*
%TO.P,D1,2*%
%TO.N,Net-(D1-Pad2)*%
X152431750Y-87373000D03*
D16*
X152431750Y-86273000D03*
%TD*%
D18*
%TO.N,row1*%
X192913000Y-92741750D03*
X177292000Y-81153000D03*
%TO.N,GND*%
X171481750Y-95123000D03*
%TD*%
D19*
%TO.N,Net-(D1-Pad2)*%
X151251750Y-83693000D02*
X152431750Y-84873000D01*
X149542500Y-83693000D02*
X151251750Y-83693000D01*
%TO.N,row0*%
X171481750Y-92673000D02*
X190531750Y-92673000D01*
X157105150Y-92673000D02*
X152431750Y-92673000D01*
X160813750Y-96381600D02*
X157105150Y-92673000D01*
X164522350Y-92673000D02*
X160813750Y-96381600D01*
X171481750Y-92673000D02*
X164522350Y-92673000D01*
%TO.N,Net-(D2-Pad2)*%
X170301750Y-83693000D02*
X171481750Y-84873000D01*
X168592500Y-83693000D02*
X170301750Y-83693000D01*
%TO.N,Net-(D3-Pad2)*%
X189351750Y-83693000D02*
X190531750Y-84873000D01*
X187642500Y-83693000D02*
X189351750Y-83693000D01*
%TO.N,Net-(D4-Pad2)*%
X208401750Y-83693000D02*
X209581750Y-84873000D01*
X206692500Y-83693000D02*
X208401750Y-83693000D01*
%TO.N,row1*%
X226250500Y-92673000D02*
X227838000Y-94260500D01*
X209581750Y-92673000D02*
X226250500Y-92673000D01*
X192981750Y-92673000D02*
X192913000Y-92741750D01*
X209581750Y-92673000D02*
X192981750Y-92673000D01*
X165902350Y-81153000D02*
X165893750Y-81161600D01*
X177292000Y-81153000D02*
X165902350Y-81153000D01*
%TO.N,Net-(D5-Pad2)*%
X225742500Y-84365000D02*
X225742500Y-83693000D01*
X227838000Y-86460500D02*
X225742500Y-84365000D01*
X225336500Y-83693000D02*
X225742500Y-83693000D01*
X222400500Y-80757000D02*
X225336500Y-83693000D01*
%TO.N,col0*%
X156820751Y-80074599D02*
X155733750Y-81161600D01*
X187607099Y-80074599D02*
X156820751Y-80074599D01*
X193765500Y-86233000D02*
X187607099Y-80074599D01*
X154646749Y-80074599D02*
X155733750Y-81161600D01*
X137431989Y-80074599D02*
X154646749Y-80074599D01*
X136615500Y-80891088D02*
X137431989Y-80074599D01*
X136615500Y-86233000D02*
X136615500Y-80891088D01*
%TO.N,col1*%
X155665500Y-83769850D02*
X158273750Y-81161600D01*
X155665500Y-86233000D02*
X155665500Y-83769850D01*
X158960351Y-81161600D02*
X158273750Y-81161600D01*
X165735000Y-87936249D02*
X158960351Y-81161600D01*
X165735000Y-88922751D02*
X165735000Y-87936249D01*
X167236249Y-90424000D02*
X165735000Y-88922751D01*
X186941250Y-91148001D02*
X174441753Y-91148001D01*
X212815500Y-87733000D02*
X211775500Y-88773000D01*
X169991252Y-89047999D02*
X168615251Y-90424000D01*
X172341751Y-89047999D02*
X169991252Y-89047999D01*
X208280000Y-88773000D02*
X205105000Y-91948000D01*
X190989752Y-88646000D02*
X189443251Y-88646000D01*
X205105000Y-91948000D02*
X194291752Y-91948000D01*
X211775500Y-88773000D02*
X208280000Y-88773000D01*
X189443251Y-88646000D02*
X186941250Y-91148001D01*
X194291752Y-91948000D02*
X190989752Y-88646000D01*
X212815500Y-86233000D02*
X212815500Y-87733000D01*
X174441753Y-91148001D02*
X172341751Y-89047999D01*
X168615251Y-90424000D02*
X167236249Y-90424000D01*
X212815500Y-85405500D02*
X212815500Y-86233000D01*
X217464000Y-80757000D02*
X212815500Y-85405500D01*
%TO.N,col2*%
X160813750Y-81917252D02*
X160813750Y-81161600D01*
X164414499Y-85518001D02*
X160813750Y-81917252D01*
X166462503Y-85518001D02*
X164414499Y-85518001D01*
X169442503Y-88498001D02*
X166462503Y-85518001D01*
X172450499Y-88498001D02*
X169442503Y-88498001D01*
X174715500Y-86233000D02*
X172450499Y-88498001D01*
D20*
%TO.N,GND*%
X219964000Y-95459002D02*
X219964000Y-95257000D01*
X217918752Y-97504250D02*
X219964000Y-95459002D01*
X183463000Y-95123000D02*
X185050500Y-96710500D01*
X171481750Y-95123000D02*
X183463000Y-95123000D01*
D19*
%TO.N,Reset*%
X177550501Y-97710499D02*
X178550500Y-96710500D01*
X144362649Y-97710499D02*
X177550501Y-97710499D01*
X143033750Y-96381600D02*
X144362649Y-97710499D01*
%TO.N,EncoderA*%
X167877351Y-94397999D02*
X165893750Y-96381600D01*
X216604999Y-94397999D02*
X167877351Y-94397999D01*
X217464000Y-95257000D02*
X216604999Y-94397999D01*
%TO.N,EncoderB*%
X221138999Y-93931999D02*
X222464000Y-95257000D01*
X165803351Y-93931999D02*
X221138999Y-93931999D01*
X163353750Y-96381600D02*
X165803351Y-93931999D01*
%TD*%
D21*
%TO.N,GND*%
X229450862Y-79119902D02*
X229475263Y-79127269D01*
X229497765Y-79139233D01*
X229517514Y-79155341D01*
X229533759Y-79174977D01*
X229545883Y-79197401D01*
X229553418Y-79221742D01*
X229559251Y-79277235D01*
X229559250Y-98265721D01*
X229553598Y-98323364D01*
X229546232Y-98347760D01*
X229534266Y-98370266D01*
X229518159Y-98390014D01*
X229498523Y-98406259D01*
X229476099Y-98418383D01*
X229451758Y-98425918D01*
X229396275Y-98431750D01*
X177790975Y-98431750D01*
X177842748Y-98416045D01*
X177974777Y-98345473D01*
X178058779Y-98276534D01*
X178073588Y-98282668D01*
X178389467Y-98345500D01*
X178711533Y-98345500D01*
X179027412Y-98282668D01*
X179324963Y-98159418D01*
X179592752Y-97980487D01*
X179727326Y-97845913D01*
X184094692Y-97845913D01*
X184190456Y-98110314D01*
X184480071Y-98251204D01*
X184791608Y-98332884D01*
X185113095Y-98352218D01*
X185432175Y-98308461D01*
X185736588Y-98203295D01*
X185910544Y-98110314D01*
X186006308Y-97845913D01*
X185050500Y-96890105D01*
X184094692Y-97845913D01*
X179727326Y-97845913D01*
X179820487Y-97752752D01*
X179999418Y-97484963D01*
X180122668Y-97187412D01*
X180185500Y-96871533D01*
X180185500Y-96773095D01*
X183408782Y-96773095D01*
X183452539Y-97092175D01*
X183557705Y-97396588D01*
X183650686Y-97570544D01*
X183915087Y-97666308D01*
X184870895Y-96710500D01*
X185230105Y-96710500D01*
X186185913Y-97666308D01*
X186450314Y-97570544D01*
X186591204Y-97280929D01*
X186672884Y-96969392D01*
X186692218Y-96647905D01*
X186648461Y-96328825D01*
X186543295Y-96024412D01*
X186450314Y-95850456D01*
X186185913Y-95754692D01*
X185230105Y-96710500D01*
X184870895Y-96710500D01*
X183915087Y-95754692D01*
X183650686Y-95850456D01*
X183509796Y-96140071D01*
X183428116Y-96451608D01*
X183408782Y-96773095D01*
X180185500Y-96773095D01*
X180185500Y-96549467D01*
X180122668Y-96233588D01*
X179999418Y-95936037D01*
X179820487Y-95668248D01*
X179592752Y-95440513D01*
X179324963Y-95261582D01*
X179074892Y-95157999D01*
X184537237Y-95157999D01*
X184364412Y-95217705D01*
X184190456Y-95310686D01*
X184094692Y-95575087D01*
X185050500Y-96530895D01*
X186006308Y-95575087D01*
X185910544Y-95310686D01*
X185620929Y-95169796D01*
X185575934Y-95157999D01*
X215762428Y-95157999D01*
X215762428Y-96257000D01*
X215774688Y-96381482D01*
X215810998Y-96501180D01*
X215869963Y-96611494D01*
X215949315Y-96708185D01*
X216046006Y-96787537D01*
X216156320Y-96846502D01*
X216276018Y-96882812D01*
X216400500Y-96895072D01*
X218400500Y-96895072D01*
X218524982Y-96882812D01*
X218644680Y-96846502D01*
X218754994Y-96787537D01*
X218851685Y-96708185D01*
X218931037Y-96611494D01*
X218986476Y-96507777D01*
X219040456Y-96656814D01*
X219330071Y-96797704D01*
X219641608Y-96879384D01*
X219963095Y-96898718D01*
X220282175Y-96854961D01*
X220586588Y-96749795D01*
X220760544Y-96656814D01*
X220856308Y-96392413D01*
X219900500Y-95436605D01*
X219886358Y-95450748D01*
X219706753Y-95271143D01*
X219720895Y-95257000D01*
X219706753Y-95242858D01*
X219886358Y-95063253D01*
X219900500Y-95077395D01*
X219914643Y-95063253D01*
X220094248Y-95242858D01*
X220080105Y-95257000D01*
X221035913Y-96212808D01*
X221065575Y-96202065D01*
X221130513Y-96299252D01*
X221358248Y-96526987D01*
X221626037Y-96705918D01*
X221923588Y-96829168D01*
X222239467Y-96892000D01*
X222561533Y-96892000D01*
X222877412Y-96829168D01*
X223174963Y-96705918D01*
X223442752Y-96526987D01*
X223670487Y-96299252D01*
X223849418Y-96031463D01*
X223972668Y-95733912D01*
X224035500Y-95418033D01*
X224035500Y-95095967D01*
X223972668Y-94780088D01*
X223849418Y-94482537D01*
X223670487Y-94214748D01*
X223442752Y-93987013D01*
X223174963Y-93808082D01*
X222877412Y-93684832D01*
X222561533Y-93622000D01*
X222239467Y-93622000D01*
X221959492Y-93677690D01*
X221714801Y-93433000D01*
X225935699Y-93433000D01*
X226399928Y-93897229D01*
X226399928Y-95060500D01*
X226412188Y-95184982D01*
X226448498Y-95304680D01*
X226507463Y-95414994D01*
X226586815Y-95511685D01*
X226683506Y-95591037D01*
X226793820Y-95650002D01*
X226913518Y-95686312D01*
X227038000Y-95698572D01*
X228638000Y-95698572D01*
X228762482Y-95686312D01*
X228882180Y-95650002D01*
X228992494Y-95591037D01*
X229089185Y-95511685D01*
X229168537Y-95414994D01*
X229227502Y-95304680D01*
X229263812Y-95184982D01*
X229276072Y-95060500D01*
X229276072Y-93460500D01*
X229263812Y-93336018D01*
X229227502Y-93216320D01*
X229168537Y-93106006D01*
X229089185Y-93009315D01*
X228992494Y-92929963D01*
X228967303Y-92916498D01*
X228968537Y-92914994D01*
X229027502Y-92804680D01*
X229063812Y-92684982D01*
X229076072Y-92560500D01*
X229076072Y-90960500D01*
X229063812Y-90836018D01*
X229027502Y-90716320D01*
X228968537Y-90606006D01*
X228889185Y-90509315D01*
X228792494Y-90429963D01*
X228682180Y-90370998D01*
X228647573Y-90360500D01*
X228682180Y-90350002D01*
X228792494Y-90291037D01*
X228889185Y-90211685D01*
X228968537Y-90114994D01*
X229027502Y-90004680D01*
X229063812Y-89884982D01*
X229076072Y-89760500D01*
X229076072Y-88160500D01*
X229063812Y-88036018D01*
X229027502Y-87916320D01*
X228968537Y-87806006D01*
X228889185Y-87709315D01*
X228792494Y-87629963D01*
X228726072Y-87594459D01*
X228726072Y-87592969D01*
X228752759Y-87575137D01*
X228952637Y-87375259D01*
X229109680Y-87140227D01*
X229217853Y-86879074D01*
X229273000Y-86601835D01*
X229273000Y-86319165D01*
X229217853Y-86041926D01*
X229109680Y-85780773D01*
X228952637Y-85545741D01*
X228752759Y-85345863D01*
X228517727Y-85188820D01*
X228256574Y-85080647D01*
X227979335Y-85025500D01*
X227696665Y-85025500D01*
X227646463Y-85035486D01*
X227655572Y-84943000D01*
X227655572Y-82443000D01*
X227643312Y-82318518D01*
X227607002Y-82198820D01*
X227548037Y-82088506D01*
X227468685Y-81991815D01*
X227371994Y-81912463D01*
X227261680Y-81853498D01*
X227141982Y-81817188D01*
X227017500Y-81804928D01*
X224523230Y-81804928D01*
X223966677Y-81248376D01*
X223972668Y-81233912D01*
X224035500Y-80918033D01*
X224035500Y-80595967D01*
X223972668Y-80280088D01*
X223849418Y-79982537D01*
X223670487Y-79714748D01*
X223442752Y-79487013D01*
X223174963Y-79308082D01*
X222877412Y-79184832D01*
X222561533Y-79122000D01*
X222239467Y-79122000D01*
X221923588Y-79184832D01*
X221626037Y-79308082D01*
X221358248Y-79487013D01*
X221130513Y-79714748D01*
X220951582Y-79982537D01*
X220828332Y-80280088D01*
X220765500Y-80595967D01*
X220765500Y-80918033D01*
X220828332Y-81233912D01*
X220951582Y-81531463D01*
X221130513Y-81799252D01*
X221251190Y-81919929D01*
X221079517Y-82034637D01*
X220782137Y-82332017D01*
X220548488Y-82681698D01*
X220387547Y-83070244D01*
X220305500Y-83482721D01*
X220305500Y-83903279D01*
X220387547Y-84315756D01*
X220548488Y-84704302D01*
X220782137Y-85053983D01*
X221079517Y-85351363D01*
X221429198Y-85585012D01*
X221817744Y-85745953D01*
X222230221Y-85828000D01*
X222650779Y-85828000D01*
X223063256Y-85745953D01*
X223451802Y-85585012D01*
X223801483Y-85351363D01*
X223908535Y-85244311D01*
X223936963Y-85297494D01*
X224016315Y-85394185D01*
X224113006Y-85473537D01*
X224223320Y-85532502D01*
X224343018Y-85568812D01*
X224467500Y-85581072D01*
X225883771Y-85581072D01*
X226439312Y-86136614D01*
X226403000Y-86319165D01*
X226403000Y-86601835D01*
X226458147Y-86879074D01*
X226566320Y-87140227D01*
X226723363Y-87375259D01*
X226923241Y-87575137D01*
X226949928Y-87592969D01*
X226949928Y-87594459D01*
X226883506Y-87629963D01*
X226786815Y-87709315D01*
X226707463Y-87806006D01*
X226648498Y-87916320D01*
X226612188Y-88036018D01*
X226599928Y-88160500D01*
X226599928Y-89760500D01*
X226612188Y-89884982D01*
X226648498Y-90004680D01*
X226707463Y-90114994D01*
X226786815Y-90211685D01*
X226883506Y-90291037D01*
X226993820Y-90350002D01*
X227028427Y-90360500D01*
X226993820Y-90370998D01*
X226883506Y-90429963D01*
X226786815Y-90509315D01*
X226707463Y-90606006D01*
X226648498Y-90716320D01*
X226612188Y-90836018D01*
X226599928Y-90960500D01*
X226599928Y-91998018D01*
X226542747Y-91967454D01*
X226399486Y-91923997D01*
X226287833Y-91913000D01*
X226287822Y-91913000D01*
X226250500Y-91909324D01*
X226213178Y-91913000D01*
X211019822Y-91913000D01*
X211019822Y-91873000D01*
X211007562Y-91748518D01*
X210971252Y-91628820D01*
X210912287Y-91518506D01*
X210832935Y-91421815D01*
X210736244Y-91342463D01*
X210711053Y-91328998D01*
X210712287Y-91327494D01*
X210771252Y-91217180D01*
X210807562Y-91097482D01*
X210819822Y-90973000D01*
X210819822Y-89533000D01*
X211738178Y-89533000D01*
X211775500Y-89536676D01*
X211812822Y-89533000D01*
X211812833Y-89533000D01*
X211924486Y-89522003D01*
X212067747Y-89478546D01*
X212199776Y-89407974D01*
X212315501Y-89313001D01*
X212339304Y-89283998D01*
X213292384Y-88330918D01*
X213235500Y-88616891D01*
X213235500Y-88929109D01*
X213296411Y-89235327D01*
X213415891Y-89523779D01*
X213589350Y-89783379D01*
X213810121Y-90004150D01*
X214069721Y-90177609D01*
X214358173Y-90297089D01*
X214664391Y-90358000D01*
X214976609Y-90358000D01*
X215282827Y-90297089D01*
X215571279Y-90177609D01*
X215830879Y-90004150D01*
X216051650Y-89783379D01*
X216225109Y-89523779D01*
X216344589Y-89235327D01*
X216405500Y-88929109D01*
X216405500Y-88616891D01*
X216353891Y-88357435D01*
X216713256Y-88285953D01*
X217101802Y-88125012D01*
X217324248Y-87976378D01*
X217318683Y-87989814D01*
X217215500Y-88508551D01*
X217215500Y-89037449D01*
X217318683Y-89556186D01*
X217521083Y-90044825D01*
X217814924Y-90484588D01*
X218188912Y-90858576D01*
X218628675Y-91152417D01*
X219117314Y-91354817D01*
X219636051Y-91458000D01*
X220164949Y-91458000D01*
X220683686Y-91354817D01*
X221172325Y-91152417D01*
X221612088Y-90858576D01*
X221986076Y-90484588D01*
X222279917Y-90044825D01*
X222482317Y-89556186D01*
X222585500Y-89037449D01*
X222585500Y-88616891D01*
X223395500Y-88616891D01*
X223395500Y-88929109D01*
X223456411Y-89235327D01*
X223575891Y-89523779D01*
X223749350Y-89783379D01*
X223970121Y-90004150D01*
X224229721Y-90177609D01*
X224518173Y-90297089D01*
X224824391Y-90358000D01*
X225136609Y-90358000D01*
X225442827Y-90297089D01*
X225731279Y-90177609D01*
X225990879Y-90004150D01*
X226211650Y-89783379D01*
X226385109Y-89523779D01*
X226504589Y-89235327D01*
X226565500Y-88929109D01*
X226565500Y-88616891D01*
X226504589Y-88310673D01*
X226385109Y-88022221D01*
X226211650Y-87762621D01*
X225990879Y-87541850D01*
X225731279Y-87368391D01*
X225442827Y-87248911D01*
X225136609Y-87188000D01*
X224824391Y-87188000D01*
X224518173Y-87248911D01*
X224229721Y-87368391D01*
X223970121Y-87541850D01*
X223749350Y-87762621D01*
X223575891Y-88022221D01*
X223456411Y-88310673D01*
X223395500Y-88616891D01*
X222585500Y-88616891D01*
X222585500Y-88508551D01*
X222482317Y-87989814D01*
X222279917Y-87501175D01*
X221986076Y-87061412D01*
X221612088Y-86687424D01*
X221172325Y-86393583D01*
X220683686Y-86191183D01*
X220164949Y-86088000D01*
X219636051Y-86088000D01*
X219117314Y-86191183D01*
X218628675Y-86393583D01*
X218188912Y-86687424D01*
X218173963Y-86702373D01*
X218225500Y-86443279D01*
X218225500Y-86022721D01*
X218143453Y-85610244D01*
X217982512Y-85221698D01*
X217748863Y-84872017D01*
X217451483Y-84574637D01*
X217101802Y-84340988D01*
X216713256Y-84180047D01*
X216300779Y-84098000D01*
X215880221Y-84098000D01*
X215467744Y-84180047D01*
X215079198Y-84340988D01*
X214729517Y-84574637D01*
X214640060Y-84664094D01*
X214637150Y-84658651D01*
X216959492Y-82336310D01*
X217239467Y-82392000D01*
X217561533Y-82392000D01*
X217877412Y-82329168D01*
X218174963Y-82205918D01*
X218442752Y-82026987D01*
X218670487Y-81799252D01*
X218849418Y-81531463D01*
X218972668Y-81233912D01*
X219035500Y-80918033D01*
X219035500Y-80595967D01*
X218972668Y-80280088D01*
X218849418Y-79982537D01*
X218670487Y-79714748D01*
X218442752Y-79487013D01*
X218174963Y-79308082D01*
X217877412Y-79184832D01*
X217561533Y-79122000D01*
X217239467Y-79122000D01*
X216923588Y-79184832D01*
X216626037Y-79308082D01*
X216358248Y-79487013D01*
X216130513Y-79714748D01*
X215951582Y-79982537D01*
X215828332Y-80280088D01*
X215765500Y-80595967D01*
X215765500Y-80918033D01*
X215828332Y-81233912D01*
X215852922Y-81293277D01*
X212801271Y-84344928D01*
X211540500Y-84344928D01*
X211416018Y-84357188D01*
X211296320Y-84393498D01*
X211186006Y-84452463D01*
X211089315Y-84531815D01*
X211009963Y-84628506D01*
X210999955Y-84647230D01*
X210961603Y-84454426D01*
X210853430Y-84193273D01*
X210696387Y-83958241D01*
X210496509Y-83758363D01*
X210261477Y-83601320D01*
X210000324Y-83493147D01*
X209723085Y-83438000D01*
X209440415Y-83438000D01*
X209257864Y-83474312D01*
X208965554Y-83182003D01*
X208941751Y-83152999D01*
X208826026Y-83058026D01*
X208693997Y-82987454D01*
X208605572Y-82960631D01*
X208605572Y-82443000D01*
X208593312Y-82318518D01*
X208557002Y-82198820D01*
X208498037Y-82088506D01*
X208418685Y-81991815D01*
X208321994Y-81912463D01*
X208211680Y-81853498D01*
X208091982Y-81817188D01*
X207967500Y-81804928D01*
X205417500Y-81804928D01*
X205293018Y-81817188D01*
X205173320Y-81853498D01*
X205063006Y-81912463D01*
X204966315Y-81991815D01*
X204886963Y-82088506D01*
X204858535Y-82141689D01*
X204751483Y-82034637D01*
X204401802Y-81800988D01*
X204013256Y-81640047D01*
X203600779Y-81558000D01*
X203180221Y-81558000D01*
X202767744Y-81640047D01*
X202379198Y-81800988D01*
X202029517Y-82034637D01*
X201732137Y-82332017D01*
X201498488Y-82681698D01*
X201337547Y-83070244D01*
X201255500Y-83482721D01*
X201255500Y-83903279D01*
X201337547Y-84315756D01*
X201498488Y-84704302D01*
X201732137Y-85053983D01*
X202029517Y-85351363D01*
X202379198Y-85585012D01*
X202767744Y-85745953D01*
X203180221Y-85828000D01*
X203600779Y-85828000D01*
X204013256Y-85745953D01*
X204401802Y-85585012D01*
X204751483Y-85351363D01*
X204858535Y-85244311D01*
X204886963Y-85297494D01*
X204966315Y-85394185D01*
X205063006Y-85473537D01*
X205173320Y-85532502D01*
X205293018Y-85568812D01*
X205417500Y-85581072D01*
X207967500Y-85581072D01*
X208091982Y-85568812D01*
X208211680Y-85532502D01*
X208285376Y-85493110D01*
X208310070Y-85552727D01*
X208467113Y-85787759D01*
X208666991Y-85987637D01*
X208693678Y-86005469D01*
X208693678Y-86006959D01*
X208627256Y-86042463D01*
X208530565Y-86121815D01*
X208451213Y-86218506D01*
X208392248Y-86328820D01*
X208355938Y-86448518D01*
X208343678Y-86573000D01*
X208343678Y-88013000D01*
X208317322Y-88013000D01*
X208279999Y-88009324D01*
X208242676Y-88013000D01*
X208242667Y-88013000D01*
X208131014Y-88023997D01*
X207987753Y-88067454D01*
X207855723Y-88138026D01*
X207828339Y-88160500D01*
X207739999Y-88232999D01*
X207716201Y-88261997D01*
X207489918Y-88488280D01*
X207454589Y-88310673D01*
X207335109Y-88022221D01*
X207161650Y-87762621D01*
X206940879Y-87541850D01*
X206681279Y-87368391D01*
X206392827Y-87248911D01*
X206086609Y-87188000D01*
X205774391Y-87188000D01*
X205468173Y-87248911D01*
X205179721Y-87368391D01*
X204920121Y-87541850D01*
X204699350Y-87762621D01*
X204525891Y-88022221D01*
X204406411Y-88310673D01*
X204345500Y-88616891D01*
X204345500Y-88929109D01*
X204406411Y-89235327D01*
X204525891Y-89523779D01*
X204699350Y-89783379D01*
X204920121Y-90004150D01*
X205179721Y-90177609D01*
X205468173Y-90297089D01*
X205645781Y-90332418D01*
X204790199Y-91188000D01*
X202036420Y-91188000D01*
X202122325Y-91152417D01*
X202562088Y-90858576D01*
X202936076Y-90484588D01*
X203229917Y-90044825D01*
X203432317Y-89556186D01*
X203535500Y-89037449D01*
X203535500Y-88508551D01*
X203432317Y-87989814D01*
X203229917Y-87501175D01*
X202936076Y-87061412D01*
X202562088Y-86687424D01*
X202122325Y-86393583D01*
X201633686Y-86191183D01*
X201114949Y-86088000D01*
X200586051Y-86088000D01*
X200067314Y-86191183D01*
X199578675Y-86393583D01*
X199138912Y-86687424D01*
X199123963Y-86702373D01*
X199175500Y-86443279D01*
X199175500Y-86022721D01*
X199093453Y-85610244D01*
X198932512Y-85221698D01*
X198698863Y-84872017D01*
X198401483Y-84574637D01*
X198051802Y-84340988D01*
X197663256Y-84180047D01*
X197250779Y-84098000D01*
X196830221Y-84098000D01*
X196417744Y-84180047D01*
X196029198Y-84340988D01*
X195679517Y-84574637D01*
X195590060Y-84664094D01*
X195571037Y-84628506D01*
X195491685Y-84531815D01*
X195394994Y-84452463D01*
X195284680Y-84393498D01*
X195164982Y-84357188D01*
X195040500Y-84344928D01*
X192952230Y-84344928D01*
X188170903Y-79563602D01*
X188147100Y-79534598D01*
X188031375Y-79439625D01*
X187899346Y-79369053D01*
X187756085Y-79325596D01*
X187644432Y-79314599D01*
X187644421Y-79314599D01*
X187607099Y-79310923D01*
X187569777Y-79314599D01*
X156858084Y-79314599D01*
X156820751Y-79310922D01*
X156783418Y-79314599D01*
X156671765Y-79325596D01*
X156528504Y-79369053D01*
X156396475Y-79439625D01*
X156280750Y-79534598D01*
X156256952Y-79563596D01*
X156025320Y-79795228D01*
X155871342Y-79764600D01*
X155596158Y-79764600D01*
X155442179Y-79795228D01*
X155210553Y-79563601D01*
X155186750Y-79534598D01*
X155071025Y-79439625D01*
X154938996Y-79369053D01*
X154795735Y-79325596D01*
X154684082Y-79314599D01*
X154684071Y-79314599D01*
X154646749Y-79310923D01*
X154609427Y-79314599D01*
X137469312Y-79314599D01*
X137431989Y-79310923D01*
X137394666Y-79314599D01*
X137394656Y-79314599D01*
X137283003Y-79325596D01*
X137139742Y-79369053D01*
X137007713Y-79439625D01*
X136891988Y-79534598D01*
X136868190Y-79563597D01*
X136104498Y-80327289D01*
X136075500Y-80351087D01*
X136051702Y-80380085D01*
X136051701Y-80380086D01*
X135980526Y-80466812D01*
X135909954Y-80598842D01*
X135881803Y-80691648D01*
X135867948Y-80737324D01*
X135866498Y-80742103D01*
X135851824Y-80891088D01*
X135855501Y-80928420D01*
X135855500Y-84344928D01*
X135340500Y-84344928D01*
X135216018Y-84357188D01*
X135096320Y-84393498D01*
X134986006Y-84452463D01*
X134889315Y-84531815D01*
X134809963Y-84628506D01*
X134750998Y-84738820D01*
X134740250Y-84774251D01*
X134740250Y-79280279D01*
X134745902Y-79222638D01*
X134753269Y-79198237D01*
X134765233Y-79175735D01*
X134781341Y-79155986D01*
X134800977Y-79139741D01*
X134823401Y-79127617D01*
X134847742Y-79120082D01*
X134903226Y-79114250D01*
X229393221Y-79114250D01*
X229450862Y-79119902D01*
%TA.AperFunction,Conductor*%
D22*
G36*
X229450862Y-79119902D02*
G01*
X229475263Y-79127269D01*
X229497765Y-79139233D01*
X229517514Y-79155341D01*
X229533759Y-79174977D01*
X229545883Y-79197401D01*
X229553418Y-79221742D01*
X229559251Y-79277235D01*
X229559250Y-98265721D01*
X229553598Y-98323364D01*
X229546232Y-98347760D01*
X229534266Y-98370266D01*
X229518159Y-98390014D01*
X229498523Y-98406259D01*
X229476099Y-98418383D01*
X229451758Y-98425918D01*
X229396275Y-98431750D01*
X177790975Y-98431750D01*
X177842748Y-98416045D01*
X177974777Y-98345473D01*
X178058779Y-98276534D01*
X178073588Y-98282668D01*
X178389467Y-98345500D01*
X178711533Y-98345500D01*
X179027412Y-98282668D01*
X179324963Y-98159418D01*
X179592752Y-97980487D01*
X179727326Y-97845913D01*
X184094692Y-97845913D01*
X184190456Y-98110314D01*
X184480071Y-98251204D01*
X184791608Y-98332884D01*
X185113095Y-98352218D01*
X185432175Y-98308461D01*
X185736588Y-98203295D01*
X185910544Y-98110314D01*
X186006308Y-97845913D01*
X185050500Y-96890105D01*
X184094692Y-97845913D01*
X179727326Y-97845913D01*
X179820487Y-97752752D01*
X179999418Y-97484963D01*
X180122668Y-97187412D01*
X180185500Y-96871533D01*
X180185500Y-96773095D01*
X183408782Y-96773095D01*
X183452539Y-97092175D01*
X183557705Y-97396588D01*
X183650686Y-97570544D01*
X183915087Y-97666308D01*
X184870895Y-96710500D01*
X185230105Y-96710500D01*
X186185913Y-97666308D01*
X186450314Y-97570544D01*
X186591204Y-97280929D01*
X186672884Y-96969392D01*
X186692218Y-96647905D01*
X186648461Y-96328825D01*
X186543295Y-96024412D01*
X186450314Y-95850456D01*
X186185913Y-95754692D01*
X185230105Y-96710500D01*
X184870895Y-96710500D01*
X183915087Y-95754692D01*
X183650686Y-95850456D01*
X183509796Y-96140071D01*
X183428116Y-96451608D01*
X183408782Y-96773095D01*
X180185500Y-96773095D01*
X180185500Y-96549467D01*
X180122668Y-96233588D01*
X179999418Y-95936037D01*
X179820487Y-95668248D01*
X179592752Y-95440513D01*
X179324963Y-95261582D01*
X179074892Y-95157999D01*
X184537237Y-95157999D01*
X184364412Y-95217705D01*
X184190456Y-95310686D01*
X184094692Y-95575087D01*
X185050500Y-96530895D01*
X186006308Y-95575087D01*
X185910544Y-95310686D01*
X185620929Y-95169796D01*
X185575934Y-95157999D01*
X215762428Y-95157999D01*
X215762428Y-96257000D01*
X215774688Y-96381482D01*
X215810998Y-96501180D01*
X215869963Y-96611494D01*
X215949315Y-96708185D01*
X216046006Y-96787537D01*
X216156320Y-96846502D01*
X216276018Y-96882812D01*
X216400500Y-96895072D01*
X218400500Y-96895072D01*
X218524982Y-96882812D01*
X218644680Y-96846502D01*
X218754994Y-96787537D01*
X218851685Y-96708185D01*
X218931037Y-96611494D01*
X218986476Y-96507777D01*
X219040456Y-96656814D01*
X219330071Y-96797704D01*
X219641608Y-96879384D01*
X219963095Y-96898718D01*
X220282175Y-96854961D01*
X220586588Y-96749795D01*
X220760544Y-96656814D01*
X220856308Y-96392413D01*
X219900500Y-95436605D01*
X219886358Y-95450748D01*
X219706753Y-95271143D01*
X219720895Y-95257000D01*
X219706753Y-95242858D01*
X219886358Y-95063253D01*
X219900500Y-95077395D01*
X219914643Y-95063253D01*
X220094248Y-95242858D01*
X220080105Y-95257000D01*
X221035913Y-96212808D01*
X221065575Y-96202065D01*
X221130513Y-96299252D01*
X221358248Y-96526987D01*
X221626037Y-96705918D01*
X221923588Y-96829168D01*
X222239467Y-96892000D01*
X222561533Y-96892000D01*
X222877412Y-96829168D01*
X223174963Y-96705918D01*
X223442752Y-96526987D01*
X223670487Y-96299252D01*
X223849418Y-96031463D01*
X223972668Y-95733912D01*
X224035500Y-95418033D01*
X224035500Y-95095967D01*
X223972668Y-94780088D01*
X223849418Y-94482537D01*
X223670487Y-94214748D01*
X223442752Y-93987013D01*
X223174963Y-93808082D01*
X222877412Y-93684832D01*
X222561533Y-93622000D01*
X222239467Y-93622000D01*
X221959492Y-93677690D01*
X221714801Y-93433000D01*
X225935699Y-93433000D01*
X226399928Y-93897229D01*
X226399928Y-95060500D01*
X226412188Y-95184982D01*
X226448498Y-95304680D01*
X226507463Y-95414994D01*
X226586815Y-95511685D01*
X226683506Y-95591037D01*
X226793820Y-95650002D01*
X226913518Y-95686312D01*
X227038000Y-95698572D01*
X228638000Y-95698572D01*
X228762482Y-95686312D01*
X228882180Y-95650002D01*
X228992494Y-95591037D01*
X229089185Y-95511685D01*
X229168537Y-95414994D01*
X229227502Y-95304680D01*
X229263812Y-95184982D01*
X229276072Y-95060500D01*
X229276072Y-93460500D01*
X229263812Y-93336018D01*
X229227502Y-93216320D01*
X229168537Y-93106006D01*
X229089185Y-93009315D01*
X228992494Y-92929963D01*
X228967303Y-92916498D01*
X228968537Y-92914994D01*
X229027502Y-92804680D01*
X229063812Y-92684982D01*
X229076072Y-92560500D01*
X229076072Y-90960500D01*
X229063812Y-90836018D01*
X229027502Y-90716320D01*
X228968537Y-90606006D01*
X228889185Y-90509315D01*
X228792494Y-90429963D01*
X228682180Y-90370998D01*
X228647573Y-90360500D01*
X228682180Y-90350002D01*
X228792494Y-90291037D01*
X228889185Y-90211685D01*
X228968537Y-90114994D01*
X229027502Y-90004680D01*
X229063812Y-89884982D01*
X229076072Y-89760500D01*
X229076072Y-88160500D01*
X229063812Y-88036018D01*
X229027502Y-87916320D01*
X228968537Y-87806006D01*
X228889185Y-87709315D01*
X228792494Y-87629963D01*
X228726072Y-87594459D01*
X228726072Y-87592969D01*
X228752759Y-87575137D01*
X228952637Y-87375259D01*
X229109680Y-87140227D01*
X229217853Y-86879074D01*
X229273000Y-86601835D01*
X229273000Y-86319165D01*
X229217853Y-86041926D01*
X229109680Y-85780773D01*
X228952637Y-85545741D01*
X228752759Y-85345863D01*
X228517727Y-85188820D01*
X228256574Y-85080647D01*
X227979335Y-85025500D01*
X227696665Y-85025500D01*
X227646463Y-85035486D01*
X227655572Y-84943000D01*
X227655572Y-82443000D01*
X227643312Y-82318518D01*
X227607002Y-82198820D01*
X227548037Y-82088506D01*
X227468685Y-81991815D01*
X227371994Y-81912463D01*
X227261680Y-81853498D01*
X227141982Y-81817188D01*
X227017500Y-81804928D01*
X224523230Y-81804928D01*
X223966677Y-81248376D01*
X223972668Y-81233912D01*
X224035500Y-80918033D01*
X224035500Y-80595967D01*
X223972668Y-80280088D01*
X223849418Y-79982537D01*
X223670487Y-79714748D01*
X223442752Y-79487013D01*
X223174963Y-79308082D01*
X222877412Y-79184832D01*
X222561533Y-79122000D01*
X222239467Y-79122000D01*
X221923588Y-79184832D01*
X221626037Y-79308082D01*
X221358248Y-79487013D01*
X221130513Y-79714748D01*
X220951582Y-79982537D01*
X220828332Y-80280088D01*
X220765500Y-80595967D01*
X220765500Y-80918033D01*
X220828332Y-81233912D01*
X220951582Y-81531463D01*
X221130513Y-81799252D01*
X221251190Y-81919929D01*
X221079517Y-82034637D01*
X220782137Y-82332017D01*
X220548488Y-82681698D01*
X220387547Y-83070244D01*
X220305500Y-83482721D01*
X220305500Y-83903279D01*
X220387547Y-84315756D01*
X220548488Y-84704302D01*
X220782137Y-85053983D01*
X221079517Y-85351363D01*
X221429198Y-85585012D01*
X221817744Y-85745953D01*
X222230221Y-85828000D01*
X222650779Y-85828000D01*
X223063256Y-85745953D01*
X223451802Y-85585012D01*
X223801483Y-85351363D01*
X223908535Y-85244311D01*
X223936963Y-85297494D01*
X224016315Y-85394185D01*
X224113006Y-85473537D01*
X224223320Y-85532502D01*
X224343018Y-85568812D01*
X224467500Y-85581072D01*
X225883771Y-85581072D01*
X226439312Y-86136614D01*
X226403000Y-86319165D01*
X226403000Y-86601835D01*
X226458147Y-86879074D01*
X226566320Y-87140227D01*
X226723363Y-87375259D01*
X226923241Y-87575137D01*
X226949928Y-87592969D01*
X226949928Y-87594459D01*
X226883506Y-87629963D01*
X226786815Y-87709315D01*
X226707463Y-87806006D01*
X226648498Y-87916320D01*
X226612188Y-88036018D01*
X226599928Y-88160500D01*
X226599928Y-89760500D01*
X226612188Y-89884982D01*
X226648498Y-90004680D01*
X226707463Y-90114994D01*
X226786815Y-90211685D01*
X226883506Y-90291037D01*
X226993820Y-90350002D01*
X227028427Y-90360500D01*
X226993820Y-90370998D01*
X226883506Y-90429963D01*
X226786815Y-90509315D01*
X226707463Y-90606006D01*
X226648498Y-90716320D01*
X226612188Y-90836018D01*
X226599928Y-90960500D01*
X226599928Y-91998018D01*
X226542747Y-91967454D01*
X226399486Y-91923997D01*
X226287833Y-91913000D01*
X226287822Y-91913000D01*
X226250500Y-91909324D01*
X226213178Y-91913000D01*
X211019822Y-91913000D01*
X211019822Y-91873000D01*
X211007562Y-91748518D01*
X210971252Y-91628820D01*
X210912287Y-91518506D01*
X210832935Y-91421815D01*
X210736244Y-91342463D01*
X210711053Y-91328998D01*
X210712287Y-91327494D01*
X210771252Y-91217180D01*
X210807562Y-91097482D01*
X210819822Y-90973000D01*
X210819822Y-89533000D01*
X211738178Y-89533000D01*
X211775500Y-89536676D01*
X211812822Y-89533000D01*
X211812833Y-89533000D01*
X211924486Y-89522003D01*
X212067747Y-89478546D01*
X212199776Y-89407974D01*
X212315501Y-89313001D01*
X212339304Y-89283998D01*
X213292384Y-88330918D01*
X213235500Y-88616891D01*
X213235500Y-88929109D01*
X213296411Y-89235327D01*
X213415891Y-89523779D01*
X213589350Y-89783379D01*
X213810121Y-90004150D01*
X214069721Y-90177609D01*
X214358173Y-90297089D01*
X214664391Y-90358000D01*
X214976609Y-90358000D01*
X215282827Y-90297089D01*
X215571279Y-90177609D01*
X215830879Y-90004150D01*
X216051650Y-89783379D01*
X216225109Y-89523779D01*
X216344589Y-89235327D01*
X216405500Y-88929109D01*
X216405500Y-88616891D01*
X216353891Y-88357435D01*
X216713256Y-88285953D01*
X217101802Y-88125012D01*
X217324248Y-87976378D01*
X217318683Y-87989814D01*
X217215500Y-88508551D01*
X217215500Y-89037449D01*
X217318683Y-89556186D01*
X217521083Y-90044825D01*
X217814924Y-90484588D01*
X218188912Y-90858576D01*
X218628675Y-91152417D01*
X219117314Y-91354817D01*
X219636051Y-91458000D01*
X220164949Y-91458000D01*
X220683686Y-91354817D01*
X221172325Y-91152417D01*
X221612088Y-90858576D01*
X221986076Y-90484588D01*
X222279917Y-90044825D01*
X222482317Y-89556186D01*
X222585500Y-89037449D01*
X222585500Y-88616891D01*
X223395500Y-88616891D01*
X223395500Y-88929109D01*
X223456411Y-89235327D01*
X223575891Y-89523779D01*
X223749350Y-89783379D01*
X223970121Y-90004150D01*
X224229721Y-90177609D01*
X224518173Y-90297089D01*
X224824391Y-90358000D01*
X225136609Y-90358000D01*
X225442827Y-90297089D01*
X225731279Y-90177609D01*
X225990879Y-90004150D01*
X226211650Y-89783379D01*
X226385109Y-89523779D01*
X226504589Y-89235327D01*
X226565500Y-88929109D01*
X226565500Y-88616891D01*
X226504589Y-88310673D01*
X226385109Y-88022221D01*
X226211650Y-87762621D01*
X225990879Y-87541850D01*
X225731279Y-87368391D01*
X225442827Y-87248911D01*
X225136609Y-87188000D01*
X224824391Y-87188000D01*
X224518173Y-87248911D01*
X224229721Y-87368391D01*
X223970121Y-87541850D01*
X223749350Y-87762621D01*
X223575891Y-88022221D01*
X223456411Y-88310673D01*
X223395500Y-88616891D01*
X222585500Y-88616891D01*
X222585500Y-88508551D01*
X222482317Y-87989814D01*
X222279917Y-87501175D01*
X221986076Y-87061412D01*
X221612088Y-86687424D01*
X221172325Y-86393583D01*
X220683686Y-86191183D01*
X220164949Y-86088000D01*
X219636051Y-86088000D01*
X219117314Y-86191183D01*
X218628675Y-86393583D01*
X218188912Y-86687424D01*
X218173963Y-86702373D01*
X218225500Y-86443279D01*
X218225500Y-86022721D01*
X218143453Y-85610244D01*
X217982512Y-85221698D01*
X217748863Y-84872017D01*
X217451483Y-84574637D01*
X217101802Y-84340988D01*
X216713256Y-84180047D01*
X216300779Y-84098000D01*
X215880221Y-84098000D01*
X215467744Y-84180047D01*
X215079198Y-84340988D01*
X214729517Y-84574637D01*
X214640060Y-84664094D01*
X214637150Y-84658651D01*
X216959492Y-82336310D01*
X217239467Y-82392000D01*
X217561533Y-82392000D01*
X217877412Y-82329168D01*
X218174963Y-82205918D01*
X218442752Y-82026987D01*
X218670487Y-81799252D01*
X218849418Y-81531463D01*
X218972668Y-81233912D01*
X219035500Y-80918033D01*
X219035500Y-80595967D01*
X218972668Y-80280088D01*
X218849418Y-79982537D01*
X218670487Y-79714748D01*
X218442752Y-79487013D01*
X218174963Y-79308082D01*
X217877412Y-79184832D01*
X217561533Y-79122000D01*
X217239467Y-79122000D01*
X216923588Y-79184832D01*
X216626037Y-79308082D01*
X216358248Y-79487013D01*
X216130513Y-79714748D01*
X215951582Y-79982537D01*
X215828332Y-80280088D01*
X215765500Y-80595967D01*
X215765500Y-80918033D01*
X215828332Y-81233912D01*
X215852922Y-81293277D01*
X212801271Y-84344928D01*
X211540500Y-84344928D01*
X211416018Y-84357188D01*
X211296320Y-84393498D01*
X211186006Y-84452463D01*
X211089315Y-84531815D01*
X211009963Y-84628506D01*
X210999955Y-84647230D01*
X210961603Y-84454426D01*
X210853430Y-84193273D01*
X210696387Y-83958241D01*
X210496509Y-83758363D01*
X210261477Y-83601320D01*
X210000324Y-83493147D01*
X209723085Y-83438000D01*
X209440415Y-83438000D01*
X209257864Y-83474312D01*
X208965554Y-83182003D01*
X208941751Y-83152999D01*
X208826026Y-83058026D01*
X208693997Y-82987454D01*
X208605572Y-82960631D01*
X208605572Y-82443000D01*
X208593312Y-82318518D01*
X208557002Y-82198820D01*
X208498037Y-82088506D01*
X208418685Y-81991815D01*
X208321994Y-81912463D01*
X208211680Y-81853498D01*
X208091982Y-81817188D01*
X207967500Y-81804928D01*
X205417500Y-81804928D01*
X205293018Y-81817188D01*
X205173320Y-81853498D01*
X205063006Y-81912463D01*
X204966315Y-81991815D01*
X204886963Y-82088506D01*
X204858535Y-82141689D01*
X204751483Y-82034637D01*
X204401802Y-81800988D01*
X204013256Y-81640047D01*
X203600779Y-81558000D01*
X203180221Y-81558000D01*
X202767744Y-81640047D01*
X202379198Y-81800988D01*
X202029517Y-82034637D01*
X201732137Y-82332017D01*
X201498488Y-82681698D01*
X201337547Y-83070244D01*
X201255500Y-83482721D01*
X201255500Y-83903279D01*
X201337547Y-84315756D01*
X201498488Y-84704302D01*
X201732137Y-85053983D01*
X202029517Y-85351363D01*
X202379198Y-85585012D01*
X202767744Y-85745953D01*
X203180221Y-85828000D01*
X203600779Y-85828000D01*
X204013256Y-85745953D01*
X204401802Y-85585012D01*
X204751483Y-85351363D01*
X204858535Y-85244311D01*
X204886963Y-85297494D01*
X204966315Y-85394185D01*
X205063006Y-85473537D01*
X205173320Y-85532502D01*
X205293018Y-85568812D01*
X205417500Y-85581072D01*
X207967500Y-85581072D01*
X208091982Y-85568812D01*
X208211680Y-85532502D01*
X208285376Y-85493110D01*
X208310070Y-85552727D01*
X208467113Y-85787759D01*
X208666991Y-85987637D01*
X208693678Y-86005469D01*
X208693678Y-86006959D01*
X208627256Y-86042463D01*
X208530565Y-86121815D01*
X208451213Y-86218506D01*
X208392248Y-86328820D01*
X208355938Y-86448518D01*
X208343678Y-86573000D01*
X208343678Y-88013000D01*
X208317322Y-88013000D01*
X208279999Y-88009324D01*
X208242676Y-88013000D01*
X208242667Y-88013000D01*
X208131014Y-88023997D01*
X207987753Y-88067454D01*
X207855723Y-88138026D01*
X207828339Y-88160500D01*
X207739999Y-88232999D01*
X207716201Y-88261997D01*
X207489918Y-88488280D01*
X207454589Y-88310673D01*
X207335109Y-88022221D01*
X207161650Y-87762621D01*
X206940879Y-87541850D01*
X206681279Y-87368391D01*
X206392827Y-87248911D01*
X206086609Y-87188000D01*
X205774391Y-87188000D01*
X205468173Y-87248911D01*
X205179721Y-87368391D01*
X204920121Y-87541850D01*
X204699350Y-87762621D01*
X204525891Y-88022221D01*
X204406411Y-88310673D01*
X204345500Y-88616891D01*
X204345500Y-88929109D01*
X204406411Y-89235327D01*
X204525891Y-89523779D01*
X204699350Y-89783379D01*
X204920121Y-90004150D01*
X205179721Y-90177609D01*
X205468173Y-90297089D01*
X205645781Y-90332418D01*
X204790199Y-91188000D01*
X202036420Y-91188000D01*
X202122325Y-91152417D01*
X202562088Y-90858576D01*
X202936076Y-90484588D01*
X203229917Y-90044825D01*
X203432317Y-89556186D01*
X203535500Y-89037449D01*
X203535500Y-88508551D01*
X203432317Y-87989814D01*
X203229917Y-87501175D01*
X202936076Y-87061412D01*
X202562088Y-86687424D01*
X202122325Y-86393583D01*
X201633686Y-86191183D01*
X201114949Y-86088000D01*
X200586051Y-86088000D01*
X200067314Y-86191183D01*
X199578675Y-86393583D01*
X199138912Y-86687424D01*
X199123963Y-86702373D01*
X199175500Y-86443279D01*
X199175500Y-86022721D01*
X199093453Y-85610244D01*
X198932512Y-85221698D01*
X198698863Y-84872017D01*
X198401483Y-84574637D01*
X198051802Y-84340988D01*
X197663256Y-84180047D01*
X197250779Y-84098000D01*
X196830221Y-84098000D01*
X196417744Y-84180047D01*
X196029198Y-84340988D01*
X195679517Y-84574637D01*
X195590060Y-84664094D01*
X195571037Y-84628506D01*
X195491685Y-84531815D01*
X195394994Y-84452463D01*
X195284680Y-84393498D01*
X195164982Y-84357188D01*
X195040500Y-84344928D01*
X192952230Y-84344928D01*
X188170903Y-79563602D01*
X188147100Y-79534598D01*
X188031375Y-79439625D01*
X187899346Y-79369053D01*
X187756085Y-79325596D01*
X187644432Y-79314599D01*
X187644421Y-79314599D01*
X187607099Y-79310923D01*
X187569777Y-79314599D01*
X156858084Y-79314599D01*
X156820751Y-79310922D01*
X156783418Y-79314599D01*
X156671765Y-79325596D01*
X156528504Y-79369053D01*
X156396475Y-79439625D01*
X156280750Y-79534598D01*
X156256952Y-79563596D01*
X156025320Y-79795228D01*
X155871342Y-79764600D01*
X155596158Y-79764600D01*
X155442179Y-79795228D01*
X155210553Y-79563601D01*
X155186750Y-79534598D01*
X155071025Y-79439625D01*
X154938996Y-79369053D01*
X154795735Y-79325596D01*
X154684082Y-79314599D01*
X154684071Y-79314599D01*
X154646749Y-79310923D01*
X154609427Y-79314599D01*
X137469312Y-79314599D01*
X137431989Y-79310923D01*
X137394666Y-79314599D01*
X137394656Y-79314599D01*
X137283003Y-79325596D01*
X137139742Y-79369053D01*
X137007713Y-79439625D01*
X136891988Y-79534598D01*
X136868190Y-79563597D01*
X136104498Y-80327289D01*
X136075500Y-80351087D01*
X136051702Y-80380085D01*
X136051701Y-80380086D01*
X135980526Y-80466812D01*
X135909954Y-80598842D01*
X135881803Y-80691648D01*
X135867948Y-80737324D01*
X135866498Y-80742103D01*
X135851824Y-80891088D01*
X135855501Y-80928420D01*
X135855500Y-84344928D01*
X135340500Y-84344928D01*
X135216018Y-84357188D01*
X135096320Y-84393498D01*
X134986006Y-84452463D01*
X134889315Y-84531815D01*
X134809963Y-84628506D01*
X134750998Y-84738820D01*
X134740250Y-84774251D01*
X134740250Y-79280279D01*
X134745902Y-79222638D01*
X134753269Y-79198237D01*
X134765233Y-79175735D01*
X134781341Y-79155986D01*
X134800977Y-79139741D01*
X134823401Y-79127617D01*
X134847742Y-79120082D01*
X134903226Y-79114250D01*
X229393221Y-79114250D01*
X229450862Y-79119902D01*
G37*
%TD.AperFunction*%
D21*
X145767498Y-81147458D02*
X145753355Y-81161600D01*
X145767498Y-81175743D01*
X145587893Y-81355348D01*
X145573750Y-81341205D01*
X144881931Y-82033024D01*
X144879517Y-82034637D01*
X144582137Y-82332017D01*
X144348488Y-82681698D01*
X144187547Y-83070244D01*
X144105500Y-83482721D01*
X144105500Y-83903279D01*
X144187547Y-84315756D01*
X144348488Y-84704302D01*
X144582137Y-85053983D01*
X144879517Y-85351363D01*
X145229198Y-85585012D01*
X145617744Y-85745953D01*
X146030221Y-85828000D01*
X146450779Y-85828000D01*
X146863256Y-85745953D01*
X147251802Y-85585012D01*
X147601483Y-85351363D01*
X147708535Y-85244311D01*
X147736963Y-85297494D01*
X147816315Y-85394185D01*
X147913006Y-85473537D01*
X148023320Y-85532502D01*
X148143018Y-85568812D01*
X148267500Y-85581072D01*
X150817500Y-85581072D01*
X150941982Y-85568812D01*
X151061680Y-85532502D01*
X151135376Y-85493110D01*
X151160070Y-85552727D01*
X151317113Y-85787759D01*
X151516991Y-85987637D01*
X151543678Y-86005469D01*
X151543678Y-86006959D01*
X151477256Y-86042463D01*
X151380565Y-86121815D01*
X151301213Y-86218506D01*
X151242248Y-86328820D01*
X151205938Y-86448518D01*
X151193678Y-86573000D01*
X151193678Y-88173000D01*
X151205938Y-88297482D01*
X151242248Y-88417180D01*
X151301213Y-88527494D01*
X151380565Y-88624185D01*
X151477256Y-88703537D01*
X151587570Y-88762502D01*
X151622177Y-88773000D01*
X151587570Y-88783498D01*
X151477256Y-88842463D01*
X151380565Y-88921815D01*
X151301213Y-89018506D01*
X151242248Y-89128820D01*
X151205938Y-89248518D01*
X151193678Y-89373000D01*
X151193678Y-90973000D01*
X151205938Y-91097482D01*
X151242248Y-91217180D01*
X151301213Y-91327494D01*
X151302447Y-91328998D01*
X151277256Y-91342463D01*
X151180565Y-91421815D01*
X151101213Y-91518506D01*
X151042248Y-91628820D01*
X151005938Y-91748518D01*
X150993678Y-91873000D01*
X150993678Y-93473000D01*
X151005938Y-93597482D01*
X151042248Y-93717180D01*
X151101213Y-93827494D01*
X151180565Y-93924185D01*
X151277256Y-94003537D01*
X151387570Y-94062502D01*
X151507268Y-94098812D01*
X151631750Y-94111072D01*
X153231750Y-94111072D01*
X153356232Y-94098812D01*
X153475930Y-94062502D01*
X153586244Y-94003537D01*
X153682935Y-93924185D01*
X153762287Y-93827494D01*
X153821252Y-93717180D01*
X153857562Y-93597482D01*
X153869822Y-93473000D01*
X153869822Y-93433000D01*
X156790349Y-93433000D01*
X158341948Y-94984600D01*
X158136158Y-94984600D01*
X157866260Y-95038286D01*
X157612023Y-95143595D01*
X157383215Y-95296480D01*
X157188630Y-95491065D01*
X157035745Y-95719873D01*
X157003750Y-95797115D01*
X156971755Y-95719873D01*
X156818870Y-95491065D01*
X156624285Y-95296480D01*
X156395477Y-95143595D01*
X156141240Y-95038286D01*
X155871342Y-94984600D01*
X155596158Y-94984600D01*
X155326260Y-95038286D01*
X155072023Y-95143595D01*
X154843215Y-95296480D01*
X154648630Y-95491065D01*
X154495745Y-95719873D01*
X154463750Y-95797115D01*
X154431755Y-95719873D01*
X154278870Y-95491065D01*
X154084285Y-95296480D01*
X153855477Y-95143595D01*
X153601240Y-95038286D01*
X153331342Y-94984600D01*
X153056158Y-94984600D01*
X152786260Y-95038286D01*
X152532023Y-95143595D01*
X152303215Y-95296480D01*
X152108630Y-95491065D01*
X151955745Y-95719873D01*
X151923750Y-95797115D01*
X151891755Y-95719873D01*
X151738870Y-95491065D01*
X151544285Y-95296480D01*
X151315477Y-95143595D01*
X151061240Y-95038286D01*
X150791342Y-94984600D01*
X150516158Y-94984600D01*
X150246260Y-95038286D01*
X149992023Y-95143595D01*
X149763215Y-95296480D01*
X149568630Y-95491065D01*
X149415745Y-95719873D01*
X149383750Y-95797115D01*
X149351755Y-95719873D01*
X149198870Y-95491065D01*
X149004285Y-95296480D01*
X148775477Y-95143595D01*
X148521240Y-95038286D01*
X148251342Y-94984600D01*
X147976158Y-94984600D01*
X147706260Y-95038286D01*
X147452023Y-95143595D01*
X147223215Y-95296480D01*
X147028630Y-95491065D01*
X146875745Y-95719873D01*
X146843750Y-95797115D01*
X146811755Y-95719873D01*
X146658870Y-95491065D01*
X146464285Y-95296480D01*
X146235477Y-95143595D01*
X145981240Y-95038286D01*
X145711342Y-94984600D01*
X145436158Y-94984600D01*
X145166260Y-95038286D01*
X144912023Y-95143595D01*
X144683215Y-95296480D01*
X144488630Y-95491065D01*
X144335745Y-95719873D01*
X144303750Y-95797115D01*
X144271755Y-95719873D01*
X144118870Y-95491065D01*
X143924285Y-95296480D01*
X143695477Y-95143595D01*
X143441240Y-95038286D01*
X143171342Y-94984600D01*
X142896158Y-94984600D01*
X142626260Y-95038286D01*
X142372023Y-95143595D01*
X142143215Y-95296480D01*
X141948630Y-95491065D01*
X141795745Y-95719873D01*
X141766058Y-95791543D01*
X141761386Y-95778577D01*
X141699406Y-95662620D01*
X141459315Y-95595640D01*
X140673355Y-96381600D01*
X141459315Y-97167560D01*
X141699406Y-97100580D01*
X141763235Y-96964840D01*
X141795745Y-97043327D01*
X141948630Y-97272135D01*
X142143215Y-97466720D01*
X142372023Y-97619605D01*
X142626260Y-97724914D01*
X142896158Y-97778600D01*
X143171342Y-97778600D01*
X143325320Y-97747972D01*
X143798850Y-98221502D01*
X143822648Y-98250500D01*
X143851646Y-98274298D01*
X143938372Y-98345473D01*
X144019090Y-98388618D01*
X144070402Y-98416045D01*
X144122175Y-98431750D01*
X134906279Y-98431750D01*
X134848636Y-98426098D01*
X134824240Y-98418732D01*
X134801734Y-98406766D01*
X134781986Y-98390659D01*
X134765741Y-98371023D01*
X134753617Y-98348599D01*
X134746082Y-98324258D01*
X134740250Y-98268775D01*
X134740250Y-96244008D01*
X136556750Y-96244008D01*
X136556750Y-96519192D01*
X136610436Y-96789090D01*
X136715745Y-97043327D01*
X136868630Y-97272135D01*
X137063215Y-97466720D01*
X137292023Y-97619605D01*
X137546260Y-97724914D01*
X137816158Y-97778600D01*
X138091342Y-97778600D01*
X138361240Y-97724914D01*
X138615477Y-97619605D01*
X138844285Y-97466720D01*
X138963840Y-97347165D01*
X139707790Y-97347165D01*
X139774770Y-97587256D01*
X140023798Y-97704356D01*
X140290885Y-97770623D01*
X140565767Y-97783510D01*
X140837883Y-97742522D01*
X141096773Y-97649236D01*
X141212730Y-97587256D01*
X141279710Y-97347165D01*
X140493750Y-96561205D01*
X139707790Y-97347165D01*
X138963840Y-97347165D01*
X139038870Y-97272135D01*
X139191755Y-97043327D01*
X139221442Y-96971657D01*
X139226114Y-96984623D01*
X139288094Y-97100580D01*
X139528185Y-97167560D01*
X140314145Y-96381600D01*
X139528185Y-95595640D01*
X139288094Y-95662620D01*
X139224265Y-95798360D01*
X139191755Y-95719873D01*
X139038870Y-95491065D01*
X138963840Y-95416035D01*
X139707790Y-95416035D01*
X140493750Y-96201995D01*
X141279710Y-95416035D01*
X141212730Y-95175944D01*
X140963702Y-95058844D01*
X140696615Y-94992577D01*
X140421733Y-94979690D01*
X140149617Y-95020678D01*
X139890727Y-95113964D01*
X139774770Y-95175944D01*
X139707790Y-95416035D01*
X138963840Y-95416035D01*
X138844285Y-95296480D01*
X138615477Y-95143595D01*
X138361240Y-95038286D01*
X138091342Y-94984600D01*
X137816158Y-94984600D01*
X137546260Y-95038286D01*
X137292023Y-95143595D01*
X137063215Y-95296480D01*
X136868630Y-95491065D01*
X136715745Y-95719873D01*
X136610436Y-95974110D01*
X136556750Y-96244008D01*
X134740250Y-96244008D01*
X134740250Y-87691749D01*
X134750998Y-87727180D01*
X134809963Y-87837494D01*
X134889315Y-87934185D01*
X134986006Y-88013537D01*
X135096320Y-88072502D01*
X135216018Y-88108812D01*
X135340500Y-88121072D01*
X137174946Y-88121072D01*
X137096411Y-88310673D01*
X137035500Y-88616891D01*
X137035500Y-88929109D01*
X137096411Y-89235327D01*
X137215891Y-89523779D01*
X137389350Y-89783379D01*
X137610121Y-90004150D01*
X137869721Y-90177609D01*
X138158173Y-90297089D01*
X138464391Y-90358000D01*
X138776609Y-90358000D01*
X139082827Y-90297089D01*
X139371279Y-90177609D01*
X139630879Y-90004150D01*
X139851650Y-89783379D01*
X140025109Y-89523779D01*
X140144589Y-89235327D01*
X140205500Y-88929109D01*
X140205500Y-88616891D01*
X140153891Y-88357435D01*
X140513256Y-88285953D01*
X140901802Y-88125012D01*
X141124248Y-87976378D01*
X141118683Y-87989814D01*
X141015500Y-88508551D01*
X141015500Y-89037449D01*
X141118683Y-89556186D01*
X141321083Y-90044825D01*
X141614924Y-90484588D01*
X141988912Y-90858576D01*
X142428675Y-91152417D01*
X142917314Y-91354817D01*
X143436051Y-91458000D01*
X143964949Y-91458000D01*
X144483686Y-91354817D01*
X144972325Y-91152417D01*
X145412088Y-90858576D01*
X145786076Y-90484588D01*
X146079917Y-90044825D01*
X146282317Y-89556186D01*
X146385500Y-89037449D01*
X146385500Y-88616891D01*
X147195500Y-88616891D01*
X147195500Y-88929109D01*
X147256411Y-89235327D01*
X147375891Y-89523779D01*
X147549350Y-89783379D01*
X147770121Y-90004150D01*
X148029721Y-90177609D01*
X148318173Y-90297089D01*
X148624391Y-90358000D01*
X148936609Y-90358000D01*
X149242827Y-90297089D01*
X149531279Y-90177609D01*
X149790879Y-90004150D01*
X150011650Y-89783379D01*
X150185109Y-89523779D01*
X150304589Y-89235327D01*
X150365500Y-88929109D01*
X150365500Y-88616891D01*
X150304589Y-88310673D01*
X150185109Y-88022221D01*
X150011650Y-87762621D01*
X149790879Y-87541850D01*
X149531279Y-87368391D01*
X149242827Y-87248911D01*
X148936609Y-87188000D01*
X148624391Y-87188000D01*
X148318173Y-87248911D01*
X148029721Y-87368391D01*
X147770121Y-87541850D01*
X147549350Y-87762621D01*
X147375891Y-88022221D01*
X147256411Y-88310673D01*
X147195500Y-88616891D01*
X146385500Y-88616891D01*
X146385500Y-88508551D01*
X146282317Y-87989814D01*
X146079917Y-87501175D01*
X145786076Y-87061412D01*
X145412088Y-86687424D01*
X144972325Y-86393583D01*
X144483686Y-86191183D01*
X143964949Y-86088000D01*
X143436051Y-86088000D01*
X142917314Y-86191183D01*
X142428675Y-86393583D01*
X141988912Y-86687424D01*
X141973963Y-86702373D01*
X142025500Y-86443279D01*
X142025500Y-86022721D01*
X141943453Y-85610244D01*
X141782512Y-85221698D01*
X141548863Y-84872017D01*
X141251483Y-84574637D01*
X140901802Y-84340988D01*
X140513256Y-84180047D01*
X140100779Y-84098000D01*
X139680221Y-84098000D01*
X139267744Y-84180047D01*
X138879198Y-84340988D01*
X138529517Y-84574637D01*
X138440060Y-84664094D01*
X138421037Y-84628506D01*
X138341685Y-84531815D01*
X138244994Y-84452463D01*
X138134680Y-84393498D01*
X138014982Y-84357188D01*
X137890500Y-84344928D01*
X137375500Y-84344928D01*
X137375500Y-82434182D01*
X137546260Y-82504914D01*
X137816158Y-82558600D01*
X138091342Y-82558600D01*
X138361240Y-82504914D01*
X138615477Y-82399605D01*
X138844285Y-82246720D01*
X139038870Y-82052135D01*
X139191755Y-81823327D01*
X139223750Y-81746085D01*
X139255745Y-81823327D01*
X139408630Y-82052135D01*
X139603215Y-82246720D01*
X139832023Y-82399605D01*
X140086260Y-82504914D01*
X140356158Y-82558600D01*
X140631342Y-82558600D01*
X140901240Y-82504914D01*
X141155477Y-82399605D01*
X141384285Y-82246720D01*
X141503840Y-82127165D01*
X142247790Y-82127165D01*
X142314770Y-82367256D01*
X142563798Y-82484356D01*
X142830885Y-82550623D01*
X143105767Y-82563510D01*
X143377883Y-82522522D01*
X143636773Y-82429236D01*
X143752730Y-82367256D01*
X143819710Y-82127165D01*
X143033750Y-81341205D01*
X142247790Y-82127165D01*
X141503840Y-82127165D01*
X141578870Y-82052135D01*
X141731755Y-81823327D01*
X141761442Y-81751657D01*
X141766114Y-81764623D01*
X141828094Y-81880580D01*
X142068185Y-81947560D01*
X142854145Y-81161600D01*
X142840003Y-81147458D01*
X143019608Y-80967853D01*
X143033750Y-80981995D01*
X143047893Y-80967853D01*
X143227498Y-81147458D01*
X143213355Y-81161600D01*
X143999315Y-81947560D01*
X144239406Y-81880580D01*
X144300829Y-81749956D01*
X144306114Y-81764623D01*
X144368094Y-81880580D01*
X144608185Y-81947560D01*
X145394145Y-81161600D01*
X145380003Y-81147458D01*
X145559608Y-80967853D01*
X145573750Y-80981995D01*
X145587893Y-80967853D01*
X145767498Y-81147458D01*
%TA.AperFunction,Conductor*%
D22*
G36*
X145767498Y-81147458D02*
G01*
X145753355Y-81161600D01*
X145767498Y-81175743D01*
X145587893Y-81355348D01*
X145573750Y-81341205D01*
X144881931Y-82033024D01*
X144879517Y-82034637D01*
X144582137Y-82332017D01*
X144348488Y-82681698D01*
X144187547Y-83070244D01*
X144105500Y-83482721D01*
X144105500Y-83903279D01*
X144187547Y-84315756D01*
X144348488Y-84704302D01*
X144582137Y-85053983D01*
X144879517Y-85351363D01*
X145229198Y-85585012D01*
X145617744Y-85745953D01*
X146030221Y-85828000D01*
X146450779Y-85828000D01*
X146863256Y-85745953D01*
X147251802Y-85585012D01*
X147601483Y-85351363D01*
X147708535Y-85244311D01*
X147736963Y-85297494D01*
X147816315Y-85394185D01*
X147913006Y-85473537D01*
X148023320Y-85532502D01*
X148143018Y-85568812D01*
X148267500Y-85581072D01*
X150817500Y-85581072D01*
X150941982Y-85568812D01*
X151061680Y-85532502D01*
X151135376Y-85493110D01*
X151160070Y-85552727D01*
X151317113Y-85787759D01*
X151516991Y-85987637D01*
X151543678Y-86005469D01*
X151543678Y-86006959D01*
X151477256Y-86042463D01*
X151380565Y-86121815D01*
X151301213Y-86218506D01*
X151242248Y-86328820D01*
X151205938Y-86448518D01*
X151193678Y-86573000D01*
X151193678Y-88173000D01*
X151205938Y-88297482D01*
X151242248Y-88417180D01*
X151301213Y-88527494D01*
X151380565Y-88624185D01*
X151477256Y-88703537D01*
X151587570Y-88762502D01*
X151622177Y-88773000D01*
X151587570Y-88783498D01*
X151477256Y-88842463D01*
X151380565Y-88921815D01*
X151301213Y-89018506D01*
X151242248Y-89128820D01*
X151205938Y-89248518D01*
X151193678Y-89373000D01*
X151193678Y-90973000D01*
X151205938Y-91097482D01*
X151242248Y-91217180D01*
X151301213Y-91327494D01*
X151302447Y-91328998D01*
X151277256Y-91342463D01*
X151180565Y-91421815D01*
X151101213Y-91518506D01*
X151042248Y-91628820D01*
X151005938Y-91748518D01*
X150993678Y-91873000D01*
X150993678Y-93473000D01*
X151005938Y-93597482D01*
X151042248Y-93717180D01*
X151101213Y-93827494D01*
X151180565Y-93924185D01*
X151277256Y-94003537D01*
X151387570Y-94062502D01*
X151507268Y-94098812D01*
X151631750Y-94111072D01*
X153231750Y-94111072D01*
X153356232Y-94098812D01*
X153475930Y-94062502D01*
X153586244Y-94003537D01*
X153682935Y-93924185D01*
X153762287Y-93827494D01*
X153821252Y-93717180D01*
X153857562Y-93597482D01*
X153869822Y-93473000D01*
X153869822Y-93433000D01*
X156790349Y-93433000D01*
X158341948Y-94984600D01*
X158136158Y-94984600D01*
X157866260Y-95038286D01*
X157612023Y-95143595D01*
X157383215Y-95296480D01*
X157188630Y-95491065D01*
X157035745Y-95719873D01*
X157003750Y-95797115D01*
X156971755Y-95719873D01*
X156818870Y-95491065D01*
X156624285Y-95296480D01*
X156395477Y-95143595D01*
X156141240Y-95038286D01*
X155871342Y-94984600D01*
X155596158Y-94984600D01*
X155326260Y-95038286D01*
X155072023Y-95143595D01*
X154843215Y-95296480D01*
X154648630Y-95491065D01*
X154495745Y-95719873D01*
X154463750Y-95797115D01*
X154431755Y-95719873D01*
X154278870Y-95491065D01*
X154084285Y-95296480D01*
X153855477Y-95143595D01*
X153601240Y-95038286D01*
X153331342Y-94984600D01*
X153056158Y-94984600D01*
X152786260Y-95038286D01*
X152532023Y-95143595D01*
X152303215Y-95296480D01*
X152108630Y-95491065D01*
X151955745Y-95719873D01*
X151923750Y-95797115D01*
X151891755Y-95719873D01*
X151738870Y-95491065D01*
X151544285Y-95296480D01*
X151315477Y-95143595D01*
X151061240Y-95038286D01*
X150791342Y-94984600D01*
X150516158Y-94984600D01*
X150246260Y-95038286D01*
X149992023Y-95143595D01*
X149763215Y-95296480D01*
X149568630Y-95491065D01*
X149415745Y-95719873D01*
X149383750Y-95797115D01*
X149351755Y-95719873D01*
X149198870Y-95491065D01*
X149004285Y-95296480D01*
X148775477Y-95143595D01*
X148521240Y-95038286D01*
X148251342Y-94984600D01*
X147976158Y-94984600D01*
X147706260Y-95038286D01*
X147452023Y-95143595D01*
X147223215Y-95296480D01*
X147028630Y-95491065D01*
X146875745Y-95719873D01*
X146843750Y-95797115D01*
X146811755Y-95719873D01*
X146658870Y-95491065D01*
X146464285Y-95296480D01*
X146235477Y-95143595D01*
X145981240Y-95038286D01*
X145711342Y-94984600D01*
X145436158Y-94984600D01*
X145166260Y-95038286D01*
X144912023Y-95143595D01*
X144683215Y-95296480D01*
X144488630Y-95491065D01*
X144335745Y-95719873D01*
X144303750Y-95797115D01*
X144271755Y-95719873D01*
X144118870Y-95491065D01*
X143924285Y-95296480D01*
X143695477Y-95143595D01*
X143441240Y-95038286D01*
X143171342Y-94984600D01*
X142896158Y-94984600D01*
X142626260Y-95038286D01*
X142372023Y-95143595D01*
X142143215Y-95296480D01*
X141948630Y-95491065D01*
X141795745Y-95719873D01*
X141766058Y-95791543D01*
X141761386Y-95778577D01*
X141699406Y-95662620D01*
X141459315Y-95595640D01*
X140673355Y-96381600D01*
X141459315Y-97167560D01*
X141699406Y-97100580D01*
X141763235Y-96964840D01*
X141795745Y-97043327D01*
X141948630Y-97272135D01*
X142143215Y-97466720D01*
X142372023Y-97619605D01*
X142626260Y-97724914D01*
X142896158Y-97778600D01*
X143171342Y-97778600D01*
X143325320Y-97747972D01*
X143798850Y-98221502D01*
X143822648Y-98250500D01*
X143851646Y-98274298D01*
X143938372Y-98345473D01*
X144019090Y-98388618D01*
X144070402Y-98416045D01*
X144122175Y-98431750D01*
X134906279Y-98431750D01*
X134848636Y-98426098D01*
X134824240Y-98418732D01*
X134801734Y-98406766D01*
X134781986Y-98390659D01*
X134765741Y-98371023D01*
X134753617Y-98348599D01*
X134746082Y-98324258D01*
X134740250Y-98268775D01*
X134740250Y-96244008D01*
X136556750Y-96244008D01*
X136556750Y-96519192D01*
X136610436Y-96789090D01*
X136715745Y-97043327D01*
X136868630Y-97272135D01*
X137063215Y-97466720D01*
X137292023Y-97619605D01*
X137546260Y-97724914D01*
X137816158Y-97778600D01*
X138091342Y-97778600D01*
X138361240Y-97724914D01*
X138615477Y-97619605D01*
X138844285Y-97466720D01*
X138963840Y-97347165D01*
X139707790Y-97347165D01*
X139774770Y-97587256D01*
X140023798Y-97704356D01*
X140290885Y-97770623D01*
X140565767Y-97783510D01*
X140837883Y-97742522D01*
X141096773Y-97649236D01*
X141212730Y-97587256D01*
X141279710Y-97347165D01*
X140493750Y-96561205D01*
X139707790Y-97347165D01*
X138963840Y-97347165D01*
X139038870Y-97272135D01*
X139191755Y-97043327D01*
X139221442Y-96971657D01*
X139226114Y-96984623D01*
X139288094Y-97100580D01*
X139528185Y-97167560D01*
X140314145Y-96381600D01*
X139528185Y-95595640D01*
X139288094Y-95662620D01*
X139224265Y-95798360D01*
X139191755Y-95719873D01*
X139038870Y-95491065D01*
X138963840Y-95416035D01*
X139707790Y-95416035D01*
X140493750Y-96201995D01*
X141279710Y-95416035D01*
X141212730Y-95175944D01*
X140963702Y-95058844D01*
X140696615Y-94992577D01*
X140421733Y-94979690D01*
X140149617Y-95020678D01*
X139890727Y-95113964D01*
X139774770Y-95175944D01*
X139707790Y-95416035D01*
X138963840Y-95416035D01*
X138844285Y-95296480D01*
X138615477Y-95143595D01*
X138361240Y-95038286D01*
X138091342Y-94984600D01*
X137816158Y-94984600D01*
X137546260Y-95038286D01*
X137292023Y-95143595D01*
X137063215Y-95296480D01*
X136868630Y-95491065D01*
X136715745Y-95719873D01*
X136610436Y-95974110D01*
X136556750Y-96244008D01*
X134740250Y-96244008D01*
X134740250Y-87691749D01*
X134750998Y-87727180D01*
X134809963Y-87837494D01*
X134889315Y-87934185D01*
X134986006Y-88013537D01*
X135096320Y-88072502D01*
X135216018Y-88108812D01*
X135340500Y-88121072D01*
X137174946Y-88121072D01*
X137096411Y-88310673D01*
X137035500Y-88616891D01*
X137035500Y-88929109D01*
X137096411Y-89235327D01*
X137215891Y-89523779D01*
X137389350Y-89783379D01*
X137610121Y-90004150D01*
X137869721Y-90177609D01*
X138158173Y-90297089D01*
X138464391Y-90358000D01*
X138776609Y-90358000D01*
X139082827Y-90297089D01*
X139371279Y-90177609D01*
X139630879Y-90004150D01*
X139851650Y-89783379D01*
X140025109Y-89523779D01*
X140144589Y-89235327D01*
X140205500Y-88929109D01*
X140205500Y-88616891D01*
X140153891Y-88357435D01*
X140513256Y-88285953D01*
X140901802Y-88125012D01*
X141124248Y-87976378D01*
X141118683Y-87989814D01*
X141015500Y-88508551D01*
X141015500Y-89037449D01*
X141118683Y-89556186D01*
X141321083Y-90044825D01*
X141614924Y-90484588D01*
X141988912Y-90858576D01*
X142428675Y-91152417D01*
X142917314Y-91354817D01*
X143436051Y-91458000D01*
X143964949Y-91458000D01*
X144483686Y-91354817D01*
X144972325Y-91152417D01*
X145412088Y-90858576D01*
X145786076Y-90484588D01*
X146079917Y-90044825D01*
X146282317Y-89556186D01*
X146385500Y-89037449D01*
X146385500Y-88616891D01*
X147195500Y-88616891D01*
X147195500Y-88929109D01*
X147256411Y-89235327D01*
X147375891Y-89523779D01*
X147549350Y-89783379D01*
X147770121Y-90004150D01*
X148029721Y-90177609D01*
X148318173Y-90297089D01*
X148624391Y-90358000D01*
X148936609Y-90358000D01*
X149242827Y-90297089D01*
X149531279Y-90177609D01*
X149790879Y-90004150D01*
X150011650Y-89783379D01*
X150185109Y-89523779D01*
X150304589Y-89235327D01*
X150365500Y-88929109D01*
X150365500Y-88616891D01*
X150304589Y-88310673D01*
X150185109Y-88022221D01*
X150011650Y-87762621D01*
X149790879Y-87541850D01*
X149531279Y-87368391D01*
X149242827Y-87248911D01*
X148936609Y-87188000D01*
X148624391Y-87188000D01*
X148318173Y-87248911D01*
X148029721Y-87368391D01*
X147770121Y-87541850D01*
X147549350Y-87762621D01*
X147375891Y-88022221D01*
X147256411Y-88310673D01*
X147195500Y-88616891D01*
X146385500Y-88616891D01*
X146385500Y-88508551D01*
X146282317Y-87989814D01*
X146079917Y-87501175D01*
X145786076Y-87061412D01*
X145412088Y-86687424D01*
X144972325Y-86393583D01*
X144483686Y-86191183D01*
X143964949Y-86088000D01*
X143436051Y-86088000D01*
X142917314Y-86191183D01*
X142428675Y-86393583D01*
X141988912Y-86687424D01*
X141973963Y-86702373D01*
X142025500Y-86443279D01*
X142025500Y-86022721D01*
X141943453Y-85610244D01*
X141782512Y-85221698D01*
X141548863Y-84872017D01*
X141251483Y-84574637D01*
X140901802Y-84340988D01*
X140513256Y-84180047D01*
X140100779Y-84098000D01*
X139680221Y-84098000D01*
X139267744Y-84180047D01*
X138879198Y-84340988D01*
X138529517Y-84574637D01*
X138440060Y-84664094D01*
X138421037Y-84628506D01*
X138341685Y-84531815D01*
X138244994Y-84452463D01*
X138134680Y-84393498D01*
X138014982Y-84357188D01*
X137890500Y-84344928D01*
X137375500Y-84344928D01*
X137375500Y-82434182D01*
X137546260Y-82504914D01*
X137816158Y-82558600D01*
X138091342Y-82558600D01*
X138361240Y-82504914D01*
X138615477Y-82399605D01*
X138844285Y-82246720D01*
X139038870Y-82052135D01*
X139191755Y-81823327D01*
X139223750Y-81746085D01*
X139255745Y-81823327D01*
X139408630Y-82052135D01*
X139603215Y-82246720D01*
X139832023Y-82399605D01*
X140086260Y-82504914D01*
X140356158Y-82558600D01*
X140631342Y-82558600D01*
X140901240Y-82504914D01*
X141155477Y-82399605D01*
X141384285Y-82246720D01*
X141503840Y-82127165D01*
X142247790Y-82127165D01*
X142314770Y-82367256D01*
X142563798Y-82484356D01*
X142830885Y-82550623D01*
X143105767Y-82563510D01*
X143377883Y-82522522D01*
X143636773Y-82429236D01*
X143752730Y-82367256D01*
X143819710Y-82127165D01*
X143033750Y-81341205D01*
X142247790Y-82127165D01*
X141503840Y-82127165D01*
X141578870Y-82052135D01*
X141731755Y-81823327D01*
X141761442Y-81751657D01*
X141766114Y-81764623D01*
X141828094Y-81880580D01*
X142068185Y-81947560D01*
X142854145Y-81161600D01*
X142840003Y-81147458D01*
X143019608Y-80967853D01*
X143033750Y-80981995D01*
X143047893Y-80967853D01*
X143227498Y-81147458D01*
X143213355Y-81161600D01*
X143999315Y-81947560D01*
X144239406Y-81880580D01*
X144300829Y-81749956D01*
X144306114Y-81764623D01*
X144368094Y-81880580D01*
X144608185Y-81947560D01*
X145394145Y-81161600D01*
X145380003Y-81147458D01*
X145559608Y-80967853D01*
X145573750Y-80981995D01*
X145587893Y-80967853D01*
X145767498Y-81147458D01*
G37*
%TD.AperFunction*%
%TD*%
M02*
