%TF.GenerationSoftware,KiCad,Pcbnew,(5.99.0-12610-g07e01e6297)*%
%TF.CreationDate,2021-11-08T11:22:45+00:00*%
%TF.ProjectId,piccolo-mini,70696363-6f6c-46f2-9d6d-696e692e6b69,rev?*%
%TF.SameCoordinates,Original*%
%TF.FileFunction,Copper,L1,Top*%
%TF.FilePolarity,Positive*%
%FSLAX46Y46*%
G04 Gerber Fmt 4.6, Leading zero omitted, Abs format (unit mm)*
G04 Created by KiCad (PCBNEW (5.99.0-12610-g07e01e6297)) date 2021-11-08 11:22:45*
%MOMM*%
%LPD*%
G01*
G04 APERTURE LIST*
%TA.AperFunction,ComponentPad*%
%ADD10R,1.600000X1.600000*%
%TD*%
%TA.AperFunction,ComponentPad*%
%ADD11C,1.600000*%
%TD*%
%TA.AperFunction,ComponentPad*%
%ADD12R,2.000000X2.000000*%
%TD*%
%TA.AperFunction,ComponentPad*%
%ADD13C,2.000000*%
%TD*%
%TA.AperFunction,ComponentPad*%
%ADD14C,1.524000*%
%TD*%
%TA.AperFunction,ViaPad*%
%ADD15C,0.800000*%
%TD*%
%TA.AperFunction,Conductor*%
%ADD16C,0.250000*%
%TD*%
%TA.AperFunction,Conductor*%
%ADD17C,0.380000*%
%TD*%
G04 APERTURE END LIST*
D10*
%TO.P,D1,1,K*%
%TO.N,row0*%
X152150500Y-92273000D03*
D11*
%TO.P,D1,2,A*%
%TO.N,Net-(D1-Pad2)*%
X152150500Y-84473000D03*
%TD*%
D10*
%TO.P,D2,1,K*%
%TO.N,row0*%
X171000500Y-94213000D03*
D11*
%TO.P,D2,2,A*%
%TO.N,Net-(D2-Pad2)*%
X171000500Y-86413000D03*
%TD*%
D10*
%TO.P,D3,1,K*%
%TO.N,row0*%
X190200500Y-90273000D03*
D11*
%TO.P,D3,2,A*%
%TO.N,Net-(D3-Pad2)*%
X190200500Y-82473000D03*
%TD*%
D10*
%TO.P,D4,1,K*%
%TO.N,row1*%
X209300500Y-93373000D03*
D11*
%TO.P,D4,2,A*%
%TO.N,Net-(D4-Pad2)*%
X209300500Y-85573000D03*
%TD*%
D10*
%TO.P,D5,1,K*%
%TO.N,row1*%
X211700500Y-96673000D03*
D11*
%TO.P,D5,2,A*%
%TO.N,Net-(D5-Pad2)*%
X211700500Y-88873000D03*
%TD*%
D12*
%TO.P,ENC1,A,A*%
%TO.N,EncoderA*%
X217400500Y-96273000D03*
D13*
%TO.P,ENC1,B,B*%
%TO.N,EncoderB*%
X222400500Y-96273000D03*
%TO.P,ENC1,C,C*%
%TO.N,GND*%
X219900500Y-96273000D03*
%TO.P,ENC1,S1,S1*%
%TO.N,Net-(D5-Pad2)*%
X222400500Y-81773000D03*
%TO.P,ENC1,S2,S2*%
%TO.N,col1*%
X217400500Y-81773000D03*
%TD*%
D14*
%TO.P,U1,1,TX0/PD3*%
%TO.N,unconnected-(U1-Pad1)*%
X137197500Y-80644100D03*
%TO.P,U1,2,RX1/PD2*%
%TO.N,unconnected-(U1-Pad2)*%
X139737500Y-80644100D03*
%TO.P,U1,3,GND*%
%TO.N,GND*%
X142277500Y-80644100D03*
%TO.P,U1,4,GND*%
X144817500Y-80644100D03*
%TO.P,U1,5,2/PD1*%
%TO.N,unconnected-(U1-Pad5)*%
X147357500Y-80644100D03*
%TO.P,U1,6,3/PD0*%
%TO.N,unconnected-(U1-Pad6)*%
X149897500Y-80644100D03*
%TO.P,U1,7,4/PD4*%
%TO.N,unconnected-(U1-Pad7)*%
X152437500Y-80644100D03*
%TO.P,U1,8,5/PC6*%
%TO.N,col0*%
X154977500Y-80644100D03*
%TO.P,U1,9,6/PD7*%
%TO.N,col1*%
X157517500Y-80644100D03*
%TO.P,U1,10,7/PE6*%
%TO.N,col2*%
X160057500Y-80644100D03*
%TO.P,U1,11,8/PB4*%
%TO.N,unconnected-(U1-Pad11)*%
X162597500Y-80644100D03*
%TO.P,U1,12,9/PB5*%
%TO.N,row1*%
X165137500Y-80644100D03*
%TO.P,U1,13,10/PB6*%
%TO.N,EncoderA*%
X165137500Y-95864100D03*
%TO.P,U1,14,16/PB2*%
%TO.N,EncoderB*%
X162597500Y-95864100D03*
%TO.P,U1,15,14/PB3*%
%TO.N,row0*%
X160057500Y-95864100D03*
%TO.P,U1,16,15/PB1*%
%TO.N,unconnected-(U1-Pad16)*%
X157517500Y-95864100D03*
%TO.P,U1,17,A0/PF7*%
%TO.N,unconnected-(U1-Pad17)*%
X154977500Y-95864100D03*
%TO.P,U1,18,A1/PF6*%
%TO.N,unconnected-(U1-Pad18)*%
X152437500Y-95864100D03*
%TO.P,U1,19,A2/PF5*%
%TO.N,unconnected-(U1-Pad19)*%
X149897500Y-95864100D03*
%TO.P,U1,20,A3/PF4*%
%TO.N,unconnected-(U1-Pad20)*%
X147357500Y-95864100D03*
%TO.P,U1,21,VCC*%
%TO.N,VCC*%
X144817500Y-95864100D03*
%TO.P,U1,22,RST*%
%TO.N,Reset*%
X142277500Y-95864100D03*
%TO.P,U1,23,GND*%
%TO.N,GND*%
X139737500Y-95864100D03*
%TO.P,U1,24,RAW*%
%TO.N,unconnected-(U1-Pad24)*%
X137197500Y-95864100D03*
%TD*%
D13*
%TO.P,RESET1,1,1*%
%TO.N,Reset*%
X178550500Y-96710500D03*
%TO.P,RESET1,2,2*%
%TO.N,GND*%
X185050500Y-96710500D03*
%TD*%
D15*
%TO.N,col2*%
X173770500Y-88843000D03*
%TO.N,GND*%
X158940500Y-90753000D03*
%TO.N,row1*%
X168350500Y-81433000D03*
%TO.N,GND*%
X216570500Y-90313000D03*
%TD*%
D16*
%TO.N,EncoderB*%
X166088600Y-92373000D02*
X162585000Y-95876600D01*
X195964782Y-92373000D02*
X166088600Y-92373000D01*
X197414303Y-93822520D02*
X195964782Y-92373000D01*
X207240020Y-93822520D02*
X197414303Y-93822520D01*
X215580500Y-94833000D02*
X208250500Y-94833000D01*
X215740500Y-94673000D02*
X215580500Y-94833000D01*
X220800500Y-94673000D02*
X215740500Y-94673000D01*
X222400500Y-96273000D02*
X220800500Y-94673000D01*
X208250500Y-94833000D02*
X207240020Y-93822520D01*
%TO.N,row1*%
X190360500Y-86133000D02*
X197600500Y-93373000D01*
X178640500Y-83873000D02*
X180900500Y-86133000D01*
X171130500Y-83873000D02*
X178640500Y-83873000D01*
X180900500Y-86133000D02*
X190360500Y-86133000D01*
X168690500Y-81433000D02*
X171130500Y-83873000D01*
X197600500Y-93373000D02*
X209300500Y-93373000D01*
X168350500Y-81433000D02*
X168690500Y-81433000D01*
%TO.N,col2*%
X160057500Y-84330000D02*
X160057500Y-80644100D01*
X162709171Y-86153000D02*
X161880500Y-86153000D01*
X172300500Y-90313000D02*
X166570500Y-90313000D01*
X173770500Y-88843000D02*
X172300500Y-90313000D01*
X166570500Y-90313000D02*
X165350500Y-89093000D01*
X161880500Y-86153000D02*
X160057500Y-84330000D01*
X162709171Y-86153000D02*
G75*
G02*
X164657542Y-86960042I2J-2755407D01*
G01*
X165350500Y-89093000D02*
X165350500Y-88632910D01*
X164657542Y-86960042D02*
G75*
G02*
X165350500Y-88632910I-1672757J-1672869D01*
G01*
D17*
%TO.N,GND*%
X137070500Y-93197100D02*
X139737500Y-95864100D01*
X137070500Y-85851100D02*
X137070500Y-93197100D01*
X142277500Y-80644100D02*
X137070500Y-85851100D01*
X142246400Y-98373000D02*
X139725000Y-95851600D01*
X139725000Y-95851600D02*
X139750000Y-95851600D01*
X183388000Y-98373000D02*
X142246400Y-98373000D01*
X185050500Y-96710500D02*
X183388000Y-98373000D01*
D16*
%TO.N,col1*%
X159088600Y-79073000D02*
X157505000Y-80656600D01*
X214700500Y-79073000D02*
X159088600Y-79073000D01*
X217400530Y-81773030D02*
X214700500Y-79073000D01*
D17*
%TO.N,GND*%
X219900500Y-96837500D02*
X219900500Y-96273000D01*
X185050500Y-96710500D02*
X186713000Y-98373000D01*
X218365000Y-98373000D02*
X219900500Y-96837500D01*
X186713000Y-98373000D02*
X218365000Y-98373000D01*
X142277500Y-80644100D02*
X144817500Y-80644100D01*
%TD*%
%TA.AperFunction,Conductor*%
%TO.N,GND*%
G36*
X158067376Y-78982252D02*
G01*
X158113869Y-79035908D01*
X158123973Y-79106182D01*
X158094479Y-79170762D01*
X158088356Y-79177339D01*
X157899720Y-79365975D01*
X157837408Y-79400000D01*
X157778012Y-79398585D01*
X157744280Y-79389546D01*
X157744272Y-79389545D01*
X157738963Y-79388122D01*
X157517500Y-79368747D01*
X157296037Y-79388122D01*
X157186719Y-79417414D01*
X157086614Y-79444237D01*
X157086612Y-79444238D01*
X157081304Y-79445660D01*
X157076323Y-79447982D01*
X157076322Y-79447983D01*
X156884811Y-79537286D01*
X156884806Y-79537289D01*
X156879824Y-79539612D01*
X156875317Y-79542768D01*
X156875315Y-79542769D01*
X156702230Y-79663964D01*
X156702227Y-79663966D01*
X156697719Y-79667123D01*
X156540523Y-79824319D01*
X156537366Y-79828827D01*
X156537364Y-79828830D01*
X156441979Y-79965055D01*
X156413012Y-80006424D01*
X156410689Y-80011406D01*
X156410686Y-80011411D01*
X156361695Y-80116473D01*
X156314777Y-80169758D01*
X156246500Y-80189219D01*
X156178540Y-80168677D01*
X156133305Y-80116473D01*
X156084314Y-80011411D01*
X156084311Y-80011406D01*
X156081988Y-80006424D01*
X156053021Y-79965055D01*
X155957636Y-79828830D01*
X155957634Y-79828827D01*
X155954477Y-79824319D01*
X155797281Y-79667123D01*
X155792773Y-79663966D01*
X155792770Y-79663964D01*
X155717005Y-79610913D01*
X155615177Y-79539612D01*
X155610195Y-79537289D01*
X155610190Y-79537286D01*
X155418678Y-79447983D01*
X155418677Y-79447982D01*
X155413696Y-79445660D01*
X155408388Y-79444238D01*
X155408386Y-79444237D01*
X155308281Y-79417414D01*
X155198963Y-79388122D01*
X154977500Y-79368747D01*
X154756037Y-79388122D01*
X154646719Y-79417414D01*
X154546614Y-79444237D01*
X154546612Y-79444238D01*
X154541304Y-79445660D01*
X154536323Y-79447982D01*
X154536322Y-79447983D01*
X154344811Y-79537286D01*
X154344806Y-79537289D01*
X154339824Y-79539612D01*
X154335317Y-79542768D01*
X154335315Y-79542769D01*
X154162230Y-79663964D01*
X154162227Y-79663966D01*
X154157719Y-79667123D01*
X154000523Y-79824319D01*
X153997366Y-79828827D01*
X153997364Y-79828830D01*
X153901979Y-79965055D01*
X153873012Y-80006424D01*
X153870689Y-80011406D01*
X153870686Y-80011411D01*
X153821695Y-80116473D01*
X153774777Y-80169758D01*
X153706500Y-80189219D01*
X153638540Y-80168677D01*
X153593305Y-80116473D01*
X153544314Y-80011411D01*
X153544311Y-80011406D01*
X153541988Y-80006424D01*
X153513021Y-79965055D01*
X153417636Y-79828830D01*
X153417634Y-79828827D01*
X153414477Y-79824319D01*
X153257281Y-79667123D01*
X153252773Y-79663966D01*
X153252770Y-79663964D01*
X153177005Y-79610913D01*
X153075177Y-79539612D01*
X153070195Y-79537289D01*
X153070190Y-79537286D01*
X152878678Y-79447983D01*
X152878677Y-79447982D01*
X152873696Y-79445660D01*
X152868388Y-79444238D01*
X152868386Y-79444237D01*
X152768281Y-79417414D01*
X152658963Y-79388122D01*
X152437500Y-79368747D01*
X152216037Y-79388122D01*
X152106719Y-79417414D01*
X152006614Y-79444237D01*
X152006612Y-79444238D01*
X152001304Y-79445660D01*
X151996323Y-79447982D01*
X151996322Y-79447983D01*
X151804811Y-79537286D01*
X151804806Y-79537289D01*
X151799824Y-79539612D01*
X151795317Y-79542768D01*
X151795315Y-79542769D01*
X151622230Y-79663964D01*
X151622227Y-79663966D01*
X151617719Y-79667123D01*
X151460523Y-79824319D01*
X151457366Y-79828827D01*
X151457364Y-79828830D01*
X151361979Y-79965055D01*
X151333012Y-80006424D01*
X151330689Y-80011406D01*
X151330686Y-80011411D01*
X151281695Y-80116473D01*
X151234777Y-80169758D01*
X151166500Y-80189219D01*
X151098540Y-80168677D01*
X151053305Y-80116473D01*
X151004314Y-80011411D01*
X151004311Y-80011406D01*
X151001988Y-80006424D01*
X150973021Y-79965055D01*
X150877636Y-79828830D01*
X150877634Y-79828827D01*
X150874477Y-79824319D01*
X150717281Y-79667123D01*
X150712773Y-79663966D01*
X150712770Y-79663964D01*
X150637005Y-79610913D01*
X150535177Y-79539612D01*
X150530195Y-79537289D01*
X150530190Y-79537286D01*
X150338678Y-79447983D01*
X150338677Y-79447982D01*
X150333696Y-79445660D01*
X150328388Y-79444238D01*
X150328386Y-79444237D01*
X150228281Y-79417414D01*
X150118963Y-79388122D01*
X149897500Y-79368747D01*
X149676037Y-79388122D01*
X149566719Y-79417414D01*
X149466614Y-79444237D01*
X149466612Y-79444238D01*
X149461304Y-79445660D01*
X149456323Y-79447982D01*
X149456322Y-79447983D01*
X149264811Y-79537286D01*
X149264806Y-79537289D01*
X149259824Y-79539612D01*
X149255317Y-79542768D01*
X149255315Y-79542769D01*
X149082230Y-79663964D01*
X149082227Y-79663966D01*
X149077719Y-79667123D01*
X148920523Y-79824319D01*
X148917366Y-79828827D01*
X148917364Y-79828830D01*
X148821979Y-79965055D01*
X148793012Y-80006424D01*
X148790689Y-80011406D01*
X148790686Y-80011411D01*
X148741695Y-80116473D01*
X148694777Y-80169758D01*
X148626500Y-80189219D01*
X148558540Y-80168677D01*
X148513305Y-80116473D01*
X148464314Y-80011411D01*
X148464311Y-80011406D01*
X148461988Y-80006424D01*
X148433021Y-79965055D01*
X148337636Y-79828830D01*
X148337634Y-79828827D01*
X148334477Y-79824319D01*
X148177281Y-79667123D01*
X148172773Y-79663966D01*
X148172770Y-79663964D01*
X148097005Y-79610913D01*
X147995177Y-79539612D01*
X147990195Y-79537289D01*
X147990190Y-79537286D01*
X147798678Y-79447983D01*
X147798677Y-79447982D01*
X147793696Y-79445660D01*
X147788388Y-79444238D01*
X147788386Y-79444237D01*
X147688281Y-79417414D01*
X147578963Y-79388122D01*
X147357500Y-79368747D01*
X147136037Y-79388122D01*
X147026719Y-79417414D01*
X146926614Y-79444237D01*
X146926612Y-79444238D01*
X146921304Y-79445660D01*
X146916323Y-79447982D01*
X146916322Y-79447983D01*
X146724811Y-79537286D01*
X146724806Y-79537289D01*
X146719824Y-79539612D01*
X146715317Y-79542768D01*
X146715315Y-79542769D01*
X146542230Y-79663964D01*
X146542227Y-79663966D01*
X146537719Y-79667123D01*
X146380523Y-79824319D01*
X146377366Y-79828827D01*
X146377364Y-79828830D01*
X146281979Y-79965055D01*
X146253012Y-80006424D01*
X146250689Y-80011406D01*
X146250686Y-80011411D01*
X146201419Y-80117065D01*
X146154501Y-80170350D01*
X146086224Y-80189811D01*
X146018264Y-80169269D01*
X145973029Y-80117065D01*
X145923877Y-80011659D01*
X145918397Y-80002168D01*
X145887706Y-79958335D01*
X145877229Y-79949960D01*
X145863782Y-79957028D01*
X145189522Y-80631288D01*
X145181908Y-80645232D01*
X145182039Y-80647065D01*
X145186290Y-80653680D01*
X145864503Y-81331893D01*
X145876277Y-81338323D01*
X145888293Y-81329026D01*
X145918397Y-81286032D01*
X145923877Y-81276541D01*
X145973029Y-81171135D01*
X146019947Y-81117850D01*
X146088224Y-81098389D01*
X146156184Y-81118931D01*
X146201419Y-81171135D01*
X146250686Y-81276789D01*
X146250689Y-81276794D01*
X146253012Y-81281776D01*
X146256168Y-81286283D01*
X146256169Y-81286285D01*
X146363497Y-81439565D01*
X146380523Y-81463881D01*
X146386284Y-81469642D01*
X146386843Y-81470665D01*
X146387947Y-81471981D01*
X146387682Y-81472203D01*
X146420310Y-81531954D01*
X146415245Y-81602769D01*
X146372698Y-81659605D01*
X146306178Y-81684416D01*
X146296538Y-81684735D01*
X146216729Y-81684317D01*
X146118377Y-81683802D01*
X146118371Y-81683802D01*
X146114091Y-81683780D01*
X146109847Y-81684339D01*
X146109843Y-81684339D01*
X145990802Y-81700011D01*
X145842578Y-81719525D01*
X145838438Y-81720658D01*
X145838436Y-81720658D01*
X145658125Y-81769985D01*
X145587140Y-81768667D01*
X145528137Y-81729181D01*
X145513345Y-81707074D01*
X145504571Y-81690381D01*
X144830312Y-81016122D01*
X144816368Y-81008508D01*
X144814535Y-81008639D01*
X144807920Y-81012890D01*
X144129707Y-81691103D01*
X144123277Y-81702877D01*
X144132574Y-81714893D01*
X144175569Y-81744998D01*
X144185055Y-81750476D01*
X144376493Y-81839745D01*
X144386785Y-81843491D01*
X144590809Y-81898159D01*
X144601604Y-81900062D01*
X144812025Y-81918472D01*
X144822986Y-81918472D01*
X144880132Y-81913472D01*
X144949736Y-81927460D01*
X145000729Y-81976859D01*
X145016920Y-82045985D01*
X144993168Y-82112890D01*
X144969895Y-82137326D01*
X144926984Y-82171705D01*
X144877818Y-82211094D01*
X144689308Y-82409742D01*
X144529502Y-82632136D01*
X144401357Y-82874161D01*
X144399885Y-82878184D01*
X144399883Y-82878188D01*
X144309649Y-83124762D01*
X144307243Y-83131337D01*
X144248904Y-83398907D01*
X144227417Y-83671918D01*
X144243182Y-83945320D01*
X144244007Y-83949525D01*
X144244008Y-83949533D01*
X144267171Y-84067595D01*
X144295905Y-84214053D01*
X144297292Y-84218103D01*
X144297293Y-84218108D01*
X144377080Y-84451145D01*
X144384612Y-84473144D01*
X144403387Y-84510474D01*
X144496499Y-84695607D01*
X144507660Y-84717799D01*
X144510086Y-84721328D01*
X144510089Y-84721334D01*
X144648171Y-84922243D01*
X144662774Y-84943490D01*
X144665661Y-84946663D01*
X144665662Y-84946664D01*
X144704165Y-84988978D01*
X144847082Y-85146043D01*
X145057175Y-85321707D01*
X145060816Y-85323991D01*
X145285524Y-85464951D01*
X145285528Y-85464953D01*
X145289164Y-85467234D01*
X145384976Y-85510495D01*
X145534845Y-85578164D01*
X145534849Y-85578166D01*
X145538757Y-85579930D01*
X145566818Y-85588242D01*
X145797223Y-85656491D01*
X145797227Y-85656492D01*
X145801336Y-85657709D01*
X145805570Y-85658357D01*
X145805575Y-85658358D01*
X146067798Y-85698483D01*
X146067800Y-85698483D01*
X146072040Y-85699132D01*
X146211412Y-85701322D01*
X146341571Y-85703367D01*
X146341577Y-85703367D01*
X146345862Y-85703434D01*
X146617735Y-85670534D01*
X146882627Y-85601041D01*
X146886587Y-85599401D01*
X146886592Y-85599399D01*
X147085698Y-85516926D01*
X147135636Y-85496241D01*
X147276099Y-85414161D01*
X147368379Y-85360237D01*
X147368380Y-85360236D01*
X147372082Y-85358073D01*
X147587589Y-85189094D01*
X147604023Y-85172136D01*
X147775186Y-84995509D01*
X147778169Y-84992431D01*
X147780702Y-84988983D01*
X147780706Y-84988978D01*
X147937757Y-84775178D01*
X147940295Y-84771723D01*
X147952949Y-84748417D01*
X148068918Y-84534830D01*
X148068919Y-84534828D01*
X148070968Y-84531054D01*
X148092905Y-84473000D01*
X150837002Y-84473000D01*
X150856957Y-84701087D01*
X150858381Y-84706400D01*
X150858381Y-84706402D01*
X150913403Y-84911743D01*
X150916216Y-84922243D01*
X150918539Y-84927224D01*
X150918539Y-84927225D01*
X151010651Y-85124762D01*
X151010654Y-85124767D01*
X151012977Y-85129749D01*
X151086402Y-85234611D01*
X151117228Y-85278634D01*
X151144302Y-85317300D01*
X151306200Y-85479198D01*
X151310708Y-85482355D01*
X151310711Y-85482357D01*
X151368708Y-85522967D01*
X151493751Y-85610523D01*
X151498733Y-85612846D01*
X151498738Y-85612849D01*
X151696275Y-85704961D01*
X151701257Y-85707284D01*
X151706565Y-85708706D01*
X151706567Y-85708707D01*
X151917098Y-85765119D01*
X151917100Y-85765119D01*
X151922413Y-85766543D01*
X152150500Y-85786498D01*
X152378587Y-85766543D01*
X152383900Y-85765119D01*
X152383902Y-85765119D01*
X152594433Y-85708707D01*
X152594435Y-85708706D01*
X152599743Y-85707284D01*
X152604725Y-85704961D01*
X152802262Y-85612849D01*
X152802267Y-85612846D01*
X152807249Y-85610523D01*
X152932292Y-85522967D01*
X152990289Y-85482357D01*
X152990292Y-85482355D01*
X152994800Y-85479198D01*
X153156698Y-85317300D01*
X153183773Y-85278634D01*
X153214598Y-85234611D01*
X153288023Y-85129749D01*
X153290346Y-85124767D01*
X153290349Y-85124762D01*
X153382461Y-84927225D01*
X153382461Y-84927224D01*
X153384784Y-84922243D01*
X153387598Y-84911743D01*
X153442619Y-84706402D01*
X153442619Y-84706400D01*
X153444043Y-84701087D01*
X153463998Y-84473000D01*
X153444043Y-84244913D01*
X153442619Y-84239598D01*
X153386207Y-84029067D01*
X153386206Y-84029065D01*
X153384784Y-84023757D01*
X153382461Y-84018775D01*
X153290349Y-83821238D01*
X153290346Y-83821233D01*
X153288023Y-83816251D01*
X153203461Y-83695484D01*
X153159857Y-83633211D01*
X153159855Y-83633208D01*
X153156698Y-83628700D01*
X152994800Y-83466802D01*
X152990292Y-83463645D01*
X152990289Y-83463643D01*
X152891388Y-83394392D01*
X152807249Y-83335477D01*
X152802267Y-83333154D01*
X152802262Y-83333151D01*
X152604725Y-83241039D01*
X152604724Y-83241039D01*
X152599743Y-83238716D01*
X152594435Y-83237294D01*
X152594433Y-83237293D01*
X152383902Y-83180881D01*
X152383900Y-83180881D01*
X152378587Y-83179457D01*
X152150500Y-83159502D01*
X151922413Y-83179457D01*
X151917100Y-83180881D01*
X151917098Y-83180881D01*
X151706567Y-83237293D01*
X151706565Y-83237294D01*
X151701257Y-83238716D01*
X151696276Y-83241039D01*
X151696275Y-83241039D01*
X151498738Y-83333151D01*
X151498733Y-83333154D01*
X151493751Y-83335477D01*
X151409612Y-83394392D01*
X151310711Y-83463643D01*
X151310708Y-83463645D01*
X151306200Y-83466802D01*
X151144302Y-83628700D01*
X151141145Y-83633208D01*
X151141143Y-83633211D01*
X151097539Y-83695484D01*
X151012977Y-83816251D01*
X151010654Y-83821233D01*
X151010651Y-83821238D01*
X150918539Y-84018775D01*
X150916216Y-84023757D01*
X150914794Y-84029065D01*
X150914793Y-84029067D01*
X150858381Y-84239598D01*
X150856957Y-84244913D01*
X150837002Y-84473000D01*
X148092905Y-84473000D01*
X148148208Y-84326643D01*
X148166251Y-84278895D01*
X148166252Y-84278891D01*
X148167769Y-84274877D01*
X148228907Y-84007933D01*
X148253251Y-83735161D01*
X148253693Y-83693000D01*
X148248229Y-83612849D01*
X148235359Y-83424055D01*
X148235358Y-83424049D01*
X148235067Y-83419778D01*
X148179532Y-83151612D01*
X148088117Y-82893465D01*
X148048536Y-82816778D01*
X147964478Y-82653919D01*
X147964478Y-82653918D01*
X147962513Y-82650112D01*
X147952540Y-82635921D01*
X147807508Y-82429562D01*
X147805045Y-82426057D01*
X147702825Y-82316055D01*
X147621546Y-82228588D01*
X147621543Y-82228585D01*
X147618625Y-82225445D01*
X147615310Y-82222731D01*
X147615306Y-82222728D01*
X147495186Y-82124411D01*
X147455140Y-82065786D01*
X147453147Y-81994817D01*
X147489838Y-81934037D01*
X147553566Y-81902742D01*
X147564009Y-81901386D01*
X147578963Y-81900078D01*
X147722551Y-81861603D01*
X147788386Y-81843963D01*
X147788388Y-81843962D01*
X147793696Y-81842540D01*
X147799690Y-81839745D01*
X147990190Y-81750914D01*
X147990195Y-81750911D01*
X147995177Y-81748588D01*
X148097005Y-81677287D01*
X148172770Y-81624236D01*
X148172773Y-81624234D01*
X148177281Y-81621077D01*
X148334477Y-81463881D01*
X148351504Y-81439565D01*
X148458831Y-81286285D01*
X148458832Y-81286283D01*
X148461988Y-81281776D01*
X148464311Y-81276794D01*
X148464314Y-81276789D01*
X148513305Y-81171727D01*
X148560223Y-81118442D01*
X148628500Y-81098981D01*
X148696460Y-81119523D01*
X148741695Y-81171727D01*
X148790686Y-81276789D01*
X148790689Y-81276794D01*
X148793012Y-81281776D01*
X148796168Y-81286283D01*
X148796169Y-81286285D01*
X148903497Y-81439565D01*
X148920523Y-81463881D01*
X149077719Y-81621077D01*
X149082227Y-81624234D01*
X149082230Y-81624236D01*
X149157995Y-81677287D01*
X149259823Y-81748588D01*
X149264805Y-81750911D01*
X149264810Y-81750914D01*
X149455310Y-81839745D01*
X149461304Y-81842540D01*
X149466612Y-81843962D01*
X149466614Y-81843963D01*
X149532449Y-81861603D01*
X149676037Y-81900078D01*
X149897500Y-81919453D01*
X150118963Y-81900078D01*
X150262551Y-81861603D01*
X150328386Y-81843963D01*
X150328388Y-81843962D01*
X150333696Y-81842540D01*
X150339690Y-81839745D01*
X150530190Y-81750914D01*
X150530195Y-81750911D01*
X150535177Y-81748588D01*
X150637005Y-81677287D01*
X150712770Y-81624236D01*
X150712773Y-81624234D01*
X150717281Y-81621077D01*
X150874477Y-81463881D01*
X150891504Y-81439565D01*
X150998831Y-81286285D01*
X150998832Y-81286283D01*
X151001988Y-81281776D01*
X151004311Y-81276794D01*
X151004314Y-81276789D01*
X151053305Y-81171727D01*
X151100223Y-81118442D01*
X151168500Y-81098981D01*
X151236460Y-81119523D01*
X151281695Y-81171727D01*
X151330686Y-81276789D01*
X151330689Y-81276794D01*
X151333012Y-81281776D01*
X151336168Y-81286283D01*
X151336169Y-81286285D01*
X151443497Y-81439565D01*
X151460523Y-81463881D01*
X151617719Y-81621077D01*
X151622227Y-81624234D01*
X151622230Y-81624236D01*
X151697995Y-81677287D01*
X151799823Y-81748588D01*
X151804805Y-81750911D01*
X151804810Y-81750914D01*
X151995310Y-81839745D01*
X152001304Y-81842540D01*
X152006612Y-81843962D01*
X152006614Y-81843963D01*
X152072449Y-81861603D01*
X152216037Y-81900078D01*
X152437500Y-81919453D01*
X152658963Y-81900078D01*
X152802551Y-81861603D01*
X152868386Y-81843963D01*
X152868388Y-81843962D01*
X152873696Y-81842540D01*
X152879690Y-81839745D01*
X153070190Y-81750914D01*
X153070195Y-81750911D01*
X153075177Y-81748588D01*
X153177005Y-81677287D01*
X153252770Y-81624236D01*
X153252773Y-81624234D01*
X153257281Y-81621077D01*
X153414477Y-81463881D01*
X153431504Y-81439565D01*
X153538831Y-81286285D01*
X153538832Y-81286283D01*
X153541988Y-81281776D01*
X153544311Y-81276794D01*
X153544314Y-81276789D01*
X153593305Y-81171727D01*
X153640223Y-81118442D01*
X153708500Y-81098981D01*
X153776460Y-81119523D01*
X153821695Y-81171727D01*
X153870686Y-81276789D01*
X153870689Y-81276794D01*
X153873012Y-81281776D01*
X153876168Y-81286283D01*
X153876169Y-81286285D01*
X153983497Y-81439565D01*
X154000523Y-81463881D01*
X154157719Y-81621077D01*
X154162227Y-81624234D01*
X154162230Y-81624236D01*
X154237995Y-81677287D01*
X154339823Y-81748588D01*
X154344805Y-81750911D01*
X154344810Y-81750914D01*
X154535310Y-81839745D01*
X154541304Y-81842540D01*
X154546612Y-81843962D01*
X154546614Y-81843963D01*
X154612449Y-81861603D01*
X154756037Y-81900078D01*
X154977500Y-81919453D01*
X155198963Y-81900078D01*
X155342551Y-81861603D01*
X155408386Y-81843963D01*
X155408388Y-81843962D01*
X155413696Y-81842540D01*
X155419690Y-81839745D01*
X155610190Y-81750914D01*
X155610195Y-81750911D01*
X155615177Y-81748588D01*
X155717005Y-81677287D01*
X155792770Y-81624236D01*
X155792773Y-81624234D01*
X155797281Y-81621077D01*
X155954477Y-81463881D01*
X155971504Y-81439565D01*
X156078831Y-81286285D01*
X156078832Y-81286283D01*
X156081988Y-81281776D01*
X156084311Y-81276794D01*
X156084314Y-81276789D01*
X156133305Y-81171727D01*
X156180223Y-81118442D01*
X156248500Y-81098981D01*
X156316460Y-81119523D01*
X156361695Y-81171727D01*
X156410686Y-81276789D01*
X156410689Y-81276794D01*
X156413012Y-81281776D01*
X156416168Y-81286283D01*
X156416169Y-81286285D01*
X156523497Y-81439565D01*
X156540523Y-81463881D01*
X156697719Y-81621077D01*
X156702227Y-81624234D01*
X156702230Y-81624236D01*
X156777995Y-81677287D01*
X156879823Y-81748588D01*
X156884805Y-81750911D01*
X156884810Y-81750914D01*
X157075310Y-81839745D01*
X157081304Y-81842540D01*
X157086612Y-81843962D01*
X157086614Y-81843963D01*
X157152449Y-81861603D01*
X157296037Y-81900078D01*
X157517500Y-81919453D01*
X157738963Y-81900078D01*
X157882551Y-81861603D01*
X157948386Y-81843963D01*
X157948388Y-81843962D01*
X157953696Y-81842540D01*
X157959690Y-81839745D01*
X158150190Y-81750914D01*
X158150195Y-81750911D01*
X158155177Y-81748588D01*
X158257005Y-81677287D01*
X158332770Y-81624236D01*
X158332773Y-81624234D01*
X158337281Y-81621077D01*
X158494477Y-81463881D01*
X158511504Y-81439565D01*
X158618831Y-81286285D01*
X158618832Y-81286283D01*
X158621988Y-81281776D01*
X158624311Y-81276794D01*
X158624314Y-81276789D01*
X158673305Y-81171727D01*
X158720223Y-81118442D01*
X158788500Y-81098981D01*
X158856460Y-81119523D01*
X158901695Y-81171727D01*
X158950686Y-81276789D01*
X158950689Y-81276794D01*
X158953012Y-81281776D01*
X158956168Y-81286283D01*
X158956169Y-81286285D01*
X159063497Y-81439565D01*
X159080523Y-81463881D01*
X159237719Y-81621077D01*
X159242227Y-81624234D01*
X159242230Y-81624236D01*
X159370271Y-81713891D01*
X159414599Y-81769348D01*
X159424000Y-81817104D01*
X159424000Y-84127839D01*
X159403998Y-84195960D01*
X159350342Y-84242453D01*
X159280246Y-84252582D01*
X159189016Y-84239598D01*
X159087943Y-84225213D01*
X158944089Y-84224460D01*
X158818377Y-84223802D01*
X158818371Y-84223802D01*
X158814091Y-84223780D01*
X158809847Y-84224339D01*
X158809843Y-84224339D01*
X158693940Y-84239598D01*
X158542578Y-84259525D01*
X158538438Y-84260658D01*
X158538436Y-84260658D01*
X158521640Y-84265253D01*
X158278428Y-84331788D01*
X158274480Y-84333472D01*
X158030482Y-84437546D01*
X158030478Y-84437548D01*
X158026530Y-84439232D01*
X157946008Y-84487423D01*
X157795225Y-84577664D01*
X157795221Y-84577667D01*
X157791543Y-84579868D01*
X157577818Y-84751094D01*
X157466464Y-84868436D01*
X157415404Y-84922243D01*
X157389308Y-84949742D01*
X157229502Y-85172136D01*
X157101357Y-85414161D01*
X157099885Y-85418184D01*
X157099883Y-85418188D01*
X157030653Y-85607366D01*
X157007243Y-85671337D01*
X156948904Y-85938907D01*
X156927417Y-86211918D01*
X156943182Y-86485320D01*
X156944007Y-86489525D01*
X156944008Y-86489533D01*
X156967473Y-86609135D01*
X156995905Y-86754053D01*
X156997292Y-86758103D01*
X156997293Y-86758108D01*
X157083223Y-87009088D01*
X157084612Y-87013144D01*
X157146136Y-87135471D01*
X157188708Y-87220116D01*
X157207660Y-87257799D01*
X157230609Y-87291190D01*
X157252709Y-87358656D01*
X157234824Y-87427364D01*
X157182633Y-87475495D01*
X157165914Y-87482321D01*
X157159439Y-87484438D01*
X157132535Y-87493231D01*
X157127947Y-87495619D01*
X157127943Y-87495621D01*
X156987633Y-87568662D01*
X156930739Y-87598279D01*
X156926606Y-87601382D01*
X156926603Y-87601384D01*
X156752945Y-87731770D01*
X156748810Y-87734875D01*
X156745238Y-87738613D01*
X156619014Y-87870699D01*
X156591633Y-87899351D01*
X156463431Y-88087289D01*
X156461258Y-88091971D01*
X156461256Y-88091974D01*
X156391663Y-88241901D01*
X156367645Y-88293643D01*
X156306848Y-88512869D01*
X156306299Y-88518006D01*
X156289202Y-88677983D01*
X156282672Y-88739082D01*
X156282969Y-88744234D01*
X156282969Y-88744238D01*
X156290078Y-88867525D01*
X156295768Y-88966206D01*
X156345783Y-89188141D01*
X156431375Y-89398927D01*
X156550244Y-89592904D01*
X156699198Y-89764861D01*
X156874237Y-89910181D01*
X156878689Y-89912783D01*
X156878694Y-89912786D01*
X156989172Y-89977344D01*
X157070660Y-90024962D01*
X157283193Y-90106120D01*
X157288259Y-90107151D01*
X157288260Y-90107151D01*
X157387361Y-90127313D01*
X157506127Y-90151476D01*
X157633937Y-90156163D01*
X157728311Y-90159624D01*
X157728315Y-90159624D01*
X157733475Y-90159813D01*
X157738595Y-90159157D01*
X157738597Y-90159157D01*
X157954004Y-90131563D01*
X157954005Y-90131563D01*
X157959132Y-90130906D01*
X158045611Y-90104961D01*
X158172091Y-90067015D01*
X158172092Y-90067014D01*
X158177037Y-90065531D01*
X158381339Y-89965444D01*
X158385543Y-89962446D01*
X158385547Y-89962443D01*
X158562347Y-89836333D01*
X158562349Y-89836331D01*
X158566551Y-89833334D01*
X158727699Y-89672747D01*
X158758246Y-89630237D01*
X158857438Y-89492198D01*
X158857442Y-89492192D01*
X158860456Y-89487997D01*
X158922390Y-89362684D01*
X158958961Y-89288688D01*
X158958962Y-89288686D01*
X158961255Y-89284046D01*
X159012789Y-89114429D01*
X159025888Y-89071314D01*
X159025888Y-89071313D01*
X159027390Y-89066370D01*
X159033596Y-89019233D01*
X159056648Y-88844136D01*
X159056648Y-88844132D01*
X159057085Y-88840815D01*
X159058610Y-88778404D01*
X159058660Y-88776365D01*
X159058660Y-88776361D01*
X159058742Y-88773000D01*
X159040101Y-88546264D01*
X159001266Y-88391656D01*
X159004070Y-88320716D01*
X159044783Y-88262552D01*
X159108332Y-88235874D01*
X159317735Y-88210534D01*
X159582627Y-88141041D01*
X159586587Y-88139401D01*
X159586592Y-88139399D01*
X159709131Y-88088641D01*
X159835636Y-88036241D01*
X160024340Y-87925971D01*
X160068379Y-87900237D01*
X160068380Y-87900236D01*
X160072082Y-87898073D01*
X160191608Y-87804353D01*
X160257554Y-87778062D01*
X160327248Y-87791597D01*
X160378561Y-87840664D01*
X160395201Y-87909683D01*
X160389185Y-87942443D01*
X160321925Y-88149448D01*
X160262923Y-88458746D01*
X160243152Y-88773000D01*
X160262923Y-89087254D01*
X160321925Y-89396552D01*
X160323152Y-89400328D01*
X160407362Y-89659498D01*
X160419227Y-89696016D01*
X160420914Y-89699602D01*
X160420916Y-89699606D01*
X160551606Y-89977338D01*
X160551609Y-89977344D01*
X160553294Y-89980924D01*
X160722013Y-90246782D01*
X160922722Y-90489398D01*
X161152256Y-90704945D01*
X161406996Y-90890024D01*
X161410465Y-90891931D01*
X161410468Y-90891933D01*
X161647760Y-91022385D01*
X161682923Y-91041716D01*
X161975687Y-91157630D01*
X162280670Y-91235936D01*
X162593062Y-91275400D01*
X162907938Y-91275400D01*
X163220330Y-91235936D01*
X163525313Y-91157630D01*
X163818077Y-91041716D01*
X163853240Y-91022385D01*
X164090532Y-90891933D01*
X164090535Y-90891931D01*
X164094004Y-90890024D01*
X164348744Y-90704945D01*
X164578278Y-90489398D01*
X164778987Y-90246782D01*
X164947706Y-89980924D01*
X164997709Y-89874662D01*
X165044812Y-89821542D01*
X165113157Y-89802319D01*
X165181044Y-89823098D01*
X165200812Y-89839216D01*
X166066843Y-90705247D01*
X166074387Y-90713537D01*
X166078500Y-90720018D01*
X166084277Y-90725443D01*
X166128167Y-90766658D01*
X166131009Y-90769413D01*
X166150731Y-90789135D01*
X166153855Y-90791558D01*
X166153859Y-90791562D01*
X166153924Y-90791612D01*
X166162945Y-90799317D01*
X166195179Y-90829586D01*
X166202127Y-90833405D01*
X166202129Y-90833407D01*
X166212932Y-90839346D01*
X166229459Y-90850202D01*
X166239198Y-90857757D01*
X166239200Y-90857758D01*
X166245460Y-90862614D01*
X166286040Y-90880174D01*
X166296688Y-90885391D01*
X166321476Y-90899018D01*
X166335440Y-90906695D01*
X166343116Y-90908666D01*
X166343119Y-90908667D01*
X166355062Y-90911733D01*
X166373767Y-90918137D01*
X166392355Y-90926181D01*
X166400178Y-90927420D01*
X166400188Y-90927423D01*
X166436024Y-90933099D01*
X166447644Y-90935505D01*
X166479459Y-90943673D01*
X166490470Y-90946500D01*
X166510724Y-90946500D01*
X166530434Y-90948051D01*
X166550443Y-90951220D01*
X166558335Y-90950474D01*
X166577080Y-90948702D01*
X166594462Y-90947059D01*
X166606319Y-90946500D01*
X172221733Y-90946500D01*
X172232916Y-90947027D01*
X172240409Y-90948702D01*
X172248335Y-90948453D01*
X172248336Y-90948453D01*
X172308486Y-90946562D01*
X172312445Y-90946500D01*
X172340356Y-90946500D01*
X172344291Y-90946003D01*
X172344356Y-90945995D01*
X172356193Y-90945062D01*
X172388451Y-90944048D01*
X172392470Y-90943922D01*
X172400389Y-90943673D01*
X172419843Y-90938021D01*
X172439200Y-90934013D01*
X172451430Y-90932468D01*
X172451431Y-90932468D01*
X172459297Y-90931474D01*
X172466668Y-90928555D01*
X172466670Y-90928555D01*
X172500412Y-90915196D01*
X172511642Y-90911351D01*
X172546483Y-90901229D01*
X172546484Y-90901229D01*
X172554093Y-90899018D01*
X172560912Y-90894985D01*
X172560917Y-90894983D01*
X172571528Y-90888707D01*
X172589276Y-90880012D01*
X172608117Y-90872552D01*
X172643887Y-90846564D01*
X172653807Y-90840048D01*
X172685035Y-90821580D01*
X172685038Y-90821578D01*
X172691862Y-90817542D01*
X172706183Y-90803221D01*
X172721217Y-90790380D01*
X172722931Y-90789135D01*
X172737607Y-90778472D01*
X172765798Y-90744395D01*
X172773778Y-90735626D01*
X173721002Y-89788403D01*
X173783312Y-89754379D01*
X173810095Y-89751500D01*
X173865987Y-89751500D01*
X173872439Y-89750128D01*
X173872444Y-89750128D01*
X173959387Y-89731647D01*
X174052788Y-89711794D01*
X174080163Y-89699606D01*
X174221222Y-89636803D01*
X174221224Y-89636802D01*
X174227252Y-89634118D01*
X174266171Y-89605842D01*
X174290038Y-89588501D01*
X174381753Y-89521866D01*
X174416426Y-89483358D01*
X174505121Y-89384852D01*
X174505122Y-89384851D01*
X174509540Y-89379944D01*
X174593395Y-89234703D01*
X174601723Y-89220279D01*
X174601724Y-89220278D01*
X174605027Y-89214556D01*
X174664042Y-89032928D01*
X174665482Y-89019233D01*
X174683314Y-88849565D01*
X174684004Y-88843000D01*
X174677063Y-88776958D01*
X174664732Y-88659635D01*
X174664732Y-88659633D01*
X174664042Y-88653072D01*
X174605027Y-88471444D01*
X174574619Y-88418775D01*
X174523727Y-88330629D01*
X174509540Y-88306056D01*
X174381753Y-88164134D01*
X174227252Y-88051882D01*
X174221224Y-88049198D01*
X174221222Y-88049197D01*
X174058819Y-87976891D01*
X174058818Y-87976891D01*
X174052788Y-87974206D01*
X173959387Y-87954353D01*
X173872444Y-87935872D01*
X173872439Y-87935872D01*
X173865987Y-87934500D01*
X173675013Y-87934500D01*
X173668561Y-87935872D01*
X173668556Y-87935872D01*
X173581612Y-87954353D01*
X173488212Y-87974206D01*
X173482182Y-87976891D01*
X173482181Y-87976891D01*
X173319778Y-88049197D01*
X173319776Y-88049198D01*
X173313748Y-88051882D01*
X173159247Y-88164134D01*
X173031460Y-88306056D01*
X173017273Y-88330629D01*
X172966382Y-88418775D01*
X172935973Y-88471444D01*
X172876958Y-88653072D01*
X172876268Y-88659633D01*
X172876268Y-88659635D01*
X172859593Y-88818292D01*
X172832580Y-88883949D01*
X172823378Y-88894218D01*
X172074999Y-89642596D01*
X172012687Y-89676621D01*
X171985904Y-89679500D01*
X169127599Y-89679500D01*
X169059478Y-89659498D01*
X169012985Y-89605842D01*
X169002881Y-89535568D01*
X169019181Y-89489772D01*
X169020456Y-89487997D01*
X169051658Y-89424866D01*
X169118961Y-89288688D01*
X169118962Y-89288686D01*
X169121255Y-89284046D01*
X169172789Y-89114429D01*
X169185888Y-89071314D01*
X169185888Y-89071313D01*
X169187390Y-89066370D01*
X169193596Y-89019233D01*
X169216648Y-88844136D01*
X169216648Y-88844132D01*
X169217085Y-88840815D01*
X169218610Y-88778404D01*
X169218660Y-88776365D01*
X169218660Y-88776361D01*
X169218742Y-88773000D01*
X169200101Y-88546264D01*
X169155253Y-88367716D01*
X169145937Y-88330629D01*
X169145937Y-88330628D01*
X169144678Y-88325617D01*
X169091344Y-88202957D01*
X169056022Y-88121722D01*
X169056020Y-88121719D01*
X169053962Y-88116985D01*
X168974359Y-87993936D01*
X168933198Y-87930311D01*
X168933196Y-87930308D01*
X168930390Y-87925971D01*
X168777279Y-87757704D01*
X168598741Y-87616704D01*
X168561037Y-87595890D01*
X168505217Y-87565076D01*
X168399572Y-87506757D01*
X168394703Y-87505033D01*
X168394699Y-87505031D01*
X168189996Y-87432541D01*
X168189992Y-87432540D01*
X168185121Y-87430815D01*
X168180028Y-87429908D01*
X168180025Y-87429907D01*
X167966234Y-87391825D01*
X167966228Y-87391824D01*
X167961145Y-87390919D01*
X167887696Y-87390022D01*
X167738831Y-87388203D01*
X167738829Y-87388203D01*
X167733661Y-87388140D01*
X167508778Y-87422552D01*
X167292535Y-87493231D01*
X167287947Y-87495619D01*
X167287943Y-87495621D01*
X167147633Y-87568662D01*
X167090739Y-87598279D01*
X167086606Y-87601382D01*
X167086603Y-87601384D01*
X166912945Y-87731770D01*
X166908810Y-87734875D01*
X166905238Y-87738613D01*
X166779014Y-87870699D01*
X166751633Y-87899351D01*
X166623431Y-88087289D01*
X166621258Y-88091971D01*
X166621256Y-88091974D01*
X166551663Y-88241901D01*
X166527645Y-88293643D01*
X166466848Y-88512869D01*
X166466299Y-88518006D01*
X166449202Y-88677983D01*
X166442672Y-88739082D01*
X166442969Y-88744234D01*
X166442969Y-88744238D01*
X166450078Y-88867525D01*
X166455768Y-88966206D01*
X166457906Y-88975692D01*
X166453371Y-89046541D01*
X166411250Y-89103693D01*
X166344918Y-89129001D01*
X166275433Y-89114429D01*
X166245894Y-89092488D01*
X166020905Y-88867499D01*
X165986879Y-88805187D01*
X165984000Y-88778404D01*
X165984000Y-88686905D01*
X165985257Y-88669151D01*
X165987932Y-88650355D01*
X165988513Y-88646274D01*
X165988653Y-88632910D01*
X165987449Y-88622959D01*
X165986689Y-88614011D01*
X165973308Y-88341655D01*
X165973307Y-88341648D01*
X165973156Y-88338568D01*
X165971979Y-88330629D01*
X165943854Y-88141041D01*
X165929913Y-88047062D01*
X165858305Y-87761198D01*
X165849102Y-87735477D01*
X165760063Y-87486642D01*
X165759021Y-87483730D01*
X165757704Y-87480945D01*
X165757700Y-87480936D01*
X165634335Y-87220116D01*
X165634333Y-87220112D01*
X165633017Y-87217330D01*
X165481506Y-86964564D01*
X165456123Y-86930340D01*
X165355040Y-86794053D01*
X165305950Y-86727866D01*
X165142856Y-86547933D01*
X165132148Y-86536119D01*
X165124750Y-86527158D01*
X165118136Y-86518349D01*
X165108785Y-86508800D01*
X165108779Y-86508796D01*
X165108769Y-86508785D01*
X165104594Y-86505512D01*
X165103584Y-86504573D01*
X165099194Y-86500870D01*
X165002244Y-86413000D01*
X169687002Y-86413000D01*
X169706957Y-86641087D01*
X169708381Y-86646400D01*
X169708381Y-86646402D01*
X169760539Y-86841055D01*
X169766216Y-86862243D01*
X169768539Y-86867224D01*
X169768539Y-86867225D01*
X169860651Y-87064762D01*
X169860654Y-87064767D01*
X169862977Y-87069749D01*
X169866134Y-87074257D01*
X169966315Y-87217330D01*
X169994302Y-87257300D01*
X170156200Y-87419198D01*
X170160708Y-87422355D01*
X170160711Y-87422357D01*
X170236600Y-87475495D01*
X170343751Y-87550523D01*
X170348733Y-87552846D01*
X170348738Y-87552849D01*
X170537864Y-87641039D01*
X170551257Y-87647284D01*
X170556565Y-87648706D01*
X170556567Y-87648707D01*
X170767098Y-87705119D01*
X170767100Y-87705119D01*
X170772413Y-87706543D01*
X171000500Y-87726498D01*
X171228587Y-87706543D01*
X171233900Y-87705119D01*
X171233902Y-87705119D01*
X171444433Y-87648707D01*
X171444435Y-87648706D01*
X171449743Y-87647284D01*
X171463136Y-87641039D01*
X171652262Y-87552849D01*
X171652267Y-87552846D01*
X171657249Y-87550523D01*
X171764400Y-87475495D01*
X171840289Y-87422357D01*
X171840292Y-87422355D01*
X171844800Y-87419198D01*
X172006698Y-87257300D01*
X172034686Y-87217330D01*
X172134866Y-87074257D01*
X172138023Y-87069749D01*
X172140346Y-87064767D01*
X172140349Y-87064762D01*
X172232461Y-86867225D01*
X172232461Y-86867224D01*
X172234784Y-86862243D01*
X172240462Y-86841055D01*
X172292619Y-86646402D01*
X172292619Y-86646400D01*
X172294043Y-86641087D01*
X172313998Y-86413000D01*
X172294043Y-86184913D01*
X172275037Y-86113983D01*
X172236207Y-85969067D01*
X172236206Y-85969065D01*
X172234784Y-85963757D01*
X172232461Y-85958775D01*
X172140349Y-85761238D01*
X172140346Y-85761233D01*
X172138023Y-85756251D01*
X172035983Y-85610523D01*
X172009857Y-85573211D01*
X172009855Y-85573208D01*
X172006698Y-85568700D01*
X171844800Y-85406802D01*
X171840292Y-85403645D01*
X171840289Y-85403643D01*
X171723272Y-85321707D01*
X171657249Y-85275477D01*
X171652267Y-85273154D01*
X171652262Y-85273151D01*
X171454725Y-85181039D01*
X171454724Y-85181039D01*
X171449743Y-85178716D01*
X171444435Y-85177294D01*
X171444433Y-85177293D01*
X171233902Y-85120881D01*
X171233900Y-85120881D01*
X171228587Y-85119457D01*
X171000500Y-85099502D01*
X170772413Y-85119457D01*
X170767100Y-85120881D01*
X170767098Y-85120881D01*
X170556567Y-85177293D01*
X170556565Y-85177294D01*
X170551257Y-85178716D01*
X170546276Y-85181039D01*
X170546275Y-85181039D01*
X170348738Y-85273151D01*
X170348733Y-85273154D01*
X170343751Y-85275477D01*
X170277728Y-85321707D01*
X170160711Y-85403643D01*
X170160708Y-85403645D01*
X170156200Y-85406802D01*
X169994302Y-85568700D01*
X169991145Y-85573208D01*
X169991143Y-85573211D01*
X169965017Y-85610523D01*
X169862977Y-85756251D01*
X169860654Y-85761233D01*
X169860651Y-85761238D01*
X169768539Y-85958775D01*
X169766216Y-85963757D01*
X169764794Y-85969065D01*
X169764793Y-85969067D01*
X169725963Y-86113983D01*
X169706957Y-86184913D01*
X169687002Y-86413000D01*
X165002244Y-86413000D01*
X164863965Y-86287671D01*
X164861668Y-86285589D01*
X164850933Y-86277627D01*
X164596706Y-86089080D01*
X164594221Y-86087237D01*
X164591580Y-86085654D01*
X164591571Y-86085648D01*
X164311261Y-85917637D01*
X164311262Y-85917637D01*
X164308620Y-85916054D01*
X164305838Y-85914738D01*
X164010408Y-85775009D01*
X164010399Y-85775005D01*
X164007616Y-85773689D01*
X163797429Y-85698483D01*
X163697015Y-85662554D01*
X163697006Y-85662551D01*
X163694107Y-85661514D01*
X163691111Y-85660764D01*
X163691106Y-85660762D01*
X163374106Y-85581358D01*
X163374107Y-85581358D01*
X163371112Y-85580608D01*
X163041743Y-85531751D01*
X163038659Y-85531599D01*
X163038654Y-85531599D01*
X162928943Y-85526210D01*
X162739954Y-85516925D01*
X162728399Y-85515822D01*
X162722535Y-85514987D01*
X162715492Y-85514913D01*
X162713291Y-85514890D01*
X162713289Y-85514890D01*
X162709171Y-85514847D01*
X162705081Y-85515342D01*
X162705080Y-85515342D01*
X162697424Y-85516269D01*
X162678264Y-85518587D01*
X162663129Y-85519500D01*
X162195095Y-85519500D01*
X162126974Y-85499498D01*
X162106000Y-85482595D01*
X160727905Y-84104500D01*
X160693879Y-84042188D01*
X160691000Y-84015405D01*
X160691000Y-81817104D01*
X160711002Y-81748983D01*
X160744729Y-81713891D01*
X160872770Y-81624236D01*
X160872773Y-81624234D01*
X160877281Y-81621077D01*
X161034477Y-81463881D01*
X161051504Y-81439565D01*
X161158831Y-81286285D01*
X161158832Y-81286283D01*
X161161988Y-81281776D01*
X161164311Y-81276794D01*
X161164314Y-81276789D01*
X161213305Y-81171727D01*
X161260223Y-81118442D01*
X161328500Y-81098981D01*
X161396460Y-81119523D01*
X161441695Y-81171727D01*
X161490686Y-81276789D01*
X161490689Y-81276794D01*
X161493012Y-81281776D01*
X161496168Y-81286283D01*
X161496169Y-81286285D01*
X161603497Y-81439565D01*
X161620523Y-81463881D01*
X161777719Y-81621077D01*
X161782227Y-81624234D01*
X161782230Y-81624236D01*
X161857995Y-81677287D01*
X161959823Y-81748588D01*
X161964805Y-81750911D01*
X161964810Y-81750914D01*
X162155310Y-81839745D01*
X162161304Y-81842540D01*
X162166612Y-81843962D01*
X162166614Y-81843963D01*
X162232449Y-81861603D01*
X162376037Y-81900078D01*
X162597500Y-81919453D01*
X162818963Y-81900078D01*
X162962551Y-81861603D01*
X163028386Y-81843963D01*
X163028388Y-81843962D01*
X163033696Y-81842540D01*
X163039690Y-81839745D01*
X163230190Y-81750914D01*
X163230195Y-81750911D01*
X163235177Y-81748588D01*
X163337005Y-81677287D01*
X163412770Y-81624236D01*
X163412773Y-81624234D01*
X163417281Y-81621077D01*
X163574477Y-81463881D01*
X163591504Y-81439565D01*
X163698831Y-81286285D01*
X163698832Y-81286283D01*
X163701988Y-81281776D01*
X163704311Y-81276794D01*
X163704314Y-81276789D01*
X163753305Y-81171727D01*
X163800223Y-81118442D01*
X163868500Y-81098981D01*
X163936460Y-81119523D01*
X163981695Y-81171727D01*
X164030686Y-81276789D01*
X164030689Y-81276794D01*
X164033012Y-81281776D01*
X164036168Y-81286283D01*
X164036169Y-81286285D01*
X164143497Y-81439565D01*
X164160523Y-81463881D01*
X164317719Y-81621077D01*
X164322227Y-81624234D01*
X164322230Y-81624236D01*
X164401030Y-81679412D01*
X164445358Y-81734869D01*
X164452667Y-81805488D01*
X164420636Y-81868849D01*
X164383793Y-81894611D01*
X164384298Y-81895602D01*
X164380484Y-81897546D01*
X164376530Y-81899232D01*
X164318375Y-81934037D01*
X164145225Y-82037664D01*
X164145221Y-82037667D01*
X164141543Y-82039868D01*
X163927818Y-82211094D01*
X163739308Y-82409742D01*
X163579502Y-82632136D01*
X163451357Y-82874161D01*
X163449885Y-82878184D01*
X163449883Y-82878188D01*
X163359649Y-83124762D01*
X163357243Y-83131337D01*
X163298904Y-83398907D01*
X163277417Y-83671918D01*
X163293182Y-83945320D01*
X163294007Y-83949525D01*
X163294008Y-83949533D01*
X163317171Y-84067595D01*
X163345905Y-84214053D01*
X163347292Y-84218103D01*
X163347293Y-84218108D01*
X163427080Y-84451145D01*
X163434612Y-84473144D01*
X163453387Y-84510474D01*
X163546499Y-84695607D01*
X163557660Y-84717799D01*
X163560086Y-84721328D01*
X163560089Y-84721334D01*
X163698171Y-84922243D01*
X163712774Y-84943490D01*
X163715661Y-84946663D01*
X163715662Y-84946664D01*
X163754165Y-84988978D01*
X163897082Y-85146043D01*
X164107175Y-85321707D01*
X164110816Y-85323991D01*
X164335524Y-85464951D01*
X164335528Y-85464953D01*
X164339164Y-85467234D01*
X164434976Y-85510495D01*
X164584845Y-85578164D01*
X164584849Y-85578166D01*
X164588757Y-85579930D01*
X164616818Y-85588242D01*
X164847223Y-85656491D01*
X164847227Y-85656492D01*
X164851336Y-85657709D01*
X164855570Y-85658357D01*
X164855575Y-85658358D01*
X165117798Y-85698483D01*
X165117800Y-85698483D01*
X165122040Y-85699132D01*
X165261412Y-85701322D01*
X165391571Y-85703367D01*
X165391577Y-85703367D01*
X165395862Y-85703434D01*
X165667735Y-85670534D01*
X165932627Y-85601041D01*
X165936587Y-85599401D01*
X165936592Y-85599399D01*
X166135698Y-85516926D01*
X166185636Y-85496241D01*
X166326099Y-85414161D01*
X166418379Y-85360237D01*
X166418380Y-85360236D01*
X166422082Y-85358073D01*
X166637589Y-85189094D01*
X166654023Y-85172136D01*
X166825186Y-84995509D01*
X166828169Y-84992431D01*
X166830702Y-84988983D01*
X166830706Y-84988978D01*
X166987757Y-84775178D01*
X166990295Y-84771723D01*
X167002949Y-84748417D01*
X167118918Y-84534830D01*
X167118919Y-84534828D01*
X167120968Y-84531054D01*
X167198208Y-84326643D01*
X167216251Y-84278895D01*
X167216252Y-84278891D01*
X167217769Y-84274877D01*
X167278907Y-84007933D01*
X167303251Y-83735161D01*
X167303693Y-83693000D01*
X167298229Y-83612849D01*
X167285359Y-83424055D01*
X167285358Y-83424049D01*
X167285067Y-83419778D01*
X167229532Y-83151612D01*
X167138117Y-82893465D01*
X167098536Y-82816778D01*
X167014478Y-82653919D01*
X167014478Y-82653918D01*
X167012513Y-82650112D01*
X167002540Y-82635921D01*
X166857508Y-82429562D01*
X166855045Y-82426057D01*
X166752825Y-82316055D01*
X166671546Y-82228588D01*
X166671543Y-82228585D01*
X166668625Y-82225445D01*
X166665310Y-82222731D01*
X166665306Y-82222728D01*
X166460023Y-82054706D01*
X166456705Y-82051990D01*
X166223204Y-81908901D01*
X166219268Y-81907173D01*
X166007196Y-81814079D01*
X165952860Y-81768383D01*
X165931856Y-81700565D01*
X165950851Y-81632156D01*
X165968747Y-81609611D01*
X166114477Y-81463881D01*
X166131504Y-81439565D01*
X166238831Y-81286285D01*
X166238832Y-81286283D01*
X166241988Y-81281776D01*
X166244311Y-81276794D01*
X166244314Y-81276789D01*
X166333617Y-81085278D01*
X166333618Y-81085277D01*
X166335940Y-81080296D01*
X166339308Y-81067729D01*
X166392054Y-80870876D01*
X166393478Y-80865563D01*
X166412853Y-80644100D01*
X166393478Y-80422637D01*
X166340580Y-80225220D01*
X166337363Y-80213214D01*
X166337362Y-80213212D01*
X166335940Y-80207904D01*
X166293305Y-80116473D01*
X166244314Y-80011411D01*
X166244311Y-80011406D01*
X166241988Y-80006424D01*
X166238831Y-80001915D01*
X166238828Y-80001910D01*
X166170810Y-79904770D01*
X166148122Y-79837497D01*
X166165407Y-79768636D01*
X166217177Y-79720052D01*
X166274023Y-79706500D01*
X170288238Y-79706500D01*
X170356359Y-79726502D01*
X170402852Y-79780158D01*
X170412956Y-79850432D01*
X170382970Y-79915578D01*
X170339579Y-79965055D01*
X170339575Y-79965061D01*
X170336861Y-79968155D01*
X170334572Y-79971581D01*
X170334568Y-79971586D01*
X170201759Y-80170350D01*
X170165096Y-80225220D01*
X170163270Y-80228923D01*
X170030180Y-80498800D01*
X170030177Y-80498808D01*
X170028354Y-80502504D01*
X170027025Y-80506419D01*
X169975940Y-80656912D01*
X169928975Y-80795265D01*
X169890405Y-80989171D01*
X169871138Y-81086037D01*
X169868660Y-81098493D01*
X169868391Y-81102604D01*
X169868390Y-81102608D01*
X169848909Y-81399825D01*
X169824495Y-81466492D01*
X169767913Y-81509376D01*
X169697129Y-81514862D01*
X169634083Y-81480679D01*
X169492039Y-81338634D01*
X169194147Y-81040742D01*
X169186613Y-81032463D01*
X169182500Y-81025982D01*
X169172000Y-81016122D01*
X169156863Y-81001907D01*
X169133997Y-80973057D01*
X169092842Y-80901774D01*
X169092839Y-80901769D01*
X169089540Y-80896056D01*
X169082105Y-80887798D01*
X168966175Y-80759045D01*
X168966174Y-80759044D01*
X168961753Y-80754134D01*
X168827939Y-80656912D01*
X168812594Y-80645763D01*
X168812593Y-80645762D01*
X168807252Y-80641882D01*
X168801224Y-80639198D01*
X168801222Y-80639197D01*
X168638819Y-80566891D01*
X168638818Y-80566891D01*
X168632788Y-80564206D01*
X168539388Y-80544353D01*
X168452444Y-80525872D01*
X168452439Y-80525872D01*
X168445987Y-80524500D01*
X168255013Y-80524500D01*
X168248561Y-80525872D01*
X168248556Y-80525872D01*
X168161612Y-80544353D01*
X168068212Y-80564206D01*
X168062182Y-80566891D01*
X168062181Y-80566891D01*
X167899778Y-80639197D01*
X167899776Y-80639198D01*
X167893748Y-80641882D01*
X167888407Y-80645762D01*
X167888406Y-80645763D01*
X167873061Y-80656912D01*
X167739247Y-80754134D01*
X167734826Y-80759044D01*
X167734825Y-80759045D01*
X167618896Y-80887798D01*
X167611460Y-80896056D01*
X167515973Y-81061444D01*
X167456958Y-81243072D01*
X167456268Y-81249633D01*
X167456268Y-81249635D01*
X167446947Y-81338323D01*
X167436996Y-81433000D01*
X167437686Y-81439565D01*
X167448371Y-81541223D01*
X167456958Y-81622928D01*
X167515973Y-81804556D01*
X167519276Y-81810278D01*
X167519277Y-81810279D01*
X167525604Y-81821238D01*
X167611460Y-81969944D01*
X167615878Y-81974851D01*
X167615879Y-81974852D01*
X167683318Y-82049751D01*
X167739247Y-82111866D01*
X167756514Y-82124411D01*
X167872138Y-82208417D01*
X167893748Y-82224118D01*
X167899776Y-82226802D01*
X167899778Y-82226803D01*
X168062181Y-82299109D01*
X168068212Y-82301794D01*
X168161612Y-82321647D01*
X168248556Y-82340128D01*
X168248561Y-82340128D01*
X168255013Y-82341500D01*
X168445987Y-82341500D01*
X168452440Y-82340128D01*
X168452453Y-82340127D01*
X168591108Y-82310654D01*
X168661898Y-82316055D01*
X168706400Y-82344805D01*
X170626848Y-84265253D01*
X170634388Y-84273539D01*
X170638500Y-84280018D01*
X170644277Y-84285443D01*
X170688151Y-84326643D01*
X170690993Y-84329398D01*
X170710730Y-84349135D01*
X170713927Y-84351615D01*
X170722947Y-84359318D01*
X170755179Y-84389586D01*
X170762125Y-84393405D01*
X170762128Y-84393407D01*
X170772934Y-84399348D01*
X170789453Y-84410199D01*
X170805459Y-84422614D01*
X170812728Y-84425759D01*
X170812732Y-84425762D01*
X170846037Y-84440174D01*
X170856687Y-84445391D01*
X170895440Y-84466695D01*
X170903115Y-84468666D01*
X170903116Y-84468666D01*
X170915062Y-84471733D01*
X170933767Y-84478137D01*
X170952355Y-84486181D01*
X170960178Y-84487420D01*
X170960188Y-84487423D01*
X170996024Y-84493099D01*
X171007644Y-84495505D01*
X171042789Y-84504528D01*
X171050470Y-84506500D01*
X171070724Y-84506500D01*
X171090434Y-84508051D01*
X171110443Y-84511220D01*
X171118335Y-84510474D01*
X171154461Y-84507059D01*
X171166319Y-84506500D01*
X176574326Y-84506500D01*
X176642447Y-84526502D01*
X176688940Y-84580158D01*
X176699044Y-84650432D01*
X176669550Y-84715012D01*
X176653109Y-84730832D01*
X176627818Y-84751094D01*
X176516464Y-84868436D01*
X176465404Y-84922243D01*
X176439308Y-84949742D01*
X176279502Y-85172136D01*
X176151357Y-85414161D01*
X176149885Y-85418184D01*
X176149883Y-85418188D01*
X176080653Y-85607366D01*
X176057243Y-85671337D01*
X175998904Y-85938907D01*
X175977417Y-86211918D01*
X175993182Y-86485320D01*
X175994007Y-86489525D01*
X175994008Y-86489533D01*
X176017473Y-86609135D01*
X176045905Y-86754053D01*
X176047292Y-86758103D01*
X176047293Y-86758108D01*
X176133223Y-87009088D01*
X176134612Y-87013144D01*
X176196136Y-87135471D01*
X176238708Y-87220116D01*
X176257660Y-87257799D01*
X176280609Y-87291190D01*
X176302709Y-87358656D01*
X176284824Y-87427364D01*
X176232633Y-87475495D01*
X176215914Y-87482321D01*
X176209439Y-87484438D01*
X176182535Y-87493231D01*
X176177947Y-87495619D01*
X176177943Y-87495621D01*
X176037633Y-87568662D01*
X175980739Y-87598279D01*
X175976606Y-87601382D01*
X175976603Y-87601384D01*
X175802945Y-87731770D01*
X175798810Y-87734875D01*
X175795238Y-87738613D01*
X175669014Y-87870699D01*
X175641633Y-87899351D01*
X175513431Y-88087289D01*
X175511258Y-88091971D01*
X175511256Y-88091974D01*
X175441663Y-88241901D01*
X175417645Y-88293643D01*
X175356848Y-88512869D01*
X175356299Y-88518006D01*
X175339202Y-88677983D01*
X175332672Y-88739082D01*
X175332969Y-88744234D01*
X175332969Y-88744238D01*
X175340078Y-88867525D01*
X175345768Y-88966206D01*
X175395783Y-89188141D01*
X175481375Y-89398927D01*
X175600244Y-89592904D01*
X175749198Y-89764861D01*
X175924237Y-89910181D01*
X175928689Y-89912783D01*
X175928694Y-89912786D01*
X176039172Y-89977344D01*
X176120660Y-90024962D01*
X176333193Y-90106120D01*
X176338259Y-90107151D01*
X176338260Y-90107151D01*
X176437361Y-90127313D01*
X176556127Y-90151476D01*
X176683937Y-90156163D01*
X176778311Y-90159624D01*
X176778315Y-90159624D01*
X176783475Y-90159813D01*
X176788595Y-90159157D01*
X176788597Y-90159157D01*
X177004004Y-90131563D01*
X177004005Y-90131563D01*
X177009132Y-90130906D01*
X177095611Y-90104961D01*
X177222091Y-90067015D01*
X177222092Y-90067014D01*
X177227037Y-90065531D01*
X177431339Y-89965444D01*
X177435543Y-89962446D01*
X177435547Y-89962443D01*
X177612347Y-89836333D01*
X177612349Y-89836331D01*
X177616551Y-89833334D01*
X177777699Y-89672747D01*
X177808246Y-89630237D01*
X177907438Y-89492198D01*
X177907442Y-89492192D01*
X177910456Y-89487997D01*
X177972390Y-89362684D01*
X178008961Y-89288688D01*
X178008962Y-89288686D01*
X178011255Y-89284046D01*
X178062789Y-89114429D01*
X178075888Y-89071314D01*
X178075888Y-89071313D01*
X178077390Y-89066370D01*
X178083596Y-89019233D01*
X178106648Y-88844136D01*
X178106648Y-88844132D01*
X178107085Y-88840815D01*
X178108610Y-88778404D01*
X178108660Y-88776365D01*
X178108660Y-88776361D01*
X178108742Y-88773000D01*
X178090101Y-88546264D01*
X178051266Y-88391656D01*
X178054070Y-88320716D01*
X178094783Y-88262552D01*
X178158332Y-88235874D01*
X178367735Y-88210534D01*
X178632627Y-88141041D01*
X178636587Y-88139401D01*
X178636592Y-88139399D01*
X178759131Y-88088641D01*
X178885636Y-88036241D01*
X179074340Y-87925971D01*
X179118379Y-87900237D01*
X179118380Y-87900236D01*
X179122082Y-87898073D01*
X179241608Y-87804353D01*
X179307554Y-87778062D01*
X179377248Y-87791597D01*
X179428561Y-87840664D01*
X179445201Y-87909683D01*
X179439185Y-87942443D01*
X179371925Y-88149448D01*
X179312923Y-88458746D01*
X179293152Y-88773000D01*
X179312923Y-89087254D01*
X179371925Y-89396552D01*
X179373152Y-89400328D01*
X179457362Y-89659498D01*
X179469227Y-89696016D01*
X179470914Y-89699602D01*
X179470916Y-89699606D01*
X179601606Y-89977338D01*
X179601609Y-89977344D01*
X179603294Y-89980924D01*
X179772013Y-90246782D01*
X179972722Y-90489398D01*
X180202256Y-90704945D01*
X180456996Y-90890024D01*
X180460465Y-90891931D01*
X180460468Y-90891933D01*
X180697760Y-91022385D01*
X180732923Y-91041716D01*
X181025687Y-91157630D01*
X181330670Y-91235936D01*
X181643062Y-91275400D01*
X181957938Y-91275400D01*
X182270330Y-91235936D01*
X182575313Y-91157630D01*
X182868077Y-91041716D01*
X182903240Y-91022385D01*
X183140532Y-90891933D01*
X183140535Y-90891931D01*
X183144004Y-90890024D01*
X183398744Y-90704945D01*
X183628278Y-90489398D01*
X183828987Y-90246782D01*
X183997706Y-89980924D01*
X183999391Y-89977344D01*
X183999394Y-89977338D01*
X184130084Y-89699606D01*
X184130086Y-89699602D01*
X184131773Y-89696016D01*
X184143639Y-89659498D01*
X184227848Y-89400328D01*
X184229075Y-89396552D01*
X184288077Y-89087254D01*
X184307848Y-88773000D01*
X184305714Y-88739082D01*
X185492672Y-88739082D01*
X185492969Y-88744234D01*
X185492969Y-88744238D01*
X185500078Y-88867525D01*
X185505768Y-88966206D01*
X185555783Y-89188141D01*
X185641375Y-89398927D01*
X185760244Y-89592904D01*
X185909198Y-89764861D01*
X186084237Y-89910181D01*
X186088689Y-89912783D01*
X186088694Y-89912786D01*
X186199172Y-89977344D01*
X186280660Y-90024962D01*
X186493193Y-90106120D01*
X186498259Y-90107151D01*
X186498260Y-90107151D01*
X186597361Y-90127313D01*
X186716127Y-90151476D01*
X186843937Y-90156163D01*
X186938311Y-90159624D01*
X186938315Y-90159624D01*
X186943475Y-90159813D01*
X186948595Y-90159157D01*
X186948597Y-90159157D01*
X187164004Y-90131563D01*
X187164005Y-90131563D01*
X187169132Y-90130906D01*
X187255611Y-90104961D01*
X187382091Y-90067015D01*
X187382092Y-90067014D01*
X187387037Y-90065531D01*
X187591339Y-89965444D01*
X187595543Y-89962446D01*
X187595547Y-89962443D01*
X187772347Y-89836333D01*
X187772349Y-89836331D01*
X187776551Y-89833334D01*
X187937699Y-89672747D01*
X187968246Y-89630237D01*
X188067438Y-89492198D01*
X188067442Y-89492192D01*
X188070456Y-89487997D01*
X188132390Y-89362684D01*
X188168961Y-89288688D01*
X188168962Y-89288686D01*
X188171255Y-89284046D01*
X188222789Y-89114429D01*
X188235888Y-89071314D01*
X188235888Y-89071313D01*
X188237390Y-89066370D01*
X188243596Y-89019233D01*
X188266648Y-88844136D01*
X188266648Y-88844132D01*
X188267085Y-88840815D01*
X188268610Y-88778404D01*
X188268660Y-88776365D01*
X188268660Y-88776361D01*
X188268742Y-88773000D01*
X188250101Y-88546264D01*
X188205253Y-88367716D01*
X188195937Y-88330629D01*
X188195937Y-88330628D01*
X188194678Y-88325617D01*
X188141344Y-88202957D01*
X188106022Y-88121722D01*
X188106020Y-88121719D01*
X188103962Y-88116985D01*
X188024359Y-87993936D01*
X187983198Y-87930311D01*
X187983196Y-87930308D01*
X187980390Y-87925971D01*
X187827279Y-87757704D01*
X187648741Y-87616704D01*
X187611037Y-87595890D01*
X187555217Y-87565076D01*
X187449572Y-87506757D01*
X187444703Y-87505033D01*
X187444699Y-87505031D01*
X187239996Y-87432541D01*
X187239992Y-87432540D01*
X187235121Y-87430815D01*
X187230028Y-87429908D01*
X187230025Y-87429907D01*
X187016234Y-87391825D01*
X187016228Y-87391824D01*
X187011145Y-87390919D01*
X186937696Y-87390022D01*
X186788831Y-87388203D01*
X186788829Y-87388203D01*
X186783661Y-87388140D01*
X186558778Y-87422552D01*
X186342535Y-87493231D01*
X186337947Y-87495619D01*
X186337943Y-87495621D01*
X186197633Y-87568662D01*
X186140739Y-87598279D01*
X186136606Y-87601382D01*
X186136603Y-87601384D01*
X185962945Y-87731770D01*
X185958810Y-87734875D01*
X185955238Y-87738613D01*
X185829014Y-87870699D01*
X185801633Y-87899351D01*
X185673431Y-88087289D01*
X185671258Y-88091971D01*
X185671256Y-88091974D01*
X185601663Y-88241901D01*
X185577645Y-88293643D01*
X185516848Y-88512869D01*
X185516299Y-88518006D01*
X185499202Y-88677983D01*
X185492672Y-88739082D01*
X184305714Y-88739082D01*
X184288077Y-88458746D01*
X184229075Y-88149448D01*
X184131773Y-87849984D01*
X184130084Y-87846394D01*
X183999394Y-87568662D01*
X183999390Y-87568655D01*
X183997706Y-87565076D01*
X183989947Y-87552849D01*
X183940856Y-87475495D01*
X183828987Y-87299218D01*
X183628278Y-87056602D01*
X183551338Y-86984350D01*
X183515372Y-86923137D01*
X183518211Y-86852197D01*
X183558951Y-86794053D01*
X183624659Y-86767165D01*
X183637591Y-86766500D01*
X190045906Y-86766500D01*
X190114027Y-86786502D01*
X190135001Y-86803405D01*
X194856001Y-91524405D01*
X194890027Y-91586717D01*
X194884962Y-91657532D01*
X194842415Y-91714368D01*
X194775895Y-91739179D01*
X194766906Y-91739500D01*
X191337369Y-91739500D01*
X191269248Y-91719498D01*
X191222755Y-91665842D01*
X191212651Y-91595568D01*
X191242145Y-91530988D01*
X191261804Y-91512674D01*
X191356580Y-91441643D01*
X191356581Y-91441642D01*
X191363761Y-91436261D01*
X191451115Y-91319705D01*
X191502245Y-91183316D01*
X191509000Y-91121134D01*
X191509000Y-89424866D01*
X191502245Y-89362684D01*
X191451115Y-89226295D01*
X191363761Y-89109739D01*
X191247205Y-89022385D01*
X191110816Y-88971255D01*
X191048634Y-88964500D01*
X189352366Y-88964500D01*
X189290184Y-88971255D01*
X189153795Y-89022385D01*
X189037239Y-89109739D01*
X188949885Y-89226295D01*
X188898755Y-89362684D01*
X188892000Y-89424866D01*
X188892000Y-91121134D01*
X188898755Y-91183316D01*
X188949885Y-91319705D01*
X189037239Y-91436261D01*
X189044419Y-91441642D01*
X189044420Y-91441643D01*
X189139196Y-91512674D01*
X189181711Y-91569533D01*
X189186737Y-91640352D01*
X189152677Y-91702645D01*
X189090345Y-91736635D01*
X189063631Y-91739500D01*
X166167368Y-91739500D01*
X166156185Y-91738973D01*
X166148692Y-91737298D01*
X166140766Y-91737547D01*
X166140765Y-91737547D01*
X166080602Y-91739438D01*
X166076644Y-91739500D01*
X166048744Y-91739500D01*
X166044754Y-91740004D01*
X166032920Y-91740936D01*
X165988711Y-91742326D01*
X165981095Y-91744539D01*
X165981093Y-91744539D01*
X165969252Y-91747979D01*
X165949893Y-91751988D01*
X165948583Y-91752154D01*
X165929803Y-91754526D01*
X165922437Y-91757442D01*
X165922431Y-91757444D01*
X165888698Y-91770800D01*
X165877468Y-91774645D01*
X165842617Y-91784770D01*
X165835007Y-91786981D01*
X165828184Y-91791016D01*
X165817566Y-91797295D01*
X165799813Y-91805992D01*
X165792168Y-91809019D01*
X165780983Y-91813448D01*
X165774568Y-91818109D01*
X165745212Y-91839437D01*
X165735295Y-91845951D01*
X165697238Y-91868458D01*
X165682917Y-91882779D01*
X165667884Y-91895619D01*
X165651493Y-91907528D01*
X165646442Y-91913634D01*
X165623302Y-91941605D01*
X165615312Y-91950384D01*
X162979721Y-94585974D01*
X162917409Y-94620000D01*
X162858014Y-94618585D01*
X162824283Y-94609547D01*
X162824277Y-94609546D01*
X162818963Y-94608122D01*
X162597500Y-94588747D01*
X162376037Y-94608122D01*
X162266719Y-94637414D01*
X162166614Y-94664237D01*
X162166612Y-94664238D01*
X162161304Y-94665660D01*
X162156323Y-94667982D01*
X162156322Y-94667983D01*
X161964811Y-94757286D01*
X161964806Y-94757289D01*
X161959824Y-94759612D01*
X161955317Y-94762768D01*
X161955315Y-94762769D01*
X161782230Y-94883964D01*
X161782227Y-94883966D01*
X161777719Y-94887123D01*
X161620523Y-95044319D01*
X161573539Y-95111419D01*
X161500261Y-95216072D01*
X161493012Y-95226424D01*
X161490689Y-95231406D01*
X161490686Y-95231411D01*
X161441695Y-95336473D01*
X161394777Y-95389758D01*
X161326500Y-95409219D01*
X161258540Y-95388677D01*
X161213305Y-95336473D01*
X161164314Y-95231411D01*
X161164311Y-95231406D01*
X161161988Y-95226424D01*
X161154740Y-95216072D01*
X161081461Y-95111419D01*
X161034477Y-95044319D01*
X160877281Y-94887123D01*
X160872773Y-94883966D01*
X160872770Y-94883964D01*
X160796015Y-94830220D01*
X160695177Y-94759612D01*
X160690195Y-94757289D01*
X160690190Y-94757286D01*
X160498678Y-94667983D01*
X160498677Y-94667982D01*
X160493696Y-94665660D01*
X160488388Y-94664238D01*
X160488386Y-94664237D01*
X160388281Y-94637414D01*
X160278963Y-94608122D01*
X160057500Y-94588747D01*
X159836037Y-94608122D01*
X159726719Y-94637414D01*
X159626614Y-94664237D01*
X159626612Y-94664238D01*
X159621304Y-94665660D01*
X159616323Y-94667982D01*
X159616322Y-94667983D01*
X159424811Y-94757286D01*
X159424806Y-94757289D01*
X159419824Y-94759612D01*
X159415317Y-94762768D01*
X159415315Y-94762769D01*
X159242230Y-94883964D01*
X159242227Y-94883966D01*
X159237719Y-94887123D01*
X159080523Y-95044319D01*
X159033539Y-95111419D01*
X158960261Y-95216072D01*
X158953012Y-95226424D01*
X158950689Y-95231406D01*
X158950686Y-95231411D01*
X158901695Y-95336473D01*
X158854777Y-95389758D01*
X158786500Y-95409219D01*
X158718540Y-95388677D01*
X158673305Y-95336473D01*
X158624314Y-95231411D01*
X158624311Y-95231406D01*
X158621988Y-95226424D01*
X158614740Y-95216072D01*
X158541461Y-95111419D01*
X158494477Y-95044319D01*
X158337281Y-94887123D01*
X158332773Y-94883966D01*
X158332770Y-94883964D01*
X158256015Y-94830220D01*
X158155177Y-94759612D01*
X158150195Y-94757289D01*
X158150190Y-94757286D01*
X157958678Y-94667983D01*
X157958677Y-94667982D01*
X157953696Y-94665660D01*
X157948388Y-94664238D01*
X157948386Y-94664237D01*
X157848281Y-94637414D01*
X157738963Y-94608122D01*
X157517500Y-94588747D01*
X157296037Y-94608122D01*
X157186719Y-94637414D01*
X157086614Y-94664237D01*
X157086612Y-94664238D01*
X157081304Y-94665660D01*
X157076323Y-94667982D01*
X157076322Y-94667983D01*
X156884811Y-94757286D01*
X156884806Y-94757289D01*
X156879824Y-94759612D01*
X156875317Y-94762768D01*
X156875315Y-94762769D01*
X156702230Y-94883964D01*
X156702227Y-94883966D01*
X156697719Y-94887123D01*
X156540523Y-95044319D01*
X156493539Y-95111419D01*
X156420261Y-95216072D01*
X156413012Y-95226424D01*
X156410689Y-95231406D01*
X156410686Y-95231411D01*
X156361695Y-95336473D01*
X156314777Y-95389758D01*
X156246500Y-95409219D01*
X156178540Y-95388677D01*
X156133305Y-95336473D01*
X156084314Y-95231411D01*
X156084311Y-95231406D01*
X156081988Y-95226424D01*
X156074740Y-95216072D01*
X156001461Y-95111419D01*
X155954477Y-95044319D01*
X155797281Y-94887123D01*
X155792773Y-94883966D01*
X155792770Y-94883964D01*
X155716015Y-94830220D01*
X155615177Y-94759612D01*
X155610195Y-94757289D01*
X155610190Y-94757286D01*
X155418678Y-94667983D01*
X155418677Y-94667982D01*
X155413696Y-94665660D01*
X155408388Y-94664238D01*
X155408386Y-94664237D01*
X155308281Y-94637414D01*
X155198963Y-94608122D01*
X154977500Y-94588747D01*
X154756037Y-94608122D01*
X154646719Y-94637414D01*
X154546614Y-94664237D01*
X154546612Y-94664238D01*
X154541304Y-94665660D01*
X154536323Y-94667982D01*
X154536322Y-94667983D01*
X154344811Y-94757286D01*
X154344806Y-94757289D01*
X154339824Y-94759612D01*
X154335317Y-94762768D01*
X154335315Y-94762769D01*
X154162230Y-94883964D01*
X154162227Y-94883966D01*
X154157719Y-94887123D01*
X154000523Y-95044319D01*
X153953539Y-95111419D01*
X153880261Y-95216072D01*
X153873012Y-95226424D01*
X153870689Y-95231406D01*
X153870686Y-95231411D01*
X153821695Y-95336473D01*
X153774777Y-95389758D01*
X153706500Y-95409219D01*
X153638540Y-95388677D01*
X153593305Y-95336473D01*
X153544314Y-95231411D01*
X153544311Y-95231406D01*
X153541988Y-95226424D01*
X153534740Y-95216072D01*
X153461461Y-95111419D01*
X153414477Y-95044319D01*
X153257281Y-94887123D01*
X153252773Y-94883966D01*
X153252770Y-94883964D01*
X153176015Y-94830220D01*
X153075177Y-94759612D01*
X153070195Y-94757289D01*
X153070190Y-94757286D01*
X152878678Y-94667983D01*
X152878677Y-94667982D01*
X152873696Y-94665660D01*
X152868388Y-94664238D01*
X152868386Y-94664237D01*
X152768281Y-94637414D01*
X152658963Y-94608122D01*
X152437500Y-94588747D01*
X152216037Y-94608122D01*
X152106719Y-94637414D01*
X152006614Y-94664237D01*
X152006612Y-94664238D01*
X152001304Y-94665660D01*
X151996323Y-94667982D01*
X151996322Y-94667983D01*
X151804811Y-94757286D01*
X151804806Y-94757289D01*
X151799824Y-94759612D01*
X151795317Y-94762768D01*
X151795315Y-94762769D01*
X151622230Y-94883964D01*
X151622227Y-94883966D01*
X151617719Y-94887123D01*
X151460523Y-95044319D01*
X151413539Y-95111419D01*
X151340261Y-95216072D01*
X151333012Y-95226424D01*
X151330689Y-95231406D01*
X151330686Y-95231411D01*
X151281695Y-95336473D01*
X151234777Y-95389758D01*
X151166500Y-95409219D01*
X151098540Y-95388677D01*
X151053305Y-95336473D01*
X151004314Y-95231411D01*
X151004311Y-95231406D01*
X151001988Y-95226424D01*
X150994740Y-95216072D01*
X150921461Y-95111419D01*
X150874477Y-95044319D01*
X150717281Y-94887123D01*
X150712773Y-94883966D01*
X150712770Y-94883964D01*
X150636015Y-94830220D01*
X150535177Y-94759612D01*
X150530195Y-94757289D01*
X150530190Y-94757286D01*
X150338678Y-94667983D01*
X150338677Y-94667982D01*
X150333696Y-94665660D01*
X150328388Y-94664238D01*
X150328386Y-94664237D01*
X150228281Y-94637414D01*
X150118963Y-94608122D01*
X149897500Y-94588747D01*
X149676037Y-94608122D01*
X149566719Y-94637414D01*
X149466614Y-94664237D01*
X149466612Y-94664238D01*
X149461304Y-94665660D01*
X149456323Y-94667982D01*
X149456322Y-94667983D01*
X149264811Y-94757286D01*
X149264806Y-94757289D01*
X149259824Y-94759612D01*
X149255317Y-94762768D01*
X149255315Y-94762769D01*
X149082230Y-94883964D01*
X149082227Y-94883966D01*
X149077719Y-94887123D01*
X148920523Y-95044319D01*
X148873539Y-95111419D01*
X148800261Y-95216072D01*
X148793012Y-95226424D01*
X148790689Y-95231406D01*
X148790686Y-95231411D01*
X148741695Y-95336473D01*
X148694777Y-95389758D01*
X148626500Y-95409219D01*
X148558540Y-95388677D01*
X148513305Y-95336473D01*
X148464314Y-95231411D01*
X148464311Y-95231406D01*
X148461988Y-95226424D01*
X148454740Y-95216072D01*
X148381461Y-95111419D01*
X148334477Y-95044319D01*
X148177281Y-94887123D01*
X148172773Y-94883966D01*
X148172770Y-94883964D01*
X148096015Y-94830220D01*
X147995177Y-94759612D01*
X147990195Y-94757289D01*
X147990190Y-94757286D01*
X147798678Y-94667983D01*
X147798677Y-94667982D01*
X147793696Y-94665660D01*
X147788388Y-94664238D01*
X147788386Y-94664237D01*
X147688281Y-94637414D01*
X147578963Y-94608122D01*
X147357500Y-94588747D01*
X147136037Y-94608122D01*
X147026719Y-94637414D01*
X146926614Y-94664237D01*
X146926612Y-94664238D01*
X146921304Y-94665660D01*
X146916323Y-94667982D01*
X146916322Y-94667983D01*
X146724811Y-94757286D01*
X146724806Y-94757289D01*
X146719824Y-94759612D01*
X146715317Y-94762768D01*
X146715315Y-94762769D01*
X146542230Y-94883964D01*
X146542227Y-94883966D01*
X146537719Y-94887123D01*
X146380523Y-95044319D01*
X146333539Y-95111419D01*
X146260261Y-95216072D01*
X146253012Y-95226424D01*
X146250689Y-95231406D01*
X146250686Y-95231411D01*
X146201695Y-95336473D01*
X146154777Y-95389758D01*
X146086500Y-95409219D01*
X146018540Y-95388677D01*
X145973305Y-95336473D01*
X145924314Y-95231411D01*
X145924311Y-95231406D01*
X145921988Y-95226424D01*
X145914740Y-95216072D01*
X145841461Y-95111419D01*
X145794477Y-95044319D01*
X145637281Y-94887123D01*
X145632773Y-94883966D01*
X145632770Y-94883964D01*
X145556015Y-94830220D01*
X145455177Y-94759612D01*
X145450195Y-94757289D01*
X145450190Y-94757286D01*
X145258678Y-94667983D01*
X145258677Y-94667982D01*
X145253696Y-94665660D01*
X145248388Y-94664238D01*
X145248386Y-94664237D01*
X145148281Y-94637414D01*
X145038963Y-94608122D01*
X144817500Y-94588747D01*
X144596037Y-94608122D01*
X144486719Y-94637414D01*
X144386614Y-94664237D01*
X144386612Y-94664238D01*
X144381304Y-94665660D01*
X144376323Y-94667982D01*
X144376322Y-94667983D01*
X144184811Y-94757286D01*
X144184806Y-94757289D01*
X144179824Y-94759612D01*
X144175317Y-94762768D01*
X144175315Y-94762769D01*
X144002230Y-94883964D01*
X144002227Y-94883966D01*
X143997719Y-94887123D01*
X143840523Y-95044319D01*
X143793539Y-95111419D01*
X143720261Y-95216072D01*
X143713012Y-95226424D01*
X143710689Y-95231406D01*
X143710686Y-95231411D01*
X143661695Y-95336473D01*
X143614777Y-95389758D01*
X143546500Y-95409219D01*
X143478540Y-95388677D01*
X143433305Y-95336473D01*
X143384314Y-95231411D01*
X143384311Y-95231406D01*
X143381988Y-95226424D01*
X143374740Y-95216072D01*
X143301461Y-95111419D01*
X143254477Y-95044319D01*
X143097281Y-94887123D01*
X143092773Y-94883966D01*
X143092770Y-94883964D01*
X143016015Y-94830220D01*
X142915177Y-94759612D01*
X142910195Y-94757289D01*
X142910190Y-94757286D01*
X142718678Y-94667983D01*
X142718677Y-94667982D01*
X142713696Y-94665660D01*
X142708388Y-94664238D01*
X142708386Y-94664237D01*
X142608281Y-94637414D01*
X142498963Y-94608122D01*
X142277500Y-94588747D01*
X142056037Y-94608122D01*
X141946719Y-94637414D01*
X141846614Y-94664237D01*
X141846612Y-94664238D01*
X141841304Y-94665660D01*
X141836323Y-94667982D01*
X141836322Y-94667983D01*
X141644811Y-94757286D01*
X141644806Y-94757289D01*
X141639824Y-94759612D01*
X141635317Y-94762768D01*
X141635315Y-94762769D01*
X141462230Y-94883964D01*
X141462227Y-94883966D01*
X141457719Y-94887123D01*
X141300523Y-95044319D01*
X141253539Y-95111419D01*
X141180261Y-95216072D01*
X141173012Y-95226424D01*
X141170689Y-95231406D01*
X141170686Y-95231411D01*
X141121419Y-95337065D01*
X141074501Y-95390350D01*
X141006224Y-95409811D01*
X140938264Y-95389269D01*
X140893029Y-95337065D01*
X140843877Y-95231659D01*
X140838397Y-95222168D01*
X140807706Y-95178335D01*
X140797229Y-95169960D01*
X140783782Y-95177028D01*
X140109522Y-95851288D01*
X140101908Y-95865232D01*
X140102039Y-95867065D01*
X140106290Y-95873680D01*
X140784503Y-96551893D01*
X140796277Y-96558323D01*
X140808293Y-96549026D01*
X140838397Y-96506032D01*
X140843877Y-96496541D01*
X140893029Y-96391135D01*
X140939947Y-96337850D01*
X141008224Y-96318389D01*
X141076184Y-96338931D01*
X141121419Y-96391135D01*
X141170686Y-96496789D01*
X141170689Y-96496794D01*
X141173012Y-96501776D01*
X141176168Y-96506283D01*
X141176169Y-96506285D01*
X141212607Y-96558323D01*
X141300523Y-96683881D01*
X141457719Y-96841077D01*
X141462227Y-96844234D01*
X141462230Y-96844236D01*
X141537995Y-96897287D01*
X141639823Y-96968588D01*
X141644805Y-96970911D01*
X141644810Y-96970914D01*
X141835310Y-97059745D01*
X141841304Y-97062540D01*
X141846612Y-97063962D01*
X141846614Y-97063963D01*
X141903815Y-97079290D01*
X142056037Y-97120078D01*
X142277500Y-97139453D01*
X142498963Y-97120078D01*
X142651185Y-97079290D01*
X142708386Y-97063963D01*
X142708388Y-97063962D01*
X142713696Y-97062540D01*
X142719690Y-97059745D01*
X142910190Y-96970914D01*
X142910195Y-96970911D01*
X142915177Y-96968588D01*
X143017005Y-96897287D01*
X143092770Y-96844236D01*
X143092773Y-96844234D01*
X143097281Y-96841077D01*
X143254477Y-96683881D01*
X143342394Y-96558323D01*
X143378831Y-96506285D01*
X143378832Y-96506283D01*
X143381988Y-96501776D01*
X143384311Y-96496794D01*
X143384314Y-96496789D01*
X143433305Y-96391727D01*
X143480223Y-96338442D01*
X143548500Y-96318981D01*
X143616460Y-96339523D01*
X143661695Y-96391727D01*
X143710686Y-96496789D01*
X143710689Y-96496794D01*
X143713012Y-96501776D01*
X143716168Y-96506283D01*
X143716169Y-96506285D01*
X143752607Y-96558323D01*
X143840523Y-96683881D01*
X143997719Y-96841077D01*
X144002227Y-96844234D01*
X144002230Y-96844236D01*
X144077995Y-96897287D01*
X144179823Y-96968588D01*
X144184805Y-96970911D01*
X144184810Y-96970914D01*
X144375310Y-97059745D01*
X144381304Y-97062540D01*
X144386612Y-97063962D01*
X144386614Y-97063963D01*
X144443815Y-97079290D01*
X144596037Y-97120078D01*
X144817500Y-97139453D01*
X145038963Y-97120078D01*
X145191185Y-97079290D01*
X145248386Y-97063963D01*
X145248388Y-97063962D01*
X145253696Y-97062540D01*
X145259690Y-97059745D01*
X145450190Y-96970914D01*
X145450195Y-96970911D01*
X145455177Y-96968588D01*
X145557005Y-96897287D01*
X145632770Y-96844236D01*
X145632773Y-96844234D01*
X145637281Y-96841077D01*
X145794477Y-96683881D01*
X145882394Y-96558323D01*
X145918831Y-96506285D01*
X145918832Y-96506283D01*
X145921988Y-96501776D01*
X145924311Y-96496794D01*
X145924314Y-96496789D01*
X145973305Y-96391727D01*
X146020223Y-96338442D01*
X146088500Y-96318981D01*
X146156460Y-96339523D01*
X146201695Y-96391727D01*
X146250686Y-96496789D01*
X146250689Y-96496794D01*
X146253012Y-96501776D01*
X146256168Y-96506283D01*
X146256169Y-96506285D01*
X146292607Y-96558323D01*
X146380523Y-96683881D01*
X146537719Y-96841077D01*
X146542227Y-96844234D01*
X146542230Y-96844236D01*
X146617995Y-96897287D01*
X146719823Y-96968588D01*
X146724805Y-96970911D01*
X146724810Y-96970914D01*
X146915310Y-97059745D01*
X146921304Y-97062540D01*
X146926612Y-97063962D01*
X146926614Y-97063963D01*
X146983815Y-97079290D01*
X147136037Y-97120078D01*
X147357500Y-97139453D01*
X147578963Y-97120078D01*
X147731185Y-97079290D01*
X147788386Y-97063963D01*
X147788388Y-97063962D01*
X147793696Y-97062540D01*
X147799690Y-97059745D01*
X147990190Y-96970914D01*
X147990195Y-96970911D01*
X147995177Y-96968588D01*
X148097005Y-96897287D01*
X148172770Y-96844236D01*
X148172773Y-96844234D01*
X148177281Y-96841077D01*
X148334477Y-96683881D01*
X148422394Y-96558323D01*
X148458831Y-96506285D01*
X148458832Y-96506283D01*
X148461988Y-96501776D01*
X148464311Y-96496794D01*
X148464314Y-96496789D01*
X148513305Y-96391727D01*
X148560223Y-96338442D01*
X148628500Y-96318981D01*
X148696460Y-96339523D01*
X148741695Y-96391727D01*
X148790686Y-96496789D01*
X148790689Y-96496794D01*
X148793012Y-96501776D01*
X148796168Y-96506283D01*
X148796169Y-96506285D01*
X148832607Y-96558323D01*
X148920523Y-96683881D01*
X149077719Y-96841077D01*
X149082227Y-96844234D01*
X149082230Y-96844236D01*
X149157995Y-96897287D01*
X149259823Y-96968588D01*
X149264805Y-96970911D01*
X149264810Y-96970914D01*
X149455310Y-97059745D01*
X149461304Y-97062540D01*
X149466612Y-97063962D01*
X149466614Y-97063963D01*
X149523815Y-97079290D01*
X149676037Y-97120078D01*
X149897500Y-97139453D01*
X150118963Y-97120078D01*
X150271185Y-97079290D01*
X150328386Y-97063963D01*
X150328388Y-97063962D01*
X150333696Y-97062540D01*
X150339690Y-97059745D01*
X150530190Y-96970914D01*
X150530195Y-96970911D01*
X150535177Y-96968588D01*
X150637005Y-96897287D01*
X150712770Y-96844236D01*
X150712773Y-96844234D01*
X150717281Y-96841077D01*
X150874477Y-96683881D01*
X150962394Y-96558323D01*
X150998831Y-96506285D01*
X150998832Y-96506283D01*
X151001988Y-96501776D01*
X151004311Y-96496794D01*
X151004314Y-96496789D01*
X151053305Y-96391727D01*
X151100223Y-96338442D01*
X151168500Y-96318981D01*
X151236460Y-96339523D01*
X151281695Y-96391727D01*
X151330686Y-96496789D01*
X151330689Y-96496794D01*
X151333012Y-96501776D01*
X151336168Y-96506283D01*
X151336169Y-96506285D01*
X151372607Y-96558323D01*
X151460523Y-96683881D01*
X151617719Y-96841077D01*
X151622227Y-96844234D01*
X151622230Y-96844236D01*
X151697995Y-96897287D01*
X151799823Y-96968588D01*
X151804805Y-96970911D01*
X151804810Y-96970914D01*
X151995310Y-97059745D01*
X152001304Y-97062540D01*
X152006612Y-97063962D01*
X152006614Y-97063963D01*
X152063815Y-97079290D01*
X152216037Y-97120078D01*
X152437500Y-97139453D01*
X152658963Y-97120078D01*
X152811185Y-97079290D01*
X152868386Y-97063963D01*
X152868388Y-97063962D01*
X152873696Y-97062540D01*
X152879690Y-97059745D01*
X153070190Y-96970914D01*
X153070195Y-96970911D01*
X153075177Y-96968588D01*
X153177005Y-96897287D01*
X153252770Y-96844236D01*
X153252773Y-96844234D01*
X153257281Y-96841077D01*
X153414477Y-96683881D01*
X153502394Y-96558323D01*
X153538831Y-96506285D01*
X153538832Y-96506283D01*
X153541988Y-96501776D01*
X153544311Y-96496794D01*
X153544314Y-96496789D01*
X153593305Y-96391727D01*
X153640223Y-96338442D01*
X153708500Y-96318981D01*
X153776460Y-96339523D01*
X153821695Y-96391727D01*
X153870686Y-96496789D01*
X153870689Y-96496794D01*
X153873012Y-96501776D01*
X153876168Y-96506283D01*
X153876169Y-96506285D01*
X153912607Y-96558323D01*
X154000523Y-96683881D01*
X154157719Y-96841077D01*
X154162227Y-96844234D01*
X154162230Y-96844236D01*
X154237995Y-96897287D01*
X154339823Y-96968588D01*
X154344805Y-96970911D01*
X154344810Y-96970914D01*
X154535310Y-97059745D01*
X154541304Y-97062540D01*
X154546612Y-97063962D01*
X154546614Y-97063963D01*
X154603815Y-97079290D01*
X154756037Y-97120078D01*
X154977500Y-97139453D01*
X155198963Y-97120078D01*
X155351185Y-97079290D01*
X155408386Y-97063963D01*
X155408388Y-97063962D01*
X155413696Y-97062540D01*
X155419690Y-97059745D01*
X155610190Y-96970914D01*
X155610195Y-96970911D01*
X155615177Y-96968588D01*
X155717005Y-96897287D01*
X155792770Y-96844236D01*
X155792773Y-96844234D01*
X155797281Y-96841077D01*
X155954477Y-96683881D01*
X156042394Y-96558323D01*
X156078831Y-96506285D01*
X156078832Y-96506283D01*
X156081988Y-96501776D01*
X156084311Y-96496794D01*
X156084314Y-96496789D01*
X156133305Y-96391727D01*
X156180223Y-96338442D01*
X156248500Y-96318981D01*
X156316460Y-96339523D01*
X156361695Y-96391727D01*
X156410686Y-96496789D01*
X156410689Y-96496794D01*
X156413012Y-96501776D01*
X156416168Y-96506283D01*
X156416169Y-96506285D01*
X156452607Y-96558323D01*
X156540523Y-96683881D01*
X156697719Y-96841077D01*
X156702227Y-96844234D01*
X156702230Y-96844236D01*
X156777995Y-96897287D01*
X156879823Y-96968588D01*
X156884805Y-96970911D01*
X156884810Y-96970914D01*
X157075310Y-97059745D01*
X157081304Y-97062540D01*
X157086612Y-97063962D01*
X157086614Y-97063963D01*
X157143815Y-97079290D01*
X157296037Y-97120078D01*
X157517500Y-97139453D01*
X157738963Y-97120078D01*
X157891185Y-97079290D01*
X157948386Y-97063963D01*
X157948388Y-97063962D01*
X157953696Y-97062540D01*
X157959690Y-97059745D01*
X158150190Y-96970914D01*
X158150195Y-96970911D01*
X158155177Y-96968588D01*
X158257005Y-96897287D01*
X158332770Y-96844236D01*
X158332773Y-96844234D01*
X158337281Y-96841077D01*
X158494477Y-96683881D01*
X158582394Y-96558323D01*
X158618831Y-96506285D01*
X158618832Y-96506283D01*
X158621988Y-96501776D01*
X158624311Y-96496794D01*
X158624314Y-96496789D01*
X158673305Y-96391727D01*
X158720223Y-96338442D01*
X158788500Y-96318981D01*
X158856460Y-96339523D01*
X158901695Y-96391727D01*
X158950686Y-96496789D01*
X158950689Y-96496794D01*
X158953012Y-96501776D01*
X158956168Y-96506283D01*
X158956169Y-96506285D01*
X158992607Y-96558323D01*
X159080523Y-96683881D01*
X159237719Y-96841077D01*
X159242227Y-96844234D01*
X159242230Y-96844236D01*
X159317995Y-96897287D01*
X159419823Y-96968588D01*
X159424805Y-96970911D01*
X159424810Y-96970914D01*
X159615310Y-97059745D01*
X159621304Y-97062540D01*
X159626612Y-97063962D01*
X159626614Y-97063963D01*
X159683815Y-97079290D01*
X159836037Y-97120078D01*
X160057500Y-97139453D01*
X160278963Y-97120078D01*
X160431185Y-97079290D01*
X160488386Y-97063963D01*
X160488388Y-97063962D01*
X160493696Y-97062540D01*
X160499690Y-97059745D01*
X160690190Y-96970914D01*
X160690195Y-96970911D01*
X160695177Y-96968588D01*
X160797005Y-96897287D01*
X160872770Y-96844236D01*
X160872773Y-96844234D01*
X160877281Y-96841077D01*
X161034477Y-96683881D01*
X161122394Y-96558323D01*
X161158831Y-96506285D01*
X161158832Y-96506283D01*
X161161988Y-96501776D01*
X161164311Y-96496794D01*
X161164314Y-96496789D01*
X161213305Y-96391727D01*
X161260223Y-96338442D01*
X161328500Y-96318981D01*
X161396460Y-96339523D01*
X161441695Y-96391727D01*
X161490686Y-96496789D01*
X161490689Y-96496794D01*
X161493012Y-96501776D01*
X161496168Y-96506283D01*
X161496169Y-96506285D01*
X161532607Y-96558323D01*
X161620523Y-96683881D01*
X161777719Y-96841077D01*
X161782227Y-96844234D01*
X161782230Y-96844236D01*
X161857995Y-96897287D01*
X161959823Y-96968588D01*
X161964805Y-96970911D01*
X161964810Y-96970914D01*
X162155310Y-97059745D01*
X162161304Y-97062540D01*
X162166612Y-97063962D01*
X162166614Y-97063963D01*
X162223815Y-97079290D01*
X162376037Y-97120078D01*
X162597500Y-97139453D01*
X162818963Y-97120078D01*
X162971185Y-97079290D01*
X163028386Y-97063963D01*
X163028388Y-97063962D01*
X163033696Y-97062540D01*
X163039690Y-97059745D01*
X163230190Y-96970914D01*
X163230195Y-96970911D01*
X163235177Y-96968588D01*
X163337005Y-96897287D01*
X163412770Y-96844236D01*
X163412773Y-96844234D01*
X163417281Y-96841077D01*
X163574477Y-96683881D01*
X163662394Y-96558323D01*
X163698831Y-96506285D01*
X163698832Y-96506283D01*
X163701988Y-96501776D01*
X163704311Y-96496794D01*
X163704314Y-96496789D01*
X163753305Y-96391727D01*
X163800223Y-96338442D01*
X163868500Y-96318981D01*
X163936460Y-96339523D01*
X163981695Y-96391727D01*
X164030686Y-96496789D01*
X164030689Y-96496794D01*
X164033012Y-96501776D01*
X164036168Y-96506283D01*
X164036169Y-96506285D01*
X164072607Y-96558323D01*
X164160523Y-96683881D01*
X164317719Y-96841077D01*
X164322227Y-96844234D01*
X164322230Y-96844236D01*
X164397995Y-96897287D01*
X164499823Y-96968588D01*
X164504805Y-96970911D01*
X164504810Y-96970914D01*
X164695310Y-97059745D01*
X164701304Y-97062540D01*
X164706612Y-97063962D01*
X164706614Y-97063963D01*
X164763815Y-97079290D01*
X164916037Y-97120078D01*
X165137500Y-97139453D01*
X165358963Y-97120078D01*
X165511185Y-97079290D01*
X165568386Y-97063963D01*
X165568388Y-97063962D01*
X165573696Y-97062540D01*
X165579690Y-97059745D01*
X165770190Y-96970914D01*
X165770195Y-96970911D01*
X165775177Y-96968588D01*
X165877005Y-96897287D01*
X165952770Y-96844236D01*
X165952773Y-96844234D01*
X165957281Y-96841077D01*
X166087858Y-96710500D01*
X177037335Y-96710500D01*
X177055965Y-96947211D01*
X177057119Y-96952018D01*
X177057120Y-96952024D01*
X177082982Y-97059745D01*
X177111395Y-97178094D01*
X177113288Y-97182665D01*
X177113289Y-97182667D01*
X177200272Y-97392663D01*
X177202260Y-97397463D01*
X177204846Y-97401683D01*
X177323741Y-97595702D01*
X177323745Y-97595708D01*
X177326324Y-97599916D01*
X177480531Y-97780469D01*
X177661084Y-97934676D01*
X177665292Y-97937255D01*
X177665298Y-97937259D01*
X177726470Y-97974745D01*
X177863537Y-98058740D01*
X177868107Y-98060633D01*
X177868111Y-98060635D01*
X178078333Y-98147711D01*
X178082906Y-98149605D01*
X178163109Y-98168860D01*
X178308976Y-98203880D01*
X178308982Y-98203881D01*
X178313789Y-98205035D01*
X178550500Y-98223665D01*
X178787211Y-98205035D01*
X178792018Y-98203881D01*
X178792024Y-98203880D01*
X178937891Y-98168860D01*
X179018094Y-98149605D01*
X179022667Y-98147711D01*
X179232889Y-98060635D01*
X179232893Y-98060633D01*
X179237463Y-98058740D01*
X179374530Y-97974745D01*
X179426056Y-97943170D01*
X184182660Y-97943170D01*
X184188387Y-97950820D01*
X184359542Y-98055705D01*
X184368337Y-98060187D01*
X184578488Y-98147234D01*
X184587873Y-98150283D01*
X184809054Y-98203385D01*
X184818801Y-98204928D01*
X185045570Y-98222775D01*
X185055430Y-98222775D01*
X185282199Y-98204928D01*
X185291946Y-98203385D01*
X185513127Y-98150283D01*
X185522512Y-98147234D01*
X185732663Y-98060187D01*
X185741458Y-98055705D01*
X185908945Y-97953068D01*
X185918407Y-97942610D01*
X185914624Y-97933834D01*
X185063312Y-97082522D01*
X185049368Y-97074908D01*
X185047535Y-97075039D01*
X185040920Y-97079290D01*
X184189420Y-97930790D01*
X184182660Y-97943170D01*
X179426056Y-97943170D01*
X179435702Y-97937259D01*
X179435708Y-97937255D01*
X179439916Y-97934676D01*
X179620469Y-97780469D01*
X179774676Y-97599916D01*
X179777255Y-97595708D01*
X179777259Y-97595702D01*
X179896154Y-97401683D01*
X179898740Y-97397463D01*
X179900729Y-97392663D01*
X179987711Y-97182667D01*
X179987712Y-97182665D01*
X179989605Y-97178094D01*
X180018018Y-97059745D01*
X180043880Y-96952024D01*
X180043881Y-96952018D01*
X180045035Y-96947211D01*
X180063277Y-96715430D01*
X183538225Y-96715430D01*
X183556072Y-96942199D01*
X183557615Y-96951946D01*
X183610717Y-97173127D01*
X183613766Y-97182512D01*
X183700813Y-97392663D01*
X183705295Y-97401458D01*
X183807932Y-97568945D01*
X183818390Y-97578407D01*
X183827166Y-97574624D01*
X184678478Y-96723312D01*
X184684856Y-96711632D01*
X185414908Y-96711632D01*
X185415039Y-96713465D01*
X185419290Y-96720080D01*
X186270790Y-97571580D01*
X186283170Y-97578340D01*
X186290820Y-97572613D01*
X186395705Y-97401458D01*
X186400187Y-97392663D01*
X186487234Y-97182512D01*
X186490283Y-97173127D01*
X186543385Y-96951946D01*
X186544928Y-96942199D01*
X186562775Y-96715430D01*
X186562775Y-96705570D01*
X186544928Y-96478801D01*
X186543385Y-96469054D01*
X186490283Y-96247873D01*
X186487234Y-96238488D01*
X186400187Y-96028337D01*
X186395705Y-96019542D01*
X186293068Y-95852055D01*
X186282610Y-95842593D01*
X186273834Y-95846376D01*
X185422522Y-96697688D01*
X185414908Y-96711632D01*
X184684856Y-96711632D01*
X184686092Y-96709368D01*
X184685961Y-96707535D01*
X184681710Y-96700920D01*
X183830210Y-95849420D01*
X183817830Y-95842660D01*
X183810180Y-95848387D01*
X183705295Y-96019542D01*
X183700813Y-96028337D01*
X183613766Y-96238488D01*
X183610717Y-96247873D01*
X183557615Y-96469054D01*
X183556072Y-96478801D01*
X183538225Y-96705570D01*
X183538225Y-96715430D01*
X180063277Y-96715430D01*
X180063665Y-96710500D01*
X180045035Y-96473789D01*
X179989605Y-96242906D01*
X179983832Y-96228968D01*
X179900635Y-96028111D01*
X179900633Y-96028107D01*
X179898740Y-96023537D01*
X179808888Y-95876912D01*
X179777259Y-95825298D01*
X179777255Y-95825292D01*
X179774676Y-95821084D01*
X179620469Y-95640531D01*
X179616018Y-95636729D01*
X179502947Y-95540158D01*
X179439916Y-95486324D01*
X179435708Y-95483745D01*
X179435702Y-95483741D01*
X179426970Y-95478390D01*
X184182593Y-95478390D01*
X184186376Y-95487166D01*
X185037688Y-96338478D01*
X185051632Y-96346092D01*
X185053465Y-96345961D01*
X185060080Y-96341710D01*
X185911580Y-95490210D01*
X185918340Y-95477830D01*
X185912613Y-95470180D01*
X185741458Y-95365295D01*
X185732663Y-95360813D01*
X185522512Y-95273766D01*
X185513127Y-95270717D01*
X185291946Y-95217615D01*
X185282199Y-95216072D01*
X185055430Y-95198225D01*
X185045570Y-95198225D01*
X184818801Y-95216072D01*
X184809054Y-95217615D01*
X184587873Y-95270717D01*
X184578488Y-95273766D01*
X184368337Y-95360813D01*
X184359542Y-95365295D01*
X184192055Y-95467932D01*
X184182593Y-95478390D01*
X179426970Y-95478390D01*
X179241683Y-95364846D01*
X179237463Y-95362260D01*
X179232893Y-95360367D01*
X179232889Y-95360365D01*
X179022667Y-95273289D01*
X179022665Y-95273288D01*
X179018094Y-95271395D01*
X178909996Y-95245443D01*
X178792024Y-95217120D01*
X178792018Y-95217119D01*
X178787211Y-95215965D01*
X178550500Y-95197335D01*
X178313789Y-95215965D01*
X178308982Y-95217119D01*
X178308976Y-95217120D01*
X178191004Y-95245443D01*
X178082906Y-95271395D01*
X178078335Y-95273288D01*
X178078333Y-95273289D01*
X177868111Y-95360365D01*
X177868107Y-95360367D01*
X177863537Y-95362260D01*
X177859317Y-95364846D01*
X177665298Y-95483741D01*
X177665292Y-95483745D01*
X177661084Y-95486324D01*
X177598053Y-95540158D01*
X177484983Y-95636729D01*
X177480531Y-95640531D01*
X177326324Y-95821084D01*
X177323745Y-95825292D01*
X177323741Y-95825298D01*
X177292112Y-95876912D01*
X177202260Y-96023537D01*
X177200367Y-96028107D01*
X177200365Y-96028111D01*
X177117168Y-96228968D01*
X177111395Y-96242906D01*
X177055965Y-96473789D01*
X177037335Y-96710500D01*
X166087858Y-96710500D01*
X166114477Y-96683881D01*
X166202394Y-96558323D01*
X166238831Y-96506285D01*
X166238832Y-96506283D01*
X166241988Y-96501776D01*
X166244311Y-96496794D01*
X166244314Y-96496789D01*
X166333617Y-96305278D01*
X166333618Y-96305277D01*
X166335940Y-96300296D01*
X166393478Y-96085563D01*
X166412853Y-95864100D01*
X166393478Y-95642637D01*
X166346805Y-95468453D01*
X166337363Y-95433214D01*
X166337362Y-95433212D01*
X166335940Y-95427904D01*
X166333595Y-95422875D01*
X166244314Y-95231411D01*
X166244311Y-95231406D01*
X166241988Y-95226424D01*
X166234740Y-95216072D01*
X166161461Y-95111419D01*
X166114477Y-95044319D01*
X165957281Y-94887123D01*
X165952773Y-94883966D01*
X165952770Y-94883964D01*
X165876015Y-94830220D01*
X165775177Y-94759612D01*
X165770195Y-94757289D01*
X165770190Y-94757286D01*
X165578678Y-94667983D01*
X165578677Y-94667982D01*
X165573696Y-94665660D01*
X165568388Y-94664238D01*
X165568386Y-94664237D01*
X165468281Y-94637414D01*
X165358963Y-94608122D01*
X165137500Y-94588747D01*
X165132025Y-94589226D01*
X165078267Y-94593929D01*
X165008662Y-94579939D01*
X164957670Y-94530540D01*
X164941480Y-94461414D01*
X164965233Y-94394509D01*
X164978191Y-94379313D01*
X166314099Y-93043405D01*
X166376411Y-93009379D01*
X166403194Y-93006500D01*
X169627991Y-93006500D01*
X169696112Y-93026502D01*
X169742605Y-93080158D01*
X169752709Y-93150432D01*
X169745973Y-93176729D01*
X169701529Y-93295282D01*
X169701527Y-93295288D01*
X169698755Y-93302684D01*
X169692000Y-93364866D01*
X169692000Y-95061134D01*
X169698755Y-95123316D01*
X169749885Y-95259705D01*
X169837239Y-95376261D01*
X169953795Y-95463615D01*
X170090184Y-95514745D01*
X170152366Y-95521500D01*
X171848634Y-95521500D01*
X171910816Y-95514745D01*
X172047205Y-95463615D01*
X172163761Y-95376261D01*
X172251115Y-95259705D01*
X172302245Y-95123316D01*
X172309000Y-95061134D01*
X172309000Y-93364866D01*
X172302245Y-93302684D01*
X172299473Y-93295288D01*
X172299471Y-93295282D01*
X172255027Y-93176729D01*
X172249844Y-93105922D01*
X172283765Y-93043553D01*
X172346020Y-93009424D01*
X172373009Y-93006500D01*
X195650186Y-93006500D01*
X195718307Y-93026502D01*
X195739281Y-93043404D01*
X196910653Y-94214774D01*
X196918191Y-94223058D01*
X196922303Y-94229538D01*
X196955335Y-94260557D01*
X196971970Y-94276178D01*
X196974812Y-94278933D01*
X196994534Y-94298655D01*
X196997658Y-94301078D01*
X196997662Y-94301082D01*
X196997727Y-94301132D01*
X197006748Y-94308837D01*
X197038982Y-94339106D01*
X197045930Y-94342925D01*
X197045932Y-94342927D01*
X197056735Y-94348866D01*
X197073262Y-94359722D01*
X197083001Y-94367277D01*
X197083003Y-94367278D01*
X197089263Y-94372134D01*
X197105853Y-94379313D01*
X197129837Y-94389692D01*
X197140495Y-94394913D01*
X197179243Y-94416215D01*
X197198875Y-94421256D01*
X197217567Y-94427656D01*
X197236159Y-94435701D01*
X197279828Y-94442617D01*
X197291448Y-94445024D01*
X197311167Y-94450087D01*
X197326596Y-94454049D01*
X197326597Y-94454049D01*
X197334273Y-94456020D01*
X197354527Y-94456020D01*
X197374239Y-94457571D01*
X197394246Y-94460740D01*
X197402138Y-94459994D01*
X197438264Y-94456579D01*
X197450122Y-94456020D01*
X206925426Y-94456020D01*
X206993547Y-94476022D01*
X207014521Y-94492925D01*
X207746843Y-95225247D01*
X207754387Y-95233537D01*
X207758500Y-95240018D01*
X207764277Y-95245443D01*
X207808167Y-95286658D01*
X207811009Y-95289413D01*
X207830731Y-95309135D01*
X207833855Y-95311558D01*
X207833859Y-95311562D01*
X207833924Y-95311612D01*
X207842945Y-95319317D01*
X207875179Y-95349586D01*
X207882127Y-95353405D01*
X207882129Y-95353407D01*
X207892932Y-95359346D01*
X207909459Y-95370202D01*
X207919198Y-95377757D01*
X207919200Y-95377758D01*
X207925460Y-95382614D01*
X207966040Y-95400174D01*
X207976688Y-95405391D01*
X208001476Y-95419018D01*
X208015440Y-95426695D01*
X208023116Y-95428666D01*
X208023119Y-95428667D01*
X208035062Y-95431733D01*
X208053767Y-95438137D01*
X208072355Y-95446181D01*
X208080178Y-95447420D01*
X208080188Y-95447423D01*
X208116024Y-95453099D01*
X208127644Y-95455505D01*
X208159233Y-95463615D01*
X208170470Y-95466500D01*
X208190724Y-95466500D01*
X208210434Y-95468051D01*
X208230443Y-95471220D01*
X208238335Y-95470474D01*
X208257080Y-95468702D01*
X208274462Y-95467059D01*
X208286319Y-95466500D01*
X210327991Y-95466500D01*
X210396112Y-95486502D01*
X210442605Y-95540158D01*
X210452709Y-95610432D01*
X210445973Y-95636729D01*
X210401529Y-95755282D01*
X210401527Y-95755288D01*
X210398755Y-95762684D01*
X210392000Y-95824866D01*
X210392000Y-97521134D01*
X210398755Y-97583316D01*
X210449885Y-97719705D01*
X210537239Y-97836261D01*
X210653795Y-97923615D01*
X210790184Y-97974745D01*
X210852366Y-97981500D01*
X212548634Y-97981500D01*
X212610816Y-97974745D01*
X212747205Y-97923615D01*
X212863761Y-97836261D01*
X212951115Y-97719705D01*
X213002245Y-97583316D01*
X213009000Y-97521134D01*
X213009000Y-95824866D01*
X213002245Y-95762684D01*
X212999473Y-95755288D01*
X212999471Y-95755282D01*
X212955027Y-95636729D01*
X212949844Y-95565922D01*
X212983765Y-95503553D01*
X213046020Y-95469424D01*
X213073009Y-95466500D01*
X215501733Y-95466500D01*
X215512916Y-95467027D01*
X215520409Y-95468702D01*
X215528335Y-95468453D01*
X215528336Y-95468453D01*
X215588486Y-95466562D01*
X215592445Y-95466500D01*
X215620356Y-95466500D01*
X215624291Y-95466003D01*
X215624356Y-95465995D01*
X215636193Y-95465062D01*
X215668451Y-95464048D01*
X215672470Y-95463922D01*
X215680389Y-95463673D01*
X215699843Y-95458021D01*
X215719200Y-95454013D01*
X215731431Y-95452468D01*
X215731433Y-95452468D01*
X215737294Y-95451727D01*
X215739298Y-95451474D01*
X215739339Y-95451797D01*
X215805622Y-95454071D01*
X215863997Y-95494480D01*
X215891259Y-95560034D01*
X215892000Y-95573679D01*
X215892000Y-97321134D01*
X215898755Y-97383316D01*
X215949885Y-97519705D01*
X216037239Y-97636261D01*
X216153795Y-97723615D01*
X216290184Y-97774745D01*
X216352366Y-97781500D01*
X218448634Y-97781500D01*
X218510816Y-97774745D01*
X218647205Y-97723615D01*
X218763761Y-97636261D01*
X218769143Y-97629080D01*
X218844526Y-97528497D01*
X218901385Y-97485982D01*
X218972204Y-97480956D01*
X219010517Y-97498176D01*
X219011379Y-97496770D01*
X219209542Y-97618205D01*
X219218337Y-97622687D01*
X219428488Y-97709734D01*
X219437873Y-97712783D01*
X219659054Y-97765885D01*
X219668801Y-97767428D01*
X219895570Y-97785275D01*
X219905430Y-97785275D01*
X220132199Y-97767428D01*
X220141946Y-97765885D01*
X220363127Y-97712783D01*
X220372512Y-97709734D01*
X220582663Y-97622687D01*
X220591458Y-97618205D01*
X220758945Y-97515568D01*
X220768407Y-97505110D01*
X220764624Y-97496334D01*
X219630385Y-96362095D01*
X219596359Y-96299783D01*
X219601424Y-96228968D01*
X219630385Y-96183905D01*
X219811405Y-96002885D01*
X219873717Y-95968859D01*
X219944532Y-95973924D01*
X219989595Y-96002885D01*
X221120790Y-97134080D01*
X221159148Y-97155026D01*
X221194572Y-97183782D01*
X221203111Y-97193780D01*
X221330531Y-97342969D01*
X221511084Y-97497176D01*
X221515292Y-97499755D01*
X221515298Y-97499759D01*
X221708584Y-97618205D01*
X221713537Y-97621240D01*
X221718107Y-97623133D01*
X221718111Y-97623135D01*
X221928333Y-97710211D01*
X221932906Y-97712105D01*
X222013109Y-97731360D01*
X222158976Y-97766380D01*
X222158982Y-97766381D01*
X222163789Y-97767535D01*
X222400500Y-97786165D01*
X222637211Y-97767535D01*
X222642018Y-97766381D01*
X222642024Y-97766380D01*
X222787891Y-97731360D01*
X222868094Y-97712105D01*
X222872667Y-97710211D01*
X223082889Y-97623135D01*
X223082893Y-97623133D01*
X223087463Y-97621240D01*
X223092416Y-97618205D01*
X223285702Y-97499759D01*
X223285708Y-97499755D01*
X223289916Y-97497176D01*
X223470469Y-97342969D01*
X223624676Y-97162416D01*
X223627255Y-97158208D01*
X223627259Y-97158202D01*
X223746154Y-96964183D01*
X223748740Y-96959963D01*
X223752029Y-96952024D01*
X223837711Y-96745167D01*
X223837712Y-96745165D01*
X223839605Y-96740594D01*
X223867660Y-96623735D01*
X223893880Y-96514524D01*
X223893881Y-96514518D01*
X223895035Y-96509711D01*
X223913665Y-96273000D01*
X223895035Y-96036289D01*
X223891015Y-96019542D01*
X223845097Y-95828283D01*
X223839605Y-95805406D01*
X223818843Y-95755282D01*
X223750635Y-95590611D01*
X223750633Y-95590607D01*
X223748740Y-95586037D01*
X223741167Y-95573679D01*
X223627259Y-95387798D01*
X223627255Y-95387792D01*
X223624676Y-95383584D01*
X223470469Y-95203031D01*
X223289916Y-95048824D01*
X223285708Y-95046245D01*
X223285702Y-95046241D01*
X223091683Y-94927346D01*
X223087463Y-94924760D01*
X223082893Y-94922867D01*
X223082889Y-94922865D01*
X222872667Y-94835789D01*
X222872665Y-94835788D01*
X222868094Y-94833895D01*
X222749083Y-94805323D01*
X222642024Y-94779620D01*
X222642018Y-94779619D01*
X222637211Y-94778465D01*
X222400500Y-94759835D01*
X222163789Y-94778465D01*
X222158982Y-94779619D01*
X222158976Y-94779620D01*
X222002875Y-94817097D01*
X221940549Y-94832060D01*
X221869642Y-94828513D01*
X221822041Y-94798636D01*
X221304152Y-94280747D01*
X221296612Y-94272461D01*
X221292500Y-94265982D01*
X221242848Y-94219356D01*
X221240007Y-94216602D01*
X221220270Y-94196865D01*
X221217073Y-94194385D01*
X221208051Y-94186680D01*
X221193545Y-94173058D01*
X221175821Y-94156414D01*
X221168875Y-94152595D01*
X221168872Y-94152593D01*
X221158066Y-94146652D01*
X221141547Y-94135801D01*
X221139957Y-94134568D01*
X221125541Y-94123386D01*
X221118272Y-94120241D01*
X221118268Y-94120238D01*
X221084963Y-94105826D01*
X221074313Y-94100609D01*
X221035560Y-94079305D01*
X221015937Y-94074267D01*
X220997234Y-94067863D01*
X220985920Y-94062967D01*
X220985919Y-94062967D01*
X220978645Y-94059819D01*
X220970822Y-94058580D01*
X220970812Y-94058577D01*
X220934976Y-94052901D01*
X220923356Y-94050495D01*
X220888211Y-94041472D01*
X220888210Y-94041472D01*
X220880530Y-94039500D01*
X220860276Y-94039500D01*
X220840565Y-94037949D01*
X220828386Y-94036020D01*
X220820557Y-94034780D01*
X220791286Y-94037547D01*
X220776539Y-94038941D01*
X220764681Y-94039500D01*
X215819267Y-94039500D01*
X215808084Y-94038973D01*
X215800591Y-94037298D01*
X215792665Y-94037547D01*
X215792664Y-94037547D01*
X215732514Y-94039438D01*
X215728555Y-94039500D01*
X215700644Y-94039500D01*
X215696710Y-94039997D01*
X215696709Y-94039997D01*
X215696644Y-94040005D01*
X215684807Y-94040938D01*
X215652990Y-94041938D01*
X215648529Y-94042078D01*
X215640610Y-94042327D01*
X215622954Y-94047456D01*
X215621158Y-94047978D01*
X215601806Y-94051986D01*
X215594735Y-94052880D01*
X215581703Y-94054526D01*
X215574334Y-94057443D01*
X215574332Y-94057444D01*
X215540597Y-94070800D01*
X215529369Y-94074645D01*
X215486907Y-94086982D01*
X215480085Y-94091016D01*
X215480079Y-94091019D01*
X215469468Y-94097294D01*
X215451718Y-94105990D01*
X215440256Y-94110528D01*
X215440251Y-94110531D01*
X215432883Y-94113448D01*
X215415824Y-94125842D01*
X215397125Y-94139427D01*
X215387207Y-94145943D01*
X215355963Y-94164421D01*
X215349137Y-94168458D01*
X215344348Y-94173247D01*
X215278744Y-94199006D01*
X215267600Y-94199500D01*
X210735000Y-94199500D01*
X210666879Y-94179498D01*
X210620386Y-94125842D01*
X210609000Y-94073500D01*
X210609000Y-92524866D01*
X210602245Y-92462684D01*
X210551115Y-92326295D01*
X210463761Y-92209739D01*
X210347205Y-92122385D01*
X210210816Y-92071255D01*
X210148634Y-92064500D01*
X208452366Y-92064500D01*
X208390184Y-92071255D01*
X208253795Y-92122385D01*
X208137239Y-92209739D01*
X208049885Y-92326295D01*
X207998755Y-92462684D01*
X207992000Y-92524866D01*
X207992000Y-92613500D01*
X207971998Y-92681621D01*
X207918342Y-92728114D01*
X207866000Y-92739500D01*
X197915095Y-92739500D01*
X197846974Y-92719498D01*
X197826000Y-92702595D01*
X195486307Y-90362902D01*
X195452281Y-90300590D01*
X195457346Y-90229775D01*
X195499893Y-90172939D01*
X195566413Y-90148128D01*
X195595897Y-90150036D01*
X195595921Y-90149833D01*
X195599678Y-90150281D01*
X195600515Y-90150335D01*
X195601057Y-90150445D01*
X195601063Y-90150446D01*
X195606127Y-90151476D01*
X195733937Y-90156163D01*
X195828311Y-90159624D01*
X195828315Y-90159624D01*
X195833475Y-90159813D01*
X195838595Y-90159157D01*
X195838597Y-90159157D01*
X196054004Y-90131563D01*
X196054005Y-90131563D01*
X196059132Y-90130906D01*
X196145611Y-90104961D01*
X196272091Y-90067015D01*
X196272092Y-90067014D01*
X196277037Y-90065531D01*
X196481339Y-89965444D01*
X196485543Y-89962446D01*
X196485547Y-89962443D01*
X196662347Y-89836333D01*
X196662349Y-89836331D01*
X196666551Y-89833334D01*
X196827699Y-89672747D01*
X196858246Y-89630237D01*
X196957438Y-89492198D01*
X196957442Y-89492192D01*
X196960456Y-89487997D01*
X197022390Y-89362684D01*
X197058961Y-89288688D01*
X197058962Y-89288686D01*
X197061255Y-89284046D01*
X197112789Y-89114429D01*
X197125888Y-89071314D01*
X197125888Y-89071313D01*
X197127390Y-89066370D01*
X197133596Y-89019233D01*
X197156648Y-88844136D01*
X197156648Y-88844132D01*
X197157085Y-88840815D01*
X197158610Y-88778404D01*
X197158660Y-88776365D01*
X197158660Y-88776361D01*
X197158742Y-88773000D01*
X197140101Y-88546264D01*
X197101266Y-88391656D01*
X197104070Y-88320716D01*
X197144783Y-88262552D01*
X197208332Y-88235874D01*
X197417735Y-88210534D01*
X197682627Y-88141041D01*
X197686587Y-88139401D01*
X197686592Y-88139399D01*
X197809131Y-88088641D01*
X197935636Y-88036241D01*
X198124340Y-87925971D01*
X198168379Y-87900237D01*
X198168380Y-87900236D01*
X198172082Y-87898073D01*
X198291608Y-87804353D01*
X198357554Y-87778062D01*
X198427248Y-87791597D01*
X198478561Y-87840664D01*
X198495201Y-87909683D01*
X198489185Y-87942443D01*
X198421925Y-88149448D01*
X198362923Y-88458746D01*
X198343152Y-88773000D01*
X198362923Y-89087254D01*
X198421925Y-89396552D01*
X198423152Y-89400328D01*
X198507362Y-89659498D01*
X198519227Y-89696016D01*
X198520914Y-89699602D01*
X198520916Y-89699606D01*
X198651606Y-89977338D01*
X198651609Y-89977344D01*
X198653294Y-89980924D01*
X198822013Y-90246782D01*
X199022722Y-90489398D01*
X199252256Y-90704945D01*
X199506996Y-90890024D01*
X199510465Y-90891931D01*
X199510468Y-90891933D01*
X199747760Y-91022385D01*
X199782923Y-91041716D01*
X200075687Y-91157630D01*
X200380670Y-91235936D01*
X200693062Y-91275400D01*
X201007938Y-91275400D01*
X201320330Y-91235936D01*
X201625313Y-91157630D01*
X201918077Y-91041716D01*
X201953240Y-91022385D01*
X202190532Y-90891933D01*
X202190535Y-90891931D01*
X202194004Y-90890024D01*
X202448744Y-90704945D01*
X202678278Y-90489398D01*
X202878987Y-90246782D01*
X203047706Y-89980924D01*
X203049391Y-89977344D01*
X203049394Y-89977338D01*
X203180084Y-89699606D01*
X203180086Y-89699602D01*
X203181773Y-89696016D01*
X203193639Y-89659498D01*
X203277848Y-89400328D01*
X203279075Y-89396552D01*
X203338077Y-89087254D01*
X203357848Y-88773000D01*
X203355714Y-88739082D01*
X204542672Y-88739082D01*
X204542969Y-88744234D01*
X204542969Y-88744238D01*
X204550078Y-88867525D01*
X204555768Y-88966206D01*
X204605783Y-89188141D01*
X204691375Y-89398927D01*
X204810244Y-89592904D01*
X204959198Y-89764861D01*
X205134237Y-89910181D01*
X205138689Y-89912783D01*
X205138694Y-89912786D01*
X205249172Y-89977344D01*
X205330660Y-90024962D01*
X205543193Y-90106120D01*
X205548259Y-90107151D01*
X205548260Y-90107151D01*
X205647361Y-90127313D01*
X205766127Y-90151476D01*
X205893937Y-90156163D01*
X205988311Y-90159624D01*
X205988315Y-90159624D01*
X205993475Y-90159813D01*
X205998595Y-90159157D01*
X205998597Y-90159157D01*
X206214004Y-90131563D01*
X206214005Y-90131563D01*
X206219132Y-90130906D01*
X206305611Y-90104961D01*
X206432091Y-90067015D01*
X206432092Y-90067014D01*
X206437037Y-90065531D01*
X206641339Y-89965444D01*
X206645543Y-89962446D01*
X206645547Y-89962443D01*
X206822347Y-89836333D01*
X206822349Y-89836331D01*
X206826551Y-89833334D01*
X206987699Y-89672747D01*
X207018246Y-89630237D01*
X207117438Y-89492198D01*
X207117442Y-89492192D01*
X207120456Y-89487997D01*
X207182390Y-89362684D01*
X207218961Y-89288688D01*
X207218962Y-89288686D01*
X207221255Y-89284046D01*
X207272789Y-89114429D01*
X207285888Y-89071314D01*
X207285888Y-89071313D01*
X207287390Y-89066370D01*
X207293596Y-89019233D01*
X207312848Y-88873000D01*
X210387002Y-88873000D01*
X210406957Y-89101087D01*
X210408381Y-89106400D01*
X210408381Y-89106402D01*
X210442760Y-89234703D01*
X210466216Y-89322243D01*
X210468539Y-89327224D01*
X210468539Y-89327225D01*
X210560651Y-89524762D01*
X210560654Y-89524767D01*
X210562977Y-89529749D01*
X210566134Y-89534257D01*
X210690447Y-89711794D01*
X210694302Y-89717300D01*
X210856200Y-89879198D01*
X210860708Y-89882355D01*
X210860711Y-89882357D01*
X210895735Y-89906881D01*
X211043751Y-90010523D01*
X211048733Y-90012846D01*
X211048738Y-90012849D01*
X211164899Y-90067015D01*
X211251257Y-90107284D01*
X211256565Y-90108706D01*
X211256567Y-90108707D01*
X211467098Y-90165119D01*
X211467100Y-90165119D01*
X211472413Y-90166543D01*
X211700500Y-90186498D01*
X211928587Y-90166543D01*
X211933900Y-90165119D01*
X211933902Y-90165119D01*
X212144433Y-90108707D01*
X212144435Y-90108706D01*
X212149743Y-90107284D01*
X212236101Y-90067015D01*
X212352262Y-90012849D01*
X212352267Y-90012846D01*
X212357249Y-90010523D01*
X212505265Y-89906881D01*
X212540289Y-89882357D01*
X212540292Y-89882355D01*
X212544800Y-89879198D01*
X212706698Y-89717300D01*
X212710554Y-89711794D01*
X212834866Y-89534257D01*
X212838023Y-89529749D01*
X212840346Y-89524767D01*
X212840349Y-89524762D01*
X212932461Y-89327225D01*
X212932461Y-89327224D01*
X212934784Y-89322243D01*
X212958241Y-89234703D01*
X212992619Y-89106402D01*
X212992619Y-89106400D01*
X212994043Y-89101087D01*
X213013998Y-88873000D01*
X213002282Y-88739082D01*
X213432672Y-88739082D01*
X213432969Y-88744234D01*
X213432969Y-88744238D01*
X213440078Y-88867525D01*
X213445768Y-88966206D01*
X213495783Y-89188141D01*
X213581375Y-89398927D01*
X213700244Y-89592904D01*
X213849198Y-89764861D01*
X214024237Y-89910181D01*
X214028689Y-89912783D01*
X214028694Y-89912786D01*
X214139172Y-89977344D01*
X214220660Y-90024962D01*
X214433193Y-90106120D01*
X214438259Y-90107151D01*
X214438260Y-90107151D01*
X214537361Y-90127313D01*
X214656127Y-90151476D01*
X214783937Y-90156163D01*
X214878311Y-90159624D01*
X214878315Y-90159624D01*
X214883475Y-90159813D01*
X214888595Y-90159157D01*
X214888597Y-90159157D01*
X215104004Y-90131563D01*
X215104005Y-90131563D01*
X215109132Y-90130906D01*
X215195611Y-90104961D01*
X215322091Y-90067015D01*
X215322092Y-90067014D01*
X215327037Y-90065531D01*
X215531339Y-89965444D01*
X215535543Y-89962446D01*
X215535547Y-89962443D01*
X215712347Y-89836333D01*
X215712349Y-89836331D01*
X215716551Y-89833334D01*
X215877699Y-89672747D01*
X215908246Y-89630237D01*
X216007438Y-89492198D01*
X216007442Y-89492192D01*
X216010456Y-89487997D01*
X216072390Y-89362684D01*
X216108961Y-89288688D01*
X216108962Y-89288686D01*
X216111255Y-89284046D01*
X216162789Y-89114429D01*
X216175888Y-89071314D01*
X216175888Y-89071313D01*
X216177390Y-89066370D01*
X216183596Y-89019233D01*
X216206648Y-88844136D01*
X216206648Y-88844132D01*
X216207085Y-88840815D01*
X216208610Y-88778404D01*
X216208660Y-88776365D01*
X216208660Y-88776361D01*
X216208742Y-88773000D01*
X216190101Y-88546264D01*
X216151266Y-88391656D01*
X216154070Y-88320716D01*
X216194783Y-88262552D01*
X216258332Y-88235874D01*
X216467735Y-88210534D01*
X216732627Y-88141041D01*
X216736587Y-88139401D01*
X216736592Y-88139399D01*
X216859131Y-88088641D01*
X216985636Y-88036241D01*
X217174340Y-87925971D01*
X217218379Y-87900237D01*
X217218380Y-87900236D01*
X217222082Y-87898073D01*
X217341608Y-87804353D01*
X217407554Y-87778062D01*
X217477248Y-87791597D01*
X217528561Y-87840664D01*
X217545201Y-87909683D01*
X217539185Y-87942443D01*
X217471925Y-88149448D01*
X217412923Y-88458746D01*
X217393152Y-88773000D01*
X217412923Y-89087254D01*
X217471925Y-89396552D01*
X217473152Y-89400328D01*
X217557362Y-89659498D01*
X217569227Y-89696016D01*
X217570914Y-89699602D01*
X217570916Y-89699606D01*
X217701606Y-89977338D01*
X217701609Y-89977344D01*
X217703294Y-89980924D01*
X217872013Y-90246782D01*
X218072722Y-90489398D01*
X218302256Y-90704945D01*
X218556996Y-90890024D01*
X218560465Y-90891931D01*
X218560468Y-90891933D01*
X218797760Y-91022385D01*
X218832923Y-91041716D01*
X219125687Y-91157630D01*
X219430670Y-91235936D01*
X219743062Y-91275400D01*
X220057938Y-91275400D01*
X220370330Y-91235936D01*
X220675313Y-91157630D01*
X220968077Y-91041716D01*
X221003240Y-91022385D01*
X221240532Y-90891933D01*
X221240535Y-90891931D01*
X221244004Y-90890024D01*
X221498744Y-90704945D01*
X221728278Y-90489398D01*
X221928987Y-90246782D01*
X222097706Y-89980924D01*
X222099391Y-89977344D01*
X222099394Y-89977338D01*
X222230084Y-89699606D01*
X222230086Y-89699602D01*
X222231773Y-89696016D01*
X222243639Y-89659498D01*
X222327848Y-89400328D01*
X222329075Y-89396552D01*
X222388077Y-89087254D01*
X222407848Y-88773000D01*
X222405714Y-88739082D01*
X223592672Y-88739082D01*
X223592969Y-88744234D01*
X223592969Y-88744238D01*
X223600078Y-88867525D01*
X223605768Y-88966206D01*
X223655783Y-89188141D01*
X223741375Y-89398927D01*
X223860244Y-89592904D01*
X224009198Y-89764861D01*
X224184237Y-89910181D01*
X224188689Y-89912783D01*
X224188694Y-89912786D01*
X224299172Y-89977344D01*
X224380660Y-90024962D01*
X224593193Y-90106120D01*
X224598259Y-90107151D01*
X224598260Y-90107151D01*
X224697361Y-90127313D01*
X224816127Y-90151476D01*
X224943937Y-90156163D01*
X225038311Y-90159624D01*
X225038315Y-90159624D01*
X225043475Y-90159813D01*
X225048595Y-90159157D01*
X225048597Y-90159157D01*
X225264004Y-90131563D01*
X225264005Y-90131563D01*
X225269132Y-90130906D01*
X225355611Y-90104961D01*
X225482091Y-90067015D01*
X225482092Y-90067014D01*
X225487037Y-90065531D01*
X225691339Y-89965444D01*
X225695543Y-89962446D01*
X225695547Y-89962443D01*
X225872347Y-89836333D01*
X225872349Y-89836331D01*
X225876551Y-89833334D01*
X226037699Y-89672747D01*
X226068246Y-89630237D01*
X226167438Y-89492198D01*
X226167442Y-89492192D01*
X226170456Y-89487997D01*
X226232390Y-89362684D01*
X226268961Y-89288688D01*
X226268962Y-89288686D01*
X226271255Y-89284046D01*
X226322789Y-89114429D01*
X226335888Y-89071314D01*
X226335888Y-89071313D01*
X226337390Y-89066370D01*
X226343596Y-89019233D01*
X226366648Y-88844136D01*
X226366648Y-88844132D01*
X226367085Y-88840815D01*
X226368610Y-88778404D01*
X226368660Y-88776365D01*
X226368660Y-88776361D01*
X226368742Y-88773000D01*
X226350101Y-88546264D01*
X226305253Y-88367716D01*
X226295937Y-88330629D01*
X226295937Y-88330628D01*
X226294678Y-88325617D01*
X226241344Y-88202957D01*
X226206022Y-88121722D01*
X226206020Y-88121719D01*
X226203962Y-88116985D01*
X226124359Y-87993936D01*
X226083198Y-87930311D01*
X226083196Y-87930308D01*
X226080390Y-87925971D01*
X225927279Y-87757704D01*
X225748741Y-87616704D01*
X225711037Y-87595890D01*
X225655217Y-87565076D01*
X225549572Y-87506757D01*
X225544703Y-87505033D01*
X225544699Y-87505031D01*
X225339996Y-87432541D01*
X225339992Y-87432540D01*
X225335121Y-87430815D01*
X225330028Y-87429908D01*
X225330025Y-87429907D01*
X225116234Y-87391825D01*
X225116228Y-87391824D01*
X225111145Y-87390919D01*
X225037696Y-87390022D01*
X224888831Y-87388203D01*
X224888829Y-87388203D01*
X224883661Y-87388140D01*
X224658778Y-87422552D01*
X224442535Y-87493231D01*
X224437947Y-87495619D01*
X224437943Y-87495621D01*
X224297633Y-87568662D01*
X224240739Y-87598279D01*
X224236606Y-87601382D01*
X224236603Y-87601384D01*
X224062945Y-87731770D01*
X224058810Y-87734875D01*
X224055238Y-87738613D01*
X223929014Y-87870699D01*
X223901633Y-87899351D01*
X223773431Y-88087289D01*
X223771258Y-88091971D01*
X223771256Y-88091974D01*
X223701663Y-88241901D01*
X223677645Y-88293643D01*
X223616848Y-88512869D01*
X223616299Y-88518006D01*
X223599202Y-88677983D01*
X223592672Y-88739082D01*
X222405714Y-88739082D01*
X222388077Y-88458746D01*
X222329075Y-88149448D01*
X222231773Y-87849984D01*
X222230084Y-87846394D01*
X222099394Y-87568662D01*
X222099390Y-87568655D01*
X222097706Y-87565076D01*
X222089947Y-87552849D01*
X222040856Y-87475495D01*
X221928987Y-87299218D01*
X221728278Y-87056602D01*
X221498744Y-86841055D01*
X221244004Y-86655976D01*
X221196707Y-86629974D01*
X220971539Y-86506187D01*
X220971536Y-86506186D01*
X220968077Y-86504284D01*
X220675313Y-86388370D01*
X220370330Y-86310064D01*
X220057938Y-86270600D01*
X219743062Y-86270600D01*
X219430670Y-86310064D01*
X219125687Y-86388370D01*
X218832923Y-86504284D01*
X218829464Y-86506186D01*
X218829461Y-86506187D01*
X218604294Y-86629974D01*
X218556996Y-86655976D01*
X218302256Y-86841055D01*
X218299370Y-86843765D01*
X218299369Y-86843766D01*
X218233548Y-86905576D01*
X218170198Y-86937627D01*
X218099576Y-86930340D01*
X218044105Y-86886029D01*
X218021396Y-86818763D01*
X218024475Y-86785597D01*
X218077949Y-86552117D01*
X218077950Y-86552113D01*
X218078907Y-86547933D01*
X218079614Y-86540018D01*
X218103031Y-86277627D01*
X218103031Y-86277625D01*
X218103251Y-86275161D01*
X218103693Y-86233000D01*
X218103524Y-86230519D01*
X218085359Y-85964055D01*
X218085358Y-85964049D01*
X218085067Y-85959778D01*
X218029532Y-85691612D01*
X217938117Y-85433465D01*
X217812513Y-85190112D01*
X217806137Y-85181039D01*
X217657508Y-84969562D01*
X217655045Y-84966057D01*
X217584966Y-84890643D01*
X217471546Y-84768588D01*
X217471543Y-84768585D01*
X217468625Y-84765445D01*
X217465310Y-84762731D01*
X217465306Y-84762728D01*
X217260023Y-84594706D01*
X217256705Y-84591990D01*
X217023204Y-84448901D01*
X217019268Y-84447173D01*
X216776373Y-84340549D01*
X216776369Y-84340548D01*
X216772445Y-84338825D01*
X216509066Y-84263800D01*
X216504824Y-84263196D01*
X216504818Y-84263195D01*
X216304334Y-84234662D01*
X216237943Y-84225213D01*
X216094089Y-84224460D01*
X215968377Y-84223802D01*
X215968371Y-84223802D01*
X215964091Y-84223780D01*
X215959847Y-84224339D01*
X215959843Y-84224339D01*
X215843940Y-84239598D01*
X215692578Y-84259525D01*
X215688438Y-84260658D01*
X215688436Y-84260658D01*
X215671640Y-84265253D01*
X215428428Y-84331788D01*
X215424480Y-84333472D01*
X215180482Y-84437546D01*
X215180478Y-84437548D01*
X215176530Y-84439232D01*
X215096008Y-84487423D01*
X214945225Y-84577664D01*
X214945221Y-84577667D01*
X214941543Y-84579868D01*
X214727818Y-84751094D01*
X214616464Y-84868436D01*
X214565404Y-84922243D01*
X214539308Y-84949742D01*
X214379502Y-85172136D01*
X214251357Y-85414161D01*
X214249885Y-85418184D01*
X214249883Y-85418188D01*
X214180653Y-85607366D01*
X214157243Y-85671337D01*
X214098904Y-85938907D01*
X214077417Y-86211918D01*
X214093182Y-86485320D01*
X214094007Y-86489525D01*
X214094008Y-86489533D01*
X214117473Y-86609135D01*
X214145905Y-86754053D01*
X214147292Y-86758103D01*
X214147293Y-86758108D01*
X214233223Y-87009088D01*
X214234612Y-87013144D01*
X214296136Y-87135471D01*
X214338708Y-87220116D01*
X214357660Y-87257799D01*
X214380609Y-87291190D01*
X214402709Y-87358656D01*
X214384824Y-87427364D01*
X214332633Y-87475495D01*
X214315914Y-87482321D01*
X214309439Y-87484438D01*
X214282535Y-87493231D01*
X214277947Y-87495619D01*
X214277943Y-87495621D01*
X214137633Y-87568662D01*
X214080739Y-87598279D01*
X214076606Y-87601382D01*
X214076603Y-87601384D01*
X213902945Y-87731770D01*
X213898810Y-87734875D01*
X213895238Y-87738613D01*
X213769014Y-87870699D01*
X213741633Y-87899351D01*
X213613431Y-88087289D01*
X213611258Y-88091971D01*
X213611256Y-88091974D01*
X213541663Y-88241901D01*
X213517645Y-88293643D01*
X213456848Y-88512869D01*
X213456299Y-88518006D01*
X213439202Y-88677983D01*
X213432672Y-88739082D01*
X213002282Y-88739082D01*
X212994043Y-88644913D01*
X212989730Y-88628818D01*
X212936207Y-88429067D01*
X212936206Y-88429065D01*
X212934784Y-88423757D01*
X212919816Y-88391657D01*
X212840349Y-88221238D01*
X212840346Y-88221233D01*
X212838023Y-88216251D01*
X212747723Y-88087289D01*
X212709857Y-88033211D01*
X212709855Y-88033208D01*
X212706698Y-88028700D01*
X212544800Y-87866802D01*
X212540292Y-87863645D01*
X212540289Y-87863643D01*
X212437396Y-87791597D01*
X212357249Y-87735477D01*
X212352267Y-87733154D01*
X212352262Y-87733151D01*
X212154725Y-87641039D01*
X212154724Y-87641039D01*
X212149743Y-87638716D01*
X212144435Y-87637294D01*
X212144433Y-87637293D01*
X211933902Y-87580881D01*
X211933900Y-87580881D01*
X211928587Y-87579457D01*
X211700500Y-87559502D01*
X211472413Y-87579457D01*
X211467100Y-87580881D01*
X211467098Y-87580881D01*
X211256567Y-87637293D01*
X211256565Y-87637294D01*
X211251257Y-87638716D01*
X211246276Y-87641039D01*
X211246275Y-87641039D01*
X211048738Y-87733151D01*
X211048733Y-87733154D01*
X211043751Y-87735477D01*
X210963604Y-87791597D01*
X210860711Y-87863643D01*
X210860708Y-87863645D01*
X210856200Y-87866802D01*
X210694302Y-88028700D01*
X210691145Y-88033208D01*
X210691143Y-88033211D01*
X210653277Y-88087289D01*
X210562977Y-88216251D01*
X210560654Y-88221233D01*
X210560651Y-88221238D01*
X210481184Y-88391657D01*
X210466216Y-88423757D01*
X210464794Y-88429065D01*
X210464793Y-88429067D01*
X210411270Y-88628818D01*
X210406957Y-88644913D01*
X210387002Y-88873000D01*
X207312848Y-88873000D01*
X207316648Y-88844136D01*
X207316648Y-88844132D01*
X207317085Y-88840815D01*
X207318610Y-88778404D01*
X207318660Y-88776365D01*
X207318660Y-88776361D01*
X207318742Y-88773000D01*
X207300101Y-88546264D01*
X207255253Y-88367716D01*
X207245937Y-88330629D01*
X207245937Y-88330628D01*
X207244678Y-88325617D01*
X207191344Y-88202957D01*
X207156022Y-88121722D01*
X207156020Y-88121719D01*
X207153962Y-88116985D01*
X207074359Y-87993936D01*
X207033198Y-87930311D01*
X207033196Y-87930308D01*
X207030390Y-87925971D01*
X206877279Y-87757704D01*
X206698741Y-87616704D01*
X206661037Y-87595890D01*
X206605217Y-87565076D01*
X206499572Y-87506757D01*
X206494703Y-87505033D01*
X206494699Y-87505031D01*
X206289996Y-87432541D01*
X206289992Y-87432540D01*
X206285121Y-87430815D01*
X206280028Y-87429908D01*
X206280025Y-87429907D01*
X206066234Y-87391825D01*
X206066228Y-87391824D01*
X206061145Y-87390919D01*
X205987696Y-87390022D01*
X205838831Y-87388203D01*
X205838829Y-87388203D01*
X205833661Y-87388140D01*
X205608778Y-87422552D01*
X205392535Y-87493231D01*
X205387947Y-87495619D01*
X205387943Y-87495621D01*
X205247633Y-87568662D01*
X205190739Y-87598279D01*
X205186606Y-87601382D01*
X205186603Y-87601384D01*
X205012945Y-87731770D01*
X205008810Y-87734875D01*
X205005238Y-87738613D01*
X204879014Y-87870699D01*
X204851633Y-87899351D01*
X204723431Y-88087289D01*
X204721258Y-88091971D01*
X204721256Y-88091974D01*
X204651663Y-88241901D01*
X204627645Y-88293643D01*
X204566848Y-88512869D01*
X204566299Y-88518006D01*
X204549202Y-88677983D01*
X204542672Y-88739082D01*
X203355714Y-88739082D01*
X203338077Y-88458746D01*
X203279075Y-88149448D01*
X203181773Y-87849984D01*
X203180084Y-87846394D01*
X203049394Y-87568662D01*
X203049390Y-87568655D01*
X203047706Y-87565076D01*
X203039947Y-87552849D01*
X202990856Y-87475495D01*
X202878987Y-87299218D01*
X202678278Y-87056602D01*
X202448744Y-86841055D01*
X202194004Y-86655976D01*
X202146707Y-86629974D01*
X201921539Y-86506187D01*
X201921536Y-86506186D01*
X201918077Y-86504284D01*
X201625313Y-86388370D01*
X201320330Y-86310064D01*
X201007938Y-86270600D01*
X200693062Y-86270600D01*
X200380670Y-86310064D01*
X200075687Y-86388370D01*
X199782923Y-86504284D01*
X199779464Y-86506186D01*
X199779461Y-86506187D01*
X199554294Y-86629974D01*
X199506996Y-86655976D01*
X199252256Y-86841055D01*
X199249370Y-86843765D01*
X199249369Y-86843766D01*
X199183548Y-86905576D01*
X199120198Y-86937627D01*
X199049576Y-86930340D01*
X198994105Y-86886029D01*
X198971396Y-86818763D01*
X198974475Y-86785597D01*
X199027949Y-86552117D01*
X199027950Y-86552113D01*
X199028907Y-86547933D01*
X199029614Y-86540018D01*
X199053031Y-86277627D01*
X199053031Y-86277625D01*
X199053251Y-86275161D01*
X199053693Y-86233000D01*
X199053524Y-86230519D01*
X199035359Y-85964055D01*
X199035358Y-85964049D01*
X199035067Y-85959778D01*
X198979532Y-85691612D01*
X198888117Y-85433465D01*
X198762513Y-85190112D01*
X198756137Y-85181039D01*
X198607508Y-84969562D01*
X198605045Y-84966057D01*
X198534966Y-84890643D01*
X198421546Y-84768588D01*
X198421543Y-84768585D01*
X198418625Y-84765445D01*
X198415310Y-84762731D01*
X198415306Y-84762728D01*
X198210023Y-84594706D01*
X198206705Y-84591990D01*
X197973204Y-84448901D01*
X197969268Y-84447173D01*
X197726373Y-84340549D01*
X197726369Y-84340548D01*
X197722445Y-84338825D01*
X197459066Y-84263800D01*
X197454824Y-84263196D01*
X197454818Y-84263195D01*
X197254334Y-84234662D01*
X197187943Y-84225213D01*
X197044089Y-84224460D01*
X196918377Y-84223802D01*
X196918371Y-84223802D01*
X196914091Y-84223780D01*
X196909847Y-84224339D01*
X196909843Y-84224339D01*
X196793940Y-84239598D01*
X196642578Y-84259525D01*
X196638438Y-84260658D01*
X196638436Y-84260658D01*
X196621640Y-84265253D01*
X196378428Y-84331788D01*
X196374480Y-84333472D01*
X196130482Y-84437546D01*
X196130478Y-84437548D01*
X196126530Y-84439232D01*
X196046008Y-84487423D01*
X195895225Y-84577664D01*
X195895221Y-84577667D01*
X195891543Y-84579868D01*
X195677818Y-84751094D01*
X195566464Y-84868436D01*
X195515404Y-84922243D01*
X195489308Y-84949742D01*
X195329502Y-85172136D01*
X195201357Y-85414161D01*
X195199885Y-85418184D01*
X195199883Y-85418188D01*
X195130653Y-85607366D01*
X195107243Y-85671337D01*
X195048904Y-85938907D01*
X195027417Y-86211918D01*
X195043182Y-86485320D01*
X195044007Y-86489525D01*
X195044008Y-86489533D01*
X195067473Y-86609135D01*
X195095905Y-86754053D01*
X195097292Y-86758103D01*
X195097293Y-86758108D01*
X195183223Y-87009088D01*
X195184612Y-87013144D01*
X195246136Y-87135471D01*
X195288708Y-87220116D01*
X195307660Y-87257799D01*
X195330609Y-87291190D01*
X195352709Y-87358656D01*
X195334824Y-87427364D01*
X195282633Y-87475495D01*
X195265914Y-87482321D01*
X195259439Y-87484438D01*
X195232535Y-87493231D01*
X195227947Y-87495619D01*
X195227943Y-87495621D01*
X195087633Y-87568662D01*
X195030739Y-87598279D01*
X195026606Y-87601382D01*
X195026603Y-87601384D01*
X194852945Y-87731770D01*
X194848810Y-87734875D01*
X194845238Y-87738613D01*
X194719014Y-87870699D01*
X194691633Y-87899351D01*
X194563431Y-88087289D01*
X194561258Y-88091971D01*
X194561256Y-88091974D01*
X194491663Y-88241901D01*
X194467645Y-88293643D01*
X194406848Y-88512869D01*
X194406299Y-88518006D01*
X194389202Y-88677983D01*
X194382672Y-88739082D01*
X194382969Y-88744234D01*
X194382969Y-88744238D01*
X194395457Y-88960818D01*
X194379409Y-89029977D01*
X194328519Y-89079482D01*
X194258943Y-89093614D01*
X194192772Y-89067887D01*
X194180571Y-89057166D01*
X190864152Y-85740747D01*
X190856612Y-85732461D01*
X190852500Y-85725982D01*
X190832589Y-85707284D01*
X190802849Y-85679357D01*
X190800007Y-85676602D01*
X190780270Y-85656865D01*
X190777073Y-85654385D01*
X190768051Y-85646680D01*
X190741600Y-85621841D01*
X190735821Y-85616414D01*
X190728875Y-85612595D01*
X190728872Y-85612593D01*
X190718066Y-85606652D01*
X190701547Y-85595801D01*
X190701083Y-85595441D01*
X190685541Y-85583386D01*
X190678272Y-85580241D01*
X190678268Y-85580238D01*
X190644963Y-85565826D01*
X190634313Y-85560609D01*
X190595560Y-85539305D01*
X190575937Y-85534267D01*
X190557234Y-85527863D01*
X190545920Y-85522967D01*
X190545919Y-85522967D01*
X190538645Y-85519819D01*
X190530822Y-85518580D01*
X190530812Y-85518577D01*
X190494976Y-85512901D01*
X190483356Y-85510495D01*
X190448211Y-85501472D01*
X190448210Y-85501472D01*
X190440530Y-85499500D01*
X190420276Y-85499500D01*
X190400565Y-85497949D01*
X190388386Y-85496020D01*
X190380557Y-85494780D01*
X190372665Y-85495526D01*
X190336539Y-85498941D01*
X190324681Y-85499500D01*
X185656609Y-85499500D01*
X185588488Y-85479498D01*
X185541995Y-85425842D01*
X185531891Y-85355568D01*
X185561385Y-85290988D01*
X185578863Y-85274346D01*
X185684208Y-85191745D01*
X185687589Y-85189094D01*
X185704023Y-85172136D01*
X185875186Y-84995509D01*
X185878169Y-84992431D01*
X185880702Y-84988983D01*
X185880706Y-84988978D01*
X186037757Y-84775178D01*
X186040295Y-84771723D01*
X186052949Y-84748417D01*
X186168918Y-84534830D01*
X186168919Y-84534828D01*
X186170968Y-84531054D01*
X186248208Y-84326643D01*
X186266251Y-84278895D01*
X186266252Y-84278891D01*
X186267769Y-84274877D01*
X186328907Y-84007933D01*
X186353251Y-83735161D01*
X186353693Y-83693000D01*
X186348229Y-83612849D01*
X186335359Y-83424055D01*
X186335358Y-83424049D01*
X186335067Y-83419778D01*
X186279532Y-83151612D01*
X186188117Y-82893465D01*
X186148536Y-82816778D01*
X186064478Y-82653919D01*
X186064478Y-82653918D01*
X186062513Y-82650112D01*
X186052540Y-82635921D01*
X185938037Y-82473000D01*
X188887002Y-82473000D01*
X188906957Y-82701087D01*
X188966216Y-82922243D01*
X188968539Y-82927224D01*
X188968539Y-82927225D01*
X189060651Y-83124762D01*
X189060654Y-83124767D01*
X189062977Y-83129749D01*
X189121452Y-83213260D01*
X189186268Y-83305826D01*
X189194302Y-83317300D01*
X189356200Y-83479198D01*
X189360708Y-83482355D01*
X189360711Y-83482357D01*
X189438889Y-83537098D01*
X189543751Y-83610523D01*
X189548733Y-83612846D01*
X189548738Y-83612849D01*
X189746275Y-83704961D01*
X189751257Y-83707284D01*
X189756565Y-83708706D01*
X189756567Y-83708707D01*
X189967098Y-83765119D01*
X189967100Y-83765119D01*
X189972413Y-83766543D01*
X190200500Y-83786498D01*
X190428587Y-83766543D01*
X190433900Y-83765119D01*
X190433902Y-83765119D01*
X190644433Y-83708707D01*
X190644435Y-83708706D01*
X190649743Y-83707284D01*
X190654725Y-83704961D01*
X190725587Y-83671918D01*
X201377417Y-83671918D01*
X201393182Y-83945320D01*
X201394007Y-83949525D01*
X201394008Y-83949533D01*
X201417171Y-84067595D01*
X201445905Y-84214053D01*
X201447292Y-84218103D01*
X201447293Y-84218108D01*
X201527080Y-84451145D01*
X201534612Y-84473144D01*
X201553387Y-84510474D01*
X201646499Y-84695607D01*
X201657660Y-84717799D01*
X201660086Y-84721328D01*
X201660089Y-84721334D01*
X201798171Y-84922243D01*
X201812774Y-84943490D01*
X201815661Y-84946663D01*
X201815662Y-84946664D01*
X201854165Y-84988978D01*
X201997082Y-85146043D01*
X202207175Y-85321707D01*
X202210816Y-85323991D01*
X202435524Y-85464951D01*
X202435528Y-85464953D01*
X202439164Y-85467234D01*
X202534976Y-85510495D01*
X202684845Y-85578164D01*
X202684849Y-85578166D01*
X202688757Y-85579930D01*
X202716818Y-85588242D01*
X202947223Y-85656491D01*
X202947227Y-85656492D01*
X202951336Y-85657709D01*
X202955570Y-85658357D01*
X202955575Y-85658358D01*
X203217798Y-85698483D01*
X203217800Y-85698483D01*
X203222040Y-85699132D01*
X203361412Y-85701322D01*
X203491571Y-85703367D01*
X203491577Y-85703367D01*
X203495862Y-85703434D01*
X203767735Y-85670534D01*
X204032627Y-85601041D01*
X204036587Y-85599401D01*
X204036592Y-85599399D01*
X204100324Y-85573000D01*
X207987002Y-85573000D01*
X208006957Y-85801087D01*
X208008381Y-85806400D01*
X208008381Y-85806402D01*
X208050545Y-85963757D01*
X208066216Y-86022243D01*
X208068539Y-86027224D01*
X208068539Y-86027225D01*
X208160651Y-86224762D01*
X208160654Y-86224767D01*
X208162977Y-86229749D01*
X208202077Y-86285589D01*
X208284120Y-86402758D01*
X208294302Y-86417300D01*
X208456200Y-86579198D01*
X208460708Y-86582355D01*
X208460711Y-86582357D01*
X208463446Y-86584272D01*
X208643751Y-86710523D01*
X208648733Y-86712846D01*
X208648738Y-86712849D01*
X208842938Y-86803405D01*
X208851257Y-86807284D01*
X208856565Y-86808706D01*
X208856567Y-86808707D01*
X209067098Y-86865119D01*
X209067100Y-86865119D01*
X209072413Y-86866543D01*
X209300500Y-86886498D01*
X209528587Y-86866543D01*
X209533900Y-86865119D01*
X209533902Y-86865119D01*
X209744433Y-86808707D01*
X209744435Y-86808706D01*
X209749743Y-86807284D01*
X209758062Y-86803405D01*
X209952262Y-86712849D01*
X209952267Y-86712846D01*
X209957249Y-86710523D01*
X210137554Y-86584272D01*
X210140289Y-86582357D01*
X210140292Y-86582355D01*
X210144800Y-86579198D01*
X210306698Y-86417300D01*
X210316881Y-86402758D01*
X210398923Y-86285589D01*
X210438023Y-86229749D01*
X210440346Y-86224767D01*
X210440349Y-86224762D01*
X210532461Y-86027225D01*
X210532461Y-86027224D01*
X210534784Y-86022243D01*
X210550456Y-85963757D01*
X210592619Y-85806402D01*
X210592619Y-85806400D01*
X210594043Y-85801087D01*
X210613998Y-85573000D01*
X210594043Y-85344913D01*
X210587688Y-85321197D01*
X210536207Y-85129067D01*
X210536206Y-85129065D01*
X210534784Y-85123757D01*
X210523474Y-85099502D01*
X210440349Y-84921238D01*
X210440346Y-84921233D01*
X210438023Y-84916251D01*
X210364598Y-84811389D01*
X210309857Y-84733211D01*
X210309855Y-84733208D01*
X210306698Y-84728700D01*
X210144800Y-84566802D01*
X210140292Y-84563645D01*
X210140289Y-84563643D01*
X210055864Y-84504528D01*
X209957249Y-84435477D01*
X209952267Y-84433154D01*
X209952262Y-84433151D01*
X209754725Y-84341039D01*
X209754724Y-84341039D01*
X209749743Y-84338716D01*
X209744435Y-84337294D01*
X209744433Y-84337293D01*
X209533902Y-84280881D01*
X209533900Y-84280881D01*
X209528587Y-84279457D01*
X209300500Y-84259502D01*
X209072413Y-84279457D01*
X209067100Y-84280881D01*
X209067098Y-84280881D01*
X208856567Y-84337293D01*
X208856565Y-84337294D01*
X208851257Y-84338716D01*
X208846276Y-84341039D01*
X208846275Y-84341039D01*
X208648738Y-84433151D01*
X208648733Y-84433154D01*
X208643751Y-84435477D01*
X208545136Y-84504528D01*
X208460711Y-84563643D01*
X208460708Y-84563645D01*
X208456200Y-84566802D01*
X208294302Y-84728700D01*
X208291145Y-84733208D01*
X208291143Y-84733211D01*
X208236402Y-84811389D01*
X208162977Y-84916251D01*
X208160654Y-84921233D01*
X208160651Y-84921238D01*
X208077526Y-85099502D01*
X208066216Y-85123757D01*
X208064794Y-85129065D01*
X208064793Y-85129067D01*
X208013312Y-85321197D01*
X208006957Y-85344913D01*
X207987002Y-85573000D01*
X204100324Y-85573000D01*
X204235698Y-85516926D01*
X204285636Y-85496241D01*
X204426099Y-85414161D01*
X204518379Y-85360237D01*
X204518380Y-85360236D01*
X204522082Y-85358073D01*
X204737589Y-85189094D01*
X204754023Y-85172136D01*
X204925186Y-84995509D01*
X204928169Y-84992431D01*
X204930702Y-84988983D01*
X204930706Y-84988978D01*
X205087757Y-84775178D01*
X205090295Y-84771723D01*
X205102949Y-84748417D01*
X205218918Y-84534830D01*
X205218919Y-84534828D01*
X205220968Y-84531054D01*
X205298208Y-84326643D01*
X205316251Y-84278895D01*
X205316252Y-84278891D01*
X205317769Y-84274877D01*
X205378907Y-84007933D01*
X205403251Y-83735161D01*
X205403693Y-83693000D01*
X205398229Y-83612849D01*
X205385359Y-83424055D01*
X205385358Y-83424049D01*
X205385067Y-83419778D01*
X205329532Y-83151612D01*
X205238117Y-82893465D01*
X205198536Y-82816778D01*
X205114478Y-82653919D01*
X205114478Y-82653918D01*
X205112513Y-82650112D01*
X205102540Y-82635921D01*
X204957508Y-82429562D01*
X204955045Y-82426057D01*
X204852825Y-82316055D01*
X204771546Y-82228588D01*
X204771543Y-82228585D01*
X204768625Y-82225445D01*
X204765310Y-82222731D01*
X204765306Y-82222728D01*
X204560023Y-82054706D01*
X204556705Y-82051990D01*
X204323204Y-81908901D01*
X204319268Y-81907173D01*
X204076373Y-81800549D01*
X204076369Y-81800548D01*
X204072445Y-81798825D01*
X203809066Y-81723800D01*
X203804824Y-81723196D01*
X203804818Y-81723195D01*
X203604334Y-81694662D01*
X203537943Y-81685213D01*
X203394089Y-81684460D01*
X203268377Y-81683802D01*
X203268371Y-81683802D01*
X203264091Y-81683780D01*
X203259847Y-81684339D01*
X203259843Y-81684339D01*
X203140802Y-81700011D01*
X202992578Y-81719525D01*
X202988438Y-81720658D01*
X202988436Y-81720658D01*
X202932443Y-81735976D01*
X202728428Y-81791788D01*
X202724480Y-81793472D01*
X202480482Y-81897546D01*
X202480478Y-81897548D01*
X202476530Y-81899232D01*
X202418375Y-81934037D01*
X202245225Y-82037664D01*
X202245221Y-82037667D01*
X202241543Y-82039868D01*
X202027818Y-82211094D01*
X201839308Y-82409742D01*
X201679502Y-82632136D01*
X201551357Y-82874161D01*
X201549885Y-82878184D01*
X201549883Y-82878188D01*
X201459649Y-83124762D01*
X201457243Y-83131337D01*
X201398904Y-83398907D01*
X201377417Y-83671918D01*
X190725587Y-83671918D01*
X190852262Y-83612849D01*
X190852267Y-83612846D01*
X190857249Y-83610523D01*
X190962111Y-83537098D01*
X191040289Y-83482357D01*
X191040292Y-83482355D01*
X191044800Y-83479198D01*
X191206698Y-83317300D01*
X191214733Y-83305826D01*
X191279548Y-83213260D01*
X191338023Y-83129749D01*
X191340346Y-83124767D01*
X191340349Y-83124762D01*
X191432461Y-82927225D01*
X191432461Y-82927224D01*
X191434784Y-82922243D01*
X191494043Y-82701087D01*
X191513998Y-82473000D01*
X191494043Y-82244913D01*
X191491596Y-82235782D01*
X191436207Y-82029067D01*
X191436206Y-82029065D01*
X191434784Y-82023757D01*
X191412915Y-81976859D01*
X191340349Y-81821238D01*
X191340346Y-81821233D01*
X191338023Y-81816251D01*
X191206698Y-81628700D01*
X191044800Y-81466802D01*
X191040292Y-81463645D01*
X191040289Y-81463643D01*
X190949147Y-81399825D01*
X190857249Y-81335477D01*
X190852267Y-81333154D01*
X190852262Y-81333151D01*
X190654725Y-81241039D01*
X190654724Y-81241039D01*
X190649743Y-81238716D01*
X190644435Y-81237294D01*
X190644433Y-81237293D01*
X190433902Y-81180881D01*
X190433900Y-81180881D01*
X190428587Y-81179457D01*
X190200500Y-81159502D01*
X189972413Y-81179457D01*
X189967100Y-81180881D01*
X189967098Y-81180881D01*
X189756567Y-81237293D01*
X189756565Y-81237294D01*
X189751257Y-81238716D01*
X189746276Y-81241039D01*
X189746275Y-81241039D01*
X189548738Y-81333151D01*
X189548733Y-81333154D01*
X189543751Y-81335477D01*
X189451853Y-81399825D01*
X189360711Y-81463643D01*
X189360708Y-81463645D01*
X189356200Y-81466802D01*
X189194302Y-81628700D01*
X189062977Y-81816251D01*
X189060654Y-81821233D01*
X189060651Y-81821238D01*
X188988085Y-81976859D01*
X188966216Y-82023757D01*
X188964794Y-82029065D01*
X188964793Y-82029067D01*
X188909404Y-82235782D01*
X188906957Y-82244913D01*
X188887002Y-82473000D01*
X185938037Y-82473000D01*
X185907508Y-82429562D01*
X185905045Y-82426057D01*
X185802825Y-82316055D01*
X185721546Y-82228588D01*
X185721543Y-82228585D01*
X185718625Y-82225445D01*
X185715310Y-82222731D01*
X185715306Y-82222728D01*
X185510023Y-82054706D01*
X185506705Y-82051990D01*
X185273204Y-81908901D01*
X185269268Y-81907173D01*
X185026373Y-81800549D01*
X185026369Y-81800548D01*
X185022445Y-81798825D01*
X184759066Y-81723800D01*
X184754824Y-81723196D01*
X184754818Y-81723195D01*
X184554334Y-81694662D01*
X184487943Y-81685213D01*
X184344089Y-81684460D01*
X184218377Y-81683802D01*
X184218371Y-81683802D01*
X184214091Y-81683780D01*
X184209847Y-81684339D01*
X184209843Y-81684339D01*
X184090802Y-81700011D01*
X183942578Y-81719525D01*
X183938438Y-81720658D01*
X183938436Y-81720658D01*
X183882443Y-81735976D01*
X183678428Y-81791788D01*
X183674480Y-81793472D01*
X183430482Y-81897546D01*
X183430478Y-81897548D01*
X183426530Y-81899232D01*
X183368375Y-81934037D01*
X183195225Y-82037664D01*
X183195221Y-82037667D01*
X183191543Y-82039868D01*
X182977818Y-82211094D01*
X182789308Y-82409742D01*
X182629502Y-82632136D01*
X182501357Y-82874161D01*
X182499885Y-82878184D01*
X182499883Y-82878188D01*
X182409649Y-83124762D01*
X182407243Y-83131337D01*
X182348904Y-83398907D01*
X182327417Y-83671918D01*
X182343182Y-83945320D01*
X182344007Y-83949525D01*
X182344008Y-83949533D01*
X182367171Y-84067595D01*
X182395905Y-84214053D01*
X182397292Y-84218103D01*
X182397293Y-84218108D01*
X182477080Y-84451145D01*
X182484612Y-84473144D01*
X182503387Y-84510474D01*
X182596499Y-84695607D01*
X182607660Y-84717799D01*
X182610086Y-84721328D01*
X182610089Y-84721334D01*
X182748171Y-84922243D01*
X182762774Y-84943490D01*
X182765661Y-84946663D01*
X182765662Y-84946664D01*
X182804165Y-84988978D01*
X182947082Y-85146043D01*
X183100532Y-85274346D01*
X183103511Y-85276837D01*
X183142941Y-85335878D01*
X183144192Y-85406863D01*
X183106866Y-85467256D01*
X183042815Y-85497882D01*
X183022689Y-85499500D01*
X181215094Y-85499500D01*
X181146973Y-85479498D01*
X181125999Y-85462595D01*
X180149586Y-84486181D01*
X179144152Y-83480747D01*
X179136612Y-83472461D01*
X179132500Y-83465982D01*
X179082848Y-83419356D01*
X179080007Y-83416602D01*
X179060270Y-83396865D01*
X179057073Y-83394385D01*
X179048051Y-83386680D01*
X179021600Y-83361841D01*
X179015821Y-83356414D01*
X179008875Y-83352595D01*
X179008872Y-83352593D01*
X178998066Y-83346652D01*
X178981547Y-83335801D01*
X178978130Y-83333151D01*
X178965541Y-83323386D01*
X178958272Y-83320241D01*
X178958268Y-83320238D01*
X178924963Y-83305826D01*
X178914313Y-83300609D01*
X178875560Y-83279305D01*
X178855937Y-83274267D01*
X178837234Y-83267863D01*
X178825920Y-83262967D01*
X178825919Y-83262967D01*
X178818645Y-83259819D01*
X178810822Y-83258580D01*
X178810812Y-83258577D01*
X178774976Y-83252901D01*
X178763356Y-83250495D01*
X178728211Y-83241472D01*
X178728210Y-83241472D01*
X178720530Y-83239500D01*
X178700276Y-83239500D01*
X178680565Y-83237949D01*
X178676424Y-83237293D01*
X178660557Y-83234780D01*
X178633973Y-83237293D01*
X178616539Y-83238941D01*
X178604681Y-83239500D01*
X174020001Y-83239500D01*
X173951880Y-83219498D01*
X173905387Y-83165842D01*
X173895283Y-83095568D01*
X173925269Y-83030422D01*
X174084421Y-82848945D01*
X174084425Y-82848939D01*
X174087139Y-82845845D01*
X174091571Y-82839213D01*
X174256609Y-82592215D01*
X174256610Y-82592213D01*
X174258904Y-82588780D01*
X174322430Y-82459963D01*
X174393820Y-82315200D01*
X174393823Y-82315192D01*
X174395646Y-82311496D01*
X174421346Y-82235787D01*
X174493699Y-82022642D01*
X174493700Y-82022639D01*
X174495025Y-82018735D01*
X174544766Y-81768667D01*
X174554536Y-81719550D01*
X174554536Y-81719547D01*
X174555340Y-81715507D01*
X174556106Y-81703829D01*
X174575291Y-81411119D01*
X174575561Y-81407000D01*
X174569403Y-81313050D01*
X174555610Y-81102608D01*
X174555609Y-81102604D01*
X174555340Y-81098493D01*
X174552863Y-81086037D01*
X174533595Y-80989171D01*
X174495025Y-80795265D01*
X174448061Y-80656912D01*
X174396975Y-80506419D01*
X174395646Y-80502504D01*
X174393823Y-80498808D01*
X174393820Y-80498800D01*
X174260730Y-80228923D01*
X174258904Y-80225220D01*
X174222241Y-80170350D01*
X174089432Y-79971586D01*
X174089428Y-79971581D01*
X174087139Y-79968155D01*
X174084425Y-79965061D01*
X174084421Y-79965055D01*
X174041030Y-79915578D01*
X174011153Y-79851174D01*
X174020839Y-79780841D01*
X174067012Y-79726909D01*
X174135762Y-79706500D01*
X208388238Y-79706500D01*
X208456359Y-79726502D01*
X208502852Y-79780158D01*
X208512956Y-79850432D01*
X208482970Y-79915578D01*
X208439579Y-79965055D01*
X208439575Y-79965061D01*
X208436861Y-79968155D01*
X208434572Y-79971581D01*
X208434568Y-79971586D01*
X208301759Y-80170350D01*
X208265096Y-80225220D01*
X208263270Y-80228923D01*
X208130180Y-80498800D01*
X208130177Y-80498808D01*
X208128354Y-80502504D01*
X208127025Y-80506419D01*
X208075940Y-80656912D01*
X208028975Y-80795265D01*
X207990405Y-80989171D01*
X207971138Y-81086037D01*
X207968660Y-81098493D01*
X207968391Y-81102604D01*
X207968390Y-81102608D01*
X207954597Y-81313050D01*
X207948439Y-81407000D01*
X207948709Y-81411119D01*
X207967895Y-81703829D01*
X207968660Y-81715507D01*
X207969464Y-81719547D01*
X207969464Y-81719550D01*
X207979234Y-81768667D01*
X208028975Y-82018735D01*
X208030300Y-82022639D01*
X208030301Y-82022642D01*
X208102654Y-82235787D01*
X208128354Y-82311496D01*
X208130177Y-82315192D01*
X208130180Y-82315200D01*
X208201570Y-82459963D01*
X208265096Y-82588780D01*
X208267390Y-82592213D01*
X208267391Y-82592215D01*
X208432430Y-82839213D01*
X208436861Y-82845845D01*
X208439575Y-82848939D01*
X208439579Y-82848945D01*
X208503860Y-82922243D01*
X208640710Y-83078290D01*
X208643799Y-83080999D01*
X208870055Y-83279421D01*
X208870061Y-83279425D01*
X208873155Y-83282139D01*
X208876581Y-83284428D01*
X208876586Y-83284432D01*
X209044854Y-83396865D01*
X209130219Y-83453904D01*
X209133918Y-83455728D01*
X209133923Y-83455731D01*
X209276435Y-83526010D01*
X209407504Y-83590646D01*
X209411409Y-83591971D01*
X209411410Y-83591972D01*
X209696358Y-83688699D01*
X209696361Y-83688700D01*
X209700265Y-83690025D01*
X209914739Y-83732686D01*
X209999450Y-83749536D01*
X209999453Y-83749536D01*
X210003493Y-83750340D01*
X210007604Y-83750609D01*
X210007608Y-83750610D01*
X210307881Y-83770291D01*
X210312000Y-83770561D01*
X210316119Y-83770291D01*
X210616392Y-83750610D01*
X210616396Y-83750609D01*
X210620507Y-83750340D01*
X210624547Y-83749536D01*
X210624550Y-83749536D01*
X210709261Y-83732686D01*
X210923735Y-83690025D01*
X210927639Y-83688700D01*
X210927642Y-83688699D01*
X210977077Y-83671918D01*
X220427417Y-83671918D01*
X220443182Y-83945320D01*
X220444007Y-83949525D01*
X220444008Y-83949533D01*
X220467171Y-84067595D01*
X220495905Y-84214053D01*
X220497292Y-84218103D01*
X220497293Y-84218108D01*
X220577080Y-84451145D01*
X220584612Y-84473144D01*
X220603387Y-84510474D01*
X220696499Y-84695607D01*
X220707660Y-84717799D01*
X220710086Y-84721328D01*
X220710089Y-84721334D01*
X220848171Y-84922243D01*
X220862774Y-84943490D01*
X220865661Y-84946663D01*
X220865662Y-84946664D01*
X220904165Y-84988978D01*
X221047082Y-85146043D01*
X221257175Y-85321707D01*
X221260816Y-85323991D01*
X221485524Y-85464951D01*
X221485528Y-85464953D01*
X221489164Y-85467234D01*
X221584976Y-85510495D01*
X221734845Y-85578164D01*
X221734849Y-85578166D01*
X221738757Y-85579930D01*
X221766818Y-85588242D01*
X221997223Y-85656491D01*
X221997227Y-85656492D01*
X222001336Y-85657709D01*
X222005570Y-85658357D01*
X222005575Y-85658358D01*
X222267798Y-85698483D01*
X222267800Y-85698483D01*
X222272040Y-85699132D01*
X222411412Y-85701322D01*
X222541571Y-85703367D01*
X222541577Y-85703367D01*
X222545862Y-85703434D01*
X222817735Y-85670534D01*
X223082627Y-85601041D01*
X223086587Y-85599401D01*
X223086592Y-85599399D01*
X223285698Y-85516926D01*
X223335636Y-85496241D01*
X223476099Y-85414161D01*
X223568379Y-85360237D01*
X223568380Y-85360236D01*
X223572082Y-85358073D01*
X223787589Y-85189094D01*
X223804023Y-85172136D01*
X223975186Y-84995509D01*
X223978169Y-84992431D01*
X223980702Y-84988983D01*
X223980706Y-84988978D01*
X224137757Y-84775178D01*
X224140295Y-84771723D01*
X224152949Y-84748417D01*
X224268918Y-84534830D01*
X224268919Y-84534828D01*
X224270968Y-84531054D01*
X224348208Y-84326643D01*
X224366251Y-84278895D01*
X224366252Y-84278891D01*
X224367769Y-84274877D01*
X224428907Y-84007933D01*
X224453251Y-83735161D01*
X224453693Y-83693000D01*
X224448229Y-83612849D01*
X224435359Y-83424055D01*
X224435358Y-83424049D01*
X224435067Y-83419778D01*
X224379532Y-83151612D01*
X224288117Y-82893465D01*
X224248536Y-82816778D01*
X224164478Y-82653919D01*
X224164478Y-82653918D01*
X224162513Y-82650112D01*
X224152540Y-82635921D01*
X224007508Y-82429562D01*
X224005045Y-82426057D01*
X223884177Y-82295988D01*
X223852459Y-82232472D01*
X223853959Y-82180804D01*
X223893880Y-82014524D01*
X223893881Y-82014518D01*
X223895035Y-82009711D01*
X223913665Y-81773000D01*
X223895035Y-81536289D01*
X223881685Y-81480679D01*
X223847582Y-81338634D01*
X223839605Y-81305406D01*
X223819494Y-81256853D01*
X223750635Y-81090611D01*
X223750633Y-81090607D01*
X223748740Y-81086037D01*
X223689380Y-80989171D01*
X223627259Y-80887798D01*
X223627255Y-80887792D01*
X223624676Y-80883584D01*
X223470469Y-80703031D01*
X223289916Y-80548824D01*
X223285708Y-80546245D01*
X223285702Y-80546241D01*
X223091683Y-80427346D01*
X223087463Y-80424760D01*
X223082893Y-80422867D01*
X223082889Y-80422865D01*
X222872667Y-80335789D01*
X222872665Y-80335788D01*
X222868094Y-80333895D01*
X222787891Y-80314640D01*
X222642024Y-80279620D01*
X222642018Y-80279619D01*
X222637211Y-80278465D01*
X222400500Y-80259835D01*
X222163789Y-80278465D01*
X222158982Y-80279619D01*
X222158976Y-80279620D01*
X222013109Y-80314640D01*
X221932906Y-80333895D01*
X221928335Y-80335788D01*
X221928333Y-80335789D01*
X221718111Y-80422865D01*
X221718107Y-80422867D01*
X221713537Y-80424760D01*
X221709317Y-80427346D01*
X221515298Y-80546241D01*
X221515292Y-80546245D01*
X221511084Y-80548824D01*
X221330531Y-80703031D01*
X221176324Y-80883584D01*
X221173745Y-80887792D01*
X221173741Y-80887798D01*
X221111620Y-80989171D01*
X221052260Y-81086037D01*
X221050367Y-81090607D01*
X221050365Y-81090611D01*
X220981506Y-81256853D01*
X220961395Y-81305406D01*
X220953418Y-81338634D01*
X220919316Y-81480679D01*
X220905965Y-81536289D01*
X220887335Y-81773000D01*
X220905965Y-82009711D01*
X220907119Y-82014518D01*
X220907120Y-82014524D01*
X220947041Y-82180804D01*
X220961119Y-82239444D01*
X220961395Y-82240594D01*
X220961153Y-82240652D01*
X220963116Y-82309365D01*
X220932653Y-82364066D01*
X220889308Y-82409742D01*
X220729502Y-82632136D01*
X220601357Y-82874161D01*
X220599885Y-82878184D01*
X220599883Y-82878188D01*
X220509649Y-83124762D01*
X220507243Y-83131337D01*
X220448904Y-83398907D01*
X220427417Y-83671918D01*
X210977077Y-83671918D01*
X211212590Y-83591972D01*
X211212591Y-83591971D01*
X211216496Y-83590646D01*
X211347565Y-83526010D01*
X211490077Y-83455731D01*
X211490082Y-83455728D01*
X211493781Y-83453904D01*
X211579146Y-83396865D01*
X211747414Y-83284432D01*
X211747419Y-83284428D01*
X211750845Y-83282139D01*
X211753939Y-83279425D01*
X211753945Y-83279421D01*
X211980201Y-83080999D01*
X211983290Y-83078290D01*
X212120140Y-82922243D01*
X212184421Y-82848945D01*
X212184425Y-82848939D01*
X212187139Y-82845845D01*
X212191571Y-82839213D01*
X212356609Y-82592215D01*
X212356610Y-82592213D01*
X212358904Y-82588780D01*
X212422430Y-82459963D01*
X212493820Y-82315200D01*
X212493823Y-82315192D01*
X212495646Y-82311496D01*
X212521346Y-82235787D01*
X212593699Y-82022642D01*
X212593700Y-82022639D01*
X212595025Y-82018735D01*
X212644766Y-81768667D01*
X212654536Y-81719550D01*
X212654536Y-81719547D01*
X212655340Y-81715507D01*
X212656106Y-81703829D01*
X212675291Y-81411119D01*
X212675561Y-81407000D01*
X212669403Y-81313050D01*
X212655610Y-81102608D01*
X212655609Y-81102604D01*
X212655340Y-81098493D01*
X212652863Y-81086037D01*
X212633595Y-80989171D01*
X212595025Y-80795265D01*
X212548061Y-80656912D01*
X212496975Y-80506419D01*
X212495646Y-80502504D01*
X212493823Y-80498808D01*
X212493820Y-80498800D01*
X212360730Y-80228923D01*
X212358904Y-80225220D01*
X212322241Y-80170350D01*
X212189432Y-79971586D01*
X212189428Y-79971581D01*
X212187139Y-79968155D01*
X212184425Y-79965061D01*
X212184421Y-79965055D01*
X212141030Y-79915578D01*
X212111153Y-79851174D01*
X212120839Y-79780841D01*
X212167012Y-79726909D01*
X212235762Y-79706500D01*
X214385906Y-79706500D01*
X214454027Y-79726502D01*
X214475001Y-79743405D01*
X215926136Y-81194541D01*
X215960162Y-81256853D01*
X215959560Y-81313050D01*
X215919316Y-81480679D01*
X215905965Y-81536289D01*
X215887335Y-81773000D01*
X215905965Y-82009711D01*
X215907119Y-82014518D01*
X215907120Y-82014524D01*
X215916115Y-82051990D01*
X215961395Y-82240594D01*
X215963288Y-82245165D01*
X215963289Y-82245167D01*
X216039668Y-82429562D01*
X216052260Y-82459963D01*
X216054846Y-82464183D01*
X216173741Y-82658202D01*
X216173745Y-82658208D01*
X216176324Y-82662416D01*
X216330531Y-82842969D01*
X216511084Y-82997176D01*
X216515292Y-82999755D01*
X216515298Y-82999759D01*
X216643449Y-83078290D01*
X216713537Y-83121240D01*
X216718107Y-83123133D01*
X216718111Y-83123135D01*
X216928333Y-83210211D01*
X216932906Y-83212105D01*
X217013109Y-83231360D01*
X217158976Y-83266380D01*
X217158982Y-83266381D01*
X217163789Y-83267535D01*
X217400500Y-83286165D01*
X217637211Y-83267535D01*
X217642018Y-83266381D01*
X217642024Y-83266380D01*
X217787891Y-83231360D01*
X217868094Y-83212105D01*
X217872667Y-83210211D01*
X218082889Y-83123135D01*
X218082893Y-83123133D01*
X218087463Y-83121240D01*
X218157551Y-83078290D01*
X218285702Y-82999759D01*
X218285708Y-82999755D01*
X218289916Y-82997176D01*
X218470469Y-82842969D01*
X218624676Y-82662416D01*
X218627255Y-82658208D01*
X218627259Y-82658202D01*
X218746154Y-82464183D01*
X218748740Y-82459963D01*
X218761333Y-82429562D01*
X218837711Y-82245167D01*
X218837712Y-82245165D01*
X218839605Y-82240594D01*
X218884885Y-82051990D01*
X218893880Y-82014524D01*
X218893881Y-82014518D01*
X218895035Y-82009711D01*
X218913665Y-81773000D01*
X218895035Y-81536289D01*
X218881685Y-81480679D01*
X218847582Y-81338634D01*
X218839605Y-81305406D01*
X218819494Y-81256853D01*
X218750635Y-81090611D01*
X218750633Y-81090607D01*
X218748740Y-81086037D01*
X218689380Y-80989171D01*
X218627259Y-80887798D01*
X218627255Y-80887792D01*
X218624676Y-80883584D01*
X218470469Y-80703031D01*
X218289916Y-80548824D01*
X218285708Y-80546245D01*
X218285702Y-80546241D01*
X218091683Y-80427346D01*
X218087463Y-80424760D01*
X218082893Y-80422867D01*
X218082889Y-80422865D01*
X217872667Y-80335789D01*
X217872665Y-80335788D01*
X217868094Y-80333895D01*
X217787891Y-80314640D01*
X217642024Y-80279620D01*
X217642018Y-80279619D01*
X217637211Y-80278465D01*
X217400500Y-80259835D01*
X217163789Y-80278465D01*
X217158982Y-80279619D01*
X217158976Y-80279620D01*
X216940549Y-80332060D01*
X216869641Y-80328513D01*
X216822040Y-80298636D01*
X215700750Y-79177345D01*
X215666724Y-79115033D01*
X215671789Y-79044217D01*
X215714336Y-78987382D01*
X215780856Y-78962571D01*
X215789845Y-78962250D01*
X229376172Y-78962250D01*
X229395557Y-78963750D01*
X229410359Y-78966055D01*
X229410361Y-78966055D01*
X229419230Y-78967436D01*
X229428130Y-78966272D01*
X229437106Y-78966382D01*
X229437096Y-78967200D01*
X229458586Y-78967491D01*
X229478974Y-78970720D01*
X229494092Y-78973114D01*
X229531581Y-78985295D01*
X229575682Y-79007765D01*
X229607573Y-79030936D01*
X229642564Y-79065927D01*
X229665735Y-79097818D01*
X229688205Y-79141919D01*
X229700386Y-79179408D01*
X229705874Y-79214059D01*
X229707304Y-79233767D01*
X229706064Y-79241730D01*
X229707888Y-79255678D01*
X229710186Y-79273251D01*
X229711250Y-79289589D01*
X229711250Y-98248672D01*
X229709750Y-98268056D01*
X229706064Y-98291730D01*
X229707228Y-98300630D01*
X229707118Y-98309606D01*
X229706300Y-98309596D01*
X229706009Y-98331086D01*
X229700386Y-98366591D01*
X229688205Y-98404081D01*
X229669997Y-98439818D01*
X229665736Y-98448181D01*
X229642564Y-98480073D01*
X229607573Y-98515064D01*
X229575682Y-98538235D01*
X229531581Y-98560705D01*
X229494092Y-98572886D01*
X229459441Y-98578374D01*
X229439733Y-98579804D01*
X229431770Y-98578564D01*
X229400249Y-98582686D01*
X229383911Y-98583750D01*
X191701513Y-98583750D01*
X191633392Y-98563748D01*
X191586899Y-98510092D01*
X191576795Y-98439818D01*
X191606289Y-98375238D01*
X191666015Y-98336854D01*
X191676932Y-98334171D01*
X191873735Y-98295025D01*
X191877639Y-98293700D01*
X191877642Y-98293699D01*
X192162590Y-98196972D01*
X192162591Y-98196971D01*
X192166496Y-98195646D01*
X192297565Y-98131010D01*
X192440077Y-98060731D01*
X192440082Y-98060728D01*
X192443781Y-98058904D01*
X192559624Y-97981500D01*
X192697414Y-97889432D01*
X192697419Y-97889428D01*
X192700845Y-97887139D01*
X192703939Y-97884425D01*
X192703945Y-97884421D01*
X192930201Y-97685999D01*
X192933290Y-97683290D01*
X192969814Y-97641642D01*
X193134421Y-97453945D01*
X193134425Y-97453939D01*
X193137139Y-97450845D01*
X193170139Y-97401458D01*
X193306609Y-97197215D01*
X193306610Y-97197213D01*
X193308904Y-97193780D01*
X193363771Y-97082522D01*
X193443820Y-96920200D01*
X193443823Y-96920192D01*
X193445646Y-96916496D01*
X193472570Y-96837180D01*
X193543699Y-96627642D01*
X193543700Y-96627639D01*
X193545025Y-96623735D01*
X193601675Y-96338931D01*
X193604536Y-96324550D01*
X193604536Y-96324547D01*
X193605340Y-96320507D01*
X193606699Y-96299783D01*
X193625291Y-96016119D01*
X193625561Y-96012000D01*
X193615239Y-95854520D01*
X193605610Y-95707608D01*
X193605609Y-95707604D01*
X193605340Y-95703493D01*
X193545025Y-95400265D01*
X193541660Y-95390350D01*
X193446975Y-95111419D01*
X193445646Y-95107504D01*
X193443823Y-95103808D01*
X193443820Y-95103800D01*
X193310730Y-94833923D01*
X193308904Y-94830220D01*
X193300136Y-94817097D01*
X193139432Y-94576586D01*
X193139428Y-94576581D01*
X193137139Y-94573155D01*
X193134425Y-94570061D01*
X193134421Y-94570055D01*
X192935999Y-94343799D01*
X192933290Y-94340710D01*
X192896946Y-94308837D01*
X192703945Y-94139579D01*
X192703939Y-94139575D01*
X192700845Y-94136861D01*
X192697419Y-94134572D01*
X192697414Y-94134568D01*
X192503682Y-94005121D01*
X192443781Y-93965096D01*
X192440082Y-93963272D01*
X192440077Y-93963269D01*
X192297565Y-93892990D01*
X192166496Y-93828354D01*
X192162581Y-93827025D01*
X191877642Y-93730301D01*
X191877639Y-93730300D01*
X191873735Y-93728975D01*
X191647039Y-93683883D01*
X191574550Y-93669464D01*
X191574547Y-93669464D01*
X191570507Y-93668660D01*
X191566396Y-93668391D01*
X191566392Y-93668390D01*
X191266119Y-93648709D01*
X191262000Y-93648439D01*
X191257881Y-93648709D01*
X190957608Y-93668390D01*
X190957604Y-93668391D01*
X190953493Y-93668660D01*
X190949453Y-93669464D01*
X190949450Y-93669464D01*
X190876961Y-93683883D01*
X190650265Y-93728975D01*
X190646361Y-93730300D01*
X190646358Y-93730301D01*
X190361419Y-93827025D01*
X190357504Y-93828354D01*
X190353808Y-93830177D01*
X190353800Y-93830180D01*
X190129648Y-93940721D01*
X190080220Y-93965096D01*
X190076787Y-93967390D01*
X190076785Y-93967391D01*
X189826586Y-94134568D01*
X189826581Y-94134572D01*
X189823155Y-94136861D01*
X189820061Y-94139575D01*
X189820055Y-94139579D01*
X189627054Y-94308837D01*
X189590710Y-94340710D01*
X189588001Y-94343799D01*
X189389579Y-94570055D01*
X189389575Y-94570061D01*
X189386861Y-94573155D01*
X189384572Y-94576581D01*
X189384568Y-94576586D01*
X189223864Y-94817097D01*
X189215096Y-94830220D01*
X189213270Y-94833923D01*
X189080180Y-95103800D01*
X189080177Y-95103808D01*
X189078354Y-95107504D01*
X189077025Y-95111419D01*
X188982341Y-95390350D01*
X188978975Y-95400265D01*
X188918660Y-95703493D01*
X188918391Y-95707604D01*
X188918390Y-95707608D01*
X188908761Y-95854520D01*
X188898439Y-96012000D01*
X188898709Y-96016119D01*
X188917302Y-96299783D01*
X188918660Y-96320507D01*
X188919464Y-96324547D01*
X188919464Y-96324550D01*
X188922325Y-96338931D01*
X188978975Y-96623735D01*
X188980300Y-96627639D01*
X188980301Y-96627642D01*
X189051430Y-96837180D01*
X189078354Y-96916496D01*
X189080177Y-96920192D01*
X189080180Y-96920200D01*
X189160229Y-97082522D01*
X189215096Y-97193780D01*
X189217390Y-97197213D01*
X189217391Y-97197215D01*
X189353862Y-97401458D01*
X189386861Y-97450845D01*
X189389575Y-97453939D01*
X189389579Y-97453945D01*
X189554186Y-97641642D01*
X189590710Y-97683290D01*
X189593799Y-97685999D01*
X189820055Y-97884421D01*
X189820061Y-97884425D01*
X189823155Y-97887139D01*
X189826581Y-97889428D01*
X189826586Y-97889432D01*
X189964376Y-97981500D01*
X190080219Y-98058904D01*
X190083918Y-98060728D01*
X190083923Y-98060731D01*
X190226435Y-98131010D01*
X190357504Y-98195646D01*
X190361409Y-98196971D01*
X190361410Y-98196972D01*
X190646358Y-98293699D01*
X190646361Y-98293700D01*
X190650265Y-98295025D01*
X190847068Y-98334171D01*
X190909978Y-98367078D01*
X190945110Y-98428773D01*
X190941310Y-98499668D01*
X190899785Y-98557254D01*
X190833718Y-98583248D01*
X190822487Y-98583750D01*
X134187328Y-98583750D01*
X134167943Y-98582250D01*
X134153141Y-98579945D01*
X134153139Y-98579945D01*
X134144270Y-98578564D01*
X134135370Y-98579728D01*
X134126394Y-98579618D01*
X134126404Y-98578800D01*
X134104914Y-98578509D01*
X134084526Y-98575280D01*
X134069408Y-98572886D01*
X134031919Y-98560705D01*
X133987818Y-98538235D01*
X133955927Y-98515064D01*
X133920936Y-98480073D01*
X133897764Y-98448181D01*
X133893503Y-98439818D01*
X133875295Y-98404081D01*
X133863114Y-98366591D01*
X133858407Y-98336870D01*
X133857517Y-98310541D01*
X133857321Y-98310539D01*
X133857373Y-98306288D01*
X133857373Y-98306285D01*
X133857474Y-98298000D01*
X133853523Y-98270412D01*
X133852250Y-98252549D01*
X133852250Y-95864100D01*
X135922147Y-95864100D01*
X135941522Y-96085563D01*
X135999060Y-96300296D01*
X136001382Y-96305277D01*
X136001383Y-96305278D01*
X136090686Y-96496789D01*
X136090689Y-96496794D01*
X136093012Y-96501776D01*
X136096168Y-96506283D01*
X136096169Y-96506285D01*
X136132607Y-96558323D01*
X136220523Y-96683881D01*
X136377719Y-96841077D01*
X136382227Y-96844234D01*
X136382230Y-96844236D01*
X136457995Y-96897287D01*
X136559823Y-96968588D01*
X136564805Y-96970911D01*
X136564810Y-96970914D01*
X136755310Y-97059745D01*
X136761304Y-97062540D01*
X136766612Y-97063962D01*
X136766614Y-97063963D01*
X136823815Y-97079290D01*
X136976037Y-97120078D01*
X137197500Y-97139453D01*
X137418963Y-97120078D01*
X137571185Y-97079290D01*
X137628386Y-97063963D01*
X137628388Y-97063962D01*
X137633696Y-97062540D01*
X137639690Y-97059745D01*
X137830190Y-96970914D01*
X137830195Y-96970911D01*
X137835177Y-96968588D01*
X137900459Y-96922877D01*
X139043277Y-96922877D01*
X139052574Y-96934893D01*
X139095569Y-96964998D01*
X139105055Y-96970476D01*
X139296493Y-97059745D01*
X139306785Y-97063491D01*
X139510809Y-97118159D01*
X139521604Y-97120062D01*
X139732025Y-97138472D01*
X139742975Y-97138472D01*
X139953396Y-97120062D01*
X139964191Y-97118159D01*
X140168215Y-97063491D01*
X140178507Y-97059745D01*
X140369945Y-96970476D01*
X140379431Y-96964998D01*
X140423264Y-96934307D01*
X140431639Y-96923829D01*
X140424571Y-96910381D01*
X139750312Y-96236122D01*
X139736368Y-96228508D01*
X139734535Y-96228639D01*
X139727920Y-96232890D01*
X139049707Y-96911103D01*
X139043277Y-96922877D01*
X137900459Y-96922877D01*
X137937005Y-96897287D01*
X138012770Y-96844236D01*
X138012773Y-96844234D01*
X138017281Y-96841077D01*
X138174477Y-96683881D01*
X138262394Y-96558323D01*
X138298831Y-96506285D01*
X138298832Y-96506283D01*
X138301988Y-96501776D01*
X138304311Y-96496794D01*
X138304314Y-96496789D01*
X138353581Y-96391135D01*
X138400499Y-96337850D01*
X138468776Y-96318389D01*
X138536736Y-96338931D01*
X138581971Y-96391135D01*
X138631123Y-96496541D01*
X138636603Y-96506032D01*
X138667294Y-96549865D01*
X138677771Y-96558240D01*
X138691218Y-96551172D01*
X139365478Y-95876912D01*
X139373092Y-95862968D01*
X139372961Y-95861135D01*
X139368710Y-95854520D01*
X138690497Y-95176307D01*
X138678723Y-95169877D01*
X138666707Y-95179174D01*
X138636603Y-95222168D01*
X138631123Y-95231659D01*
X138581971Y-95337065D01*
X138535053Y-95390350D01*
X138466776Y-95409811D01*
X138398816Y-95389269D01*
X138353581Y-95337065D01*
X138304314Y-95231411D01*
X138304311Y-95231406D01*
X138301988Y-95226424D01*
X138294740Y-95216072D01*
X138221461Y-95111419D01*
X138174477Y-95044319D01*
X138017281Y-94887123D01*
X138012773Y-94883966D01*
X138012770Y-94883964D01*
X137936015Y-94830220D01*
X137899099Y-94804371D01*
X139043360Y-94804371D01*
X139050428Y-94817818D01*
X139724688Y-95492078D01*
X139738632Y-95499692D01*
X139740465Y-95499561D01*
X139747080Y-95495310D01*
X140425293Y-94817097D01*
X140431723Y-94805323D01*
X140422426Y-94793307D01*
X140379431Y-94763202D01*
X140369945Y-94757724D01*
X140178507Y-94668455D01*
X140168215Y-94664709D01*
X139964191Y-94610041D01*
X139953396Y-94608138D01*
X139742975Y-94589728D01*
X139732025Y-94589728D01*
X139521604Y-94608138D01*
X139510809Y-94610041D01*
X139306785Y-94664709D01*
X139296493Y-94668455D01*
X139105059Y-94757723D01*
X139095568Y-94763203D01*
X139051735Y-94793894D01*
X139043360Y-94804371D01*
X137899099Y-94804371D01*
X137835177Y-94759612D01*
X137830195Y-94757289D01*
X137830190Y-94757286D01*
X137638678Y-94667983D01*
X137638677Y-94667982D01*
X137633696Y-94665660D01*
X137628388Y-94664238D01*
X137628386Y-94664237D01*
X137528281Y-94637414D01*
X137418963Y-94608122D01*
X137197500Y-94588747D01*
X136976037Y-94608122D01*
X136866719Y-94637414D01*
X136766614Y-94664237D01*
X136766612Y-94664238D01*
X136761304Y-94665660D01*
X136756323Y-94667982D01*
X136756322Y-94667983D01*
X136564811Y-94757286D01*
X136564806Y-94757289D01*
X136559824Y-94759612D01*
X136555317Y-94762768D01*
X136555315Y-94762769D01*
X136382230Y-94883964D01*
X136382227Y-94883966D01*
X136377719Y-94887123D01*
X136220523Y-95044319D01*
X136173539Y-95111419D01*
X136100261Y-95216072D01*
X136093012Y-95226424D01*
X136090689Y-95231406D01*
X136090686Y-95231411D01*
X136001405Y-95422875D01*
X135999060Y-95427904D01*
X135997638Y-95433212D01*
X135997637Y-95433214D01*
X135988195Y-95468453D01*
X135941522Y-95642637D01*
X135922147Y-95864100D01*
X133852250Y-95864100D01*
X133852250Y-93121134D01*
X150842000Y-93121134D01*
X150848755Y-93183316D01*
X150899885Y-93319705D01*
X150987239Y-93436261D01*
X151103795Y-93523615D01*
X151240184Y-93574745D01*
X151302366Y-93581500D01*
X152998634Y-93581500D01*
X153060816Y-93574745D01*
X153197205Y-93523615D01*
X153313761Y-93436261D01*
X153401115Y-93319705D01*
X153452245Y-93183316D01*
X153459000Y-93121134D01*
X153459000Y-91424866D01*
X153452245Y-91362684D01*
X153401115Y-91226295D01*
X153313761Y-91109739D01*
X153197205Y-91022385D01*
X153060816Y-90971255D01*
X152998634Y-90964500D01*
X151302366Y-90964500D01*
X151240184Y-90971255D01*
X151103795Y-91022385D01*
X150987239Y-91109739D01*
X150899885Y-91226295D01*
X150848755Y-91362684D01*
X150842000Y-91424866D01*
X150842000Y-93121134D01*
X133852250Y-93121134D01*
X133852250Y-88739082D01*
X137232672Y-88739082D01*
X137232969Y-88744234D01*
X137232969Y-88744238D01*
X137240078Y-88867525D01*
X137245768Y-88966206D01*
X137295783Y-89188141D01*
X137381375Y-89398927D01*
X137500244Y-89592904D01*
X137649198Y-89764861D01*
X137824237Y-89910181D01*
X137828689Y-89912783D01*
X137828694Y-89912786D01*
X137939172Y-89977344D01*
X138020660Y-90024962D01*
X138233193Y-90106120D01*
X138238259Y-90107151D01*
X138238260Y-90107151D01*
X138337361Y-90127313D01*
X138456127Y-90151476D01*
X138583937Y-90156163D01*
X138678311Y-90159624D01*
X138678315Y-90159624D01*
X138683475Y-90159813D01*
X138688595Y-90159157D01*
X138688597Y-90159157D01*
X138904004Y-90131563D01*
X138904005Y-90131563D01*
X138909132Y-90130906D01*
X138995611Y-90104961D01*
X139122091Y-90067015D01*
X139122092Y-90067014D01*
X139127037Y-90065531D01*
X139331339Y-89965444D01*
X139335543Y-89962446D01*
X139335547Y-89962443D01*
X139512347Y-89836333D01*
X139512349Y-89836331D01*
X139516551Y-89833334D01*
X139677699Y-89672747D01*
X139708246Y-89630237D01*
X139807438Y-89492198D01*
X139807442Y-89492192D01*
X139810456Y-89487997D01*
X139872390Y-89362684D01*
X139908961Y-89288688D01*
X139908962Y-89288686D01*
X139911255Y-89284046D01*
X139962789Y-89114429D01*
X139975888Y-89071314D01*
X139975888Y-89071313D01*
X139977390Y-89066370D01*
X139983596Y-89019233D01*
X140006648Y-88844136D01*
X140006648Y-88844132D01*
X140007085Y-88840815D01*
X140008610Y-88778404D01*
X140008660Y-88776365D01*
X140008660Y-88776361D01*
X140008742Y-88773000D01*
X139990101Y-88546264D01*
X139951266Y-88391656D01*
X139954070Y-88320716D01*
X139994783Y-88262552D01*
X140058332Y-88235874D01*
X140267735Y-88210534D01*
X140532627Y-88141041D01*
X140536587Y-88139401D01*
X140536592Y-88139399D01*
X140659131Y-88088641D01*
X140785636Y-88036241D01*
X140974340Y-87925971D01*
X141018379Y-87900237D01*
X141018380Y-87900236D01*
X141022082Y-87898073D01*
X141141608Y-87804353D01*
X141207554Y-87778062D01*
X141277248Y-87791597D01*
X141328561Y-87840664D01*
X141345201Y-87909683D01*
X141339185Y-87942443D01*
X141271925Y-88149448D01*
X141212923Y-88458746D01*
X141193152Y-88773000D01*
X141212923Y-89087254D01*
X141271925Y-89396552D01*
X141273152Y-89400328D01*
X141357362Y-89659498D01*
X141369227Y-89696016D01*
X141370914Y-89699602D01*
X141370916Y-89699606D01*
X141501606Y-89977338D01*
X141501609Y-89977344D01*
X141503294Y-89980924D01*
X141672013Y-90246782D01*
X141872722Y-90489398D01*
X142102256Y-90704945D01*
X142356996Y-90890024D01*
X142360465Y-90891931D01*
X142360468Y-90891933D01*
X142597760Y-91022385D01*
X142632923Y-91041716D01*
X142925687Y-91157630D01*
X143230670Y-91235936D01*
X143543062Y-91275400D01*
X143857938Y-91275400D01*
X144170330Y-91235936D01*
X144475313Y-91157630D01*
X144768077Y-91041716D01*
X144803240Y-91022385D01*
X145040532Y-90891933D01*
X145040535Y-90891931D01*
X145044004Y-90890024D01*
X145298744Y-90704945D01*
X145528278Y-90489398D01*
X145728987Y-90246782D01*
X145897706Y-89980924D01*
X145899391Y-89977344D01*
X145899394Y-89977338D01*
X146030084Y-89699606D01*
X146030086Y-89699602D01*
X146031773Y-89696016D01*
X146043639Y-89659498D01*
X146127848Y-89400328D01*
X146129075Y-89396552D01*
X146188077Y-89087254D01*
X146207848Y-88773000D01*
X146205714Y-88739082D01*
X147392672Y-88739082D01*
X147392969Y-88744234D01*
X147392969Y-88744238D01*
X147400078Y-88867525D01*
X147405768Y-88966206D01*
X147455783Y-89188141D01*
X147541375Y-89398927D01*
X147660244Y-89592904D01*
X147809198Y-89764861D01*
X147984237Y-89910181D01*
X147988689Y-89912783D01*
X147988694Y-89912786D01*
X148099172Y-89977344D01*
X148180660Y-90024962D01*
X148393193Y-90106120D01*
X148398259Y-90107151D01*
X148398260Y-90107151D01*
X148497361Y-90127313D01*
X148616127Y-90151476D01*
X148743937Y-90156163D01*
X148838311Y-90159624D01*
X148838315Y-90159624D01*
X148843475Y-90159813D01*
X148848595Y-90159157D01*
X148848597Y-90159157D01*
X149064004Y-90131563D01*
X149064005Y-90131563D01*
X149069132Y-90130906D01*
X149155611Y-90104961D01*
X149282091Y-90067015D01*
X149282092Y-90067014D01*
X149287037Y-90065531D01*
X149491339Y-89965444D01*
X149495543Y-89962446D01*
X149495547Y-89962443D01*
X149672347Y-89836333D01*
X149672349Y-89836331D01*
X149676551Y-89833334D01*
X149837699Y-89672747D01*
X149868246Y-89630237D01*
X149967438Y-89492198D01*
X149967442Y-89492192D01*
X149970456Y-89487997D01*
X150032390Y-89362684D01*
X150068961Y-89288688D01*
X150068962Y-89288686D01*
X150071255Y-89284046D01*
X150122789Y-89114429D01*
X150135888Y-89071314D01*
X150135888Y-89071313D01*
X150137390Y-89066370D01*
X150143596Y-89019233D01*
X150166648Y-88844136D01*
X150166648Y-88844132D01*
X150167085Y-88840815D01*
X150168610Y-88778404D01*
X150168660Y-88776365D01*
X150168660Y-88776361D01*
X150168742Y-88773000D01*
X150150101Y-88546264D01*
X150105253Y-88367716D01*
X150095937Y-88330629D01*
X150095937Y-88330628D01*
X150094678Y-88325617D01*
X150041344Y-88202957D01*
X150006022Y-88121722D01*
X150006020Y-88121719D01*
X150003962Y-88116985D01*
X149924359Y-87993936D01*
X149883198Y-87930311D01*
X149883196Y-87930308D01*
X149880390Y-87925971D01*
X149727279Y-87757704D01*
X149548741Y-87616704D01*
X149511037Y-87595890D01*
X149455217Y-87565076D01*
X149349572Y-87506757D01*
X149344703Y-87505033D01*
X149344699Y-87505031D01*
X149139996Y-87432541D01*
X149139992Y-87432540D01*
X149135121Y-87430815D01*
X149130028Y-87429908D01*
X149130025Y-87429907D01*
X148916234Y-87391825D01*
X148916228Y-87391824D01*
X148911145Y-87390919D01*
X148837696Y-87390022D01*
X148688831Y-87388203D01*
X148688829Y-87388203D01*
X148683661Y-87388140D01*
X148458778Y-87422552D01*
X148242535Y-87493231D01*
X148237947Y-87495619D01*
X148237943Y-87495621D01*
X148097633Y-87568662D01*
X148040739Y-87598279D01*
X148036606Y-87601382D01*
X148036603Y-87601384D01*
X147862945Y-87731770D01*
X147858810Y-87734875D01*
X147855238Y-87738613D01*
X147729014Y-87870699D01*
X147701633Y-87899351D01*
X147573431Y-88087289D01*
X147571258Y-88091971D01*
X147571256Y-88091974D01*
X147501663Y-88241901D01*
X147477645Y-88293643D01*
X147416848Y-88512869D01*
X147416299Y-88518006D01*
X147399202Y-88677983D01*
X147392672Y-88739082D01*
X146205714Y-88739082D01*
X146188077Y-88458746D01*
X146129075Y-88149448D01*
X146031773Y-87849984D01*
X146030084Y-87846394D01*
X145899394Y-87568662D01*
X145899390Y-87568655D01*
X145897706Y-87565076D01*
X145889947Y-87552849D01*
X145840856Y-87475495D01*
X145728987Y-87299218D01*
X145528278Y-87056602D01*
X145298744Y-86841055D01*
X145044004Y-86655976D01*
X144996707Y-86629974D01*
X144771539Y-86506187D01*
X144771536Y-86506186D01*
X144768077Y-86504284D01*
X144475313Y-86388370D01*
X144170330Y-86310064D01*
X143857938Y-86270600D01*
X143543062Y-86270600D01*
X143230670Y-86310064D01*
X142925687Y-86388370D01*
X142632923Y-86504284D01*
X142629464Y-86506186D01*
X142629461Y-86506187D01*
X142404294Y-86629974D01*
X142356996Y-86655976D01*
X142102256Y-86841055D01*
X142099370Y-86843765D01*
X142099369Y-86843766D01*
X142033548Y-86905576D01*
X141970198Y-86937627D01*
X141899576Y-86930340D01*
X141844105Y-86886029D01*
X141821396Y-86818763D01*
X141824475Y-86785597D01*
X141877949Y-86552117D01*
X141877950Y-86552113D01*
X141878907Y-86547933D01*
X141879614Y-86540018D01*
X141903031Y-86277627D01*
X141903031Y-86277625D01*
X141903251Y-86275161D01*
X141903693Y-86233000D01*
X141903524Y-86230519D01*
X141885359Y-85964055D01*
X141885358Y-85964049D01*
X141885067Y-85959778D01*
X141829532Y-85691612D01*
X141738117Y-85433465D01*
X141612513Y-85190112D01*
X141606137Y-85181039D01*
X141457508Y-84969562D01*
X141455045Y-84966057D01*
X141384966Y-84890643D01*
X141271546Y-84768588D01*
X141271543Y-84768585D01*
X141268625Y-84765445D01*
X141265310Y-84762731D01*
X141265306Y-84762728D01*
X141060023Y-84594706D01*
X141056705Y-84591990D01*
X140823204Y-84448901D01*
X140819268Y-84447173D01*
X140576373Y-84340549D01*
X140576369Y-84340548D01*
X140572445Y-84338825D01*
X140309066Y-84263800D01*
X140304824Y-84263196D01*
X140304818Y-84263195D01*
X140104334Y-84234662D01*
X140037943Y-84225213D01*
X139894089Y-84224460D01*
X139768377Y-84223802D01*
X139768371Y-84223802D01*
X139764091Y-84223780D01*
X139759847Y-84224339D01*
X139759843Y-84224339D01*
X139643940Y-84239598D01*
X139492578Y-84259525D01*
X139488438Y-84260658D01*
X139488436Y-84260658D01*
X139471640Y-84265253D01*
X139228428Y-84331788D01*
X139224480Y-84333472D01*
X138980482Y-84437546D01*
X138980478Y-84437548D01*
X138976530Y-84439232D01*
X138896008Y-84487423D01*
X138745225Y-84577664D01*
X138745221Y-84577667D01*
X138741543Y-84579868D01*
X138527818Y-84751094D01*
X138416464Y-84868436D01*
X138365404Y-84922243D01*
X138339308Y-84949742D01*
X138179502Y-85172136D01*
X138051357Y-85414161D01*
X138049885Y-85418184D01*
X138049883Y-85418188D01*
X137980653Y-85607366D01*
X137957243Y-85671337D01*
X137898904Y-85938907D01*
X137877417Y-86211918D01*
X137893182Y-86485320D01*
X137894007Y-86489525D01*
X137894008Y-86489533D01*
X137917473Y-86609135D01*
X137945905Y-86754053D01*
X137947292Y-86758103D01*
X137947293Y-86758108D01*
X138033223Y-87009088D01*
X138034612Y-87013144D01*
X138096136Y-87135471D01*
X138138708Y-87220116D01*
X138157660Y-87257799D01*
X138180609Y-87291190D01*
X138202709Y-87358656D01*
X138184824Y-87427364D01*
X138132633Y-87475495D01*
X138115914Y-87482321D01*
X138109439Y-87484438D01*
X138082535Y-87493231D01*
X138077947Y-87495619D01*
X138077943Y-87495621D01*
X137937633Y-87568662D01*
X137880739Y-87598279D01*
X137876606Y-87601382D01*
X137876603Y-87601384D01*
X137702945Y-87731770D01*
X137698810Y-87734875D01*
X137695238Y-87738613D01*
X137569014Y-87870699D01*
X137541633Y-87899351D01*
X137413431Y-88087289D01*
X137411258Y-88091971D01*
X137411256Y-88091974D01*
X137341663Y-88241901D01*
X137317645Y-88293643D01*
X137256848Y-88512869D01*
X137256299Y-88518006D01*
X137239202Y-88677983D01*
X137232672Y-88739082D01*
X133852250Y-88739082D01*
X133852250Y-80644100D01*
X135922147Y-80644100D01*
X135941522Y-80865563D01*
X135942946Y-80870876D01*
X135995693Y-81067729D01*
X135999060Y-81080296D01*
X136001382Y-81085277D01*
X136001383Y-81085278D01*
X136090686Y-81276789D01*
X136090689Y-81276794D01*
X136093012Y-81281776D01*
X136096168Y-81286283D01*
X136096169Y-81286285D01*
X136203497Y-81439565D01*
X136220523Y-81463881D01*
X136377719Y-81621077D01*
X136382227Y-81624234D01*
X136382230Y-81624236D01*
X136457995Y-81677287D01*
X136559823Y-81748588D01*
X136564805Y-81750911D01*
X136564810Y-81750914D01*
X136755310Y-81839745D01*
X136761304Y-81842540D01*
X136766612Y-81843962D01*
X136766614Y-81843963D01*
X136832449Y-81861603D01*
X136976037Y-81900078D01*
X137197500Y-81919453D01*
X137418963Y-81900078D01*
X137562551Y-81861603D01*
X137628386Y-81843963D01*
X137628388Y-81843962D01*
X137633696Y-81842540D01*
X137639690Y-81839745D01*
X137830190Y-81750914D01*
X137830195Y-81750911D01*
X137835177Y-81748588D01*
X137937005Y-81677287D01*
X138012770Y-81624236D01*
X138012773Y-81624234D01*
X138017281Y-81621077D01*
X138174477Y-81463881D01*
X138191504Y-81439565D01*
X138298831Y-81286285D01*
X138298832Y-81286283D01*
X138301988Y-81281776D01*
X138304311Y-81276794D01*
X138304314Y-81276789D01*
X138353305Y-81171727D01*
X138400223Y-81118442D01*
X138468500Y-81098981D01*
X138536460Y-81119523D01*
X138581695Y-81171727D01*
X138630686Y-81276789D01*
X138630689Y-81276794D01*
X138633012Y-81281776D01*
X138636168Y-81286283D01*
X138636169Y-81286285D01*
X138743497Y-81439565D01*
X138760523Y-81463881D01*
X138917719Y-81621077D01*
X138922227Y-81624234D01*
X138922230Y-81624236D01*
X138997995Y-81677287D01*
X139099823Y-81748588D01*
X139104805Y-81750911D01*
X139104810Y-81750914D01*
X139295310Y-81839745D01*
X139301304Y-81842540D01*
X139306612Y-81843962D01*
X139306614Y-81843963D01*
X139372449Y-81861603D01*
X139516037Y-81900078D01*
X139737500Y-81919453D01*
X139958963Y-81900078D01*
X140102551Y-81861603D01*
X140168386Y-81843963D01*
X140168388Y-81843962D01*
X140173696Y-81842540D01*
X140179690Y-81839745D01*
X140370190Y-81750914D01*
X140370195Y-81750911D01*
X140375177Y-81748588D01*
X140440459Y-81702877D01*
X141583277Y-81702877D01*
X141592574Y-81714893D01*
X141635569Y-81744998D01*
X141645055Y-81750476D01*
X141836493Y-81839745D01*
X141846785Y-81843491D01*
X142050809Y-81898159D01*
X142061604Y-81900062D01*
X142272025Y-81918472D01*
X142282975Y-81918472D01*
X142493396Y-81900062D01*
X142504191Y-81898159D01*
X142708215Y-81843491D01*
X142718507Y-81839745D01*
X142909945Y-81750476D01*
X142919431Y-81744998D01*
X142963264Y-81714307D01*
X142971639Y-81703829D01*
X142964571Y-81690381D01*
X142290312Y-81016122D01*
X142276368Y-81008508D01*
X142274535Y-81008639D01*
X142267920Y-81012890D01*
X141589707Y-81691103D01*
X141583277Y-81702877D01*
X140440459Y-81702877D01*
X140477005Y-81677287D01*
X140552770Y-81624236D01*
X140552773Y-81624234D01*
X140557281Y-81621077D01*
X140714477Y-81463881D01*
X140731504Y-81439565D01*
X140838831Y-81286285D01*
X140838832Y-81286283D01*
X140841988Y-81281776D01*
X140844311Y-81276794D01*
X140844314Y-81276789D01*
X140893581Y-81171135D01*
X140940499Y-81117850D01*
X141008776Y-81098389D01*
X141076736Y-81118931D01*
X141121971Y-81171135D01*
X141171123Y-81276541D01*
X141176603Y-81286032D01*
X141207294Y-81329865D01*
X141217771Y-81338240D01*
X141231218Y-81331172D01*
X141905478Y-80656912D01*
X141911856Y-80645232D01*
X142641908Y-80645232D01*
X142642039Y-80647065D01*
X142646290Y-80653680D01*
X143324503Y-81331893D01*
X143336277Y-81338323D01*
X143348293Y-81329026D01*
X143378397Y-81286032D01*
X143383877Y-81276541D01*
X143433305Y-81170543D01*
X143480222Y-81117258D01*
X143548500Y-81097797D01*
X143616460Y-81118339D01*
X143661695Y-81170543D01*
X143711123Y-81276541D01*
X143716603Y-81286032D01*
X143747294Y-81329865D01*
X143757771Y-81338240D01*
X143771218Y-81331172D01*
X144445478Y-80656912D01*
X144453092Y-80642968D01*
X144452961Y-80641135D01*
X144448710Y-80634520D01*
X143770497Y-79956307D01*
X143758723Y-79949877D01*
X143746707Y-79959174D01*
X143716603Y-80002168D01*
X143711123Y-80011659D01*
X143661695Y-80117657D01*
X143614778Y-80170942D01*
X143546500Y-80190403D01*
X143478540Y-80169861D01*
X143433305Y-80117657D01*
X143383877Y-80011659D01*
X143378397Y-80002168D01*
X143347706Y-79958335D01*
X143337229Y-79949960D01*
X143323782Y-79957028D01*
X142649522Y-80631288D01*
X142641908Y-80645232D01*
X141911856Y-80645232D01*
X141913092Y-80642968D01*
X141912961Y-80641135D01*
X141908710Y-80634520D01*
X141230497Y-79956307D01*
X141218723Y-79949877D01*
X141206707Y-79959174D01*
X141176603Y-80002168D01*
X141171123Y-80011659D01*
X141121971Y-80117065D01*
X141075053Y-80170350D01*
X141006776Y-80189811D01*
X140938816Y-80169269D01*
X140893581Y-80117065D01*
X140844314Y-80011411D01*
X140844311Y-80011406D01*
X140841988Y-80006424D01*
X140813021Y-79965055D01*
X140717636Y-79828830D01*
X140717634Y-79828827D01*
X140714477Y-79824319D01*
X140557281Y-79667123D01*
X140552773Y-79663966D01*
X140552770Y-79663964D01*
X140477005Y-79610913D01*
X140439099Y-79584371D01*
X141583360Y-79584371D01*
X141590428Y-79597818D01*
X142264688Y-80272078D01*
X142278632Y-80279692D01*
X142280465Y-80279561D01*
X142287080Y-80275310D01*
X142965293Y-79597097D01*
X142971723Y-79585323D01*
X142970986Y-79584371D01*
X144123360Y-79584371D01*
X144130428Y-79597818D01*
X144804688Y-80272078D01*
X144818632Y-80279692D01*
X144820465Y-80279561D01*
X144827080Y-80275310D01*
X145505293Y-79597097D01*
X145511723Y-79585323D01*
X145502426Y-79573307D01*
X145459431Y-79543202D01*
X145449945Y-79537724D01*
X145258507Y-79448455D01*
X145248215Y-79444709D01*
X145044191Y-79390041D01*
X145033396Y-79388138D01*
X144822975Y-79369728D01*
X144812025Y-79369728D01*
X144601604Y-79388138D01*
X144590809Y-79390041D01*
X144386785Y-79444709D01*
X144376493Y-79448455D01*
X144185059Y-79537723D01*
X144175568Y-79543203D01*
X144131735Y-79573894D01*
X144123360Y-79584371D01*
X142970986Y-79584371D01*
X142962426Y-79573307D01*
X142919431Y-79543202D01*
X142909945Y-79537724D01*
X142718507Y-79448455D01*
X142708215Y-79444709D01*
X142504191Y-79390041D01*
X142493396Y-79388138D01*
X142282975Y-79369728D01*
X142272025Y-79369728D01*
X142061604Y-79388138D01*
X142050809Y-79390041D01*
X141846785Y-79444709D01*
X141836493Y-79448455D01*
X141645059Y-79537723D01*
X141635568Y-79543203D01*
X141591735Y-79573894D01*
X141583360Y-79584371D01*
X140439099Y-79584371D01*
X140375177Y-79539612D01*
X140370195Y-79537289D01*
X140370190Y-79537286D01*
X140178678Y-79447983D01*
X140178677Y-79447982D01*
X140173696Y-79445660D01*
X140168388Y-79444238D01*
X140168386Y-79444237D01*
X140068281Y-79417414D01*
X139958963Y-79388122D01*
X139737500Y-79368747D01*
X139516037Y-79388122D01*
X139406719Y-79417414D01*
X139306614Y-79444237D01*
X139306612Y-79444238D01*
X139301304Y-79445660D01*
X139296323Y-79447982D01*
X139296322Y-79447983D01*
X139104811Y-79537286D01*
X139104806Y-79537289D01*
X139099824Y-79539612D01*
X139095317Y-79542768D01*
X139095315Y-79542769D01*
X138922230Y-79663964D01*
X138922227Y-79663966D01*
X138917719Y-79667123D01*
X138760523Y-79824319D01*
X138757366Y-79828827D01*
X138757364Y-79828830D01*
X138661979Y-79965055D01*
X138633012Y-80006424D01*
X138630689Y-80011406D01*
X138630686Y-80011411D01*
X138581695Y-80116473D01*
X138534777Y-80169758D01*
X138466500Y-80189219D01*
X138398540Y-80168677D01*
X138353305Y-80116473D01*
X138304314Y-80011411D01*
X138304311Y-80011406D01*
X138301988Y-80006424D01*
X138273021Y-79965055D01*
X138177636Y-79828830D01*
X138177634Y-79828827D01*
X138174477Y-79824319D01*
X138017281Y-79667123D01*
X138012773Y-79663966D01*
X138012770Y-79663964D01*
X137937005Y-79610913D01*
X137835177Y-79539612D01*
X137830195Y-79537289D01*
X137830190Y-79537286D01*
X137638678Y-79447983D01*
X137638677Y-79447982D01*
X137633696Y-79445660D01*
X137628388Y-79444238D01*
X137628386Y-79444237D01*
X137528281Y-79417414D01*
X137418963Y-79388122D01*
X137197500Y-79368747D01*
X136976037Y-79388122D01*
X136866719Y-79417414D01*
X136766614Y-79444237D01*
X136766612Y-79444238D01*
X136761304Y-79445660D01*
X136756323Y-79447982D01*
X136756322Y-79447983D01*
X136564811Y-79537286D01*
X136564806Y-79537289D01*
X136559824Y-79539612D01*
X136555317Y-79542768D01*
X136555315Y-79542769D01*
X136382230Y-79663964D01*
X136382227Y-79663966D01*
X136377719Y-79667123D01*
X136220523Y-79824319D01*
X136217366Y-79828827D01*
X136217364Y-79828830D01*
X136121979Y-79965055D01*
X136093012Y-80006424D01*
X136090689Y-80011406D01*
X136090686Y-80011411D01*
X136041695Y-80116473D01*
X135999060Y-80207904D01*
X135997638Y-80213212D01*
X135997637Y-80213214D01*
X135994420Y-80225220D01*
X135941522Y-80422637D01*
X135922147Y-80644100D01*
X133852250Y-80644100D01*
X133852250Y-79301207D01*
X133853996Y-79280303D01*
X133856514Y-79265335D01*
X133857321Y-79260539D01*
X133857474Y-79248000D01*
X133856785Y-79243189D01*
X133856599Y-79240337D01*
X133857883Y-79212436D01*
X133863114Y-79179408D01*
X133875295Y-79141919D01*
X133897765Y-79097818D01*
X133920936Y-79065927D01*
X133955927Y-79030936D01*
X133987818Y-79007765D01*
X134031919Y-78985295D01*
X134069408Y-78973114D01*
X134104059Y-78967626D01*
X134123767Y-78966196D01*
X134131730Y-78967436D01*
X134163252Y-78963314D01*
X134179589Y-78962250D01*
X157999255Y-78962250D01*
X158067376Y-78982252D01*
G37*
%TD.AperFunction*%
%TD*%
M02*
