%TF.GenerationSoftware,KiCad,Pcbnew,(5.1.10)-1*%
%TF.CreationDate,2021-09-25T16:03:37+01:00*%
%TF.ProjectId,piccolo-mini,70696363-6f6c-46f2-9d6d-696e692e6b69,rev?*%
%TF.SameCoordinates,Original*%
%TF.FileFunction,Legend,Top*%
%TF.FilePolarity,Positive*%
%FSLAX46Y46*%
G04 Gerber Fmt 4.6, Leading zero omitted, Abs format (unit mm)*
G04 Created by KiCad (PCBNEW (5.1.10)-1) date 2021-09-25 16:03:37*
%MOMM*%
%LPD*%
G01*
G04 APERTURE LIST*
%ADD10C,0.150000*%
%ADD11C,0.120000*%
%ADD12C,0.125000*%
G04 APERTURE END LIST*
D10*
%TO.C,U1*%
X132031750Y-88923000D02*
X132031750Y-88623000D01*
X131881750Y-89023000D02*
X131881750Y-88523000D01*
X131731750Y-89123000D02*
X131731750Y-88423000D01*
X132231750Y-88773000D02*
X131581750Y-89273000D01*
X131581750Y-88273000D02*
X132231750Y-88773000D01*
X131581750Y-89273000D02*
X131581750Y-88273000D01*
X131231750Y-85023000D02*
X131231750Y-92523000D01*
X132531750Y-85023000D02*
X131231750Y-85023000D01*
X132531750Y-92523000D02*
X132531750Y-85023000D01*
X131231750Y-92523000D02*
X132531750Y-92523000D01*
X136831750Y-97523000D02*
X137681750Y-97523000D01*
X136831750Y-80023000D02*
X137681750Y-80023000D01*
X136831750Y-97523000D02*
X136831750Y-96673000D01*
X136831750Y-80023000D02*
X136831750Y-80823000D01*
X166131750Y-97523000D02*
X167031750Y-97523000D01*
X166181750Y-80023000D02*
X167031750Y-80023000D01*
X167031750Y-97523000D02*
X167031750Y-96673000D01*
X167031750Y-80023000D02*
X167031750Y-80883000D01*
D11*
%TO.C,SW2*%
X219900500Y-88257000D02*
X219900500Y-87257000D01*
X219400500Y-87757000D02*
X220400500Y-87757000D01*
X223400500Y-81657000D02*
X225800500Y-81657000D01*
X218600500Y-81657000D02*
X221200500Y-81657000D01*
X214000500Y-81657000D02*
X216400500Y-81657000D01*
X215800500Y-94957000D02*
X216100500Y-95257000D01*
X215800500Y-95557000D02*
X215800500Y-94957000D01*
X216100500Y-95257000D02*
X215800500Y-95557000D01*
X214000500Y-93857000D02*
X225800500Y-93857000D01*
X214000500Y-89757000D02*
X214000500Y-93857000D01*
X225800500Y-89757000D02*
X225800500Y-93857000D01*
X225800500Y-81657000D02*
X225800500Y-85757000D01*
X214000500Y-85757000D02*
X214000500Y-81657000D01*
X222900500Y-87757000D02*
G75*
G03*
X222900500Y-87757000I-3000000J0D01*
G01*
%TO.C,U1*%
D12*
X138271035Y-94230619D02*
X137913892Y-94453952D01*
X138271035Y-94613476D02*
X137521035Y-94613476D01*
X137521035Y-94358238D01*
X137556750Y-94294428D01*
X137592464Y-94262523D01*
X137663892Y-94230619D01*
X137771035Y-94230619D01*
X137842464Y-94262523D01*
X137878178Y-94294428D01*
X137913892Y-94358238D01*
X137913892Y-94613476D01*
X138056750Y-93975380D02*
X138056750Y-93656333D01*
X138271035Y-94039190D02*
X137521035Y-93815857D01*
X138271035Y-93592523D01*
X137521035Y-93433000D02*
X138271035Y-93273476D01*
X137735321Y-93145857D01*
X138271035Y-93018238D01*
X137521035Y-92858714D01*
X140106750Y-94278476D02*
X140071035Y-94342285D01*
X140071035Y-94438000D01*
X140106750Y-94533714D01*
X140178178Y-94597523D01*
X140249607Y-94629428D01*
X140392464Y-94661333D01*
X140499607Y-94661333D01*
X140642464Y-94629428D01*
X140713892Y-94597523D01*
X140785321Y-94533714D01*
X140821035Y-94438000D01*
X140821035Y-94374190D01*
X140785321Y-94278476D01*
X140749607Y-94246571D01*
X140499607Y-94246571D01*
X140499607Y-94374190D01*
X140821035Y-93959428D02*
X140071035Y-93959428D01*
X140821035Y-93576571D01*
X140071035Y-93576571D01*
X140821035Y-93257523D02*
X140071035Y-93257523D01*
X140071035Y-93098000D01*
X140106750Y-93002285D01*
X140178178Y-92938476D01*
X140249607Y-92906571D01*
X140392464Y-92874666D01*
X140499607Y-92874666D01*
X140642464Y-92906571D01*
X140713892Y-92938476D01*
X140785321Y-93002285D01*
X140821035Y-93098000D01*
X140821035Y-93257523D01*
X143371035Y-94134904D02*
X143013892Y-94358238D01*
X143371035Y-94517761D02*
X142621035Y-94517761D01*
X142621035Y-94262523D01*
X142656750Y-94198714D01*
X142692464Y-94166809D01*
X142763892Y-94134904D01*
X142871035Y-94134904D01*
X142942464Y-94166809D01*
X142978178Y-94198714D01*
X143013892Y-94262523D01*
X143013892Y-94517761D01*
X143335321Y-93879666D02*
X143371035Y-93783952D01*
X143371035Y-93624428D01*
X143335321Y-93560619D01*
X143299607Y-93528714D01*
X143228178Y-93496809D01*
X143156750Y-93496809D01*
X143085321Y-93528714D01*
X143049607Y-93560619D01*
X143013892Y-93624428D01*
X142978178Y-93752047D01*
X142942464Y-93815857D01*
X142906750Y-93847761D01*
X142835321Y-93879666D01*
X142763892Y-93879666D01*
X142692464Y-93847761D01*
X142656750Y-93815857D01*
X142621035Y-93752047D01*
X142621035Y-93592523D01*
X142656750Y-93496809D01*
X142621035Y-93305380D02*
X142621035Y-92922523D01*
X143371035Y-93113952D02*
X142621035Y-93113952D01*
X145071035Y-94661333D02*
X145821035Y-94438000D01*
X145071035Y-94214666D01*
X145749607Y-93608476D02*
X145785321Y-93640380D01*
X145821035Y-93736095D01*
X145821035Y-93799904D01*
X145785321Y-93895619D01*
X145713892Y-93959428D01*
X145642464Y-93991333D01*
X145499607Y-94023238D01*
X145392464Y-94023238D01*
X145249607Y-93991333D01*
X145178178Y-93959428D01*
X145106750Y-93895619D01*
X145071035Y-93799904D01*
X145071035Y-93736095D01*
X145106750Y-93640380D01*
X145142464Y-93608476D01*
X145749607Y-92938476D02*
X145785321Y-92970380D01*
X145821035Y-93066095D01*
X145821035Y-93129904D01*
X145785321Y-93225619D01*
X145713892Y-93289428D01*
X145642464Y-93321333D01*
X145499607Y-93353238D01*
X145392464Y-93353238D01*
X145249607Y-93321333D01*
X145178178Y-93289428D01*
X145106750Y-93225619D01*
X145071035Y-93129904D01*
X145071035Y-93066095D01*
X145106750Y-92970380D01*
X145142464Y-92938476D01*
X148306750Y-94603714D02*
X148306750Y-94284666D01*
X148521035Y-94667523D02*
X147771035Y-94444190D01*
X148521035Y-94220857D01*
X147771035Y-94061333D02*
X147771035Y-93646571D01*
X148056750Y-93869904D01*
X148056750Y-93774190D01*
X148092464Y-93710380D01*
X148128178Y-93678476D01*
X148199607Y-93646571D01*
X148378178Y-93646571D01*
X148449607Y-93678476D01*
X148485321Y-93710380D01*
X148521035Y-93774190D01*
X148521035Y-93965619D01*
X148485321Y-94029428D01*
X148449607Y-94061333D01*
X147735321Y-92880857D02*
X148699607Y-93455142D01*
X148128178Y-92434190D02*
X148128178Y-92657523D01*
X148521035Y-92657523D02*
X147771035Y-92657523D01*
X147771035Y-92338476D01*
X148021035Y-91796095D02*
X148521035Y-91796095D01*
X147735321Y-91955619D02*
X148271035Y-92115142D01*
X148271035Y-91700380D01*
X150806750Y-94603714D02*
X150806750Y-94284666D01*
X151021035Y-94667523D02*
X150271035Y-94444190D01*
X151021035Y-94220857D01*
X150342464Y-94029428D02*
X150306750Y-93997523D01*
X150271035Y-93933714D01*
X150271035Y-93774190D01*
X150306750Y-93710380D01*
X150342464Y-93678476D01*
X150413892Y-93646571D01*
X150485321Y-93646571D01*
X150592464Y-93678476D01*
X151021035Y-94061333D01*
X151021035Y-93646571D01*
X150235321Y-92880857D02*
X151199607Y-93455142D01*
X150628178Y-92434190D02*
X150628178Y-92657523D01*
X151021035Y-92657523D02*
X150271035Y-92657523D01*
X150271035Y-92338476D01*
X150271035Y-91764190D02*
X150271035Y-92083238D01*
X150628178Y-92115142D01*
X150592464Y-92083238D01*
X150556750Y-92019428D01*
X150556750Y-91859904D01*
X150592464Y-91796095D01*
X150628178Y-91764190D01*
X150699607Y-91732285D01*
X150878178Y-91732285D01*
X150949607Y-91764190D01*
X150985321Y-91796095D01*
X151021035Y-91859904D01*
X151021035Y-92019428D01*
X150985321Y-92083238D01*
X150949607Y-92115142D01*
X153306750Y-94603714D02*
X153306750Y-94284666D01*
X153521035Y-94667523D02*
X152771035Y-94444190D01*
X153521035Y-94220857D01*
X153521035Y-93646571D02*
X153521035Y-94029428D01*
X153521035Y-93838000D02*
X152771035Y-93838000D01*
X152878178Y-93901809D01*
X152949607Y-93965619D01*
X152985321Y-94029428D01*
X152735321Y-92880857D02*
X153699607Y-93455142D01*
X153128178Y-92434190D02*
X153128178Y-92657523D01*
X153521035Y-92657523D02*
X152771035Y-92657523D01*
X152771035Y-92338476D01*
X152771035Y-91796095D02*
X152771035Y-91923714D01*
X152806750Y-91987523D01*
X152842464Y-92019428D01*
X152949607Y-92083238D01*
X153092464Y-92115142D01*
X153378178Y-92115142D01*
X153449607Y-92083238D01*
X153485321Y-92051333D01*
X153521035Y-91987523D01*
X153521035Y-91859904D01*
X153485321Y-91796095D01*
X153449607Y-91764190D01*
X153378178Y-91732285D01*
X153199607Y-91732285D01*
X153128178Y-91764190D01*
X153092464Y-91796095D01*
X153056750Y-91859904D01*
X153056750Y-91987523D01*
X153092464Y-92051333D01*
X153128178Y-92083238D01*
X153199607Y-92115142D01*
X155856750Y-94603714D02*
X155856750Y-94284666D01*
X156071035Y-94667523D02*
X155321035Y-94444190D01*
X156071035Y-94220857D01*
X155321035Y-93869904D02*
X155321035Y-93806095D01*
X155356750Y-93742285D01*
X155392464Y-93710380D01*
X155463892Y-93678476D01*
X155606750Y-93646571D01*
X155785321Y-93646571D01*
X155928178Y-93678476D01*
X155999607Y-93710380D01*
X156035321Y-93742285D01*
X156071035Y-93806095D01*
X156071035Y-93869904D01*
X156035321Y-93933714D01*
X155999607Y-93965619D01*
X155928178Y-93997523D01*
X155785321Y-94029428D01*
X155606750Y-94029428D01*
X155463892Y-93997523D01*
X155392464Y-93965619D01*
X155356750Y-93933714D01*
X155321035Y-93869904D01*
X155285321Y-92880857D02*
X156249607Y-93455142D01*
X155678178Y-92434190D02*
X155678178Y-92657523D01*
X156071035Y-92657523D02*
X155321035Y-92657523D01*
X155321035Y-92338476D01*
X155321035Y-92147047D02*
X155321035Y-91700380D01*
X156071035Y-91987523D01*
X158621035Y-94300619D02*
X158621035Y-94683476D01*
X158621035Y-94492047D02*
X157871035Y-94492047D01*
X157978178Y-94555857D01*
X158049607Y-94619666D01*
X158085321Y-94683476D01*
X157871035Y-93694428D02*
X157871035Y-94013476D01*
X158228178Y-94045380D01*
X158192464Y-94013476D01*
X158156750Y-93949666D01*
X158156750Y-93790142D01*
X158192464Y-93726333D01*
X158228178Y-93694428D01*
X158299607Y-93662523D01*
X158478178Y-93662523D01*
X158549607Y-93694428D01*
X158585321Y-93726333D01*
X158621035Y-93790142D01*
X158621035Y-93949666D01*
X158585321Y-94013476D01*
X158549607Y-94045380D01*
X157835321Y-92896809D02*
X158799607Y-93471095D01*
X158228178Y-92450142D02*
X158263892Y-92354428D01*
X158299607Y-92322523D01*
X158371035Y-92290619D01*
X158478178Y-92290619D01*
X158549607Y-92322523D01*
X158585321Y-92354428D01*
X158621035Y-92418238D01*
X158621035Y-92673476D01*
X157871035Y-92673476D01*
X157871035Y-92450142D01*
X157906750Y-92386333D01*
X157942464Y-92354428D01*
X158013892Y-92322523D01*
X158085321Y-92322523D01*
X158156750Y-92354428D01*
X158192464Y-92386333D01*
X158228178Y-92450142D01*
X158228178Y-92673476D01*
X158621035Y-91652523D02*
X158621035Y-92035380D01*
X158621035Y-91843952D02*
X157871035Y-91843952D01*
X157978178Y-91907761D01*
X158049607Y-91971571D01*
X158085321Y-92035380D01*
X161171035Y-94300619D02*
X161171035Y-94683476D01*
X161171035Y-94492047D02*
X160421035Y-94492047D01*
X160528178Y-94555857D01*
X160599607Y-94619666D01*
X160635321Y-94683476D01*
X160671035Y-93726333D02*
X161171035Y-93726333D01*
X160385321Y-93885857D02*
X160921035Y-94045380D01*
X160921035Y-93630619D01*
X160385321Y-92896809D02*
X161349607Y-93471095D01*
X160778178Y-92450142D02*
X160813892Y-92354428D01*
X160849607Y-92322523D01*
X160921035Y-92290619D01*
X161028178Y-92290619D01*
X161099607Y-92322523D01*
X161135321Y-92354428D01*
X161171035Y-92418238D01*
X161171035Y-92673476D01*
X160421035Y-92673476D01*
X160421035Y-92450142D01*
X160456750Y-92386333D01*
X160492464Y-92354428D01*
X160563892Y-92322523D01*
X160635321Y-92322523D01*
X160706750Y-92354428D01*
X160742464Y-92386333D01*
X160778178Y-92450142D01*
X160778178Y-92673476D01*
X160421035Y-92067285D02*
X160421035Y-91652523D01*
X160706750Y-91875857D01*
X160706750Y-91780142D01*
X160742464Y-91716333D01*
X160778178Y-91684428D01*
X160849607Y-91652523D01*
X161028178Y-91652523D01*
X161099607Y-91684428D01*
X161135321Y-91716333D01*
X161171035Y-91780142D01*
X161171035Y-91971571D01*
X161135321Y-92035380D01*
X161099607Y-92067285D01*
X166221035Y-94300619D02*
X166221035Y-94683476D01*
X166221035Y-94492047D02*
X165471035Y-94492047D01*
X165578178Y-94555857D01*
X165649607Y-94619666D01*
X165685321Y-94683476D01*
X165471035Y-93885857D02*
X165471035Y-93822047D01*
X165506750Y-93758238D01*
X165542464Y-93726333D01*
X165613892Y-93694428D01*
X165756750Y-93662523D01*
X165935321Y-93662523D01*
X166078178Y-93694428D01*
X166149607Y-93726333D01*
X166185321Y-93758238D01*
X166221035Y-93822047D01*
X166221035Y-93885857D01*
X166185321Y-93949666D01*
X166149607Y-93981571D01*
X166078178Y-94013476D01*
X165935321Y-94045380D01*
X165756750Y-94045380D01*
X165613892Y-94013476D01*
X165542464Y-93981571D01*
X165506750Y-93949666D01*
X165471035Y-93885857D01*
X165435321Y-92896809D02*
X166399607Y-93471095D01*
X165828178Y-92450142D02*
X165863892Y-92354428D01*
X165899607Y-92322523D01*
X165971035Y-92290619D01*
X166078178Y-92290619D01*
X166149607Y-92322523D01*
X166185321Y-92354428D01*
X166221035Y-92418238D01*
X166221035Y-92673476D01*
X165471035Y-92673476D01*
X165471035Y-92450142D01*
X165506750Y-92386333D01*
X165542464Y-92354428D01*
X165613892Y-92322523D01*
X165685321Y-92322523D01*
X165756750Y-92354428D01*
X165792464Y-92386333D01*
X165828178Y-92450142D01*
X165828178Y-92673476D01*
X165471035Y-91716333D02*
X165471035Y-91843952D01*
X165506750Y-91907761D01*
X165542464Y-91939666D01*
X165649607Y-92003476D01*
X165792464Y-92035380D01*
X166078178Y-92035380D01*
X166149607Y-92003476D01*
X166185321Y-91971571D01*
X166221035Y-91907761D01*
X166221035Y-91780142D01*
X166185321Y-91716333D01*
X166149607Y-91684428D01*
X166078178Y-91652523D01*
X165899607Y-91652523D01*
X165828178Y-91684428D01*
X165792464Y-91716333D01*
X165756750Y-91780142D01*
X165756750Y-91907761D01*
X165792464Y-91971571D01*
X165828178Y-92003476D01*
X165899607Y-92035380D01*
X163721035Y-94300619D02*
X163721035Y-94683476D01*
X163721035Y-94492047D02*
X162971035Y-94492047D01*
X163078178Y-94555857D01*
X163149607Y-94619666D01*
X163185321Y-94683476D01*
X162971035Y-93726333D02*
X162971035Y-93853952D01*
X163006750Y-93917761D01*
X163042464Y-93949666D01*
X163149607Y-94013476D01*
X163292464Y-94045380D01*
X163578178Y-94045380D01*
X163649607Y-94013476D01*
X163685321Y-93981571D01*
X163721035Y-93917761D01*
X163721035Y-93790142D01*
X163685321Y-93726333D01*
X163649607Y-93694428D01*
X163578178Y-93662523D01*
X163399607Y-93662523D01*
X163328178Y-93694428D01*
X163292464Y-93726333D01*
X163256750Y-93790142D01*
X163256750Y-93917761D01*
X163292464Y-93981571D01*
X163328178Y-94013476D01*
X163399607Y-94045380D01*
X162935321Y-92896809D02*
X163899607Y-93471095D01*
X163328178Y-92450142D02*
X163363892Y-92354428D01*
X163399607Y-92322523D01*
X163471035Y-92290619D01*
X163578178Y-92290619D01*
X163649607Y-92322523D01*
X163685321Y-92354428D01*
X163721035Y-92418238D01*
X163721035Y-92673476D01*
X162971035Y-92673476D01*
X162971035Y-92450142D01*
X163006750Y-92386333D01*
X163042464Y-92354428D01*
X163113892Y-92322523D01*
X163185321Y-92322523D01*
X163256750Y-92354428D01*
X163292464Y-92386333D01*
X163328178Y-92450142D01*
X163328178Y-92673476D01*
X163042464Y-92035380D02*
X163006750Y-92003476D01*
X162971035Y-91939666D01*
X162971035Y-91780142D01*
X163006750Y-91716333D01*
X163042464Y-91684428D01*
X163113892Y-91652523D01*
X163185321Y-91652523D01*
X163292464Y-91684428D01*
X163721035Y-92067285D01*
X163721035Y-91652523D01*
X160628178Y-85200619D02*
X160628178Y-84977285D01*
X161021035Y-84881571D02*
X161021035Y-85200619D01*
X160271035Y-85200619D01*
X160271035Y-84881571D01*
X160271035Y-84307285D02*
X160271035Y-84434904D01*
X160306750Y-84498714D01*
X160342464Y-84530619D01*
X160449607Y-84594428D01*
X160592464Y-84626333D01*
X160878178Y-84626333D01*
X160949607Y-84594428D01*
X160985321Y-84562523D01*
X161021035Y-84498714D01*
X161021035Y-84371095D01*
X160985321Y-84307285D01*
X160949607Y-84275380D01*
X160878178Y-84243476D01*
X160699607Y-84243476D01*
X160628178Y-84275380D01*
X160592464Y-84307285D01*
X160556750Y-84371095D01*
X160556750Y-84498714D01*
X160592464Y-84562523D01*
X160628178Y-84594428D01*
X160699607Y-84626333D01*
X160235321Y-83477761D02*
X161199607Y-84052047D01*
X160271035Y-83318238D02*
X160271035Y-82871571D01*
X161021035Y-83158714D01*
X158471035Y-85232523D02*
X157721035Y-85232523D01*
X157721035Y-85073000D01*
X157756750Y-84977285D01*
X157828178Y-84913476D01*
X157899607Y-84881571D01*
X158042464Y-84849666D01*
X158149607Y-84849666D01*
X158292464Y-84881571D01*
X158363892Y-84913476D01*
X158435321Y-84977285D01*
X158471035Y-85073000D01*
X158471035Y-85232523D01*
X157721035Y-84626333D02*
X157721035Y-84179666D01*
X158471035Y-84466809D01*
X157685321Y-83445857D02*
X158649607Y-84020142D01*
X157721035Y-82935380D02*
X157721035Y-83063000D01*
X157756750Y-83126809D01*
X157792464Y-83158714D01*
X157899607Y-83222523D01*
X158042464Y-83254428D01*
X158328178Y-83254428D01*
X158399607Y-83222523D01*
X158435321Y-83190619D01*
X158471035Y-83126809D01*
X158471035Y-82999190D01*
X158435321Y-82935380D01*
X158399607Y-82903476D01*
X158328178Y-82871571D01*
X158149607Y-82871571D01*
X158078178Y-82903476D01*
X158042464Y-82935380D01*
X158006750Y-82999190D01*
X158006750Y-83126809D01*
X158042464Y-83190619D01*
X158078178Y-83222523D01*
X158149607Y-83254428D01*
X142706750Y-84328476D02*
X142671035Y-84392285D01*
X142671035Y-84488000D01*
X142706750Y-84583714D01*
X142778178Y-84647523D01*
X142849607Y-84679428D01*
X142992464Y-84711333D01*
X143099607Y-84711333D01*
X143242464Y-84679428D01*
X143313892Y-84647523D01*
X143385321Y-84583714D01*
X143421035Y-84488000D01*
X143421035Y-84424190D01*
X143385321Y-84328476D01*
X143349607Y-84296571D01*
X143099607Y-84296571D01*
X143099607Y-84424190D01*
X143421035Y-84009428D02*
X142671035Y-84009428D01*
X143421035Y-83626571D01*
X142671035Y-83626571D01*
X143421035Y-83307523D02*
X142671035Y-83307523D01*
X142671035Y-83148000D01*
X142706750Y-83052285D01*
X142778178Y-82988476D01*
X142849607Y-82956571D01*
X142992464Y-82924666D01*
X143099607Y-82924666D01*
X143242464Y-82956571D01*
X143313892Y-82988476D01*
X143385321Y-83052285D01*
X143421035Y-83148000D01*
X143421035Y-83307523D01*
X145156750Y-84328476D02*
X145121035Y-84392285D01*
X145121035Y-84488000D01*
X145156750Y-84583714D01*
X145228178Y-84647523D01*
X145299607Y-84679428D01*
X145442464Y-84711333D01*
X145549607Y-84711333D01*
X145692464Y-84679428D01*
X145763892Y-84647523D01*
X145835321Y-84583714D01*
X145871035Y-84488000D01*
X145871035Y-84424190D01*
X145835321Y-84328476D01*
X145799607Y-84296571D01*
X145549607Y-84296571D01*
X145549607Y-84424190D01*
X145871035Y-84009428D02*
X145121035Y-84009428D01*
X145871035Y-83626571D01*
X145121035Y-83626571D01*
X145871035Y-83307523D02*
X145121035Y-83307523D01*
X145121035Y-83148000D01*
X145156750Y-83052285D01*
X145228178Y-82988476D01*
X145299607Y-82956571D01*
X145442464Y-82924666D01*
X145549607Y-82924666D01*
X145692464Y-82956571D01*
X145763892Y-82988476D01*
X145835321Y-83052285D01*
X145871035Y-83148000D01*
X145871035Y-83307523D01*
X138321035Y-86356809D02*
X137571035Y-86356809D01*
X137571035Y-86197285D01*
X137606750Y-86101571D01*
X137678178Y-86037761D01*
X137749607Y-86005857D01*
X137892464Y-85973952D01*
X137999607Y-85973952D01*
X138142464Y-86005857D01*
X138213892Y-86037761D01*
X138285321Y-86101571D01*
X138321035Y-86197285D01*
X138321035Y-86356809D01*
X137571035Y-85750619D02*
X137571035Y-85335857D01*
X137856750Y-85559190D01*
X137856750Y-85463476D01*
X137892464Y-85399666D01*
X137928178Y-85367761D01*
X137999607Y-85335857D01*
X138178178Y-85335857D01*
X138249607Y-85367761D01*
X138285321Y-85399666D01*
X138321035Y-85463476D01*
X138321035Y-85654904D01*
X138285321Y-85718714D01*
X138249607Y-85750619D01*
X137535321Y-84570142D02*
X138499607Y-85144428D01*
X137571035Y-84442523D02*
X137571035Y-84059666D01*
X138321035Y-84251095D02*
X137571035Y-84251095D01*
X137571035Y-83900142D02*
X138321035Y-83453476D01*
X137571035Y-83453476D02*
X138321035Y-83900142D01*
X137571035Y-83070619D02*
X137571035Y-83006809D01*
X137606750Y-82943000D01*
X137642464Y-82911095D01*
X137713892Y-82879190D01*
X137856750Y-82847285D01*
X138035321Y-82847285D01*
X138178178Y-82879190D01*
X138249607Y-82911095D01*
X138285321Y-82943000D01*
X138321035Y-83006809D01*
X138321035Y-83070619D01*
X138285321Y-83134428D01*
X138249607Y-83166333D01*
X138178178Y-83198238D01*
X138035321Y-83230142D01*
X137856750Y-83230142D01*
X137713892Y-83198238D01*
X137642464Y-83166333D01*
X137606750Y-83134428D01*
X137571035Y-83070619D01*
X153371035Y-85232523D02*
X152621035Y-85232523D01*
X152621035Y-85073000D01*
X152656750Y-84977285D01*
X152728178Y-84913476D01*
X152799607Y-84881571D01*
X152942464Y-84849666D01*
X153049607Y-84849666D01*
X153192464Y-84881571D01*
X153263892Y-84913476D01*
X153335321Y-84977285D01*
X153371035Y-85073000D01*
X153371035Y-85232523D01*
X152871035Y-84275380D02*
X153371035Y-84275380D01*
X152585321Y-84434904D02*
X153121035Y-84594428D01*
X153121035Y-84179666D01*
X152585321Y-83445857D02*
X153549607Y-84020142D01*
X152871035Y-82935380D02*
X153371035Y-82935380D01*
X152585321Y-83094904D02*
X153121035Y-83254428D01*
X153121035Y-82839666D01*
X148335321Y-87806571D02*
X148371035Y-87710857D01*
X148371035Y-87551333D01*
X148335321Y-87487523D01*
X148299607Y-87455619D01*
X148228178Y-87423714D01*
X148156750Y-87423714D01*
X148085321Y-87455619D01*
X148049607Y-87487523D01*
X148013892Y-87551333D01*
X147978178Y-87678952D01*
X147942464Y-87742761D01*
X147906750Y-87774666D01*
X147835321Y-87806571D01*
X147763892Y-87806571D01*
X147692464Y-87774666D01*
X147656750Y-87742761D01*
X147621035Y-87678952D01*
X147621035Y-87519428D01*
X147656750Y-87423714D01*
X148371035Y-87136571D02*
X147621035Y-87136571D01*
X147621035Y-86977047D01*
X147656750Y-86881333D01*
X147728178Y-86817523D01*
X147799607Y-86785619D01*
X147942464Y-86753714D01*
X148049607Y-86753714D01*
X148192464Y-86785619D01*
X148263892Y-86817523D01*
X148335321Y-86881333D01*
X148371035Y-86977047D01*
X148371035Y-87136571D01*
X148156750Y-86498476D02*
X148156750Y-86179428D01*
X148371035Y-86562285D02*
X147621035Y-86338952D01*
X148371035Y-86115619D01*
X147585321Y-85413714D02*
X148549607Y-85988000D01*
X148371035Y-85190380D02*
X147621035Y-85190380D01*
X147621035Y-85030857D01*
X147656750Y-84935142D01*
X147728178Y-84871333D01*
X147799607Y-84839428D01*
X147942464Y-84807523D01*
X148049607Y-84807523D01*
X148192464Y-84839428D01*
X148263892Y-84871333D01*
X148335321Y-84935142D01*
X148371035Y-85030857D01*
X148371035Y-85190380D01*
X148371035Y-84169428D02*
X148371035Y-84552285D01*
X148371035Y-84360857D02*
X147621035Y-84360857D01*
X147728178Y-84424666D01*
X147799607Y-84488476D01*
X147835321Y-84552285D01*
X147585321Y-83403714D02*
X148549607Y-83978000D01*
X147692464Y-83212285D02*
X147656750Y-83180380D01*
X147621035Y-83116571D01*
X147621035Y-82957047D01*
X147656750Y-82893238D01*
X147692464Y-82861333D01*
X147763892Y-82829428D01*
X147835321Y-82829428D01*
X147942464Y-82861333D01*
X148371035Y-83244190D01*
X148371035Y-82829428D01*
X150835321Y-87790619D02*
X150871035Y-87694904D01*
X150871035Y-87535380D01*
X150835321Y-87471571D01*
X150799607Y-87439666D01*
X150728178Y-87407761D01*
X150656750Y-87407761D01*
X150585321Y-87439666D01*
X150549607Y-87471571D01*
X150513892Y-87535380D01*
X150478178Y-87663000D01*
X150442464Y-87726809D01*
X150406750Y-87758714D01*
X150335321Y-87790619D01*
X150263892Y-87790619D01*
X150192464Y-87758714D01*
X150156750Y-87726809D01*
X150121035Y-87663000D01*
X150121035Y-87503476D01*
X150156750Y-87407761D01*
X150799607Y-86737761D02*
X150835321Y-86769666D01*
X150871035Y-86865380D01*
X150871035Y-86929190D01*
X150835321Y-87024904D01*
X150763892Y-87088714D01*
X150692464Y-87120619D01*
X150549607Y-87152523D01*
X150442464Y-87152523D01*
X150299607Y-87120619D01*
X150228178Y-87088714D01*
X150156750Y-87024904D01*
X150121035Y-86929190D01*
X150121035Y-86865380D01*
X150156750Y-86769666D01*
X150192464Y-86737761D01*
X150871035Y-86131571D02*
X150871035Y-86450619D01*
X150121035Y-86450619D01*
X150085321Y-85429666D02*
X151049607Y-86003952D01*
X150871035Y-85206333D02*
X150121035Y-85206333D01*
X150121035Y-85046809D01*
X150156750Y-84951095D01*
X150228178Y-84887285D01*
X150299607Y-84855380D01*
X150442464Y-84823476D01*
X150549607Y-84823476D01*
X150692464Y-84855380D01*
X150763892Y-84887285D01*
X150835321Y-84951095D01*
X150871035Y-85046809D01*
X150871035Y-85206333D01*
X150121035Y-84408714D02*
X150121035Y-84344904D01*
X150156750Y-84281095D01*
X150192464Y-84249190D01*
X150263892Y-84217285D01*
X150406750Y-84185380D01*
X150585321Y-84185380D01*
X150728178Y-84217285D01*
X150799607Y-84249190D01*
X150835321Y-84281095D01*
X150871035Y-84344904D01*
X150871035Y-84408714D01*
X150835321Y-84472523D01*
X150799607Y-84504428D01*
X150728178Y-84536333D01*
X150585321Y-84568238D01*
X150406750Y-84568238D01*
X150263892Y-84536333D01*
X150192464Y-84504428D01*
X150156750Y-84472523D01*
X150121035Y-84408714D01*
X150085321Y-83419666D02*
X151049607Y-83993952D01*
X150121035Y-83260142D02*
X150121035Y-82845380D01*
X150406750Y-83068714D01*
X150406750Y-82973000D01*
X150442464Y-82909190D01*
X150478178Y-82877285D01*
X150549607Y-82845380D01*
X150728178Y-82845380D01*
X150799607Y-82877285D01*
X150835321Y-82909190D01*
X150871035Y-82973000D01*
X150871035Y-83164428D01*
X150835321Y-83228238D01*
X150799607Y-83260142D01*
X155849607Y-84849666D02*
X155885321Y-84881571D01*
X155921035Y-84977285D01*
X155921035Y-85041095D01*
X155885321Y-85136809D01*
X155813892Y-85200619D01*
X155742464Y-85232523D01*
X155599607Y-85264428D01*
X155492464Y-85264428D01*
X155349607Y-85232523D01*
X155278178Y-85200619D01*
X155206750Y-85136809D01*
X155171035Y-85041095D01*
X155171035Y-84977285D01*
X155206750Y-84881571D01*
X155242464Y-84849666D01*
X155171035Y-84275380D02*
X155171035Y-84403000D01*
X155206750Y-84466809D01*
X155242464Y-84498714D01*
X155349607Y-84562523D01*
X155492464Y-84594428D01*
X155778178Y-84594428D01*
X155849607Y-84562523D01*
X155885321Y-84530619D01*
X155921035Y-84466809D01*
X155921035Y-84339190D01*
X155885321Y-84275380D01*
X155849607Y-84243476D01*
X155778178Y-84211571D01*
X155599607Y-84211571D01*
X155528178Y-84243476D01*
X155492464Y-84275380D01*
X155456750Y-84339190D01*
X155456750Y-84466809D01*
X155492464Y-84530619D01*
X155528178Y-84562523D01*
X155599607Y-84594428D01*
X155135321Y-83445857D02*
X156099607Y-84020142D01*
X155171035Y-82903476D02*
X155171035Y-83222523D01*
X155528178Y-83254428D01*
X155492464Y-83222523D01*
X155456750Y-83158714D01*
X155456750Y-82999190D01*
X155492464Y-82935380D01*
X155528178Y-82903476D01*
X155599607Y-82871571D01*
X155778178Y-82871571D01*
X155849607Y-82903476D01*
X155885321Y-82935380D01*
X155921035Y-82999190D01*
X155921035Y-83158714D01*
X155885321Y-83222523D01*
X155849607Y-83254428D01*
X165678178Y-85009190D02*
X165713892Y-84913476D01*
X165749607Y-84881571D01*
X165821035Y-84849666D01*
X165928178Y-84849666D01*
X165999607Y-84881571D01*
X166035321Y-84913476D01*
X166071035Y-84977285D01*
X166071035Y-85232523D01*
X165321035Y-85232523D01*
X165321035Y-85009190D01*
X165356750Y-84945380D01*
X165392464Y-84913476D01*
X165463892Y-84881571D01*
X165535321Y-84881571D01*
X165606750Y-84913476D01*
X165642464Y-84945380D01*
X165678178Y-85009190D01*
X165678178Y-85232523D01*
X165321035Y-84243476D02*
X165321035Y-84562523D01*
X165678178Y-84594428D01*
X165642464Y-84562523D01*
X165606750Y-84498714D01*
X165606750Y-84339190D01*
X165642464Y-84275380D01*
X165678178Y-84243476D01*
X165749607Y-84211571D01*
X165928178Y-84211571D01*
X165999607Y-84243476D01*
X166035321Y-84275380D01*
X166071035Y-84339190D01*
X166071035Y-84498714D01*
X166035321Y-84562523D01*
X165999607Y-84594428D01*
X165285321Y-83445857D02*
X166249607Y-84020142D01*
X166071035Y-83190619D02*
X166071035Y-83063000D01*
X166035321Y-82999190D01*
X165999607Y-82967285D01*
X165892464Y-82903476D01*
X165749607Y-82871571D01*
X165463892Y-82871571D01*
X165392464Y-82903476D01*
X165356750Y-82935380D01*
X165321035Y-82999190D01*
X165321035Y-83126809D01*
X165356750Y-83190619D01*
X165392464Y-83222523D01*
X165463892Y-83254428D01*
X165642464Y-83254428D01*
X165713892Y-83222523D01*
X165749607Y-83190619D01*
X165785321Y-83126809D01*
X165785321Y-82999190D01*
X165749607Y-82935380D01*
X165713892Y-82903476D01*
X165642464Y-82871571D01*
X140871035Y-86436571D02*
X140121035Y-86436571D01*
X140121035Y-86277047D01*
X140156750Y-86181333D01*
X140228178Y-86117523D01*
X140299607Y-86085619D01*
X140442464Y-86053714D01*
X140549607Y-86053714D01*
X140692464Y-86085619D01*
X140763892Y-86117523D01*
X140835321Y-86181333D01*
X140871035Y-86277047D01*
X140871035Y-86436571D01*
X140192464Y-85798476D02*
X140156750Y-85766571D01*
X140121035Y-85702761D01*
X140121035Y-85543238D01*
X140156750Y-85479428D01*
X140192464Y-85447523D01*
X140263892Y-85415619D01*
X140335321Y-85415619D01*
X140442464Y-85447523D01*
X140871035Y-85830380D01*
X140871035Y-85415619D01*
X140085321Y-84649904D02*
X141049607Y-85224190D01*
X140871035Y-84043714D02*
X140513892Y-84267047D01*
X140871035Y-84426571D02*
X140121035Y-84426571D01*
X140121035Y-84171333D01*
X140156750Y-84107523D01*
X140192464Y-84075619D01*
X140263892Y-84043714D01*
X140371035Y-84043714D01*
X140442464Y-84075619D01*
X140478178Y-84107523D01*
X140513892Y-84171333D01*
X140513892Y-84426571D01*
X140121035Y-83820380D02*
X140871035Y-83373714D01*
X140121035Y-83373714D02*
X140871035Y-83820380D01*
X140871035Y-82767523D02*
X140871035Y-83150380D01*
X140871035Y-82958952D02*
X140121035Y-82958952D01*
X140228178Y-83022761D01*
X140299607Y-83086571D01*
X140335321Y-83150380D01*
X163178178Y-85009190D02*
X163213892Y-84913476D01*
X163249607Y-84881571D01*
X163321035Y-84849666D01*
X163428178Y-84849666D01*
X163499607Y-84881571D01*
X163535321Y-84913476D01*
X163571035Y-84977285D01*
X163571035Y-85232523D01*
X162821035Y-85232523D01*
X162821035Y-85009190D01*
X162856750Y-84945380D01*
X162892464Y-84913476D01*
X162963892Y-84881571D01*
X163035321Y-84881571D01*
X163106750Y-84913476D01*
X163142464Y-84945380D01*
X163178178Y-85009190D01*
X163178178Y-85232523D01*
X163071035Y-84275380D02*
X163571035Y-84275380D01*
X162785321Y-84434904D02*
X163321035Y-84594428D01*
X163321035Y-84179666D01*
X162785321Y-83445857D02*
X163749607Y-84020142D01*
X163142464Y-83126809D02*
X163106750Y-83190619D01*
X163071035Y-83222523D01*
X162999607Y-83254428D01*
X162963892Y-83254428D01*
X162892464Y-83222523D01*
X162856750Y-83190619D01*
X162821035Y-83126809D01*
X162821035Y-82999190D01*
X162856750Y-82935380D01*
X162892464Y-82903476D01*
X162963892Y-82871571D01*
X162999607Y-82871571D01*
X163071035Y-82903476D01*
X163106750Y-82935380D01*
X163142464Y-82999190D01*
X163142464Y-83126809D01*
X163178178Y-83190619D01*
X163213892Y-83222523D01*
X163285321Y-83254428D01*
X163428178Y-83254428D01*
X163499607Y-83222523D01*
X163535321Y-83190619D01*
X163571035Y-83126809D01*
X163571035Y-82999190D01*
X163535321Y-82935380D01*
X163499607Y-82903476D01*
X163428178Y-82871571D01*
X163285321Y-82871571D01*
X163213892Y-82903476D01*
X163178178Y-82935380D01*
X163142464Y-82999190D01*
D11*
X133821035Y-91269428D02*
X133071035Y-91269428D01*
X133606750Y-91019428D01*
X133071035Y-90769428D01*
X133821035Y-90769428D01*
X133821035Y-90412285D02*
X133321035Y-90412285D01*
X133071035Y-90412285D02*
X133106750Y-90448000D01*
X133142464Y-90412285D01*
X133106750Y-90376571D01*
X133071035Y-90412285D01*
X133142464Y-90412285D01*
X133785321Y-89733714D02*
X133821035Y-89805142D01*
X133821035Y-89948000D01*
X133785321Y-90019428D01*
X133749607Y-90055142D01*
X133678178Y-90090857D01*
X133463892Y-90090857D01*
X133392464Y-90055142D01*
X133356750Y-90019428D01*
X133321035Y-89948000D01*
X133321035Y-89805142D01*
X133356750Y-89733714D01*
X133821035Y-89412285D02*
X133321035Y-89412285D01*
X133463892Y-89412285D02*
X133392464Y-89376571D01*
X133356750Y-89340857D01*
X133321035Y-89269428D01*
X133321035Y-89198000D01*
X133821035Y-88840857D02*
X133785321Y-88912285D01*
X133749607Y-88948000D01*
X133678178Y-88983714D01*
X133463892Y-88983714D01*
X133392464Y-88948000D01*
X133356750Y-88912285D01*
X133321035Y-88840857D01*
X133321035Y-88733714D01*
X133356750Y-88662285D01*
X133392464Y-88626571D01*
X133463892Y-88590857D01*
X133678178Y-88590857D01*
X133749607Y-88626571D01*
X133785321Y-88662285D01*
X133821035Y-88733714D01*
X133821035Y-88840857D01*
X133071035Y-88269428D02*
X133678178Y-88269428D01*
X133749607Y-88233714D01*
X133785321Y-88198000D01*
X133821035Y-88126571D01*
X133821035Y-87983714D01*
X133785321Y-87912285D01*
X133749607Y-87876571D01*
X133678178Y-87840857D01*
X133071035Y-87840857D01*
X133785321Y-87519428D02*
X133821035Y-87412285D01*
X133821035Y-87233714D01*
X133785321Y-87162285D01*
X133749607Y-87126571D01*
X133678178Y-87090857D01*
X133606750Y-87090857D01*
X133535321Y-87126571D01*
X133499607Y-87162285D01*
X133463892Y-87233714D01*
X133428178Y-87376571D01*
X133392464Y-87448000D01*
X133356750Y-87483714D01*
X133285321Y-87519428D01*
X133213892Y-87519428D01*
X133142464Y-87483714D01*
X133106750Y-87448000D01*
X133071035Y-87376571D01*
X133071035Y-87198000D01*
X133106750Y-87090857D01*
X133428178Y-86519428D02*
X133463892Y-86412285D01*
X133499607Y-86376571D01*
X133571035Y-86340857D01*
X133678178Y-86340857D01*
X133749607Y-86376571D01*
X133785321Y-86412285D01*
X133821035Y-86483714D01*
X133821035Y-86769428D01*
X133071035Y-86769428D01*
X133071035Y-86519428D01*
X133106750Y-86448000D01*
X133142464Y-86412285D01*
X133213892Y-86376571D01*
X133285321Y-86376571D01*
X133356750Y-86412285D01*
X133392464Y-86448000D01*
X133428178Y-86519428D01*
X133428178Y-86769428D01*
X133821035Y-91269428D02*
X133071035Y-91269428D01*
X133606750Y-91019428D01*
X133071035Y-90769428D01*
X133821035Y-90769428D01*
X133821035Y-90412285D02*
X133321035Y-90412285D01*
X133071035Y-90412285D02*
X133106750Y-90448000D01*
X133142464Y-90412285D01*
X133106750Y-90376571D01*
X133071035Y-90412285D01*
X133142464Y-90412285D01*
X133785321Y-89733714D02*
X133821035Y-89805142D01*
X133821035Y-89948000D01*
X133785321Y-90019428D01*
X133749607Y-90055142D01*
X133678178Y-90090857D01*
X133463892Y-90090857D01*
X133392464Y-90055142D01*
X133356750Y-90019428D01*
X133321035Y-89948000D01*
X133321035Y-89805142D01*
X133356750Y-89733714D01*
X133821035Y-89412285D02*
X133321035Y-89412285D01*
X133463892Y-89412285D02*
X133392464Y-89376571D01*
X133356750Y-89340857D01*
X133321035Y-89269428D01*
X133321035Y-89198000D01*
X133821035Y-88840857D02*
X133785321Y-88912285D01*
X133749607Y-88948000D01*
X133678178Y-88983714D01*
X133463892Y-88983714D01*
X133392464Y-88948000D01*
X133356750Y-88912285D01*
X133321035Y-88840857D01*
X133321035Y-88733714D01*
X133356750Y-88662285D01*
X133392464Y-88626571D01*
X133463892Y-88590857D01*
X133678178Y-88590857D01*
X133749607Y-88626571D01*
X133785321Y-88662285D01*
X133821035Y-88733714D01*
X133821035Y-88840857D01*
X133071035Y-88269428D02*
X133678178Y-88269428D01*
X133749607Y-88233714D01*
X133785321Y-88198000D01*
X133821035Y-88126571D01*
X133821035Y-87983714D01*
X133785321Y-87912285D01*
X133749607Y-87876571D01*
X133678178Y-87840857D01*
X133071035Y-87840857D01*
X133785321Y-87519428D02*
X133821035Y-87412285D01*
X133821035Y-87233714D01*
X133785321Y-87162285D01*
X133749607Y-87126571D01*
X133678178Y-87090857D01*
X133606750Y-87090857D01*
X133535321Y-87126571D01*
X133499607Y-87162285D01*
X133463892Y-87233714D01*
X133428178Y-87376571D01*
X133392464Y-87448000D01*
X133356750Y-87483714D01*
X133285321Y-87519428D01*
X133213892Y-87519428D01*
X133142464Y-87483714D01*
X133106750Y-87448000D01*
X133071035Y-87376571D01*
X133071035Y-87198000D01*
X133106750Y-87090857D01*
X133428178Y-86519428D02*
X133463892Y-86412285D01*
X133499607Y-86376571D01*
X133571035Y-86340857D01*
X133678178Y-86340857D01*
X133749607Y-86376571D01*
X133785321Y-86412285D01*
X133821035Y-86483714D01*
X133821035Y-86769428D01*
X133071035Y-86769428D01*
X133071035Y-86519428D01*
X133106750Y-86448000D01*
X133142464Y-86412285D01*
X133213892Y-86376571D01*
X133285321Y-86376571D01*
X133356750Y-86412285D01*
X133392464Y-86448000D01*
X133428178Y-86519428D01*
X133428178Y-86769428D01*
%TD*%
M02*
