%TF.GenerationSoftware,KiCad,Pcbnew,(5.99.0-12610-g07e01e6297)*%
%TF.CreationDate,2021-11-08T11:22:45+00:00*%
%TF.ProjectId,piccolo-mini,70696363-6f6c-46f2-9d6d-696e692e6b69,rev?*%
%TF.SameCoordinates,Original*%
%TF.FileFunction,Soldermask,Bot*%
%TF.FilePolarity,Negative*%
%FSLAX46Y46*%
G04 Gerber Fmt 4.6, Leading zero omitted, Abs format (unit mm)*
G04 Created by KiCad (PCBNEW (5.99.0-12610-g07e01e6297)) date 2021-11-08 11:22:45*
%MOMM*%
%LPD*%
G01*
G04 APERTURE LIST*
%ADD10C,0.200000*%
%ADD11R,1.200000X1.600000*%
%ADD12R,1.600000X1.600000*%
%ADD13C,1.600000*%
%ADD14C,3.000000*%
%ADD15C,1.750000*%
%ADD16C,3.987800*%
%ADD17R,2.550000X2.500000*%
%ADD18R,2.000000X2.000000*%
%ADD19C,2.000000*%
%ADD20C,3.700000*%
%ADD21C,1.524000*%
G04 APERTURE END LIST*
D10*
X205255261Y-94115380D02*
X205255261Y-93115380D01*
X204874309Y-93115380D01*
X204779071Y-93163000D01*
X204731452Y-93210619D01*
X204683833Y-93305857D01*
X204683833Y-93448714D01*
X204731452Y-93543952D01*
X204779071Y-93591571D01*
X204874309Y-93639190D01*
X205255261Y-93639190D01*
X204255261Y-94115380D02*
X204255261Y-93448714D01*
X204255261Y-93115380D02*
X204302880Y-93163000D01*
X204255261Y-93210619D01*
X204207642Y-93163000D01*
X204255261Y-93115380D01*
X204255261Y-93210619D01*
X203350500Y-94067761D02*
X203445738Y-94115380D01*
X203636214Y-94115380D01*
X203731452Y-94067761D01*
X203779071Y-94020142D01*
X203826690Y-93924904D01*
X203826690Y-93639190D01*
X203779071Y-93543952D01*
X203731452Y-93496333D01*
X203636214Y-93448714D01*
X203445738Y-93448714D01*
X203350500Y-93496333D01*
X202493357Y-94067761D02*
X202588595Y-94115380D01*
X202779071Y-94115380D01*
X202874309Y-94067761D01*
X202921928Y-94020142D01*
X202969547Y-93924904D01*
X202969547Y-93639190D01*
X202921928Y-93543952D01*
X202874309Y-93496333D01*
X202779071Y-93448714D01*
X202588595Y-93448714D01*
X202493357Y-93496333D01*
X201921928Y-94115380D02*
X202017166Y-94067761D01*
X202064785Y-94020142D01*
X202112404Y-93924904D01*
X202112404Y-93639190D01*
X202064785Y-93543952D01*
X202017166Y-93496333D01*
X201921928Y-93448714D01*
X201779071Y-93448714D01*
X201683833Y-93496333D01*
X201636214Y-93543952D01*
X201588595Y-93639190D01*
X201588595Y-93924904D01*
X201636214Y-94020142D01*
X201683833Y-94067761D01*
X201779071Y-94115380D01*
X201921928Y-94115380D01*
X201017166Y-94115380D02*
X201112404Y-94067761D01*
X201160023Y-93972523D01*
X201160023Y-93115380D01*
X200493357Y-94115380D02*
X200588595Y-94067761D01*
X200636214Y-94020142D01*
X200683833Y-93924904D01*
X200683833Y-93639190D01*
X200636214Y-93543952D01*
X200588595Y-93496333D01*
X200493357Y-93448714D01*
X200350500Y-93448714D01*
X200255261Y-93496333D01*
X200207642Y-93543952D01*
X200160023Y-93639190D01*
X200160023Y-93924904D01*
X200207642Y-94020142D01*
X200255261Y-94067761D01*
X200350500Y-94115380D01*
X200493357Y-94115380D01*
X198969547Y-94115380D02*
X198969547Y-93115380D01*
X198636214Y-93829666D01*
X198302880Y-93115380D01*
X198302880Y-94115380D01*
X197826690Y-94115380D02*
X197826690Y-93448714D01*
X197826690Y-93115380D02*
X197874309Y-93163000D01*
X197826690Y-93210619D01*
X197779071Y-93163000D01*
X197826690Y-93115380D01*
X197826690Y-93210619D01*
X197350500Y-93448714D02*
X197350500Y-94115380D01*
X197350500Y-93543952D02*
X197302880Y-93496333D01*
X197207642Y-93448714D01*
X197064785Y-93448714D01*
X196969547Y-93496333D01*
X196921928Y-93591571D01*
X196921928Y-94115380D01*
X196445738Y-94115380D02*
X196445738Y-93448714D01*
X196445738Y-93115380D02*
X196493357Y-93163000D01*
X196445738Y-93210619D01*
X196398119Y-93163000D01*
X196445738Y-93115380D01*
X196445738Y-93210619D01*
X204017166Y-95725380D02*
X204017166Y-94725380D01*
X204017166Y-95106333D02*
X203921928Y-95058714D01*
X203731452Y-95058714D01*
X203636214Y-95106333D01*
X203588595Y-95153952D01*
X203540976Y-95249190D01*
X203540976Y-95534904D01*
X203588595Y-95630142D01*
X203636214Y-95677761D01*
X203731452Y-95725380D01*
X203921928Y-95725380D01*
X204017166Y-95677761D01*
X203207642Y-95058714D02*
X202969547Y-95725380D01*
X202731452Y-95058714D02*
X202969547Y-95725380D01*
X203064785Y-95963476D01*
X203112404Y-96011095D01*
X203207642Y-96058714D01*
X201302880Y-94725380D02*
X201302880Y-95439666D01*
X201350500Y-95582523D01*
X201445738Y-95677761D01*
X201588595Y-95725380D01*
X201683833Y-95725380D01*
X200445738Y-95677761D02*
X200540976Y-95725380D01*
X200731452Y-95725380D01*
X200826690Y-95677761D01*
X200874309Y-95582523D01*
X200874309Y-95201571D01*
X200826690Y-95106333D01*
X200731452Y-95058714D01*
X200540976Y-95058714D01*
X200445738Y-95106333D01*
X200398119Y-95201571D01*
X200398119Y-95296809D01*
X200874309Y-95392047D01*
X199683833Y-94725380D02*
X199683833Y-95439666D01*
X199731452Y-95582523D01*
X199826690Y-95677761D01*
X199969547Y-95725380D01*
X200064785Y-95725380D01*
X198826690Y-95677761D02*
X198921928Y-95725380D01*
X199112404Y-95725380D01*
X199207642Y-95677761D01*
X199255261Y-95582523D01*
X199255261Y-95201571D01*
X199207642Y-95106333D01*
X199112404Y-95058714D01*
X198921928Y-95058714D01*
X198826690Y-95106333D01*
X198779071Y-95201571D01*
X198779071Y-95296809D01*
X199255261Y-95392047D01*
X198493357Y-95058714D02*
X198112404Y-95058714D01*
X198350500Y-95725380D02*
X198350500Y-94868238D01*
X198302880Y-94773000D01*
X198207642Y-94725380D01*
X198112404Y-94725380D01*
X197921928Y-95058714D02*
X197540976Y-95058714D01*
X197779071Y-95725380D02*
X197779071Y-94868238D01*
X197731452Y-94773000D01*
X197636214Y-94725380D01*
X197540976Y-94725380D01*
X203302880Y-97335380D02*
X203302880Y-96668714D01*
X203302880Y-96859190D02*
X203255261Y-96763952D01*
X203207642Y-96716333D01*
X203112404Y-96668714D01*
X203017166Y-96668714D01*
X202302880Y-97287761D02*
X202398119Y-97335380D01*
X202588595Y-97335380D01*
X202683833Y-97287761D01*
X202731452Y-97192523D01*
X202731452Y-96811571D01*
X202683833Y-96716333D01*
X202588595Y-96668714D01*
X202398119Y-96668714D01*
X202302880Y-96716333D01*
X202255261Y-96811571D01*
X202255261Y-96906809D01*
X202731452Y-97002047D01*
X201921928Y-96668714D02*
X201683833Y-97335380D01*
X201445738Y-96668714D01*
X200112404Y-96335380D02*
X200017166Y-96335380D01*
X199921928Y-96383000D01*
X199874309Y-96430619D01*
X199826690Y-96525857D01*
X199779071Y-96716333D01*
X199779071Y-96954428D01*
X199826690Y-97144904D01*
X199874309Y-97240142D01*
X199921928Y-97287761D01*
X200017166Y-97335380D01*
X200112404Y-97335380D01*
X200207642Y-97287761D01*
X200255261Y-97240142D01*
X200302880Y-97144904D01*
X200350500Y-96954428D01*
X200350500Y-96716333D01*
X200302880Y-96525857D01*
X200255261Y-96430619D01*
X200207642Y-96383000D01*
X200112404Y-96335380D01*
X199350500Y-97240142D02*
X199302880Y-97287761D01*
X199350500Y-97335380D01*
X199398119Y-97287761D01*
X199350500Y-97240142D01*
X199350500Y-97335380D01*
X198350500Y-97335380D02*
X198921928Y-97335380D01*
X198636214Y-97335380D02*
X198636214Y-96335380D01*
X198731452Y-96478238D01*
X198826690Y-96573476D01*
X198921928Y-96621095D01*
D11*
%TO.C,D1*%
X152150500Y-89773000D03*
D12*
X152150500Y-92273000D03*
D13*
X152150500Y-84473000D03*
D11*
X152150500Y-86973000D03*
%TD*%
%TO.C,D2*%
X171000500Y-91713000D03*
D12*
X171000500Y-94213000D03*
D11*
X171000500Y-88913000D03*
D13*
X171000500Y-86413000D03*
%TD*%
D12*
%TO.C,D3*%
X190200500Y-90273000D03*
D11*
X190200500Y-87773000D03*
X190200500Y-84973000D03*
D13*
X190200500Y-82473000D03*
%TD*%
D12*
%TO.C,D4*%
X209300500Y-93373000D03*
D11*
X209300500Y-90873000D03*
X209300500Y-88073000D03*
D13*
X209300500Y-85573000D03*
%TD*%
D11*
%TO.C,D5*%
X211700500Y-94173000D03*
D12*
X211700500Y-96673000D03*
D13*
X211700500Y-88873000D03*
D11*
X211700500Y-91373000D03*
%TD*%
D14*
%TO.C,MX1*%
X146240500Y-83693000D03*
D15*
X148780500Y-88773000D03*
D16*
X143700500Y-88773000D03*
D15*
X138620500Y-88773000D03*
D14*
X139890500Y-86233000D03*
D17*
X136615500Y-86233000D03*
X149542500Y-83693000D03*
%TD*%
D16*
%TO.C,MX2*%
X162750500Y-88773000D03*
D14*
X158940500Y-86233000D03*
X165290500Y-83693000D03*
D15*
X157670500Y-88773000D03*
X167830500Y-88773000D03*
D17*
X155665500Y-86233000D03*
X168592500Y-83693000D03*
%TD*%
D14*
%TO.C,MX4*%
X203390500Y-83693000D03*
D16*
X200850500Y-88773000D03*
D15*
X205930500Y-88773000D03*
D14*
X197040500Y-86233000D03*
D15*
X195770500Y-88773000D03*
D17*
X193765500Y-86233000D03*
X206692500Y-83693000D03*
%TD*%
D15*
%TO.C,MX5*%
X224980500Y-88773000D03*
D14*
X222440500Y-83693000D03*
D16*
X219900500Y-88773000D03*
D15*
X214820500Y-88773000D03*
D14*
X216090500Y-86233000D03*
D17*
X212815500Y-86233000D03*
X225742500Y-83693000D03*
%TD*%
D18*
%TO.C,ENC1*%
X217400500Y-96273000D03*
D19*
X222400500Y-96273000D03*
X219900500Y-96273000D03*
X222400500Y-81773000D03*
X217400500Y-81773000D03*
%TD*%
D15*
%TO.C,MX3*%
X176720500Y-88773000D03*
D14*
X184340500Y-83693000D03*
D15*
X186880500Y-88773000D03*
D16*
X181800500Y-88773000D03*
D14*
X177990500Y-86233000D03*
D17*
X174715500Y-86233000D03*
X187642500Y-83693000D03*
%TD*%
D20*
%TO.C,REF\u002A\u002A*%
X210312000Y-81407000D03*
%TD*%
%TO.C,REF\u002A\u002A*%
X191262000Y-96012000D03*
%TD*%
%TO.C,REF\u002A\u002A*%
X172212000Y-81407000D03*
%TD*%
D21*
%TO.C,U1*%
X137197500Y-80644100D03*
X139737500Y-80644100D03*
X142277500Y-80644100D03*
X144817500Y-80644100D03*
X147357500Y-80644100D03*
X149897500Y-80644100D03*
X152437500Y-80644100D03*
X154977500Y-80644100D03*
X157517500Y-80644100D03*
X160057500Y-80644100D03*
X162597500Y-80644100D03*
X165137500Y-80644100D03*
X165137500Y-95864100D03*
X162597500Y-95864100D03*
X160057500Y-95864100D03*
X157517500Y-95864100D03*
X154977500Y-95864100D03*
X152437500Y-95864100D03*
X149897500Y-95864100D03*
X147357500Y-95864100D03*
X144817500Y-95864100D03*
X142277500Y-95864100D03*
X139737500Y-95864100D03*
X137197500Y-95864100D03*
%TD*%
D19*
%TO.C,RESET1*%
X178550500Y-96710500D03*
X185050500Y-96710500D03*
%TD*%
M02*
