M48
; DRILL file {KiCad (5.1.10)-1} date 09/25/21 16:03:40
; FORMAT={-:-/ absolute / inch / decimal}
; #@! TF.CreationDate,2021-09-25T16:03:40+01:00
; #@! TF.GenerationSoftware,Kicad,Pcbnew,(5.1.10)-1
; #@! TF.FileFunction,NonPlated,1,2,NPTH
FMAT,2
INCH
T1C0.0748
T2C0.1181
T3C0.1614
%
G90
G05
T1
X5.4575Y-3.495
X5.8575Y-3.495
X6.2075Y-3.495
X6.6075Y-3.495
X6.9575Y-3.495
X7.3575Y-3.495
X7.7075Y-3.495
X8.1075Y-3.495
X8.4575Y-3.495
X8.8575Y-3.495
T2
X5.5075Y-3.395
X5.7575Y-3.295
X6.2575Y-3.395
X6.5075Y-3.295
X7.0075Y-3.395
X7.2575Y-3.295
X7.7575Y-3.395
X8.0075Y-3.295
X8.5075Y-3.395
X8.7575Y-3.295
T3
X5.6575Y-3.495
X6.4075Y-3.495
X7.1575Y-3.495
X7.9075Y-3.495
X8.6575Y-3.495
T0
M30
