M48
; DRILL file {KiCad (5.99.0-12610-g07e01e6297)} date Mon Nov  8 11:22:47 2021
; FORMAT={-:-/ absolute / inch / decimal}
; #@! TF.CreationDate,2021-11-08T11:22:47+00:00
; #@! TF.GenerationSoftware,Kicad,Pcbnew,(5.99.0-12610-g07e01e6297)
; #@! TF.FileFunction,Plated,1,2,PTH
FMAT,2
INCH
; #@! TA.AperFunction,Plated,PTH,ViaDrill
T1C0.0157
; #@! TA.AperFunction,Plated,PTH,ComponentDrill
T2C0.0320
; #@! TA.AperFunction,Plated,PTH,ComponentDrill
T3C0.0394
; #@! TA.AperFunction,Plated,PTH,ComponentDrill
T4C0.0512
%
G90
G05
T1
X6.2575Y-3.573
X6.628Y-3.206
X6.8414Y-3.4978
X8.5264Y-3.5556
T2
X5.4015Y-3.175
X5.4015Y-3.7742
X5.5015Y-3.175
X5.5015Y-3.7742
X5.6015Y-3.175
X5.6015Y-3.7742
X5.7015Y-3.175
X5.7015Y-3.7742
X5.8015Y-3.175
X5.8015Y-3.7742
X5.9015Y-3.175
X5.9015Y-3.7742
X6.0015Y-3.175
X6.0015Y-3.7742
X6.1015Y-3.175
X6.1015Y-3.7742
X6.2015Y-3.175
X6.2015Y-3.7742
X6.3015Y-3.175
X6.3015Y-3.7742
X6.4015Y-3.175
X6.4015Y-3.7742
X6.5015Y-3.175
X6.5015Y-3.7742
T3
X5.9902Y-3.3257
X5.9902Y-3.6328
X6.7323Y-3.4021
X6.7323Y-3.7092
X7.4882Y-3.247
X7.4882Y-3.5541
X8.2402Y-3.369
X8.2402Y-3.6761
X8.3347Y-3.4989
X8.3347Y-3.806
X8.5591Y-3.2194
X8.5591Y-3.7903
X8.6575Y-3.7903
X8.7559Y-3.2194
X8.7559Y-3.7903
T4
X7.0295Y-3.8075
X7.2855Y-3.8075
T0
M30
