%TF.GenerationSoftware,KiCad,Pcbnew,(5.99.0-12610-g07e01e6297)*%
%TF.CreationDate,2021-11-07T21:10:22+00:00*%
%TF.ProjectId,piccolo,70696363-6f6c-46f2-9e6b-696361645f70,rev?*%
%TF.SameCoordinates,Original*%
%TF.FileFunction,Copper,L2,Bot*%
%TF.FilePolarity,Positive*%
%FSLAX46Y46*%
G04 Gerber Fmt 4.6, Leading zero omitted, Abs format (unit mm)*
G04 Created by KiCad (PCBNEW (5.99.0-12610-g07e01e6297)) date 2021-11-07 21:10:22*
%MOMM*%
%LPD*%
G01*
G04 APERTURE LIST*
%TA.AperFunction,SMDPad,CuDef*%
%ADD10R,1.200000X1.600000*%
%TD*%
%TA.AperFunction,ComponentPad*%
%ADD11R,1.600000X1.600000*%
%TD*%
%TA.AperFunction,SMDPad,CuDef*%
%ADD12R,0.500000X2.900000*%
%TD*%
%TA.AperFunction,ComponentPad*%
%ADD13C,1.600000*%
%TD*%
%TA.AperFunction,SMDPad,CuDef*%
%ADD14R,2.550000X2.500000*%
%TD*%
%TA.AperFunction,ComponentPad*%
%ADD15C,1.397000*%
%TD*%
%TA.AperFunction,ComponentPad*%
%ADD16R,2.000000X2.000000*%
%TD*%
%TA.AperFunction,ComponentPad*%
%ADD17C,2.000000*%
%TD*%
%TA.AperFunction,ComponentPad*%
%ADD18C,1.524000*%
%TD*%
%TA.AperFunction,ViaPad*%
%ADD19C,0.800000*%
%TD*%
%TA.AperFunction,Conductor*%
%ADD20C,0.250000*%
%TD*%
%TA.AperFunction,Conductor*%
%ADD21C,0.380000*%
%TD*%
G04 APERTURE END LIST*
D10*
%TO.P,D1,1,K*%
%TO.N,row0*%
X86776000Y-52750000D03*
D11*
X86776000Y-55250000D03*
D12*
X86776000Y-53850000D03*
%TO.P,D1,2,A*%
%TO.N,Net-(D1-Pad2)*%
X86776000Y-48850000D03*
D13*
X86776000Y-47450000D03*
D10*
X86776000Y-49950000D03*
%TD*%
D12*
%TO.P,D2,1,K*%
%TO.N,row0*%
X105776000Y-53850000D03*
D10*
X105776000Y-52750000D03*
D11*
X105776000Y-55250000D03*
D13*
%TO.P,D2,2,A*%
%TO.N,Net-(D2-Pad2)*%
X105776000Y-47450000D03*
D12*
X105776000Y-48850000D03*
D10*
X105776000Y-49950000D03*
%TD*%
D11*
%TO.P,D3,1,K*%
%TO.N,row0*%
X124876000Y-51811000D03*
D12*
X124876000Y-50411000D03*
D10*
X124876000Y-49311000D03*
D13*
%TO.P,D3,2,A*%
%TO.N,Net-(D3-Pad2)*%
X124876000Y-44011000D03*
D12*
X124876000Y-45411000D03*
D10*
X124876000Y-46511000D03*
%TD*%
D12*
%TO.P,D4,1,K*%
%TO.N,row1*%
X143876000Y-53850000D03*
D11*
X143876000Y-55250000D03*
D10*
X143876000Y-52750000D03*
%TO.P,D4,2,A*%
%TO.N,Net-(D4-Pad2)*%
X143876000Y-49950000D03*
D12*
X143876000Y-48850000D03*
D13*
X143876000Y-47450000D03*
%TD*%
D10*
%TO.P,D5,1,K*%
%TO.N,row1*%
X162876000Y-52750000D03*
D11*
X162876000Y-55250000D03*
D12*
X162876000Y-53850000D03*
D13*
%TO.P,D5,2,A*%
%TO.N,Net-(D5-Pad2)*%
X162876000Y-47450000D03*
D10*
X162876000Y-49950000D03*
D12*
X162876000Y-48850000D03*
%TD*%
D14*
%TO.P,MX1,1,COL*%
%TO.N,col0*%
X89752500Y-46672500D03*
%TO.P,MX1,2,ROW*%
%TO.N,Net-(D1-Pad2)*%
X102679500Y-44132500D03*
%TD*%
%TO.P,MX2,1,COL*%
%TO.N,col1*%
X108802500Y-46672500D03*
%TO.P,MX2,2,ROW*%
%TO.N,Net-(D2-Pad2)*%
X121729500Y-44132500D03*
%TD*%
%TO.P,MX3,1,COL*%
%TO.N,col2*%
X127852500Y-46672500D03*
%TO.P,MX3,2,ROW*%
%TO.N,Net-(D3-Pad2)*%
X140779500Y-44132500D03*
%TD*%
%TO.P,MX4,1,COL*%
%TO.N,col0*%
X146902500Y-46672500D03*
%TO.P,MX4,2,ROW*%
%TO.N,Net-(D4-Pad2)*%
X159829500Y-44132500D03*
%TD*%
D15*
%TO.P,OL1,4,GND*%
%TO.N,GND*%
X83693000Y-45339000D03*
%TO.P,OL1,3,VCC*%
%TO.N,VCC*%
X83693000Y-47879000D03*
%TO.P,OL1,2,SCL*%
%TO.N,SCL*%
X83693000Y-50419000D03*
%TO.P,OL1,1,SDA*%
%TO.N,SDA*%
X83693000Y-52959000D03*
%TD*%
D16*
%TO.P,ENC1,A,A*%
%TO.N,EncoderA*%
X170537500Y-56712500D03*
D17*
%TO.P,ENC1,B,B*%
%TO.N,EncoderB*%
X175537500Y-56712500D03*
%TO.P,ENC1,C,C*%
%TO.N,GND*%
X173037500Y-56712500D03*
%TO.P,ENC1,S1,S1*%
%TO.N,Net-(D5-Pad2)*%
X175537500Y-42212500D03*
%TO.P,ENC1,S2,S2*%
%TO.N,col1*%
X170537500Y-42212500D03*
%TD*%
D14*
%TO.P,MX5,1,COL*%
%TO.N,col1*%
X165952500Y-46672500D03*
%TO.P,MX5,2,ROW*%
%TO.N,Net-(D5-Pad2)*%
X178879500Y-44132500D03*
%TD*%
D18*
%TO.P,U1,1,TX0/PD3*%
%TO.N,unconnected-(U1-Pad1)*%
X50609500Y-56823900D03*
%TO.P,U1,2,RX1/PD2*%
%TO.N,unconnected-(U1-Pad2)*%
X53149500Y-56823900D03*
%TO.P,U1,3,GND*%
%TO.N,GND*%
X55689500Y-56823900D03*
%TO.P,U1,4,GND*%
X58229500Y-56823900D03*
%TO.P,U1,5,2/PD1*%
%TO.N,SDA*%
X60769500Y-56823900D03*
%TO.P,U1,6,3/PD0*%
%TO.N,SCL*%
X63309500Y-56823900D03*
%TO.P,U1,7,4/PD4*%
%TO.N,unconnected-(U1-Pad7)*%
X65849500Y-56823900D03*
%TO.P,U1,8,5/PC6*%
%TO.N,unconnected-(U1-Pad8)*%
X68389500Y-56823900D03*
%TO.P,U1,9,6/PD7*%
%TO.N,EncoderB*%
X70929500Y-56823900D03*
%TO.P,U1,10,7/PE6*%
%TO.N,EncoderA*%
X73469500Y-56823900D03*
%TO.P,U1,11,8/PB4*%
%TO.N,unconnected-(U1-Pad11)*%
X76009500Y-56823900D03*
%TO.P,U1,12,9/PB5*%
%TO.N,row0*%
X78549500Y-56823900D03*
%TO.P,U1,13,10/PB6*%
%TO.N,row1*%
X78549500Y-41603900D03*
%TO.P,U1,14,16/PB2*%
%TO.N,unconnected-(U1-Pad14)*%
X76009500Y-41603900D03*
%TO.P,U1,15,14/PB3*%
%TO.N,col2*%
X73469500Y-41603900D03*
%TO.P,U1,16,15/PB1*%
%TO.N,col1*%
X70929500Y-41603900D03*
%TO.P,U1,17,A0/PF7*%
%TO.N,col0*%
X68389500Y-41603900D03*
%TO.P,U1,18,A1/PF6*%
%TO.N,unconnected-(U1-Pad18)*%
X65849500Y-41603900D03*
%TO.P,U1,19,A2/PF5*%
%TO.N,unconnected-(U1-Pad19)*%
X63309500Y-41603900D03*
%TO.P,U1,20,A3/PF4*%
%TO.N,unconnected-(U1-Pad20)*%
X60769500Y-41603900D03*
%TO.P,U1,21,VCC*%
%TO.N,VCC*%
X58229500Y-41603900D03*
%TO.P,U1,22,RST*%
%TO.N,Reset*%
X55689500Y-41603900D03*
%TO.P,U1,23,GND*%
%TO.N,GND*%
X53149500Y-41603900D03*
%TO.P,U1,24,RAW*%
%TO.N,unconnected-(U1-Pad24)*%
X50609500Y-41603900D03*
%TD*%
D17*
%TO.P,RESET1,1,1*%
%TO.N,Reset*%
X179900000Y-53850000D03*
%TO.P,RESET1,2,2*%
%TO.N,GND*%
X179900000Y-47350000D03*
%TD*%
D19*
%TO.N,Net-(D1-Pad2)*%
X98900000Y-41800000D03*
%TO.N,Net-(D2-Pad2)*%
X115300000Y-41711000D03*
%TO.N,Net-(D3-Pad2)*%
X135876000Y-41511000D03*
%TO.N,Net-(D4-Pad2)*%
X157500000Y-41600000D03*
%TO.N,col0*%
X102100000Y-41000000D03*
X124900000Y-39800000D03*
X123190000Y-40640000D03*
X103700000Y-40524500D03*
%TO.N,col1*%
X124211349Y-41486651D03*
X126500000Y-40100000D03*
%TO.N,GND*%
X65750000Y-45350000D03*
%TO.N,SDA*%
X69800000Y-52950000D03*
%TD*%
D20*
%TO.N,SDA*%
X69809000Y-52959000D02*
X69800000Y-52950000D01*
X81407000Y-52959000D02*
X69809000Y-52959000D01*
%TO.N,SCL*%
X69714400Y-50419000D02*
X81426000Y-50419000D01*
X63309500Y-56823900D02*
X69714400Y-50419000D01*
D21*
%TO.N,VCC*%
X64504600Y-47879000D02*
X58229500Y-41603900D01*
X81426000Y-47879000D02*
X64504600Y-47879000D01*
%TO.N,GND*%
X65761000Y-45339000D02*
X65750000Y-45350000D01*
X83693000Y-45339000D02*
X65761000Y-45339000D01*
D20*
%TO.N,Net-(D1-Pad2)*%
X100347000Y-41800000D02*
X102679500Y-44132500D01*
X98900000Y-41800000D02*
X100347000Y-41800000D01*
%TO.N,row0*%
X85378900Y-56821100D02*
X78549500Y-56821100D01*
X86776000Y-55424000D02*
X85378900Y-56821100D01*
%TO.N,Net-(D2-Pad2)*%
X121729500Y-44064500D02*
X121729500Y-44132500D01*
X119376000Y-41711000D02*
X121729500Y-44064500D01*
X115300000Y-41711000D02*
X119376000Y-41711000D01*
%TO.N,Net-(D3-Pad2)*%
X138158000Y-41511000D02*
X140779500Y-44132500D01*
X135876000Y-41511000D02*
X138158000Y-41511000D01*
%TO.N,Net-(D4-Pad2)*%
X159829500Y-43964500D02*
X159829500Y-44132500D01*
X157500000Y-41600000D02*
X157500000Y-41635000D01*
X157500000Y-41635000D02*
X159829500Y-43964500D01*
%TO.N,Net-(D5-Pad2)*%
X178879500Y-44132500D02*
X176959500Y-42212500D01*
X176959500Y-42212500D02*
X175537500Y-42212500D01*
%TO.N,col0*%
X124900000Y-39800000D02*
X126118713Y-41018713D01*
X127471990Y-40328010D02*
X140558010Y-40328010D01*
X95775480Y-40649520D02*
X89752500Y-46672500D01*
X126118713Y-41018713D02*
X126781287Y-41018713D01*
X85788500Y-44958000D02*
X84714019Y-43883519D01*
X104074980Y-40149520D02*
X122699520Y-40149520D01*
X140558010Y-40328010D02*
X146902500Y-46672500D01*
X102100000Y-41000000D02*
X101749520Y-40649520D01*
X84714019Y-43883519D02*
X70671919Y-43883519D01*
X122699520Y-40149520D02*
X123190000Y-40640000D01*
X103700000Y-40524500D02*
X104074980Y-40149520D01*
X126781287Y-41018713D02*
X127471990Y-40328010D01*
X89752500Y-46672500D02*
X88038000Y-44958000D01*
X101749520Y-40649520D02*
X95775480Y-40649520D01*
X88038000Y-44958000D02*
X85788500Y-44958000D01*
X70671919Y-43883519D02*
X68389500Y-41601100D01*
%TO.N,col1*%
X126500000Y-40100000D02*
X126900000Y-39700000D01*
X122963649Y-41486651D02*
X122076038Y-40599040D01*
X72762399Y-43433999D02*
X70929500Y-41601100D01*
X95589282Y-40200000D02*
X91281293Y-44507989D01*
X124211349Y-41486651D02*
X122963649Y-41486651D01*
X126900000Y-39700000D02*
X168025000Y-39700000D01*
X84900909Y-43433999D02*
X72762399Y-43433999D01*
X102330000Y-40200000D02*
X95589282Y-40200000D01*
X166077500Y-46672500D02*
X165952500Y-46672500D01*
X168025000Y-39700000D02*
X170537500Y-42212500D01*
X108802500Y-46672500D02*
X102330000Y-40200000D01*
X122076038Y-40599040D02*
X114875960Y-40599040D01*
X170537500Y-42212500D02*
X166077500Y-46672500D01*
X85974899Y-44507989D02*
X84900909Y-43433999D01*
X91281293Y-44507989D02*
X85974899Y-44507989D01*
X114875960Y-40599040D02*
X108802500Y-46672500D01*
%TO.N,col2*%
X74852389Y-42983989D02*
X73469500Y-41601100D01*
X127852500Y-46672500D02*
X127852500Y-44102496D01*
X86031410Y-39700000D02*
X82747421Y-42983989D01*
X123450004Y-39700000D02*
X86031410Y-39700000D01*
X82747421Y-42983989D02*
X74852389Y-42983989D01*
X127852500Y-44102496D02*
X123450004Y-39700000D01*
D21*
%TO.N,GND*%
X55689500Y-56823900D02*
X58229500Y-56823900D01*
X179900000Y-47350000D02*
X179900000Y-49300000D01*
X173037500Y-56162500D02*
X173037500Y-56712500D01*
X53149500Y-54283900D02*
X55689500Y-56823900D01*
X179900000Y-49300000D02*
X173037500Y-56162500D01*
X53149500Y-41603900D02*
X53149500Y-54283900D01*
D20*
%TO.N,Reset*%
X176464213Y-58700000D02*
X50000000Y-58700000D01*
X179900000Y-55264213D02*
X176464213Y-58700000D01*
X48250000Y-56950000D02*
X48250000Y-41500000D01*
X48250000Y-41500000D02*
X49800000Y-39950000D01*
X179900000Y-53850000D02*
X179900000Y-55264213D01*
X50000000Y-58700000D02*
X48250000Y-56950000D01*
X54035600Y-39950000D02*
X55689500Y-41603900D01*
X49800000Y-39950000D02*
X54035600Y-39950000D01*
%TO.N,SCL*%
X81426000Y-50419000D02*
X83693000Y-50419000D01*
D21*
%TO.N,VCC*%
X81426000Y-47879000D02*
X83693000Y-47879000D01*
D20*
%TO.N,GND*%
X83693000Y-45339000D02*
X81426000Y-45339000D01*
%TO.N,SDA*%
X81407000Y-52959000D02*
X83693000Y-52959000D01*
%TD*%
M02*
