M48
; DRILL file {KiCad (5.1.10)-1} date 09/26/21 12:02:51
; FORMAT={-:-/ absolute / inch / decimal}
; #@! TF.CreationDate,2021-09-26T12:02:51+01:00
; #@! TF.GenerationSoftware,Kicad,Pcbnew,(5.1.10)-1
; #@! TF.FileFunction,Plated,1,2,PTH
FMAT,2
INCH
T1C0.0157
T2C0.0320
T3C0.0390
T4C0.0394
%
G90
G05
T1
X2.645Y-2.065
X2.6473Y-1.9927
X2.855Y-1.89
X2.885Y-1.785
X3.97Y-1.885
X4.7188Y-1.875
X5.395Y-1.62
X5.47Y-1.875
X6.2405Y-1.8305
X6.42Y-1.79
X6.7369Y-1.7381
T2
X1.9925Y-1.6378
X1.9925Y-2.2371
X2.0925Y-1.6378
X2.0925Y-2.2371
X2.1925Y-1.6378
X2.1925Y-2.2371
X2.2925Y-1.6378
X2.2925Y-2.2371
X2.3925Y-1.6378
X2.3925Y-2.2371
X2.4925Y-1.6378
X2.4925Y-2.2371
X2.5925Y-1.6378
X2.5925Y-2.2371
X2.6925Y-1.6378
X2.6925Y-2.2371
X2.7925Y-1.6378
X2.7925Y-2.2371
X2.8925Y-1.6378
X2.8925Y-2.2371
X2.9925Y-1.6378
X2.9925Y-2.2371
X3.0925Y-1.6378
X3.0925Y-2.2371
X3.295Y-1.785
X3.295Y-1.885
X3.295Y-1.985
X3.295Y-2.085
T3
X7.08Y-1.8481
X7.08Y-2.045
T4
X3.659Y-2.2812
X3.966Y-2.2812
X4.409Y-2.2812
X4.716Y-2.2812
X5.159Y-2.2812
X5.466Y-2.2812
X5.909Y-2.2812
X6.216Y-2.2812
X6.39Y-1.8466
X6.39Y-2.1537
X6.7141Y-1.6619
X6.7141Y-2.2328
X6.8125Y-2.2328
X6.9109Y-1.6619
X6.9109Y-2.2328
T0
M30
