M48
; DRILL file {KiCad (5.99.0-12610-g07e01e6297)} date Sun Nov  7 21:10:24 2021
; FORMAT={-:-/ absolute / inch / decimal}
; #@! TF.CreationDate,2021-11-07T21:10:24+00:00
; #@! TF.GenerationSoftware,Kicad,Pcbnew,(5.99.0-12610-g07e01e6297)
; #@! TF.FileFunction,Plated,1,2,PTH
FMAT,2
INCH
; #@! TA.AperFunction,Plated,PTH,ViaDrill
T1C0.0157
; #@! TA.AperFunction,Plated,PTH,ComponentDrill
T2C0.0320
; #@! TA.AperFunction,Plated,PTH,ComponentDrill
T3C0.0394
; #@! TA.AperFunction,Plated,PTH,ComponentDrill
T4C0.0512
%
G90
G05
T1
X2.5886Y-1.7854
X2.748Y-2.0846
X3.8937Y-1.6457
X4.0197Y-1.6142
X4.0827Y-1.5955
X4.5394Y-1.6422
X4.85Y-1.6
X4.8902Y-1.6333
X4.9173Y-1.5669
X4.9803Y-1.5787
X5.3494Y-1.6343
X6.2008Y-1.6378
T2
X1.9925Y-1.6379
X1.9925Y-2.2372
X2.0925Y-1.6379
X2.0925Y-2.2372
X2.1925Y-1.6379
X2.1925Y-2.2372
X2.2925Y-1.6379
X2.2925Y-2.2372
X2.3925Y-1.6379
X2.3925Y-2.2372
X2.4925Y-1.6379
X2.4925Y-2.2372
X2.5925Y-1.6379
X2.5925Y-2.2372
X2.6925Y-1.6379
X2.6925Y-2.2372
X2.7925Y-1.6379
X2.7925Y-2.2372
X2.8925Y-1.6379
X2.8925Y-2.2372
X2.9925Y-1.6379
X2.9925Y-2.2372
X3.0925Y-1.6379
X3.0925Y-2.2372
X3.295Y-1.785
X3.295Y-1.885
X3.295Y-1.985
X3.295Y-2.085
T3
X3.4164Y-1.8681
X3.4164Y-2.1752
X4.1644Y-1.8681
X4.1644Y-2.1752
X4.9164Y-1.7327
X4.9164Y-2.0398
X5.6644Y-1.8681
X5.6644Y-2.1752
X6.4124Y-1.8681
X6.4124Y-2.1752
X6.7141Y-1.6619
X6.7141Y-2.2328
X6.8125Y-2.2328
X6.9109Y-1.6619
X6.9109Y-2.2328
T4
X7.0827Y-1.8642
X7.0827Y-2.1201
T0
M30
