%TF.GenerationSoftware,KiCad,Pcbnew,(5.1.10)-1*%
%TF.CreationDate,2021-09-26T12:02:48+01:00*%
%TF.ProjectId,piccolo,70696363-6f6c-46f2-9e6b-696361645f70,rev?*%
%TF.SameCoordinates,Original*%
%TF.FileFunction,Soldermask,Top*%
%TF.FilePolarity,Negative*%
%FSLAX46Y46*%
G04 Gerber Fmt 4.6, Leading zero omitted, Abs format (unit mm)*
G04 Created by KiCad (PCBNEW (5.1.10)-1) date 2021-09-26 12:02:48*
%MOMM*%
%LPD*%
G01*
G04 APERTURE LIST*
%ADD10C,3.700000*%
%ADD11C,1.200000*%
%ADD12C,1.750000*%
%ADD13C,3.000000*%
%ADD14C,1.900000*%
%ADD15C,4.100000*%
%ADD16R,1.600000X1.600000*%
%ADD17C,1.600000*%
%ADD18R,2.000000X2.000000*%
%ADD19C,2.000000*%
G04 APERTURE END LIST*
D10*
%TO.C,REF\u002A\u002A*%
X125412500Y-56356250D03*
%TD*%
%TO.C,REF\u002A\u002A*%
X87312500Y-42068750D03*
%TD*%
%TO.C,REF\u002A\u002A*%
X163512500Y-42068750D03*
%TD*%
D11*
%TO.C,Reset*%
X181042000Y-49443000D03*
D12*
X179832000Y-51943000D03*
X179832000Y-46943000D03*
%TD*%
D13*
%TO.C,MX4*%
X156527500Y-44132500D03*
X150177500Y-46672500D03*
D14*
X148907500Y-49212500D03*
X159067500Y-49212500D03*
D15*
X153987500Y-49212500D03*
%TD*%
D16*
%TO.C,D5*%
X162306000Y-54703000D03*
D17*
X162306000Y-46903000D03*
%TD*%
D16*
%TO.C,D4*%
X150087500Y-57943750D03*
D17*
X157887500Y-57943750D03*
%TD*%
D16*
%TO.C,D3*%
X131037500Y-57943750D03*
D17*
X138837500Y-57943750D03*
%TD*%
D16*
%TO.C,D2*%
X111987500Y-57943750D03*
D17*
X119787500Y-57943750D03*
%TD*%
D16*
%TO.C,D1*%
X92937500Y-57943750D03*
D17*
X100737500Y-57943750D03*
%TD*%
D18*
%TO.C,ENC1*%
X170537500Y-56712500D03*
D19*
X173037500Y-56712500D03*
X175537500Y-56712500D03*
X170537500Y-42212500D03*
X175537500Y-42212500D03*
%TD*%
D13*
%TO.C,MX5*%
X175577500Y-44132500D03*
X169227500Y-46672500D03*
D14*
X167957500Y-49212500D03*
X178117500Y-49212500D03*
D15*
X173037500Y-49212500D03*
%TD*%
D13*
%TO.C,MX3*%
X137477500Y-44132500D03*
X131127500Y-46672500D03*
D14*
X129857500Y-49212500D03*
X140017500Y-49212500D03*
D15*
X134937500Y-49212500D03*
%TD*%
D13*
%TO.C,MX2*%
X118427500Y-44132500D03*
X112077500Y-46672500D03*
D14*
X110807500Y-49212500D03*
X120967500Y-49212500D03*
D15*
X115887500Y-49212500D03*
%TD*%
D13*
%TO.C,MX1*%
X99377500Y-44132500D03*
X93027500Y-46672500D03*
D14*
X91757500Y-49212500D03*
X101917500Y-49212500D03*
D15*
X96837500Y-49212500D03*
%TD*%
M02*
