%TF.GenerationSoftware,KiCad,Pcbnew,(5.1.10)-1*%
%TF.CreationDate,2021-09-26T12:02:48+01:00*%
%TF.ProjectId,piccolo,70696363-6f6c-46f2-9e6b-696361645f70,rev?*%
%TF.SameCoordinates,Original*%
%TF.FileFunction,Soldermask,Bot*%
%TF.FilePolarity,Negative*%
%FSLAX46Y46*%
G04 Gerber Fmt 4.6, Leading zero omitted, Abs format (unit mm)*
G04 Created by KiCad (PCBNEW (5.1.10)-1) date 2021-09-26 12:02:48*
%MOMM*%
%LPD*%
G01*
G04 APERTURE LIST*
%ADD10C,3.700000*%
%ADD11C,1.524000*%
%ADD12R,0.600000X1.200000*%
%ADD13C,1.200000*%
%ADD14C,1.750000*%
%ADD15C,3.000000*%
%ADD16R,2.550000X2.500000*%
%ADD17C,1.900000*%
%ADD18C,4.100000*%
%ADD19R,1.600000X1.600000*%
%ADD20C,1.600000*%
%ADD21R,1.200000X1.600000*%
%ADD22R,1.600000X1.200000*%
%ADD23R,2.000000X2.000000*%
%ADD24C,2.000000*%
%ADD25C,1.397000*%
G04 APERTURE END LIST*
D10*
%TO.C,REF\u002A\u002A*%
X125412500Y-56356250D03*
%TD*%
%TO.C,REF\u002A\u002A*%
X87312500Y-42068750D03*
%TD*%
%TO.C,REF\u002A\u002A*%
X163512500Y-42068750D03*
%TD*%
D11*
%TO.C,U1*%
X50609500Y-56821100D03*
X53149500Y-56821100D03*
X55689500Y-56821100D03*
X58229500Y-56821100D03*
X60769500Y-56821100D03*
X63309500Y-56821100D03*
X65849500Y-56821100D03*
X68389500Y-56821100D03*
X70929500Y-56821100D03*
X73469500Y-56821100D03*
X76009500Y-56821100D03*
X78549500Y-56821100D03*
X78549500Y-41601100D03*
X76009500Y-41601100D03*
X73469500Y-41601100D03*
X70929500Y-41601100D03*
X68389500Y-41601100D03*
X65849500Y-41601100D03*
X63309500Y-41601100D03*
X60769500Y-41601100D03*
X58229500Y-41601100D03*
X55689500Y-41601100D03*
X53149500Y-41601100D03*
X50609500Y-41601100D03*
%TD*%
D12*
%TO.C,GND*%
X80626000Y-45339000D03*
X81426000Y-45339000D03*
%TD*%
%TO.C,VCC*%
X80626000Y-47879000D03*
X81426000Y-47879000D03*
%TD*%
%TO.C,SCL*%
X80626000Y-50419000D03*
X81426000Y-50419000D03*
%TD*%
%TO.C,SDA*%
X80607000Y-52959000D03*
X81407000Y-52959000D03*
%TD*%
D13*
%TO.C,Reset*%
X181042000Y-49443000D03*
D14*
X179832000Y-51943000D03*
X179832000Y-46943000D03*
%TD*%
D15*
%TO.C,MX4*%
X156527500Y-44132500D03*
X150177500Y-46672500D03*
D16*
X159829500Y-44132500D03*
D17*
X148907500Y-49212500D03*
X159067500Y-49212500D03*
D18*
X153987500Y-49212500D03*
D16*
X146902500Y-46672500D03*
%TD*%
D19*
%TO.C,D5*%
X162306000Y-54703000D03*
D20*
X162306000Y-46903000D03*
D21*
X162306000Y-52203000D03*
X162306000Y-49403000D03*
%TD*%
D19*
%TO.C,D4*%
X150087500Y-57943750D03*
D20*
X157887500Y-57943750D03*
D22*
X152587500Y-57943750D03*
X155387500Y-57943750D03*
%TD*%
D19*
%TO.C,D3*%
X131037500Y-57943750D03*
D20*
X138837500Y-57943750D03*
D22*
X133537500Y-57943750D03*
X136337500Y-57943750D03*
%TD*%
D19*
%TO.C,D2*%
X111987500Y-57943750D03*
D20*
X119787500Y-57943750D03*
D22*
X114487500Y-57943750D03*
X117287500Y-57943750D03*
%TD*%
D19*
%TO.C,D1*%
X92937500Y-57943750D03*
D20*
X100737500Y-57943750D03*
D22*
X95437500Y-57943750D03*
X98237500Y-57943750D03*
%TD*%
D23*
%TO.C,ENC1*%
X170537500Y-56712500D03*
D24*
X173037500Y-56712500D03*
X175537500Y-56712500D03*
X170537500Y-42212500D03*
X175537500Y-42212500D03*
%TD*%
D25*
%TO.C,OL1*%
X83693000Y-45339000D03*
X83693000Y-47879000D03*
X83693000Y-50419000D03*
X83693000Y-52959000D03*
%TD*%
D15*
%TO.C,MX5*%
X175577500Y-44132500D03*
X169227500Y-46672500D03*
D16*
X178879500Y-44132500D03*
D17*
X167957500Y-49212500D03*
X178117500Y-49212500D03*
D18*
X173037500Y-49212500D03*
D16*
X165952500Y-46672500D03*
%TD*%
D15*
%TO.C,MX3*%
X137477500Y-44132500D03*
X131127500Y-46672500D03*
D16*
X140779500Y-44132500D03*
D17*
X129857500Y-49212500D03*
X140017500Y-49212500D03*
D18*
X134937500Y-49212500D03*
D16*
X127852500Y-46672500D03*
%TD*%
D15*
%TO.C,MX2*%
X118427500Y-44132500D03*
X112077500Y-46672500D03*
D16*
X121729500Y-44132500D03*
D17*
X110807500Y-49212500D03*
X120967500Y-49212500D03*
D18*
X115887500Y-49212500D03*
D16*
X108802500Y-46672500D03*
%TD*%
D15*
%TO.C,MX1*%
X99377500Y-44132500D03*
X93027500Y-46672500D03*
D16*
X102679500Y-44132500D03*
D17*
X91757500Y-49212500D03*
X101917500Y-49212500D03*
D18*
X96837500Y-49212500D03*
D16*
X89752500Y-46672500D03*
%TD*%
M02*
