%TF.GenerationSoftware,KiCad,Pcbnew,(5.1.10)-1*%
%TF.CreationDate,2021-09-25T16:09:09+01:00*%
%TF.ProjectId,piccolo,70696363-6f6c-46f2-9e6b-696361645f70,rev?*%
%TF.SameCoordinates,Original*%
%TF.FileFunction,Legend,Top*%
%TF.FilePolarity,Positive*%
%FSLAX46Y46*%
G04 Gerber Fmt 4.6, Leading zero omitted, Abs format (unit mm)*
G04 Created by KiCad (PCBNEW (5.1.10)-1) date 2021-09-25 16:09:09*
%MOMM*%
%LPD*%
G01*
G04 APERTURE LIST*
%ADD10C,0.120000*%
%ADD11C,0.150000*%
G04 APERTURE END LIST*
D10*
%TO.C,SW2*%
X176037500Y-48260000D02*
G75*
G03*
X176037500Y-48260000I-3000000J0D01*
G01*
X167137500Y-46260000D02*
X167137500Y-42160000D01*
X178937500Y-42160000D02*
X178937500Y-46260000D01*
X178937500Y-50260000D02*
X178937500Y-54360000D01*
X167137500Y-50260000D02*
X167137500Y-54360000D01*
X167137500Y-54360000D02*
X178937500Y-54360000D01*
X169237500Y-55760000D02*
X168937500Y-56060000D01*
X168937500Y-56060000D02*
X168937500Y-55460000D01*
X168937500Y-55460000D02*
X169237500Y-55760000D01*
X167137500Y-42160000D02*
X169537500Y-42160000D01*
X171737500Y-42160000D02*
X174337500Y-42160000D01*
X176537500Y-42160000D02*
X178937500Y-42160000D01*
X172537500Y-48260000D02*
X173537500Y-48260000D01*
X173037500Y-48760000D02*
X173037500Y-47760000D01*
D11*
%TO.C,U1*%
X79687500Y-40462500D02*
X79687500Y-41322500D01*
X79687500Y-57962500D02*
X79687500Y-57112500D01*
X78837500Y-40462500D02*
X79687500Y-40462500D01*
X78787500Y-57962500D02*
X79687500Y-57962500D01*
X49487500Y-40462500D02*
X49487500Y-41262500D01*
X49487500Y-57962500D02*
X49487500Y-57112500D01*
X49487500Y-40462500D02*
X50337500Y-40462500D01*
X49487500Y-57962500D02*
X50337500Y-57962500D01*
X43887500Y-52962500D02*
X45187500Y-52962500D01*
X45187500Y-52962500D02*
X45187500Y-45462500D01*
X45187500Y-45462500D02*
X43887500Y-45462500D01*
X43887500Y-45462500D02*
X43887500Y-52962500D01*
X44237500Y-49712500D02*
X44237500Y-48712500D01*
X44237500Y-48712500D02*
X44887500Y-49212500D01*
X44887500Y-49212500D02*
X44237500Y-49712500D01*
X44387500Y-49562500D02*
X44387500Y-48862500D01*
X44537500Y-49462500D02*
X44537500Y-48962500D01*
X44687500Y-49362500D02*
X44687500Y-49062500D01*
D10*
X46476785Y-51708928D02*
X45726785Y-51708928D01*
X46262500Y-51458928D01*
X45726785Y-51208928D01*
X46476785Y-51208928D01*
X46476785Y-50851785D02*
X45976785Y-50851785D01*
X45726785Y-50851785D02*
X45762500Y-50887500D01*
X45798214Y-50851785D01*
X45762500Y-50816071D01*
X45726785Y-50851785D01*
X45798214Y-50851785D01*
X46441071Y-50173214D02*
X46476785Y-50244642D01*
X46476785Y-50387500D01*
X46441071Y-50458928D01*
X46405357Y-50494642D01*
X46333928Y-50530357D01*
X46119642Y-50530357D01*
X46048214Y-50494642D01*
X46012500Y-50458928D01*
X45976785Y-50387500D01*
X45976785Y-50244642D01*
X46012500Y-50173214D01*
X46476785Y-49851785D02*
X45976785Y-49851785D01*
X46119642Y-49851785D02*
X46048214Y-49816071D01*
X46012500Y-49780357D01*
X45976785Y-49708928D01*
X45976785Y-49637500D01*
X46476785Y-49280357D02*
X46441071Y-49351785D01*
X46405357Y-49387500D01*
X46333928Y-49423214D01*
X46119642Y-49423214D01*
X46048214Y-49387500D01*
X46012500Y-49351785D01*
X45976785Y-49280357D01*
X45976785Y-49173214D01*
X46012500Y-49101785D01*
X46048214Y-49066071D01*
X46119642Y-49030357D01*
X46333928Y-49030357D01*
X46405357Y-49066071D01*
X46441071Y-49101785D01*
X46476785Y-49173214D01*
X46476785Y-49280357D01*
X45726785Y-48708928D02*
X46333928Y-48708928D01*
X46405357Y-48673214D01*
X46441071Y-48637500D01*
X46476785Y-48566071D01*
X46476785Y-48423214D01*
X46441071Y-48351785D01*
X46405357Y-48316071D01*
X46333928Y-48280357D01*
X45726785Y-48280357D01*
X46441071Y-47958928D02*
X46476785Y-47851785D01*
X46476785Y-47673214D01*
X46441071Y-47601785D01*
X46405357Y-47566071D01*
X46333928Y-47530357D01*
X46262500Y-47530357D01*
X46191071Y-47566071D01*
X46155357Y-47601785D01*
X46119642Y-47673214D01*
X46083928Y-47816071D01*
X46048214Y-47887500D01*
X46012500Y-47923214D01*
X45941071Y-47958928D01*
X45869642Y-47958928D01*
X45798214Y-47923214D01*
X45762500Y-47887500D01*
X45726785Y-47816071D01*
X45726785Y-47637500D01*
X45762500Y-47530357D01*
X46083928Y-46958928D02*
X46119642Y-46851785D01*
X46155357Y-46816071D01*
X46226785Y-46780357D01*
X46333928Y-46780357D01*
X46405357Y-46816071D01*
X46441071Y-46851785D01*
X46476785Y-46923214D01*
X46476785Y-47208928D01*
X45726785Y-47208928D01*
X45726785Y-46958928D01*
X45762500Y-46887500D01*
X45798214Y-46851785D01*
X45869642Y-46816071D01*
X45941071Y-46816071D01*
X46012500Y-46851785D01*
X46048214Y-46887500D01*
X46083928Y-46958928D01*
X46083928Y-47208928D01*
X46476785Y-51708928D02*
X45726785Y-51708928D01*
X46262500Y-51458928D01*
X45726785Y-51208928D01*
X46476785Y-51208928D01*
X46476785Y-50851785D02*
X45976785Y-50851785D01*
X45726785Y-50851785D02*
X45762500Y-50887500D01*
X45798214Y-50851785D01*
X45762500Y-50816071D01*
X45726785Y-50851785D01*
X45798214Y-50851785D01*
X46441071Y-50173214D02*
X46476785Y-50244642D01*
X46476785Y-50387500D01*
X46441071Y-50458928D01*
X46405357Y-50494642D01*
X46333928Y-50530357D01*
X46119642Y-50530357D01*
X46048214Y-50494642D01*
X46012500Y-50458928D01*
X45976785Y-50387500D01*
X45976785Y-50244642D01*
X46012500Y-50173214D01*
X46476785Y-49851785D02*
X45976785Y-49851785D01*
X46119642Y-49851785D02*
X46048214Y-49816071D01*
X46012500Y-49780357D01*
X45976785Y-49708928D01*
X45976785Y-49637500D01*
X46476785Y-49280357D02*
X46441071Y-49351785D01*
X46405357Y-49387500D01*
X46333928Y-49423214D01*
X46119642Y-49423214D01*
X46048214Y-49387500D01*
X46012500Y-49351785D01*
X45976785Y-49280357D01*
X45976785Y-49173214D01*
X46012500Y-49101785D01*
X46048214Y-49066071D01*
X46119642Y-49030357D01*
X46333928Y-49030357D01*
X46405357Y-49066071D01*
X46441071Y-49101785D01*
X46476785Y-49173214D01*
X46476785Y-49280357D01*
X45726785Y-48708928D02*
X46333928Y-48708928D01*
X46405357Y-48673214D01*
X46441071Y-48637500D01*
X46476785Y-48566071D01*
X46476785Y-48423214D01*
X46441071Y-48351785D01*
X46405357Y-48316071D01*
X46333928Y-48280357D01*
X45726785Y-48280357D01*
X46441071Y-47958928D02*
X46476785Y-47851785D01*
X46476785Y-47673214D01*
X46441071Y-47601785D01*
X46405357Y-47566071D01*
X46333928Y-47530357D01*
X46262500Y-47530357D01*
X46191071Y-47566071D01*
X46155357Y-47601785D01*
X46119642Y-47673214D01*
X46083928Y-47816071D01*
X46048214Y-47887500D01*
X46012500Y-47923214D01*
X45941071Y-47958928D01*
X45869642Y-47958928D01*
X45798214Y-47923214D01*
X45762500Y-47887500D01*
X45726785Y-47816071D01*
X45726785Y-47637500D01*
X45762500Y-47530357D01*
X46083928Y-46958928D02*
X46119642Y-46851785D01*
X46155357Y-46816071D01*
X46226785Y-46780357D01*
X46333928Y-46780357D01*
X46405357Y-46816071D01*
X46441071Y-46851785D01*
X46476785Y-46923214D01*
X46476785Y-47208928D01*
X45726785Y-47208928D01*
X45726785Y-46958928D01*
X45762500Y-46887500D01*
X45798214Y-46851785D01*
X45869642Y-46816071D01*
X45941071Y-46816071D01*
X46012500Y-46851785D01*
X46048214Y-46887500D01*
X46083928Y-46958928D01*
X46083928Y-47208928D01*
%TD*%
M02*
