%TF.GenerationSoftware,KiCad,Pcbnew,(5.99.0-12610-g07e01e6297)*%
%TF.CreationDate,2021-11-07T21:10:22+00:00*%
%TF.ProjectId,piccolo,70696363-6f6c-46f2-9e6b-696361645f70,rev?*%
%TF.SameCoordinates,Original*%
%TF.FileFunction,Soldermask,Bot*%
%TF.FilePolarity,Negative*%
%FSLAX46Y46*%
G04 Gerber Fmt 4.6, Leading zero omitted, Abs format (unit mm)*
G04 Created by KiCad (PCBNEW (5.99.0-12610-g07e01e6297)) date 2021-11-07 21:10:22*
%MOMM*%
%LPD*%
G01*
G04 APERTURE LIST*
%ADD10R,1.200000X1.600000*%
%ADD11R,1.600000X1.600000*%
%ADD12C,1.600000*%
%ADD13C,1.750000*%
%ADD14C,3.987800*%
%ADD15C,3.000000*%
%ADD16R,2.550000X2.500000*%
%ADD17C,1.397000*%
%ADD18R,2.000000X2.000000*%
%ADD19C,2.000000*%
%ADD20C,3.700000*%
%ADD21C,1.524000*%
G04 APERTURE END LIST*
D10*
%TO.C,D1*%
X86776000Y-52750000D03*
D11*
X86776000Y-55250000D03*
D12*
X86776000Y-47450000D03*
D10*
X86776000Y-49950000D03*
%TD*%
%TO.C,D2*%
X105776000Y-52750000D03*
D11*
X105776000Y-55250000D03*
D12*
X105776000Y-47450000D03*
D10*
X105776000Y-49950000D03*
%TD*%
D11*
%TO.C,D3*%
X124876000Y-51811000D03*
D10*
X124876000Y-49311000D03*
D12*
X124876000Y-44011000D03*
D10*
X124876000Y-46511000D03*
%TD*%
D11*
%TO.C,D4*%
X143876000Y-55250000D03*
D10*
X143876000Y-52750000D03*
X143876000Y-49950000D03*
D12*
X143876000Y-47450000D03*
%TD*%
D10*
%TO.C,D5*%
X162876000Y-52750000D03*
D11*
X162876000Y-55250000D03*
D12*
X162876000Y-47450000D03*
D10*
X162876000Y-49950000D03*
%TD*%
D13*
%TO.C,MX1*%
X101917500Y-49212500D03*
X91757500Y-49212500D03*
D14*
X96837500Y-49212500D03*
D15*
X93027500Y-46672500D03*
X99377500Y-44132500D03*
D16*
X89752500Y-46672500D03*
X102679500Y-44132500D03*
%TD*%
D13*
%TO.C,MX2*%
X120967500Y-49212500D03*
D14*
X115887500Y-49212500D03*
D15*
X112077500Y-46672500D03*
D13*
X110807500Y-49212500D03*
D15*
X118427500Y-44132500D03*
D16*
X108802500Y-46672500D03*
X121729500Y-44132500D03*
%TD*%
D14*
%TO.C,MX3*%
X134937500Y-49212500D03*
D13*
X140017500Y-49212500D03*
D15*
X131127500Y-46672500D03*
D13*
X129857500Y-49212500D03*
D15*
X137477500Y-44132500D03*
D16*
X127852500Y-46672500D03*
X140779500Y-44132500D03*
%TD*%
D13*
%TO.C,MX4*%
X159067500Y-49212500D03*
D15*
X156527500Y-44132500D03*
D13*
X148907500Y-49212500D03*
D14*
X153987500Y-49212500D03*
D15*
X150177500Y-46672500D03*
D16*
X146902500Y-46672500D03*
X159829500Y-44132500D03*
%TD*%
D17*
%TO.C,OL1*%
X83693000Y-45339000D03*
X83693000Y-47879000D03*
X83693000Y-50419000D03*
X83693000Y-52959000D03*
%TD*%
D18*
%TO.C,ENC1*%
X170537500Y-56712500D03*
D19*
X175537500Y-56712500D03*
X173037500Y-56712500D03*
X175537500Y-42212500D03*
X170537500Y-42212500D03*
%TD*%
D15*
%TO.C,MX5*%
X175577500Y-44132500D03*
D14*
X173037500Y-49212500D03*
D15*
X169227500Y-46672500D03*
D13*
X178117500Y-49212500D03*
X167957500Y-49212500D03*
D16*
X165952500Y-46672500D03*
X178879500Y-44132500D03*
%TD*%
D20*
%TO.C,H1*%
X87312500Y-42068750D03*
%TD*%
%TO.C,H2*%
X125412500Y-56356250D03*
%TD*%
%TO.C,H3*%
X163512500Y-42068750D03*
%TD*%
D21*
%TO.C,U1*%
X50609500Y-56823900D03*
X53149500Y-56823900D03*
X55689500Y-56823900D03*
X58229500Y-56823900D03*
X60769500Y-56823900D03*
X63309500Y-56823900D03*
X65849500Y-56823900D03*
X68389500Y-56823900D03*
X70929500Y-56823900D03*
X73469500Y-56823900D03*
X76009500Y-56823900D03*
X78549500Y-56823900D03*
X78549500Y-41603900D03*
X76009500Y-41603900D03*
X73469500Y-41603900D03*
X70929500Y-41603900D03*
X68389500Y-41603900D03*
X65849500Y-41603900D03*
X63309500Y-41603900D03*
X60769500Y-41603900D03*
X58229500Y-41603900D03*
X55689500Y-41603900D03*
X53149500Y-41603900D03*
X50609500Y-41603900D03*
%TD*%
D19*
%TO.C,RESET1*%
X179900000Y-53850000D03*
X179900000Y-47350000D03*
%TD*%
M02*
