%TF.GenerationSoftware,KiCad,Pcbnew,(5.99.0-12610-g07e01e6297)*%
%TF.CreationDate,2021-11-07T21:10:22+00:00*%
%TF.ProjectId,piccolo,70696363-6f6c-46f2-9e6b-696361645f70,rev?*%
%TF.SameCoordinates,Original*%
%TF.FileFunction,Legend,Bot*%
%TF.FilePolarity,Positive*%
%FSLAX46Y46*%
G04 Gerber Fmt 4.6, Leading zero omitted, Abs format (unit mm)*
G04 Created by KiCad (PCBNEW (5.99.0-12610-g07e01e6297)) date 2021-11-07 21:10:22*
%MOMM*%
%LPD*%
G01*
G04 APERTURE LIST*
%ADD10C,0.150000*%
%ADD11C,0.125000*%
%ADD12C,0.120000*%
G04 APERTURE END LIST*
D10*
%TO.C,D1*%
X85737904Y-50734123D02*
X84937904Y-50734123D01*
X84937904Y-50924600D01*
X84976000Y-51038885D01*
X85052190Y-51115076D01*
X85128380Y-51153171D01*
X85280761Y-51191266D01*
X85395047Y-51191266D01*
X85547428Y-51153171D01*
X85623619Y-51115076D01*
X85699809Y-51038885D01*
X85737904Y-50924600D01*
X85737904Y-50734123D01*
X85737904Y-51953171D02*
X85737904Y-51496028D01*
X85737904Y-51724600D02*
X84937904Y-51724600D01*
X85052190Y-51648409D01*
X85128380Y-51572219D01*
X85166476Y-51496028D01*
%TO.C,D2*%
X104737904Y-50734123D02*
X103937904Y-50734123D01*
X103937904Y-50924600D01*
X103976000Y-51038885D01*
X104052190Y-51115076D01*
X104128380Y-51153171D01*
X104280761Y-51191266D01*
X104395047Y-51191266D01*
X104547428Y-51153171D01*
X104623619Y-51115076D01*
X104699809Y-51038885D01*
X104737904Y-50924600D01*
X104737904Y-50734123D01*
X104014095Y-51496028D02*
X103976000Y-51534123D01*
X103937904Y-51610314D01*
X103937904Y-51800790D01*
X103976000Y-51876980D01*
X104014095Y-51915076D01*
X104090285Y-51953171D01*
X104166476Y-51953171D01*
X104280761Y-51915076D01*
X104737904Y-51457933D01*
X104737904Y-51953171D01*
%TO.C,D3*%
X123837904Y-47295123D02*
X123037904Y-47295123D01*
X123037904Y-47485600D01*
X123076000Y-47599885D01*
X123152190Y-47676076D01*
X123228380Y-47714171D01*
X123380761Y-47752266D01*
X123495047Y-47752266D01*
X123647428Y-47714171D01*
X123723619Y-47676076D01*
X123799809Y-47599885D01*
X123837904Y-47485600D01*
X123837904Y-47295123D01*
X123037904Y-48018933D02*
X123037904Y-48514171D01*
X123342666Y-48247504D01*
X123342666Y-48361790D01*
X123380761Y-48437980D01*
X123418857Y-48476076D01*
X123495047Y-48514171D01*
X123685523Y-48514171D01*
X123761714Y-48476076D01*
X123799809Y-48437980D01*
X123837904Y-48361790D01*
X123837904Y-48133219D01*
X123799809Y-48057028D01*
X123761714Y-48018933D01*
%TO.C,D4*%
X142837904Y-50734123D02*
X142037904Y-50734123D01*
X142037904Y-50924600D01*
X142076000Y-51038885D01*
X142152190Y-51115076D01*
X142228380Y-51153171D01*
X142380761Y-51191266D01*
X142495047Y-51191266D01*
X142647428Y-51153171D01*
X142723619Y-51115076D01*
X142799809Y-51038885D01*
X142837904Y-50924600D01*
X142837904Y-50734123D01*
X142304571Y-51876980D02*
X142837904Y-51876980D01*
X141999809Y-51686504D02*
X142571238Y-51496028D01*
X142571238Y-51991266D01*
%TO.C,D5*%
X161837904Y-50734123D02*
X161037904Y-50734123D01*
X161037904Y-50924600D01*
X161076000Y-51038885D01*
X161152190Y-51115076D01*
X161228380Y-51153171D01*
X161380761Y-51191266D01*
X161495047Y-51191266D01*
X161647428Y-51153171D01*
X161723619Y-51115076D01*
X161799809Y-51038885D01*
X161837904Y-50924600D01*
X161837904Y-50734123D01*
X161037904Y-51915076D02*
X161037904Y-51534123D01*
X161418857Y-51496028D01*
X161380761Y-51534123D01*
X161342666Y-51610314D01*
X161342666Y-51800790D01*
X161380761Y-51876980D01*
X161418857Y-51915076D01*
X161495047Y-51953171D01*
X161685523Y-51953171D01*
X161761714Y-51915076D01*
X161799809Y-51876980D01*
X161837904Y-51800790D01*
X161837904Y-51610314D01*
X161799809Y-51534123D01*
X161761714Y-51496028D01*
%TO.C,MX1*%
X98123214Y-52712880D02*
X98123214Y-51712880D01*
X97789880Y-52427166D01*
X97456547Y-51712880D01*
X97456547Y-52712880D01*
X97075595Y-51712880D02*
X96408928Y-52712880D01*
X96408928Y-51712880D02*
X97075595Y-52712880D01*
X95504166Y-52712880D02*
X96075595Y-52712880D01*
X95789880Y-52712880D02*
X95789880Y-51712880D01*
X95885119Y-51855738D01*
X95980357Y-51950976D01*
X96075595Y-51998595D01*
%TO.C,MX2*%
X117173214Y-52712880D02*
X117173214Y-51712880D01*
X116839880Y-52427166D01*
X116506547Y-51712880D01*
X116506547Y-52712880D01*
X116125595Y-51712880D02*
X115458928Y-52712880D01*
X115458928Y-51712880D02*
X116125595Y-52712880D01*
X115125595Y-51808119D02*
X115077976Y-51760500D01*
X114982738Y-51712880D01*
X114744642Y-51712880D01*
X114649404Y-51760500D01*
X114601785Y-51808119D01*
X114554166Y-51903357D01*
X114554166Y-51998595D01*
X114601785Y-52141452D01*
X115173214Y-52712880D01*
X114554166Y-52712880D01*
%TO.C,MX3*%
X136223214Y-52712880D02*
X136223214Y-51712880D01*
X135889880Y-52427166D01*
X135556547Y-51712880D01*
X135556547Y-52712880D01*
X135175595Y-51712880D02*
X134508928Y-52712880D01*
X134508928Y-51712880D02*
X135175595Y-52712880D01*
X134223214Y-51712880D02*
X133604166Y-51712880D01*
X133937500Y-52093833D01*
X133794642Y-52093833D01*
X133699404Y-52141452D01*
X133651785Y-52189071D01*
X133604166Y-52284309D01*
X133604166Y-52522404D01*
X133651785Y-52617642D01*
X133699404Y-52665261D01*
X133794642Y-52712880D01*
X134080357Y-52712880D01*
X134175595Y-52665261D01*
X134223214Y-52617642D01*
%TO.C,MX4*%
X155273214Y-52712880D02*
X155273214Y-51712880D01*
X154939880Y-52427166D01*
X154606547Y-51712880D01*
X154606547Y-52712880D01*
X154225595Y-51712880D02*
X153558928Y-52712880D01*
X153558928Y-51712880D02*
X154225595Y-52712880D01*
X152749404Y-52046214D02*
X152749404Y-52712880D01*
X152987500Y-51665261D02*
X153225595Y-52379547D01*
X152606547Y-52379547D01*
%TO.C,MX5*%
X174323214Y-52712880D02*
X174323214Y-51712880D01*
X173989880Y-52427166D01*
X173656547Y-51712880D01*
X173656547Y-52712880D01*
X173275595Y-51712880D02*
X172608928Y-52712880D01*
X172608928Y-51712880D02*
X173275595Y-52712880D01*
X171751785Y-51712880D02*
X172227976Y-51712880D01*
X172275595Y-52189071D01*
X172227976Y-52141452D01*
X172132738Y-52093833D01*
X171894642Y-52093833D01*
X171799404Y-52141452D01*
X171751785Y-52189071D01*
X171704166Y-52284309D01*
X171704166Y-52522404D01*
X171751785Y-52617642D01*
X171799404Y-52665261D01*
X171894642Y-52712880D01*
X172132738Y-52712880D01*
X172227976Y-52665261D01*
X172275595Y-52617642D01*
%TO.C,U1*%
X60849404Y-48664880D02*
X60849404Y-49474404D01*
X60801785Y-49569642D01*
X60754166Y-49617261D01*
X60658928Y-49664880D01*
X60468452Y-49664880D01*
X60373214Y-49617261D01*
X60325595Y-49569642D01*
X60277976Y-49474404D01*
X60277976Y-48664880D01*
X59277976Y-49664880D02*
X59849404Y-49664880D01*
X59563690Y-49664880D02*
X59563690Y-48664880D01*
X59658928Y-48807738D01*
X59754166Y-48902976D01*
X59849404Y-48950595D01*
X68161309Y-49564880D02*
X68161309Y-48564880D01*
X67780357Y-48564880D01*
X67685119Y-48612500D01*
X67637500Y-48660119D01*
X67589880Y-48755357D01*
X67589880Y-48898214D01*
X67637500Y-48993452D01*
X67685119Y-49041071D01*
X67780357Y-49088690D01*
X68161309Y-49088690D01*
X67161309Y-49564880D02*
X67161309Y-48898214D01*
X67161309Y-49088690D02*
X67113690Y-48993452D01*
X67066071Y-48945833D01*
X66970833Y-48898214D01*
X66875595Y-48898214D01*
X66399404Y-49564880D02*
X66494642Y-49517261D01*
X66542261Y-49469642D01*
X66589880Y-49374404D01*
X66589880Y-49088690D01*
X66542261Y-48993452D01*
X66494642Y-48945833D01*
X66399404Y-48898214D01*
X66256547Y-48898214D01*
X66161309Y-48945833D01*
X66113690Y-48993452D01*
X66066071Y-49088690D01*
X66066071Y-49374404D01*
X66113690Y-49469642D01*
X66161309Y-49517261D01*
X66256547Y-49564880D01*
X66399404Y-49564880D01*
X65637500Y-49564880D02*
X65637500Y-48564880D01*
X65304166Y-49279166D01*
X64970833Y-48564880D01*
X64970833Y-49564880D01*
X64494642Y-49564880D02*
X64494642Y-48898214D01*
X64494642Y-48564880D02*
X64542261Y-48612500D01*
X64494642Y-48660119D01*
X64447023Y-48612500D01*
X64494642Y-48564880D01*
X64494642Y-48660119D01*
X63589880Y-49517261D02*
X63685119Y-49564880D01*
X63875595Y-49564880D01*
X63970833Y-49517261D01*
X64018452Y-49469642D01*
X64066071Y-49374404D01*
X64066071Y-49088690D01*
X64018452Y-48993452D01*
X63970833Y-48945833D01*
X63875595Y-48898214D01*
X63685119Y-48898214D01*
X63589880Y-48945833D01*
X63161309Y-49564880D02*
X63161309Y-48898214D01*
X63161309Y-49088690D02*
X63113690Y-48993452D01*
X63066071Y-48945833D01*
X62970833Y-48898214D01*
X62875595Y-48898214D01*
X62399404Y-49564880D02*
X62494642Y-49517261D01*
X62542261Y-49469642D01*
X62589880Y-49374404D01*
X62589880Y-49088690D01*
X62542261Y-48993452D01*
X62494642Y-48945833D01*
X62399404Y-48898214D01*
X62256547Y-48898214D01*
X62161309Y-48945833D01*
X62113690Y-48993452D01*
X62066071Y-49088690D01*
X62066071Y-49374404D01*
X62113690Y-49469642D01*
X62161309Y-49517261D01*
X62256547Y-49564880D01*
X62399404Y-49564880D01*
D11*
X73326785Y-43529344D02*
X73326785Y-43146487D01*
X73326785Y-43337916D02*
X72576785Y-43337916D01*
X72683928Y-43274106D01*
X72755357Y-43210297D01*
X72791071Y-43146487D01*
X72826785Y-44103630D02*
X73326785Y-44103630D01*
X72541071Y-43944106D02*
X73076785Y-43784583D01*
X73076785Y-44199344D01*
X72541071Y-44933154D02*
X73505357Y-44358868D01*
X54072785Y-53981845D02*
X53715642Y-53758512D01*
X54072785Y-53598988D02*
X53322785Y-53598988D01*
X53322785Y-53854226D01*
X53358500Y-53918036D01*
X53394214Y-53949941D01*
X53465642Y-53981845D01*
X53572785Y-53981845D01*
X53644214Y-53949941D01*
X53679928Y-53918036D01*
X53715642Y-53854226D01*
X53715642Y-53598988D01*
X53322785Y-54205179D02*
X54072785Y-54651845D01*
X53322785Y-54651845D02*
X54072785Y-54205179D01*
X54072785Y-55258036D02*
X54072785Y-54875179D01*
X54072785Y-55066607D02*
X53322785Y-55066607D01*
X53429928Y-55002798D01*
X53501357Y-54938988D01*
X53537071Y-54875179D01*
X61321928Y-43401726D02*
X61321928Y-43178392D01*
X61714785Y-43178392D02*
X60964785Y-43178392D01*
X60964785Y-43497440D01*
X61214785Y-44039821D02*
X61714785Y-44039821D01*
X60929071Y-43880297D02*
X61464785Y-43720773D01*
X61464785Y-44135535D01*
X73642785Y-54843274D02*
X73642785Y-55289940D01*
X74392785Y-55002798D01*
X68562785Y-55226131D02*
X68562785Y-54907083D01*
X68919928Y-54875179D01*
X68884214Y-54907083D01*
X68848500Y-54970893D01*
X68848500Y-55130417D01*
X68884214Y-55194226D01*
X68919928Y-55226131D01*
X68991357Y-55258036D01*
X69169928Y-55258036D01*
X69241357Y-55226131D01*
X69277071Y-55194226D01*
X69312785Y-55130417D01*
X69312785Y-54970893D01*
X69277071Y-54907083D01*
X69241357Y-54875179D01*
X78406785Y-43529344D02*
X78406785Y-43146487D01*
X78406785Y-43337916D02*
X77656785Y-43337916D01*
X77763928Y-43274106D01*
X77835357Y-43210297D01*
X77871071Y-43146487D01*
X77656785Y-43944106D02*
X77656785Y-44007916D01*
X77692500Y-44071725D01*
X77728214Y-44103630D01*
X77799642Y-44135535D01*
X77942500Y-44167440D01*
X78121071Y-44167440D01*
X78263928Y-44135535D01*
X78335357Y-44103630D01*
X78371071Y-44071725D01*
X78406785Y-44007916D01*
X78406785Y-43944106D01*
X78371071Y-43880297D01*
X78335357Y-43848392D01*
X78263928Y-43816487D01*
X78121071Y-43784583D01*
X77942500Y-43784583D01*
X77799642Y-43816487D01*
X77728214Y-43848392D01*
X77692500Y-43880297D01*
X77656785Y-43944106D01*
X77621071Y-44933154D02*
X78585357Y-44358868D01*
X52774500Y-43529345D02*
X52738785Y-43465535D01*
X52738785Y-43369821D01*
X52774500Y-43274107D01*
X52845928Y-43210297D01*
X52917357Y-43178393D01*
X53060214Y-43146488D01*
X53167357Y-43146488D01*
X53310214Y-43178393D01*
X53381642Y-43210297D01*
X53453071Y-43274107D01*
X53488785Y-43369821D01*
X53488785Y-43433631D01*
X53453071Y-43529345D01*
X53417357Y-43561250D01*
X53167357Y-43561250D01*
X53167357Y-43433631D01*
X53488785Y-43848393D02*
X52738785Y-43848393D01*
X53488785Y-44231250D01*
X52738785Y-44231250D01*
X53488785Y-44550297D02*
X52738785Y-44550297D01*
X52738785Y-44709821D01*
X52774500Y-44805535D01*
X52845928Y-44869345D01*
X52917357Y-44901250D01*
X53060214Y-44933154D01*
X53167357Y-44933154D01*
X53310214Y-44901250D01*
X53381642Y-44869345D01*
X53453071Y-44805535D01*
X53488785Y-44709821D01*
X53488785Y-44550297D01*
X68032500Y-43146488D02*
X68032500Y-43465535D01*
X68246785Y-43082678D02*
X67496785Y-43306012D01*
X68246785Y-43529345D01*
X67496785Y-43880297D02*
X67496785Y-43944107D01*
X67532500Y-44007916D01*
X67568214Y-44039821D01*
X67639642Y-44071726D01*
X67782500Y-44103631D01*
X67961071Y-44103631D01*
X68103928Y-44071726D01*
X68175357Y-44039821D01*
X68211071Y-44007916D01*
X68246785Y-43944107D01*
X68246785Y-43880297D01*
X68211071Y-43816488D01*
X68175357Y-43784583D01*
X68103928Y-43752678D01*
X67961071Y-43720774D01*
X67782500Y-43720774D01*
X67639642Y-43752678D01*
X67568214Y-43784583D01*
X67532500Y-43816488D01*
X67496785Y-43880297D01*
X67461071Y-44869345D02*
X68425357Y-44295059D01*
X77991928Y-53758512D02*
X78027642Y-53854226D01*
X78063357Y-53886131D01*
X78134785Y-53918035D01*
X78241928Y-53918035D01*
X78313357Y-53886131D01*
X78349071Y-53854226D01*
X78384785Y-53790416D01*
X78384785Y-53535178D01*
X77634785Y-53535178D01*
X77634785Y-53758512D01*
X77670500Y-53822321D01*
X77706214Y-53854226D01*
X77777642Y-53886131D01*
X77849071Y-53886131D01*
X77920500Y-53854226D01*
X77956214Y-53822321D01*
X77991928Y-53758512D01*
X77991928Y-53535178D01*
X77634785Y-54524226D02*
X77634785Y-54205178D01*
X77991928Y-54173274D01*
X77956214Y-54205178D01*
X77920500Y-54268988D01*
X77920500Y-54428512D01*
X77956214Y-54492321D01*
X77991928Y-54524226D01*
X78063357Y-54556131D01*
X78241928Y-54556131D01*
X78313357Y-54524226D01*
X78349071Y-54492321D01*
X78384785Y-54428512D01*
X78384785Y-54268988D01*
X78349071Y-54205178D01*
X78313357Y-54173274D01*
X77599071Y-55321845D02*
X78563357Y-54747559D01*
X74021928Y-43401725D02*
X74057642Y-43497440D01*
X74093357Y-43529344D01*
X74164785Y-43561249D01*
X74271928Y-43561249D01*
X74343357Y-43529344D01*
X74379071Y-43497440D01*
X74414785Y-43433630D01*
X74414785Y-43178392D01*
X73664785Y-43178392D01*
X73664785Y-43401725D01*
X73700500Y-43465535D01*
X73736214Y-43497440D01*
X73807642Y-43529344D01*
X73879071Y-43529344D01*
X73950500Y-43497440D01*
X73986214Y-43465535D01*
X74021928Y-43401725D01*
X74021928Y-43178392D01*
X73664785Y-43784583D02*
X73664785Y-44199344D01*
X73950500Y-43976011D01*
X73950500Y-44071725D01*
X73986214Y-44135535D01*
X74021928Y-44167440D01*
X74093357Y-44199344D01*
X74271928Y-44199344D01*
X74343357Y-44167440D01*
X74379071Y-44135535D01*
X74414785Y-44071725D01*
X74414785Y-43880297D01*
X74379071Y-43816487D01*
X74343357Y-43784583D01*
X62952500Y-43146488D02*
X62952500Y-43465535D01*
X63166785Y-43082678D02*
X62416785Y-43306012D01*
X63166785Y-43529345D01*
X62488214Y-43720774D02*
X62452500Y-43752678D01*
X62416785Y-43816488D01*
X62416785Y-43976012D01*
X62452500Y-44039821D01*
X62488214Y-44071726D01*
X62559642Y-44103631D01*
X62631071Y-44103631D01*
X62738214Y-44071726D01*
X63166785Y-43688869D01*
X63166785Y-44103631D01*
X62381071Y-44869345D02*
X63345357Y-44295059D01*
X61702785Y-52897083D02*
X60952785Y-52897083D01*
X60952785Y-53056607D01*
X60988500Y-53152321D01*
X61059928Y-53216131D01*
X61131357Y-53248036D01*
X61274214Y-53279940D01*
X61381357Y-53279940D01*
X61524214Y-53248036D01*
X61595642Y-53216131D01*
X61667071Y-53152321D01*
X61702785Y-53056607D01*
X61702785Y-52897083D01*
X61702785Y-53918036D02*
X61702785Y-53535179D01*
X61702785Y-53726607D02*
X60952785Y-53726607D01*
X61059928Y-53662798D01*
X61131357Y-53598988D01*
X61167071Y-53535179D01*
X60917071Y-54683750D02*
X61881357Y-54109464D01*
X61024214Y-54875179D02*
X60988500Y-54907083D01*
X60952785Y-54970893D01*
X60952785Y-55130417D01*
X60988500Y-55194226D01*
X61024214Y-55226131D01*
X61095642Y-55258036D01*
X61167071Y-55258036D01*
X61274214Y-55226131D01*
X61702785Y-54843274D01*
X61702785Y-55258036D01*
X68153357Y-53918035D02*
X68189071Y-53886131D01*
X68224785Y-53790416D01*
X68224785Y-53726607D01*
X68189071Y-53630893D01*
X68117642Y-53567083D01*
X68046214Y-53535178D01*
X67903357Y-53503274D01*
X67796214Y-53503274D01*
X67653357Y-53535178D01*
X67581928Y-53567083D01*
X67510500Y-53630893D01*
X67474785Y-53726607D01*
X67474785Y-53790416D01*
X67510500Y-53886131D01*
X67546214Y-53918035D01*
X67474785Y-54492321D02*
X67474785Y-54364702D01*
X67510500Y-54300893D01*
X67546214Y-54268988D01*
X67653357Y-54205178D01*
X67796214Y-54173274D01*
X68081928Y-54173274D01*
X68153357Y-54205178D01*
X68189071Y-54237083D01*
X68224785Y-54300893D01*
X68224785Y-54428512D01*
X68189071Y-54492321D01*
X68153357Y-54524226D01*
X68081928Y-54556131D01*
X67903357Y-54556131D01*
X67831928Y-54524226D01*
X67796214Y-54492321D01*
X67760500Y-54428512D01*
X67760500Y-54300893D01*
X67796214Y-54237083D01*
X67831928Y-54205178D01*
X67903357Y-54173274D01*
X67439071Y-55321845D02*
X68403357Y-54747559D01*
X56028785Y-43561249D02*
X55671642Y-43337916D01*
X56028785Y-43178392D02*
X55278785Y-43178392D01*
X55278785Y-43433630D01*
X55314500Y-43497440D01*
X55350214Y-43529344D01*
X55421642Y-43561249D01*
X55528785Y-43561249D01*
X55600214Y-43529344D01*
X55635928Y-43497440D01*
X55671642Y-43433630D01*
X55671642Y-43178392D01*
X55993071Y-43816487D02*
X56028785Y-43912201D01*
X56028785Y-44071725D01*
X55993071Y-44135535D01*
X55957357Y-44167440D01*
X55885928Y-44199344D01*
X55814500Y-44199344D01*
X55743071Y-44167440D01*
X55707357Y-44135535D01*
X55671642Y-44071725D01*
X55635928Y-43944106D01*
X55600214Y-43880297D01*
X55564500Y-43848392D01*
X55493071Y-43816487D01*
X55421642Y-43816487D01*
X55350214Y-43848392D01*
X55314500Y-43880297D01*
X55278785Y-43944106D01*
X55278785Y-44103630D01*
X55314500Y-44199344D01*
X55278785Y-44390773D02*
X55278785Y-44773630D01*
X56028785Y-44582201D02*
X55278785Y-44582201D01*
X76504214Y-55002798D02*
X76468500Y-54938988D01*
X76432785Y-54907083D01*
X76361357Y-54875179D01*
X76325642Y-54875179D01*
X76254214Y-54907083D01*
X76218500Y-54938988D01*
X76182785Y-55002798D01*
X76182785Y-55130417D01*
X76218500Y-55194226D01*
X76254214Y-55226131D01*
X76325642Y-55258036D01*
X76361357Y-55258036D01*
X76432785Y-55226131D01*
X76468500Y-55194226D01*
X76504214Y-55130417D01*
X76504214Y-55002798D01*
X76539928Y-54938988D01*
X76575642Y-54907083D01*
X76647071Y-54875179D01*
X76789928Y-54875179D01*
X76861357Y-54907083D01*
X76897071Y-54938988D01*
X76932785Y-55002798D01*
X76932785Y-55130417D01*
X76897071Y-55194226D01*
X76861357Y-55226131D01*
X76789928Y-55258036D01*
X76647071Y-55258036D01*
X76575642Y-55226131D01*
X76539928Y-55194226D01*
X76504214Y-55130417D01*
X79101928Y-43401725D02*
X79137642Y-43497440D01*
X79173357Y-43529344D01*
X79244785Y-43561249D01*
X79351928Y-43561249D01*
X79423357Y-43529344D01*
X79459071Y-43497440D01*
X79494785Y-43433630D01*
X79494785Y-43178392D01*
X78744785Y-43178392D01*
X78744785Y-43401725D01*
X78780500Y-43465535D01*
X78816214Y-43497440D01*
X78887642Y-43529344D01*
X78959071Y-43529344D01*
X79030500Y-43497440D01*
X79066214Y-43465535D01*
X79101928Y-43401725D01*
X79101928Y-43178392D01*
X78744785Y-44135535D02*
X78744785Y-44007916D01*
X78780500Y-43944106D01*
X78816214Y-43912202D01*
X78923357Y-43848392D01*
X79066214Y-43816487D01*
X79351928Y-43816487D01*
X79423357Y-43848392D01*
X79459071Y-43880297D01*
X79494785Y-43944106D01*
X79494785Y-44071725D01*
X79459071Y-44135535D01*
X79423357Y-44167440D01*
X79351928Y-44199344D01*
X79173357Y-44199344D01*
X79101928Y-44167440D01*
X79066214Y-44135535D01*
X79030500Y-44071725D01*
X79030500Y-43944106D01*
X79066214Y-43880297D01*
X79101928Y-43848392D01*
X79173357Y-43816487D01*
X50784785Y-53662797D02*
X50784785Y-54045654D01*
X51534785Y-53854226D02*
X50784785Y-53854226D01*
X50784785Y-54205178D02*
X51534785Y-54651845D01*
X50784785Y-54651845D02*
X51534785Y-54205178D01*
X50784785Y-55034702D02*
X50784785Y-55098511D01*
X50820500Y-55162321D01*
X50856214Y-55194226D01*
X50927642Y-55226130D01*
X51070500Y-55258035D01*
X51249071Y-55258035D01*
X51391928Y-55226130D01*
X51463357Y-55194226D01*
X51499071Y-55162321D01*
X51534785Y-55098511D01*
X51534785Y-55034702D01*
X51499071Y-54970892D01*
X51463357Y-54938988D01*
X51391928Y-54907083D01*
X51249071Y-54875178D01*
X51070500Y-54875178D01*
X50927642Y-54907083D01*
X50856214Y-54938988D01*
X50820500Y-54970892D01*
X50784785Y-55034702D01*
X76589928Y-43401725D02*
X76625642Y-43497440D01*
X76661357Y-43529344D01*
X76732785Y-43561249D01*
X76839928Y-43561249D01*
X76911357Y-43529344D01*
X76947071Y-43497440D01*
X76982785Y-43433630D01*
X76982785Y-43178392D01*
X76232785Y-43178392D01*
X76232785Y-43401725D01*
X76268500Y-43465535D01*
X76304214Y-43497440D01*
X76375642Y-43529344D01*
X76447071Y-43529344D01*
X76518500Y-43497440D01*
X76554214Y-43465535D01*
X76589928Y-43401725D01*
X76589928Y-43178392D01*
X76304214Y-43816487D02*
X76268500Y-43848392D01*
X76232785Y-43912202D01*
X76232785Y-44071725D01*
X76268500Y-44135535D01*
X76304214Y-44167440D01*
X76375642Y-44199344D01*
X76447071Y-44199344D01*
X76554214Y-44167440D01*
X76982785Y-43784583D01*
X76982785Y-44199344D01*
X65684785Y-53535178D02*
X64934785Y-53535178D01*
X64934785Y-53694702D01*
X64970500Y-53790416D01*
X65041928Y-53854226D01*
X65113357Y-53886131D01*
X65256214Y-53918035D01*
X65363357Y-53918035D01*
X65506214Y-53886131D01*
X65577642Y-53854226D01*
X65649071Y-53790416D01*
X65684785Y-53694702D01*
X65684785Y-53535178D01*
X65184785Y-54492321D02*
X65684785Y-54492321D01*
X64899071Y-54332797D02*
X65434785Y-54173274D01*
X65434785Y-54588035D01*
X64899071Y-55321845D02*
X65863357Y-54747559D01*
X75451928Y-53758512D02*
X75487642Y-53854226D01*
X75523357Y-53886131D01*
X75594785Y-53918035D01*
X75701928Y-53918035D01*
X75773357Y-53886131D01*
X75809071Y-53854226D01*
X75844785Y-53790416D01*
X75844785Y-53535178D01*
X75094785Y-53535178D01*
X75094785Y-53758512D01*
X75130500Y-53822321D01*
X75166214Y-53854226D01*
X75237642Y-53886131D01*
X75309071Y-53886131D01*
X75380500Y-53854226D01*
X75416214Y-53822321D01*
X75451928Y-53758512D01*
X75451928Y-53535178D01*
X75344785Y-54492321D02*
X75844785Y-54492321D01*
X75059071Y-54332797D02*
X75594785Y-54173274D01*
X75594785Y-54588035D01*
X75059071Y-55321845D02*
X76023357Y-54747559D01*
X60412500Y-43146488D02*
X60412500Y-43465535D01*
X60626785Y-43082678D02*
X59876785Y-43306012D01*
X60626785Y-43529345D01*
X59876785Y-43688869D02*
X59876785Y-44103631D01*
X60162500Y-43880297D01*
X60162500Y-43976012D01*
X60198214Y-44039821D01*
X60233928Y-44071726D01*
X60305357Y-44103631D01*
X60483928Y-44103631D01*
X60555357Y-44071726D01*
X60591071Y-44039821D01*
X60626785Y-43976012D01*
X60626785Y-43784583D01*
X60591071Y-43720774D01*
X60555357Y-43688869D01*
X59841071Y-44869345D02*
X60805357Y-44295059D01*
X57818785Y-43082678D02*
X58568785Y-43306012D01*
X57818785Y-43529345D01*
X58497357Y-44135535D02*
X58533071Y-44103631D01*
X58568785Y-44007916D01*
X58568785Y-43944107D01*
X58533071Y-43848393D01*
X58461642Y-43784583D01*
X58390214Y-43752678D01*
X58247357Y-43720774D01*
X58140214Y-43720774D01*
X57997357Y-43752678D01*
X57925928Y-43784583D01*
X57854500Y-43848393D01*
X57818785Y-43944107D01*
X57818785Y-44007916D01*
X57854500Y-44103631D01*
X57890214Y-44135535D01*
X58497357Y-44805535D02*
X58533071Y-44773631D01*
X58568785Y-44677916D01*
X58568785Y-44614107D01*
X58533071Y-44518393D01*
X58461642Y-44454583D01*
X58390214Y-44422678D01*
X58247357Y-44390774D01*
X58140214Y-44390774D01*
X57997357Y-44422678D01*
X57925928Y-44454583D01*
X57854500Y-44518393D01*
X57818785Y-44614107D01*
X57818785Y-44677916D01*
X57854500Y-44773631D01*
X57890214Y-44805535D01*
X60549071Y-52928988D02*
X60584785Y-53024702D01*
X60584785Y-53184226D01*
X60549071Y-53248035D01*
X60513357Y-53279940D01*
X60441928Y-53311845D01*
X60370500Y-53311845D01*
X60299071Y-53279940D01*
X60263357Y-53248035D01*
X60227642Y-53184226D01*
X60191928Y-53056607D01*
X60156214Y-52992797D01*
X60120500Y-52960892D01*
X60049071Y-52928988D01*
X59977642Y-52928988D01*
X59906214Y-52960892D01*
X59870500Y-52992797D01*
X59834785Y-53056607D01*
X59834785Y-53216130D01*
X59870500Y-53311845D01*
X60584785Y-53598988D02*
X59834785Y-53598988D01*
X59834785Y-53758511D01*
X59870500Y-53854226D01*
X59941928Y-53918035D01*
X60013357Y-53949940D01*
X60156214Y-53981845D01*
X60263357Y-53981845D01*
X60406214Y-53949940D01*
X60477642Y-53918035D01*
X60549071Y-53854226D01*
X60584785Y-53758511D01*
X60584785Y-53598988D01*
X60370500Y-54237083D02*
X60370500Y-54556130D01*
X60584785Y-54173273D02*
X59834785Y-54396607D01*
X60584785Y-54619940D01*
X59799071Y-55321845D02*
X60763357Y-54747559D01*
X68941928Y-43401726D02*
X68941928Y-43178392D01*
X69334785Y-43178392D02*
X68584785Y-43178392D01*
X68584785Y-43497440D01*
X68584785Y-43688869D02*
X68584785Y-44135535D01*
X69334785Y-43848392D01*
D10*
X47899404Y-46298214D02*
X47099404Y-46298214D01*
X47670833Y-46564880D01*
X47099404Y-46831547D01*
X47899404Y-46831547D01*
X47899404Y-47212500D02*
X47366071Y-47212500D01*
X47099404Y-47212500D02*
X47137500Y-47174404D01*
X47175595Y-47212500D01*
X47137500Y-47250595D01*
X47099404Y-47212500D01*
X47175595Y-47212500D01*
X47861309Y-47936309D02*
X47899404Y-47860119D01*
X47899404Y-47707738D01*
X47861309Y-47631547D01*
X47823214Y-47593452D01*
X47747023Y-47555357D01*
X47518452Y-47555357D01*
X47442261Y-47593452D01*
X47404166Y-47631547D01*
X47366071Y-47707738D01*
X47366071Y-47860119D01*
X47404166Y-47936309D01*
X47899404Y-48279166D02*
X47366071Y-48279166D01*
X47518452Y-48279166D02*
X47442261Y-48317261D01*
X47404166Y-48355357D01*
X47366071Y-48431547D01*
X47366071Y-48507738D01*
X47899404Y-48888690D02*
X47861309Y-48812500D01*
X47823214Y-48774404D01*
X47747023Y-48736309D01*
X47518452Y-48736309D01*
X47442261Y-48774404D01*
X47404166Y-48812500D01*
X47366071Y-48888690D01*
X47366071Y-49002976D01*
X47404166Y-49079166D01*
X47442261Y-49117261D01*
X47518452Y-49155357D01*
X47747023Y-49155357D01*
X47823214Y-49117261D01*
X47861309Y-49079166D01*
X47899404Y-49002976D01*
X47899404Y-48888690D01*
X47099404Y-50107738D02*
X47747023Y-50107738D01*
X47823214Y-50145833D01*
X47861309Y-50183928D01*
X47899404Y-50260119D01*
X47899404Y-50412500D01*
X47861309Y-50488690D01*
X47823214Y-50526785D01*
X47747023Y-50564880D01*
X47099404Y-50564880D01*
X47861309Y-50907738D02*
X47899404Y-51022023D01*
X47899404Y-51212500D01*
X47861309Y-51288690D01*
X47823214Y-51326785D01*
X47747023Y-51364880D01*
X47670833Y-51364880D01*
X47594642Y-51326785D01*
X47556547Y-51288690D01*
X47518452Y-51212500D01*
X47480357Y-51060119D01*
X47442261Y-50983928D01*
X47404166Y-50945833D01*
X47327976Y-50907738D01*
X47251785Y-50907738D01*
X47175595Y-50945833D01*
X47137500Y-50983928D01*
X47099404Y-51060119D01*
X47099404Y-51250595D01*
X47137500Y-51364880D01*
X47480357Y-51974404D02*
X47518452Y-52088690D01*
X47556547Y-52126785D01*
X47632738Y-52164880D01*
X47747023Y-52164880D01*
X47823214Y-52126785D01*
X47861309Y-52088690D01*
X47899404Y-52012500D01*
X47899404Y-51707738D01*
X47099404Y-51707738D01*
X47099404Y-51974404D01*
X47137500Y-52050595D01*
X47175595Y-52088690D01*
X47251785Y-52126785D01*
X47327976Y-52126785D01*
X47404166Y-52088690D01*
X47442261Y-52050595D01*
X47480357Y-51974404D01*
X47480357Y-51707738D01*
D11*
X50434785Y-53535178D02*
X49684785Y-53535178D01*
X49684785Y-53694702D01*
X49720500Y-53790416D01*
X49791928Y-53854226D01*
X49863357Y-53886131D01*
X50006214Y-53918035D01*
X50113357Y-53918035D01*
X50256214Y-53886131D01*
X50327642Y-53854226D01*
X50399071Y-53790416D01*
X50434785Y-53694702D01*
X50434785Y-53535178D01*
X49684785Y-54141369D02*
X49684785Y-54556131D01*
X49970500Y-54332797D01*
X49970500Y-54428512D01*
X50006214Y-54492321D01*
X50041928Y-54524226D01*
X50113357Y-54556131D01*
X50291928Y-54556131D01*
X50363357Y-54524226D01*
X50399071Y-54492321D01*
X50434785Y-54428512D01*
X50434785Y-54237083D01*
X50399071Y-54173274D01*
X50363357Y-54141369D01*
X49649071Y-55321845D02*
X50613357Y-54747559D01*
X70794785Y-43529344D02*
X70794785Y-43146487D01*
X70794785Y-43337916D02*
X70044785Y-43337916D01*
X70151928Y-43274106D01*
X70223357Y-43210297D01*
X70259071Y-43146487D01*
X70044785Y-44135535D02*
X70044785Y-43816487D01*
X70401928Y-43784583D01*
X70366214Y-43816487D01*
X70330500Y-43880297D01*
X70330500Y-44039821D01*
X70366214Y-44103630D01*
X70401928Y-44135535D01*
X70473357Y-44167440D01*
X70651928Y-44167440D01*
X70723357Y-44135535D01*
X70759071Y-44103630D01*
X70794785Y-44039821D01*
X70794785Y-43880297D01*
X70759071Y-43816487D01*
X70723357Y-43784583D01*
X70009071Y-44933154D02*
X70973357Y-44358868D01*
X52984785Y-53535178D02*
X52234785Y-53535178D01*
X52234785Y-53694702D01*
X52270500Y-53790416D01*
X52341928Y-53854226D01*
X52413357Y-53886131D01*
X52556214Y-53918035D01*
X52663357Y-53918035D01*
X52806214Y-53886131D01*
X52877642Y-53854226D01*
X52949071Y-53790416D01*
X52984785Y-53694702D01*
X52984785Y-53535178D01*
X52306214Y-54173274D02*
X52270500Y-54205178D01*
X52234785Y-54268988D01*
X52234785Y-54428512D01*
X52270500Y-54492321D01*
X52306214Y-54524226D01*
X52377642Y-54556131D01*
X52449071Y-54556131D01*
X52556214Y-54524226D01*
X52984785Y-54141369D01*
X52984785Y-54556131D01*
X52199071Y-55321845D02*
X53163357Y-54747559D01*
X72911928Y-53598988D02*
X72911928Y-53822322D01*
X73304785Y-53918036D02*
X73304785Y-53598988D01*
X72554785Y-53598988D01*
X72554785Y-53918036D01*
X72554785Y-54492322D02*
X72554785Y-54364703D01*
X72590500Y-54300893D01*
X72626214Y-54268988D01*
X72733357Y-54205179D01*
X72876214Y-54173274D01*
X73161928Y-54173274D01*
X73233357Y-54205179D01*
X73269071Y-54237084D01*
X73304785Y-54300893D01*
X73304785Y-54428512D01*
X73269071Y-54492322D01*
X73233357Y-54524226D01*
X73161928Y-54556131D01*
X72983357Y-54556131D01*
X72911928Y-54524226D01*
X72876214Y-54492322D01*
X72840500Y-54428512D01*
X72840500Y-54300893D01*
X72876214Y-54237084D01*
X72911928Y-54205179D01*
X72983357Y-54173274D01*
X72519071Y-55321845D02*
X73483357Y-54747560D01*
X71102785Y-55194226D02*
X71102785Y-55066607D01*
X71138500Y-55002798D01*
X71174214Y-54970893D01*
X71281357Y-54907083D01*
X71424214Y-54875179D01*
X71709928Y-54875179D01*
X71781357Y-54907083D01*
X71817071Y-54938988D01*
X71852785Y-55002798D01*
X71852785Y-55130417D01*
X71817071Y-55194226D01*
X71781357Y-55226131D01*
X71709928Y-55258036D01*
X71531357Y-55258036D01*
X71459928Y-55226131D01*
X71424214Y-55194226D01*
X71388500Y-55130417D01*
X71388500Y-55002798D01*
X71424214Y-54938988D01*
X71459928Y-54907083D01*
X71531357Y-54875179D01*
X75894785Y-43529344D02*
X75894785Y-43146487D01*
X75894785Y-43337916D02*
X75144785Y-43337916D01*
X75251928Y-43274106D01*
X75323357Y-43210297D01*
X75359071Y-43146487D01*
X75144785Y-44103630D02*
X75144785Y-43976011D01*
X75180500Y-43912202D01*
X75216214Y-43880297D01*
X75323357Y-43816487D01*
X75466214Y-43784583D01*
X75751928Y-43784583D01*
X75823357Y-43816487D01*
X75859071Y-43848392D01*
X75894785Y-43912202D01*
X75894785Y-44039821D01*
X75859071Y-44103630D01*
X75823357Y-44135535D01*
X75751928Y-44167440D01*
X75573357Y-44167440D01*
X75501928Y-44135535D01*
X75466214Y-44103630D01*
X75430500Y-44039821D01*
X75430500Y-43912202D01*
X75466214Y-43848392D01*
X75501928Y-43816487D01*
X75573357Y-43784583D01*
X75109071Y-44933154D02*
X76073357Y-44358868D01*
X79472785Y-54938988D02*
X79472785Y-55066607D01*
X79437071Y-55130417D01*
X79401357Y-55162321D01*
X79294214Y-55226131D01*
X79151357Y-55258036D01*
X78865642Y-55258036D01*
X78794214Y-55226131D01*
X78758500Y-55194226D01*
X78722785Y-55130417D01*
X78722785Y-55002798D01*
X78758500Y-54938988D01*
X78794214Y-54907083D01*
X78865642Y-54875179D01*
X79044214Y-54875179D01*
X79115642Y-54907083D01*
X79151357Y-54938988D01*
X79187071Y-55002798D01*
X79187071Y-55130417D01*
X79151357Y-55194226D01*
X79115642Y-55226131D01*
X79044214Y-55258036D01*
X71489928Y-43401725D02*
X71525642Y-43497440D01*
X71561357Y-43529344D01*
X71632785Y-43561249D01*
X71739928Y-43561249D01*
X71811357Y-43529344D01*
X71847071Y-43497440D01*
X71882785Y-43433630D01*
X71882785Y-43178392D01*
X71132785Y-43178392D01*
X71132785Y-43401725D01*
X71168500Y-43465535D01*
X71204214Y-43497440D01*
X71275642Y-43529344D01*
X71347071Y-43529344D01*
X71418500Y-43497440D01*
X71454214Y-43465535D01*
X71489928Y-43401725D01*
X71489928Y-43178392D01*
X71882785Y-44199344D02*
X71882785Y-43816487D01*
X71882785Y-44007916D02*
X71132785Y-44007916D01*
X71239928Y-43944106D01*
X71311357Y-43880297D01*
X71347071Y-43816487D01*
D10*
X54701404Y-39739619D02*
X54168071Y-39806285D01*
X54320452Y-39787238D02*
X54244261Y-39834857D01*
X54206166Y-39877714D01*
X54168071Y-39958666D01*
X54168071Y-40034857D01*
X70142404Y-50935714D02*
X70185261Y-50973809D01*
X70304309Y-51011904D01*
X70380500Y-51011904D01*
X70490023Y-50973809D01*
X70556690Y-50897619D01*
X70585261Y-50821428D01*
X70604309Y-50669047D01*
X70590023Y-50554761D01*
X70532880Y-50402380D01*
X70485261Y-50326190D01*
X70399547Y-50250000D01*
X70280500Y-50211904D01*
X70204309Y-50211904D01*
X70094785Y-50250000D01*
X70061452Y-50288095D01*
X69694785Y-51011904D02*
X69766214Y-50973809D01*
X69799547Y-50935714D01*
X69828119Y-50859523D01*
X69799547Y-50630952D01*
X69751928Y-50554761D01*
X69709071Y-50516666D01*
X69628119Y-50478571D01*
X69513833Y-50478571D01*
X69442404Y-50516666D01*
X69409071Y-50554761D01*
X69380500Y-50630952D01*
X69409071Y-50859523D01*
X69456690Y-50935714D01*
X69499547Y-50973809D01*
X69580500Y-51011904D01*
X69694785Y-51011904D01*
X69085261Y-51011904D02*
X69018595Y-50478571D01*
X69028119Y-50554761D02*
X68985261Y-50516666D01*
X68904309Y-50478571D01*
X68790023Y-50478571D01*
X68718595Y-50516666D01*
X68690023Y-50592857D01*
X68742404Y-51011904D01*
X68690023Y-50592857D02*
X68642404Y-50516666D01*
X68561452Y-50478571D01*
X68447166Y-50478571D01*
X68375738Y-50516666D01*
X68347166Y-50592857D01*
X68399547Y-51011904D01*
X67951928Y-50478571D02*
X68051928Y-51278571D01*
X67956690Y-50516666D02*
X67875738Y-50478571D01*
X67723357Y-50478571D01*
X67651928Y-50516666D01*
X67618595Y-50554761D01*
X67590023Y-50630952D01*
X67618595Y-50859523D01*
X67666214Y-50935714D01*
X67709071Y-50973809D01*
X67790023Y-51011904D01*
X67942404Y-51011904D01*
X68013833Y-50973809D01*
X67180500Y-51011904D02*
X67251928Y-50973809D01*
X67285261Y-50935714D01*
X67313833Y-50859523D01*
X67285261Y-50630952D01*
X67237642Y-50554761D01*
X67194785Y-50516666D01*
X67113833Y-50478571D01*
X66999547Y-50478571D01*
X66928119Y-50516666D01*
X66894785Y-50554761D01*
X66866214Y-50630952D01*
X66894785Y-50859523D01*
X66942404Y-50935714D01*
X66985261Y-50973809D01*
X67066214Y-51011904D01*
X67180500Y-51011904D01*
X66504309Y-50478571D02*
X66570976Y-51011904D01*
X66513833Y-50554761D02*
X66470976Y-50516666D01*
X66390023Y-50478571D01*
X66275738Y-50478571D01*
X66204309Y-50516666D01*
X66175738Y-50592857D01*
X66228119Y-51011904D01*
X65537642Y-50973809D02*
X65618595Y-51011904D01*
X65770976Y-51011904D01*
X65842404Y-50973809D01*
X65870976Y-50897619D01*
X65832880Y-50592857D01*
X65785261Y-50516666D01*
X65704309Y-50478571D01*
X65551928Y-50478571D01*
X65480500Y-50516666D01*
X65451928Y-50592857D01*
X65461452Y-50669047D01*
X65851928Y-50745238D01*
X65094785Y-50478571D02*
X65161452Y-51011904D01*
X65104309Y-50554761D02*
X65061452Y-50516666D01*
X64980500Y-50478571D01*
X64866214Y-50478571D01*
X64794785Y-50516666D01*
X64766214Y-50592857D01*
X64818595Y-51011904D01*
X64485261Y-50478571D02*
X64180500Y-50478571D01*
X64337642Y-50211904D02*
X64423357Y-50897619D01*
X64394785Y-50973809D01*
X64323357Y-51011904D01*
X64247166Y-51011904D01*
X64013833Y-50973809D02*
X63942404Y-51011904D01*
X63790023Y-51011904D01*
X63709071Y-50973809D01*
X63661452Y-50897619D01*
X63656690Y-50859523D01*
X63685261Y-50783333D01*
X63756690Y-50745238D01*
X63870976Y-50745238D01*
X63942404Y-50707142D01*
X63970976Y-50630952D01*
X63966214Y-50592857D01*
X63918595Y-50516666D01*
X63837642Y-50478571D01*
X63723357Y-50478571D01*
X63651928Y-50516666D01*
X62770976Y-50478571D02*
X62466214Y-50478571D01*
X62723357Y-51011904D02*
X62637642Y-50326190D01*
X62590023Y-50250000D01*
X62509071Y-50211904D01*
X62432880Y-50211904D01*
X61923357Y-51011904D02*
X61870976Y-50592857D01*
X61899547Y-50516666D01*
X61970976Y-50478571D01*
X62123357Y-50478571D01*
X62204309Y-50516666D01*
X61918595Y-50973809D02*
X61999547Y-51011904D01*
X62190023Y-51011904D01*
X62261452Y-50973809D01*
X62290023Y-50897619D01*
X62280500Y-50821428D01*
X62232880Y-50745238D01*
X62151928Y-50707142D01*
X61961452Y-50707142D01*
X61880500Y-50669047D01*
X61194785Y-50973809D02*
X61275738Y-51011904D01*
X61428119Y-51011904D01*
X61499547Y-50973809D01*
X61532880Y-50935714D01*
X61561452Y-50859523D01*
X61532880Y-50630952D01*
X61485261Y-50554761D01*
X61442404Y-50516666D01*
X61361452Y-50478571D01*
X61209071Y-50478571D01*
X61137642Y-50516666D01*
X60547166Y-50973809D02*
X60628119Y-51011904D01*
X60780500Y-51011904D01*
X60851928Y-50973809D01*
X60880500Y-50897619D01*
X60842404Y-50592857D01*
X60794785Y-50516666D01*
X60713833Y-50478571D01*
X60561452Y-50478571D01*
X60490023Y-50516666D01*
X60461452Y-50592857D01*
X60470976Y-50669047D01*
X60861452Y-50745238D01*
X59561452Y-51011904D02*
X59461452Y-50211904D01*
X59156690Y-50211904D01*
X59085261Y-50250000D01*
X59051928Y-50288095D01*
X59023357Y-50364285D01*
X59037642Y-50478571D01*
X59085261Y-50554761D01*
X59128119Y-50592857D01*
X59209071Y-50630952D01*
X59513833Y-50630952D01*
X58294785Y-50935714D02*
X58337642Y-50973809D01*
X58456690Y-51011904D01*
X58532880Y-51011904D01*
X58642404Y-50973809D01*
X58709071Y-50897619D01*
X58737642Y-50821428D01*
X58756690Y-50669047D01*
X58742404Y-50554761D01*
X58685261Y-50402380D01*
X58637642Y-50326190D01*
X58551928Y-50250000D01*
X58432880Y-50211904D01*
X58356690Y-50211904D01*
X58247166Y-50250000D01*
X58213833Y-50288095D01*
X57642404Y-50592857D02*
X57532880Y-50630952D01*
X57499547Y-50669047D01*
X57470976Y-50745238D01*
X57485261Y-50859523D01*
X57532880Y-50935714D01*
X57575738Y-50973809D01*
X57656690Y-51011904D01*
X57961452Y-51011904D01*
X57861452Y-50211904D01*
X57594785Y-50211904D01*
X57523357Y-50250000D01*
X57490023Y-50288095D01*
X57461452Y-50364285D01*
X57470976Y-50440476D01*
X57518595Y-50516666D01*
X57561452Y-50554761D01*
X57642404Y-50592857D01*
X57909071Y-50592857D01*
D11*
X66401928Y-43401726D02*
X66401928Y-43178392D01*
X66794785Y-43178392D02*
X66044785Y-43178392D01*
X66044785Y-43497440D01*
X66044785Y-44039821D02*
X66044785Y-43912202D01*
X66080500Y-43848392D01*
X66116214Y-43816488D01*
X66223357Y-43752678D01*
X66366214Y-43720773D01*
X66651928Y-43720773D01*
X66723357Y-43752678D01*
X66759071Y-43784583D01*
X66794785Y-43848392D01*
X66794785Y-43976011D01*
X66759071Y-44039821D01*
X66723357Y-44071726D01*
X66651928Y-44103630D01*
X66473357Y-44103630D01*
X66401928Y-44071726D01*
X66366214Y-44039821D01*
X66330500Y-43976011D01*
X66330500Y-43848392D01*
X66366214Y-43784583D01*
X66401928Y-43752678D01*
X66473357Y-43720773D01*
X57862500Y-53854226D02*
X57826785Y-53790416D01*
X57826785Y-53694702D01*
X57862500Y-53598988D01*
X57933928Y-53535178D01*
X58005357Y-53503273D01*
X58148214Y-53471369D01*
X58255357Y-53471369D01*
X58398214Y-53503273D01*
X58469642Y-53535178D01*
X58541071Y-53598988D01*
X58576785Y-53694702D01*
X58576785Y-53758511D01*
X58541071Y-53854226D01*
X58505357Y-53886130D01*
X58255357Y-53886130D01*
X58255357Y-53758511D01*
X58576785Y-54173273D02*
X57826785Y-54173273D01*
X58576785Y-54556130D01*
X57826785Y-54556130D01*
X58576785Y-54875178D02*
X57826785Y-54875178D01*
X57826785Y-55034702D01*
X57862500Y-55130416D01*
X57933928Y-55194226D01*
X58005357Y-55226130D01*
X58148214Y-55258035D01*
X58255357Y-55258035D01*
X58398214Y-55226130D01*
X58469642Y-55194226D01*
X58541071Y-55130416D01*
X58576785Y-55034702D01*
X58576785Y-54875178D01*
X63049071Y-52960893D02*
X63084785Y-53056607D01*
X63084785Y-53216131D01*
X63049071Y-53279940D01*
X63013357Y-53311845D01*
X62941928Y-53343750D01*
X62870500Y-53343750D01*
X62799071Y-53311845D01*
X62763357Y-53279940D01*
X62727642Y-53216131D01*
X62691928Y-53088512D01*
X62656214Y-53024702D01*
X62620500Y-52992797D01*
X62549071Y-52960893D01*
X62477642Y-52960893D01*
X62406214Y-52992797D01*
X62370500Y-53024702D01*
X62334785Y-53088512D01*
X62334785Y-53248035D01*
X62370500Y-53343750D01*
X63013357Y-54013750D02*
X63049071Y-53981845D01*
X63084785Y-53886131D01*
X63084785Y-53822321D01*
X63049071Y-53726607D01*
X62977642Y-53662797D01*
X62906214Y-53630893D01*
X62763357Y-53598988D01*
X62656214Y-53598988D01*
X62513357Y-53630893D01*
X62441928Y-53662797D01*
X62370500Y-53726607D01*
X62334785Y-53822321D01*
X62334785Y-53886131D01*
X62370500Y-53981845D01*
X62406214Y-54013750D01*
X63084785Y-54619940D02*
X63084785Y-54300893D01*
X62334785Y-54300893D01*
X62299071Y-55321845D02*
X63263357Y-54747559D01*
X64184785Y-52897083D02*
X63434785Y-52897083D01*
X63434785Y-53056607D01*
X63470500Y-53152321D01*
X63541928Y-53216131D01*
X63613357Y-53248036D01*
X63756214Y-53279940D01*
X63863357Y-53279940D01*
X64006214Y-53248036D01*
X64077642Y-53216131D01*
X64149071Y-53152321D01*
X64184785Y-53056607D01*
X64184785Y-52897083D01*
X63434785Y-53694702D02*
X63434785Y-53758512D01*
X63470500Y-53822321D01*
X63506214Y-53854226D01*
X63577642Y-53886131D01*
X63720500Y-53918036D01*
X63899071Y-53918036D01*
X64041928Y-53886131D01*
X64113357Y-53854226D01*
X64149071Y-53822321D01*
X64184785Y-53758512D01*
X64184785Y-53694702D01*
X64149071Y-53630893D01*
X64113357Y-53598988D01*
X64041928Y-53567083D01*
X63899071Y-53535179D01*
X63720500Y-53535179D01*
X63577642Y-53567083D01*
X63506214Y-53598988D01*
X63470500Y-53630893D01*
X63434785Y-53694702D01*
X63399071Y-54683750D02*
X64363357Y-54109464D01*
X63434785Y-54843274D02*
X63434785Y-55258036D01*
X63720500Y-55034702D01*
X63720500Y-55130417D01*
X63756214Y-55194226D01*
X63791928Y-55226131D01*
X63863357Y-55258036D01*
X64041928Y-55258036D01*
X64113357Y-55226131D01*
X64149071Y-55194226D01*
X64184785Y-55130417D01*
X64184785Y-54938988D01*
X64149071Y-54875179D01*
X64113357Y-54843274D01*
X50948785Y-43561249D02*
X50591642Y-43337916D01*
X50948785Y-43178392D02*
X50198785Y-43178392D01*
X50198785Y-43433630D01*
X50234500Y-43497440D01*
X50270214Y-43529345D01*
X50341642Y-43561249D01*
X50448785Y-43561249D01*
X50520214Y-43529345D01*
X50555928Y-43497440D01*
X50591642Y-43433630D01*
X50591642Y-43178392D01*
X50734500Y-43816488D02*
X50734500Y-44135535D01*
X50948785Y-43752678D02*
X50198785Y-43976011D01*
X50948785Y-44199345D01*
X50198785Y-44358869D02*
X50948785Y-44518392D01*
X50413071Y-44646011D01*
X50948785Y-44773630D01*
X50198785Y-44933154D01*
X65492500Y-43146488D02*
X65492500Y-43465535D01*
X65706785Y-43082678D02*
X64956785Y-43306012D01*
X65706785Y-43529345D01*
X65706785Y-44103631D02*
X65706785Y-43720774D01*
X65706785Y-43912202D02*
X64956785Y-43912202D01*
X65063928Y-43848393D01*
X65135357Y-43784583D01*
X65171071Y-43720774D01*
X64921071Y-44869345D02*
X65885357Y-44295059D01*
X66272785Y-55194226D02*
X66772785Y-55194226D01*
X65987071Y-55034702D02*
X66522785Y-54875179D01*
X66522785Y-55289940D01*
X63861928Y-43401726D02*
X63861928Y-43178392D01*
X64254785Y-43178392D02*
X63504785Y-43178392D01*
X63504785Y-43497440D01*
X63504785Y-44071726D02*
X63504785Y-43752678D01*
X63861928Y-43720773D01*
X63826214Y-43752678D01*
X63790500Y-43816488D01*
X63790500Y-43976011D01*
X63826214Y-44039821D01*
X63861928Y-44071726D01*
X63933357Y-44103630D01*
X64111928Y-44103630D01*
X64183357Y-44071726D01*
X64219071Y-44039821D01*
X64254785Y-43976011D01*
X64254785Y-43816488D01*
X64219071Y-43752678D01*
X64183357Y-43720773D01*
X55322500Y-53854226D02*
X55286785Y-53790416D01*
X55286785Y-53694702D01*
X55322500Y-53598988D01*
X55393928Y-53535178D01*
X55465357Y-53503273D01*
X55608214Y-53471369D01*
X55715357Y-53471369D01*
X55858214Y-53503273D01*
X55929642Y-53535178D01*
X56001071Y-53598988D01*
X56036785Y-53694702D01*
X56036785Y-53758511D01*
X56001071Y-53854226D01*
X55965357Y-53886130D01*
X55715357Y-53886130D01*
X55715357Y-53758511D01*
X56036785Y-54173273D02*
X55286785Y-54173273D01*
X56036785Y-54556130D01*
X55286785Y-54556130D01*
X56036785Y-54875178D02*
X55286785Y-54875178D01*
X55286785Y-55034702D01*
X55322500Y-55130416D01*
X55393928Y-55194226D01*
X55465357Y-55226130D01*
X55608214Y-55258035D01*
X55715357Y-55258035D01*
X55858214Y-55226130D01*
X55929642Y-55194226D01*
X56001071Y-55130416D01*
X56036785Y-55034702D01*
X56036785Y-54875178D01*
X70764785Y-53535178D02*
X70014785Y-53535178D01*
X70014785Y-53694702D01*
X70050500Y-53790416D01*
X70121928Y-53854226D01*
X70193357Y-53886131D01*
X70336214Y-53918035D01*
X70443357Y-53918035D01*
X70586214Y-53886131D01*
X70657642Y-53854226D01*
X70729071Y-53790416D01*
X70764785Y-53694702D01*
X70764785Y-53535178D01*
X70014785Y-54141369D02*
X70014785Y-54588035D01*
X70764785Y-54300893D01*
X69979071Y-55321845D02*
X70943357Y-54747559D01*
D10*
%TO.C,RESET1*%
X180352380Y-49147619D02*
X179876190Y-48814285D01*
X180352380Y-48576190D02*
X179352380Y-48576190D01*
X179352380Y-48957142D01*
X179400000Y-49052380D01*
X179447619Y-49100000D01*
X179542857Y-49147619D01*
X179685714Y-49147619D01*
X179780952Y-49100000D01*
X179828571Y-49052380D01*
X179876190Y-48957142D01*
X179876190Y-48576190D01*
X179828571Y-49576190D02*
X179828571Y-49909523D01*
X180352380Y-50052380D02*
X180352380Y-49576190D01*
X179352380Y-49576190D01*
X179352380Y-50052380D01*
X180304761Y-50433333D02*
X180352380Y-50576190D01*
X180352380Y-50814285D01*
X180304761Y-50909523D01*
X180257142Y-50957142D01*
X180161904Y-51004761D01*
X180066666Y-51004761D01*
X179971428Y-50957142D01*
X179923809Y-50909523D01*
X179876190Y-50814285D01*
X179828571Y-50623809D01*
X179780952Y-50528571D01*
X179733333Y-50480952D01*
X179638095Y-50433333D01*
X179542857Y-50433333D01*
X179447619Y-50480952D01*
X179400000Y-50528571D01*
X179352380Y-50623809D01*
X179352380Y-50861904D01*
X179400000Y-51004761D01*
X179828571Y-51433333D02*
X179828571Y-51766666D01*
X180352380Y-51909523D02*
X180352380Y-51433333D01*
X179352380Y-51433333D01*
X179352380Y-51909523D01*
X179352380Y-52195238D02*
X179352380Y-52766666D01*
X180352380Y-52480952D02*
X179352380Y-52480952D01*
D12*
%TO.C,D1*%
X86226000Y-51700000D02*
X87326000Y-51700000D01*
D10*
X87538000Y-48450000D02*
X86014000Y-48450000D01*
D12*
X86226000Y-51000000D02*
X87326000Y-51000000D01*
D10*
X87538000Y-53890000D02*
X87538000Y-48450000D01*
D12*
X86776000Y-51700000D02*
X86226000Y-51000000D01*
X87326000Y-51000000D02*
X86776000Y-51700000D01*
D10*
X86014000Y-48450000D02*
X86014000Y-53890000D01*
X87538000Y-53659000D02*
X86014000Y-53659000D01*
X86014000Y-53659000D02*
X86014000Y-54271000D01*
X86014000Y-54271000D02*
X87538000Y-54271000D01*
X87538000Y-54271000D02*
X87538000Y-53659000D01*
G36*
X87538000Y-53659000D02*
G01*
X86014000Y-53659000D01*
X86014000Y-54271000D01*
X87538000Y-54271000D01*
X87538000Y-53659000D01*
G37*
%TO.C,D2*%
X105014000Y-48450000D02*
X105014000Y-53890000D01*
D12*
X106326000Y-51000000D02*
X105776000Y-51700000D01*
D10*
X106538000Y-53890000D02*
X106538000Y-48450000D01*
D12*
X105226000Y-51000000D02*
X106326000Y-51000000D01*
X105226000Y-51700000D02*
X106326000Y-51700000D01*
X105776000Y-51700000D02*
X105226000Y-51000000D01*
D10*
X106538000Y-48450000D02*
X105014000Y-48450000D01*
X106538000Y-53659000D02*
X105014000Y-53659000D01*
X105014000Y-53659000D02*
X105014000Y-54271000D01*
X105014000Y-54271000D02*
X106538000Y-54271000D01*
X106538000Y-54271000D02*
X106538000Y-53659000D01*
G36*
X106538000Y-53659000D02*
G01*
X105014000Y-53659000D01*
X105014000Y-54271000D01*
X106538000Y-54271000D01*
X106538000Y-53659000D01*
G37*
D12*
%TO.C,D3*%
X124326000Y-47561000D02*
X125426000Y-47561000D01*
X124876000Y-48261000D02*
X124326000Y-47561000D01*
X124326000Y-48261000D02*
X125426000Y-48261000D01*
X125426000Y-47561000D02*
X124876000Y-48261000D01*
D10*
X125638000Y-50451000D02*
X125638000Y-45011000D01*
X124114000Y-45011000D02*
X124114000Y-50451000D01*
X125638000Y-45011000D02*
X124114000Y-45011000D01*
X125638000Y-50220000D02*
X124114000Y-50220000D01*
X124114000Y-50220000D02*
X124114000Y-50832000D01*
X124114000Y-50832000D02*
X125638000Y-50832000D01*
X125638000Y-50832000D02*
X125638000Y-50220000D01*
G36*
X125638000Y-50220000D02*
G01*
X124114000Y-50220000D01*
X124114000Y-50832000D01*
X125638000Y-50832000D01*
X125638000Y-50220000D01*
G37*
D12*
%TO.C,D4*%
X143876000Y-51700000D02*
X143326000Y-51000000D01*
X143326000Y-51700000D02*
X144426000Y-51700000D01*
D10*
X144638000Y-53890000D02*
X144638000Y-48450000D01*
X143114000Y-48450000D02*
X143114000Y-53890000D01*
D12*
X143326000Y-51000000D02*
X144426000Y-51000000D01*
X144426000Y-51000000D02*
X143876000Y-51700000D01*
D10*
X144638000Y-48450000D02*
X143114000Y-48450000D01*
X144638000Y-53659000D02*
X143114000Y-53659000D01*
X143114000Y-53659000D02*
X143114000Y-54271000D01*
X143114000Y-54271000D02*
X144638000Y-54271000D01*
X144638000Y-54271000D02*
X144638000Y-53659000D01*
G36*
X144638000Y-53659000D02*
G01*
X143114000Y-53659000D01*
X143114000Y-54271000D01*
X144638000Y-54271000D01*
X144638000Y-53659000D01*
G37*
D12*
%TO.C,D5*%
X162326000Y-51000000D02*
X163426000Y-51000000D01*
X162326000Y-51700000D02*
X163426000Y-51700000D01*
X163426000Y-51000000D02*
X162876000Y-51700000D01*
X162876000Y-51700000D02*
X162326000Y-51000000D01*
D10*
X163638000Y-53890000D02*
X163638000Y-48450000D01*
X162114000Y-48450000D02*
X162114000Y-53890000D01*
X163638000Y-48450000D02*
X162114000Y-48450000D01*
X163638000Y-53659000D02*
X162114000Y-53659000D01*
X162114000Y-53659000D02*
X162114000Y-54271000D01*
X162114000Y-54271000D02*
X163638000Y-54271000D01*
X163638000Y-54271000D02*
X163638000Y-53659000D01*
G36*
X163638000Y-53659000D02*
G01*
X162114000Y-53659000D01*
X162114000Y-54271000D01*
X163638000Y-54271000D01*
X163638000Y-53659000D01*
G37*
D12*
%TO.C,MX1*%
X101267500Y-45922500D02*
X95487500Y-45912500D01*
X94687500Y-47982500D02*
X94137500Y-47982500D01*
X93137500Y-42902500D02*
X98287500Y-42902500D01*
X101267500Y-42902500D02*
X101267500Y-45922500D01*
X91137500Y-47982500D02*
X91137500Y-44902500D01*
X91137500Y-47982500D02*
X91937500Y-47982500D01*
X94687500Y-47982500D02*
X94687500Y-46712500D01*
X101267500Y-42902500D02*
X100487500Y-42902500D01*
X91137500Y-44902500D02*
G75*
G02*
X93137500Y-42902500I2000000J0D01*
G01*
X94687500Y-46712500D02*
G75*
G02*
X95487500Y-45912500I800000J0D01*
G01*
%TO.C,MX2*%
X113737500Y-47982500D02*
X113187500Y-47982500D01*
X110187500Y-47982500D02*
X110187500Y-44902500D01*
X110187500Y-47982500D02*
X110987500Y-47982500D01*
X120317500Y-42902500D02*
X120317500Y-45922500D01*
X120317500Y-42902500D02*
X119537500Y-42902500D01*
X120317500Y-45922500D02*
X114537500Y-45912500D01*
X113737500Y-47982500D02*
X113737500Y-46712500D01*
X112187500Y-42902500D02*
X117337500Y-42902500D01*
X113737500Y-46712500D02*
G75*
G02*
X114537500Y-45912500I800000J0D01*
G01*
X110187500Y-44902500D02*
G75*
G02*
X112187500Y-42902500I2000000J0D01*
G01*
%TO.C,MX3*%
X129237500Y-47982500D02*
X130037500Y-47982500D01*
X131237500Y-42902500D02*
X136387500Y-42902500D01*
X129237500Y-47982500D02*
X129237500Y-44902500D01*
X132787500Y-47982500D02*
X132237500Y-47982500D01*
X139367500Y-42902500D02*
X138587500Y-42902500D01*
X139367500Y-42902500D02*
X139367500Y-45922500D01*
X132787500Y-47982500D02*
X132787500Y-46712500D01*
X139367500Y-45922500D02*
X133587500Y-45912500D01*
X132787500Y-46712500D02*
G75*
G02*
X133587500Y-45912500I800000J0D01*
G01*
X129237500Y-44902500D02*
G75*
G02*
X131237500Y-42902500I2000000J0D01*
G01*
%TO.C,MX4*%
X151837500Y-47982500D02*
X151287500Y-47982500D01*
X148287500Y-47982500D02*
X149087500Y-47982500D01*
X158417500Y-42902500D02*
X158417500Y-45922500D01*
X150287500Y-42902500D02*
X155437500Y-42902500D01*
X158417500Y-42902500D02*
X157637500Y-42902500D01*
X148287500Y-47982500D02*
X148287500Y-44902500D01*
X151837500Y-47982500D02*
X151837500Y-46712500D01*
X158417500Y-45922500D02*
X152637500Y-45912500D01*
X148287500Y-44902500D02*
G75*
G02*
X150287500Y-42902500I2000000J0D01*
G01*
X151837500Y-46712500D02*
G75*
G02*
X152637500Y-45912500I800000J0D01*
G01*
%TO.C,MX5*%
X170887500Y-47982500D02*
X170337500Y-47982500D01*
X170887500Y-47982500D02*
X170887500Y-46712500D01*
X177467500Y-42902500D02*
X176687500Y-42902500D01*
X167337500Y-47982500D02*
X167337500Y-44902500D01*
X177467500Y-42902500D02*
X177467500Y-45922500D01*
X177467500Y-45922500D02*
X171687500Y-45912500D01*
X167337500Y-47982500D02*
X168137500Y-47982500D01*
X169337500Y-42902500D02*
X174487500Y-42902500D01*
X170887500Y-46712500D02*
G75*
G02*
X171687500Y-45912500I800000J0D01*
G01*
X167337500Y-44902500D02*
G75*
G02*
X169337500Y-42902500I2000000J0D01*
G01*
%TO.C,U1*%
X49339500Y-40331100D02*
X79819500Y-40331100D01*
D10*
X78787500Y-40462500D02*
X79687500Y-40462500D01*
X46937500Y-57962500D02*
X47787500Y-57962500D01*
D12*
X79819500Y-40322500D02*
X79819500Y-42862500D01*
D10*
X46937500Y-57962500D02*
X46937500Y-57162500D01*
X79687500Y-40462500D02*
X79687500Y-41312500D01*
X46937500Y-40462500D02*
X46937500Y-41312500D01*
X79687500Y-57962500D02*
X79687500Y-57102500D01*
D12*
X49339500Y-55562500D02*
X49339500Y-58102500D01*
X55989500Y-39872500D02*
X54889500Y-39872500D01*
X49339500Y-55551100D02*
X79819500Y-55551100D01*
D10*
X78837500Y-57962500D02*
X79687500Y-57962500D01*
D12*
X55989500Y-40322500D02*
X55989500Y-39872500D01*
X52839500Y-39872500D02*
X52839500Y-40322500D01*
X49339500Y-42862500D02*
X79819500Y-42862500D01*
D10*
X46937500Y-40462500D02*
X47787500Y-40462500D01*
D12*
X49339500Y-40322500D02*
X49339500Y-42862500D01*
X52839500Y-39872500D02*
X53939500Y-39872500D01*
X49339500Y-58102500D02*
X79819500Y-58102500D01*
X79819500Y-55562500D02*
X79819500Y-58102500D01*
D10*
%TO.C,RESET1*%
X178150000Y-47600000D02*
X178400000Y-47600000D01*
X178150000Y-53600000D02*
X178400000Y-53600000D01*
X181650000Y-47600000D02*
X181650000Y-53600000D01*
X181650000Y-47600000D02*
X181400000Y-47600000D01*
X181650000Y-53600000D02*
X181400000Y-53600000D01*
X178150000Y-47600000D02*
X178150000Y-53600000D01*
%TD*%
M02*
