%TF.GenerationSoftware,KiCad,Pcbnew,(5.1.10)-1*%
%TF.CreationDate,2021-09-26T12:02:48+01:00*%
%TF.ProjectId,piccolo,70696363-6f6c-46f2-9e6b-696361645f70,rev?*%
%TF.SameCoordinates,Original*%
%TF.FileFunction,Copper,L1,Top*%
%TF.FilePolarity,Positive*%
%FSLAX46Y46*%
G04 Gerber Fmt 4.6, Leading zero omitted, Abs format (unit mm)*
G04 Created by KiCad (PCBNEW (5.1.10)-1) date 2021-09-26 12:02:48*
%MOMM*%
%LPD*%
G01*
G04 APERTURE LIST*
%TA.AperFunction,ComponentPad*%
%ADD10C,1.524000*%
%TD*%
%TA.AperFunction,ComponentPad*%
%ADD11C,1.750000*%
%TD*%
%TA.AperFunction,ComponentPad*%
%ADD12R,1.600000X1.600000*%
%TD*%
%TA.AperFunction,ComponentPad*%
%ADD13C,1.600000*%
%TD*%
%TA.AperFunction,ComponentPad*%
%ADD14R,2.000000X2.000000*%
%TD*%
%TA.AperFunction,ComponentPad*%
%ADD15C,2.000000*%
%TD*%
%TA.AperFunction,ComponentPad*%
%ADD16C,1.397000*%
%TD*%
%TA.AperFunction,ViaPad*%
%ADD17C,0.800000*%
%TD*%
%TA.AperFunction,Conductor*%
%ADD18C,0.250000*%
%TD*%
%TA.AperFunction,Conductor*%
%ADD19C,0.380000*%
%TD*%
%TA.AperFunction,Conductor*%
%ADD20C,0.254000*%
%TD*%
%TA.AperFunction,Conductor*%
%ADD21C,0.100000*%
%TD*%
G04 APERTURE END LIST*
D10*
%TO.P,U1,24*%
%TO.N,Net-(U1-Pad24)*%
X50609500Y-56821100D03*
%TO.P,U1,23*%
%TO.N,GND*%
X53149500Y-56821100D03*
%TO.P,U1,22*%
%TO.N,Reset*%
X55689500Y-56821100D03*
%TO.P,U1,21*%
%TO.N,VCC*%
X58229500Y-56821100D03*
%TO.P,U1,20*%
%TO.N,Net-(U1-Pad20)*%
X60769500Y-56821100D03*
%TO.P,U1,19*%
%TO.N,Net-(U1-Pad19)*%
X63309500Y-56821100D03*
%TO.P,U1,18*%
%TO.N,Net-(U1-Pad18)*%
X65849500Y-56821100D03*
%TO.P,U1,17*%
%TO.N,Net-(U1-Pad17)*%
X68389500Y-56821100D03*
%TO.P,U1,16*%
%TO.N,EncoderB*%
X70929500Y-56821100D03*
%TO.P,U1,15*%
%TO.N,EncoderA*%
X73469500Y-56821100D03*
%TO.P,U1,14*%
%TO.N,Net-(U1-Pad14)*%
X76009500Y-56821100D03*
%TO.P,U1,13*%
%TO.N,row0*%
X78549500Y-56821100D03*
%TO.P,U1,12*%
%TO.N,row1*%
X78549500Y-41601100D03*
%TO.P,U1,11*%
%TO.N,Net-(U1-Pad11)*%
X76009500Y-41601100D03*
%TO.P,U1,10*%
%TO.N,col2*%
X73469500Y-41601100D03*
%TO.P,U1,9*%
%TO.N,col1*%
X70929500Y-41601100D03*
%TO.P,U1,8*%
%TO.N,col0*%
X68389500Y-41601100D03*
%TO.P,U1,7*%
%TO.N,Net-(U1-Pad7)*%
X65849500Y-41601100D03*
%TO.P,U1,6*%
%TO.N,SCL*%
X63309500Y-41601100D03*
%TO.P,U1,5*%
%TO.N,SDA*%
X60769500Y-41601100D03*
%TO.P,U1,4*%
%TO.N,GND*%
X58229500Y-41601100D03*
%TO.P,U1,3*%
X55689500Y-41601100D03*
%TO.P,U1,2*%
%TO.N,Net-(U1-Pad2)*%
X53149500Y-41601100D03*
%TO.P,U1,1*%
%TO.N,Net-(U1-Pad1)*%
X50609500Y-41601100D03*
%TD*%
D11*
%TO.P,Reset,1*%
%TO.N,Reset*%
X179832000Y-51943000D03*
%TO.P,Reset,2*%
%TO.N,GND*%
X179832000Y-46943000D03*
%TD*%
D12*
%TO.P,D5,1*%
%TO.N,row1*%
X162306000Y-54703000D03*
D13*
%TO.P,D5,2*%
%TO.N,Net-(D5-Pad2)*%
X162306000Y-46903000D03*
%TD*%
D12*
%TO.P,D4,1*%
%TO.N,row1*%
X150087500Y-57943750D03*
D13*
%TO.P,D4,2*%
%TO.N,Net-(D4-Pad2)*%
X157887500Y-57943750D03*
%TD*%
D12*
%TO.P,D3,1*%
%TO.N,row0*%
X131037500Y-57943750D03*
D13*
%TO.P,D3,2*%
%TO.N,Net-(D3-Pad2)*%
X138837500Y-57943750D03*
%TD*%
D12*
%TO.P,D2,1*%
%TO.N,row0*%
X111987500Y-57943750D03*
D13*
%TO.P,D2,2*%
%TO.N,Net-(D2-Pad2)*%
X119787500Y-57943750D03*
%TD*%
D12*
%TO.P,D1,1*%
%TO.N,row0*%
X92937500Y-57943750D03*
D13*
%TO.P,D1,2*%
%TO.N,Net-(D1-Pad2)*%
X100737500Y-57943750D03*
%TD*%
D14*
%TO.P,ENC1,A*%
%TO.N,EncoderA*%
X170537500Y-56712500D03*
D15*
%TO.P,ENC1,C*%
%TO.N,GND*%
X173037500Y-56712500D03*
%TO.P,ENC1,B*%
%TO.N,EncoderB*%
X175537500Y-56712500D03*
%TO.P,ENC1,S2*%
%TO.N,col1*%
X170537500Y-42212500D03*
%TO.P,ENC1,S1*%
%TO.N,Net-(D5-Pad2)*%
X175537500Y-42212500D03*
%TD*%
D16*
%TO.P,OL1,4*%
%TO.N,Net-(JP4-Pad2)*%
X83693000Y-45339000D03*
%TO.P,OL1,3*%
%TO.N,Net-(JP3-Pad2)*%
X83693000Y-47879000D03*
%TO.P,OL1,2*%
%TO.N,Net-(JP2-Pad2)*%
X83693000Y-50419000D03*
%TO.P,OL1,1*%
%TO.N,Net-(JP1-Pad2)*%
X83693000Y-52959000D03*
%TD*%
D17*
%TO.N,Net-(D1-Pad2)*%
X100838000Y-47879000D03*
%TO.N,Net-(D2-Pad2)*%
X119856250Y-47625000D03*
%TO.N,Net-(D3-Pad2)*%
X138938000Y-47625000D03*
%TO.N,Net-(D4-Pad2)*%
X158508878Y-46494878D03*
%TO.N,row1*%
X137033000Y-41148000D03*
%TO.N,GND*%
X73279000Y-45339000D03*
X67242200Y-50613800D03*
X171117501Y-44147499D03*
X163068000Y-45466000D03*
%TO.N,VCC*%
X72517000Y-48005996D03*
X67182988Y-52451000D03*
%TD*%
D18*
%TO.N,Net-(D1-Pad2)*%
X100438001Y-57734251D02*
X100647500Y-57943750D01*
X100438001Y-48278999D02*
X100438001Y-57734251D01*
X100838000Y-47879000D02*
X100438001Y-48278999D01*
%TO.N,Net-(D2-Pad2)*%
X119856250Y-47625000D02*
X119456251Y-48024999D01*
X119456251Y-57702501D02*
X119697500Y-57943750D01*
X119456251Y-48024999D02*
X119456251Y-57702501D01*
%TO.N,Net-(D3-Pad2)*%
X138538001Y-57734251D02*
X138747500Y-57943750D01*
X138538001Y-48024999D02*
X138538001Y-57734251D01*
X138938000Y-47625000D02*
X138538001Y-48024999D01*
%TO.N,Net-(D4-Pad2)*%
X157792499Y-57938749D02*
X157792499Y-47211257D01*
X157797500Y-57943750D02*
X157792499Y-57938749D01*
X157792499Y-47211257D02*
X158508878Y-46494878D01*
%TO.N,row1*%
X137194002Y-41148000D02*
X137033000Y-41148000D01*
X146685000Y-50638998D02*
X137194002Y-41148000D01*
X146685000Y-54451250D02*
X146685000Y-50638998D01*
X150177500Y-57943750D02*
X146685000Y-54451250D01*
D19*
%TO.N,GND*%
X73279000Y-45339000D02*
X72517000Y-45339000D01*
X72517000Y-45339000D02*
X67242200Y-50613800D01*
X176657000Y-52140500D02*
X176657000Y-48006000D01*
X173037500Y-55760000D02*
X176657000Y-52140500D01*
X177753000Y-46943000D02*
X177736500Y-46926500D01*
X179832000Y-46943000D02*
X177753000Y-46943000D01*
X176657000Y-48006000D02*
X177736500Y-46926500D01*
X164973000Y-45466000D02*
X163068000Y-45466000D01*
X166291501Y-44147499D02*
X164973000Y-45466000D01*
X171117501Y-44147499D02*
X166291501Y-44147499D01*
%TO.N,VCC*%
X68071996Y-52451000D02*
X67182988Y-52451000D01*
X72517000Y-48005996D02*
X68071996Y-52451000D01*
%TD*%
D20*
%TO.N,GND*%
X182587862Y-39559402D02*
X182612263Y-39566769D01*
X182634765Y-39578733D01*
X182654514Y-39594841D01*
X182670759Y-39614477D01*
X182682883Y-39636901D01*
X182690418Y-39661242D01*
X182696251Y-39716735D01*
X182696250Y-58705221D01*
X182690598Y-58762864D01*
X182683232Y-58787260D01*
X182671266Y-58809766D01*
X182655159Y-58829514D01*
X182635523Y-58845759D01*
X182613099Y-58857883D01*
X182588758Y-58865418D01*
X182533275Y-58871250D01*
X158989396Y-58871250D01*
X159002137Y-58858509D01*
X159159180Y-58623477D01*
X159267353Y-58362324D01*
X159322500Y-58085085D01*
X159322500Y-57802415D01*
X159267353Y-57525176D01*
X159159180Y-57264023D01*
X159002137Y-57028991D01*
X158802259Y-56829113D01*
X158567227Y-56672070D01*
X158552499Y-56665969D01*
X158552499Y-53903000D01*
X160867928Y-53903000D01*
X160867928Y-55503000D01*
X160880188Y-55627482D01*
X160916498Y-55747180D01*
X160975463Y-55857494D01*
X161054815Y-55954185D01*
X161151506Y-56033537D01*
X161261820Y-56092502D01*
X161381518Y-56128812D01*
X161506000Y-56141072D01*
X163106000Y-56141072D01*
X163230482Y-56128812D01*
X163350180Y-56092502D01*
X163460494Y-56033537D01*
X163557185Y-55954185D01*
X163636537Y-55857494D01*
X163695502Y-55747180D01*
X163706022Y-55712500D01*
X168899428Y-55712500D01*
X168899428Y-57712500D01*
X168911688Y-57836982D01*
X168947998Y-57956680D01*
X169006963Y-58066994D01*
X169086315Y-58163685D01*
X169183006Y-58243037D01*
X169293320Y-58302002D01*
X169413018Y-58338312D01*
X169537500Y-58350572D01*
X171537500Y-58350572D01*
X171661982Y-58338312D01*
X171781680Y-58302002D01*
X171891994Y-58243037D01*
X171988685Y-58163685D01*
X172068037Y-58066994D01*
X172123476Y-57963277D01*
X172177456Y-58112314D01*
X172467071Y-58253204D01*
X172778608Y-58334884D01*
X173100095Y-58354218D01*
X173419175Y-58310461D01*
X173723588Y-58205295D01*
X173897544Y-58112314D01*
X173993308Y-57847913D01*
X173037500Y-56892105D01*
X173023358Y-56906248D01*
X172843753Y-56726643D01*
X172857895Y-56712500D01*
X173217105Y-56712500D01*
X174172913Y-57668308D01*
X174202575Y-57657565D01*
X174267513Y-57754752D01*
X174495248Y-57982487D01*
X174763037Y-58161418D01*
X175060588Y-58284668D01*
X175376467Y-58347500D01*
X175698533Y-58347500D01*
X176014412Y-58284668D01*
X176311963Y-58161418D01*
X176579752Y-57982487D01*
X176807487Y-57754752D01*
X176986418Y-57486963D01*
X177109668Y-57189412D01*
X177172500Y-56873533D01*
X177172500Y-56551467D01*
X177109668Y-56235588D01*
X176986418Y-55938037D01*
X176807487Y-55670248D01*
X176579752Y-55442513D01*
X176311963Y-55263582D01*
X176014412Y-55140332D01*
X175698533Y-55077500D01*
X175376467Y-55077500D01*
X175060588Y-55140332D01*
X174763037Y-55263582D01*
X174495248Y-55442513D01*
X174267513Y-55670248D01*
X174202575Y-55767435D01*
X174172913Y-55756692D01*
X173217105Y-56712500D01*
X172857895Y-56712500D01*
X172843753Y-56698358D01*
X173023358Y-56518753D01*
X173037500Y-56532895D01*
X173993308Y-55577087D01*
X173897544Y-55312686D01*
X173607929Y-55171796D01*
X173296392Y-55090116D01*
X172974905Y-55070782D01*
X172655825Y-55114539D01*
X172351412Y-55219705D01*
X172177456Y-55312686D01*
X172123476Y-55461723D01*
X172068037Y-55358006D01*
X171988685Y-55261315D01*
X171891994Y-55181963D01*
X171781680Y-55122998D01*
X171661982Y-55086688D01*
X171537500Y-55074428D01*
X169537500Y-55074428D01*
X169413018Y-55086688D01*
X169293320Y-55122998D01*
X169183006Y-55181963D01*
X169086315Y-55261315D01*
X169006963Y-55358006D01*
X168947998Y-55468320D01*
X168911688Y-55588018D01*
X168899428Y-55712500D01*
X163706022Y-55712500D01*
X163731812Y-55627482D01*
X163744072Y-55503000D01*
X163744072Y-53903000D01*
X163731812Y-53778518D01*
X163695502Y-53658820D01*
X163636537Y-53548506D01*
X163557185Y-53451815D01*
X163460494Y-53372463D01*
X163350180Y-53313498D01*
X163230482Y-53277188D01*
X163106000Y-53264928D01*
X161506000Y-53264928D01*
X161381518Y-53277188D01*
X161261820Y-53313498D01*
X161151506Y-53372463D01*
X161054815Y-53451815D01*
X160975463Y-53548506D01*
X160916498Y-53658820D01*
X160880188Y-53778518D01*
X160867928Y-53903000D01*
X158552499Y-53903000D01*
X158552499Y-50714771D01*
X158605173Y-50736589D01*
X158911391Y-50797500D01*
X159223609Y-50797500D01*
X159529827Y-50736589D01*
X159818279Y-50617109D01*
X160077879Y-50443650D01*
X160298650Y-50222879D01*
X160472109Y-49963279D01*
X160591589Y-49674827D01*
X160652500Y-49368609D01*
X160652500Y-49056391D01*
X166372500Y-49056391D01*
X166372500Y-49368609D01*
X166433411Y-49674827D01*
X166552891Y-49963279D01*
X166726350Y-50222879D01*
X166947121Y-50443650D01*
X167206721Y-50617109D01*
X167495173Y-50736589D01*
X167801391Y-50797500D01*
X168113609Y-50797500D01*
X168419827Y-50736589D01*
X168708279Y-50617109D01*
X168967879Y-50443650D01*
X169188650Y-50222879D01*
X169362109Y-49963279D01*
X169481589Y-49674827D01*
X169542500Y-49368609D01*
X169542500Y-49056391D01*
X169490891Y-48796935D01*
X169850256Y-48725453D01*
X170238802Y-48564512D01*
X170461248Y-48415878D01*
X170455683Y-48429314D01*
X170352500Y-48948051D01*
X170352500Y-49476949D01*
X170455683Y-49995686D01*
X170658083Y-50484325D01*
X170951924Y-50924088D01*
X171325912Y-51298076D01*
X171765675Y-51591917D01*
X172254314Y-51794317D01*
X172773051Y-51897500D01*
X173301949Y-51897500D01*
X173820686Y-51794317D01*
X173820780Y-51794278D01*
X178322000Y-51794278D01*
X178322000Y-52091722D01*
X178380029Y-52383451D01*
X178493856Y-52658253D01*
X178659107Y-52905569D01*
X178869431Y-53115893D01*
X179116747Y-53281144D01*
X179391549Y-53394971D01*
X179683278Y-53453000D01*
X179980722Y-53453000D01*
X180272451Y-53394971D01*
X180547253Y-53281144D01*
X180794569Y-53115893D01*
X181004893Y-52905569D01*
X181170144Y-52658253D01*
X181283971Y-52383451D01*
X181342000Y-52091722D01*
X181342000Y-51794278D01*
X181283971Y-51502549D01*
X181170144Y-51227747D01*
X181004893Y-50980431D01*
X180794569Y-50770107D01*
X180547253Y-50604856D01*
X180272451Y-50491029D01*
X179980722Y-50433000D01*
X179683278Y-50433000D01*
X179391549Y-50491029D01*
X179116747Y-50604856D01*
X178869431Y-50770107D01*
X178659107Y-50980431D01*
X178493856Y-51227747D01*
X178380029Y-51502549D01*
X178322000Y-51794278D01*
X173820780Y-51794278D01*
X174309325Y-51591917D01*
X174749088Y-51298076D01*
X175123076Y-50924088D01*
X175416917Y-50484325D01*
X175619317Y-49995686D01*
X175722500Y-49476949D01*
X175722500Y-49056391D01*
X176532500Y-49056391D01*
X176532500Y-49368609D01*
X176593411Y-49674827D01*
X176712891Y-49963279D01*
X176886350Y-50222879D01*
X177107121Y-50443650D01*
X177366721Y-50617109D01*
X177655173Y-50736589D01*
X177961391Y-50797500D01*
X178273609Y-50797500D01*
X178579827Y-50736589D01*
X178868279Y-50617109D01*
X179127879Y-50443650D01*
X179348650Y-50222879D01*
X179522109Y-49963279D01*
X179641589Y-49674827D01*
X179702500Y-49368609D01*
X179702500Y-49321363D01*
X179807000Y-49321363D01*
X179807000Y-49564637D01*
X179854460Y-49803236D01*
X179947557Y-50027992D01*
X180082713Y-50230267D01*
X180254733Y-50402287D01*
X180457008Y-50537443D01*
X180681764Y-50630540D01*
X180920363Y-50678000D01*
X181163637Y-50678000D01*
X181402236Y-50630540D01*
X181626992Y-50537443D01*
X181829267Y-50402287D01*
X182001287Y-50230267D01*
X182136443Y-50027992D01*
X182229540Y-49803236D01*
X182277000Y-49564637D01*
X182277000Y-49321363D01*
X182229540Y-49082764D01*
X182136443Y-48858008D01*
X182001287Y-48655733D01*
X181829267Y-48483713D01*
X181626992Y-48348557D01*
X181402236Y-48255460D01*
X181163637Y-48208000D01*
X180920363Y-48208000D01*
X180681764Y-48255460D01*
X180457008Y-48348557D01*
X180254733Y-48483713D01*
X180082713Y-48655733D01*
X179947557Y-48858008D01*
X179854460Y-49082764D01*
X179807000Y-49321363D01*
X179702500Y-49321363D01*
X179702500Y-49056391D01*
X179641589Y-48750173D01*
X179522109Y-48461721D01*
X179490368Y-48414217D01*
X179602526Y-48442855D01*
X179899543Y-48458804D01*
X180193963Y-48416501D01*
X180474474Y-48317572D01*
X180617975Y-48240868D01*
X180698635Y-47989240D01*
X179832000Y-47122605D01*
X179817858Y-47136748D01*
X179638253Y-46957143D01*
X179652395Y-46943000D01*
X180011605Y-46943000D01*
X180878240Y-47809635D01*
X181129868Y-47728975D01*
X181258267Y-47460671D01*
X181331855Y-47172474D01*
X181347804Y-46875457D01*
X181305501Y-46581037D01*
X181206572Y-46300526D01*
X181129868Y-46157025D01*
X180878240Y-46076365D01*
X180011605Y-46943000D01*
X179652395Y-46943000D01*
X178785760Y-46076365D01*
X178534132Y-46157025D01*
X178405733Y-46425329D01*
X178332145Y-46713526D01*
X178316196Y-47010543D01*
X178358499Y-47304963D01*
X178457428Y-47585474D01*
X178504434Y-47673414D01*
X178273609Y-47627500D01*
X177961391Y-47627500D01*
X177655173Y-47688411D01*
X177366721Y-47807891D01*
X177107121Y-47981350D01*
X176886350Y-48202121D01*
X176712891Y-48461721D01*
X176593411Y-48750173D01*
X176532500Y-49056391D01*
X175722500Y-49056391D01*
X175722500Y-48948051D01*
X175619317Y-48429314D01*
X175416917Y-47940675D01*
X175123076Y-47500912D01*
X174749088Y-47126924D01*
X174309325Y-46833083D01*
X173820686Y-46630683D01*
X173301949Y-46527500D01*
X172773051Y-46527500D01*
X172254314Y-46630683D01*
X171765675Y-46833083D01*
X171325912Y-47126924D01*
X171310963Y-47141873D01*
X171362500Y-46882779D01*
X171362500Y-46462221D01*
X171280453Y-46049744D01*
X171119512Y-45661198D01*
X170885863Y-45311517D01*
X170588483Y-45014137D01*
X170238802Y-44780488D01*
X169850256Y-44619547D01*
X169437779Y-44537500D01*
X169017221Y-44537500D01*
X168604744Y-44619547D01*
X168216198Y-44780488D01*
X167866517Y-45014137D01*
X167569137Y-45311517D01*
X167335488Y-45661198D01*
X167174547Y-46049744D01*
X167092500Y-46462221D01*
X167092500Y-46882779D01*
X167174547Y-47295256D01*
X167335488Y-47683802D01*
X167372515Y-47739217D01*
X167206721Y-47807891D01*
X166947121Y-47981350D01*
X166726350Y-48202121D01*
X166552891Y-48461721D01*
X166433411Y-48750173D01*
X166372500Y-49056391D01*
X160652500Y-49056391D01*
X160591589Y-48750173D01*
X160472109Y-48461721D01*
X160298650Y-48202121D01*
X160077879Y-47981350D01*
X159818279Y-47807891D01*
X159529827Y-47688411D01*
X159223609Y-47627500D01*
X158911391Y-47627500D01*
X158605173Y-47688411D01*
X158552499Y-47710229D01*
X158552499Y-47529878D01*
X158610817Y-47529878D01*
X158810776Y-47490104D01*
X158999134Y-47412083D01*
X159168652Y-47298815D01*
X159312815Y-47154652D01*
X159426083Y-46985134D01*
X159504104Y-46796776D01*
X159511087Y-46761665D01*
X160871000Y-46761665D01*
X160871000Y-47044335D01*
X160926147Y-47321574D01*
X161034320Y-47582727D01*
X161191363Y-47817759D01*
X161391241Y-48017637D01*
X161626273Y-48174680D01*
X161887426Y-48282853D01*
X162164665Y-48338000D01*
X162447335Y-48338000D01*
X162724574Y-48282853D01*
X162985727Y-48174680D01*
X163220759Y-48017637D01*
X163420637Y-47817759D01*
X163577680Y-47582727D01*
X163685853Y-47321574D01*
X163741000Y-47044335D01*
X163741000Y-46761665D01*
X163685853Y-46484426D01*
X163577680Y-46223273D01*
X163420637Y-45988241D01*
X163220759Y-45788363D01*
X162985727Y-45631320D01*
X162724574Y-45523147D01*
X162447335Y-45468000D01*
X162164665Y-45468000D01*
X161887426Y-45523147D01*
X161626273Y-45631320D01*
X161391241Y-45788363D01*
X161191363Y-45988241D01*
X161034320Y-46223273D01*
X160926147Y-46484426D01*
X160871000Y-46761665D01*
X159511087Y-46761665D01*
X159543878Y-46596817D01*
X159543878Y-46392939D01*
X159504104Y-46192980D01*
X159426083Y-46004622D01*
X159312815Y-45835104D01*
X159168652Y-45690941D01*
X158999134Y-45577673D01*
X158810776Y-45499652D01*
X158610817Y-45459878D01*
X158406939Y-45459878D01*
X158206980Y-45499652D01*
X158160400Y-45518946D01*
X158185863Y-45493483D01*
X158419512Y-45143802D01*
X158580453Y-44755256D01*
X158662500Y-44342779D01*
X158662500Y-43922221D01*
X158580453Y-43509744D01*
X158419512Y-43121198D01*
X158185863Y-42771517D01*
X157888483Y-42474137D01*
X157538802Y-42240488D01*
X157150256Y-42079547D01*
X156737779Y-41997500D01*
X156317221Y-41997500D01*
X155904744Y-42079547D01*
X155516198Y-42240488D01*
X155166517Y-42474137D01*
X154869137Y-42771517D01*
X154635488Y-43121198D01*
X154474547Y-43509744D01*
X154392500Y-43922221D01*
X154392500Y-44342779D01*
X154474547Y-44755256D01*
X154635488Y-45143802D01*
X154869137Y-45493483D01*
X155166517Y-45790863D01*
X155516198Y-46024512D01*
X155904744Y-46185453D01*
X156317221Y-46267500D01*
X156737779Y-46267500D01*
X157150256Y-46185453D01*
X157538802Y-46024512D01*
X157610307Y-45976734D01*
X157591673Y-46004622D01*
X157513652Y-46192980D01*
X157473878Y-46392939D01*
X157473878Y-46455077D01*
X157281497Y-46647458D01*
X157252499Y-46671256D01*
X157228701Y-46700254D01*
X157228700Y-46700255D01*
X157157525Y-46786981D01*
X157086953Y-46919011D01*
X157071184Y-46970996D01*
X157043497Y-47062271D01*
X157040885Y-47088791D01*
X157028823Y-47211257D01*
X157032500Y-47248589D01*
X157032499Y-56789184D01*
X156972741Y-56829113D01*
X156772863Y-57028991D01*
X156615820Y-57264023D01*
X156507647Y-57525176D01*
X156452500Y-57802415D01*
X156452500Y-58085085D01*
X156507647Y-58362324D01*
X156615820Y-58623477D01*
X156772863Y-58858509D01*
X156785604Y-58871250D01*
X151512396Y-58871250D01*
X151513312Y-58868232D01*
X151525572Y-58743750D01*
X151525572Y-57143750D01*
X151513312Y-57019268D01*
X151477002Y-56899570D01*
X151418037Y-56789256D01*
X151338685Y-56692565D01*
X151241994Y-56613213D01*
X151131680Y-56554248D01*
X151011982Y-56517938D01*
X150887500Y-56505678D01*
X149814230Y-56505678D01*
X147445000Y-54136449D01*
X147445000Y-50676320D01*
X147448676Y-50638997D01*
X147445000Y-50601674D01*
X147445000Y-50601665D01*
X147434003Y-50490012D01*
X147390546Y-50346751D01*
X147358962Y-50287662D01*
X147319974Y-50214721D01*
X147248799Y-50127995D01*
X147225001Y-50098997D01*
X147196003Y-50075199D01*
X146177195Y-49056391D01*
X147322500Y-49056391D01*
X147322500Y-49368609D01*
X147383411Y-49674827D01*
X147502891Y-49963279D01*
X147676350Y-50222879D01*
X147897121Y-50443650D01*
X148156721Y-50617109D01*
X148445173Y-50736589D01*
X148751391Y-50797500D01*
X149063609Y-50797500D01*
X149369827Y-50736589D01*
X149658279Y-50617109D01*
X149917879Y-50443650D01*
X150138650Y-50222879D01*
X150312109Y-49963279D01*
X150431589Y-49674827D01*
X150492500Y-49368609D01*
X150492500Y-49056391D01*
X150440891Y-48796935D01*
X150800256Y-48725453D01*
X151188802Y-48564512D01*
X151411248Y-48415878D01*
X151405683Y-48429314D01*
X151302500Y-48948051D01*
X151302500Y-49476949D01*
X151405683Y-49995686D01*
X151608083Y-50484325D01*
X151901924Y-50924088D01*
X152275912Y-51298076D01*
X152715675Y-51591917D01*
X153204314Y-51794317D01*
X153723051Y-51897500D01*
X154251949Y-51897500D01*
X154770686Y-51794317D01*
X155259325Y-51591917D01*
X155699088Y-51298076D01*
X156073076Y-50924088D01*
X156366917Y-50484325D01*
X156569317Y-49995686D01*
X156672500Y-49476949D01*
X156672500Y-48948051D01*
X156569317Y-48429314D01*
X156366917Y-47940675D01*
X156073076Y-47500912D01*
X155699088Y-47126924D01*
X155259325Y-46833083D01*
X154770686Y-46630683D01*
X154251949Y-46527500D01*
X153723051Y-46527500D01*
X153204314Y-46630683D01*
X152715675Y-46833083D01*
X152275912Y-47126924D01*
X152260963Y-47141873D01*
X152312500Y-46882779D01*
X152312500Y-46462221D01*
X152230453Y-46049744D01*
X152069512Y-45661198D01*
X151835863Y-45311517D01*
X151538483Y-45014137D01*
X151188802Y-44780488D01*
X150800256Y-44619547D01*
X150387779Y-44537500D01*
X149967221Y-44537500D01*
X149554744Y-44619547D01*
X149166198Y-44780488D01*
X148816517Y-45014137D01*
X148519137Y-45311517D01*
X148285488Y-45661198D01*
X148124547Y-46049744D01*
X148042500Y-46462221D01*
X148042500Y-46882779D01*
X148124547Y-47295256D01*
X148285488Y-47683802D01*
X148322515Y-47739217D01*
X148156721Y-47807891D01*
X147897121Y-47981350D01*
X147676350Y-48202121D01*
X147502891Y-48461721D01*
X147383411Y-48750173D01*
X147322500Y-49056391D01*
X146177195Y-49056391D01*
X138944803Y-41823999D01*
X161027500Y-41823999D01*
X161027500Y-42313501D01*
X161122997Y-42793598D01*
X161310321Y-43245839D01*
X161582274Y-43652845D01*
X161928405Y-43998976D01*
X162335411Y-44270929D01*
X162787652Y-44458253D01*
X163267749Y-44553750D01*
X163757251Y-44553750D01*
X164237348Y-44458253D01*
X164689589Y-44270929D01*
X165096595Y-43998976D01*
X165173350Y-43922221D01*
X173442500Y-43922221D01*
X173442500Y-44342779D01*
X173524547Y-44755256D01*
X173685488Y-45143802D01*
X173919137Y-45493483D01*
X174216517Y-45790863D01*
X174566198Y-46024512D01*
X174954744Y-46185453D01*
X175367221Y-46267500D01*
X175787779Y-46267500D01*
X176200256Y-46185453D01*
X176588802Y-46024512D01*
X176779996Y-45896760D01*
X178965365Y-45896760D01*
X179832000Y-46763395D01*
X180698635Y-45896760D01*
X180617975Y-45645132D01*
X180349671Y-45516733D01*
X180061474Y-45443145D01*
X179764457Y-45427196D01*
X179470037Y-45469499D01*
X179189526Y-45568428D01*
X179046025Y-45645132D01*
X178965365Y-45896760D01*
X176779996Y-45896760D01*
X176938483Y-45790863D01*
X177235863Y-45493483D01*
X177469512Y-45143802D01*
X177630453Y-44755256D01*
X177712500Y-44342779D01*
X177712500Y-43922221D01*
X177630453Y-43509744D01*
X177469512Y-43121198D01*
X177235863Y-42771517D01*
X177116983Y-42652637D01*
X177172500Y-42373533D01*
X177172500Y-42051467D01*
X177109668Y-41735588D01*
X176986418Y-41438037D01*
X176807487Y-41170248D01*
X176579752Y-40942513D01*
X176311963Y-40763582D01*
X176014412Y-40640332D01*
X175698533Y-40577500D01*
X175376467Y-40577500D01*
X175060588Y-40640332D01*
X174763037Y-40763582D01*
X174495248Y-40942513D01*
X174267513Y-41170248D01*
X174088582Y-41438037D01*
X173965332Y-41735588D01*
X173902500Y-42051467D01*
X173902500Y-42373533D01*
X173965332Y-42689412D01*
X173975850Y-42714804D01*
X173919137Y-42771517D01*
X173685488Y-43121198D01*
X173524547Y-43509744D01*
X173442500Y-43922221D01*
X165173350Y-43922221D01*
X165442726Y-43652845D01*
X165714679Y-43245839D01*
X165902003Y-42793598D01*
X165997500Y-42313501D01*
X165997500Y-42051467D01*
X168902500Y-42051467D01*
X168902500Y-42373533D01*
X168965332Y-42689412D01*
X169088582Y-42986963D01*
X169267513Y-43254752D01*
X169495248Y-43482487D01*
X169763037Y-43661418D01*
X170060588Y-43784668D01*
X170376467Y-43847500D01*
X170698533Y-43847500D01*
X171014412Y-43784668D01*
X171311963Y-43661418D01*
X171579752Y-43482487D01*
X171807487Y-43254752D01*
X171986418Y-42986963D01*
X172109668Y-42689412D01*
X172172500Y-42373533D01*
X172172500Y-42051467D01*
X172109668Y-41735588D01*
X171986418Y-41438037D01*
X171807487Y-41170248D01*
X171579752Y-40942513D01*
X171311963Y-40763582D01*
X171014412Y-40640332D01*
X170698533Y-40577500D01*
X170376467Y-40577500D01*
X170060588Y-40640332D01*
X169763037Y-40763582D01*
X169495248Y-40942513D01*
X169267513Y-41170248D01*
X169088582Y-41438037D01*
X168965332Y-41735588D01*
X168902500Y-42051467D01*
X165997500Y-42051467D01*
X165997500Y-41823999D01*
X165902003Y-41343902D01*
X165714679Y-40891661D01*
X165442726Y-40484655D01*
X165096595Y-40138524D01*
X164689589Y-39866571D01*
X164237348Y-39679247D01*
X163757251Y-39583750D01*
X163267749Y-39583750D01*
X162787652Y-39679247D01*
X162335411Y-39866571D01*
X161928405Y-40138524D01*
X161582274Y-40484655D01*
X161310321Y-40891661D01*
X161122997Y-41343902D01*
X161027500Y-41823999D01*
X138944803Y-41823999D01*
X138043452Y-40922649D01*
X138028226Y-40846102D01*
X137950205Y-40657744D01*
X137836937Y-40488226D01*
X137692774Y-40344063D01*
X137523256Y-40230795D01*
X137334898Y-40152774D01*
X137134939Y-40113000D01*
X136931061Y-40113000D01*
X136731102Y-40152774D01*
X136542744Y-40230795D01*
X136373226Y-40344063D01*
X136229063Y-40488226D01*
X136115795Y-40657744D01*
X136037774Y-40846102D01*
X135998000Y-41046061D01*
X135998000Y-41249939D01*
X136037774Y-41449898D01*
X136115795Y-41638256D01*
X136229063Y-41807774D01*
X136373226Y-41951937D01*
X136542744Y-42065205D01*
X136716056Y-42136994D01*
X136466198Y-42240488D01*
X136116517Y-42474137D01*
X135819137Y-42771517D01*
X135585488Y-43121198D01*
X135424547Y-43509744D01*
X135342500Y-43922221D01*
X135342500Y-44342779D01*
X135424547Y-44755256D01*
X135585488Y-45143802D01*
X135819137Y-45493483D01*
X136116517Y-45790863D01*
X136466198Y-46024512D01*
X136854744Y-46185453D01*
X137267221Y-46267500D01*
X137687779Y-46267500D01*
X138100256Y-46185453D01*
X138488802Y-46024512D01*
X138838483Y-45790863D01*
X139135863Y-45493483D01*
X139369512Y-45143802D01*
X139530453Y-44755256D01*
X139562972Y-44591771D01*
X145925001Y-50953801D01*
X145925000Y-54413927D01*
X145921324Y-54451250D01*
X145925000Y-54488572D01*
X145925000Y-54488582D01*
X145935997Y-54600235D01*
X145979454Y-54743496D01*
X146050026Y-54875526D01*
X146089871Y-54924076D01*
X146144999Y-54991251D01*
X146174003Y-55015054D01*
X148649428Y-57490480D01*
X148649428Y-58743750D01*
X148661688Y-58868232D01*
X148662604Y-58871250D01*
X139939396Y-58871250D01*
X139952137Y-58858509D01*
X140109180Y-58623477D01*
X140217353Y-58362324D01*
X140272500Y-58085085D01*
X140272500Y-57802415D01*
X140217353Y-57525176D01*
X140109180Y-57264023D01*
X139952137Y-57028991D01*
X139752259Y-56829113D01*
X139517227Y-56672070D01*
X139298001Y-56581264D01*
X139298001Y-50630066D01*
X139555173Y-50736589D01*
X139861391Y-50797500D01*
X140173609Y-50797500D01*
X140479827Y-50736589D01*
X140768279Y-50617109D01*
X141027879Y-50443650D01*
X141248650Y-50222879D01*
X141422109Y-49963279D01*
X141541589Y-49674827D01*
X141602500Y-49368609D01*
X141602500Y-49056391D01*
X141541589Y-48750173D01*
X141422109Y-48461721D01*
X141248650Y-48202121D01*
X141027879Y-47981350D01*
X140768279Y-47807891D01*
X140479827Y-47688411D01*
X140173609Y-47627500D01*
X139973000Y-47627500D01*
X139973000Y-47523061D01*
X139933226Y-47323102D01*
X139855205Y-47134744D01*
X139741937Y-46965226D01*
X139597774Y-46821063D01*
X139428256Y-46707795D01*
X139239898Y-46629774D01*
X139039939Y-46590000D01*
X138836061Y-46590000D01*
X138636102Y-46629774D01*
X138447744Y-46707795D01*
X138278226Y-46821063D01*
X138134063Y-46965226D01*
X138020795Y-47134744D01*
X137942774Y-47323102D01*
X137903000Y-47523061D01*
X137903000Y-47600774D01*
X137855973Y-47688755D01*
X137832455Y-47732753D01*
X137788998Y-47876014D01*
X137778001Y-47987667D01*
X137778001Y-47987677D01*
X137774325Y-48024999D01*
X137778001Y-48062321D01*
X137778002Y-56973852D01*
X137722863Y-57028991D01*
X137565820Y-57264023D01*
X137457647Y-57525176D01*
X137402500Y-57802415D01*
X137402500Y-58085085D01*
X137457647Y-58362324D01*
X137565820Y-58623477D01*
X137722863Y-58858509D01*
X137735604Y-58871250D01*
X132462396Y-58871250D01*
X132463312Y-58868232D01*
X132475572Y-58743750D01*
X132475572Y-57143750D01*
X132463312Y-57019268D01*
X132427002Y-56899570D01*
X132368037Y-56789256D01*
X132288685Y-56692565D01*
X132191994Y-56613213D01*
X132081680Y-56554248D01*
X131961982Y-56517938D01*
X131837500Y-56505678D01*
X130237500Y-56505678D01*
X130113018Y-56517938D01*
X129993320Y-56554248D01*
X129883006Y-56613213D01*
X129786315Y-56692565D01*
X129706963Y-56789256D01*
X129647998Y-56899570D01*
X129611688Y-57019268D01*
X129599428Y-57143750D01*
X129599428Y-58743750D01*
X129611688Y-58868232D01*
X129612604Y-58871250D01*
X120889396Y-58871250D01*
X120902137Y-58858509D01*
X121059180Y-58623477D01*
X121167353Y-58362324D01*
X121222500Y-58085085D01*
X121222500Y-57802415D01*
X121167353Y-57525176D01*
X121059180Y-57264023D01*
X120902137Y-57028991D01*
X120702259Y-56829113D01*
X120467227Y-56672070D01*
X120216251Y-56568112D01*
X120216251Y-56111499D01*
X122927500Y-56111499D01*
X122927500Y-56601001D01*
X123022997Y-57081098D01*
X123210321Y-57533339D01*
X123482274Y-57940345D01*
X123828405Y-58286476D01*
X124235411Y-58558429D01*
X124687652Y-58745753D01*
X125167749Y-58841250D01*
X125657251Y-58841250D01*
X126137348Y-58745753D01*
X126589589Y-58558429D01*
X126996595Y-58286476D01*
X127342726Y-57940345D01*
X127614679Y-57533339D01*
X127802003Y-57081098D01*
X127897500Y-56601001D01*
X127897500Y-56111499D01*
X127802003Y-55631402D01*
X127614679Y-55179161D01*
X127342726Y-54772155D01*
X126996595Y-54426024D01*
X126589589Y-54154071D01*
X126137348Y-53966747D01*
X125657251Y-53871250D01*
X125167749Y-53871250D01*
X124687652Y-53966747D01*
X124235411Y-54154071D01*
X123828405Y-54426024D01*
X123482274Y-54772155D01*
X123210321Y-55179161D01*
X123022997Y-55631402D01*
X122927500Y-56111499D01*
X120216251Y-56111499D01*
X120216251Y-50616795D01*
X120216721Y-50617109D01*
X120505173Y-50736589D01*
X120811391Y-50797500D01*
X121123609Y-50797500D01*
X121429827Y-50736589D01*
X121718279Y-50617109D01*
X121977879Y-50443650D01*
X122198650Y-50222879D01*
X122372109Y-49963279D01*
X122491589Y-49674827D01*
X122552500Y-49368609D01*
X122552500Y-49056391D01*
X128272500Y-49056391D01*
X128272500Y-49368609D01*
X128333411Y-49674827D01*
X128452891Y-49963279D01*
X128626350Y-50222879D01*
X128847121Y-50443650D01*
X129106721Y-50617109D01*
X129395173Y-50736589D01*
X129701391Y-50797500D01*
X130013609Y-50797500D01*
X130319827Y-50736589D01*
X130608279Y-50617109D01*
X130867879Y-50443650D01*
X131088650Y-50222879D01*
X131262109Y-49963279D01*
X131381589Y-49674827D01*
X131442500Y-49368609D01*
X131442500Y-49056391D01*
X131390891Y-48796935D01*
X131750256Y-48725453D01*
X132138802Y-48564512D01*
X132361248Y-48415878D01*
X132355683Y-48429314D01*
X132252500Y-48948051D01*
X132252500Y-49476949D01*
X132355683Y-49995686D01*
X132558083Y-50484325D01*
X132851924Y-50924088D01*
X133225912Y-51298076D01*
X133665675Y-51591917D01*
X134154314Y-51794317D01*
X134673051Y-51897500D01*
X135201949Y-51897500D01*
X135720686Y-51794317D01*
X136209325Y-51591917D01*
X136649088Y-51298076D01*
X137023076Y-50924088D01*
X137316917Y-50484325D01*
X137519317Y-49995686D01*
X137622500Y-49476949D01*
X137622500Y-48948051D01*
X137519317Y-48429314D01*
X137316917Y-47940675D01*
X137023076Y-47500912D01*
X136649088Y-47126924D01*
X136209325Y-46833083D01*
X135720686Y-46630683D01*
X135201949Y-46527500D01*
X134673051Y-46527500D01*
X134154314Y-46630683D01*
X133665675Y-46833083D01*
X133225912Y-47126924D01*
X133210963Y-47141873D01*
X133262500Y-46882779D01*
X133262500Y-46462221D01*
X133180453Y-46049744D01*
X133019512Y-45661198D01*
X132785863Y-45311517D01*
X132488483Y-45014137D01*
X132138802Y-44780488D01*
X131750256Y-44619547D01*
X131337779Y-44537500D01*
X130917221Y-44537500D01*
X130504744Y-44619547D01*
X130116198Y-44780488D01*
X129766517Y-45014137D01*
X129469137Y-45311517D01*
X129235488Y-45661198D01*
X129074547Y-46049744D01*
X128992500Y-46462221D01*
X128992500Y-46882779D01*
X129074547Y-47295256D01*
X129235488Y-47683802D01*
X129272515Y-47739217D01*
X129106721Y-47807891D01*
X128847121Y-47981350D01*
X128626350Y-48202121D01*
X128452891Y-48461721D01*
X128333411Y-48750173D01*
X128272500Y-49056391D01*
X122552500Y-49056391D01*
X122491589Y-48750173D01*
X122372109Y-48461721D01*
X122198650Y-48202121D01*
X121977879Y-47981350D01*
X121718279Y-47807891D01*
X121429827Y-47688411D01*
X121123609Y-47627500D01*
X120891250Y-47627500D01*
X120891250Y-47523061D01*
X120851476Y-47323102D01*
X120773455Y-47134744D01*
X120660187Y-46965226D01*
X120516024Y-46821063D01*
X120346506Y-46707795D01*
X120158148Y-46629774D01*
X119958189Y-46590000D01*
X119754311Y-46590000D01*
X119554352Y-46629774D01*
X119365994Y-46707795D01*
X119196476Y-46821063D01*
X119052313Y-46965226D01*
X118939045Y-47134744D01*
X118861024Y-47323102D01*
X118821250Y-47523061D01*
X118821250Y-47600774D01*
X118774223Y-47688755D01*
X118750705Y-47732753D01*
X118707248Y-47876014D01*
X118696251Y-47987667D01*
X118696251Y-47987677D01*
X118692575Y-48024999D01*
X118696251Y-48062321D01*
X118696252Y-57005602D01*
X118672863Y-57028991D01*
X118515820Y-57264023D01*
X118407647Y-57525176D01*
X118352500Y-57802415D01*
X118352500Y-58085085D01*
X118407647Y-58362324D01*
X118515820Y-58623477D01*
X118672863Y-58858509D01*
X118685604Y-58871250D01*
X113412396Y-58871250D01*
X113413312Y-58868232D01*
X113425572Y-58743750D01*
X113425572Y-57143750D01*
X113413312Y-57019268D01*
X113377002Y-56899570D01*
X113318037Y-56789256D01*
X113238685Y-56692565D01*
X113141994Y-56613213D01*
X113031680Y-56554248D01*
X112911982Y-56517938D01*
X112787500Y-56505678D01*
X111187500Y-56505678D01*
X111063018Y-56517938D01*
X110943320Y-56554248D01*
X110833006Y-56613213D01*
X110736315Y-56692565D01*
X110656963Y-56789256D01*
X110597998Y-56899570D01*
X110561688Y-57019268D01*
X110549428Y-57143750D01*
X110549428Y-58743750D01*
X110561688Y-58868232D01*
X110562604Y-58871250D01*
X101839396Y-58871250D01*
X101852137Y-58858509D01*
X102009180Y-58623477D01*
X102117353Y-58362324D01*
X102172500Y-58085085D01*
X102172500Y-57802415D01*
X102117353Y-57525176D01*
X102009180Y-57264023D01*
X101852137Y-57028991D01*
X101652259Y-56829113D01*
X101417227Y-56672070D01*
X101198001Y-56581264D01*
X101198001Y-50630066D01*
X101455173Y-50736589D01*
X101761391Y-50797500D01*
X102073609Y-50797500D01*
X102379827Y-50736589D01*
X102668279Y-50617109D01*
X102927879Y-50443650D01*
X103148650Y-50222879D01*
X103322109Y-49963279D01*
X103441589Y-49674827D01*
X103502500Y-49368609D01*
X103502500Y-49056391D01*
X109222500Y-49056391D01*
X109222500Y-49368609D01*
X109283411Y-49674827D01*
X109402891Y-49963279D01*
X109576350Y-50222879D01*
X109797121Y-50443650D01*
X110056721Y-50617109D01*
X110345173Y-50736589D01*
X110651391Y-50797500D01*
X110963609Y-50797500D01*
X111269827Y-50736589D01*
X111558279Y-50617109D01*
X111817879Y-50443650D01*
X112038650Y-50222879D01*
X112212109Y-49963279D01*
X112331589Y-49674827D01*
X112392500Y-49368609D01*
X112392500Y-49056391D01*
X112340891Y-48796935D01*
X112700256Y-48725453D01*
X113088802Y-48564512D01*
X113311248Y-48415878D01*
X113305683Y-48429314D01*
X113202500Y-48948051D01*
X113202500Y-49476949D01*
X113305683Y-49995686D01*
X113508083Y-50484325D01*
X113801924Y-50924088D01*
X114175912Y-51298076D01*
X114615675Y-51591917D01*
X115104314Y-51794317D01*
X115623051Y-51897500D01*
X116151949Y-51897500D01*
X116670686Y-51794317D01*
X117159325Y-51591917D01*
X117599088Y-51298076D01*
X117973076Y-50924088D01*
X118266917Y-50484325D01*
X118469317Y-49995686D01*
X118572500Y-49476949D01*
X118572500Y-48948051D01*
X118469317Y-48429314D01*
X118266917Y-47940675D01*
X117973076Y-47500912D01*
X117599088Y-47126924D01*
X117159325Y-46833083D01*
X116670686Y-46630683D01*
X116151949Y-46527500D01*
X115623051Y-46527500D01*
X115104314Y-46630683D01*
X114615675Y-46833083D01*
X114175912Y-47126924D01*
X114160963Y-47141873D01*
X114212500Y-46882779D01*
X114212500Y-46462221D01*
X114130453Y-46049744D01*
X113969512Y-45661198D01*
X113735863Y-45311517D01*
X113438483Y-45014137D01*
X113088802Y-44780488D01*
X112700256Y-44619547D01*
X112287779Y-44537500D01*
X111867221Y-44537500D01*
X111454744Y-44619547D01*
X111066198Y-44780488D01*
X110716517Y-45014137D01*
X110419137Y-45311517D01*
X110185488Y-45661198D01*
X110024547Y-46049744D01*
X109942500Y-46462221D01*
X109942500Y-46882779D01*
X110024547Y-47295256D01*
X110185488Y-47683802D01*
X110222515Y-47739217D01*
X110056721Y-47807891D01*
X109797121Y-47981350D01*
X109576350Y-48202121D01*
X109402891Y-48461721D01*
X109283411Y-48750173D01*
X109222500Y-49056391D01*
X103502500Y-49056391D01*
X103441589Y-48750173D01*
X103322109Y-48461721D01*
X103148650Y-48202121D01*
X102927879Y-47981350D01*
X102668279Y-47807891D01*
X102379827Y-47688411D01*
X102073609Y-47627500D01*
X101843251Y-47627500D01*
X101833226Y-47577102D01*
X101755205Y-47388744D01*
X101641937Y-47219226D01*
X101497774Y-47075063D01*
X101328256Y-46961795D01*
X101139898Y-46883774D01*
X100939939Y-46844000D01*
X100736061Y-46844000D01*
X100536102Y-46883774D01*
X100347744Y-46961795D01*
X100178226Y-47075063D01*
X100034063Y-47219226D01*
X99920795Y-47388744D01*
X99842774Y-47577102D01*
X99803000Y-47777061D01*
X99803000Y-47854774D01*
X99738773Y-47974933D01*
X99732455Y-47986753D01*
X99688998Y-48130014D01*
X99678001Y-48241667D01*
X99678001Y-48241677D01*
X99674325Y-48278999D01*
X99678001Y-48316321D01*
X99678002Y-56973852D01*
X99622863Y-57028991D01*
X99465820Y-57264023D01*
X99357647Y-57525176D01*
X99302500Y-57802415D01*
X99302500Y-58085085D01*
X99357647Y-58362324D01*
X99465820Y-58623477D01*
X99622863Y-58858509D01*
X99635604Y-58871250D01*
X94362396Y-58871250D01*
X94363312Y-58868232D01*
X94375572Y-58743750D01*
X94375572Y-57143750D01*
X94363312Y-57019268D01*
X94327002Y-56899570D01*
X94268037Y-56789256D01*
X94188685Y-56692565D01*
X94091994Y-56613213D01*
X93981680Y-56554248D01*
X93861982Y-56517938D01*
X93737500Y-56505678D01*
X92137500Y-56505678D01*
X92013018Y-56517938D01*
X91893320Y-56554248D01*
X91783006Y-56613213D01*
X91686315Y-56692565D01*
X91606963Y-56789256D01*
X91547998Y-56899570D01*
X91511688Y-57019268D01*
X91499428Y-57143750D01*
X91499428Y-58743750D01*
X91511688Y-58868232D01*
X91512604Y-58871250D01*
X47562029Y-58871250D01*
X47504386Y-58865598D01*
X47479990Y-58858232D01*
X47457484Y-58846266D01*
X47437736Y-58830159D01*
X47421491Y-58810523D01*
X47409367Y-58788099D01*
X47401832Y-58763758D01*
X47396000Y-58708275D01*
X47396000Y-56683508D01*
X49212500Y-56683508D01*
X49212500Y-56958692D01*
X49266186Y-57228590D01*
X49371495Y-57482827D01*
X49524380Y-57711635D01*
X49718965Y-57906220D01*
X49947773Y-58059105D01*
X50202010Y-58164414D01*
X50471908Y-58218100D01*
X50747092Y-58218100D01*
X51016990Y-58164414D01*
X51271227Y-58059105D01*
X51500035Y-57906220D01*
X51619590Y-57786665D01*
X52363540Y-57786665D01*
X52430520Y-58026756D01*
X52679548Y-58143856D01*
X52946635Y-58210123D01*
X53221517Y-58223010D01*
X53493633Y-58182022D01*
X53752523Y-58088736D01*
X53868480Y-58026756D01*
X53935460Y-57786665D01*
X53149500Y-57000705D01*
X52363540Y-57786665D01*
X51619590Y-57786665D01*
X51694620Y-57711635D01*
X51847505Y-57482827D01*
X51877192Y-57411157D01*
X51881864Y-57424123D01*
X51943844Y-57540080D01*
X52183935Y-57607060D01*
X52969895Y-56821100D01*
X53329105Y-56821100D01*
X54115065Y-57607060D01*
X54355156Y-57540080D01*
X54418985Y-57404340D01*
X54451495Y-57482827D01*
X54604380Y-57711635D01*
X54798965Y-57906220D01*
X55027773Y-58059105D01*
X55282010Y-58164414D01*
X55551908Y-58218100D01*
X55827092Y-58218100D01*
X56096990Y-58164414D01*
X56351227Y-58059105D01*
X56580035Y-57906220D01*
X56774620Y-57711635D01*
X56927505Y-57482827D01*
X56959500Y-57405585D01*
X56991495Y-57482827D01*
X57144380Y-57711635D01*
X57338965Y-57906220D01*
X57567773Y-58059105D01*
X57822010Y-58164414D01*
X58091908Y-58218100D01*
X58367092Y-58218100D01*
X58636990Y-58164414D01*
X58891227Y-58059105D01*
X59120035Y-57906220D01*
X59314620Y-57711635D01*
X59467505Y-57482827D01*
X59499500Y-57405585D01*
X59531495Y-57482827D01*
X59684380Y-57711635D01*
X59878965Y-57906220D01*
X60107773Y-58059105D01*
X60362010Y-58164414D01*
X60631908Y-58218100D01*
X60907092Y-58218100D01*
X61176990Y-58164414D01*
X61431227Y-58059105D01*
X61660035Y-57906220D01*
X61854620Y-57711635D01*
X62007505Y-57482827D01*
X62039500Y-57405585D01*
X62071495Y-57482827D01*
X62224380Y-57711635D01*
X62418965Y-57906220D01*
X62647773Y-58059105D01*
X62902010Y-58164414D01*
X63171908Y-58218100D01*
X63447092Y-58218100D01*
X63716990Y-58164414D01*
X63971227Y-58059105D01*
X64200035Y-57906220D01*
X64394620Y-57711635D01*
X64547505Y-57482827D01*
X64579500Y-57405585D01*
X64611495Y-57482827D01*
X64764380Y-57711635D01*
X64958965Y-57906220D01*
X65187773Y-58059105D01*
X65442010Y-58164414D01*
X65711908Y-58218100D01*
X65987092Y-58218100D01*
X66256990Y-58164414D01*
X66511227Y-58059105D01*
X66740035Y-57906220D01*
X66934620Y-57711635D01*
X67087505Y-57482827D01*
X67119500Y-57405585D01*
X67151495Y-57482827D01*
X67304380Y-57711635D01*
X67498965Y-57906220D01*
X67727773Y-58059105D01*
X67982010Y-58164414D01*
X68251908Y-58218100D01*
X68527092Y-58218100D01*
X68796990Y-58164414D01*
X69051227Y-58059105D01*
X69280035Y-57906220D01*
X69474620Y-57711635D01*
X69627505Y-57482827D01*
X69659500Y-57405585D01*
X69691495Y-57482827D01*
X69844380Y-57711635D01*
X70038965Y-57906220D01*
X70267773Y-58059105D01*
X70522010Y-58164414D01*
X70791908Y-58218100D01*
X71067092Y-58218100D01*
X71336990Y-58164414D01*
X71591227Y-58059105D01*
X71820035Y-57906220D01*
X72014620Y-57711635D01*
X72167505Y-57482827D01*
X72199500Y-57405585D01*
X72231495Y-57482827D01*
X72384380Y-57711635D01*
X72578965Y-57906220D01*
X72807773Y-58059105D01*
X73062010Y-58164414D01*
X73331908Y-58218100D01*
X73607092Y-58218100D01*
X73876990Y-58164414D01*
X74131227Y-58059105D01*
X74360035Y-57906220D01*
X74554620Y-57711635D01*
X74707505Y-57482827D01*
X74739500Y-57405585D01*
X74771495Y-57482827D01*
X74924380Y-57711635D01*
X75118965Y-57906220D01*
X75347773Y-58059105D01*
X75602010Y-58164414D01*
X75871908Y-58218100D01*
X76147092Y-58218100D01*
X76416990Y-58164414D01*
X76671227Y-58059105D01*
X76900035Y-57906220D01*
X77094620Y-57711635D01*
X77247505Y-57482827D01*
X77279500Y-57405585D01*
X77311495Y-57482827D01*
X77464380Y-57711635D01*
X77658965Y-57906220D01*
X77887773Y-58059105D01*
X78142010Y-58164414D01*
X78411908Y-58218100D01*
X78687092Y-58218100D01*
X78956990Y-58164414D01*
X79211227Y-58059105D01*
X79440035Y-57906220D01*
X79634620Y-57711635D01*
X79787505Y-57482827D01*
X79892814Y-57228590D01*
X79946500Y-56958692D01*
X79946500Y-56683508D01*
X79892814Y-56413610D01*
X79787505Y-56159373D01*
X79634620Y-55930565D01*
X79440035Y-55735980D01*
X79211227Y-55583095D01*
X78956990Y-55477786D01*
X78687092Y-55424100D01*
X78411908Y-55424100D01*
X78142010Y-55477786D01*
X77887773Y-55583095D01*
X77658965Y-55735980D01*
X77464380Y-55930565D01*
X77311495Y-56159373D01*
X77279500Y-56236615D01*
X77247505Y-56159373D01*
X77094620Y-55930565D01*
X76900035Y-55735980D01*
X76671227Y-55583095D01*
X76416990Y-55477786D01*
X76147092Y-55424100D01*
X75871908Y-55424100D01*
X75602010Y-55477786D01*
X75347773Y-55583095D01*
X75118965Y-55735980D01*
X74924380Y-55930565D01*
X74771495Y-56159373D01*
X74739500Y-56236615D01*
X74707505Y-56159373D01*
X74554620Y-55930565D01*
X74360035Y-55735980D01*
X74131227Y-55583095D01*
X73876990Y-55477786D01*
X73607092Y-55424100D01*
X73331908Y-55424100D01*
X73062010Y-55477786D01*
X72807773Y-55583095D01*
X72578965Y-55735980D01*
X72384380Y-55930565D01*
X72231495Y-56159373D01*
X72199500Y-56236615D01*
X72167505Y-56159373D01*
X72014620Y-55930565D01*
X71820035Y-55735980D01*
X71591227Y-55583095D01*
X71336990Y-55477786D01*
X71067092Y-55424100D01*
X70791908Y-55424100D01*
X70522010Y-55477786D01*
X70267773Y-55583095D01*
X70038965Y-55735980D01*
X69844380Y-55930565D01*
X69691495Y-56159373D01*
X69659500Y-56236615D01*
X69627505Y-56159373D01*
X69474620Y-55930565D01*
X69280035Y-55735980D01*
X69051227Y-55583095D01*
X68796990Y-55477786D01*
X68527092Y-55424100D01*
X68251908Y-55424100D01*
X67982010Y-55477786D01*
X67727773Y-55583095D01*
X67498965Y-55735980D01*
X67304380Y-55930565D01*
X67151495Y-56159373D01*
X67119500Y-56236615D01*
X67087505Y-56159373D01*
X66934620Y-55930565D01*
X66740035Y-55735980D01*
X66511227Y-55583095D01*
X66256990Y-55477786D01*
X65987092Y-55424100D01*
X65711908Y-55424100D01*
X65442010Y-55477786D01*
X65187773Y-55583095D01*
X64958965Y-55735980D01*
X64764380Y-55930565D01*
X64611495Y-56159373D01*
X64579500Y-56236615D01*
X64547505Y-56159373D01*
X64394620Y-55930565D01*
X64200035Y-55735980D01*
X63971227Y-55583095D01*
X63716990Y-55477786D01*
X63447092Y-55424100D01*
X63171908Y-55424100D01*
X62902010Y-55477786D01*
X62647773Y-55583095D01*
X62418965Y-55735980D01*
X62224380Y-55930565D01*
X62071495Y-56159373D01*
X62039500Y-56236615D01*
X62007505Y-56159373D01*
X61854620Y-55930565D01*
X61660035Y-55735980D01*
X61431227Y-55583095D01*
X61176990Y-55477786D01*
X60907092Y-55424100D01*
X60631908Y-55424100D01*
X60362010Y-55477786D01*
X60107773Y-55583095D01*
X59878965Y-55735980D01*
X59684380Y-55930565D01*
X59531495Y-56159373D01*
X59499500Y-56236615D01*
X59467505Y-56159373D01*
X59314620Y-55930565D01*
X59120035Y-55735980D01*
X58891227Y-55583095D01*
X58636990Y-55477786D01*
X58367092Y-55424100D01*
X58091908Y-55424100D01*
X57822010Y-55477786D01*
X57567773Y-55583095D01*
X57338965Y-55735980D01*
X57144380Y-55930565D01*
X56991495Y-56159373D01*
X56959500Y-56236615D01*
X56927505Y-56159373D01*
X56774620Y-55930565D01*
X56580035Y-55735980D01*
X56351227Y-55583095D01*
X56096990Y-55477786D01*
X55827092Y-55424100D01*
X55551908Y-55424100D01*
X55282010Y-55477786D01*
X55027773Y-55583095D01*
X54798965Y-55735980D01*
X54604380Y-55930565D01*
X54451495Y-56159373D01*
X54421808Y-56231043D01*
X54417136Y-56218077D01*
X54355156Y-56102120D01*
X54115065Y-56035140D01*
X53329105Y-56821100D01*
X52969895Y-56821100D01*
X52183935Y-56035140D01*
X51943844Y-56102120D01*
X51880015Y-56237860D01*
X51847505Y-56159373D01*
X51694620Y-55930565D01*
X51619590Y-55855535D01*
X52363540Y-55855535D01*
X53149500Y-56641495D01*
X53935460Y-55855535D01*
X53868480Y-55615444D01*
X53619452Y-55498344D01*
X53352365Y-55432077D01*
X53077483Y-55419190D01*
X52805367Y-55460178D01*
X52546477Y-55553464D01*
X52430520Y-55615444D01*
X52363540Y-55855535D01*
X51619590Y-55855535D01*
X51500035Y-55735980D01*
X51271227Y-55583095D01*
X51016990Y-55477786D01*
X50747092Y-55424100D01*
X50471908Y-55424100D01*
X50202010Y-55477786D01*
X49947773Y-55583095D01*
X49718965Y-55735980D01*
X49524380Y-55930565D01*
X49371495Y-56159373D01*
X49266186Y-56413610D01*
X49212500Y-56683508D01*
X47396000Y-56683508D01*
X47396000Y-52349061D01*
X66147988Y-52349061D01*
X66147988Y-52552939D01*
X66187762Y-52752898D01*
X66265783Y-52941256D01*
X66379051Y-53110774D01*
X66523214Y-53254937D01*
X66692732Y-53368205D01*
X66881090Y-53446226D01*
X67081049Y-53486000D01*
X67284927Y-53486000D01*
X67484886Y-53446226D01*
X67673244Y-53368205D01*
X67811239Y-53276000D01*
X68031483Y-53276000D01*
X68071996Y-53279990D01*
X68112509Y-53276000D01*
X68112517Y-53276000D01*
X68233724Y-53264062D01*
X68389237Y-53216888D01*
X68532559Y-53140281D01*
X68658181Y-53037185D01*
X68684017Y-53005704D01*
X72656122Y-49033600D01*
X72818898Y-49001222D01*
X73007256Y-48923201D01*
X73176774Y-48809933D01*
X73320937Y-48665770D01*
X73434205Y-48496252D01*
X73512226Y-48307894D01*
X73552000Y-48107935D01*
X73552000Y-47904057D01*
X73512226Y-47704098D01*
X73434205Y-47515740D01*
X73320937Y-47346222D01*
X73176774Y-47202059D01*
X73007256Y-47088791D01*
X72818898Y-47010770D01*
X72618939Y-46970996D01*
X72415061Y-46970996D01*
X72215102Y-47010770D01*
X72026744Y-47088791D01*
X71857226Y-47202059D01*
X71713063Y-47346222D01*
X71599795Y-47515740D01*
X71521774Y-47704098D01*
X71489396Y-47866874D01*
X67762702Y-51593569D01*
X67673244Y-51533795D01*
X67484886Y-51455774D01*
X67284927Y-51416000D01*
X67081049Y-51416000D01*
X66881090Y-51455774D01*
X66692732Y-51533795D01*
X66523214Y-51647063D01*
X66379051Y-51791226D01*
X66265783Y-51960744D01*
X66187762Y-52149102D01*
X66147988Y-52349061D01*
X47396000Y-52349061D01*
X47396000Y-45207662D01*
X82359500Y-45207662D01*
X82359500Y-45470338D01*
X82410746Y-45727968D01*
X82511268Y-45970649D01*
X82657203Y-46189057D01*
X82842943Y-46374797D01*
X83061351Y-46520732D01*
X83274448Y-46609000D01*
X83061351Y-46697268D01*
X82842943Y-46843203D01*
X82657203Y-47028943D01*
X82511268Y-47247351D01*
X82410746Y-47490032D01*
X82359500Y-47747662D01*
X82359500Y-48010338D01*
X82410746Y-48267968D01*
X82511268Y-48510649D01*
X82657203Y-48729057D01*
X82842943Y-48914797D01*
X83061351Y-49060732D01*
X83274448Y-49149000D01*
X83061351Y-49237268D01*
X82842943Y-49383203D01*
X82657203Y-49568943D01*
X82511268Y-49787351D01*
X82410746Y-50030032D01*
X82359500Y-50287662D01*
X82359500Y-50550338D01*
X82410746Y-50807968D01*
X82511268Y-51050649D01*
X82657203Y-51269057D01*
X82842943Y-51454797D01*
X83061351Y-51600732D01*
X83274448Y-51689000D01*
X83061351Y-51777268D01*
X82842943Y-51923203D01*
X82657203Y-52108943D01*
X82511268Y-52327351D01*
X82410746Y-52570032D01*
X82359500Y-52827662D01*
X82359500Y-53090338D01*
X82410746Y-53347968D01*
X82511268Y-53590649D01*
X82657203Y-53809057D01*
X82842943Y-53994797D01*
X83061351Y-54140732D01*
X83304032Y-54241254D01*
X83561662Y-54292500D01*
X83824338Y-54292500D01*
X84081968Y-54241254D01*
X84324649Y-54140732D01*
X84543057Y-53994797D01*
X84728797Y-53809057D01*
X84874732Y-53590649D01*
X84975254Y-53347968D01*
X85026500Y-53090338D01*
X85026500Y-52827662D01*
X84975254Y-52570032D01*
X84874732Y-52327351D01*
X84728797Y-52108943D01*
X84543057Y-51923203D01*
X84324649Y-51777268D01*
X84111552Y-51689000D01*
X84324649Y-51600732D01*
X84543057Y-51454797D01*
X84728797Y-51269057D01*
X84874732Y-51050649D01*
X84975254Y-50807968D01*
X85026500Y-50550338D01*
X85026500Y-50287662D01*
X84975254Y-50030032D01*
X84874732Y-49787351D01*
X84728797Y-49568943D01*
X84543057Y-49383203D01*
X84324649Y-49237268D01*
X84111552Y-49149000D01*
X84324649Y-49060732D01*
X84331145Y-49056391D01*
X90172500Y-49056391D01*
X90172500Y-49368609D01*
X90233411Y-49674827D01*
X90352891Y-49963279D01*
X90526350Y-50222879D01*
X90747121Y-50443650D01*
X91006721Y-50617109D01*
X91295173Y-50736589D01*
X91601391Y-50797500D01*
X91913609Y-50797500D01*
X92219827Y-50736589D01*
X92508279Y-50617109D01*
X92767879Y-50443650D01*
X92988650Y-50222879D01*
X93162109Y-49963279D01*
X93281589Y-49674827D01*
X93342500Y-49368609D01*
X93342500Y-49056391D01*
X93290891Y-48796935D01*
X93650256Y-48725453D01*
X94038802Y-48564512D01*
X94261248Y-48415878D01*
X94255683Y-48429314D01*
X94152500Y-48948051D01*
X94152500Y-49476949D01*
X94255683Y-49995686D01*
X94458083Y-50484325D01*
X94751924Y-50924088D01*
X95125912Y-51298076D01*
X95565675Y-51591917D01*
X96054314Y-51794317D01*
X96573051Y-51897500D01*
X97101949Y-51897500D01*
X97620686Y-51794317D01*
X98109325Y-51591917D01*
X98549088Y-51298076D01*
X98923076Y-50924088D01*
X99216917Y-50484325D01*
X99419317Y-49995686D01*
X99522500Y-49476949D01*
X99522500Y-48948051D01*
X99419317Y-48429314D01*
X99216917Y-47940675D01*
X98923076Y-47500912D01*
X98549088Y-47126924D01*
X98109325Y-46833083D01*
X97620686Y-46630683D01*
X97101949Y-46527500D01*
X96573051Y-46527500D01*
X96054314Y-46630683D01*
X95565675Y-46833083D01*
X95125912Y-47126924D01*
X95110963Y-47141873D01*
X95162500Y-46882779D01*
X95162500Y-46462221D01*
X95080453Y-46049744D01*
X94919512Y-45661198D01*
X94685863Y-45311517D01*
X94388483Y-45014137D01*
X94038802Y-44780488D01*
X93650256Y-44619547D01*
X93237779Y-44537500D01*
X92817221Y-44537500D01*
X92404744Y-44619547D01*
X92016198Y-44780488D01*
X91666517Y-45014137D01*
X91369137Y-45311517D01*
X91135488Y-45661198D01*
X90974547Y-46049744D01*
X90892500Y-46462221D01*
X90892500Y-46882779D01*
X90974547Y-47295256D01*
X91135488Y-47683802D01*
X91172515Y-47739217D01*
X91006721Y-47807891D01*
X90747121Y-47981350D01*
X90526350Y-48202121D01*
X90352891Y-48461721D01*
X90233411Y-48750173D01*
X90172500Y-49056391D01*
X84331145Y-49056391D01*
X84543057Y-48914797D01*
X84728797Y-48729057D01*
X84874732Y-48510649D01*
X84975254Y-48267968D01*
X85026500Y-48010338D01*
X85026500Y-47747662D01*
X84975254Y-47490032D01*
X84874732Y-47247351D01*
X84728797Y-47028943D01*
X84543057Y-46843203D01*
X84324649Y-46697268D01*
X84111552Y-46609000D01*
X84324649Y-46520732D01*
X84543057Y-46374797D01*
X84728797Y-46189057D01*
X84874732Y-45970649D01*
X84975254Y-45727968D01*
X85026500Y-45470338D01*
X85026500Y-45207662D01*
X84975254Y-44950032D01*
X84874732Y-44707351D01*
X84728797Y-44488943D01*
X84543057Y-44303203D01*
X84324649Y-44157268D01*
X84081968Y-44056746D01*
X83824338Y-44005500D01*
X83561662Y-44005500D01*
X83304032Y-44056746D01*
X83061351Y-44157268D01*
X82842943Y-44303203D01*
X82657203Y-44488943D01*
X82511268Y-44707351D01*
X82410746Y-44950032D01*
X82359500Y-45207662D01*
X47396000Y-45207662D01*
X47396000Y-41463508D01*
X49212500Y-41463508D01*
X49212500Y-41738692D01*
X49266186Y-42008590D01*
X49371495Y-42262827D01*
X49524380Y-42491635D01*
X49718965Y-42686220D01*
X49947773Y-42839105D01*
X50202010Y-42944414D01*
X50471908Y-42998100D01*
X50747092Y-42998100D01*
X51016990Y-42944414D01*
X51271227Y-42839105D01*
X51500035Y-42686220D01*
X51694620Y-42491635D01*
X51847505Y-42262827D01*
X51879500Y-42185585D01*
X51911495Y-42262827D01*
X52064380Y-42491635D01*
X52258965Y-42686220D01*
X52487773Y-42839105D01*
X52742010Y-42944414D01*
X53011908Y-42998100D01*
X53287092Y-42998100D01*
X53556990Y-42944414D01*
X53811227Y-42839105D01*
X54040035Y-42686220D01*
X54159590Y-42566665D01*
X54903540Y-42566665D01*
X54970520Y-42806756D01*
X55219548Y-42923856D01*
X55486635Y-42990123D01*
X55761517Y-43003010D01*
X56033633Y-42962022D01*
X56292523Y-42868736D01*
X56408480Y-42806756D01*
X56475460Y-42566665D01*
X57443540Y-42566665D01*
X57510520Y-42806756D01*
X57759548Y-42923856D01*
X58026635Y-42990123D01*
X58301517Y-43003010D01*
X58573633Y-42962022D01*
X58832523Y-42868736D01*
X58948480Y-42806756D01*
X59015460Y-42566665D01*
X58229500Y-41780705D01*
X57443540Y-42566665D01*
X56475460Y-42566665D01*
X55689500Y-41780705D01*
X54903540Y-42566665D01*
X54159590Y-42566665D01*
X54234620Y-42491635D01*
X54387505Y-42262827D01*
X54417192Y-42191157D01*
X54421864Y-42204123D01*
X54483844Y-42320080D01*
X54723935Y-42387060D01*
X55509895Y-41601100D01*
X55869105Y-41601100D01*
X56655065Y-42387060D01*
X56895156Y-42320080D01*
X56956579Y-42189456D01*
X56961864Y-42204123D01*
X57023844Y-42320080D01*
X57263935Y-42387060D01*
X58049895Y-41601100D01*
X58409105Y-41601100D01*
X59195065Y-42387060D01*
X59435156Y-42320080D01*
X59498985Y-42184340D01*
X59531495Y-42262827D01*
X59684380Y-42491635D01*
X59878965Y-42686220D01*
X60107773Y-42839105D01*
X60362010Y-42944414D01*
X60631908Y-42998100D01*
X60907092Y-42998100D01*
X61176990Y-42944414D01*
X61431227Y-42839105D01*
X61660035Y-42686220D01*
X61854620Y-42491635D01*
X62007505Y-42262827D01*
X62039500Y-42185585D01*
X62071495Y-42262827D01*
X62224380Y-42491635D01*
X62418965Y-42686220D01*
X62647773Y-42839105D01*
X62902010Y-42944414D01*
X63171908Y-42998100D01*
X63447092Y-42998100D01*
X63716990Y-42944414D01*
X63971227Y-42839105D01*
X64200035Y-42686220D01*
X64394620Y-42491635D01*
X64547505Y-42262827D01*
X64579500Y-42185585D01*
X64611495Y-42262827D01*
X64764380Y-42491635D01*
X64958965Y-42686220D01*
X65187773Y-42839105D01*
X65442010Y-42944414D01*
X65711908Y-42998100D01*
X65987092Y-42998100D01*
X66256990Y-42944414D01*
X66511227Y-42839105D01*
X66740035Y-42686220D01*
X66934620Y-42491635D01*
X67087505Y-42262827D01*
X67119500Y-42185585D01*
X67151495Y-42262827D01*
X67304380Y-42491635D01*
X67498965Y-42686220D01*
X67727773Y-42839105D01*
X67982010Y-42944414D01*
X68251908Y-42998100D01*
X68527092Y-42998100D01*
X68796990Y-42944414D01*
X69051227Y-42839105D01*
X69280035Y-42686220D01*
X69474620Y-42491635D01*
X69627505Y-42262827D01*
X69659500Y-42185585D01*
X69691495Y-42262827D01*
X69844380Y-42491635D01*
X70038965Y-42686220D01*
X70267773Y-42839105D01*
X70522010Y-42944414D01*
X70791908Y-42998100D01*
X71067092Y-42998100D01*
X71336990Y-42944414D01*
X71591227Y-42839105D01*
X71820035Y-42686220D01*
X72014620Y-42491635D01*
X72167505Y-42262827D01*
X72199500Y-42185585D01*
X72231495Y-42262827D01*
X72384380Y-42491635D01*
X72578965Y-42686220D01*
X72807773Y-42839105D01*
X73062010Y-42944414D01*
X73331908Y-42998100D01*
X73607092Y-42998100D01*
X73876990Y-42944414D01*
X74131227Y-42839105D01*
X74360035Y-42686220D01*
X74554620Y-42491635D01*
X74707505Y-42262827D01*
X74739500Y-42185585D01*
X74771495Y-42262827D01*
X74924380Y-42491635D01*
X75118965Y-42686220D01*
X75347773Y-42839105D01*
X75602010Y-42944414D01*
X75871908Y-42998100D01*
X76147092Y-42998100D01*
X76416990Y-42944414D01*
X76671227Y-42839105D01*
X76900035Y-42686220D01*
X77094620Y-42491635D01*
X77247505Y-42262827D01*
X77279500Y-42185585D01*
X77311495Y-42262827D01*
X77464380Y-42491635D01*
X77658965Y-42686220D01*
X77887773Y-42839105D01*
X78142010Y-42944414D01*
X78411908Y-42998100D01*
X78687092Y-42998100D01*
X78956990Y-42944414D01*
X79211227Y-42839105D01*
X79440035Y-42686220D01*
X79634620Y-42491635D01*
X79787505Y-42262827D01*
X79892814Y-42008590D01*
X79929531Y-41823999D01*
X84827500Y-41823999D01*
X84827500Y-42313501D01*
X84922997Y-42793598D01*
X85110321Y-43245839D01*
X85382274Y-43652845D01*
X85728405Y-43998976D01*
X86135411Y-44270929D01*
X86587652Y-44458253D01*
X87067749Y-44553750D01*
X87557251Y-44553750D01*
X88037348Y-44458253D01*
X88489589Y-44270929D01*
X88896595Y-43998976D01*
X88973350Y-43922221D01*
X97242500Y-43922221D01*
X97242500Y-44342779D01*
X97324547Y-44755256D01*
X97485488Y-45143802D01*
X97719137Y-45493483D01*
X98016517Y-45790863D01*
X98366198Y-46024512D01*
X98754744Y-46185453D01*
X99167221Y-46267500D01*
X99587779Y-46267500D01*
X100000256Y-46185453D01*
X100388802Y-46024512D01*
X100738483Y-45790863D01*
X101035863Y-45493483D01*
X101269512Y-45143802D01*
X101430453Y-44755256D01*
X101512500Y-44342779D01*
X101512500Y-43922221D01*
X116292500Y-43922221D01*
X116292500Y-44342779D01*
X116374547Y-44755256D01*
X116535488Y-45143802D01*
X116769137Y-45493483D01*
X117066517Y-45790863D01*
X117416198Y-46024512D01*
X117804744Y-46185453D01*
X118217221Y-46267500D01*
X118637779Y-46267500D01*
X119050256Y-46185453D01*
X119438802Y-46024512D01*
X119788483Y-45790863D01*
X120085863Y-45493483D01*
X120319512Y-45143802D01*
X120480453Y-44755256D01*
X120562500Y-44342779D01*
X120562500Y-43922221D01*
X120480453Y-43509744D01*
X120319512Y-43121198D01*
X120085863Y-42771517D01*
X119788483Y-42474137D01*
X119438802Y-42240488D01*
X119050256Y-42079547D01*
X118637779Y-41997500D01*
X118217221Y-41997500D01*
X117804744Y-42079547D01*
X117416198Y-42240488D01*
X117066517Y-42474137D01*
X116769137Y-42771517D01*
X116535488Y-43121198D01*
X116374547Y-43509744D01*
X116292500Y-43922221D01*
X101512500Y-43922221D01*
X101430453Y-43509744D01*
X101269512Y-43121198D01*
X101035863Y-42771517D01*
X100738483Y-42474137D01*
X100388802Y-42240488D01*
X100000256Y-42079547D01*
X99587779Y-41997500D01*
X99167221Y-41997500D01*
X98754744Y-42079547D01*
X98366198Y-42240488D01*
X98016517Y-42474137D01*
X97719137Y-42771517D01*
X97485488Y-43121198D01*
X97324547Y-43509744D01*
X97242500Y-43922221D01*
X88973350Y-43922221D01*
X89242726Y-43652845D01*
X89514679Y-43245839D01*
X89702003Y-42793598D01*
X89797500Y-42313501D01*
X89797500Y-41823999D01*
X89702003Y-41343902D01*
X89514679Y-40891661D01*
X89242726Y-40484655D01*
X88896595Y-40138524D01*
X88489589Y-39866571D01*
X88037348Y-39679247D01*
X87557251Y-39583750D01*
X87067749Y-39583750D01*
X86587652Y-39679247D01*
X86135411Y-39866571D01*
X85728405Y-40138524D01*
X85382274Y-40484655D01*
X85110321Y-40891661D01*
X84922997Y-41343902D01*
X84827500Y-41823999D01*
X79929531Y-41823999D01*
X79946500Y-41738692D01*
X79946500Y-41463508D01*
X79892814Y-41193610D01*
X79787505Y-40939373D01*
X79634620Y-40710565D01*
X79440035Y-40515980D01*
X79211227Y-40363095D01*
X78956990Y-40257786D01*
X78687092Y-40204100D01*
X78411908Y-40204100D01*
X78142010Y-40257786D01*
X77887773Y-40363095D01*
X77658965Y-40515980D01*
X77464380Y-40710565D01*
X77311495Y-40939373D01*
X77279500Y-41016615D01*
X77247505Y-40939373D01*
X77094620Y-40710565D01*
X76900035Y-40515980D01*
X76671227Y-40363095D01*
X76416990Y-40257786D01*
X76147092Y-40204100D01*
X75871908Y-40204100D01*
X75602010Y-40257786D01*
X75347773Y-40363095D01*
X75118965Y-40515980D01*
X74924380Y-40710565D01*
X74771495Y-40939373D01*
X74739500Y-41016615D01*
X74707505Y-40939373D01*
X74554620Y-40710565D01*
X74360035Y-40515980D01*
X74131227Y-40363095D01*
X73876990Y-40257786D01*
X73607092Y-40204100D01*
X73331908Y-40204100D01*
X73062010Y-40257786D01*
X72807773Y-40363095D01*
X72578965Y-40515980D01*
X72384380Y-40710565D01*
X72231495Y-40939373D01*
X72199500Y-41016615D01*
X72167505Y-40939373D01*
X72014620Y-40710565D01*
X71820035Y-40515980D01*
X71591227Y-40363095D01*
X71336990Y-40257786D01*
X71067092Y-40204100D01*
X70791908Y-40204100D01*
X70522010Y-40257786D01*
X70267773Y-40363095D01*
X70038965Y-40515980D01*
X69844380Y-40710565D01*
X69691495Y-40939373D01*
X69659500Y-41016615D01*
X69627505Y-40939373D01*
X69474620Y-40710565D01*
X69280035Y-40515980D01*
X69051227Y-40363095D01*
X68796990Y-40257786D01*
X68527092Y-40204100D01*
X68251908Y-40204100D01*
X67982010Y-40257786D01*
X67727773Y-40363095D01*
X67498965Y-40515980D01*
X67304380Y-40710565D01*
X67151495Y-40939373D01*
X67119500Y-41016615D01*
X67087505Y-40939373D01*
X66934620Y-40710565D01*
X66740035Y-40515980D01*
X66511227Y-40363095D01*
X66256990Y-40257786D01*
X65987092Y-40204100D01*
X65711908Y-40204100D01*
X65442010Y-40257786D01*
X65187773Y-40363095D01*
X64958965Y-40515980D01*
X64764380Y-40710565D01*
X64611495Y-40939373D01*
X64579500Y-41016615D01*
X64547505Y-40939373D01*
X64394620Y-40710565D01*
X64200035Y-40515980D01*
X63971227Y-40363095D01*
X63716990Y-40257786D01*
X63447092Y-40204100D01*
X63171908Y-40204100D01*
X62902010Y-40257786D01*
X62647773Y-40363095D01*
X62418965Y-40515980D01*
X62224380Y-40710565D01*
X62071495Y-40939373D01*
X62039500Y-41016615D01*
X62007505Y-40939373D01*
X61854620Y-40710565D01*
X61660035Y-40515980D01*
X61431227Y-40363095D01*
X61176990Y-40257786D01*
X60907092Y-40204100D01*
X60631908Y-40204100D01*
X60362010Y-40257786D01*
X60107773Y-40363095D01*
X59878965Y-40515980D01*
X59684380Y-40710565D01*
X59531495Y-40939373D01*
X59501808Y-41011043D01*
X59497136Y-40998077D01*
X59435156Y-40882120D01*
X59195065Y-40815140D01*
X58409105Y-41601100D01*
X58049895Y-41601100D01*
X57263935Y-40815140D01*
X57023844Y-40882120D01*
X56962421Y-41012744D01*
X56957136Y-40998077D01*
X56895156Y-40882120D01*
X56655065Y-40815140D01*
X55869105Y-41601100D01*
X55509895Y-41601100D01*
X54723935Y-40815140D01*
X54483844Y-40882120D01*
X54420015Y-41017860D01*
X54387505Y-40939373D01*
X54234620Y-40710565D01*
X54159590Y-40635535D01*
X54903540Y-40635535D01*
X55689500Y-41421495D01*
X56475460Y-40635535D01*
X57443540Y-40635535D01*
X58229500Y-41421495D01*
X59015460Y-40635535D01*
X58948480Y-40395444D01*
X58699452Y-40278344D01*
X58432365Y-40212077D01*
X58157483Y-40199190D01*
X57885367Y-40240178D01*
X57626477Y-40333464D01*
X57510520Y-40395444D01*
X57443540Y-40635535D01*
X56475460Y-40635535D01*
X56408480Y-40395444D01*
X56159452Y-40278344D01*
X55892365Y-40212077D01*
X55617483Y-40199190D01*
X55345367Y-40240178D01*
X55086477Y-40333464D01*
X54970520Y-40395444D01*
X54903540Y-40635535D01*
X54159590Y-40635535D01*
X54040035Y-40515980D01*
X53811227Y-40363095D01*
X53556990Y-40257786D01*
X53287092Y-40204100D01*
X53011908Y-40204100D01*
X52742010Y-40257786D01*
X52487773Y-40363095D01*
X52258965Y-40515980D01*
X52064380Y-40710565D01*
X51911495Y-40939373D01*
X51879500Y-41016615D01*
X51847505Y-40939373D01*
X51694620Y-40710565D01*
X51500035Y-40515980D01*
X51271227Y-40363095D01*
X51016990Y-40257786D01*
X50747092Y-40204100D01*
X50471908Y-40204100D01*
X50202010Y-40257786D01*
X49947773Y-40363095D01*
X49718965Y-40515980D01*
X49524380Y-40710565D01*
X49371495Y-40939373D01*
X49266186Y-41193610D01*
X49212500Y-41463508D01*
X47396000Y-41463508D01*
X47396000Y-39719779D01*
X47401652Y-39662138D01*
X47409019Y-39637737D01*
X47420983Y-39615235D01*
X47437091Y-39595486D01*
X47456727Y-39579241D01*
X47479151Y-39567117D01*
X47503492Y-39559582D01*
X47558976Y-39553750D01*
X182530221Y-39553750D01*
X182587862Y-39559402D01*
%TA.AperFunction,Conductor*%
D21*
G36*
X182587862Y-39559402D02*
G01*
X182612263Y-39566769D01*
X182634765Y-39578733D01*
X182654514Y-39594841D01*
X182670759Y-39614477D01*
X182682883Y-39636901D01*
X182690418Y-39661242D01*
X182696251Y-39716735D01*
X182696250Y-58705221D01*
X182690598Y-58762864D01*
X182683232Y-58787260D01*
X182671266Y-58809766D01*
X182655159Y-58829514D01*
X182635523Y-58845759D01*
X182613099Y-58857883D01*
X182588758Y-58865418D01*
X182533275Y-58871250D01*
X158989396Y-58871250D01*
X159002137Y-58858509D01*
X159159180Y-58623477D01*
X159267353Y-58362324D01*
X159322500Y-58085085D01*
X159322500Y-57802415D01*
X159267353Y-57525176D01*
X159159180Y-57264023D01*
X159002137Y-57028991D01*
X158802259Y-56829113D01*
X158567227Y-56672070D01*
X158552499Y-56665969D01*
X158552499Y-53903000D01*
X160867928Y-53903000D01*
X160867928Y-55503000D01*
X160880188Y-55627482D01*
X160916498Y-55747180D01*
X160975463Y-55857494D01*
X161054815Y-55954185D01*
X161151506Y-56033537D01*
X161261820Y-56092502D01*
X161381518Y-56128812D01*
X161506000Y-56141072D01*
X163106000Y-56141072D01*
X163230482Y-56128812D01*
X163350180Y-56092502D01*
X163460494Y-56033537D01*
X163557185Y-55954185D01*
X163636537Y-55857494D01*
X163695502Y-55747180D01*
X163706022Y-55712500D01*
X168899428Y-55712500D01*
X168899428Y-57712500D01*
X168911688Y-57836982D01*
X168947998Y-57956680D01*
X169006963Y-58066994D01*
X169086315Y-58163685D01*
X169183006Y-58243037D01*
X169293320Y-58302002D01*
X169413018Y-58338312D01*
X169537500Y-58350572D01*
X171537500Y-58350572D01*
X171661982Y-58338312D01*
X171781680Y-58302002D01*
X171891994Y-58243037D01*
X171988685Y-58163685D01*
X172068037Y-58066994D01*
X172123476Y-57963277D01*
X172177456Y-58112314D01*
X172467071Y-58253204D01*
X172778608Y-58334884D01*
X173100095Y-58354218D01*
X173419175Y-58310461D01*
X173723588Y-58205295D01*
X173897544Y-58112314D01*
X173993308Y-57847913D01*
X173037500Y-56892105D01*
X173023358Y-56906248D01*
X172843753Y-56726643D01*
X172857895Y-56712500D01*
X173217105Y-56712500D01*
X174172913Y-57668308D01*
X174202575Y-57657565D01*
X174267513Y-57754752D01*
X174495248Y-57982487D01*
X174763037Y-58161418D01*
X175060588Y-58284668D01*
X175376467Y-58347500D01*
X175698533Y-58347500D01*
X176014412Y-58284668D01*
X176311963Y-58161418D01*
X176579752Y-57982487D01*
X176807487Y-57754752D01*
X176986418Y-57486963D01*
X177109668Y-57189412D01*
X177172500Y-56873533D01*
X177172500Y-56551467D01*
X177109668Y-56235588D01*
X176986418Y-55938037D01*
X176807487Y-55670248D01*
X176579752Y-55442513D01*
X176311963Y-55263582D01*
X176014412Y-55140332D01*
X175698533Y-55077500D01*
X175376467Y-55077500D01*
X175060588Y-55140332D01*
X174763037Y-55263582D01*
X174495248Y-55442513D01*
X174267513Y-55670248D01*
X174202575Y-55767435D01*
X174172913Y-55756692D01*
X173217105Y-56712500D01*
X172857895Y-56712500D01*
X172843753Y-56698358D01*
X173023358Y-56518753D01*
X173037500Y-56532895D01*
X173993308Y-55577087D01*
X173897544Y-55312686D01*
X173607929Y-55171796D01*
X173296392Y-55090116D01*
X172974905Y-55070782D01*
X172655825Y-55114539D01*
X172351412Y-55219705D01*
X172177456Y-55312686D01*
X172123476Y-55461723D01*
X172068037Y-55358006D01*
X171988685Y-55261315D01*
X171891994Y-55181963D01*
X171781680Y-55122998D01*
X171661982Y-55086688D01*
X171537500Y-55074428D01*
X169537500Y-55074428D01*
X169413018Y-55086688D01*
X169293320Y-55122998D01*
X169183006Y-55181963D01*
X169086315Y-55261315D01*
X169006963Y-55358006D01*
X168947998Y-55468320D01*
X168911688Y-55588018D01*
X168899428Y-55712500D01*
X163706022Y-55712500D01*
X163731812Y-55627482D01*
X163744072Y-55503000D01*
X163744072Y-53903000D01*
X163731812Y-53778518D01*
X163695502Y-53658820D01*
X163636537Y-53548506D01*
X163557185Y-53451815D01*
X163460494Y-53372463D01*
X163350180Y-53313498D01*
X163230482Y-53277188D01*
X163106000Y-53264928D01*
X161506000Y-53264928D01*
X161381518Y-53277188D01*
X161261820Y-53313498D01*
X161151506Y-53372463D01*
X161054815Y-53451815D01*
X160975463Y-53548506D01*
X160916498Y-53658820D01*
X160880188Y-53778518D01*
X160867928Y-53903000D01*
X158552499Y-53903000D01*
X158552499Y-50714771D01*
X158605173Y-50736589D01*
X158911391Y-50797500D01*
X159223609Y-50797500D01*
X159529827Y-50736589D01*
X159818279Y-50617109D01*
X160077879Y-50443650D01*
X160298650Y-50222879D01*
X160472109Y-49963279D01*
X160591589Y-49674827D01*
X160652500Y-49368609D01*
X160652500Y-49056391D01*
X166372500Y-49056391D01*
X166372500Y-49368609D01*
X166433411Y-49674827D01*
X166552891Y-49963279D01*
X166726350Y-50222879D01*
X166947121Y-50443650D01*
X167206721Y-50617109D01*
X167495173Y-50736589D01*
X167801391Y-50797500D01*
X168113609Y-50797500D01*
X168419827Y-50736589D01*
X168708279Y-50617109D01*
X168967879Y-50443650D01*
X169188650Y-50222879D01*
X169362109Y-49963279D01*
X169481589Y-49674827D01*
X169542500Y-49368609D01*
X169542500Y-49056391D01*
X169490891Y-48796935D01*
X169850256Y-48725453D01*
X170238802Y-48564512D01*
X170461248Y-48415878D01*
X170455683Y-48429314D01*
X170352500Y-48948051D01*
X170352500Y-49476949D01*
X170455683Y-49995686D01*
X170658083Y-50484325D01*
X170951924Y-50924088D01*
X171325912Y-51298076D01*
X171765675Y-51591917D01*
X172254314Y-51794317D01*
X172773051Y-51897500D01*
X173301949Y-51897500D01*
X173820686Y-51794317D01*
X173820780Y-51794278D01*
X178322000Y-51794278D01*
X178322000Y-52091722D01*
X178380029Y-52383451D01*
X178493856Y-52658253D01*
X178659107Y-52905569D01*
X178869431Y-53115893D01*
X179116747Y-53281144D01*
X179391549Y-53394971D01*
X179683278Y-53453000D01*
X179980722Y-53453000D01*
X180272451Y-53394971D01*
X180547253Y-53281144D01*
X180794569Y-53115893D01*
X181004893Y-52905569D01*
X181170144Y-52658253D01*
X181283971Y-52383451D01*
X181342000Y-52091722D01*
X181342000Y-51794278D01*
X181283971Y-51502549D01*
X181170144Y-51227747D01*
X181004893Y-50980431D01*
X180794569Y-50770107D01*
X180547253Y-50604856D01*
X180272451Y-50491029D01*
X179980722Y-50433000D01*
X179683278Y-50433000D01*
X179391549Y-50491029D01*
X179116747Y-50604856D01*
X178869431Y-50770107D01*
X178659107Y-50980431D01*
X178493856Y-51227747D01*
X178380029Y-51502549D01*
X178322000Y-51794278D01*
X173820780Y-51794278D01*
X174309325Y-51591917D01*
X174749088Y-51298076D01*
X175123076Y-50924088D01*
X175416917Y-50484325D01*
X175619317Y-49995686D01*
X175722500Y-49476949D01*
X175722500Y-49056391D01*
X176532500Y-49056391D01*
X176532500Y-49368609D01*
X176593411Y-49674827D01*
X176712891Y-49963279D01*
X176886350Y-50222879D01*
X177107121Y-50443650D01*
X177366721Y-50617109D01*
X177655173Y-50736589D01*
X177961391Y-50797500D01*
X178273609Y-50797500D01*
X178579827Y-50736589D01*
X178868279Y-50617109D01*
X179127879Y-50443650D01*
X179348650Y-50222879D01*
X179522109Y-49963279D01*
X179641589Y-49674827D01*
X179702500Y-49368609D01*
X179702500Y-49321363D01*
X179807000Y-49321363D01*
X179807000Y-49564637D01*
X179854460Y-49803236D01*
X179947557Y-50027992D01*
X180082713Y-50230267D01*
X180254733Y-50402287D01*
X180457008Y-50537443D01*
X180681764Y-50630540D01*
X180920363Y-50678000D01*
X181163637Y-50678000D01*
X181402236Y-50630540D01*
X181626992Y-50537443D01*
X181829267Y-50402287D01*
X182001287Y-50230267D01*
X182136443Y-50027992D01*
X182229540Y-49803236D01*
X182277000Y-49564637D01*
X182277000Y-49321363D01*
X182229540Y-49082764D01*
X182136443Y-48858008D01*
X182001287Y-48655733D01*
X181829267Y-48483713D01*
X181626992Y-48348557D01*
X181402236Y-48255460D01*
X181163637Y-48208000D01*
X180920363Y-48208000D01*
X180681764Y-48255460D01*
X180457008Y-48348557D01*
X180254733Y-48483713D01*
X180082713Y-48655733D01*
X179947557Y-48858008D01*
X179854460Y-49082764D01*
X179807000Y-49321363D01*
X179702500Y-49321363D01*
X179702500Y-49056391D01*
X179641589Y-48750173D01*
X179522109Y-48461721D01*
X179490368Y-48414217D01*
X179602526Y-48442855D01*
X179899543Y-48458804D01*
X180193963Y-48416501D01*
X180474474Y-48317572D01*
X180617975Y-48240868D01*
X180698635Y-47989240D01*
X179832000Y-47122605D01*
X179817858Y-47136748D01*
X179638253Y-46957143D01*
X179652395Y-46943000D01*
X180011605Y-46943000D01*
X180878240Y-47809635D01*
X181129868Y-47728975D01*
X181258267Y-47460671D01*
X181331855Y-47172474D01*
X181347804Y-46875457D01*
X181305501Y-46581037D01*
X181206572Y-46300526D01*
X181129868Y-46157025D01*
X180878240Y-46076365D01*
X180011605Y-46943000D01*
X179652395Y-46943000D01*
X178785760Y-46076365D01*
X178534132Y-46157025D01*
X178405733Y-46425329D01*
X178332145Y-46713526D01*
X178316196Y-47010543D01*
X178358499Y-47304963D01*
X178457428Y-47585474D01*
X178504434Y-47673414D01*
X178273609Y-47627500D01*
X177961391Y-47627500D01*
X177655173Y-47688411D01*
X177366721Y-47807891D01*
X177107121Y-47981350D01*
X176886350Y-48202121D01*
X176712891Y-48461721D01*
X176593411Y-48750173D01*
X176532500Y-49056391D01*
X175722500Y-49056391D01*
X175722500Y-48948051D01*
X175619317Y-48429314D01*
X175416917Y-47940675D01*
X175123076Y-47500912D01*
X174749088Y-47126924D01*
X174309325Y-46833083D01*
X173820686Y-46630683D01*
X173301949Y-46527500D01*
X172773051Y-46527500D01*
X172254314Y-46630683D01*
X171765675Y-46833083D01*
X171325912Y-47126924D01*
X171310963Y-47141873D01*
X171362500Y-46882779D01*
X171362500Y-46462221D01*
X171280453Y-46049744D01*
X171119512Y-45661198D01*
X170885863Y-45311517D01*
X170588483Y-45014137D01*
X170238802Y-44780488D01*
X169850256Y-44619547D01*
X169437779Y-44537500D01*
X169017221Y-44537500D01*
X168604744Y-44619547D01*
X168216198Y-44780488D01*
X167866517Y-45014137D01*
X167569137Y-45311517D01*
X167335488Y-45661198D01*
X167174547Y-46049744D01*
X167092500Y-46462221D01*
X167092500Y-46882779D01*
X167174547Y-47295256D01*
X167335488Y-47683802D01*
X167372515Y-47739217D01*
X167206721Y-47807891D01*
X166947121Y-47981350D01*
X166726350Y-48202121D01*
X166552891Y-48461721D01*
X166433411Y-48750173D01*
X166372500Y-49056391D01*
X160652500Y-49056391D01*
X160591589Y-48750173D01*
X160472109Y-48461721D01*
X160298650Y-48202121D01*
X160077879Y-47981350D01*
X159818279Y-47807891D01*
X159529827Y-47688411D01*
X159223609Y-47627500D01*
X158911391Y-47627500D01*
X158605173Y-47688411D01*
X158552499Y-47710229D01*
X158552499Y-47529878D01*
X158610817Y-47529878D01*
X158810776Y-47490104D01*
X158999134Y-47412083D01*
X159168652Y-47298815D01*
X159312815Y-47154652D01*
X159426083Y-46985134D01*
X159504104Y-46796776D01*
X159511087Y-46761665D01*
X160871000Y-46761665D01*
X160871000Y-47044335D01*
X160926147Y-47321574D01*
X161034320Y-47582727D01*
X161191363Y-47817759D01*
X161391241Y-48017637D01*
X161626273Y-48174680D01*
X161887426Y-48282853D01*
X162164665Y-48338000D01*
X162447335Y-48338000D01*
X162724574Y-48282853D01*
X162985727Y-48174680D01*
X163220759Y-48017637D01*
X163420637Y-47817759D01*
X163577680Y-47582727D01*
X163685853Y-47321574D01*
X163741000Y-47044335D01*
X163741000Y-46761665D01*
X163685853Y-46484426D01*
X163577680Y-46223273D01*
X163420637Y-45988241D01*
X163220759Y-45788363D01*
X162985727Y-45631320D01*
X162724574Y-45523147D01*
X162447335Y-45468000D01*
X162164665Y-45468000D01*
X161887426Y-45523147D01*
X161626273Y-45631320D01*
X161391241Y-45788363D01*
X161191363Y-45988241D01*
X161034320Y-46223273D01*
X160926147Y-46484426D01*
X160871000Y-46761665D01*
X159511087Y-46761665D01*
X159543878Y-46596817D01*
X159543878Y-46392939D01*
X159504104Y-46192980D01*
X159426083Y-46004622D01*
X159312815Y-45835104D01*
X159168652Y-45690941D01*
X158999134Y-45577673D01*
X158810776Y-45499652D01*
X158610817Y-45459878D01*
X158406939Y-45459878D01*
X158206980Y-45499652D01*
X158160400Y-45518946D01*
X158185863Y-45493483D01*
X158419512Y-45143802D01*
X158580453Y-44755256D01*
X158662500Y-44342779D01*
X158662500Y-43922221D01*
X158580453Y-43509744D01*
X158419512Y-43121198D01*
X158185863Y-42771517D01*
X157888483Y-42474137D01*
X157538802Y-42240488D01*
X157150256Y-42079547D01*
X156737779Y-41997500D01*
X156317221Y-41997500D01*
X155904744Y-42079547D01*
X155516198Y-42240488D01*
X155166517Y-42474137D01*
X154869137Y-42771517D01*
X154635488Y-43121198D01*
X154474547Y-43509744D01*
X154392500Y-43922221D01*
X154392500Y-44342779D01*
X154474547Y-44755256D01*
X154635488Y-45143802D01*
X154869137Y-45493483D01*
X155166517Y-45790863D01*
X155516198Y-46024512D01*
X155904744Y-46185453D01*
X156317221Y-46267500D01*
X156737779Y-46267500D01*
X157150256Y-46185453D01*
X157538802Y-46024512D01*
X157610307Y-45976734D01*
X157591673Y-46004622D01*
X157513652Y-46192980D01*
X157473878Y-46392939D01*
X157473878Y-46455077D01*
X157281497Y-46647458D01*
X157252499Y-46671256D01*
X157228701Y-46700254D01*
X157228700Y-46700255D01*
X157157525Y-46786981D01*
X157086953Y-46919011D01*
X157071184Y-46970996D01*
X157043497Y-47062271D01*
X157040885Y-47088791D01*
X157028823Y-47211257D01*
X157032500Y-47248589D01*
X157032499Y-56789184D01*
X156972741Y-56829113D01*
X156772863Y-57028991D01*
X156615820Y-57264023D01*
X156507647Y-57525176D01*
X156452500Y-57802415D01*
X156452500Y-58085085D01*
X156507647Y-58362324D01*
X156615820Y-58623477D01*
X156772863Y-58858509D01*
X156785604Y-58871250D01*
X151512396Y-58871250D01*
X151513312Y-58868232D01*
X151525572Y-58743750D01*
X151525572Y-57143750D01*
X151513312Y-57019268D01*
X151477002Y-56899570D01*
X151418037Y-56789256D01*
X151338685Y-56692565D01*
X151241994Y-56613213D01*
X151131680Y-56554248D01*
X151011982Y-56517938D01*
X150887500Y-56505678D01*
X149814230Y-56505678D01*
X147445000Y-54136449D01*
X147445000Y-50676320D01*
X147448676Y-50638997D01*
X147445000Y-50601674D01*
X147445000Y-50601665D01*
X147434003Y-50490012D01*
X147390546Y-50346751D01*
X147358962Y-50287662D01*
X147319974Y-50214721D01*
X147248799Y-50127995D01*
X147225001Y-50098997D01*
X147196003Y-50075199D01*
X146177195Y-49056391D01*
X147322500Y-49056391D01*
X147322500Y-49368609D01*
X147383411Y-49674827D01*
X147502891Y-49963279D01*
X147676350Y-50222879D01*
X147897121Y-50443650D01*
X148156721Y-50617109D01*
X148445173Y-50736589D01*
X148751391Y-50797500D01*
X149063609Y-50797500D01*
X149369827Y-50736589D01*
X149658279Y-50617109D01*
X149917879Y-50443650D01*
X150138650Y-50222879D01*
X150312109Y-49963279D01*
X150431589Y-49674827D01*
X150492500Y-49368609D01*
X150492500Y-49056391D01*
X150440891Y-48796935D01*
X150800256Y-48725453D01*
X151188802Y-48564512D01*
X151411248Y-48415878D01*
X151405683Y-48429314D01*
X151302500Y-48948051D01*
X151302500Y-49476949D01*
X151405683Y-49995686D01*
X151608083Y-50484325D01*
X151901924Y-50924088D01*
X152275912Y-51298076D01*
X152715675Y-51591917D01*
X153204314Y-51794317D01*
X153723051Y-51897500D01*
X154251949Y-51897500D01*
X154770686Y-51794317D01*
X155259325Y-51591917D01*
X155699088Y-51298076D01*
X156073076Y-50924088D01*
X156366917Y-50484325D01*
X156569317Y-49995686D01*
X156672500Y-49476949D01*
X156672500Y-48948051D01*
X156569317Y-48429314D01*
X156366917Y-47940675D01*
X156073076Y-47500912D01*
X155699088Y-47126924D01*
X155259325Y-46833083D01*
X154770686Y-46630683D01*
X154251949Y-46527500D01*
X153723051Y-46527500D01*
X153204314Y-46630683D01*
X152715675Y-46833083D01*
X152275912Y-47126924D01*
X152260963Y-47141873D01*
X152312500Y-46882779D01*
X152312500Y-46462221D01*
X152230453Y-46049744D01*
X152069512Y-45661198D01*
X151835863Y-45311517D01*
X151538483Y-45014137D01*
X151188802Y-44780488D01*
X150800256Y-44619547D01*
X150387779Y-44537500D01*
X149967221Y-44537500D01*
X149554744Y-44619547D01*
X149166198Y-44780488D01*
X148816517Y-45014137D01*
X148519137Y-45311517D01*
X148285488Y-45661198D01*
X148124547Y-46049744D01*
X148042500Y-46462221D01*
X148042500Y-46882779D01*
X148124547Y-47295256D01*
X148285488Y-47683802D01*
X148322515Y-47739217D01*
X148156721Y-47807891D01*
X147897121Y-47981350D01*
X147676350Y-48202121D01*
X147502891Y-48461721D01*
X147383411Y-48750173D01*
X147322500Y-49056391D01*
X146177195Y-49056391D01*
X138944803Y-41823999D01*
X161027500Y-41823999D01*
X161027500Y-42313501D01*
X161122997Y-42793598D01*
X161310321Y-43245839D01*
X161582274Y-43652845D01*
X161928405Y-43998976D01*
X162335411Y-44270929D01*
X162787652Y-44458253D01*
X163267749Y-44553750D01*
X163757251Y-44553750D01*
X164237348Y-44458253D01*
X164689589Y-44270929D01*
X165096595Y-43998976D01*
X165173350Y-43922221D01*
X173442500Y-43922221D01*
X173442500Y-44342779D01*
X173524547Y-44755256D01*
X173685488Y-45143802D01*
X173919137Y-45493483D01*
X174216517Y-45790863D01*
X174566198Y-46024512D01*
X174954744Y-46185453D01*
X175367221Y-46267500D01*
X175787779Y-46267500D01*
X176200256Y-46185453D01*
X176588802Y-46024512D01*
X176779996Y-45896760D01*
X178965365Y-45896760D01*
X179832000Y-46763395D01*
X180698635Y-45896760D01*
X180617975Y-45645132D01*
X180349671Y-45516733D01*
X180061474Y-45443145D01*
X179764457Y-45427196D01*
X179470037Y-45469499D01*
X179189526Y-45568428D01*
X179046025Y-45645132D01*
X178965365Y-45896760D01*
X176779996Y-45896760D01*
X176938483Y-45790863D01*
X177235863Y-45493483D01*
X177469512Y-45143802D01*
X177630453Y-44755256D01*
X177712500Y-44342779D01*
X177712500Y-43922221D01*
X177630453Y-43509744D01*
X177469512Y-43121198D01*
X177235863Y-42771517D01*
X177116983Y-42652637D01*
X177172500Y-42373533D01*
X177172500Y-42051467D01*
X177109668Y-41735588D01*
X176986418Y-41438037D01*
X176807487Y-41170248D01*
X176579752Y-40942513D01*
X176311963Y-40763582D01*
X176014412Y-40640332D01*
X175698533Y-40577500D01*
X175376467Y-40577500D01*
X175060588Y-40640332D01*
X174763037Y-40763582D01*
X174495248Y-40942513D01*
X174267513Y-41170248D01*
X174088582Y-41438037D01*
X173965332Y-41735588D01*
X173902500Y-42051467D01*
X173902500Y-42373533D01*
X173965332Y-42689412D01*
X173975850Y-42714804D01*
X173919137Y-42771517D01*
X173685488Y-43121198D01*
X173524547Y-43509744D01*
X173442500Y-43922221D01*
X165173350Y-43922221D01*
X165442726Y-43652845D01*
X165714679Y-43245839D01*
X165902003Y-42793598D01*
X165997500Y-42313501D01*
X165997500Y-42051467D01*
X168902500Y-42051467D01*
X168902500Y-42373533D01*
X168965332Y-42689412D01*
X169088582Y-42986963D01*
X169267513Y-43254752D01*
X169495248Y-43482487D01*
X169763037Y-43661418D01*
X170060588Y-43784668D01*
X170376467Y-43847500D01*
X170698533Y-43847500D01*
X171014412Y-43784668D01*
X171311963Y-43661418D01*
X171579752Y-43482487D01*
X171807487Y-43254752D01*
X171986418Y-42986963D01*
X172109668Y-42689412D01*
X172172500Y-42373533D01*
X172172500Y-42051467D01*
X172109668Y-41735588D01*
X171986418Y-41438037D01*
X171807487Y-41170248D01*
X171579752Y-40942513D01*
X171311963Y-40763582D01*
X171014412Y-40640332D01*
X170698533Y-40577500D01*
X170376467Y-40577500D01*
X170060588Y-40640332D01*
X169763037Y-40763582D01*
X169495248Y-40942513D01*
X169267513Y-41170248D01*
X169088582Y-41438037D01*
X168965332Y-41735588D01*
X168902500Y-42051467D01*
X165997500Y-42051467D01*
X165997500Y-41823999D01*
X165902003Y-41343902D01*
X165714679Y-40891661D01*
X165442726Y-40484655D01*
X165096595Y-40138524D01*
X164689589Y-39866571D01*
X164237348Y-39679247D01*
X163757251Y-39583750D01*
X163267749Y-39583750D01*
X162787652Y-39679247D01*
X162335411Y-39866571D01*
X161928405Y-40138524D01*
X161582274Y-40484655D01*
X161310321Y-40891661D01*
X161122997Y-41343902D01*
X161027500Y-41823999D01*
X138944803Y-41823999D01*
X138043452Y-40922649D01*
X138028226Y-40846102D01*
X137950205Y-40657744D01*
X137836937Y-40488226D01*
X137692774Y-40344063D01*
X137523256Y-40230795D01*
X137334898Y-40152774D01*
X137134939Y-40113000D01*
X136931061Y-40113000D01*
X136731102Y-40152774D01*
X136542744Y-40230795D01*
X136373226Y-40344063D01*
X136229063Y-40488226D01*
X136115795Y-40657744D01*
X136037774Y-40846102D01*
X135998000Y-41046061D01*
X135998000Y-41249939D01*
X136037774Y-41449898D01*
X136115795Y-41638256D01*
X136229063Y-41807774D01*
X136373226Y-41951937D01*
X136542744Y-42065205D01*
X136716056Y-42136994D01*
X136466198Y-42240488D01*
X136116517Y-42474137D01*
X135819137Y-42771517D01*
X135585488Y-43121198D01*
X135424547Y-43509744D01*
X135342500Y-43922221D01*
X135342500Y-44342779D01*
X135424547Y-44755256D01*
X135585488Y-45143802D01*
X135819137Y-45493483D01*
X136116517Y-45790863D01*
X136466198Y-46024512D01*
X136854744Y-46185453D01*
X137267221Y-46267500D01*
X137687779Y-46267500D01*
X138100256Y-46185453D01*
X138488802Y-46024512D01*
X138838483Y-45790863D01*
X139135863Y-45493483D01*
X139369512Y-45143802D01*
X139530453Y-44755256D01*
X139562972Y-44591771D01*
X145925001Y-50953801D01*
X145925000Y-54413927D01*
X145921324Y-54451250D01*
X145925000Y-54488572D01*
X145925000Y-54488582D01*
X145935997Y-54600235D01*
X145979454Y-54743496D01*
X146050026Y-54875526D01*
X146089871Y-54924076D01*
X146144999Y-54991251D01*
X146174003Y-55015054D01*
X148649428Y-57490480D01*
X148649428Y-58743750D01*
X148661688Y-58868232D01*
X148662604Y-58871250D01*
X139939396Y-58871250D01*
X139952137Y-58858509D01*
X140109180Y-58623477D01*
X140217353Y-58362324D01*
X140272500Y-58085085D01*
X140272500Y-57802415D01*
X140217353Y-57525176D01*
X140109180Y-57264023D01*
X139952137Y-57028991D01*
X139752259Y-56829113D01*
X139517227Y-56672070D01*
X139298001Y-56581264D01*
X139298001Y-50630066D01*
X139555173Y-50736589D01*
X139861391Y-50797500D01*
X140173609Y-50797500D01*
X140479827Y-50736589D01*
X140768279Y-50617109D01*
X141027879Y-50443650D01*
X141248650Y-50222879D01*
X141422109Y-49963279D01*
X141541589Y-49674827D01*
X141602500Y-49368609D01*
X141602500Y-49056391D01*
X141541589Y-48750173D01*
X141422109Y-48461721D01*
X141248650Y-48202121D01*
X141027879Y-47981350D01*
X140768279Y-47807891D01*
X140479827Y-47688411D01*
X140173609Y-47627500D01*
X139973000Y-47627500D01*
X139973000Y-47523061D01*
X139933226Y-47323102D01*
X139855205Y-47134744D01*
X139741937Y-46965226D01*
X139597774Y-46821063D01*
X139428256Y-46707795D01*
X139239898Y-46629774D01*
X139039939Y-46590000D01*
X138836061Y-46590000D01*
X138636102Y-46629774D01*
X138447744Y-46707795D01*
X138278226Y-46821063D01*
X138134063Y-46965226D01*
X138020795Y-47134744D01*
X137942774Y-47323102D01*
X137903000Y-47523061D01*
X137903000Y-47600774D01*
X137855973Y-47688755D01*
X137832455Y-47732753D01*
X137788998Y-47876014D01*
X137778001Y-47987667D01*
X137778001Y-47987677D01*
X137774325Y-48024999D01*
X137778001Y-48062321D01*
X137778002Y-56973852D01*
X137722863Y-57028991D01*
X137565820Y-57264023D01*
X137457647Y-57525176D01*
X137402500Y-57802415D01*
X137402500Y-58085085D01*
X137457647Y-58362324D01*
X137565820Y-58623477D01*
X137722863Y-58858509D01*
X137735604Y-58871250D01*
X132462396Y-58871250D01*
X132463312Y-58868232D01*
X132475572Y-58743750D01*
X132475572Y-57143750D01*
X132463312Y-57019268D01*
X132427002Y-56899570D01*
X132368037Y-56789256D01*
X132288685Y-56692565D01*
X132191994Y-56613213D01*
X132081680Y-56554248D01*
X131961982Y-56517938D01*
X131837500Y-56505678D01*
X130237500Y-56505678D01*
X130113018Y-56517938D01*
X129993320Y-56554248D01*
X129883006Y-56613213D01*
X129786315Y-56692565D01*
X129706963Y-56789256D01*
X129647998Y-56899570D01*
X129611688Y-57019268D01*
X129599428Y-57143750D01*
X129599428Y-58743750D01*
X129611688Y-58868232D01*
X129612604Y-58871250D01*
X120889396Y-58871250D01*
X120902137Y-58858509D01*
X121059180Y-58623477D01*
X121167353Y-58362324D01*
X121222500Y-58085085D01*
X121222500Y-57802415D01*
X121167353Y-57525176D01*
X121059180Y-57264023D01*
X120902137Y-57028991D01*
X120702259Y-56829113D01*
X120467227Y-56672070D01*
X120216251Y-56568112D01*
X120216251Y-56111499D01*
X122927500Y-56111499D01*
X122927500Y-56601001D01*
X123022997Y-57081098D01*
X123210321Y-57533339D01*
X123482274Y-57940345D01*
X123828405Y-58286476D01*
X124235411Y-58558429D01*
X124687652Y-58745753D01*
X125167749Y-58841250D01*
X125657251Y-58841250D01*
X126137348Y-58745753D01*
X126589589Y-58558429D01*
X126996595Y-58286476D01*
X127342726Y-57940345D01*
X127614679Y-57533339D01*
X127802003Y-57081098D01*
X127897500Y-56601001D01*
X127897500Y-56111499D01*
X127802003Y-55631402D01*
X127614679Y-55179161D01*
X127342726Y-54772155D01*
X126996595Y-54426024D01*
X126589589Y-54154071D01*
X126137348Y-53966747D01*
X125657251Y-53871250D01*
X125167749Y-53871250D01*
X124687652Y-53966747D01*
X124235411Y-54154071D01*
X123828405Y-54426024D01*
X123482274Y-54772155D01*
X123210321Y-55179161D01*
X123022997Y-55631402D01*
X122927500Y-56111499D01*
X120216251Y-56111499D01*
X120216251Y-50616795D01*
X120216721Y-50617109D01*
X120505173Y-50736589D01*
X120811391Y-50797500D01*
X121123609Y-50797500D01*
X121429827Y-50736589D01*
X121718279Y-50617109D01*
X121977879Y-50443650D01*
X122198650Y-50222879D01*
X122372109Y-49963279D01*
X122491589Y-49674827D01*
X122552500Y-49368609D01*
X122552500Y-49056391D01*
X128272500Y-49056391D01*
X128272500Y-49368609D01*
X128333411Y-49674827D01*
X128452891Y-49963279D01*
X128626350Y-50222879D01*
X128847121Y-50443650D01*
X129106721Y-50617109D01*
X129395173Y-50736589D01*
X129701391Y-50797500D01*
X130013609Y-50797500D01*
X130319827Y-50736589D01*
X130608279Y-50617109D01*
X130867879Y-50443650D01*
X131088650Y-50222879D01*
X131262109Y-49963279D01*
X131381589Y-49674827D01*
X131442500Y-49368609D01*
X131442500Y-49056391D01*
X131390891Y-48796935D01*
X131750256Y-48725453D01*
X132138802Y-48564512D01*
X132361248Y-48415878D01*
X132355683Y-48429314D01*
X132252500Y-48948051D01*
X132252500Y-49476949D01*
X132355683Y-49995686D01*
X132558083Y-50484325D01*
X132851924Y-50924088D01*
X133225912Y-51298076D01*
X133665675Y-51591917D01*
X134154314Y-51794317D01*
X134673051Y-51897500D01*
X135201949Y-51897500D01*
X135720686Y-51794317D01*
X136209325Y-51591917D01*
X136649088Y-51298076D01*
X137023076Y-50924088D01*
X137316917Y-50484325D01*
X137519317Y-49995686D01*
X137622500Y-49476949D01*
X137622500Y-48948051D01*
X137519317Y-48429314D01*
X137316917Y-47940675D01*
X137023076Y-47500912D01*
X136649088Y-47126924D01*
X136209325Y-46833083D01*
X135720686Y-46630683D01*
X135201949Y-46527500D01*
X134673051Y-46527500D01*
X134154314Y-46630683D01*
X133665675Y-46833083D01*
X133225912Y-47126924D01*
X133210963Y-47141873D01*
X133262500Y-46882779D01*
X133262500Y-46462221D01*
X133180453Y-46049744D01*
X133019512Y-45661198D01*
X132785863Y-45311517D01*
X132488483Y-45014137D01*
X132138802Y-44780488D01*
X131750256Y-44619547D01*
X131337779Y-44537500D01*
X130917221Y-44537500D01*
X130504744Y-44619547D01*
X130116198Y-44780488D01*
X129766517Y-45014137D01*
X129469137Y-45311517D01*
X129235488Y-45661198D01*
X129074547Y-46049744D01*
X128992500Y-46462221D01*
X128992500Y-46882779D01*
X129074547Y-47295256D01*
X129235488Y-47683802D01*
X129272515Y-47739217D01*
X129106721Y-47807891D01*
X128847121Y-47981350D01*
X128626350Y-48202121D01*
X128452891Y-48461721D01*
X128333411Y-48750173D01*
X128272500Y-49056391D01*
X122552500Y-49056391D01*
X122491589Y-48750173D01*
X122372109Y-48461721D01*
X122198650Y-48202121D01*
X121977879Y-47981350D01*
X121718279Y-47807891D01*
X121429827Y-47688411D01*
X121123609Y-47627500D01*
X120891250Y-47627500D01*
X120891250Y-47523061D01*
X120851476Y-47323102D01*
X120773455Y-47134744D01*
X120660187Y-46965226D01*
X120516024Y-46821063D01*
X120346506Y-46707795D01*
X120158148Y-46629774D01*
X119958189Y-46590000D01*
X119754311Y-46590000D01*
X119554352Y-46629774D01*
X119365994Y-46707795D01*
X119196476Y-46821063D01*
X119052313Y-46965226D01*
X118939045Y-47134744D01*
X118861024Y-47323102D01*
X118821250Y-47523061D01*
X118821250Y-47600774D01*
X118774223Y-47688755D01*
X118750705Y-47732753D01*
X118707248Y-47876014D01*
X118696251Y-47987667D01*
X118696251Y-47987677D01*
X118692575Y-48024999D01*
X118696251Y-48062321D01*
X118696252Y-57005602D01*
X118672863Y-57028991D01*
X118515820Y-57264023D01*
X118407647Y-57525176D01*
X118352500Y-57802415D01*
X118352500Y-58085085D01*
X118407647Y-58362324D01*
X118515820Y-58623477D01*
X118672863Y-58858509D01*
X118685604Y-58871250D01*
X113412396Y-58871250D01*
X113413312Y-58868232D01*
X113425572Y-58743750D01*
X113425572Y-57143750D01*
X113413312Y-57019268D01*
X113377002Y-56899570D01*
X113318037Y-56789256D01*
X113238685Y-56692565D01*
X113141994Y-56613213D01*
X113031680Y-56554248D01*
X112911982Y-56517938D01*
X112787500Y-56505678D01*
X111187500Y-56505678D01*
X111063018Y-56517938D01*
X110943320Y-56554248D01*
X110833006Y-56613213D01*
X110736315Y-56692565D01*
X110656963Y-56789256D01*
X110597998Y-56899570D01*
X110561688Y-57019268D01*
X110549428Y-57143750D01*
X110549428Y-58743750D01*
X110561688Y-58868232D01*
X110562604Y-58871250D01*
X101839396Y-58871250D01*
X101852137Y-58858509D01*
X102009180Y-58623477D01*
X102117353Y-58362324D01*
X102172500Y-58085085D01*
X102172500Y-57802415D01*
X102117353Y-57525176D01*
X102009180Y-57264023D01*
X101852137Y-57028991D01*
X101652259Y-56829113D01*
X101417227Y-56672070D01*
X101198001Y-56581264D01*
X101198001Y-50630066D01*
X101455173Y-50736589D01*
X101761391Y-50797500D01*
X102073609Y-50797500D01*
X102379827Y-50736589D01*
X102668279Y-50617109D01*
X102927879Y-50443650D01*
X103148650Y-50222879D01*
X103322109Y-49963279D01*
X103441589Y-49674827D01*
X103502500Y-49368609D01*
X103502500Y-49056391D01*
X109222500Y-49056391D01*
X109222500Y-49368609D01*
X109283411Y-49674827D01*
X109402891Y-49963279D01*
X109576350Y-50222879D01*
X109797121Y-50443650D01*
X110056721Y-50617109D01*
X110345173Y-50736589D01*
X110651391Y-50797500D01*
X110963609Y-50797500D01*
X111269827Y-50736589D01*
X111558279Y-50617109D01*
X111817879Y-50443650D01*
X112038650Y-50222879D01*
X112212109Y-49963279D01*
X112331589Y-49674827D01*
X112392500Y-49368609D01*
X112392500Y-49056391D01*
X112340891Y-48796935D01*
X112700256Y-48725453D01*
X113088802Y-48564512D01*
X113311248Y-48415878D01*
X113305683Y-48429314D01*
X113202500Y-48948051D01*
X113202500Y-49476949D01*
X113305683Y-49995686D01*
X113508083Y-50484325D01*
X113801924Y-50924088D01*
X114175912Y-51298076D01*
X114615675Y-51591917D01*
X115104314Y-51794317D01*
X115623051Y-51897500D01*
X116151949Y-51897500D01*
X116670686Y-51794317D01*
X117159325Y-51591917D01*
X117599088Y-51298076D01*
X117973076Y-50924088D01*
X118266917Y-50484325D01*
X118469317Y-49995686D01*
X118572500Y-49476949D01*
X118572500Y-48948051D01*
X118469317Y-48429314D01*
X118266917Y-47940675D01*
X117973076Y-47500912D01*
X117599088Y-47126924D01*
X117159325Y-46833083D01*
X116670686Y-46630683D01*
X116151949Y-46527500D01*
X115623051Y-46527500D01*
X115104314Y-46630683D01*
X114615675Y-46833083D01*
X114175912Y-47126924D01*
X114160963Y-47141873D01*
X114212500Y-46882779D01*
X114212500Y-46462221D01*
X114130453Y-46049744D01*
X113969512Y-45661198D01*
X113735863Y-45311517D01*
X113438483Y-45014137D01*
X113088802Y-44780488D01*
X112700256Y-44619547D01*
X112287779Y-44537500D01*
X111867221Y-44537500D01*
X111454744Y-44619547D01*
X111066198Y-44780488D01*
X110716517Y-45014137D01*
X110419137Y-45311517D01*
X110185488Y-45661198D01*
X110024547Y-46049744D01*
X109942500Y-46462221D01*
X109942500Y-46882779D01*
X110024547Y-47295256D01*
X110185488Y-47683802D01*
X110222515Y-47739217D01*
X110056721Y-47807891D01*
X109797121Y-47981350D01*
X109576350Y-48202121D01*
X109402891Y-48461721D01*
X109283411Y-48750173D01*
X109222500Y-49056391D01*
X103502500Y-49056391D01*
X103441589Y-48750173D01*
X103322109Y-48461721D01*
X103148650Y-48202121D01*
X102927879Y-47981350D01*
X102668279Y-47807891D01*
X102379827Y-47688411D01*
X102073609Y-47627500D01*
X101843251Y-47627500D01*
X101833226Y-47577102D01*
X101755205Y-47388744D01*
X101641937Y-47219226D01*
X101497774Y-47075063D01*
X101328256Y-46961795D01*
X101139898Y-46883774D01*
X100939939Y-46844000D01*
X100736061Y-46844000D01*
X100536102Y-46883774D01*
X100347744Y-46961795D01*
X100178226Y-47075063D01*
X100034063Y-47219226D01*
X99920795Y-47388744D01*
X99842774Y-47577102D01*
X99803000Y-47777061D01*
X99803000Y-47854774D01*
X99738773Y-47974933D01*
X99732455Y-47986753D01*
X99688998Y-48130014D01*
X99678001Y-48241667D01*
X99678001Y-48241677D01*
X99674325Y-48278999D01*
X99678001Y-48316321D01*
X99678002Y-56973852D01*
X99622863Y-57028991D01*
X99465820Y-57264023D01*
X99357647Y-57525176D01*
X99302500Y-57802415D01*
X99302500Y-58085085D01*
X99357647Y-58362324D01*
X99465820Y-58623477D01*
X99622863Y-58858509D01*
X99635604Y-58871250D01*
X94362396Y-58871250D01*
X94363312Y-58868232D01*
X94375572Y-58743750D01*
X94375572Y-57143750D01*
X94363312Y-57019268D01*
X94327002Y-56899570D01*
X94268037Y-56789256D01*
X94188685Y-56692565D01*
X94091994Y-56613213D01*
X93981680Y-56554248D01*
X93861982Y-56517938D01*
X93737500Y-56505678D01*
X92137500Y-56505678D01*
X92013018Y-56517938D01*
X91893320Y-56554248D01*
X91783006Y-56613213D01*
X91686315Y-56692565D01*
X91606963Y-56789256D01*
X91547998Y-56899570D01*
X91511688Y-57019268D01*
X91499428Y-57143750D01*
X91499428Y-58743750D01*
X91511688Y-58868232D01*
X91512604Y-58871250D01*
X47562029Y-58871250D01*
X47504386Y-58865598D01*
X47479990Y-58858232D01*
X47457484Y-58846266D01*
X47437736Y-58830159D01*
X47421491Y-58810523D01*
X47409367Y-58788099D01*
X47401832Y-58763758D01*
X47396000Y-58708275D01*
X47396000Y-56683508D01*
X49212500Y-56683508D01*
X49212500Y-56958692D01*
X49266186Y-57228590D01*
X49371495Y-57482827D01*
X49524380Y-57711635D01*
X49718965Y-57906220D01*
X49947773Y-58059105D01*
X50202010Y-58164414D01*
X50471908Y-58218100D01*
X50747092Y-58218100D01*
X51016990Y-58164414D01*
X51271227Y-58059105D01*
X51500035Y-57906220D01*
X51619590Y-57786665D01*
X52363540Y-57786665D01*
X52430520Y-58026756D01*
X52679548Y-58143856D01*
X52946635Y-58210123D01*
X53221517Y-58223010D01*
X53493633Y-58182022D01*
X53752523Y-58088736D01*
X53868480Y-58026756D01*
X53935460Y-57786665D01*
X53149500Y-57000705D01*
X52363540Y-57786665D01*
X51619590Y-57786665D01*
X51694620Y-57711635D01*
X51847505Y-57482827D01*
X51877192Y-57411157D01*
X51881864Y-57424123D01*
X51943844Y-57540080D01*
X52183935Y-57607060D01*
X52969895Y-56821100D01*
X53329105Y-56821100D01*
X54115065Y-57607060D01*
X54355156Y-57540080D01*
X54418985Y-57404340D01*
X54451495Y-57482827D01*
X54604380Y-57711635D01*
X54798965Y-57906220D01*
X55027773Y-58059105D01*
X55282010Y-58164414D01*
X55551908Y-58218100D01*
X55827092Y-58218100D01*
X56096990Y-58164414D01*
X56351227Y-58059105D01*
X56580035Y-57906220D01*
X56774620Y-57711635D01*
X56927505Y-57482827D01*
X56959500Y-57405585D01*
X56991495Y-57482827D01*
X57144380Y-57711635D01*
X57338965Y-57906220D01*
X57567773Y-58059105D01*
X57822010Y-58164414D01*
X58091908Y-58218100D01*
X58367092Y-58218100D01*
X58636990Y-58164414D01*
X58891227Y-58059105D01*
X59120035Y-57906220D01*
X59314620Y-57711635D01*
X59467505Y-57482827D01*
X59499500Y-57405585D01*
X59531495Y-57482827D01*
X59684380Y-57711635D01*
X59878965Y-57906220D01*
X60107773Y-58059105D01*
X60362010Y-58164414D01*
X60631908Y-58218100D01*
X60907092Y-58218100D01*
X61176990Y-58164414D01*
X61431227Y-58059105D01*
X61660035Y-57906220D01*
X61854620Y-57711635D01*
X62007505Y-57482827D01*
X62039500Y-57405585D01*
X62071495Y-57482827D01*
X62224380Y-57711635D01*
X62418965Y-57906220D01*
X62647773Y-58059105D01*
X62902010Y-58164414D01*
X63171908Y-58218100D01*
X63447092Y-58218100D01*
X63716990Y-58164414D01*
X63971227Y-58059105D01*
X64200035Y-57906220D01*
X64394620Y-57711635D01*
X64547505Y-57482827D01*
X64579500Y-57405585D01*
X64611495Y-57482827D01*
X64764380Y-57711635D01*
X64958965Y-57906220D01*
X65187773Y-58059105D01*
X65442010Y-58164414D01*
X65711908Y-58218100D01*
X65987092Y-58218100D01*
X66256990Y-58164414D01*
X66511227Y-58059105D01*
X66740035Y-57906220D01*
X66934620Y-57711635D01*
X67087505Y-57482827D01*
X67119500Y-57405585D01*
X67151495Y-57482827D01*
X67304380Y-57711635D01*
X67498965Y-57906220D01*
X67727773Y-58059105D01*
X67982010Y-58164414D01*
X68251908Y-58218100D01*
X68527092Y-58218100D01*
X68796990Y-58164414D01*
X69051227Y-58059105D01*
X69280035Y-57906220D01*
X69474620Y-57711635D01*
X69627505Y-57482827D01*
X69659500Y-57405585D01*
X69691495Y-57482827D01*
X69844380Y-57711635D01*
X70038965Y-57906220D01*
X70267773Y-58059105D01*
X70522010Y-58164414D01*
X70791908Y-58218100D01*
X71067092Y-58218100D01*
X71336990Y-58164414D01*
X71591227Y-58059105D01*
X71820035Y-57906220D01*
X72014620Y-57711635D01*
X72167505Y-57482827D01*
X72199500Y-57405585D01*
X72231495Y-57482827D01*
X72384380Y-57711635D01*
X72578965Y-57906220D01*
X72807773Y-58059105D01*
X73062010Y-58164414D01*
X73331908Y-58218100D01*
X73607092Y-58218100D01*
X73876990Y-58164414D01*
X74131227Y-58059105D01*
X74360035Y-57906220D01*
X74554620Y-57711635D01*
X74707505Y-57482827D01*
X74739500Y-57405585D01*
X74771495Y-57482827D01*
X74924380Y-57711635D01*
X75118965Y-57906220D01*
X75347773Y-58059105D01*
X75602010Y-58164414D01*
X75871908Y-58218100D01*
X76147092Y-58218100D01*
X76416990Y-58164414D01*
X76671227Y-58059105D01*
X76900035Y-57906220D01*
X77094620Y-57711635D01*
X77247505Y-57482827D01*
X77279500Y-57405585D01*
X77311495Y-57482827D01*
X77464380Y-57711635D01*
X77658965Y-57906220D01*
X77887773Y-58059105D01*
X78142010Y-58164414D01*
X78411908Y-58218100D01*
X78687092Y-58218100D01*
X78956990Y-58164414D01*
X79211227Y-58059105D01*
X79440035Y-57906220D01*
X79634620Y-57711635D01*
X79787505Y-57482827D01*
X79892814Y-57228590D01*
X79946500Y-56958692D01*
X79946500Y-56683508D01*
X79892814Y-56413610D01*
X79787505Y-56159373D01*
X79634620Y-55930565D01*
X79440035Y-55735980D01*
X79211227Y-55583095D01*
X78956990Y-55477786D01*
X78687092Y-55424100D01*
X78411908Y-55424100D01*
X78142010Y-55477786D01*
X77887773Y-55583095D01*
X77658965Y-55735980D01*
X77464380Y-55930565D01*
X77311495Y-56159373D01*
X77279500Y-56236615D01*
X77247505Y-56159373D01*
X77094620Y-55930565D01*
X76900035Y-55735980D01*
X76671227Y-55583095D01*
X76416990Y-55477786D01*
X76147092Y-55424100D01*
X75871908Y-55424100D01*
X75602010Y-55477786D01*
X75347773Y-55583095D01*
X75118965Y-55735980D01*
X74924380Y-55930565D01*
X74771495Y-56159373D01*
X74739500Y-56236615D01*
X74707505Y-56159373D01*
X74554620Y-55930565D01*
X74360035Y-55735980D01*
X74131227Y-55583095D01*
X73876990Y-55477786D01*
X73607092Y-55424100D01*
X73331908Y-55424100D01*
X73062010Y-55477786D01*
X72807773Y-55583095D01*
X72578965Y-55735980D01*
X72384380Y-55930565D01*
X72231495Y-56159373D01*
X72199500Y-56236615D01*
X72167505Y-56159373D01*
X72014620Y-55930565D01*
X71820035Y-55735980D01*
X71591227Y-55583095D01*
X71336990Y-55477786D01*
X71067092Y-55424100D01*
X70791908Y-55424100D01*
X70522010Y-55477786D01*
X70267773Y-55583095D01*
X70038965Y-55735980D01*
X69844380Y-55930565D01*
X69691495Y-56159373D01*
X69659500Y-56236615D01*
X69627505Y-56159373D01*
X69474620Y-55930565D01*
X69280035Y-55735980D01*
X69051227Y-55583095D01*
X68796990Y-55477786D01*
X68527092Y-55424100D01*
X68251908Y-55424100D01*
X67982010Y-55477786D01*
X67727773Y-55583095D01*
X67498965Y-55735980D01*
X67304380Y-55930565D01*
X67151495Y-56159373D01*
X67119500Y-56236615D01*
X67087505Y-56159373D01*
X66934620Y-55930565D01*
X66740035Y-55735980D01*
X66511227Y-55583095D01*
X66256990Y-55477786D01*
X65987092Y-55424100D01*
X65711908Y-55424100D01*
X65442010Y-55477786D01*
X65187773Y-55583095D01*
X64958965Y-55735980D01*
X64764380Y-55930565D01*
X64611495Y-56159373D01*
X64579500Y-56236615D01*
X64547505Y-56159373D01*
X64394620Y-55930565D01*
X64200035Y-55735980D01*
X63971227Y-55583095D01*
X63716990Y-55477786D01*
X63447092Y-55424100D01*
X63171908Y-55424100D01*
X62902010Y-55477786D01*
X62647773Y-55583095D01*
X62418965Y-55735980D01*
X62224380Y-55930565D01*
X62071495Y-56159373D01*
X62039500Y-56236615D01*
X62007505Y-56159373D01*
X61854620Y-55930565D01*
X61660035Y-55735980D01*
X61431227Y-55583095D01*
X61176990Y-55477786D01*
X60907092Y-55424100D01*
X60631908Y-55424100D01*
X60362010Y-55477786D01*
X60107773Y-55583095D01*
X59878965Y-55735980D01*
X59684380Y-55930565D01*
X59531495Y-56159373D01*
X59499500Y-56236615D01*
X59467505Y-56159373D01*
X59314620Y-55930565D01*
X59120035Y-55735980D01*
X58891227Y-55583095D01*
X58636990Y-55477786D01*
X58367092Y-55424100D01*
X58091908Y-55424100D01*
X57822010Y-55477786D01*
X57567773Y-55583095D01*
X57338965Y-55735980D01*
X57144380Y-55930565D01*
X56991495Y-56159373D01*
X56959500Y-56236615D01*
X56927505Y-56159373D01*
X56774620Y-55930565D01*
X56580035Y-55735980D01*
X56351227Y-55583095D01*
X56096990Y-55477786D01*
X55827092Y-55424100D01*
X55551908Y-55424100D01*
X55282010Y-55477786D01*
X55027773Y-55583095D01*
X54798965Y-55735980D01*
X54604380Y-55930565D01*
X54451495Y-56159373D01*
X54421808Y-56231043D01*
X54417136Y-56218077D01*
X54355156Y-56102120D01*
X54115065Y-56035140D01*
X53329105Y-56821100D01*
X52969895Y-56821100D01*
X52183935Y-56035140D01*
X51943844Y-56102120D01*
X51880015Y-56237860D01*
X51847505Y-56159373D01*
X51694620Y-55930565D01*
X51619590Y-55855535D01*
X52363540Y-55855535D01*
X53149500Y-56641495D01*
X53935460Y-55855535D01*
X53868480Y-55615444D01*
X53619452Y-55498344D01*
X53352365Y-55432077D01*
X53077483Y-55419190D01*
X52805367Y-55460178D01*
X52546477Y-55553464D01*
X52430520Y-55615444D01*
X52363540Y-55855535D01*
X51619590Y-55855535D01*
X51500035Y-55735980D01*
X51271227Y-55583095D01*
X51016990Y-55477786D01*
X50747092Y-55424100D01*
X50471908Y-55424100D01*
X50202010Y-55477786D01*
X49947773Y-55583095D01*
X49718965Y-55735980D01*
X49524380Y-55930565D01*
X49371495Y-56159373D01*
X49266186Y-56413610D01*
X49212500Y-56683508D01*
X47396000Y-56683508D01*
X47396000Y-52349061D01*
X66147988Y-52349061D01*
X66147988Y-52552939D01*
X66187762Y-52752898D01*
X66265783Y-52941256D01*
X66379051Y-53110774D01*
X66523214Y-53254937D01*
X66692732Y-53368205D01*
X66881090Y-53446226D01*
X67081049Y-53486000D01*
X67284927Y-53486000D01*
X67484886Y-53446226D01*
X67673244Y-53368205D01*
X67811239Y-53276000D01*
X68031483Y-53276000D01*
X68071996Y-53279990D01*
X68112509Y-53276000D01*
X68112517Y-53276000D01*
X68233724Y-53264062D01*
X68389237Y-53216888D01*
X68532559Y-53140281D01*
X68658181Y-53037185D01*
X68684017Y-53005704D01*
X72656122Y-49033600D01*
X72818898Y-49001222D01*
X73007256Y-48923201D01*
X73176774Y-48809933D01*
X73320937Y-48665770D01*
X73434205Y-48496252D01*
X73512226Y-48307894D01*
X73552000Y-48107935D01*
X73552000Y-47904057D01*
X73512226Y-47704098D01*
X73434205Y-47515740D01*
X73320937Y-47346222D01*
X73176774Y-47202059D01*
X73007256Y-47088791D01*
X72818898Y-47010770D01*
X72618939Y-46970996D01*
X72415061Y-46970996D01*
X72215102Y-47010770D01*
X72026744Y-47088791D01*
X71857226Y-47202059D01*
X71713063Y-47346222D01*
X71599795Y-47515740D01*
X71521774Y-47704098D01*
X71489396Y-47866874D01*
X67762702Y-51593569D01*
X67673244Y-51533795D01*
X67484886Y-51455774D01*
X67284927Y-51416000D01*
X67081049Y-51416000D01*
X66881090Y-51455774D01*
X66692732Y-51533795D01*
X66523214Y-51647063D01*
X66379051Y-51791226D01*
X66265783Y-51960744D01*
X66187762Y-52149102D01*
X66147988Y-52349061D01*
X47396000Y-52349061D01*
X47396000Y-45207662D01*
X82359500Y-45207662D01*
X82359500Y-45470338D01*
X82410746Y-45727968D01*
X82511268Y-45970649D01*
X82657203Y-46189057D01*
X82842943Y-46374797D01*
X83061351Y-46520732D01*
X83274448Y-46609000D01*
X83061351Y-46697268D01*
X82842943Y-46843203D01*
X82657203Y-47028943D01*
X82511268Y-47247351D01*
X82410746Y-47490032D01*
X82359500Y-47747662D01*
X82359500Y-48010338D01*
X82410746Y-48267968D01*
X82511268Y-48510649D01*
X82657203Y-48729057D01*
X82842943Y-48914797D01*
X83061351Y-49060732D01*
X83274448Y-49149000D01*
X83061351Y-49237268D01*
X82842943Y-49383203D01*
X82657203Y-49568943D01*
X82511268Y-49787351D01*
X82410746Y-50030032D01*
X82359500Y-50287662D01*
X82359500Y-50550338D01*
X82410746Y-50807968D01*
X82511268Y-51050649D01*
X82657203Y-51269057D01*
X82842943Y-51454797D01*
X83061351Y-51600732D01*
X83274448Y-51689000D01*
X83061351Y-51777268D01*
X82842943Y-51923203D01*
X82657203Y-52108943D01*
X82511268Y-52327351D01*
X82410746Y-52570032D01*
X82359500Y-52827662D01*
X82359500Y-53090338D01*
X82410746Y-53347968D01*
X82511268Y-53590649D01*
X82657203Y-53809057D01*
X82842943Y-53994797D01*
X83061351Y-54140732D01*
X83304032Y-54241254D01*
X83561662Y-54292500D01*
X83824338Y-54292500D01*
X84081968Y-54241254D01*
X84324649Y-54140732D01*
X84543057Y-53994797D01*
X84728797Y-53809057D01*
X84874732Y-53590649D01*
X84975254Y-53347968D01*
X85026500Y-53090338D01*
X85026500Y-52827662D01*
X84975254Y-52570032D01*
X84874732Y-52327351D01*
X84728797Y-52108943D01*
X84543057Y-51923203D01*
X84324649Y-51777268D01*
X84111552Y-51689000D01*
X84324649Y-51600732D01*
X84543057Y-51454797D01*
X84728797Y-51269057D01*
X84874732Y-51050649D01*
X84975254Y-50807968D01*
X85026500Y-50550338D01*
X85026500Y-50287662D01*
X84975254Y-50030032D01*
X84874732Y-49787351D01*
X84728797Y-49568943D01*
X84543057Y-49383203D01*
X84324649Y-49237268D01*
X84111552Y-49149000D01*
X84324649Y-49060732D01*
X84331145Y-49056391D01*
X90172500Y-49056391D01*
X90172500Y-49368609D01*
X90233411Y-49674827D01*
X90352891Y-49963279D01*
X90526350Y-50222879D01*
X90747121Y-50443650D01*
X91006721Y-50617109D01*
X91295173Y-50736589D01*
X91601391Y-50797500D01*
X91913609Y-50797500D01*
X92219827Y-50736589D01*
X92508279Y-50617109D01*
X92767879Y-50443650D01*
X92988650Y-50222879D01*
X93162109Y-49963279D01*
X93281589Y-49674827D01*
X93342500Y-49368609D01*
X93342500Y-49056391D01*
X93290891Y-48796935D01*
X93650256Y-48725453D01*
X94038802Y-48564512D01*
X94261248Y-48415878D01*
X94255683Y-48429314D01*
X94152500Y-48948051D01*
X94152500Y-49476949D01*
X94255683Y-49995686D01*
X94458083Y-50484325D01*
X94751924Y-50924088D01*
X95125912Y-51298076D01*
X95565675Y-51591917D01*
X96054314Y-51794317D01*
X96573051Y-51897500D01*
X97101949Y-51897500D01*
X97620686Y-51794317D01*
X98109325Y-51591917D01*
X98549088Y-51298076D01*
X98923076Y-50924088D01*
X99216917Y-50484325D01*
X99419317Y-49995686D01*
X99522500Y-49476949D01*
X99522500Y-48948051D01*
X99419317Y-48429314D01*
X99216917Y-47940675D01*
X98923076Y-47500912D01*
X98549088Y-47126924D01*
X98109325Y-46833083D01*
X97620686Y-46630683D01*
X97101949Y-46527500D01*
X96573051Y-46527500D01*
X96054314Y-46630683D01*
X95565675Y-46833083D01*
X95125912Y-47126924D01*
X95110963Y-47141873D01*
X95162500Y-46882779D01*
X95162500Y-46462221D01*
X95080453Y-46049744D01*
X94919512Y-45661198D01*
X94685863Y-45311517D01*
X94388483Y-45014137D01*
X94038802Y-44780488D01*
X93650256Y-44619547D01*
X93237779Y-44537500D01*
X92817221Y-44537500D01*
X92404744Y-44619547D01*
X92016198Y-44780488D01*
X91666517Y-45014137D01*
X91369137Y-45311517D01*
X91135488Y-45661198D01*
X90974547Y-46049744D01*
X90892500Y-46462221D01*
X90892500Y-46882779D01*
X90974547Y-47295256D01*
X91135488Y-47683802D01*
X91172515Y-47739217D01*
X91006721Y-47807891D01*
X90747121Y-47981350D01*
X90526350Y-48202121D01*
X90352891Y-48461721D01*
X90233411Y-48750173D01*
X90172500Y-49056391D01*
X84331145Y-49056391D01*
X84543057Y-48914797D01*
X84728797Y-48729057D01*
X84874732Y-48510649D01*
X84975254Y-48267968D01*
X85026500Y-48010338D01*
X85026500Y-47747662D01*
X84975254Y-47490032D01*
X84874732Y-47247351D01*
X84728797Y-47028943D01*
X84543057Y-46843203D01*
X84324649Y-46697268D01*
X84111552Y-46609000D01*
X84324649Y-46520732D01*
X84543057Y-46374797D01*
X84728797Y-46189057D01*
X84874732Y-45970649D01*
X84975254Y-45727968D01*
X85026500Y-45470338D01*
X85026500Y-45207662D01*
X84975254Y-44950032D01*
X84874732Y-44707351D01*
X84728797Y-44488943D01*
X84543057Y-44303203D01*
X84324649Y-44157268D01*
X84081968Y-44056746D01*
X83824338Y-44005500D01*
X83561662Y-44005500D01*
X83304032Y-44056746D01*
X83061351Y-44157268D01*
X82842943Y-44303203D01*
X82657203Y-44488943D01*
X82511268Y-44707351D01*
X82410746Y-44950032D01*
X82359500Y-45207662D01*
X47396000Y-45207662D01*
X47396000Y-41463508D01*
X49212500Y-41463508D01*
X49212500Y-41738692D01*
X49266186Y-42008590D01*
X49371495Y-42262827D01*
X49524380Y-42491635D01*
X49718965Y-42686220D01*
X49947773Y-42839105D01*
X50202010Y-42944414D01*
X50471908Y-42998100D01*
X50747092Y-42998100D01*
X51016990Y-42944414D01*
X51271227Y-42839105D01*
X51500035Y-42686220D01*
X51694620Y-42491635D01*
X51847505Y-42262827D01*
X51879500Y-42185585D01*
X51911495Y-42262827D01*
X52064380Y-42491635D01*
X52258965Y-42686220D01*
X52487773Y-42839105D01*
X52742010Y-42944414D01*
X53011908Y-42998100D01*
X53287092Y-42998100D01*
X53556990Y-42944414D01*
X53811227Y-42839105D01*
X54040035Y-42686220D01*
X54159590Y-42566665D01*
X54903540Y-42566665D01*
X54970520Y-42806756D01*
X55219548Y-42923856D01*
X55486635Y-42990123D01*
X55761517Y-43003010D01*
X56033633Y-42962022D01*
X56292523Y-42868736D01*
X56408480Y-42806756D01*
X56475460Y-42566665D01*
X57443540Y-42566665D01*
X57510520Y-42806756D01*
X57759548Y-42923856D01*
X58026635Y-42990123D01*
X58301517Y-43003010D01*
X58573633Y-42962022D01*
X58832523Y-42868736D01*
X58948480Y-42806756D01*
X59015460Y-42566665D01*
X58229500Y-41780705D01*
X57443540Y-42566665D01*
X56475460Y-42566665D01*
X55689500Y-41780705D01*
X54903540Y-42566665D01*
X54159590Y-42566665D01*
X54234620Y-42491635D01*
X54387505Y-42262827D01*
X54417192Y-42191157D01*
X54421864Y-42204123D01*
X54483844Y-42320080D01*
X54723935Y-42387060D01*
X55509895Y-41601100D01*
X55869105Y-41601100D01*
X56655065Y-42387060D01*
X56895156Y-42320080D01*
X56956579Y-42189456D01*
X56961864Y-42204123D01*
X57023844Y-42320080D01*
X57263935Y-42387060D01*
X58049895Y-41601100D01*
X58409105Y-41601100D01*
X59195065Y-42387060D01*
X59435156Y-42320080D01*
X59498985Y-42184340D01*
X59531495Y-42262827D01*
X59684380Y-42491635D01*
X59878965Y-42686220D01*
X60107773Y-42839105D01*
X60362010Y-42944414D01*
X60631908Y-42998100D01*
X60907092Y-42998100D01*
X61176990Y-42944414D01*
X61431227Y-42839105D01*
X61660035Y-42686220D01*
X61854620Y-42491635D01*
X62007505Y-42262827D01*
X62039500Y-42185585D01*
X62071495Y-42262827D01*
X62224380Y-42491635D01*
X62418965Y-42686220D01*
X62647773Y-42839105D01*
X62902010Y-42944414D01*
X63171908Y-42998100D01*
X63447092Y-42998100D01*
X63716990Y-42944414D01*
X63971227Y-42839105D01*
X64200035Y-42686220D01*
X64394620Y-42491635D01*
X64547505Y-42262827D01*
X64579500Y-42185585D01*
X64611495Y-42262827D01*
X64764380Y-42491635D01*
X64958965Y-42686220D01*
X65187773Y-42839105D01*
X65442010Y-42944414D01*
X65711908Y-42998100D01*
X65987092Y-42998100D01*
X66256990Y-42944414D01*
X66511227Y-42839105D01*
X66740035Y-42686220D01*
X66934620Y-42491635D01*
X67087505Y-42262827D01*
X67119500Y-42185585D01*
X67151495Y-42262827D01*
X67304380Y-42491635D01*
X67498965Y-42686220D01*
X67727773Y-42839105D01*
X67982010Y-42944414D01*
X68251908Y-42998100D01*
X68527092Y-42998100D01*
X68796990Y-42944414D01*
X69051227Y-42839105D01*
X69280035Y-42686220D01*
X69474620Y-42491635D01*
X69627505Y-42262827D01*
X69659500Y-42185585D01*
X69691495Y-42262827D01*
X69844380Y-42491635D01*
X70038965Y-42686220D01*
X70267773Y-42839105D01*
X70522010Y-42944414D01*
X70791908Y-42998100D01*
X71067092Y-42998100D01*
X71336990Y-42944414D01*
X71591227Y-42839105D01*
X71820035Y-42686220D01*
X72014620Y-42491635D01*
X72167505Y-42262827D01*
X72199500Y-42185585D01*
X72231495Y-42262827D01*
X72384380Y-42491635D01*
X72578965Y-42686220D01*
X72807773Y-42839105D01*
X73062010Y-42944414D01*
X73331908Y-42998100D01*
X73607092Y-42998100D01*
X73876990Y-42944414D01*
X74131227Y-42839105D01*
X74360035Y-42686220D01*
X74554620Y-42491635D01*
X74707505Y-42262827D01*
X74739500Y-42185585D01*
X74771495Y-42262827D01*
X74924380Y-42491635D01*
X75118965Y-42686220D01*
X75347773Y-42839105D01*
X75602010Y-42944414D01*
X75871908Y-42998100D01*
X76147092Y-42998100D01*
X76416990Y-42944414D01*
X76671227Y-42839105D01*
X76900035Y-42686220D01*
X77094620Y-42491635D01*
X77247505Y-42262827D01*
X77279500Y-42185585D01*
X77311495Y-42262827D01*
X77464380Y-42491635D01*
X77658965Y-42686220D01*
X77887773Y-42839105D01*
X78142010Y-42944414D01*
X78411908Y-42998100D01*
X78687092Y-42998100D01*
X78956990Y-42944414D01*
X79211227Y-42839105D01*
X79440035Y-42686220D01*
X79634620Y-42491635D01*
X79787505Y-42262827D01*
X79892814Y-42008590D01*
X79929531Y-41823999D01*
X84827500Y-41823999D01*
X84827500Y-42313501D01*
X84922997Y-42793598D01*
X85110321Y-43245839D01*
X85382274Y-43652845D01*
X85728405Y-43998976D01*
X86135411Y-44270929D01*
X86587652Y-44458253D01*
X87067749Y-44553750D01*
X87557251Y-44553750D01*
X88037348Y-44458253D01*
X88489589Y-44270929D01*
X88896595Y-43998976D01*
X88973350Y-43922221D01*
X97242500Y-43922221D01*
X97242500Y-44342779D01*
X97324547Y-44755256D01*
X97485488Y-45143802D01*
X97719137Y-45493483D01*
X98016517Y-45790863D01*
X98366198Y-46024512D01*
X98754744Y-46185453D01*
X99167221Y-46267500D01*
X99587779Y-46267500D01*
X100000256Y-46185453D01*
X100388802Y-46024512D01*
X100738483Y-45790863D01*
X101035863Y-45493483D01*
X101269512Y-45143802D01*
X101430453Y-44755256D01*
X101512500Y-44342779D01*
X101512500Y-43922221D01*
X116292500Y-43922221D01*
X116292500Y-44342779D01*
X116374547Y-44755256D01*
X116535488Y-45143802D01*
X116769137Y-45493483D01*
X117066517Y-45790863D01*
X117416198Y-46024512D01*
X117804744Y-46185453D01*
X118217221Y-46267500D01*
X118637779Y-46267500D01*
X119050256Y-46185453D01*
X119438802Y-46024512D01*
X119788483Y-45790863D01*
X120085863Y-45493483D01*
X120319512Y-45143802D01*
X120480453Y-44755256D01*
X120562500Y-44342779D01*
X120562500Y-43922221D01*
X120480453Y-43509744D01*
X120319512Y-43121198D01*
X120085863Y-42771517D01*
X119788483Y-42474137D01*
X119438802Y-42240488D01*
X119050256Y-42079547D01*
X118637779Y-41997500D01*
X118217221Y-41997500D01*
X117804744Y-42079547D01*
X117416198Y-42240488D01*
X117066517Y-42474137D01*
X116769137Y-42771517D01*
X116535488Y-43121198D01*
X116374547Y-43509744D01*
X116292500Y-43922221D01*
X101512500Y-43922221D01*
X101430453Y-43509744D01*
X101269512Y-43121198D01*
X101035863Y-42771517D01*
X100738483Y-42474137D01*
X100388802Y-42240488D01*
X100000256Y-42079547D01*
X99587779Y-41997500D01*
X99167221Y-41997500D01*
X98754744Y-42079547D01*
X98366198Y-42240488D01*
X98016517Y-42474137D01*
X97719137Y-42771517D01*
X97485488Y-43121198D01*
X97324547Y-43509744D01*
X97242500Y-43922221D01*
X88973350Y-43922221D01*
X89242726Y-43652845D01*
X89514679Y-43245839D01*
X89702003Y-42793598D01*
X89797500Y-42313501D01*
X89797500Y-41823999D01*
X89702003Y-41343902D01*
X89514679Y-40891661D01*
X89242726Y-40484655D01*
X88896595Y-40138524D01*
X88489589Y-39866571D01*
X88037348Y-39679247D01*
X87557251Y-39583750D01*
X87067749Y-39583750D01*
X86587652Y-39679247D01*
X86135411Y-39866571D01*
X85728405Y-40138524D01*
X85382274Y-40484655D01*
X85110321Y-40891661D01*
X84922997Y-41343902D01*
X84827500Y-41823999D01*
X79929531Y-41823999D01*
X79946500Y-41738692D01*
X79946500Y-41463508D01*
X79892814Y-41193610D01*
X79787505Y-40939373D01*
X79634620Y-40710565D01*
X79440035Y-40515980D01*
X79211227Y-40363095D01*
X78956990Y-40257786D01*
X78687092Y-40204100D01*
X78411908Y-40204100D01*
X78142010Y-40257786D01*
X77887773Y-40363095D01*
X77658965Y-40515980D01*
X77464380Y-40710565D01*
X77311495Y-40939373D01*
X77279500Y-41016615D01*
X77247505Y-40939373D01*
X77094620Y-40710565D01*
X76900035Y-40515980D01*
X76671227Y-40363095D01*
X76416990Y-40257786D01*
X76147092Y-40204100D01*
X75871908Y-40204100D01*
X75602010Y-40257786D01*
X75347773Y-40363095D01*
X75118965Y-40515980D01*
X74924380Y-40710565D01*
X74771495Y-40939373D01*
X74739500Y-41016615D01*
X74707505Y-40939373D01*
X74554620Y-40710565D01*
X74360035Y-40515980D01*
X74131227Y-40363095D01*
X73876990Y-40257786D01*
X73607092Y-40204100D01*
X73331908Y-40204100D01*
X73062010Y-40257786D01*
X72807773Y-40363095D01*
X72578965Y-40515980D01*
X72384380Y-40710565D01*
X72231495Y-40939373D01*
X72199500Y-41016615D01*
X72167505Y-40939373D01*
X72014620Y-40710565D01*
X71820035Y-40515980D01*
X71591227Y-40363095D01*
X71336990Y-40257786D01*
X71067092Y-40204100D01*
X70791908Y-40204100D01*
X70522010Y-40257786D01*
X70267773Y-40363095D01*
X70038965Y-40515980D01*
X69844380Y-40710565D01*
X69691495Y-40939373D01*
X69659500Y-41016615D01*
X69627505Y-40939373D01*
X69474620Y-40710565D01*
X69280035Y-40515980D01*
X69051227Y-40363095D01*
X68796990Y-40257786D01*
X68527092Y-40204100D01*
X68251908Y-40204100D01*
X67982010Y-40257786D01*
X67727773Y-40363095D01*
X67498965Y-40515980D01*
X67304380Y-40710565D01*
X67151495Y-40939373D01*
X67119500Y-41016615D01*
X67087505Y-40939373D01*
X66934620Y-40710565D01*
X66740035Y-40515980D01*
X66511227Y-40363095D01*
X66256990Y-40257786D01*
X65987092Y-40204100D01*
X65711908Y-40204100D01*
X65442010Y-40257786D01*
X65187773Y-40363095D01*
X64958965Y-40515980D01*
X64764380Y-40710565D01*
X64611495Y-40939373D01*
X64579500Y-41016615D01*
X64547505Y-40939373D01*
X64394620Y-40710565D01*
X64200035Y-40515980D01*
X63971227Y-40363095D01*
X63716990Y-40257786D01*
X63447092Y-40204100D01*
X63171908Y-40204100D01*
X62902010Y-40257786D01*
X62647773Y-40363095D01*
X62418965Y-40515980D01*
X62224380Y-40710565D01*
X62071495Y-40939373D01*
X62039500Y-41016615D01*
X62007505Y-40939373D01*
X61854620Y-40710565D01*
X61660035Y-40515980D01*
X61431227Y-40363095D01*
X61176990Y-40257786D01*
X60907092Y-40204100D01*
X60631908Y-40204100D01*
X60362010Y-40257786D01*
X60107773Y-40363095D01*
X59878965Y-40515980D01*
X59684380Y-40710565D01*
X59531495Y-40939373D01*
X59501808Y-41011043D01*
X59497136Y-40998077D01*
X59435156Y-40882120D01*
X59195065Y-40815140D01*
X58409105Y-41601100D01*
X58049895Y-41601100D01*
X57263935Y-40815140D01*
X57023844Y-40882120D01*
X56962421Y-41012744D01*
X56957136Y-40998077D01*
X56895156Y-40882120D01*
X56655065Y-40815140D01*
X55869105Y-41601100D01*
X55509895Y-41601100D01*
X54723935Y-40815140D01*
X54483844Y-40882120D01*
X54420015Y-41017860D01*
X54387505Y-40939373D01*
X54234620Y-40710565D01*
X54159590Y-40635535D01*
X54903540Y-40635535D01*
X55689500Y-41421495D01*
X56475460Y-40635535D01*
X57443540Y-40635535D01*
X58229500Y-41421495D01*
X59015460Y-40635535D01*
X58948480Y-40395444D01*
X58699452Y-40278344D01*
X58432365Y-40212077D01*
X58157483Y-40199190D01*
X57885367Y-40240178D01*
X57626477Y-40333464D01*
X57510520Y-40395444D01*
X57443540Y-40635535D01*
X56475460Y-40635535D01*
X56408480Y-40395444D01*
X56159452Y-40278344D01*
X55892365Y-40212077D01*
X55617483Y-40199190D01*
X55345367Y-40240178D01*
X55086477Y-40333464D01*
X54970520Y-40395444D01*
X54903540Y-40635535D01*
X54159590Y-40635535D01*
X54040035Y-40515980D01*
X53811227Y-40363095D01*
X53556990Y-40257786D01*
X53287092Y-40204100D01*
X53011908Y-40204100D01*
X52742010Y-40257786D01*
X52487773Y-40363095D01*
X52258965Y-40515980D01*
X52064380Y-40710565D01*
X51911495Y-40939373D01*
X51879500Y-41016615D01*
X51847505Y-40939373D01*
X51694620Y-40710565D01*
X51500035Y-40515980D01*
X51271227Y-40363095D01*
X51016990Y-40257786D01*
X50747092Y-40204100D01*
X50471908Y-40204100D01*
X50202010Y-40257786D01*
X49947773Y-40363095D01*
X49718965Y-40515980D01*
X49524380Y-40710565D01*
X49371495Y-40939373D01*
X49266186Y-41193610D01*
X49212500Y-41463508D01*
X47396000Y-41463508D01*
X47396000Y-39719779D01*
X47401652Y-39662138D01*
X47409019Y-39637737D01*
X47420983Y-39615235D01*
X47437091Y-39595486D01*
X47456727Y-39579241D01*
X47479151Y-39567117D01*
X47503492Y-39559582D01*
X47558976Y-39553750D01*
X182530221Y-39553750D01*
X182587862Y-39559402D01*
G37*
%TD.AperFunction*%
%TD*%
M02*
