%TF.GenerationSoftware,KiCad,Pcbnew,(5.1.10)-1*%
%TF.CreationDate,2021-09-26T12:02:48+01:00*%
%TF.ProjectId,piccolo,70696363-6f6c-46f2-9e6b-696361645f70,rev?*%
%TF.SameCoordinates,Original*%
%TF.FileFunction,Copper,L2,Bot*%
%TF.FilePolarity,Positive*%
%FSLAX46Y46*%
G04 Gerber Fmt 4.6, Leading zero omitted, Abs format (unit mm)*
G04 Created by KiCad (PCBNEW (5.1.10)-1) date 2021-09-26 12:02:48*
%MOMM*%
%LPD*%
G01*
G04 APERTURE LIST*
%TA.AperFunction,ComponentPad*%
%ADD10C,1.524000*%
%TD*%
%TA.AperFunction,SMDPad,CuDef*%
%ADD11R,0.600000X1.200000*%
%TD*%
%TA.AperFunction,ComponentPad*%
%ADD12C,1.750000*%
%TD*%
%TA.AperFunction,SMDPad,CuDef*%
%ADD13R,2.550000X2.500000*%
%TD*%
%TA.AperFunction,ComponentPad*%
%ADD14R,1.600000X1.600000*%
%TD*%
%TA.AperFunction,ComponentPad*%
%ADD15C,1.600000*%
%TD*%
%TA.AperFunction,SMDPad,CuDef*%
%ADD16R,0.500000X2.900000*%
%TD*%
%TA.AperFunction,SMDPad,CuDef*%
%ADD17R,1.200000X1.600000*%
%TD*%
%TA.AperFunction,SMDPad,CuDef*%
%ADD18R,2.900000X0.500000*%
%TD*%
%TA.AperFunction,SMDPad,CuDef*%
%ADD19R,1.600000X1.200000*%
%TD*%
%TA.AperFunction,ComponentPad*%
%ADD20R,2.000000X2.000000*%
%TD*%
%TA.AperFunction,ComponentPad*%
%ADD21C,2.000000*%
%TD*%
%TA.AperFunction,ComponentPad*%
%ADD22C,1.397000*%
%TD*%
%TA.AperFunction,ViaPad*%
%ADD23C,0.800000*%
%TD*%
%TA.AperFunction,Conductor*%
%ADD24C,0.250000*%
%TD*%
%TA.AperFunction,Conductor*%
%ADD25C,0.380000*%
%TD*%
%TA.AperFunction,Conductor*%
%ADD26C,0.254000*%
%TD*%
%TA.AperFunction,Conductor*%
%ADD27C,0.100000*%
%TD*%
G04 APERTURE END LIST*
D10*
%TO.P,U1,24*%
%TO.N,Net-(U1-Pad24)*%
X50609500Y-56821100D03*
%TO.P,U1,23*%
%TO.N,GND*%
X53149500Y-56821100D03*
%TO.P,U1,22*%
%TO.N,Reset*%
X55689500Y-56821100D03*
%TO.P,U1,21*%
%TO.N,VCC*%
X58229500Y-56821100D03*
%TO.P,U1,20*%
%TO.N,Net-(U1-Pad20)*%
X60769500Y-56821100D03*
%TO.P,U1,19*%
%TO.N,Net-(U1-Pad19)*%
X63309500Y-56821100D03*
%TO.P,U1,18*%
%TO.N,Net-(U1-Pad18)*%
X65849500Y-56821100D03*
%TO.P,U1,17*%
%TO.N,Net-(U1-Pad17)*%
X68389500Y-56821100D03*
%TO.P,U1,16*%
%TO.N,EncoderB*%
X70929500Y-56821100D03*
%TO.P,U1,15*%
%TO.N,EncoderA*%
X73469500Y-56821100D03*
%TO.P,U1,14*%
%TO.N,Net-(U1-Pad14)*%
X76009500Y-56821100D03*
%TO.P,U1,13*%
%TO.N,row0*%
X78549500Y-56821100D03*
%TO.P,U1,12*%
%TO.N,row1*%
X78549500Y-41601100D03*
%TO.P,U1,11*%
%TO.N,Net-(U1-Pad11)*%
X76009500Y-41601100D03*
%TO.P,U1,10*%
%TO.N,col2*%
X73469500Y-41601100D03*
%TO.P,U1,9*%
%TO.N,col1*%
X70929500Y-41601100D03*
%TO.P,U1,8*%
%TO.N,col0*%
X68389500Y-41601100D03*
%TO.P,U1,7*%
%TO.N,Net-(U1-Pad7)*%
X65849500Y-41601100D03*
%TO.P,U1,6*%
%TO.N,SCL*%
X63309500Y-41601100D03*
%TO.P,U1,5*%
%TO.N,SDA*%
X60769500Y-41601100D03*
%TO.P,U1,4*%
%TO.N,GND*%
X58229500Y-41601100D03*
%TO.P,U1,3*%
X55689500Y-41601100D03*
%TO.P,U1,2*%
%TO.N,Net-(U1-Pad2)*%
X53149500Y-41601100D03*
%TO.P,U1,1*%
%TO.N,Net-(U1-Pad1)*%
X50609500Y-41601100D03*
%TD*%
D11*
%TO.P,GND,1*%
%TO.N,GND*%
X80626000Y-45339000D03*
%TO.P,GND,2*%
%TO.N,Net-(JP4-Pad2)*%
X81426000Y-45339000D03*
%TD*%
%TO.P,VCC,1*%
%TO.N,VCC*%
X80626000Y-47879000D03*
%TO.P,VCC,2*%
%TO.N,Net-(JP3-Pad2)*%
X81426000Y-47879000D03*
%TD*%
%TO.P,SCL,1*%
%TO.N,SCL*%
X80626000Y-50419000D03*
%TO.P,SCL,2*%
%TO.N,Net-(JP2-Pad2)*%
X81426000Y-50419000D03*
%TD*%
%TO.P,SDA,1*%
%TO.N,SDA*%
X80607000Y-52959000D03*
%TO.P,SDA,2*%
%TO.N,Net-(JP1-Pad2)*%
X81407000Y-52959000D03*
%TD*%
D12*
%TO.P,Reset,1*%
%TO.N,Reset*%
X179832000Y-51943000D03*
%TO.P,Reset,2*%
%TO.N,GND*%
X179832000Y-46943000D03*
%TD*%
D13*
%TO.P,MX4,2*%
%TO.N,Net-(D4-Pad2)*%
X159829500Y-44132500D03*
%TO.P,MX4,1*%
%TO.N,col0*%
X146902500Y-46672500D03*
%TD*%
D14*
%TO.P,D5,1*%
%TO.N,row1*%
X162306000Y-54703000D03*
D15*
%TO.P,D5,2*%
%TO.N,Net-(D5-Pad2)*%
X162306000Y-46903000D03*
D16*
%TO.P,D5,1*%
%TO.N,row1*%
X162306000Y-53303000D03*
D17*
X162306000Y-52203000D03*
%TO.P,D5,2*%
%TO.N,Net-(D5-Pad2)*%
X162306000Y-49403000D03*
D16*
X162306000Y-48303000D03*
%TD*%
D14*
%TO.P,D4,1*%
%TO.N,row1*%
X150087500Y-57943750D03*
D15*
%TO.P,D4,2*%
%TO.N,Net-(D4-Pad2)*%
X157887500Y-57943750D03*
D18*
%TO.P,D4,1*%
%TO.N,row1*%
X151487500Y-57943750D03*
D19*
X152587500Y-57943750D03*
%TO.P,D4,2*%
%TO.N,Net-(D4-Pad2)*%
X155387500Y-57943750D03*
D18*
X156487500Y-57943750D03*
%TD*%
D14*
%TO.P,D3,1*%
%TO.N,row0*%
X131037500Y-57943750D03*
D15*
%TO.P,D3,2*%
%TO.N,Net-(D3-Pad2)*%
X138837500Y-57943750D03*
D18*
%TO.P,D3,1*%
%TO.N,row0*%
X132437500Y-57943750D03*
D19*
X133537500Y-57943750D03*
%TO.P,D3,2*%
%TO.N,Net-(D3-Pad2)*%
X136337500Y-57943750D03*
D18*
X137437500Y-57943750D03*
%TD*%
D14*
%TO.P,D2,1*%
%TO.N,row0*%
X111987500Y-57943750D03*
D15*
%TO.P,D2,2*%
%TO.N,Net-(D2-Pad2)*%
X119787500Y-57943750D03*
D18*
%TO.P,D2,1*%
%TO.N,row0*%
X113387500Y-57943750D03*
D19*
X114487500Y-57943750D03*
%TO.P,D2,2*%
%TO.N,Net-(D2-Pad2)*%
X117287500Y-57943750D03*
D18*
X118387500Y-57943750D03*
%TD*%
D14*
%TO.P,D1,1*%
%TO.N,row0*%
X92937500Y-57943750D03*
D15*
%TO.P,D1,2*%
%TO.N,Net-(D1-Pad2)*%
X100737500Y-57943750D03*
D18*
%TO.P,D1,1*%
%TO.N,row0*%
X94337500Y-57943750D03*
D19*
X95437500Y-57943750D03*
%TO.P,D1,2*%
%TO.N,Net-(D1-Pad2)*%
X98237500Y-57943750D03*
D18*
X99337500Y-57943750D03*
%TD*%
D20*
%TO.P,ENC1,A*%
%TO.N,EncoderA*%
X170537500Y-56712500D03*
D21*
%TO.P,ENC1,C*%
%TO.N,GND*%
X173037500Y-56712500D03*
%TO.P,ENC1,B*%
%TO.N,EncoderB*%
X175537500Y-56712500D03*
%TO.P,ENC1,S2*%
%TO.N,col1*%
X170537500Y-42212500D03*
%TO.P,ENC1,S1*%
%TO.N,Net-(D5-Pad2)*%
X175537500Y-42212500D03*
%TD*%
D22*
%TO.P,OL1,4*%
%TO.N,Net-(JP4-Pad2)*%
X83693000Y-45339000D03*
%TO.P,OL1,3*%
%TO.N,Net-(JP3-Pad2)*%
X83693000Y-47879000D03*
%TO.P,OL1,2*%
%TO.N,Net-(JP2-Pad2)*%
X83693000Y-50419000D03*
%TO.P,OL1,1*%
%TO.N,Net-(JP1-Pad2)*%
X83693000Y-52959000D03*
%TD*%
D13*
%TO.P,MX5,2*%
%TO.N,Net-(D5-Pad2)*%
X178879500Y-44132500D03*
%TO.P,MX5,1*%
%TO.N,col1*%
X165952500Y-46672500D03*
%TD*%
%TO.P,MX3,2*%
%TO.N,Net-(D3-Pad2)*%
X140779500Y-44132500D03*
%TO.P,MX3,1*%
%TO.N,col2*%
X127852500Y-46672500D03*
%TD*%
%TO.P,MX2,2*%
%TO.N,Net-(D2-Pad2)*%
X121729500Y-44132500D03*
%TO.P,MX2,1*%
%TO.N,col1*%
X108802500Y-46672500D03*
%TD*%
%TO.P,MX1,2*%
%TO.N,Net-(D1-Pad2)*%
X102679500Y-44132500D03*
%TO.P,MX1,1*%
%TO.N,col0*%
X89752500Y-46672500D03*
%TD*%
D23*
%TO.N,Net-(D1-Pad2)*%
X100838000Y-47879000D03*
%TO.N,Net-(D2-Pad2)*%
X119856250Y-47625000D03*
%TO.N,Net-(D3-Pad2)*%
X138938000Y-47625000D03*
%TO.N,Net-(D4-Pad2)*%
X158508878Y-46494878D03*
%TO.N,row1*%
X137033000Y-41148000D03*
%TO.N,GND*%
X73279000Y-45339000D03*
X67242200Y-50613800D03*
X171117501Y-44147499D03*
X163068000Y-45466000D03*
%TO.N,VCC*%
X72517000Y-48005996D03*
X67182988Y-52451000D03*
%TD*%
D24*
%TO.N,Net-(D1-Pad2)*%
X102679500Y-46037500D02*
X100838000Y-47879000D01*
X102679500Y-44132500D02*
X102679500Y-46037500D01*
%TO.N,row0*%
X92964000Y-57912000D02*
X81095200Y-57912000D01*
X93027500Y-57848500D02*
X92964000Y-57912000D01*
X93027500Y-57943750D02*
X93027500Y-57848500D01*
X112077500Y-57848500D02*
X108331000Y-54102000D01*
X80004300Y-56821100D02*
X78549500Y-56821100D01*
X112077500Y-57943750D02*
X112077500Y-57848500D01*
X96869250Y-54102000D02*
X93027500Y-57943750D01*
X115919250Y-54102000D02*
X112077500Y-57943750D01*
X127333375Y-54102000D02*
X115919250Y-54102000D01*
X81095200Y-57912000D02*
X80004300Y-56821100D01*
X108331000Y-54102000D02*
X96869250Y-54102000D01*
X131127500Y-57896125D02*
X127333375Y-54102000D01*
X131127500Y-57943750D02*
X131127500Y-57896125D01*
%TO.N,Net-(D2-Pad2)*%
X121729500Y-45751750D02*
X119856250Y-47625000D01*
X121729500Y-44132500D02*
X121729500Y-45751750D01*
%TO.N,Net-(D3-Pad2)*%
X140779500Y-45783500D02*
X138938000Y-47625000D01*
X140779500Y-44132500D02*
X140779500Y-45783500D01*
%TO.N,Net-(D4-Pad2)*%
X159829500Y-45174256D02*
X158508878Y-46494878D01*
X159829500Y-44132500D02*
X159829500Y-45174256D01*
%TO.N,row1*%
X80706860Y-39443740D02*
X78549500Y-41601100D01*
X135328740Y-39443740D02*
X80706860Y-39443740D01*
X137033000Y-41148000D02*
X135328740Y-39443740D01*
X152278250Y-54703000D02*
X162306000Y-54703000D01*
X150087500Y-56893750D02*
X152278250Y-54703000D01*
X150087500Y-57943750D02*
X150087500Y-56893750D01*
%TO.N,Net-(D5-Pad2)*%
X162306000Y-46990000D02*
X162306000Y-46903000D01*
X163703000Y-48387000D02*
X162306000Y-46990000D01*
X163703000Y-49911000D02*
X163703000Y-48387000D01*
X166243000Y-52451000D02*
X163703000Y-49911000D01*
X174752000Y-52451000D02*
X166243000Y-52451000D01*
X176022000Y-51181000D02*
X174752000Y-52451000D01*
X176022000Y-46990000D02*
X176022000Y-51181000D01*
X178879500Y-44132500D02*
X176022000Y-46990000D01*
X176959500Y-42212500D02*
X175537500Y-42212500D01*
X178879500Y-44132500D02*
X176959500Y-42212500D01*
%TO.N,col0*%
X89752500Y-46672500D02*
X89752500Y-49094502D01*
X89752500Y-49094502D02*
X92695509Y-52037511D01*
X92695509Y-52037511D02*
X141537489Y-52037511D01*
X141537489Y-52037511D02*
X146902500Y-46672500D01*
X73460900Y-46672500D02*
X68389500Y-41601100D01*
X89752500Y-46672500D02*
X73460900Y-46672500D01*
%TO.N,col1*%
X144653000Y-48260000D02*
X144653000Y-44704000D01*
X144653000Y-44704000D02*
X149463251Y-39893749D01*
X141325499Y-51587501D02*
X144653000Y-48260000D01*
X111295499Y-51587501D02*
X141325499Y-51587501D01*
X108802500Y-49094502D02*
X111295499Y-51587501D01*
X108802500Y-46672500D02*
X108802500Y-49094502D01*
X73572151Y-44243751D02*
X70929500Y-41601100D01*
X88356501Y-44243751D02*
X73572151Y-44243751D01*
X91325252Y-41275000D02*
X88356501Y-44243751D01*
X105156000Y-41275000D02*
X91325252Y-41275000D01*
X108802500Y-44921500D02*
X105156000Y-41275000D01*
X108802500Y-46672500D02*
X108802500Y-44921500D01*
X168218749Y-39893749D02*
X168036749Y-39893749D01*
X170537500Y-42212500D02*
X168218749Y-39893749D01*
X149463251Y-39893749D02*
X168036749Y-39893749D01*
X166077500Y-46672500D02*
X165952500Y-46672500D01*
X170537500Y-42212500D02*
X166077500Y-46672500D01*
%TO.N,col2*%
X75048400Y-43180000D02*
X73469500Y-41601100D01*
X79375000Y-43180000D02*
X75048400Y-43180000D01*
X123459749Y-39893749D02*
X82661251Y-39893749D01*
X82661251Y-39893749D02*
X79375000Y-43180000D01*
X127852500Y-44286500D02*
X123459749Y-39893749D01*
X127852500Y-46672500D02*
X127852500Y-44286500D01*
D25*
%TO.N,GND*%
X55689500Y-41601100D02*
X58229500Y-41601100D01*
X80626000Y-45339000D02*
X73279000Y-45339000D01*
X58229500Y-41601100D02*
X67242200Y-50613800D01*
X55689500Y-48831500D02*
X53149500Y-51371500D01*
X53149500Y-51371500D02*
X53149500Y-56821100D01*
X55689500Y-41601100D02*
X55689500Y-48831500D01*
X180544501Y-42570499D02*
X180544501Y-46230499D01*
X177844001Y-39869999D02*
X180544501Y-42570499D01*
X70977389Y-54348989D02*
X85351011Y-54348989D01*
X158242000Y-47498000D02*
X159893000Y-47498000D01*
X87013029Y-52686971D02*
X154760828Y-52686970D01*
X67242200Y-50613800D02*
X70977389Y-54348989D01*
X85351011Y-54348989D02*
X87013029Y-52686971D01*
X154760828Y-52686970D02*
X157226000Y-50221798D01*
X171117501Y-44147499D02*
X171117501Y-44147499D01*
X157226000Y-50221798D02*
X157226000Y-48514000D01*
X161925000Y-45466000D02*
X163068000Y-45466000D01*
X180544501Y-46230499D02*
X179832000Y-46943000D01*
X157226000Y-48514000D02*
X158242000Y-47498000D01*
X159893000Y-47498000D02*
X161925000Y-45466000D01*
X175395001Y-39869999D02*
X177844001Y-39869999D01*
X171117501Y-44147499D02*
X175395001Y-39869999D01*
X163068000Y-45466000D02*
X163068000Y-45466000D01*
%TO.N,VCC*%
X72390004Y-47879000D02*
X72517000Y-48005996D01*
X62599600Y-52451000D02*
X67182988Y-52451000D01*
X58229500Y-56821100D02*
X62599600Y-52451000D01*
X72643996Y-47879000D02*
X72517000Y-48005996D01*
X80626000Y-47879000D02*
X72643996Y-47879000D01*
D24*
%TO.N,SCL*%
X72127400Y-50419000D02*
X63309500Y-41601100D01*
X80626000Y-50419000D02*
X72127400Y-50419000D01*
%TO.N,SDA*%
X72127400Y-52959000D02*
X60769500Y-41601100D01*
X80607000Y-52959000D02*
X72127400Y-52959000D01*
%TO.N,Reset*%
X58049640Y-59181240D02*
X55689500Y-56821100D01*
X175387760Y-59181240D02*
X58049640Y-59181240D01*
X179832000Y-54737000D02*
X175387760Y-59181240D01*
X179832000Y-54737000D02*
X179832000Y-51943000D01*
%TO.N,EncoderA*%
X165986178Y-53467000D02*
X168244500Y-53467000D01*
X163597178Y-51078000D02*
X165986178Y-53467000D01*
X161012001Y-51078000D02*
X163597178Y-51078000D01*
X158438009Y-53651992D02*
X161012001Y-51078000D01*
X87572008Y-53651992D02*
X158438009Y-53651992D01*
X85852000Y-55372000D02*
X87572008Y-53651992D01*
X168244500Y-53467000D02*
X170537500Y-55760000D01*
X74918600Y-55372000D02*
X85852000Y-55372000D01*
X73469500Y-56821100D02*
X74918600Y-55372000D01*
%TO.N,EncoderB*%
X172736500Y-52959000D02*
X175537500Y-55760000D01*
X166114589Y-52959000D02*
X172736500Y-52959000D01*
X160825601Y-50627989D02*
X163783578Y-50627989D01*
X158251609Y-53201981D02*
X160825601Y-50627989D01*
X87242734Y-53201981D02*
X158251609Y-53201981D01*
X163783578Y-50627989D02*
X166114589Y-52959000D01*
X85580715Y-54864000D02*
X87242734Y-53201981D01*
X72886600Y-54864000D02*
X85580715Y-54864000D01*
X70929500Y-56821100D02*
X72886600Y-54864000D01*
%TO.N,Net-(JP1-Pad2)*%
X81407000Y-52959000D02*
X83693000Y-52959000D01*
%TO.N,Net-(JP2-Pad2)*%
X81426000Y-50419000D02*
X83693000Y-50419000D01*
D25*
%TO.N,Net-(JP3-Pad2)*%
X81426000Y-47879000D02*
X83693000Y-47879000D01*
%TO.N,Net-(JP4-Pad2)*%
X81426000Y-45339000D02*
X83693000Y-45339000D01*
%TD*%
D26*
%TO.N,GND*%
X78841070Y-40234728D02*
X78687092Y-40204100D01*
X78411908Y-40204100D01*
X78142010Y-40257786D01*
X77887773Y-40363095D01*
X77658965Y-40515980D01*
X77464380Y-40710565D01*
X77311495Y-40939373D01*
X77279500Y-41016615D01*
X77247505Y-40939373D01*
X77094620Y-40710565D01*
X76900035Y-40515980D01*
X76671227Y-40363095D01*
X76416990Y-40257786D01*
X76147092Y-40204100D01*
X75871908Y-40204100D01*
X75602010Y-40257786D01*
X75347773Y-40363095D01*
X75118965Y-40515980D01*
X74924380Y-40710565D01*
X74771495Y-40939373D01*
X74739500Y-41016615D01*
X74707505Y-40939373D01*
X74554620Y-40710565D01*
X74360035Y-40515980D01*
X74131227Y-40363095D01*
X73876990Y-40257786D01*
X73607092Y-40204100D01*
X73331908Y-40204100D01*
X73062010Y-40257786D01*
X72807773Y-40363095D01*
X72578965Y-40515980D01*
X72384380Y-40710565D01*
X72231495Y-40939373D01*
X72199500Y-41016615D01*
X72167505Y-40939373D01*
X72014620Y-40710565D01*
X71820035Y-40515980D01*
X71591227Y-40363095D01*
X71336990Y-40257786D01*
X71067092Y-40204100D01*
X70791908Y-40204100D01*
X70522010Y-40257786D01*
X70267773Y-40363095D01*
X70038965Y-40515980D01*
X69844380Y-40710565D01*
X69691495Y-40939373D01*
X69659500Y-41016615D01*
X69627505Y-40939373D01*
X69474620Y-40710565D01*
X69280035Y-40515980D01*
X69051227Y-40363095D01*
X68796990Y-40257786D01*
X68527092Y-40204100D01*
X68251908Y-40204100D01*
X67982010Y-40257786D01*
X67727773Y-40363095D01*
X67498965Y-40515980D01*
X67304380Y-40710565D01*
X67151495Y-40939373D01*
X67119500Y-41016615D01*
X67087505Y-40939373D01*
X66934620Y-40710565D01*
X66740035Y-40515980D01*
X66511227Y-40363095D01*
X66256990Y-40257786D01*
X65987092Y-40204100D01*
X65711908Y-40204100D01*
X65442010Y-40257786D01*
X65187773Y-40363095D01*
X64958965Y-40515980D01*
X64764380Y-40710565D01*
X64611495Y-40939373D01*
X64579500Y-41016615D01*
X64547505Y-40939373D01*
X64394620Y-40710565D01*
X64200035Y-40515980D01*
X63971227Y-40363095D01*
X63716990Y-40257786D01*
X63447092Y-40204100D01*
X63171908Y-40204100D01*
X62902010Y-40257786D01*
X62647773Y-40363095D01*
X62418965Y-40515980D01*
X62224380Y-40710565D01*
X62071495Y-40939373D01*
X62039500Y-41016615D01*
X62007505Y-40939373D01*
X61854620Y-40710565D01*
X61660035Y-40515980D01*
X61431227Y-40363095D01*
X61176990Y-40257786D01*
X60907092Y-40204100D01*
X60631908Y-40204100D01*
X60362010Y-40257786D01*
X60107773Y-40363095D01*
X59878965Y-40515980D01*
X59684380Y-40710565D01*
X59531495Y-40939373D01*
X59501808Y-41011043D01*
X59497136Y-40998077D01*
X59435156Y-40882120D01*
X59195065Y-40815140D01*
X58409105Y-41601100D01*
X59195065Y-42387060D01*
X59435156Y-42320080D01*
X59498985Y-42184340D01*
X59531495Y-42262827D01*
X59684380Y-42491635D01*
X59878965Y-42686220D01*
X60107773Y-42839105D01*
X60362010Y-42944414D01*
X60631908Y-42998100D01*
X60907092Y-42998100D01*
X61061071Y-42967472D01*
X71563601Y-53470003D01*
X71587399Y-53499001D01*
X71703124Y-53593974D01*
X71835153Y-53664546D01*
X71978414Y-53708003D01*
X72090067Y-53719000D01*
X72090076Y-53719000D01*
X72127399Y-53722676D01*
X72164722Y-53719000D01*
X79691962Y-53719000D01*
X79717498Y-53803180D01*
X79776463Y-53913494D01*
X79855815Y-54010185D01*
X79952506Y-54089537D01*
X79979564Y-54104000D01*
X72923922Y-54104000D01*
X72886599Y-54100324D01*
X72849276Y-54104000D01*
X72849267Y-54104000D01*
X72737614Y-54114997D01*
X72594353Y-54158454D01*
X72462324Y-54229026D01*
X72346599Y-54323999D01*
X72322801Y-54352997D01*
X71221070Y-55454728D01*
X71067092Y-55424100D01*
X70791908Y-55424100D01*
X70522010Y-55477786D01*
X70267773Y-55583095D01*
X70038965Y-55735980D01*
X69844380Y-55930565D01*
X69691495Y-56159373D01*
X69659500Y-56236615D01*
X69627505Y-56159373D01*
X69474620Y-55930565D01*
X69280035Y-55735980D01*
X69051227Y-55583095D01*
X68796990Y-55477786D01*
X68527092Y-55424100D01*
X68251908Y-55424100D01*
X67982010Y-55477786D01*
X67727773Y-55583095D01*
X67498965Y-55735980D01*
X67304380Y-55930565D01*
X67151495Y-56159373D01*
X67119500Y-56236615D01*
X67087505Y-56159373D01*
X66934620Y-55930565D01*
X66740035Y-55735980D01*
X66511227Y-55583095D01*
X66256990Y-55477786D01*
X65987092Y-55424100D01*
X65711908Y-55424100D01*
X65442010Y-55477786D01*
X65187773Y-55583095D01*
X64958965Y-55735980D01*
X64764380Y-55930565D01*
X64611495Y-56159373D01*
X64579500Y-56236615D01*
X64547505Y-56159373D01*
X64394620Y-55930565D01*
X64200035Y-55735980D01*
X63971227Y-55583095D01*
X63716990Y-55477786D01*
X63447092Y-55424100D01*
X63171908Y-55424100D01*
X62902010Y-55477786D01*
X62647773Y-55583095D01*
X62418965Y-55735980D01*
X62224380Y-55930565D01*
X62071495Y-56159373D01*
X62039500Y-56236615D01*
X62007505Y-56159373D01*
X61854620Y-55930565D01*
X61660035Y-55735980D01*
X61431227Y-55583095D01*
X61176990Y-55477786D01*
X60907092Y-55424100D01*
X60793225Y-55424100D01*
X62941326Y-53276000D01*
X66554737Y-53276000D01*
X66692732Y-53368205D01*
X66881090Y-53446226D01*
X67081049Y-53486000D01*
X67284927Y-53486000D01*
X67484886Y-53446226D01*
X67673244Y-53368205D01*
X67842762Y-53254937D01*
X67986925Y-53110774D01*
X68100193Y-52941256D01*
X68178214Y-52752898D01*
X68217988Y-52552939D01*
X68217988Y-52349061D01*
X68178214Y-52149102D01*
X68100193Y-51960744D01*
X67986925Y-51791226D01*
X67842762Y-51647063D01*
X67673244Y-51533795D01*
X67484886Y-51455774D01*
X67284927Y-51416000D01*
X67081049Y-51416000D01*
X66881090Y-51455774D01*
X66692732Y-51533795D01*
X66554737Y-51626000D01*
X62640113Y-51626000D01*
X62599600Y-51622010D01*
X62559087Y-51626000D01*
X62559079Y-51626000D01*
X62437872Y-51637938D01*
X62282358Y-51685112D01*
X62252159Y-51701254D01*
X62139037Y-51761719D01*
X62013415Y-51864815D01*
X61987584Y-51896290D01*
X58444398Y-55439477D01*
X58367092Y-55424100D01*
X58091908Y-55424100D01*
X57822010Y-55477786D01*
X57567773Y-55583095D01*
X57338965Y-55735980D01*
X57144380Y-55930565D01*
X56991495Y-56159373D01*
X56959500Y-56236615D01*
X56927505Y-56159373D01*
X56774620Y-55930565D01*
X56580035Y-55735980D01*
X56351227Y-55583095D01*
X56096990Y-55477786D01*
X55827092Y-55424100D01*
X55551908Y-55424100D01*
X55282010Y-55477786D01*
X55027773Y-55583095D01*
X54798965Y-55735980D01*
X54604380Y-55930565D01*
X54451495Y-56159373D01*
X54421808Y-56231043D01*
X54417136Y-56218077D01*
X54355156Y-56102120D01*
X54115065Y-56035140D01*
X53329105Y-56821100D01*
X54115065Y-57607060D01*
X54355156Y-57540080D01*
X54418985Y-57404340D01*
X54451495Y-57482827D01*
X54604380Y-57711635D01*
X54798965Y-57906220D01*
X55027773Y-58059105D01*
X55282010Y-58164414D01*
X55551908Y-58218100D01*
X55827092Y-58218100D01*
X55981070Y-58187472D01*
X56664848Y-58871250D01*
X47562029Y-58871250D01*
X47504386Y-58865598D01*
X47479990Y-58858232D01*
X47457484Y-58846266D01*
X47437736Y-58830159D01*
X47421491Y-58810523D01*
X47409367Y-58788099D01*
X47401832Y-58763758D01*
X47396000Y-58708275D01*
X47396000Y-56683508D01*
X49212500Y-56683508D01*
X49212500Y-56958692D01*
X49266186Y-57228590D01*
X49371495Y-57482827D01*
X49524380Y-57711635D01*
X49718965Y-57906220D01*
X49947773Y-58059105D01*
X50202010Y-58164414D01*
X50471908Y-58218100D01*
X50747092Y-58218100D01*
X51016990Y-58164414D01*
X51271227Y-58059105D01*
X51500035Y-57906220D01*
X51619590Y-57786665D01*
X52363540Y-57786665D01*
X52430520Y-58026756D01*
X52679548Y-58143856D01*
X52946635Y-58210123D01*
X53221517Y-58223010D01*
X53493633Y-58182022D01*
X53752523Y-58088736D01*
X53868480Y-58026756D01*
X53935460Y-57786665D01*
X53149500Y-57000705D01*
X52363540Y-57786665D01*
X51619590Y-57786665D01*
X51694620Y-57711635D01*
X51847505Y-57482827D01*
X51877192Y-57411157D01*
X51881864Y-57424123D01*
X51943844Y-57540080D01*
X52183935Y-57607060D01*
X52969895Y-56821100D01*
X52183935Y-56035140D01*
X51943844Y-56102120D01*
X51880015Y-56237860D01*
X51847505Y-56159373D01*
X51694620Y-55930565D01*
X51619590Y-55855535D01*
X52363540Y-55855535D01*
X53149500Y-56641495D01*
X53935460Y-55855535D01*
X53868480Y-55615444D01*
X53619452Y-55498344D01*
X53352365Y-55432077D01*
X53077483Y-55419190D01*
X52805367Y-55460178D01*
X52546477Y-55553464D01*
X52430520Y-55615444D01*
X52363540Y-55855535D01*
X51619590Y-55855535D01*
X51500035Y-55735980D01*
X51271227Y-55583095D01*
X51016990Y-55477786D01*
X50747092Y-55424100D01*
X50471908Y-55424100D01*
X50202010Y-55477786D01*
X49947773Y-55583095D01*
X49718965Y-55735980D01*
X49524380Y-55930565D01*
X49371495Y-56159373D01*
X49266186Y-56413610D01*
X49212500Y-56683508D01*
X47396000Y-56683508D01*
X47396000Y-41463508D01*
X49212500Y-41463508D01*
X49212500Y-41738692D01*
X49266186Y-42008590D01*
X49371495Y-42262827D01*
X49524380Y-42491635D01*
X49718965Y-42686220D01*
X49947773Y-42839105D01*
X50202010Y-42944414D01*
X50471908Y-42998100D01*
X50747092Y-42998100D01*
X51016990Y-42944414D01*
X51271227Y-42839105D01*
X51500035Y-42686220D01*
X51694620Y-42491635D01*
X51847505Y-42262827D01*
X51879500Y-42185585D01*
X51911495Y-42262827D01*
X52064380Y-42491635D01*
X52258965Y-42686220D01*
X52487773Y-42839105D01*
X52742010Y-42944414D01*
X53011908Y-42998100D01*
X53287092Y-42998100D01*
X53556990Y-42944414D01*
X53811227Y-42839105D01*
X54040035Y-42686220D01*
X54159590Y-42566665D01*
X54903540Y-42566665D01*
X54970520Y-42806756D01*
X55219548Y-42923856D01*
X55486635Y-42990123D01*
X55761517Y-43003010D01*
X56033633Y-42962022D01*
X56292523Y-42868736D01*
X56408480Y-42806756D01*
X56475460Y-42566665D01*
X57443540Y-42566665D01*
X57510520Y-42806756D01*
X57759548Y-42923856D01*
X58026635Y-42990123D01*
X58301517Y-43003010D01*
X58573633Y-42962022D01*
X58832523Y-42868736D01*
X58948480Y-42806756D01*
X59015460Y-42566665D01*
X58229500Y-41780705D01*
X57443540Y-42566665D01*
X56475460Y-42566665D01*
X55689500Y-41780705D01*
X54903540Y-42566665D01*
X54159590Y-42566665D01*
X54234620Y-42491635D01*
X54387505Y-42262827D01*
X54417192Y-42191157D01*
X54421864Y-42204123D01*
X54483844Y-42320080D01*
X54723935Y-42387060D01*
X55509895Y-41601100D01*
X55869105Y-41601100D01*
X56655065Y-42387060D01*
X56895156Y-42320080D01*
X56956579Y-42189456D01*
X56961864Y-42204123D01*
X57023844Y-42320080D01*
X57263935Y-42387060D01*
X58049895Y-41601100D01*
X57263935Y-40815140D01*
X57023844Y-40882120D01*
X56962421Y-41012744D01*
X56957136Y-40998077D01*
X56895156Y-40882120D01*
X56655065Y-40815140D01*
X55869105Y-41601100D01*
X55509895Y-41601100D01*
X54723935Y-40815140D01*
X54483844Y-40882120D01*
X54420015Y-41017860D01*
X54387505Y-40939373D01*
X54234620Y-40710565D01*
X54159590Y-40635535D01*
X54903540Y-40635535D01*
X55689500Y-41421495D01*
X56475460Y-40635535D01*
X57443540Y-40635535D01*
X58229500Y-41421495D01*
X59015460Y-40635535D01*
X58948480Y-40395444D01*
X58699452Y-40278344D01*
X58432365Y-40212077D01*
X58157483Y-40199190D01*
X57885367Y-40240178D01*
X57626477Y-40333464D01*
X57510520Y-40395444D01*
X57443540Y-40635535D01*
X56475460Y-40635535D01*
X56408480Y-40395444D01*
X56159452Y-40278344D01*
X55892365Y-40212077D01*
X55617483Y-40199190D01*
X55345367Y-40240178D01*
X55086477Y-40333464D01*
X54970520Y-40395444D01*
X54903540Y-40635535D01*
X54159590Y-40635535D01*
X54040035Y-40515980D01*
X53811227Y-40363095D01*
X53556990Y-40257786D01*
X53287092Y-40204100D01*
X53011908Y-40204100D01*
X52742010Y-40257786D01*
X52487773Y-40363095D01*
X52258965Y-40515980D01*
X52064380Y-40710565D01*
X51911495Y-40939373D01*
X51879500Y-41016615D01*
X51847505Y-40939373D01*
X51694620Y-40710565D01*
X51500035Y-40515980D01*
X51271227Y-40363095D01*
X51016990Y-40257786D01*
X50747092Y-40204100D01*
X50471908Y-40204100D01*
X50202010Y-40257786D01*
X49947773Y-40363095D01*
X49718965Y-40515980D01*
X49524380Y-40710565D01*
X49371495Y-40939373D01*
X49266186Y-41193610D01*
X49212500Y-41463508D01*
X47396000Y-41463508D01*
X47396000Y-39719779D01*
X47401652Y-39662138D01*
X47409019Y-39637737D01*
X47420983Y-39615235D01*
X47437091Y-39595486D01*
X47456727Y-39579241D01*
X47479151Y-39567117D01*
X47503492Y-39559582D01*
X47558976Y-39553750D01*
X79522048Y-39553750D01*
X78841070Y-40234728D01*
%TA.AperFunction,Conductor*%
D27*
G36*
X78841070Y-40234728D02*
G01*
X78687092Y-40204100D01*
X78411908Y-40204100D01*
X78142010Y-40257786D01*
X77887773Y-40363095D01*
X77658965Y-40515980D01*
X77464380Y-40710565D01*
X77311495Y-40939373D01*
X77279500Y-41016615D01*
X77247505Y-40939373D01*
X77094620Y-40710565D01*
X76900035Y-40515980D01*
X76671227Y-40363095D01*
X76416990Y-40257786D01*
X76147092Y-40204100D01*
X75871908Y-40204100D01*
X75602010Y-40257786D01*
X75347773Y-40363095D01*
X75118965Y-40515980D01*
X74924380Y-40710565D01*
X74771495Y-40939373D01*
X74739500Y-41016615D01*
X74707505Y-40939373D01*
X74554620Y-40710565D01*
X74360035Y-40515980D01*
X74131227Y-40363095D01*
X73876990Y-40257786D01*
X73607092Y-40204100D01*
X73331908Y-40204100D01*
X73062010Y-40257786D01*
X72807773Y-40363095D01*
X72578965Y-40515980D01*
X72384380Y-40710565D01*
X72231495Y-40939373D01*
X72199500Y-41016615D01*
X72167505Y-40939373D01*
X72014620Y-40710565D01*
X71820035Y-40515980D01*
X71591227Y-40363095D01*
X71336990Y-40257786D01*
X71067092Y-40204100D01*
X70791908Y-40204100D01*
X70522010Y-40257786D01*
X70267773Y-40363095D01*
X70038965Y-40515980D01*
X69844380Y-40710565D01*
X69691495Y-40939373D01*
X69659500Y-41016615D01*
X69627505Y-40939373D01*
X69474620Y-40710565D01*
X69280035Y-40515980D01*
X69051227Y-40363095D01*
X68796990Y-40257786D01*
X68527092Y-40204100D01*
X68251908Y-40204100D01*
X67982010Y-40257786D01*
X67727773Y-40363095D01*
X67498965Y-40515980D01*
X67304380Y-40710565D01*
X67151495Y-40939373D01*
X67119500Y-41016615D01*
X67087505Y-40939373D01*
X66934620Y-40710565D01*
X66740035Y-40515980D01*
X66511227Y-40363095D01*
X66256990Y-40257786D01*
X65987092Y-40204100D01*
X65711908Y-40204100D01*
X65442010Y-40257786D01*
X65187773Y-40363095D01*
X64958965Y-40515980D01*
X64764380Y-40710565D01*
X64611495Y-40939373D01*
X64579500Y-41016615D01*
X64547505Y-40939373D01*
X64394620Y-40710565D01*
X64200035Y-40515980D01*
X63971227Y-40363095D01*
X63716990Y-40257786D01*
X63447092Y-40204100D01*
X63171908Y-40204100D01*
X62902010Y-40257786D01*
X62647773Y-40363095D01*
X62418965Y-40515980D01*
X62224380Y-40710565D01*
X62071495Y-40939373D01*
X62039500Y-41016615D01*
X62007505Y-40939373D01*
X61854620Y-40710565D01*
X61660035Y-40515980D01*
X61431227Y-40363095D01*
X61176990Y-40257786D01*
X60907092Y-40204100D01*
X60631908Y-40204100D01*
X60362010Y-40257786D01*
X60107773Y-40363095D01*
X59878965Y-40515980D01*
X59684380Y-40710565D01*
X59531495Y-40939373D01*
X59501808Y-41011043D01*
X59497136Y-40998077D01*
X59435156Y-40882120D01*
X59195065Y-40815140D01*
X58409105Y-41601100D01*
X59195065Y-42387060D01*
X59435156Y-42320080D01*
X59498985Y-42184340D01*
X59531495Y-42262827D01*
X59684380Y-42491635D01*
X59878965Y-42686220D01*
X60107773Y-42839105D01*
X60362010Y-42944414D01*
X60631908Y-42998100D01*
X60907092Y-42998100D01*
X61061071Y-42967472D01*
X71563601Y-53470003D01*
X71587399Y-53499001D01*
X71703124Y-53593974D01*
X71835153Y-53664546D01*
X71978414Y-53708003D01*
X72090067Y-53719000D01*
X72090076Y-53719000D01*
X72127399Y-53722676D01*
X72164722Y-53719000D01*
X79691962Y-53719000D01*
X79717498Y-53803180D01*
X79776463Y-53913494D01*
X79855815Y-54010185D01*
X79952506Y-54089537D01*
X79979564Y-54104000D01*
X72923922Y-54104000D01*
X72886599Y-54100324D01*
X72849276Y-54104000D01*
X72849267Y-54104000D01*
X72737614Y-54114997D01*
X72594353Y-54158454D01*
X72462324Y-54229026D01*
X72346599Y-54323999D01*
X72322801Y-54352997D01*
X71221070Y-55454728D01*
X71067092Y-55424100D01*
X70791908Y-55424100D01*
X70522010Y-55477786D01*
X70267773Y-55583095D01*
X70038965Y-55735980D01*
X69844380Y-55930565D01*
X69691495Y-56159373D01*
X69659500Y-56236615D01*
X69627505Y-56159373D01*
X69474620Y-55930565D01*
X69280035Y-55735980D01*
X69051227Y-55583095D01*
X68796990Y-55477786D01*
X68527092Y-55424100D01*
X68251908Y-55424100D01*
X67982010Y-55477786D01*
X67727773Y-55583095D01*
X67498965Y-55735980D01*
X67304380Y-55930565D01*
X67151495Y-56159373D01*
X67119500Y-56236615D01*
X67087505Y-56159373D01*
X66934620Y-55930565D01*
X66740035Y-55735980D01*
X66511227Y-55583095D01*
X66256990Y-55477786D01*
X65987092Y-55424100D01*
X65711908Y-55424100D01*
X65442010Y-55477786D01*
X65187773Y-55583095D01*
X64958965Y-55735980D01*
X64764380Y-55930565D01*
X64611495Y-56159373D01*
X64579500Y-56236615D01*
X64547505Y-56159373D01*
X64394620Y-55930565D01*
X64200035Y-55735980D01*
X63971227Y-55583095D01*
X63716990Y-55477786D01*
X63447092Y-55424100D01*
X63171908Y-55424100D01*
X62902010Y-55477786D01*
X62647773Y-55583095D01*
X62418965Y-55735980D01*
X62224380Y-55930565D01*
X62071495Y-56159373D01*
X62039500Y-56236615D01*
X62007505Y-56159373D01*
X61854620Y-55930565D01*
X61660035Y-55735980D01*
X61431227Y-55583095D01*
X61176990Y-55477786D01*
X60907092Y-55424100D01*
X60793225Y-55424100D01*
X62941326Y-53276000D01*
X66554737Y-53276000D01*
X66692732Y-53368205D01*
X66881090Y-53446226D01*
X67081049Y-53486000D01*
X67284927Y-53486000D01*
X67484886Y-53446226D01*
X67673244Y-53368205D01*
X67842762Y-53254937D01*
X67986925Y-53110774D01*
X68100193Y-52941256D01*
X68178214Y-52752898D01*
X68217988Y-52552939D01*
X68217988Y-52349061D01*
X68178214Y-52149102D01*
X68100193Y-51960744D01*
X67986925Y-51791226D01*
X67842762Y-51647063D01*
X67673244Y-51533795D01*
X67484886Y-51455774D01*
X67284927Y-51416000D01*
X67081049Y-51416000D01*
X66881090Y-51455774D01*
X66692732Y-51533795D01*
X66554737Y-51626000D01*
X62640113Y-51626000D01*
X62599600Y-51622010D01*
X62559087Y-51626000D01*
X62559079Y-51626000D01*
X62437872Y-51637938D01*
X62282358Y-51685112D01*
X62252159Y-51701254D01*
X62139037Y-51761719D01*
X62013415Y-51864815D01*
X61987584Y-51896290D01*
X58444398Y-55439477D01*
X58367092Y-55424100D01*
X58091908Y-55424100D01*
X57822010Y-55477786D01*
X57567773Y-55583095D01*
X57338965Y-55735980D01*
X57144380Y-55930565D01*
X56991495Y-56159373D01*
X56959500Y-56236615D01*
X56927505Y-56159373D01*
X56774620Y-55930565D01*
X56580035Y-55735980D01*
X56351227Y-55583095D01*
X56096990Y-55477786D01*
X55827092Y-55424100D01*
X55551908Y-55424100D01*
X55282010Y-55477786D01*
X55027773Y-55583095D01*
X54798965Y-55735980D01*
X54604380Y-55930565D01*
X54451495Y-56159373D01*
X54421808Y-56231043D01*
X54417136Y-56218077D01*
X54355156Y-56102120D01*
X54115065Y-56035140D01*
X53329105Y-56821100D01*
X54115065Y-57607060D01*
X54355156Y-57540080D01*
X54418985Y-57404340D01*
X54451495Y-57482827D01*
X54604380Y-57711635D01*
X54798965Y-57906220D01*
X55027773Y-58059105D01*
X55282010Y-58164414D01*
X55551908Y-58218100D01*
X55827092Y-58218100D01*
X55981070Y-58187472D01*
X56664848Y-58871250D01*
X47562029Y-58871250D01*
X47504386Y-58865598D01*
X47479990Y-58858232D01*
X47457484Y-58846266D01*
X47437736Y-58830159D01*
X47421491Y-58810523D01*
X47409367Y-58788099D01*
X47401832Y-58763758D01*
X47396000Y-58708275D01*
X47396000Y-56683508D01*
X49212500Y-56683508D01*
X49212500Y-56958692D01*
X49266186Y-57228590D01*
X49371495Y-57482827D01*
X49524380Y-57711635D01*
X49718965Y-57906220D01*
X49947773Y-58059105D01*
X50202010Y-58164414D01*
X50471908Y-58218100D01*
X50747092Y-58218100D01*
X51016990Y-58164414D01*
X51271227Y-58059105D01*
X51500035Y-57906220D01*
X51619590Y-57786665D01*
X52363540Y-57786665D01*
X52430520Y-58026756D01*
X52679548Y-58143856D01*
X52946635Y-58210123D01*
X53221517Y-58223010D01*
X53493633Y-58182022D01*
X53752523Y-58088736D01*
X53868480Y-58026756D01*
X53935460Y-57786665D01*
X53149500Y-57000705D01*
X52363540Y-57786665D01*
X51619590Y-57786665D01*
X51694620Y-57711635D01*
X51847505Y-57482827D01*
X51877192Y-57411157D01*
X51881864Y-57424123D01*
X51943844Y-57540080D01*
X52183935Y-57607060D01*
X52969895Y-56821100D01*
X52183935Y-56035140D01*
X51943844Y-56102120D01*
X51880015Y-56237860D01*
X51847505Y-56159373D01*
X51694620Y-55930565D01*
X51619590Y-55855535D01*
X52363540Y-55855535D01*
X53149500Y-56641495D01*
X53935460Y-55855535D01*
X53868480Y-55615444D01*
X53619452Y-55498344D01*
X53352365Y-55432077D01*
X53077483Y-55419190D01*
X52805367Y-55460178D01*
X52546477Y-55553464D01*
X52430520Y-55615444D01*
X52363540Y-55855535D01*
X51619590Y-55855535D01*
X51500035Y-55735980D01*
X51271227Y-55583095D01*
X51016990Y-55477786D01*
X50747092Y-55424100D01*
X50471908Y-55424100D01*
X50202010Y-55477786D01*
X49947773Y-55583095D01*
X49718965Y-55735980D01*
X49524380Y-55930565D01*
X49371495Y-56159373D01*
X49266186Y-56413610D01*
X49212500Y-56683508D01*
X47396000Y-56683508D01*
X47396000Y-41463508D01*
X49212500Y-41463508D01*
X49212500Y-41738692D01*
X49266186Y-42008590D01*
X49371495Y-42262827D01*
X49524380Y-42491635D01*
X49718965Y-42686220D01*
X49947773Y-42839105D01*
X50202010Y-42944414D01*
X50471908Y-42998100D01*
X50747092Y-42998100D01*
X51016990Y-42944414D01*
X51271227Y-42839105D01*
X51500035Y-42686220D01*
X51694620Y-42491635D01*
X51847505Y-42262827D01*
X51879500Y-42185585D01*
X51911495Y-42262827D01*
X52064380Y-42491635D01*
X52258965Y-42686220D01*
X52487773Y-42839105D01*
X52742010Y-42944414D01*
X53011908Y-42998100D01*
X53287092Y-42998100D01*
X53556990Y-42944414D01*
X53811227Y-42839105D01*
X54040035Y-42686220D01*
X54159590Y-42566665D01*
X54903540Y-42566665D01*
X54970520Y-42806756D01*
X55219548Y-42923856D01*
X55486635Y-42990123D01*
X55761517Y-43003010D01*
X56033633Y-42962022D01*
X56292523Y-42868736D01*
X56408480Y-42806756D01*
X56475460Y-42566665D01*
X57443540Y-42566665D01*
X57510520Y-42806756D01*
X57759548Y-42923856D01*
X58026635Y-42990123D01*
X58301517Y-43003010D01*
X58573633Y-42962022D01*
X58832523Y-42868736D01*
X58948480Y-42806756D01*
X59015460Y-42566665D01*
X58229500Y-41780705D01*
X57443540Y-42566665D01*
X56475460Y-42566665D01*
X55689500Y-41780705D01*
X54903540Y-42566665D01*
X54159590Y-42566665D01*
X54234620Y-42491635D01*
X54387505Y-42262827D01*
X54417192Y-42191157D01*
X54421864Y-42204123D01*
X54483844Y-42320080D01*
X54723935Y-42387060D01*
X55509895Y-41601100D01*
X55869105Y-41601100D01*
X56655065Y-42387060D01*
X56895156Y-42320080D01*
X56956579Y-42189456D01*
X56961864Y-42204123D01*
X57023844Y-42320080D01*
X57263935Y-42387060D01*
X58049895Y-41601100D01*
X57263935Y-40815140D01*
X57023844Y-40882120D01*
X56962421Y-41012744D01*
X56957136Y-40998077D01*
X56895156Y-40882120D01*
X56655065Y-40815140D01*
X55869105Y-41601100D01*
X55509895Y-41601100D01*
X54723935Y-40815140D01*
X54483844Y-40882120D01*
X54420015Y-41017860D01*
X54387505Y-40939373D01*
X54234620Y-40710565D01*
X54159590Y-40635535D01*
X54903540Y-40635535D01*
X55689500Y-41421495D01*
X56475460Y-40635535D01*
X57443540Y-40635535D01*
X58229500Y-41421495D01*
X59015460Y-40635535D01*
X58948480Y-40395444D01*
X58699452Y-40278344D01*
X58432365Y-40212077D01*
X58157483Y-40199190D01*
X57885367Y-40240178D01*
X57626477Y-40333464D01*
X57510520Y-40395444D01*
X57443540Y-40635535D01*
X56475460Y-40635535D01*
X56408480Y-40395444D01*
X56159452Y-40278344D01*
X55892365Y-40212077D01*
X55617483Y-40199190D01*
X55345367Y-40240178D01*
X55086477Y-40333464D01*
X54970520Y-40395444D01*
X54903540Y-40635535D01*
X54159590Y-40635535D01*
X54040035Y-40515980D01*
X53811227Y-40363095D01*
X53556990Y-40257786D01*
X53287092Y-40204100D01*
X53011908Y-40204100D01*
X52742010Y-40257786D01*
X52487773Y-40363095D01*
X52258965Y-40515980D01*
X52064380Y-40710565D01*
X51911495Y-40939373D01*
X51879500Y-41016615D01*
X51847505Y-40939373D01*
X51694620Y-40710565D01*
X51500035Y-40515980D01*
X51271227Y-40363095D01*
X51016990Y-40257786D01*
X50747092Y-40204100D01*
X50471908Y-40204100D01*
X50202010Y-40257786D01*
X49947773Y-40363095D01*
X49718965Y-40515980D01*
X49524380Y-40710565D01*
X49371495Y-40939373D01*
X49266186Y-41193610D01*
X49212500Y-41463508D01*
X47396000Y-41463508D01*
X47396000Y-39719779D01*
X47401652Y-39662138D01*
X47409019Y-39637737D01*
X47420983Y-39615235D01*
X47437091Y-39595486D01*
X47456727Y-39579241D01*
X47479151Y-39567117D01*
X47503492Y-39559582D01*
X47558976Y-39553750D01*
X79522048Y-39553750D01*
X78841070Y-40234728D01*
G37*
%TD.AperFunction*%
D26*
X73008352Y-44754754D02*
X73032150Y-44783752D01*
X73061148Y-44807550D01*
X73147874Y-44878725D01*
X73279904Y-44949297D01*
X73423165Y-44992754D01*
X73534818Y-45003751D01*
X73534828Y-45003751D01*
X73572151Y-45007427D01*
X73609474Y-45003751D01*
X79690516Y-45003751D01*
X79691000Y-45053250D01*
X79849750Y-45212000D01*
X80487928Y-45212000D01*
X80487928Y-45466000D01*
X79849750Y-45466000D01*
X79691000Y-45624750D01*
X79688187Y-45912500D01*
X73775702Y-45912500D01*
X70861301Y-42998100D01*
X71067092Y-42998100D01*
X71221070Y-42967472D01*
X73008352Y-44754754D01*
%TA.AperFunction,Conductor*%
D27*
G36*
X73008352Y-44754754D02*
G01*
X73032150Y-44783752D01*
X73061148Y-44807550D01*
X73147874Y-44878725D01*
X73279904Y-44949297D01*
X73423165Y-44992754D01*
X73534818Y-45003751D01*
X73534828Y-45003751D01*
X73572151Y-45007427D01*
X73609474Y-45003751D01*
X79690516Y-45003751D01*
X79691000Y-45053250D01*
X79849750Y-45212000D01*
X80487928Y-45212000D01*
X80487928Y-45466000D01*
X79849750Y-45466000D01*
X79691000Y-45624750D01*
X79688187Y-45912500D01*
X73775702Y-45912500D01*
X70861301Y-42998100D01*
X71067092Y-42998100D01*
X71221070Y-42967472D01*
X73008352Y-44754754D01*
G37*
%TD.AperFunction*%
%TD*%
M02*
